<svg xmlns="http://www.w3.org/2000/svg" fill="none" viewBox="0 0 393 716"><path fill="#5FBE3F" d="M4.41 151.764A119.501 119.501 0 0 1 79.804 6.884l7.348 23.273A95.196 95.196 0 0 0 27.8 144.416l-23.39 7.348zM64.034 225.287a117.331 117.331 0 0 1-25.34-17.66A119.564 119.564 0 0 1 6.71 159.191l23.273-7.349a95.044 95.044 0 0 0 68.83 60.527 95.04 95.04 0 0 0 87.96-25.773l17.99 16.49a119.832 119.832 0 0 1-140.728 22.201z"/><path fill="#fff" d="M64.034 225.287a117.331 117.331 0 0 1-25.34-17.66A119.564 119.564 0 0 1 6.71 159.191l23.273-7.349a95.044 95.044 0 0 0 68.83 60.527 95.04 95.04 0 0 0 87.96-25.773l17.99 16.49a119.832 119.832 0 0 1-140.728 22.201z" opacity=".7"/><path fill="#5FBE3F" d="M192.132 180.846a95.038 95.038 0 0 0-38.294-149.9 95.042 95.042 0 0 0-59.163-3.128l-7.349-23.39a119.503 119.503 0 0 1 146.187 79.097 119.834 119.834 0 0 1-23.273 113.713l-18.108-16.392z"/><path fill="#000" d="M192.132 180.846a95.038 95.038 0 0 0-38.294-149.9 95.042 95.042 0 0 0-59.163-3.128l-7.349-23.39a119.503 119.503 0 0 1 146.187 79.097 119.834 119.834 0 0 1-23.273 113.713l-18.108-16.392z" opacity=".3"/><path fill="#5FBE3F" d="M141.73 90.717a29.665 29.665 0 0 0-48.389 9.613 29.668 29.668 0 0 0 6.424 32.333l20.972 20.973 20.993-20.973a29.666 29.666 0 0 0 0-41.946z"/><path fill="#000" d="M141.73 90.717a29.665 29.665 0 0 0-48.389 9.613 29.668 29.668 0 0 0 6.424 32.333l20.972 20.973 20.993-20.973a29.666 29.666 0 0 0 0-41.946z" opacity=".3"/><path fill="#5FBE3F" d="M121.925 159.853h-2.339v9.356h2.339v-9.356z"/><path fill="#000" d="M121.925 159.853h-2.339v9.356h2.339v-9.356z" opacity=".3"/><path fill="#5FBE3F" d="M121.925 176.441h-2.339v9.356h2.339v-9.356z"/><path fill="#000" d="M121.925 176.441h-2.339v9.356h2.339v-9.356z" opacity=".3"/><path fill="#5FBE3F" d="M78 252H40v452h38V252z"/><path fill="#fff" d="M78 245H40v459h38V245z" opacity=".5"/><path fill="#263238" d="M186.578 357.946h-2.027v44.752h2.027v-44.752zM186.578 331.632h-2.027v17.991h2.027v-17.991z"/><path fill="#CFEBC5" d="M243 414h-80v291h80V414z"/><path fill="#5FBE3F" d="M281.073 430.454h-38.106v109.153h38.106V430.454z"/><path fill="#000" d="M281.073 430.454h-38.106v109.153h38.106V430.454z" opacity=".6"/><path fill="#5FBE3F" d="M141.377 191.371H61.988v348.236h79.389V191.371z"/><path fill="#000" d="M141 191H62v513h79V191z" opacity=".7"/><path fill="#5FBE3F" d="M179.481 191.371h-38.106v348.236h38.106V191.371z"/><path fill="#000" d="M179 191h-38v513h38V191z" opacity=".8"/><path fill="#E58A7B" d="M285.033 278.856c-2.728 21.557-6.159 43.173-9.219 64.556a78.968 78.968 0 0 1-1.696 9.278 62.056 62.056 0 0 1-3.352 9.141 78.014 78.014 0 0 1-9.629 15.593 107.69 107.69 0 0 1-11.968 12.884c-2.105 1.949-4.347 3.898-6.608 5.594-2.261 1.696-4.502 3.45-7.095 5.146l-6.919-8.635a274.224 274.224 0 0 0 5.107-5.847c1.656-1.949 3.294-4.054 4.892-6.121a117.567 117.567 0 0 0 8.557-12.689 69.862 69.862 0 0 0 6.101-13.078 41.454 41.454 0 0 0 1.656-6.472c.342-2.306.563-4.629.663-6.958.721-11.071 1.813-22.025 3.021-32.96a708.676 708.676 0 0 1 4.366-32.61l22.123 3.178z"/><path fill="#5FBE3F" d="M289.887 271.449c4.97 13.196-20.193 52.042-20.193 52.042l-29.491-16.002a178.674 178.674 0 0 1 17.094-34.52c10.37-15.554 27.152-16.002 32.59-1.52z"/><path fill="#000" d="M289.887 271.449c4.97 13.196-20.193 52.042-20.193 52.042l-29.491-16.002a178.674 178.674 0 0 1 17.094-34.52c10.37-15.554 27.152-16.002 32.59-1.52z" opacity=".2"/><path fill="#5FBE3F" d="M272.383 261.352s-17.406 44.538-.877 127.455h78.883c.545-12.104-7.076-71.163 4.6-128.195a204.26 204.26 0 0 0-26.392-3.353 291.113 291.113 0 0 0-33.525 0 147.87 147.87 0 0 0-22.689 4.093z"/><path fill="#000" d="M272.383 261.352s-17.406 44.538-.877 127.455h78.883c.545-12.104-7.076-71.163 4.6-128.195a204.26 204.26 0 0 0-26.392-3.353 291.113 291.113 0 0 0-33.525 0 147.87 147.87 0 0 0-22.689 4.093z" opacity=".2"/><path fill="#E58A7B" d="M282.851 700.438h-14.736l-3.937-34.149h14.755l3.918 34.149zM386.624 700.438h-14.735l-11.5-34.149h14.755l11.48 34.149z"/><path fill="#263238" d="M369.919 698.645h17.971a1.27 1.27 0 0 1 1.247 1.014l2.924 13.117a2.18 2.18 0 0 1-2.164 2.612c-5.847-.097-9.999-.429-17.288-.429-4.484 0-13.645.468-19.901.468-6.257 0-6.998-6.12-4.464-6.685 11.364-2.476 15.593-5.848 19.277-9.181a3.568 3.568 0 0 1 2.398-.916zM268.212 698.645h16.1a1.305 1.305 0 0 1 1.267 1.014l2.904 13.117a2.146 2.146 0 0 1-1.186 2.411 2.145 2.145 0 0 1-.939.201c-5.847-.097-14.209-.429-21.44-.429-8.537 0-15.905.468-25.924.468-6.062 0-7.797-6.12-5.204-6.685 11.539-2.515 20.953-2.788 30.933-8.947a6.842 6.842 0 0 1 3.489-1.15z"/><path fill="#E58A7B" d="M233.906 386.78l-12.357 10.331 16.236 9.531a14.17 14.17 0 0 0 4.62-16.158l-8.499-3.704z"/><path fill="#CF6F64" d="M264.197 666.308l2.008 17.601h14.755l-2.027-17.601h-14.736zM375.144 666.308h-14.755l5.925 17.601h14.755l-5.925-17.601z"/><path fill="#000" d="M338.927 287.861c2.572-13.021 7.582-10.76 12.338-4.347a411.692 411.692 0 0 0-2.807 52.003c-3.236-5.516-13.839-25.845-9.531-47.656z" opacity=".2"/><path fill="#E58A7B" d="M325.263 219.523c-2.105 10.779-4.21 30.544 3.333 37.736 0 0-2.943 10.954-23 10.954-22.045 0-10.525-10.934-10.525-10.934 12.026-2.885 11.695-11.812 9.609-20.194l20.583-17.562z"/><path fill="#CF6F64" d="M316.881 226.696l-12.182 10.389c.52 1.947.866 3.937 1.033 5.945 4.6-.663 10.916-5.711 11.403-10.525a16.308 16.308 0 0 0-.254-5.809z"/><path fill="#263238" d="M290.978 186.329c-7.251 3.08-11.188 23.39-1.949 28.088 9.238 4.697 15.69-33.896 1.949-28.088z"/><path fill="#E58A7B" d="M326.55 203.287c-.896 14.599-.682 23.195-8.05 30.699-11.09 11.266-29.139 4.581-32.609-9.999-3.138-13.118-1.15-34.812 13.157-40.62a19.958 19.958 0 0 1 27.502 19.92z"/><path fill="#263238" d="M281.506 177.168c8.829-13.39 10.213-6.939 10.077-.565 7.796-7.368 22.2-16.763 29.237-8.186a5.943 5.943 0 0 1 .994 6.724c9.064-2.417 18.205-3.099 16.548 6.686-1.462 8.654-7.64 11.831-16.295 11.89-15.515 2.144-53.075 2.358-40.561-16.549z"/><path fill="#263238" d="M325.516 217.594c-7.797 3.177-23.487-25.456.117-28.828s12.377 23.701-.117 28.828z"/><path fill="#E58A7B" d="M333.159 219.387a14.017 14.017 0 0 1-8.674 6.14c-4.756 1.052-6.881-3.275-5.321-7.641 1.403-3.898 5.555-9.18 10.233-8.284a6.267 6.267 0 0 1 2.757 1.362 6.273 6.273 0 0 1 1.775 2.511 6.265 6.265 0 0 1-.77 5.912z"/><path fill="#263238" d="M340.855 193.19a9.752 9.752 0 0 0-8.751-3.118s7.621-6.004 8.751 3.118z"/><path fill="#5FBE3F" d="M271.506 388.729s-41.497 105.45-39.977 150.436c1.657 46.78 29.237 141.333 29.237 141.333h24.989s-10.234-91.844-9.123-137.766c1.209-50.093 46.78-153.983 46.78-153.983l-51.906-.02z"/><path fill="#000" d="M304.641 423.639l2.398 5.438a715.034 715.034 0 0 0-22.766 68.805c-.683-26.587 4.814-55.902 20.368-74.243z" opacity=".2"/><path fill="#5FBE3F" d="M299.495 388.729s-8.4 107.828.78 150.085c10.058 46.234 59.098 141.645 59.098 141.645h27.016s-36.138-91.61-41.888-137.454c-6.217-49.684 5.848-154.237 5.848-154.237l-50.854-.039z"/><path fill="#263238" d="M304.408 207.458c0 1.189-.643 2.164-1.423 2.164-.779 0-1.403-.975-1.403-2.164s.624-2.144 1.403-2.144c.78 0 1.423.858 1.423 2.144zM290.959 207.458c0 1.189-.643 2.164-1.403 2.164-.761 0-1.423-.975-1.423-2.164s.643-2.144 1.423-2.144c.779 0 1.403.858 1.403 2.144z"/><path fill="#DF5753" d="M295.229 207.965a42.668 42.668 0 0 1-5.672 10.155 6.822 6.822 0 0 0 5.672 1.072v-11.227z"/><path fill="#263238" d="M298.697 222.486a.351.351 0 1 1 0-.702 9.411 9.411 0 0 0 7.679-3.683.355.355 0 0 1 .487-.098.35.35 0 0 1 .098.468 9.906 9.906 0 0 1-8.264 4.015zM308.443 203.034a.73.73 0 0 1-.546-.273 5.55 5.55 0 0 0-4.483-2.339.676.676 0 0 1-.514-.171.683.683 0 0 1-.227-.492.7.7 0 0 1 .643-.74 6.979 6.979 0 0 1 5.692 2.884.723.723 0 0 1-.137.994.86.86 0 0 1-.428.137zM285.072 202.741a.861.861 0 0 1-.312 0 .678.678 0 0 1-.389-.673.685.685 0 0 1 .077-.262 6.892 6.892 0 0 1 2.028-2.562 6.89 6.89 0 0 1 2.982-1.337.7.7 0 0 1 .707.614.697.697 0 0 1-.532.77 5.57 5.57 0 0 0-3.898 3.158.68.68 0 0 1-.663.292z"/><path fill="#E58A7B" d="M360.602 272.073c1.267 2.728 2.339 5.165 3.352 7.796 1.014 2.632 1.95 5.127 2.983 7.797 1.949 5.185 3.567 10.447 5.048 15.807 1.481 5.361 2.709 10.838 3.723 16.412l.702 4.191.506 4.288c.195 1.423.273 2.885.39 4.347l.137 2.183V338.305a30.491 30.491 0 0 1-3.275 10.993 68.427 68.427 0 0 1-4.697 7.953 127.403 127.403 0 0 1-10.584 13.254 208.962 208.962 0 0 1-23.838 22.435l-7.797-7.797c6.374-8.147 12.728-16.568 18.517-24.93 2.818-4.07 5.42-8.286 7.797-12.63a46.352 46.352 0 0 0 2.826-6.062c.578-1.332.909-2.759.974-4.21 0 0 0 .117 0 0v-.448l-.273-1.755c-.175-1.189-.331-2.358-.604-3.547l-.701-3.567-.839-3.587c-1.189-4.795-2.534-9.609-4.093-14.404a367.45 367.45 0 0 0-4.99-14.346c-1.773-4.775-3.723-9.589-5.535-13.995l20.271-9.589z"/><path fill="#5FBE3F" d="M365.026 701.315a4.406 4.406 0 0 1-2.826-.76 2.103 2.103 0 0 1-.721-1.949 1.088 1.088 0 0 1 .584-.975c1.657-.838 6.394 2.086 6.939 2.417a.351.351 0 0 1 .156.351.366.366 0 0 1-.273.292c-1.26.347-2.554.556-3.859.624zm-2.183-3.06a.796.796 0 0 0-.448.098c-.098 0-.215.136-.234.409a1.5 1.5 0 0 0 .487 1.267 7.152 7.152 0 0 0 5.224.253 14.16 14.16 0 0 0-5.029-2.027z"/><path fill="#5FBE3F" d="M368.807 700.789h-.156c-1.54-.838-4.483-4.054-4.171-5.711a1.149 1.149 0 0 1 1.111-.916 1.94 1.94 0 0 1 1.481.448c1.716 1.403 2.067 5.652 2.086 5.847a.371.371 0 0 1-.156.312.333.333 0 0 1-.195.02zm-2.963-6.043h-.175c-.448 0-.487.254-.507.351-.175.975 1.696 3.411 3.216 4.561a8.458 8.458 0 0 0-1.734-4.619 1.228 1.228 0 0 0-.8-.293zM262.07 701.315a5.519 5.519 0 0 1-3.567-.916 1.941 1.941 0 0 1-.662-1.696c.011-.19.068-.375.166-.538.099-.163.236-.299.399-.397 1.813-.995 7.797 1.949 8.401 2.358a.349.349 0 0 1 .097.563.356.356 0 0 1-.195.1c-1.527.313-3.08.489-4.639.526zm-2.67-3.06a1.205 1.205 0 0 0-.643.136.368.368 0 0 0-.215.371 1.243 1.243 0 0 0 .41 1.111c.916.818 3.352.955 6.588.409a19.02 19.02 0 0 0-6.14-2.027z"/><path fill="#5FBE3F" d="M266.653 700.789a.232.232 0 0 1-.156 0c-1.774-.799-5.302-3.898-5.029-5.653 0-.389.331-.877 1.306-.974a2.613 2.613 0 0 1 1.949.604c1.949 1.54 2.281 5.516 2.281 5.672a.351.351 0 0 1-.137.331.365.365 0 0 1-.214.02zm-3.509-6.042h-.214c-.624 0-.663.311-.682.389-.156.994 2.241 3.509 4.054 4.6a8.167 8.167 0 0 0-1.949-4.541 1.81 1.81 0 0 0-1.209-.448z"/><path fill="#E58A7B" d="M330.664 382.979l-14.463 3.899 11.987 14.54s11.598-6.022 9.103-12.513l-6.627-5.926z"/><path fill="#E58A7B" d="M308.715 396.604l10.467 11.539 9.005-6.783-11.987-14.541-7.485 9.785z"/><path fill="#5FBE3F" d="M354.597 681.083h35.319v-9.512l-39.471-.604 4.152 10.116z"/><path fill="#000" d="M354.597 681.083h35.319v-9.512l-39.471-.604 4.152 10.116z" opacity=".4"/><path fill="#5FBE3F" d="M255.093 681.083h35.319v-9.609l-39.471-.507 4.152 10.116z"/><path fill="#000" d="M255.093 681.083h35.319v-9.609l-39.471-.507 4.152 10.116z" opacity=".4"/><path fill="#5FBE3F" d="M358.067 261.567c13.157 5.067 26.314 51.73 26.314 51.73l-35.085 13.8s-10.467-24.13-14.034-42.063c-3.664-18.809 7.894-29.198 22.805-23.467z"/><path fill="#000" d="M358.067 261.567c13.157 5.067 26.314 51.73 26.314 51.73l-35.085 13.8s-10.467-24.13-14.034-42.063c-3.664-18.809 7.894-29.198 22.805-23.467z" opacity=".2"/><path fill="#5FBE3F" d="M215.837 335.615a65.873 65.873 0 0 0 1.072 39.704 65.593 65.593 0 0 0 21.324 30.251 66.118 66.118 0 0 0 89.978-7.381 66.113 66.113 0 0 0-1.272-90.272 65.357 65.357 0 0 0-29.081-17.542 66.391 66.391 0 0 0-60.034 12.026 53.105 53.105 0 0 0-4.327 3.899 65.904 65.904 0 0 0-17.66 29.315z"/><path fill="#000" d="M215.837 335.615a65.873 65.873 0 0 0 1.072 39.704 65.593 65.593 0 0 0 21.324 30.251 66.118 66.118 0 0 0 89.978-7.381 66.113 66.113 0 0 0-1.272-90.272 65.357 65.357 0 0 0-29.081-17.542 66.391 66.391 0 0 0-60.034 12.026 53.105 53.105 0 0 0-4.327 3.899 65.904 65.904 0 0 0-17.66 29.315z" opacity=".6"/><path fill="#5FBE3F" d="M318.637 305.325l-47.559 45.903-18.224 63.542a66.095 66.095 0 0 0 65.783-109.445z"/><path fill="#fff" d="M318.637 305.325l-47.559 45.903-18.224 63.542a66.095 66.095 0 0 0 65.783-109.445z" opacity=".9"/><g opacity=".7"><path fill="#5FBE3F" d="M271.078 351.228l47.559-45.922a66.09 66.09 0 0 0-63.556-18.228 66.091 66.091 0 0 0-47.546 45.945l63.543 18.205z" opacity=".7"/><path fill="#fff" d="M271.078 351.228l47.559-45.922a66.09 66.09 0 0 0-63.556-18.228 66.091 66.091 0 0 0-47.546 45.945l63.543 18.205z" opacity=".44"/></g><path fill="#E58A7B" d="M220.537 405.882l14.326 4.522 2.866-3.703-16.237-9.532-.955 8.713z"/><path fill="#5FBE3F" d="M271.077 351.228l-63.523-18.205a66.115 66.115 0 0 0 45.318 81.747l18.205-63.542z"/><path fill="#000" d="M271.077 351.228l-63.523-18.205a66.115 66.115 0 0 0 45.318 81.747l18.205-63.542z" opacity=".6"/></svg>