<svg width="393" height="716" viewBox="0 0 393 716" fill="none" xmlns="http://www.w3.org/2000/svg">
<path d="M4.41022 151.764C-3.75252 122.556 -0.504969 91.3375 13.4947 64.4349C27.4943 37.5323 51.1986 16.9587 79.8035 6.88391L87.1518 30.1568C64.7482 38.3104 46.2196 54.5736 35.2296 75.7307C24.2396 96.8878 21.5884 121.398 27.8001 144.416L4.41022 151.764Z" fill="#5FBE3F"/>
<path d="M64.0336 225.287C54.8459 220.542 46.3258 214.605 38.6946 207.627C24.2159 194.354 13.2303 177.718 6.70898 159.191L29.9819 151.842C35.4216 166.916 44.5844 180.369 56.6185 190.952C68.6525 201.534 83.167 208.902 98.8123 212.369C114.458 215.837 130.726 215.293 146.104 210.787C161.483 206.281 175.472 197.959 186.772 186.596L204.762 203.086C186.768 221.357 163.387 233.374 138.055 237.37C112.724 241.367 86.779 237.131 64.0336 225.287Z" fill="#5FBE3F"/>
<path opacity="0.7" d="M64.0336 225.287C54.8459 220.542 46.3258 214.605 38.6946 207.627C24.2159 194.354 13.2303 177.718 6.70898 159.191L29.9819 151.842C35.4216 166.916 44.5844 180.369 56.6185 190.952C68.6525 201.534 83.167 208.902 98.8123 212.369C114.458 215.837 130.726 215.293 146.104 210.787C161.483 206.281 175.472 197.959 186.772 186.596L204.762 203.086C186.768 221.357 163.387 233.374 138.055 237.37C112.724 241.367 86.779 237.131 64.0336 225.287Z" fill="white"/>
<path d="M192.132 180.846C205.192 165.366 212.965 146.119 214.318 125.911C215.67 105.703 210.533 85.5914 199.653 68.5085C188.774 51.4257 172.722 38.2649 153.838 30.9453C134.954 23.6257 114.225 22.5299 94.6745 27.8179L87.3262 4.42805C117.194 -3.93678 149.143 -0.361325 176.423 14.3988C203.703 29.1588 224.175 53.9471 233.513 83.5247C239.584 102.898 240.633 123.497 236.563 143.387C232.492 163.278 223.434 181.808 210.24 197.238L192.132 180.846Z" fill="#5FBE3F"/>
<path opacity="0.3" d="M192.132 180.846C205.192 165.366 212.965 146.119 214.318 125.911C215.67 105.703 210.533 85.5914 199.653 68.5085C188.774 51.4257 172.722 38.2649 153.838 30.9453C134.954 23.6257 114.225 22.5299 94.6745 27.8179L87.3262 4.42805C117.194 -3.93678 149.143 -0.361325 176.423 14.3988C203.703 29.1588 224.175 53.9471 233.513 83.5247C239.584 102.898 240.633 123.497 236.563 143.387C232.492 163.278 223.434 181.808 210.24 197.238L192.132 180.846Z" fill="black"/>
<path d="M141.73 90.717C138.976 87.9615 135.706 85.7755 132.107 84.2837C128.508 82.792 124.65 82.0237 120.754 82.0228C116.858 82.0219 113 82.7884 109.4 84.2784C105.801 85.7685 102.53 87.953 99.7742 90.7072C97.0188 93.4614 94.8327 96.7314 93.341 100.33C91.8492 103.929 91.081 107.787 91.0801 111.683C91.0792 115.579 91.8456 119.437 93.3357 123.037C94.8258 126.636 97.0103 129.907 99.7645 132.663L120.737 153.636L141.73 132.663C147.291 127.1 150.415 119.556 150.415 111.69C150.415 103.824 147.291 96.2801 141.73 90.717Z" fill="#5FBE3F"/>
<path opacity="0.3" d="M141.73 90.717C138.976 87.9615 135.706 85.7755 132.107 84.2837C128.508 82.792 124.65 82.0237 120.754 82.0228C116.858 82.0219 113 82.7884 109.4 84.2784C105.801 85.7685 102.53 87.953 99.7742 90.7072C97.0188 93.4614 94.8327 96.7314 93.341 100.33C91.8492 103.929 91.081 107.787 91.0801 111.683C91.0792 115.579 91.8456 119.437 93.3357 123.037C94.8258 126.636 97.0103 129.907 99.7645 132.663L120.737 153.636L141.73 132.663C147.291 127.1 150.415 119.556 150.415 111.69C150.415 103.824 147.291 96.2801 141.73 90.717Z" fill="black"/>
<path d="M121.925 159.853H119.586V169.209H121.925V159.853Z" fill="#5FBE3F"/>
<path opacity="0.3" d="M121.925 159.853H119.586V169.209H121.925V159.853Z" fill="black"/>
<path d="M121.925 176.441H119.586V185.797H121.925V176.441Z" fill="#5FBE3F"/>
<path opacity="0.3" d="M121.925 176.441H119.586V185.797H121.925V176.441Z" fill="black"/>
<path d="M78 252H40V704H78V252Z" fill="#5FBE3F"/>
<path opacity="0.5" d="M78 245H40V704H78V245Z" fill="white"/>
<path d="M186.578 357.946H184.551V402.698H186.578V357.946Z" fill="#263238"/>
<path d="M186.578 331.632H184.551V349.623H186.578V331.632Z" fill="#263238"/>
<path d="M243 414H163V705H243V414Z" fill="#CFEBC5"/>
<path d="M281.073 430.454H242.967V539.607H281.073V430.454Z" fill="#5FBE3F"/>
<path opacity="0.6" d="M281.073 430.454H242.967V539.607H281.073V430.454Z" fill="black"/>
<path d="M141.377 191.371H61.9883V539.607H141.377V191.371Z" fill="#5FBE3F"/>
<path opacity="0.7" d="M141 191H62V704H141V191Z" fill="black"/>
<path d="M179.481 191.371H141.375V539.607H179.481V191.371Z" fill="#5FBE3F"/>
<path opacity="0.8" d="M179 191H141V704H179V191Z" fill="black"/>
<path d="M285.033 278.856C282.305 300.413 278.874 322.029 275.814 343.412C275.434 346.535 274.868 349.633 274.118 352.69C273.242 355.82 272.121 358.876 270.766 361.831C268.18 367.389 264.948 372.623 261.137 377.424C257.505 382.038 253.503 386.347 249.169 390.308C247.064 392.257 244.822 394.206 242.561 395.902C240.3 397.598 238.059 399.352 235.466 401.048L228.547 392.413C230.165 390.62 231.997 388.515 233.654 386.566C235.31 384.617 236.948 382.512 238.546 380.445C241.671 376.406 244.529 372.167 247.103 367.756C249.583 363.619 251.627 359.236 253.204 354.678C253.929 352.569 254.483 350.405 254.86 348.206C255.202 345.9 255.423 343.577 255.523 341.248C256.244 330.177 257.336 319.223 258.544 308.288C259.753 297.353 261.195 286.555 262.91 275.678L285.033 278.856Z" fill="#E58A7B"/>
<path d="M289.887 271.449C294.857 284.645 269.694 323.491 269.694 323.491L240.203 307.489C244.64 295.4 250.372 283.826 257.297 272.969C267.667 257.415 284.449 256.967 289.887 271.449Z" fill="#5FBE3F"/>
<path opacity="0.2" d="M289.887 271.449C294.857 284.645 269.694 323.491 269.694 323.491L240.203 307.489C244.64 295.4 250.372 283.826 257.297 272.969C267.667 257.415 284.449 256.967 289.887 271.449Z" fill="black"/>
<path d="M272.383 261.352C272.383 261.352 254.977 305.89 271.506 388.807H350.389C350.934 376.703 343.313 317.644 354.989 260.612C346.274 258.922 337.458 257.802 328.597 257.259C317.431 256.615 306.237 256.615 295.072 257.259C287.414 258.031 279.828 259.399 272.383 261.352Z" fill="#5FBE3F"/>
<path opacity="0.2" d="M272.383 261.352C272.383 261.352 254.977 305.89 271.506 388.807H350.389C350.934 376.703 343.313 317.644 354.989 260.612C346.274 258.922 337.458 257.802 328.597 257.259C317.431 256.615 306.237 256.615 295.072 257.259C287.414 258.031 279.828 259.399 272.383 261.352Z" fill="black"/>
<path d="M282.851 700.438H268.115L264.178 666.289H278.933L282.851 700.438Z" fill="#E58A7B"/>
<path d="M386.624 700.438H371.889L360.389 666.289H375.144L386.624 700.438Z" fill="#E58A7B"/>
<path d="M369.919 698.645H387.89C388.183 698.644 388.467 698.744 388.695 698.929C388.922 699.113 389.079 699.371 389.137 699.659L392.061 712.776C392.125 713.095 392.117 713.424 392.037 713.739C391.958 714.054 391.809 714.348 391.602 714.598C391.394 714.848 391.134 715.049 390.839 715.186C390.544 715.323 390.222 715.392 389.897 715.388C384.05 715.291 379.898 714.959 372.609 714.959C368.125 714.959 358.964 715.427 352.708 715.427C346.451 715.427 345.71 709.307 348.244 708.742C359.608 706.266 363.837 702.894 367.521 699.561C368.179 698.969 369.034 698.642 369.919 698.645Z" fill="#263238"/>
<path d="M268.212 698.645H284.312C284.606 698.646 284.892 698.747 285.122 698.931C285.352 699.115 285.513 699.371 285.579 699.659L288.483 712.776C288.554 713.093 288.552 713.421 288.478 713.736C288.403 714.052 288.258 714.346 288.054 714.597C287.85 714.849 287.591 715.051 287.297 715.187C287.003 715.324 286.682 715.393 286.358 715.388C280.511 715.291 272.149 714.959 264.918 714.959C256.381 714.959 249.013 715.427 238.994 715.427C232.932 715.427 231.197 709.307 233.79 708.742C245.329 706.227 254.743 705.954 264.723 699.795C265.759 699.101 266.966 698.703 268.212 698.645Z" fill="#263238"/>
<path d="M233.906 386.78L221.549 397.111L237.785 406.642C240.178 404.794 241.918 402.229 242.749 399.322C243.58 396.414 243.459 393.317 242.405 390.484L233.906 386.78Z" fill="#E58A7B"/>
<path d="M264.197 666.308L266.205 683.909H280.96L278.933 666.308H264.197Z" fill="#CF6F64"/>
<path d="M375.144 666.308H360.389L366.314 683.909H381.069L375.144 666.308Z" fill="#CF6F64"/>
<path opacity="0.2" d="M338.927 287.861C341.499 274.84 346.509 277.101 351.265 283.514C349.233 300.772 348.295 318.141 348.458 335.517C345.222 330.001 334.619 309.672 338.927 287.861Z" fill="black"/>
<path d="M325.263 219.523C323.158 230.302 321.053 250.067 328.596 257.259C328.596 257.259 325.653 268.213 305.596 268.213C283.551 268.213 295.071 257.279 295.071 257.279C307.097 254.394 306.766 245.467 304.68 237.085L325.263 219.523Z" fill="#E58A7B"/>
<path d="M316.881 226.696L304.699 237.085C305.219 239.032 305.565 241.022 305.732 243.03C310.332 242.367 316.648 237.319 317.135 232.505C317.399 230.569 317.313 228.602 316.881 226.696Z" fill="#CF6F64"/>
<path d="M290.978 186.329C283.727 189.409 279.79 209.719 289.029 214.417C298.267 219.114 304.719 180.521 290.978 186.329Z" fill="#263238"/>
<path d="M326.55 203.287C325.654 217.886 325.868 226.482 318.5 233.986C307.41 245.252 289.361 238.567 285.891 223.987C282.753 210.869 284.741 189.175 299.048 183.367C302.194 182.072 305.62 181.602 308.998 182.004C312.377 182.405 315.597 183.663 318.353 185.659C321.109 187.655 323.308 190.322 324.743 193.407C326.178 196.493 326.8 199.894 326.55 203.287Z" fill="#E58A7B"/>
<path d="M281.506 177.168C290.335 163.778 291.719 170.229 291.583 176.603C299.379 169.235 313.783 159.84 320.82 168.417C321.653 169.301 322.195 170.42 322.373 171.623C322.551 172.825 322.356 174.053 321.814 175.141C330.878 172.724 340.019 172.042 338.362 181.827C336.9 190.481 330.722 193.658 322.067 193.717C306.552 195.861 268.992 196.075 281.506 177.168Z" fill="#263238"/>
<path d="M325.516 217.594C317.719 220.771 302.029 192.138 325.633 188.766C349.237 185.394 338.01 212.467 325.516 217.594Z" fill="#263238"/>
<path d="M333.159 219.387C331.186 222.493 328.07 224.698 324.485 225.527C319.729 226.579 317.604 222.252 319.164 217.886C320.567 213.988 324.719 208.706 329.397 209.602C330.415 209.82 331.362 210.288 332.154 210.964C332.945 211.641 333.555 212.504 333.929 213.475C334.302 214.447 334.427 215.497 334.293 216.529C334.158 217.561 333.769 218.543 333.159 219.387Z" fill="#E58A7B"/>
<path d="M340.855 193.19C339.771 191.983 338.403 191.066 336.875 190.521C335.347 189.976 333.707 189.822 332.104 190.072C332.104 190.072 339.725 184.068 340.855 193.19Z" fill="#263238"/>
<path d="M271.506 388.729C271.506 388.729 230.009 494.179 231.529 539.165C233.186 585.945 260.766 680.498 260.766 680.498H285.755C285.755 680.498 275.521 588.654 276.632 542.732C277.841 492.639 323.412 388.749 323.412 388.749L271.506 388.729Z" fill="#5FBE3F"/>
<path opacity="0.2" d="M304.641 423.639L307.039 429.077C298.292 451.612 290.694 474.577 284.273 497.882C283.59 471.295 289.087 441.98 304.641 423.639Z" fill="black"/>
<path d="M299.495 388.729C299.495 388.729 291.095 496.557 300.275 538.814C310.333 585.048 359.373 680.459 359.373 680.459H386.389C386.389 680.459 350.251 588.849 344.501 543.005C338.284 493.321 350.349 388.768 350.349 388.768L299.495 388.729Z" fill="#5FBE3F"/>
<path d="M304.408 207.458C304.408 208.647 303.765 209.622 302.985 209.622C302.206 209.622 301.582 208.647 301.582 207.458C301.582 206.269 302.206 205.314 302.985 205.314C303.765 205.314 304.408 206.172 304.408 207.458Z" fill="#263238"/>
<path d="M290.959 207.458C290.959 208.647 290.316 209.622 289.556 209.622C288.795 209.622 288.133 208.647 288.133 207.458C288.133 206.269 288.776 205.314 289.556 205.314C290.335 205.314 290.959 206.172 290.959 207.458Z" fill="#263238"/>
<path d="M295.229 207.965C293.811 211.593 291.902 215.01 289.557 218.12C290.366 218.703 291.294 219.1 292.274 219.286C293.254 219.471 294.262 219.439 295.229 219.192V207.965Z" fill="#DF5753"/>
<path d="M298.697 222.486C298.603 222.486 298.514 222.449 298.448 222.383C298.383 222.318 298.346 222.228 298.346 222.135C298.346 222.042 298.383 221.953 298.448 221.887C298.514 221.821 298.603 221.784 298.697 221.784C300.176 221.817 301.643 221.501 302.977 220.861C304.311 220.221 305.476 219.275 306.376 218.101C306.402 218.062 306.435 218.029 306.473 218.003C306.511 217.978 306.554 217.96 306.6 217.951C306.645 217.942 306.692 217.942 306.737 217.951C306.782 217.96 306.825 217.977 306.863 218.003C306.936 218.054 306.986 218.131 307.004 218.218C307.022 218.305 307.007 218.395 306.961 218.471C306.01 219.758 304.762 220.796 303.323 221.495C301.883 222.194 300.296 222.534 298.697 222.486Z" fill="#263238"/>
<path d="M308.443 203.034C308.337 203.031 308.234 203.005 308.139 202.958C308.045 202.911 307.962 202.844 307.897 202.761C307.388 202.044 306.716 201.458 305.937 201.052C305.157 200.645 304.293 200.429 303.414 200.422C303.321 200.43 303.228 200.419 303.139 200.389C303.051 200.36 302.97 200.313 302.9 200.251C302.831 200.189 302.775 200.113 302.736 200.028C302.697 199.944 302.675 199.852 302.673 199.759C302.662 199.576 302.724 199.396 302.844 199.258C302.964 199.119 303.134 199.034 303.316 199.019C304.426 199.012 305.521 199.271 306.511 199.772C307.501 200.274 308.357 201.005 309.008 201.903C309.119 202.054 309.166 202.242 309.141 202.428C309.115 202.613 309.019 202.782 308.871 202.897C308.743 202.98 308.595 203.027 308.443 203.034Z" fill="#263238"/>
<path d="M285.072 202.741C284.969 202.76 284.863 202.76 284.76 202.741C284.677 202.702 284.602 202.646 284.541 202.577C284.48 202.508 284.433 202.427 284.404 202.34C284.375 202.253 284.364 202.16 284.371 202.068C284.379 201.976 284.405 201.887 284.448 201.806C284.909 200.801 285.605 199.923 286.476 199.244C287.348 198.566 288.371 198.107 289.458 197.907C289.63 197.904 289.798 197.965 289.929 198.079C290.059 198.192 290.144 198.349 290.165 198.521C290.187 198.692 290.145 198.866 290.046 199.008C289.948 199.15 289.801 199.251 289.633 199.291C288.782 199.476 287.985 199.858 287.308 200.407C286.632 200.955 286.092 201.654 285.735 202.449C285.663 202.555 285.562 202.639 285.445 202.69C285.328 202.742 285.199 202.76 285.072 202.741Z" fill="#263238"/>
<path d="M360.602 272.073C361.869 274.801 362.941 277.238 363.954 279.869C364.968 282.501 365.904 284.996 366.937 287.666C368.886 292.851 370.504 298.113 371.985 303.473C373.466 308.834 374.694 314.311 375.708 319.885L376.41 324.076L376.916 328.364C377.111 329.787 377.189 331.249 377.306 332.711L377.443 334.894V335.44V336.356C377.443 337.038 377.443 337.662 377.443 338.305C377.057 342.143 375.945 345.874 374.168 349.298C372.783 352.052 371.214 354.709 369.471 357.251C366.241 361.899 362.706 366.327 358.887 370.505C351.54 378.595 343.569 386.097 335.049 392.94L327.252 385.143C333.626 376.996 339.98 368.575 345.769 360.213C348.587 356.143 351.189 351.927 353.566 347.583C354.653 345.633 355.597 343.607 356.392 341.521C356.97 340.189 357.301 338.762 357.366 337.311C357.366 337.311 357.366 337.428 357.366 337.311V336.863L357.093 335.108C356.918 333.919 356.762 332.75 356.489 331.561L355.788 327.994L354.949 324.407C353.76 319.612 352.415 314.798 350.856 310.003C349.297 305.208 347.64 300.433 345.866 295.657C344.093 290.882 342.143 286.068 340.331 281.662L360.602 272.073Z" fill="#E58A7B"/>
<path d="M365.026 701.315C364.025 701.391 363.028 701.123 362.2 700.555C361.921 700.32 361.708 700.017 361.582 699.676C361.456 699.334 361.42 698.965 361.479 698.606C361.477 698.405 361.531 698.208 361.634 698.036C361.737 697.865 361.886 697.724 362.063 697.631C363.72 696.793 368.457 699.717 369.002 700.048C369.06 700.085 369.105 700.138 369.133 700.2C369.16 700.263 369.169 700.332 369.158 700.399C369.146 700.469 369.113 700.533 369.065 700.585C369.016 700.637 368.954 700.674 368.885 700.691C367.625 701.038 366.331 701.247 365.026 701.315ZM362.843 698.255C362.687 698.243 362.532 698.277 362.395 698.353C362.297 698.353 362.18 698.489 362.161 698.762C362.137 698.996 362.168 699.233 362.253 699.454C362.338 699.674 362.473 699.871 362.648 700.029C364.295 700.77 366.161 700.86 367.872 700.282C366.342 699.289 364.634 698.6 362.843 698.255Z" fill="#5FBE3F"/>
<path d="M368.807 700.789H368.651C367.111 699.951 364.168 696.735 364.48 695.078C364.533 694.821 364.672 694.591 364.874 694.424C365.076 694.258 365.329 694.165 365.591 694.162C365.855 694.131 366.123 694.155 366.378 694.232C366.633 694.31 366.869 694.438 367.072 694.61C368.788 696.013 369.139 700.262 369.158 700.457C369.16 700.518 369.146 700.578 369.119 700.633C369.092 700.687 369.052 700.734 369.002 700.769C368.941 700.795 368.873 700.802 368.807 700.789ZM365.844 694.746H365.669C365.221 694.746 365.182 695 365.162 695.097C364.987 696.072 366.858 698.508 368.378 699.658C368.272 697.98 367.668 696.372 366.644 695.039C366.421 694.849 366.137 694.745 365.844 694.746Z" fill="#5FBE3F"/>
<path d="M262.07 701.315C260.812 701.427 259.552 701.104 258.503 700.399C258.263 700.192 258.077 699.929 257.962 699.633C257.846 699.338 257.805 699.018 257.841 698.703C257.852 698.513 257.909 698.328 258.007 698.165C258.106 698.002 258.243 697.866 258.406 697.768C260.219 696.773 266.203 699.717 266.807 700.126C266.874 700.159 266.929 700.212 266.965 700.278C267 700.344 267.013 700.419 267.002 700.493C266.991 700.567 266.957 700.636 266.904 700.689C266.851 700.742 266.783 700.777 266.709 700.789C265.182 701.102 263.629 701.278 262.07 701.315ZM259.4 698.255C259.177 698.24 258.954 698.287 258.757 698.391C258.687 698.423 258.629 698.476 258.591 698.542C258.552 698.609 258.535 698.685 258.542 698.762C258.513 698.966 258.535 699.175 258.607 699.369C258.678 699.563 258.797 699.736 258.952 699.873C259.868 700.691 262.304 700.828 265.54 700.282C263.624 699.261 261.547 698.575 259.4 698.255Z" fill="#5FBE3F"/>
<path d="M266.653 700.789C266.602 700.807 266.547 700.807 266.497 700.789C264.723 699.99 261.195 696.891 261.468 695.136C261.468 694.747 261.799 694.259 262.774 694.162C263.123 694.127 263.475 694.162 263.81 694.266C264.145 694.369 264.455 694.54 264.723 694.766C266.672 696.306 267.004 700.282 267.004 700.438C267.013 700.5 267.005 700.564 266.981 700.622C266.957 700.681 266.918 700.732 266.867 700.769C266.799 700.797 266.725 700.804 266.653 700.789ZM263.144 694.747H262.93C262.306 694.747 262.267 695.058 262.248 695.136C262.092 696.13 264.489 698.645 266.302 699.736C266.137 698.058 265.456 696.471 264.353 695.195C264.018 694.902 263.588 694.743 263.144 694.747Z" fill="#5FBE3F"/>
<path d="M330.664 382.979L316.201 386.878L328.188 401.418C328.188 401.418 339.786 395.396 337.291 388.905L330.664 382.979Z" fill="#E58A7B"/>
<path d="M308.715 396.604L319.182 408.143L328.187 401.36L316.2 386.819L308.715 396.604Z" fill="#E58A7B"/>
<path d="M354.597 681.083H389.916V671.571L350.445 670.967L354.597 681.083Z" fill="#5FBE3F"/>
<path opacity="0.4" d="M354.597 681.083H389.916V671.571L350.445 670.967L354.597 681.083Z" fill="black"/>
<path d="M255.093 681.083H290.412V671.474L250.941 670.967L255.093 681.083Z" fill="#5FBE3F"/>
<path opacity="0.4" d="M255.093 681.083H290.412V671.474L250.941 670.967L255.093 681.083Z" fill="black"/>
<path d="M358.067 261.567C371.224 266.634 384.381 313.297 384.381 313.297L349.296 327.097C349.296 327.097 338.829 302.967 335.262 285.034C331.598 266.225 343.156 255.836 358.067 261.567Z" fill="#5FBE3F"/>
<path opacity="0.2" d="M358.067 261.567C371.224 266.634 384.381 313.297 384.381 313.297L349.296 327.097C349.296 327.097 338.829 302.967 335.262 285.034C331.598 266.225 343.156 255.836 358.067 261.567Z" fill="black"/>
<path d="M215.837 335.615C212.101 348.645 212.475 362.51 216.909 375.319C220.966 387.241 228.369 397.743 238.233 405.57C251.373 415.973 267.974 420.998 284.678 419.628C301.382 418.258 316.942 410.595 328.211 398.189C339.481 385.783 345.618 369.561 345.382 352.802C345.145 336.044 338.554 320.001 326.939 307.917C318.961 299.609 308.928 293.558 297.858 290.375C287.621 287.414 276.821 286.961 266.372 289.054C255.922 291.148 246.131 295.726 237.824 302.401C236.311 303.621 234.867 304.922 233.497 306.3C225.131 314.346 219.04 324.459 215.837 335.615Z" fill="#5FBE3F"/>
<path opacity="0.6" d="M215.837 335.615C212.101 348.645 212.475 362.51 216.909 375.319C220.966 387.241 228.369 397.743 238.233 405.57C251.373 415.973 267.974 420.998 284.678 419.628C301.382 418.258 316.942 410.595 328.211 398.189C339.481 385.783 345.618 369.561 345.382 352.802C345.145 336.044 338.554 320.001 326.939 307.917C318.961 299.609 308.928 293.558 297.858 290.375C287.621 287.414 276.821 286.961 266.372 289.054C255.922 291.148 246.131 295.726 237.824 302.401C236.311 303.621 234.867 304.922 233.497 306.3C225.131 314.346 219.04 324.459 215.837 335.615Z" fill="black"/>
<path d="M318.637 305.325L271.078 351.228L252.854 414.77C266.841 418.786 281.762 418.074 295.303 412.744C308.844 407.414 320.247 397.764 327.744 385.292C335.241 372.819 338.412 358.221 336.765 343.763C335.119 329.304 328.747 315.793 318.637 305.325Z" fill="#5FBE3F"/>
<path opacity="0.9" d="M318.637 305.325L271.078 351.228L252.854 414.77C266.841 418.786 281.762 418.074 295.303 412.744C308.844 407.414 320.247 397.764 327.744 385.292C335.241 372.819 338.412 358.221 336.765 343.763C335.119 329.304 328.747 315.793 318.637 305.325Z" fill="white"/>
<g opacity="0.7">
<path opacity="0.7" d="M271.078 351.228L318.637 305.306C310.576 296.955 300.459 290.873 289.302 287.674C278.145 284.474 266.343 284.268 255.081 287.078C243.82 289.887 233.497 295.612 225.15 303.678C216.804 311.743 210.729 321.864 207.535 333.023L271.078 351.228Z" fill="#5FBE3F"/>
<path opacity="0.44" d="M271.078 351.228L318.637 305.306C310.576 296.955 300.459 290.873 289.302 287.674C278.145 284.474 266.343 284.268 255.081 287.078C243.82 289.887 233.497 295.612 225.15 303.678C216.804 311.743 210.729 321.864 207.535 333.023L271.078 351.228Z" fill="white"/>
</g>
<path d="M220.537 405.882L234.863 410.404L237.729 406.701L221.492 397.169L220.537 405.882Z" fill="#E58A7B"/>
<path d="M271.077 351.228L207.554 333.023C202.73 349.872 204.793 367.948 213.291 383.277C221.789 398.606 236.026 409.934 252.872 414.77L271.077 351.228Z" fill="#5FBE3F"/>
<path opacity="0.6" d="M271.077 351.228L207.554 333.023C202.73 349.872 204.793 367.948 213.291 383.277C221.789 398.606 236.026 409.934 252.872 414.77L271.077 351.228Z" fill="black"/>
</svg>
