<svg width="602" height="444" viewBox="0 0 602 444" fill="none" xmlns="http://www.w3.org/2000/svg">
<path d="M541.061 413.09H501.23V413.391H541.061V413.09Z" fill="#EBEBEB"/>
<path d="M398.334 416.361H387.883V416.661H398.334V416.361Z" fill="#EBEBEB"/>
<path d="M500.028 401.929H476.949V402.23H500.028V401.929Z" fill="#EBEBEB"/>
<path d="M115.031 403.95H63.0898V404.251H115.031V403.95Z" fill="#EBEBEB"/>
<path d="M133.359 403.95H125.746V404.251H133.359V403.95Z" fill="#EBEBEB"/>
<path d="M270.771 409.025H158.109V409.326H270.771V409.025Z" fill="#EBEBEB"/>
<path d="M285.023 340.102H52.8201C50.9989 340.102 49.2522 339.379 47.9644 338.091C46.6766 336.803 45.9531 335.057 45.9531 333.235V6.80686C45.969 4.99606 46.6995 3.26482 47.9856 1.98999C49.2717 0.715156 51.0092 -6.94227e-05 52.8201 5.05409e-09H285.023C286.844 5.05411e-09 288.591 0.723485 289.879 2.0113C291.167 3.29911 291.89 5.04575 291.89 6.86699V333.235C291.89 335.057 291.167 336.803 289.879 338.091C288.591 339.379 286.844 340.102 285.023 340.102ZM52.8201 0.240526C51.0796 0.243705 49.4113 0.936533 48.1805 2.16727C46.9498 3.39801 46.257 5.06634 46.2538 6.80686V333.235C46.257 334.976 46.9498 336.644 48.1805 337.875C49.4113 339.106 51.0796 339.799 52.8201 339.802H285.023C286.764 339.799 288.432 339.106 289.663 337.875C290.893 336.644 291.586 334.976 291.589 333.235V6.80686C291.586 5.06634 290.893 3.39801 289.663 2.16727C288.432 0.936533 286.764 0.243705 285.023 0.240526H52.8201Z" fill="#EBEBEB"/>
<path d="M545.162 340.102H312.935C311.115 340.099 309.37 339.375 308.083 338.088C306.796 336.801 306.072 335.056 306.068 333.235V6.80686C306.087 4.99704 306.819 3.26763 308.104 1.99346C309.39 0.719301 311.125 0.00306464 312.935 0H545.162C546.969 0.00625906 548.7 0.72428 549.981 1.99844C551.262 3.27259 551.989 5.00022 552.005 6.80686V333.235C552.005 335.053 551.285 336.796 550.002 338.083C548.72 339.37 546.979 340.096 545.162 340.102ZM312.935 0.240526C311.195 0.243705 309.526 0.936533 308.296 2.16727C307.065 3.39801 306.372 5.06634 306.369 6.80686V333.235C306.372 334.976 307.065 336.644 308.296 337.875C309.526 339.106 311.195 339.799 312.935 339.802H545.162C546.903 339.799 548.571 339.106 549.802 337.875C551.033 336.644 551.725 334.976 551.729 333.235V6.80686C551.725 5.06634 551.033 3.39801 549.802 2.16727C548.571 0.936533 546.903 0.243705 545.162 0.240526H312.935Z" fill="#EBEBEB"/>
<path d="M601.313 393.74H0V394.04H601.313V393.74Z" fill="#EBEBEB"/>
<path d="M468.243 239.443V229.473H478.79V201.873H482.241V229.473H492.776V239.443H497.767V394.004H463.264V239.443H468.243Z" fill="#E0E0E0"/>
<path d="M372.129 252.636V394.004H420.523V263.375L411.779 252.624L372.129 252.636ZM408.292 354.017H416.53V362.255H408.292V354.017ZM408.292 337.541H416.53V345.779H408.292V337.541ZM408.292 304.577H416.53V312.815H408.292V304.577ZM408.292 288.101H416.53V296.339H408.292V288.101ZM408.292 271.625H416.53V279.863H408.292V271.625ZM391.804 337.541H400.054V345.779H391.804V337.541ZM391.804 321.065H400.054V329.303H391.804V321.065ZM391.804 304.577H400.054V312.815H391.804V304.577ZM375.328 354.017H383.566V362.255H375.328V354.017ZM375.328 321.065H383.566V329.303H375.328V321.065ZM375.328 304.577H383.566V312.815H375.328V304.577ZM375.328 271.625H383.566V279.863H375.328V271.625Z" fill="#EBEBEB"/>
<path d="M154.381 394.004L169.233 393.824L168.163 340.583L167.946 328.244V327.499L167.754 316.507V315.785L167.586 305.346V304.661L167.405 294.703V294.054L167.249 284.553V283.94L167.081 274.884V274.283L166.936 265.612V265.047L166.804 257.518C166.436 257.803 166.031 258.037 165.601 258.216L165.686 263.688L160.574 259.021C159.924 258.992 159.277 258.915 158.638 258.793L164.844 264.469H157.147V258.396C156.721 258.271 156.316 258.084 155.944 257.843L155.872 265.059V265.612L155.788 274.295V274.872L155.692 283.964V284.565L155.608 294.078V294.643L155.523 304.601V305.286L155.415 315.749V316.459L155.307 327.463V328.208L155.139 340.583L154.381 394.004ZM156.726 328.617H165.601L156.666 338.238L156.726 328.617ZM156.87 318.251L165.661 327.475H156.81L156.87 318.251ZM156.762 305.154H165.18L156.714 313.885L156.762 305.154ZM156.858 295.617L165.277 304.036H156.858V295.617ZM156.93 284.493H164.988L156.882 292.418L156.93 284.493ZM157.003 275.678L164.988 283.326H156.942L157.003 275.678ZM164.784 265.708L157.039 272.924V265.708H164.784ZM165.926 274.583H158.061L165.818 267.368L165.926 274.583ZM166.046 283.387L158.073 275.774H165.938L166.046 283.387ZM166.203 294.354H157.989L166.106 286.417L166.203 294.354ZM166.335 303.855L157.917 295.521H166.167L166.335 303.855ZM166.491 315.881H157.856L166.371 307.126L166.491 315.881ZM166.588 326.224L157.796 317.036H166.467L166.588 326.224ZM166.66 338.9H157.544L166.491 329.195L166.66 338.9Z" fill="#EBEBEB"/>
<path d="M155.993 258.228C156.371 258.46 156.774 258.645 157.196 258.781V257.879L158.639 259.202C159.277 259.334 159.925 259.415 160.575 259.442L156.968 256.195L156.547 256.58H155.945L155.993 258.228ZM165.614 256.628V258.625C166.049 258.457 166.455 258.221 166.817 257.927V256.628H165.614Z" fill="#EBEBEB"/>
<path d="M154.262 255.594C154.22 255.917 154.255 256.245 154.364 256.552C154.473 256.859 154.652 257.137 154.887 257.362L155.296 257.747C155.515 257.926 155.748 258.087 155.993 258.228C156.371 258.46 156.775 258.645 157.196 258.781C157.662 258.969 158.145 259.11 158.639 259.202C159.277 259.334 159.925 259.415 160.575 259.442H161.453C162.875 259.446 164.283 259.16 165.59 258.6C166.025 258.432 166.431 258.197 166.793 257.903L166.889 257.831L167.286 257.458C167.509 257.236 167.677 256.965 167.775 256.666C167.873 256.367 167.899 256.049 167.851 255.738L166.961 250.795H169.295L161.153 246.719L152.734 250.579H155.14L154.262 255.594Z" fill="#EBEBEB"/>
<path d="M172.385 285.142V394.004H219.492V285.142H172.385ZM206.732 362.555H213.262V368.172H206.732V362.555ZM206.732 321.666H213.262V327.282H206.732V321.666ZM206.732 301.221H213.262V306.85H206.732V301.221ZM192.673 352.369H199.203V357.997H192.673V352.369ZM192.673 331.924H199.203V337.553H192.673V331.924ZM192.673 311.48H199.203V317.096H192.673V311.48ZM192.673 291.035H199.203V296.651H192.673V291.035ZM178.614 362.64H185.205V368.256H178.675L178.614 362.64ZM178.614 352.405H185.205V358.033H178.675L178.614 352.405ZM178.614 321.726H185.205V327.342H178.675L178.614 321.726ZM178.614 311.492H185.205V317.108H178.675L178.614 311.492Z" fill="#EBEBEB"/>
<path d="M319.934 394.004H273.031V311.396L319.934 293.645V394.004Z" fill="#F5F5F5"/>
<path d="M299.935 310.782H293.02V317.698H299.935V310.782Z" fill="white"/>
<path d="M314.823 310.782H307.908V317.698H314.823V310.782Z" fill="white"/>
<path d="M285.058 323.374H278.143V330.289H285.058V323.374Z" fill="white"/>
<path d="M299.935 335.953H293.02V342.868H299.935V335.953Z" fill="white"/>
<path d="M314.823 335.953H307.908V342.868H314.823V335.953Z" fill="white"/>
<path d="M285.058 348.545H278.143V355.46H285.058V348.545Z" fill="white"/>
<path d="M293.032 370.865H299.947V363.95H293.032V370.865Z" fill="white"/>
<path d="M278.132 370.865H285.047V363.95H278.132V370.865Z" fill="white"/>
<path d="M307.909 383.445H314.824V376.53H307.909V383.445Z" fill="white"/>
<path d="M106.914 260.044V237.122H112.398V211.542H117.016V199.985L126.288 186.287L135.572 199.985V211.542H140.178V237.122H145.674V260.044H151.23V394.004H101.357V260.044H106.914Z" fill="#EBEBEB"/>
<path d="M122.823 274.102H129.738V267.187H122.823V274.102Z" fill="#FEFEFE"/>
<path d="M107.948 274.102H114.863V267.187H107.948V274.102Z" fill="#FEFEFE"/>
<path d="M137.726 299.273H144.641V292.358H137.726V299.273Z" fill="#FEFEFE"/>
<path d="M107.948 299.273H114.863V292.358H107.948V299.273Z" fill="#FEFEFE"/>
<path d="M122.823 311.865H129.738V304.95H122.823V311.865Z" fill="#FEFEFE"/>
<path d="M137.726 324.444H144.641V317.529H137.726V324.444Z" fill="#FEFEFE"/>
<path d="M122.823 324.444H129.738V317.529H122.823V324.444Z" fill="#FEFEFE"/>
<path d="M107.948 337.048H114.863V330.133H107.948V337.048Z" fill="#FEFEFE"/>
<path d="M137.726 349.627H144.641V342.712H137.726V349.627Z" fill="#FEFEFE"/>
<path d="M122.823 362.207H129.738V355.291H122.823V362.207Z" fill="#FEFEFE"/>
<path d="M107.948 362.207H114.863V355.291H107.948V362.207Z" fill="#FEFEFE"/>
<path d="M60.0469 270.675V394.004H101.189V250.988L60.0469 270.675ZM74.8873 355.58H67.2025V347.908H74.8873V355.58ZM74.8873 313.681H67.2025V306.008H74.8873V313.681ZM74.8873 285.744H67.2025V278.071H74.8873V285.744ZM91.3993 383.517H83.7266V375.845H91.3993V383.517ZM91.3993 341.618H83.7266V333.945H91.3993V341.618ZM91.3993 327.643H83.7266V319.971H91.3993V327.643ZM91.3993 299.718H83.7266V292.034H91.3993V299.718Z" fill="#E6E6E6"/>
<path d="M487.977 303.062L488.181 393.968H539.726L539.978 303.062H529.936V291.504H498.03V303.062H487.977ZM497.994 311.769H491.26V305.755H497.994V311.769ZM491.416 333.632V327.848H497.886V333.632H491.416ZM497.826 338.527V344.167H491.548V338.527H497.826ZM491.32 322.893V316.964H497.886V322.893H491.32ZM510.887 296.94V303.062H504.02V296.88L510.887 296.94ZM510.887 305.755V311.769H504.152V305.755H510.887ZM504.284 333.692V327.908H510.718V333.692H504.284ZM510.682 338.587V344.227H504.392V338.587H510.682ZM504.2 322.953V317.024H510.79V322.953H504.2ZM523.791 297V303.062H516.924V296.88L523.791 297ZM523.791 305.816V311.829H517.128V305.816H523.791ZM517.14 333.753V327.968H523.574V333.753H517.14ZM517.248 338.647H523.538V344.288H517.248V338.647ZM517.068 323.013V317.084H523.646V323.013H517.068ZM536.707 311.949H529.972V305.936H536.719L536.707 311.949ZM530.032 333.813V328.028H536.466V333.813H530.032ZM530.141 338.707H536.418V344.348H530.141V338.707ZM529.984 323.073V317.144H536.575V323.073H529.984ZM536.635 366.26H529.792V360.126H536.647L536.635 366.26ZM529.888 387.763V381.942H536.406V387.763H529.888ZM529.756 377.516V371.503H536.43V377.516H529.756ZM529.611 356.254V349.976H536.623V356.254H529.611ZM523.791 366.26H516.948V360.126H523.791V366.26ZM516.924 377.516V371.503H523.598V377.516H516.924ZM516.755 356.254V349.976H523.767V356.254H516.755ZM504.092 371.551H510.766V377.564H504.092V371.551ZM504.092 360.126H510.935V366.26H504.092V360.126ZM503.887 349.976H510.899V356.254H503.899L503.887 349.976ZM491.416 381.942H497.934V387.763H491.428L491.416 381.942ZM491.248 371.551H497.922V377.564H491.248V371.551ZM491.248 360.126H498.103V366.26H491.26L491.248 360.126ZM491.043 349.976H498.055V356.254H491.055L491.043 349.976Z" fill="#F0F0F0"/>
<path d="M523.707 381.738H504.248L504.284 383.193H504.825L504.837 394.004H506.786L506.774 383.193H521.205L521.193 394.004H523.141L523.153 383.193H523.743L523.707 381.738Z" fill="#F5F5F5"/>
<path d="M514.075 394.004H506.871V383.193H514.087L514.075 394.004Z" fill="#E6E6E6"/>
<path d="M521.11 394.004H513.906V383.193H521.122L521.11 394.004Z" fill="#EBEBEB"/>
<path d="M421.857 303.062L422.074 393.968H473.606L473.895 303.062H463.853V291.504H431.923V303.062H421.857ZM431.875 311.769H425.141V305.755H431.887L431.875 311.769ZM425.309 333.632V327.848H431.743V333.632H425.309ZM431.707 338.527V344.167H425.417V338.527H431.707ZM425.213 322.893V316.964H431.743V322.893H425.213ZM444.767 296.94V303.062H437.9V296.88L444.767 296.94ZM444.767 305.755V311.769H438.021V305.755H444.767ZM438.153 333.692V327.908H444.587V333.692H438.153ZM444.551 338.587V344.227H438.273V338.587H444.551ZM438.069 322.953V317.024H444.659V322.953H438.069ZM457.672 297V303.062H450.805V296.88L457.672 297ZM457.672 305.816V311.829H450.985V305.816H457.672ZM451.021 333.753V327.968H457.455V333.753H451.021ZM451.129 338.647H457.419V344.288H451.141L451.129 338.647ZM450.961 323.013V317.084H457.551V323.013H450.961ZM470.6 311.949H463.853V305.936H470.6V311.949ZM463.913 333.813V328.028H470.347V333.813H463.913ZM464.021 338.707H470.311V344.348H464.021V338.707ZM463.865 323.073V317.144H470.456V323.073H463.865ZM470.528 366.26H463.685V360.126H470.528V366.26ZM463.769 387.763V381.942H470.287V387.763H463.769ZM463.637 377.516V371.503H470.311V377.516H463.637ZM463.492 356.254V349.976H470.504V356.254H463.492ZM457.672 366.26H450.829V360.126H457.684L457.672 366.26ZM450.805 377.516V371.503H457.479V377.516H450.805ZM450.636 356.254V349.976H457.648V356.254H450.636ZM437.973 371.551H444.647V377.564H437.973V371.551ZM437.973 360.126H444.816V366.26H437.973V360.126ZM437.78 349.976H444.791V356.254H437.792L437.78 349.976ZM425.369 381.737H431.887V387.558H425.369V381.737ZM425.213 371.347H431.887V377.36H425.213V371.347ZM425.213 359.922H432.068V366.055H425.237L425.213 359.922ZM425.02 349.772H432.032V356.049H425.032L425.02 349.772Z" fill="#F0F0F0"/>
<path d="M457.587 381.738H438.141L438.177 383.193H438.718V394.004H440.666V383.193H455.098L455.086 394.004H457.022L457.046 383.193H457.623L457.587 381.738Z" fill="#F5F5F5"/>
<path d="M447.966 394.004H440.762L440.75 383.193H447.966V394.004Z" fill="#E6E6E6"/>
<path d="M454.989 394.004H447.785V383.193H455.013L454.989 394.004Z" fill="#EBEBEB"/>
<path d="M361.161 141.91L406.776 139.252C408.389 139.158 409.995 139.539 411.394 140.346C426.463 153.407 442.723 144.688 449.878 139.541C452.599 137.571 455.822 136.412 459.174 136.197L509.985 133.239C529.047 132.133 532.102 105.17 513.726 99.9503L513.016 99.7578C531.969 82.0071 486.222 49.5603 441.58 100.768C444.334 84.4003 402.483 92.6984 390.865 115.488C385.43 101.321 346.657 128.801 361.161 141.91Z" fill="#F0F0F0"/>
<path d="M179.035 156.257L154.333 155.776L152.276 156.654C146.692 159.024 140.646 160.112 134.586 159.837C128.525 159.563 122.603 157.932 117.256 155.067L96.5827 154.67C96.5827 154.67 77.3407 147.009 80.263 127.779C83.1854 108.549 112.012 125.169 112.012 125.169C112.012 125.169 103.69 98.0862 131.808 106.264C159.925 114.442 162.174 141.14 162.174 141.14C162.174 141.14 199.419 135.404 179.035 156.257Z" fill="#F0F0F0"/>
<path d="M263.675 173.719H331.202C339.861 173.719 341.942 161.609 333.776 158.759L333.463 158.662C342.495 151.122 322.64 135.247 301.125 157.231C302.808 149.907 283.663 152.553 277.806 162.547C275.725 155.981 257.457 167.393 263.675 173.719Z" fill="#F0F0F0"/>
<path d="M294.861 443.42C423.641 443.42 528.038 437.325 528.038 429.806C528.038 422.287 423.641 416.192 294.861 416.192C166.08 416.192 61.6836 422.287 61.6836 429.806C61.6836 437.325 166.08 443.42 294.861 443.42Z" fill="#F5F5F5"/>
<path d="M459.847 436.084C448.783 436.693 437.715 437.247 426.643 437.744C421.969 437.944 417.282 438.137 412.584 438.321C367.87 440.085 323.137 440.83 278.383 440.558C229.765 440.261 181.155 438.758 132.553 436.048C136.972 395.733 156.116 358.469 186.316 331.398C216.515 304.328 255.644 289.358 296.2 289.358C336.756 289.358 375.885 304.328 406.084 331.398C436.284 358.469 455.428 395.733 459.847 436.048V436.084Z" fill="#5FBE3F"/>
<path opacity="0.3" d="M459.847 436.084C448.783 436.693 437.715 437.247 426.643 437.744C421.969 437.944 417.282 438.137 412.584 438.321C367.87 440.085 323.137 440.83 278.383 440.558C229.765 440.261 181.155 438.758 132.553 436.048C136.972 395.733 156.116 358.469 186.316 331.398C216.515 304.328 255.644 289.358 296.2 289.358C336.756 289.358 375.885 304.328 406.084 331.398C436.284 358.469 455.428 395.733 459.847 436.048V436.084Z" fill="black"/>
<path opacity="0.7" d="M212.335 356.951C210.435 355.508 201.319 358.623 201.295 355.917C201.295 354.113 207.428 349.074 208.583 346.825C210.279 343.494 209.401 338.84 210.988 335.713C211.854 333.993 214.211 330.012 216.147 328.377C225.408 320.56 239.526 312.081 251.288 311.54C255.521 311.336 261.33 318.6 262.28 324.264C262.845 327.631 262.28 337.625 259.31 341.101C254.824 346.38 244.998 346.44 239.779 350.553C233.694 355.364 230.747 366.596 223.748 370.361C221.8 371.407 218.096 369.35 216.833 368.28C214.5 366.284 214.536 358.599 212.335 356.951Z" fill="white"/>
<path opacity="0.7" d="M303.386 375.748C305.371 375.544 309.748 374.474 310.951 372.694C312.899 369.819 313.633 361.16 311.6 358.719C310.746 357.697 307.548 357.913 306.453 358.803C305.034 360.006 305.419 364.949 304.048 366.187C302.677 367.426 298.636 365.67 297.409 367.065C296.183 368.46 295.846 373.006 296.796 374.401C297.746 375.796 301.667 375.917 303.386 375.748Z" fill="white"/>
<path opacity="0.7" d="M459.848 436.084C448.784 436.693 437.716 437.246 426.644 437.744C426.223 435.735 425.79 433.57 424.647 432.849C421.821 431.021 412.116 430.925 411.418 433.414C411.246 434.265 411.256 435.142 411.449 435.988C411.642 436.834 412.013 437.629 412.537 438.321C367.823 440.085 323.09 440.83 278.336 440.558L278.408 440.437C284.421 430.516 297.398 420.378 308.113 416.854C314.126 414.858 322.929 414.341 328.437 417.539C330.542 418.742 330.951 425.284 332.839 427.16C335.557 429.794 343.097 432.837 346.813 433.065C354.606 433.546 365.214 432.368 370.866 427.305C372.526 425.838 373.44 420.197 372.706 417.828C371.66 414.449 366.224 408.279 362.844 407.486C359.982 406.788 355.051 412.573 352.213 411.779C348.208 410.648 345.791 399.416 341.835 398.466C341.006 398.452 340.187 398.644 339.452 399.027C338.717 399.409 338.089 399.968 337.625 400.655C336.423 403.721 343.35 410.131 342.135 413.186C341.173 415.591 334.691 419.367 332.767 417.576C331.191 416.12 335.978 411.562 335.593 409.482C335.076 406.656 331.119 401.064 328.377 400.631C326.321 400.282 323.254 404.551 321.222 405.056C318.6 405.718 312.731 402.747 310.506 404.371C308.822 405.573 309.833 411.19 308.173 412.476C305.84 414.268 298.769 414.413 296.604 412.549C293.73 410.071 291.877 400.234 294.439 397.179C296.375 394.906 304.18 399.584 305.744 397.047C306.85 395.291 302.352 391.791 302.557 389.735C302.785 387.33 305.912 383.048 307.764 381.593C310.278 379.609 317.626 380.39 319.478 377.817C321.149 375.412 317.674 367.967 319.706 366.031C321.378 364.444 326.693 365.815 328.269 367.486C329.844 369.158 328.329 376.855 330.337 377.805C335.821 380.354 346.393 375.399 348.942 370.589C351.347 366.127 350.361 355.881 346.441 352.189C345.13 350.986 340.848 353.464 339.646 355.015C338.443 356.566 339.333 361.221 338.01 362.351C336.11 363.987 330.349 363.722 328.245 362.351C326.14 360.98 323.819 355.4 323.795 352.73C323.95 346.439 325.858 340.317 329.303 335.051C331.781 331.335 339.718 326.296 343.242 326.429C350.313 326.705 357.529 333.909 364.48 336.05C365.887 336.483 368.882 336.29 370.349 336.386C374.45 336.639 382.531 334.643 386.765 337.589C387.787 338.286 388.689 341.497 389.747 342.051C393.175 343.879 399.994 341.822 400.847 338.924C401.196 337.721 398.442 333.873 398.538 332.526C398.857 330.548 399.92 328.767 401.509 327.547C434.299 354.788 455.218 393.707 459.848 436.084Z" fill="white"/>
<path opacity="0.7" d="M137.7 424.394C138.59 424.779 141.175 424.924 142.065 424.214C144.17 422.578 142.33 417.215 144.062 415.363C151.398 407.473 166.202 408.027 173.093 399.512C175.017 397.107 172.071 390.949 174.68 389.145C182.906 383.469 195.991 395.351 203.195 390.144C207.44 387.065 211.24 376.446 209.208 371.635C208.847 370.745 204.229 372.898 203.291 372.224C201.415 370.878 204.494 362.543 202.834 361.966C197.927 360.294 189.737 364.636 184.59 367.45C183.171 368.232 180.67 371.371 179.287 371.816C176.352 372.742 170.592 370.733 172.143 368.617C175.57 363.926 184.47 362.688 189.377 358.911C193.682 355.58 201.271 348.665 201.174 345.105C201.054 340.295 180.501 345.719 175.366 348.304C172.335 349.832 165.745 356.145 162.666 357.649C149.169 376.274 139.745 397.533 135.006 420.041C135.824 421.809 136.425 423.853 137.7 424.394Z" fill="white"/>
<path d="M228.006 224.518C236.023 224.284 243.93 226.432 250.726 230.691C257.522 234.95 262.903 241.129 266.188 248.446C269.472 255.764 270.513 263.89 269.179 271.799C267.845 279.708 264.195 287.044 258.692 292.878C253.188 298.713 246.078 302.785 238.261 304.579C230.444 306.372 222.27 305.808 214.773 302.956C207.277 300.104 200.794 295.094 196.145 288.558C191.497 282.022 188.89 274.254 188.656 266.237C188.345 255.488 192.316 245.055 199.695 237.232C207.073 229.409 217.257 224.836 228.006 224.518ZM227.838 218.697C218.67 218.963 209.787 221.941 202.311 227.255C194.836 232.569 189.104 239.98 185.841 248.552C182.578 257.123 181.93 266.47 183.978 275.41C186.027 284.35 190.681 292.481 197.351 298.776C204.021 305.072 212.408 309.247 221.451 310.776C230.495 312.304 239.788 311.117 248.157 307.364C256.525 303.61 263.593 297.46 268.466 289.69C273.339 281.92 275.799 272.879 275.534 263.712C275.172 251.418 269.943 239.772 260.997 231.333C252.051 222.894 240.119 218.353 227.826 218.709L227.838 218.697Z" fill="#263238"/>
<path d="M229.16 308.016C217.835 308.071 206.947 303.652 198.864 295.72C190.781 287.787 186.157 276.984 185.998 265.661C185.84 254.337 190.159 243.408 198.017 235.253C205.875 227.098 216.635 222.375 227.957 222.113C239.345 221.781 250.399 225.987 258.686 233.805C266.974 241.624 271.816 252.414 272.147 263.802C272.479 275.19 268.273 286.244 260.455 294.531C252.637 302.819 241.847 307.661 230.458 307.992L229.16 308.016ZM228.077 226.923C217.974 227.247 208.41 231.556 201.475 238.909C194.539 246.262 190.795 256.061 191.06 266.165C191.28 273.707 193.731 281.014 198.104 287.163C202.477 293.311 208.575 298.025 215.626 300.708C222.678 303.391 230.367 303.923 237.721 302.236C245.075 300.549 251.764 296.719 256.941 291.231C262.118 285.742 265.552 278.842 266.807 271.402C268.062 263.962 267.083 256.317 263.994 249.434C260.904 242.55 255.843 236.738 249.45 232.731C243.057 228.724 235.619 226.703 228.077 226.923Z" fill="#5FBE3F"/>
<path d="M367.245 220.465C375.263 220.228 383.172 222.375 389.97 226.633C396.768 230.891 402.15 237.07 405.437 244.387C408.723 251.705 409.765 259.833 408.431 267.743C407.097 275.653 403.448 282.989 397.944 288.825C392.44 294.66 385.329 298.732 377.51 300.526C369.692 302.32 361.517 301.754 354.02 298.901C346.523 296.048 340.04 291.035 335.392 284.498C330.744 277.96 328.139 270.191 327.907 262.172C327.603 251.426 331.576 240.998 338.954 233.178C346.332 225.358 356.511 220.786 367.257 220.465H367.245ZM367.089 214.645C357.921 214.912 349.039 217.893 341.565 223.209C334.091 228.525 328.361 235.938 325.1 244.51C321.84 253.082 321.194 262.429 323.245 271.368C325.296 280.308 329.952 288.438 336.623 294.732C343.295 301.025 351.683 305.199 360.727 306.725C369.771 308.251 379.064 307.061 387.431 303.306C395.799 299.55 402.865 293.398 407.736 285.627C412.607 277.856 415.064 268.815 414.797 259.647C414.62 253.559 413.245 247.566 410.751 242.01C408.258 236.454 404.694 231.443 400.264 227.264C395.834 223.086 390.624 219.82 384.932 217.655C379.239 215.49 373.176 214.467 367.089 214.645Z" fill="#263238"/>
<path d="M228.98 257.903C230.395 257.861 231.79 258.239 232.99 258.99C234.19 259.741 235.14 260.831 235.72 262.123C236.3 263.414 236.485 264.848 236.25 266.244C236.014 267.64 235.371 268.934 234.4 269.964C233.429 270.994 232.174 271.713 230.794 272.03C229.415 272.346 227.972 272.247 226.649 271.744C225.326 271.24 224.182 270.356 223.362 269.203C222.541 268.049 222.082 266.678 222.041 265.263C222.001 263.372 222.707 261.54 224.005 260.164C225.302 258.787 227.089 257.975 228.98 257.903Z" fill="#263238"/>
<path d="M368.004 245.877C365.012 245.964 362.114 246.936 359.675 248.67C357.236 250.405 355.367 252.824 354.303 255.621C353.239 258.418 353.028 261.468 353.698 264.385C354.368 267.302 355.888 269.954 358.065 272.007C360.243 274.06 362.98 275.421 365.931 275.918C368.882 276.415 371.915 276.026 374.644 274.799C377.374 273.573 379.679 271.564 381.267 269.027C382.855 266.491 383.655 263.54 383.566 260.549C383.446 256.54 381.74 252.743 378.822 249.991C375.904 247.24 372.013 245.76 368.004 245.877ZM368.725 270.615C366.824 270.669 364.95 270.158 363.339 269.147C361.728 268.135 360.453 266.67 359.674 264.934C358.896 263.199 358.65 261.271 358.967 259.396C359.283 257.52 360.149 255.781 361.453 254.397C362.758 253.013 364.444 252.047 366.298 251.621C368.151 251.195 370.09 251.328 371.868 252.003C373.646 252.678 375.184 253.865 376.288 255.414C377.392 256.963 378.012 258.804 378.07 260.705C378.105 261.969 377.891 263.227 377.44 264.408C376.988 265.588 376.309 266.669 375.44 267.587C374.571 268.505 373.53 269.243 372.376 269.758C371.221 270.273 369.977 270.556 368.713 270.591L368.725 270.615Z" fill="#263238"/>
<path opacity="0.5" d="M368.004 245.877C365.012 245.964 362.114 246.936 359.675 248.67C357.236 250.405 355.367 252.824 354.303 255.621C353.239 258.418 353.028 261.468 353.698 264.385C354.368 267.302 355.888 269.954 358.065 272.007C360.243 274.06 362.98 275.421 365.931 275.918C368.882 276.415 371.915 276.026 374.644 274.799C377.374 273.573 379.679 271.564 381.267 269.027C382.855 266.491 383.655 263.54 383.566 260.549C383.446 256.54 381.74 252.743 378.822 249.991C375.904 247.24 372.013 245.76 368.004 245.877ZM368.725 270.615C366.824 270.669 364.95 270.158 363.339 269.147C361.728 268.135 360.453 266.67 359.674 264.934C358.896 263.199 358.65 261.271 358.967 259.396C359.283 257.52 360.149 255.781 361.453 254.397C362.758 253.013 364.444 252.047 366.298 251.621C368.151 251.195 370.09 251.328 371.868 252.003C373.646 252.678 375.184 253.865 376.288 255.414C377.392 256.963 378.012 258.804 378.07 260.705C378.105 261.969 377.891 263.227 377.44 264.408C376.988 265.588 376.309 266.669 375.44 267.587C374.571 268.505 373.53 269.243 372.376 269.758C371.221 270.273 369.977 270.556 368.713 270.591L368.725 270.615Z" fill="white"/>
<path d="M228.739 249.93C225.747 250.017 222.848 250.99 220.408 252.725C217.969 254.461 216.1 256.881 215.037 259.68C213.974 262.479 213.765 265.53 214.437 268.447C215.108 271.364 216.63 274.017 218.81 276.069C220.99 278.121 223.73 279.48 226.683 279.974C229.635 280.468 232.668 280.075 235.397 278.845C238.127 277.614 240.429 275.602 242.014 273.062C243.599 270.523 244.395 267.57 244.301 264.578C244.173 260.574 242.463 256.785 239.546 254.039C236.629 251.294 232.743 249.816 228.739 249.93ZM229.449 274.68C227.548 274.733 225.673 274.223 224.062 273.211C222.451 272.2 221.176 270.734 220.398 268.999C219.62 267.263 219.373 265.336 219.69 263.461C220.007 261.585 220.872 259.846 222.177 258.462C223.482 257.078 225.168 256.112 227.021 255.686C228.875 255.26 230.813 255.393 232.591 256.068C234.37 256.743 235.908 257.93 237.012 259.479C238.116 261.028 238.736 262.869 238.793 264.77C238.832 266.035 238.621 267.294 238.171 268.477C237.722 269.66 237.045 270.743 236.177 271.663C235.309 272.584 234.268 273.324 233.113 273.841C231.959 274.359 230.714 274.644 229.449 274.68Z" fill="#263238"/>
<path opacity="0.5" d="M228.739 249.93C225.747 250.017 222.848 250.99 220.408 252.725C217.969 254.461 216.1 256.881 215.037 259.68C213.974 262.479 213.765 265.53 214.437 268.447C215.108 271.364 216.63 274.017 218.81 276.069C220.99 278.121 223.73 279.48 226.683 279.974C229.635 280.468 232.668 280.075 235.397 278.845C238.127 277.614 240.429 275.602 242.014 273.062C243.599 270.523 244.395 267.57 244.301 264.578C244.173 260.574 242.463 256.785 239.546 254.039C236.629 251.294 232.743 249.816 228.739 249.93ZM229.449 274.68C227.548 274.733 225.673 274.223 224.062 273.211C222.451 272.2 221.176 270.734 220.398 268.999C219.62 267.263 219.373 265.336 219.69 263.461C220.007 261.585 220.872 259.846 222.177 258.462C223.482 257.078 225.168 256.112 227.021 255.686C228.875 255.26 230.813 255.393 232.591 256.068C234.37 256.743 235.908 257.93 237.012 259.479C238.116 261.028 238.736 262.869 238.793 264.77C238.832 266.035 238.621 267.294 238.171 268.477C237.722 269.66 237.045 270.743 236.177 271.663C235.309 272.584 234.268 273.324 233.113 273.841C231.959 274.359 230.714 274.644 229.449 274.68Z" fill="white"/>
<path d="M225.564 261.186C225.997 261.054 226.446 260.981 226.899 260.97H226.971H227.055L290.626 254.127C292.716 254.033 294.769 254.703 296.402 256.011C298.036 257.319 299.137 259.177 299.502 261.237C299.867 263.297 299.471 265.42 298.386 267.21C297.302 268.999 295.604 270.333 293.608 270.964C292.941 271.172 292.25 271.297 291.552 271.336L227.296 270.867H227.223C226.025 270.9 224.855 270.5 223.929 269.74C223.002 268.979 222.381 267.91 222.179 266.729C221.977 265.547 222.208 264.332 222.83 263.308C223.452 262.283 224.423 261.517 225.564 261.15V261.186ZM224.914 258.853C223.315 259.425 221.969 260.542 221.112 262.008C220.256 263.474 219.944 265.195 220.231 266.869C220.518 268.543 221.387 270.061 222.683 271.158C223.98 272.254 225.622 272.858 227.32 272.864L291.66 273.273C292.563 273.227 293.456 273.065 294.318 272.792C296.788 271.966 298.878 270.278 300.204 268.037C301.53 265.795 302.004 263.15 301.538 260.588C301.071 258.025 299.697 255.717 297.666 254.086C295.635 252.455 293.084 251.612 290.482 251.71L226.815 258.565C226.162 258.578 225.514 258.683 224.89 258.877L224.914 258.853Z" fill="#5FBE3F"/>
<path d="M291.48 268.715H291.167C290.792 268.671 290.435 268.532 290.13 268.311C289.825 268.09 289.581 267.794 289.423 267.452L266.693 196.184C266.575 195.924 266.509 195.643 266.499 195.356C266.49 195.07 266.536 194.785 266.637 194.517C266.737 194.249 266.89 194.004 267.085 193.794C267.28 193.585 267.515 193.417 267.776 193.298C268.036 193.18 268.318 193.114 268.604 193.104C268.89 193.094 269.175 193.141 269.443 193.242C269.711 193.342 269.957 193.494 270.166 193.69C270.375 193.885 270.544 194.12 270.662 194.381L291.888 262.317L349.109 200.983C349.48 200.576 349.99 200.323 350.538 200.275C351.086 200.228 351.632 200.388 352.067 200.725C352.503 201.061 352.795 201.55 352.887 202.092C352.978 202.635 352.862 203.192 352.561 203.653L293.163 267.873C292.965 268.132 292.71 268.342 292.418 268.488C292.127 268.633 291.806 268.711 291.48 268.715Z" fill="#263238"/>
<path d="M229.233 266.514C228.846 266.523 228.471 266.38 228.189 266.114C227.907 265.848 227.742 265.482 227.73 265.095C227.721 264.88 227.762 264.666 227.85 264.469L277.001 226.947C277.137 226.585 277.411 226.292 277.763 226.132C278.114 225.972 278.515 225.958 278.877 226.094C279.239 226.229 279.533 226.503 279.693 226.855C279.853 227.207 279.867 227.608 279.731 227.97V228.114L230.58 265.636C230.467 265.898 230.278 266.122 230.039 266.278C229.799 266.434 229.519 266.516 229.233 266.514Z" fill="#263238"/>
<path d="M268.33 174.477C268.33 174.477 266.201 193.635 267.765 193.31C269.328 192.985 307.872 191.217 307.872 191.217L292.599 229.437L301.715 230.471C301.715 230.471 329.375 189.582 327.247 180.273C325.118 170.965 268.33 174.477 268.33 174.477Z" fill="#5FBE3F"/>
<g opacity="0.3">
<path opacity="0.3" d="M268.33 174.477C268.33 174.477 266.201 193.635 267.765 193.31C269.328 192.985 307.872 191.217 307.872 191.217L292.599 229.437L301.715 230.471C301.715 230.471 329.375 189.582 327.247 180.273C325.118 170.965 268.33 174.477 268.33 174.477Z" fill="black"/>
</g>
<path opacity="0.2" d="M272.744 185.589L276.352 192.805C282.942 192.516 296.496 191.759 296.496 191.759C291.132 187.61 277.807 184.531 272.744 185.589Z" fill="black"/>
<path d="M288.955 242.822L295.774 242.124L300.717 229.268L294.379 228.787L288.955 242.822Z" fill="#FF8B7B"/>
<path opacity="0.2" d="M300.716 229.28L298.323 235.51L291.816 235.414L294.366 228.787L300.716 229.28Z" fill="black"/>
<path d="M303.411 232.383L290.855 231.914L291 227.861L304.337 228.15L303.411 232.383Z" fill="#5FBE3F"/>
<path d="M295.186 240.393L288.379 240.465C288.255 240.467 288.135 240.511 288.039 240.59C287.943 240.668 287.877 240.777 287.85 240.898L286.647 246.442C286.621 246.558 286.618 246.679 286.639 246.796C286.66 246.913 286.704 247.025 286.769 247.125C286.834 247.225 286.919 247.31 287.018 247.377C287.116 247.443 287.228 247.49 287.345 247.512H287.525C289.93 247.44 293.538 247.272 296.605 247.248C300.213 247.248 301.415 247.428 305.576 247.392C308.138 247.392 308.823 244.77 307.741 244.542C302.931 243.532 300.862 243.399 296.629 240.85C296.196 240.575 295.698 240.417 295.186 240.393Z" fill="#5FBE3F"/>
<path d="M299.634 241.559C299.085 241.56 298.538 241.511 297.998 241.415C297.969 241.407 297.943 241.392 297.922 241.371C297.901 241.35 297.886 241.324 297.878 241.295C297.872 241.269 297.875 241.242 297.886 241.218C297.897 241.195 297.915 241.175 297.938 241.162C298.155 241.018 300.127 239.779 300.824 240.08C300.899 240.114 300.963 240.168 301.01 240.236C301.056 240.304 301.084 240.383 301.089 240.465C301.108 240.602 301.093 240.742 301.044 240.872C300.996 241.003 300.916 241.119 300.812 241.211C300.467 241.449 300.054 241.572 299.634 241.559ZM298.431 241.199C299.16 241.401 299.938 241.333 300.62 241.006C300.69 240.941 300.742 240.86 300.774 240.77C300.805 240.68 300.814 240.583 300.8 240.489C300.8 240.455 300.79 240.422 300.77 240.394C300.751 240.366 300.724 240.345 300.692 240.333C300.355 240.176 299.237 240.717 298.431 241.174V241.199Z" fill="#5FBE3F"/>
<path d="M298.022 241.403H297.926C297.91 241.36 297.91 241.313 297.926 241.271C297.926 241.199 298.01 239.503 298.708 238.926C298.789 238.849 298.886 238.791 298.992 238.756C299.098 238.721 299.21 238.709 299.321 238.721C299.429 238.713 299.536 238.743 299.626 238.804C299.715 238.865 299.782 238.954 299.814 239.058C299.97 239.743 298.78 241.042 298.142 241.463L298.022 241.403ZM299.225 238.998C299.1 239.01 298.982 239.06 298.888 239.142C298.472 239.677 298.237 240.329 298.214 241.006C298.828 240.525 299.621 239.515 299.501 239.142C299.501 239.142 299.501 239.022 299.273 239.01L299.225 238.998Z" fill="#5FBE3F"/>
<path d="M368.4 303.952C357.149 303.895 346.369 299.426 338.378 291.505C330.387 283.585 325.822 272.846 325.664 261.596C325.507 250.346 329.769 239.483 337.536 231.342C345.302 223.201 355.952 218.432 367.197 218.06C378.586 217.727 389.64 221.931 397.928 229.748C406.217 237.565 411.06 248.355 411.394 259.743C411.727 271.131 407.523 282.186 399.706 290.474C391.889 298.763 381.099 303.606 369.711 303.94L368.4 303.952ZM367.317 222.859C357.203 223.185 347.63 227.505 340.692 234.873C333.755 242.241 330.019 252.057 330.301 262.172C330.518 269.718 332.968 277.029 337.342 283.181C341.715 289.334 347.815 294.051 354.869 296.736C361.924 299.422 369.616 299.955 376.974 298.267C384.331 296.58 391.023 292.749 396.202 287.258C401.382 281.767 404.817 274.863 406.072 267.42C407.327 259.977 406.347 252.328 403.255 245.442C400.163 238.556 395.098 232.742 388.701 228.735C382.304 224.728 374.863 222.708 367.317 222.931V222.859Z" fill="#5FBE3F"/>
<path d="M346.115 194.982L277.987 225.24C277.409 225.31 276.828 225.148 276.37 224.789C275.912 224.431 275.615 223.905 275.545 223.328C275.475 222.75 275.637 222.169 275.996 221.711C276.354 221.253 276.88 220.956 277.458 220.886L345.045 191.446L346.115 194.982Z" fill="#263238"/>
<path d="M290.17 297.301L277.326 297.674C276.94 297.685 276.566 297.542 276.285 297.277C276.004 297.012 275.84 296.647 275.829 296.261C275.818 295.875 275.96 295.5 276.225 295.22C276.49 294.939 276.856 294.775 277.242 294.764L290.086 294.391C290.472 294.38 290.846 294.522 291.127 294.787C291.408 295.052 291.572 295.418 291.583 295.804C291.594 296.19 291.452 296.564 291.187 296.845C290.922 297.126 290.556 297.29 290.17 297.301Z" fill="#263238"/>
<path d="M284.47 296.435C284.244 296.447 284.019 296.405 283.812 296.313C283.606 296.22 283.424 296.08 283.282 295.904C283.14 295.728 283.042 295.521 282.995 295.3C282.949 295.079 282.956 294.849 283.015 294.631L294.524 247.873C294.642 247.529 294.885 247.241 295.204 247.067C295.524 246.893 295.897 246.845 296.251 246.932C296.604 247.02 296.912 247.237 297.113 247.54C297.314 247.843 297.395 248.211 297.338 248.571L285.829 295.305C285.76 295.617 285.589 295.898 285.343 296.102C285.097 296.307 284.79 296.424 284.47 296.435Z" fill="#263238"/>
<path d="M301.053 257.362L288.197 257.734C287.811 257.746 287.437 257.603 287.156 257.338C286.875 257.073 286.711 256.707 286.7 256.321C286.689 255.935 286.831 255.561 287.096 255.28C287.361 254.999 287.727 254.835 288.113 254.824L300.969 254.451C301.355 254.44 301.729 254.583 302.01 254.848C302.291 255.113 302.455 255.478 302.466 255.864C302.477 256.25 302.335 256.625 302.07 256.906C301.805 257.186 301.439 257.35 301.053 257.362Z" fill="#263238"/>
<path d="M302.268 249.809L289.424 250.182C289.233 250.188 289.042 250.156 288.864 250.088C288.685 250.02 288.521 249.917 288.382 249.786C288.243 249.655 288.132 249.497 288.053 249.323C287.975 249.148 287.932 248.96 287.926 248.769C287.921 248.578 287.953 248.388 288.021 248.209C288.089 248.03 288.192 247.867 288.323 247.728C288.454 247.589 288.611 247.477 288.786 247.399C288.96 247.32 289.148 247.277 289.339 247.272L302.184 246.899C302.569 246.888 302.944 247.03 303.225 247.295C303.506 247.56 303.67 247.926 303.681 248.312C303.692 248.698 303.549 249.073 303.284 249.353C303.019 249.634 302.654 249.798 302.268 249.809Z" fill="#263238"/>
<path d="M369.037 263.062C368.863 263.126 368.681 263.167 368.496 263.183C368.01 263.196 367.534 263.047 367.142 262.76C366.75 262.472 366.465 262.062 366.331 261.595L356.915 230.327L346.284 194.946L346.115 195.018L345.045 191.482L347.607 190.364C347.933 190.326 348.264 190.362 348.574 190.471C348.885 190.579 349.166 190.756 349.398 190.989C349.67 191.248 349.865 191.577 349.964 191.939L370.529 260.404C370.681 260.955 370.609 261.543 370.33 262.04C370.051 262.538 369.586 262.905 369.037 263.062Z" fill="#263238"/>
<path d="M347.559 190.327L344.998 191.446L342.424 183.028C342.223 182.506 342.229 181.928 342.441 181.411C342.652 180.893 343.054 180.477 343.563 180.246C344.072 180.016 344.65 179.988 345.178 180.17C345.706 180.352 346.145 180.729 346.405 181.224L349.351 190.929C349.117 190.7 348.834 190.528 348.524 190.424C348.214 190.319 347.884 190.287 347.559 190.327Z" fill="#263238"/>
<path d="M290.578 262.365L230.579 263.724C230.392 263.727 230.208 263.767 230.037 263.842C229.866 263.917 229.711 264.026 229.582 264.161C229.454 264.297 229.353 264.456 229.287 264.631C229.221 264.806 229.19 264.992 229.196 265.179C229.205 265.541 229.352 265.886 229.607 266.143C229.862 266.4 230.205 266.55 230.567 266.562L291.48 268.715L290.578 262.365Z" fill="#263238"/>
<path d="M344.793 191.855L349.544 207.02C349.572 207.114 349.62 207.202 349.683 207.278C349.745 207.354 349.823 207.416 349.91 207.462C349.997 207.508 350.093 207.536 350.191 207.545C350.289 207.553 350.388 207.543 350.482 207.513L354.15 206.31C354.242 206.282 354.329 206.235 354.403 206.173C354.477 206.11 354.539 206.034 354.584 205.948C354.628 205.862 354.656 205.767 354.664 205.671C354.672 205.574 354.661 205.477 354.631 205.384L349.965 190.099C349.936 190.002 349.888 189.912 349.824 189.834C349.759 189.757 349.679 189.694 349.589 189.648C349.498 189.603 349.4 189.577 349.299 189.572C349.198 189.567 349.097 189.582 349.003 189.618L345.262 190.929C345.079 190.992 344.928 191.124 344.84 191.297C344.753 191.47 344.736 191.67 344.793 191.855Z" fill="#5FBE3F"/>
<path d="M343.266 185.709L340.416 176.329L347.259 173.875L348.377 178.109L347.391 184.386L343.266 185.709Z" fill="#5FBE3F"/>
<path d="M333.788 180.394C332.991 180.442 332.207 180.171 331.609 179.641C331.012 179.111 330.649 178.365 330.601 177.568C330.553 176.77 330.824 175.987 331.354 175.389C331.884 174.791 332.63 174.429 333.427 174.381L352.369 172.108C353.166 172.012 353.969 172.237 354.6 172.733C355.232 173.229 355.64 173.956 355.736 174.754C355.832 175.551 355.607 176.354 355.111 176.985C354.614 177.617 353.888 178.025 353.09 178.121L334.161 180.394C334.037 180.406 333.912 180.406 333.788 180.394Z" fill="#5FBE3F"/>
<path d="M248.943 190.015C248.719 190.021 248.504 190.098 248.327 190.235C248.151 190.372 248.023 190.562 247.963 190.777C247.902 190.992 247.912 191.221 247.991 191.43C248.07 191.639 248.214 191.818 248.401 191.939C252.009 194.236 258.022 198.084 260.271 199.72C260.575 199.938 260.931 200.071 261.303 200.105C261.676 200.139 262.05 200.072 262.388 199.912L263.374 199.431C269.817 196.316 276.846 194.598 283.999 194.392L287.054 194.308C287.472 194.306 287.879 194.177 288.222 193.939C288.565 193.701 288.828 193.365 288.977 192.974C289.125 192.584 289.152 192.158 289.053 191.752C288.955 191.346 288.736 190.979 288.425 190.7L287.222 189.498C287.024 189.308 286.79 189.159 286.534 189.06C286.278 188.961 286.005 188.913 285.731 188.92L248.943 190.015Z" fill="#263238"/>
<path d="M290.134 256.304C291.565 256.251 292.979 256.626 294.196 257.38C295.414 258.134 296.379 259.233 296.97 260.538C297.561 261.842 297.75 263.293 297.514 264.705C297.277 266.118 296.626 267.428 295.643 268.469C294.66 269.51 293.389 270.235 291.992 270.552C290.596 270.868 289.137 270.762 287.8 270.247C286.464 269.732 285.312 268.83 284.489 267.658C283.667 266.486 283.212 265.095 283.183 263.664C283.144 261.77 283.85 259.937 285.151 258.56C286.451 257.183 288.241 256.373 290.134 256.304ZM290.026 252.696C287.884 252.754 285.807 253.447 284.059 254.686C282.311 255.926 280.97 257.656 280.207 259.658C279.443 261.661 279.291 263.844 279.77 265.933C280.248 268.022 281.336 269.921 282.895 271.391C284.455 272.861 286.415 273.835 288.529 274.19C290.642 274.544 292.813 274.264 294.767 273.383C296.72 272.503 298.369 271.062 299.503 269.244C300.637 267.426 301.206 265.312 301.138 263.17C301.05 260.31 299.833 257.601 297.752 255.636C295.672 253.671 292.898 252.609 290.038 252.684L290.026 252.696Z" fill="#5FBE3F"/>
<path d="M275.966 290.037L282.172 289.388L281.811 275.762L275.605 276.411L275.966 290.037Z" fill="#FF8B7B"/>
<path d="M283.147 288.029L275.558 288.317C275.44 288.322 275.326 288.366 275.235 288.442C275.143 288.518 275.08 288.622 275.053 288.738L274.031 294.018C274.014 294.132 274.02 294.249 274.048 294.362C274.076 294.474 274.127 294.579 274.196 294.672C274.265 294.765 274.352 294.843 274.452 294.902C274.552 294.961 274.662 295 274.777 295.016H274.981C277.386 294.884 279.202 294.679 282.197 294.559C284.085 294.559 289.785 294.451 292.383 294.343C294.981 294.234 295.221 291.805 294.151 291.613C289.34 290.819 285.648 289.592 284.061 288.354C283.799 288.15 283.479 288.036 283.147 288.029Z" fill="#5FBE3F"/>
<path opacity="0.2" d="M275.605 276.423L281.811 275.774L281.991 282.785L275.786 283.435L275.605 276.423Z" fill="black"/>
<path d="M268.823 173.346C268.823 173.346 285.371 208.463 284.709 225.673C284 244.53 284.577 279.791 284.577 279.791L273.813 280.909C273.813 280.909 268.51 247.344 269.003 228.968C269.592 208.054 239.202 184.892 247.741 169.57C258.035 171.278 268.823 173.346 268.823 173.346Z" fill="#5FBE3F"/>
<g opacity="0.3">
<path opacity="0.3" d="M268.823 173.346C268.823 173.346 285.371 208.463 284.709 225.673C284 244.53 284.577 279.791 284.577 279.791L273.813 280.909C273.813 280.909 268.51 247.344 269.003 228.968C269.592 208.054 239.202 184.892 247.741 169.57C258.035 171.278 268.823 173.346 268.823 173.346Z" fill="black"/>
</g>
<path d="M285.527 280.897L272.202 282.533L271.709 278.781L285.984 276.784L285.527 280.897Z" fill="#5FBE3F"/>
<path d="M285.251 288.979C284.703 288.979 284.155 288.931 283.615 288.835C283.586 288.827 283.56 288.812 283.539 288.791C283.518 288.77 283.503 288.743 283.495 288.714C283.489 288.689 283.492 288.662 283.503 288.638C283.514 288.614 283.532 288.595 283.555 288.582C283.772 288.438 285.744 287.199 286.442 287.5C286.516 287.534 286.58 287.588 286.627 287.656C286.673 287.724 286.701 287.803 286.706 287.885C286.725 288.022 286.71 288.162 286.661 288.292C286.613 288.422 286.534 288.538 286.43 288.63C286.084 288.869 285.671 288.991 285.251 288.979ZM284.048 288.618C284.777 288.821 285.555 288.753 286.237 288.426C286.307 288.361 286.36 288.28 286.391 288.189C286.422 288.099 286.432 288.003 286.418 287.909C286.417 287.875 286.407 287.842 286.388 287.814C286.368 287.786 286.341 287.764 286.309 287.752C285.973 287.596 284.854 288.137 284.048 288.594V288.618Z" fill="#5FBE3F"/>
<path d="M283.639 288.835H283.543C283.506 288.8 283.484 288.753 283.482 288.702C283.482 288.63 283.567 286.934 284.264 286.357C284.345 286.281 284.442 286.223 284.548 286.187C284.654 286.152 284.767 286.14 284.877 286.153C284.986 286.145 285.093 286.174 285.183 286.235C285.272 286.296 285.338 286.386 285.371 286.489C285.527 287.175 284.336 288.474 283.699 288.835H283.639ZM284.841 286.429C284.717 286.441 284.599 286.492 284.505 286.574C284.089 287.108 283.853 287.761 283.831 288.438C284.445 287.957 285.238 286.946 285.118 286.574C285.118 286.574 285.118 286.453 284.889 286.441L284.841 286.429Z" fill="#5FBE3F"/>
<path d="M273.213 121.646L289.497 124.051C298.625 125.41 308.065 120.732 315.955 115.885L319.743 119.842C319.743 119.842 303.062 132.132 294.812 132.169C290.134 132.169 282.786 130.966 277.338 129.847C276.47 129.675 275.653 129.307 274.948 128.77C274.244 128.234 273.671 127.545 273.273 126.754C272.875 125.963 272.663 125.092 272.653 124.207C272.642 123.321 272.834 122.446 273.213 121.646Z" fill="#263238"/>
<path d="M325.611 108.693C325.154 111.351 324.709 114.009 324.252 116.679C322.736 117.641 321.426 118.94 319.91 119.914C318.301 118.97 316.917 117.685 315.857 116.15C316.134 114.947 316.639 113.744 316.916 112.482C317.385 110.425 319.898 109.078 321.281 107.491C322.532 107.779 324.372 108.405 325.611 108.693Z" fill="#FF8B7B"/>
<path d="M276.676 134.225L288.87 133.9L290.554 122.56C290.554 122.56 283.771 121.225 277.409 119.938C277.145 123.618 276.94 130.533 276.676 134.225Z" fill="#5FBE3F"/>
<path opacity="0.1" d="M276.676 134.225L288.87 133.9L290.554 122.56C290.554 122.56 283.771 121.225 277.409 119.938C277.145 123.618 276.94 130.533 276.676 134.225Z" fill="black"/>
<path opacity="0.2" d="M288.87 133.9L277.505 131.796L277.445 134.237L288.87 133.9Z" fill="black"/>
<path d="M248.343 125.915C250.748 147.249 247.922 161.717 246.154 174.862C250.496 175.884 259.034 176.257 266.912 175.956C271.263 175.647 275.585 175.008 279.84 174.044C279.034 161.416 280.982 136.161 281.872 125.638C281.991 124.289 281.596 122.946 280.766 121.876C279.937 120.805 278.734 120.088 277.399 119.866H277.302C276.4 119.721 275.426 119.589 274.416 119.469C273.839 119.409 273.213 119.348 272.696 119.312C267.973 119.116 263.243 119.196 258.529 119.553C257.639 119.553 256.737 119.685 255.859 119.781C254.982 119.878 254.236 119.974 253.454 120.082L252.408 120.238C251.768 120.337 251.153 120.56 250.6 120.897C250.046 121.233 249.564 121.675 249.182 122.198C248.8 122.721 248.525 123.314 248.373 123.944C248.22 124.573 248.194 125.227 248.295 125.867L248.343 125.915Z" fill="#5FBE3F"/>
<path d="M253.755 133.72C253.887 136.642 251.59 142.692 249.449 146.504C249.594 142.896 249.606 138.975 249.365 135.019L253.755 133.72Z" fill="#5FBE3F"/>
<path opacity="0.2" d="M253.755 133.72C253.887 136.642 251.59 142.692 249.449 146.504C249.594 142.896 249.606 138.975 249.365 135.019L253.755 133.72Z" fill="black"/>
<path d="M259.695 103.582C260.657 108.128 261.692 116.45 258.553 119.553C261.066 121.958 264.361 124.761 269.773 124.857C275.185 124.953 274.163 121.249 272.72 119.313C267.609 118.182 267.681 114.418 268.51 110.894L259.695 103.582Z" fill="#FF8B7B"/>
<path opacity="0.2" d="M263.28 106.529L268.487 110.834C268.28 111.658 268.151 112.499 268.102 113.347C266.981 113.171 265.921 112.722 265.013 112.041C264.105 111.359 263.378 110.466 262.895 109.439C262.402 108.104 262.787 106.709 263.28 106.529Z" fill="black"/>
<path d="M255.655 98.6153C257.567 104.496 258.385 108.032 262.185 110.317C267.922 113.744 274.585 109.114 274.464 102.752C274.356 97.0519 271.253 88.405 264.843 87.5271C263.415 87.3241 261.958 87.4916 260.614 88.0134C259.269 88.5352 258.08 89.394 257.163 90.5072C256.245 91.6204 255.629 92.9507 255.373 94.3705C255.118 95.7904 255.231 97.252 255.703 98.6153H255.655Z" fill="#FF8B7B"/>
<path d="M259.622 100.094C260.045 101.269 260.564 102.408 261.174 103.498C259.932 103.116 258.634 102.953 257.337 103.017C256.886 103.065 256.432 103.089 255.978 103.089C255.533 103.079 255.106 102.908 254.776 102.608C254.58 102.399 254.444 102.142 254.383 101.862C254.321 101.583 254.337 101.292 254.427 101.02C254.608 100.47 254.973 99.9986 255.461 99.6855C255.984 99.3251 256.606 99.136 257.241 99.1443C257.842 99.1684 259.406 99.5051 259.622 100.094Z" fill="#263238"/>
<path d="M258.385 94.1415C258.385 94.1415 259.13 97.2924 260.141 100.155C259.395 100.082 256.232 101.802 256.376 102.752C256.713 104.905 258.782 106.613 260.706 107.635C260.706 108.308 260.61 110.245 260.61 110.245C259.407 111.123 257.928 111.447 256.701 112.313C256.08 112.81 255.375 113.192 254.621 113.444C254.245 113.564 253.844 113.585 253.458 113.502C253.072 113.42 252.714 113.238 252.42 112.975C252.283 112.835 252.176 112.669 252.106 112.486C252.036 112.304 252.004 112.109 252.013 111.913C252.022 111.718 252.072 111.527 252.158 111.351C252.245 111.176 252.367 111.02 252.516 110.894C251.857 111.016 251.176 110.91 250.586 110.593C249.996 110.276 249.531 109.767 249.269 109.15C249.039 108.501 249.032 107.793 249.25 107.139C249.468 106.486 249.898 105.924 250.472 105.542C250.075 105.769 249.609 105.838 249.164 105.738C248.719 105.638 248.327 105.375 248.066 105.001C247.841 104.609 247.714 104.167 247.697 103.714C247.68 103.262 247.774 102.812 247.97 102.404C248.373 101.592 248.957 100.884 249.678 100.335C249.441 100.492 249.152 100.55 248.873 100.496C248.594 100.442 248.347 100.281 248.187 100.046C247.896 99.5671 247.797 98.9959 247.91 98.4469C248.135 96.8113 249 95.332 250.315 94.3339C255.33 90.5096 264.747 82.7887 269.016 89.3911L268.042 89.1265C265.565 89.6677 266.936 90.4374 265.54 90.6298C262.839 90.9988 260.329 92.2305 258.385 94.1415Z" fill="#263238"/>
<path d="M254.752 105.326C255.309 105.856 255.966 106.27 256.685 106.544C257.403 106.819 258.168 106.948 258.937 106.925C261.006 106.853 261.403 104.857 260.308 103.245C259.214 101.634 257.061 100.07 255.257 100.936C254.861 101.129 254.521 101.419 254.267 101.778C254.012 102.138 253.853 102.555 253.802 102.993C253.752 103.43 253.813 103.873 253.979 104.281C254.145 104.689 254.411 105.048 254.752 105.326Z" fill="#FF8B7B"/>
<path d="M265.144 97.8936C265.3 98.3626 265.637 98.6994 265.949 98.6152C266.262 98.531 266.418 98.074 266.298 97.593C266.178 97.1119 265.817 96.7752 265.492 96.8594C265.168 96.9435 265.023 97.4126 265.144 97.8936Z" fill="#263238"/>
<path d="M270.591 96.4627C270.735 96.9437 271.072 97.2804 271.397 97.1963C271.721 97.1121 271.878 96.6551 271.746 96.162C271.613 95.6689 271.264 95.3562 270.94 95.4404C270.615 95.5246 270.519 95.9816 270.591 96.4627Z" fill="#263238"/>
<path d="M268.967 97.1721C269.914 98.5271 271.048 99.7417 272.334 100.78C272.065 101.102 271.728 101.362 271.348 101.54C270.968 101.719 270.553 101.812 270.133 101.814L268.967 97.1721Z" fill="#FF5652"/>
<path d="M268.426 103.582C267.868 103.658 267.302 103.619 266.76 103.468C266.218 103.317 265.713 103.057 265.275 102.704C265.261 102.691 265.251 102.675 265.243 102.658C265.236 102.64 265.232 102.621 265.232 102.602C265.232 102.583 265.236 102.564 265.243 102.547C265.251 102.529 265.261 102.513 265.275 102.5C265.287 102.485 265.303 102.473 265.321 102.464C265.338 102.456 265.358 102.452 265.377 102.452C265.397 102.452 265.416 102.456 265.434 102.464C265.451 102.473 265.467 102.485 265.479 102.5C265.975 102.882 266.552 103.142 267.166 103.261C267.78 103.38 268.413 103.354 269.015 103.185C269.053 103.18 269.091 103.188 269.124 103.208C269.157 103.228 269.182 103.258 269.195 103.294C269.203 103.332 269.196 103.371 269.176 103.405C269.156 103.438 269.124 103.463 269.087 103.474C268.87 103.528 268.649 103.564 268.426 103.582Z" fill="#263238"/>
<path d="M262.99 96.5468H262.845C262.775 96.5151 262.719 96.4574 262.69 96.3857C262.661 96.3141 262.661 96.2339 262.689 96.162C262.856 95.7223 263.127 95.3296 263.479 95.0175C263.831 94.7054 264.253 94.4833 264.709 94.3701C264.786 94.3594 264.863 94.3784 264.926 94.4232C264.988 94.4679 265.032 94.535 265.046 94.6106C265.061 94.687 265.045 94.766 265.002 94.831C264.96 94.8961 264.893 94.9421 264.818 94.9594C264.457 95.0483 264.124 95.2241 263.848 95.4715C263.571 95.7189 263.359 96.0303 263.23 96.3785C263.209 96.4255 263.175 96.4659 263.133 96.4955C263.091 96.5251 263.041 96.5428 262.99 96.5468Z" fill="#263238"/>
<path d="M272.527 93.9613C272.479 93.9661 272.43 93.96 272.384 93.9433C272.338 93.9267 272.297 93.8999 272.262 93.865C272.032 93.5758 271.737 93.3454 271.4 93.1927C271.064 93.0401 270.695 92.9696 270.326 92.9871C270.285 92.9992 270.241 93.0022 270.199 92.996C270.156 92.9898 270.115 92.9745 270.079 92.9512C270.043 92.9279 270.012 92.897 269.989 92.8608C269.966 92.8245 269.951 92.7837 269.944 92.741C269.938 92.6984 269.941 92.6549 269.954 92.6136C269.966 92.5723 269.987 92.534 270.015 92.5015C270.043 92.469 270.078 92.4429 270.117 92.425C270.156 92.4071 270.199 92.3978 270.242 92.3978C270.7 92.3751 271.157 92.4614 271.575 92.6496C271.993 92.8377 272.361 93.1224 272.647 93.4802C272.674 93.507 272.696 93.5389 272.71 93.574C272.725 93.6091 272.732 93.6467 272.732 93.6846C272.732 93.7226 272.725 93.7602 272.71 93.7953C272.696 93.8304 272.674 93.8623 272.647 93.8891C272.616 93.9258 272.574 93.9512 272.527 93.9613Z" fill="#263238"/>
<path d="M254.319 123.137L236.641 128.284C226.755 131.158 215.595 127.406 206.178 123.209L202.57 128.164C202.57 128.164 222.81 139.252 231.962 138.037C237.158 137.352 245.083 134.862 250.964 132.842C251.9 132.521 252.751 131.991 253.452 131.291C254.152 130.592 254.684 129.742 255.006 128.806C255.329 127.87 255.434 126.873 255.312 125.891C255.191 124.908 254.847 123.966 254.307 123.137H254.319Z" fill="#263238"/>
<path d="M194.344 116.655L197.05 125.302C198.878 126.143 200.513 127.382 202.341 128.224C203.991 126.93 205.334 125.287 206.274 123.413C205.769 122.078 205.071 120.84 204.542 119.505C203.712 117.304 200.73 116.186 198.95 114.694C197.615 115.211 195.679 116.174 194.344 116.655Z" fill="#FF8B7B"/>
<path d="M251.24 120.467C243.807 123.197 243.843 123.726 236.062 125.181L242.46 139.745C242.46 139.745 248.317 139.276 252.226 135.801C255.112 133.239 257.289 129.787 256.351 124.7C255.906 122.307 253.525 119.625 251.24 120.467Z" fill="#5FBE3F"/>
<path opacity="0.1" d="M251.24 120.467C243.807 123.197 243.843 123.726 236.062 125.181L242.46 139.745C242.46 139.745 248.317 139.276 252.226 135.801C255.112 133.239 257.289 129.787 256.351 124.7C255.906 122.307 253.525 119.625 251.24 120.467Z" fill="white"/>
</svg>
