<svg xmlns="http://www.w3.org/2000/svg" fill="none" viewBox="0 0 602 444"><path fill="#EBEBEB" d="M541.061 413.09H501.23v.301h39.831v-.301zM398.334 416.361h-10.451v.3h10.451v-.3zM500.028 401.929h-23.079v.301h23.079v-.301zM115.031 403.95H63.09v.301h51.941v-.301zM133.359 403.95h-7.613v.301h7.613v-.301zM270.771 409.025H158.109v.301h112.662v-.301zM285.023 340.102H52.82a6.866 6.866 0 0 1-6.867-6.867V6.807A6.867 6.867 0 0 1 52.82 0h232.203a6.868 6.868 0 0 1 6.867 6.867v326.368a6.866 6.866 0 0 1-6.867 6.867zM52.82.241a6.579 6.579 0 0 0-6.566 6.566v326.428a6.58 6.58 0 0 0 6.566 6.567h232.203a6.577 6.577 0 0 0 6.566-6.567V6.807A6.58 6.58 0 0 0 285.023.24H52.82zM545.162 340.102H312.935a6.878 6.878 0 0 1-6.867-6.867V6.807A6.881 6.881 0 0 1 312.935 0h232.227a6.866 6.866 0 0 1 6.843 6.807v326.428a6.866 6.866 0 0 1-6.843 6.867zM312.935.241a6.577 6.577 0 0 0-6.566 6.566v326.428a6.577 6.577 0 0 0 6.566 6.567h232.227a6.577 6.577 0 0 0 6.567-6.567V6.807A6.581 6.581 0 0 0 545.162.24H312.935zM601.313 393.74H0v.3h601.313v-.3z"/><path fill="#E0E0E0" d="M468.243 239.443v-9.97h10.547v-27.6h3.451v27.6h10.535v9.97h4.991v154.561h-34.503V239.443h4.979z"/><path fill="#EBEBEB" d="M372.129 252.636v141.368h48.394V263.375l-8.744-10.751-39.65.012zm36.163 101.381h8.238v8.238h-8.238v-8.238zm0-16.476h8.238v8.238h-8.238v-8.238zm0-32.964h8.238v8.238h-8.238v-8.238zm0-16.476h8.238v8.238h-8.238v-8.238zm0-16.476h8.238v8.238h-8.238v-8.238zm-16.488 65.916h8.25v8.238h-8.25v-8.238zm0-16.476h8.25v8.238h-8.25v-8.238zm0-16.488h8.25v8.238h-8.25v-8.238zm-16.476 49.44h8.238v8.238h-8.238v-8.238zm0-32.952h8.238v8.238h-8.238v-8.238zm0-16.488h8.238v8.238h-8.238v-8.238zm0-32.952h8.238v8.238h-8.238v-8.238zM154.381 394.004l14.852-.18-1.07-53.241-.217-12.339v-.745l-.192-10.992v-.722l-.168-10.439v-.685l-.181-9.958v-.649l-.156-9.501v-.613l-.168-9.056v-.601l-.145-8.671v-.565l-.132-7.529a5.274 5.274 0 0 1-1.203.698l.085 5.472-5.112-4.667a13.544 13.544 0 0 1-1.936-.228l6.206 5.676h-7.697v-6.073a4.59 4.59 0 0 1-1.203-.553l-.072 7.216v.553l-.084 8.683v.577l-.096 9.092v.601l-.084 9.513v.565l-.085 9.958v.685l-.108 10.463v.71l-.108 11.004v.745l-.168 12.375-.758 53.421zm2.345-65.387h8.875l-8.935 9.621.06-9.621zm.144-10.366l8.791 9.224h-8.851l.06-9.224zm-.108-13.097h8.418l-8.466 8.731.048-8.731zm.096-9.537l8.419 8.419h-8.419v-8.419zm.072-11.124h8.058l-8.106 7.925.048-7.925zm.073-8.815l7.985 7.648h-8.046l.061-7.648zm7.781-9.97l-7.745 7.216v-7.216h7.745zm1.142 8.875h-7.865l7.757-7.215.108 7.215zm.12 8.804l-7.973-7.613h7.865l.108 7.613zm.157 10.967h-8.214l8.117-7.937.097 7.937zm.132 9.501l-8.418-8.334h8.25l.168 8.334zm.156 12.026h-8.635l8.515-8.755.12 8.755zm.097 10.343l-8.792-9.188h8.671l.121 9.188zm.072 12.676h-9.116l8.947-9.705.169 9.705z"/><path fill="#EBEBEB" d="M155.993 258.228c.378.232.781.417 1.203.553v-.902l1.443 1.323c.638.132 1.286.213 1.936.24l-3.607-3.247-.421.385h-.602l.048 1.648zm9.621-1.6v1.997a4.455 4.455 0 0 0 1.203-.698v-1.299h-1.203z"/><path fill="#EBEBEB" d="M154.262 255.594a2.09 2.09 0 0 0 .625 1.768l.409.385a5.2 5.2 0 0 0 .697.481c.378.232.782.417 1.203.553a7.55 7.55 0 0 0 1.443.421c.638.132 1.286.213 1.936.24h.878a10.43 10.43 0 0 0 4.137-.842 4.452 4.452 0 0 0 1.203-.697l.096-.072.397-.373a1.995 1.995 0 0 0 .565-1.72l-.89-4.943h2.334l-8.142-4.076-8.419 3.86h2.406l-.878 5.015zM172.385 285.142v108.862h47.107V285.142h-47.107zm34.347 77.413h6.53v5.617h-6.53v-5.617zm0-40.889h6.53v5.616h-6.53v-5.616zm0-20.445h6.53v5.629h-6.53v-5.629zm-14.059 51.148h6.53v5.628h-6.53v-5.628zm0-20.445h6.53v5.629h-6.53v-5.629zm0-20.444h6.53v5.616h-6.53v-5.616zm0-20.445h6.53v5.616h-6.53v-5.616zm-14.059 71.605h6.591v5.616h-6.53l-.061-5.616zm0-10.235h6.591v5.628h-6.53l-.061-5.628zm0-30.679h6.591v5.616h-6.53l-.061-5.616zm0-10.234h6.591v5.616h-6.53l-.061-5.616z"/><path fill="#F5F5F5" d="M319.934 394.004h-46.903v-82.608l46.903-17.751v100.359z"/><path fill="#fff" d="M299.935 310.782h-6.915v6.916h6.915v-6.916zM314.823 310.782h-6.915v6.916h6.915v-6.916zM285.058 323.374h-6.915v6.915h6.915v-6.915zM299.935 335.953h-6.915v6.915h6.915v-6.915zM314.823 335.953h-6.915v6.915h6.915v-6.915zM285.058 348.545h-6.915v6.915h6.915v-6.915zM293.032 370.865h6.915v-6.915h-6.915v6.915zM278.132 370.865h6.915v-6.915h-6.915v6.915zM307.909 383.445h6.915v-6.915h-6.915v6.915z"/><path fill="#EBEBEB" d="M106.914 260.044v-22.922h5.484v-25.58h4.618v-11.557l9.272-13.698 9.284 13.698v11.557h4.606v25.58h5.496v22.922h5.556v133.96h-49.873v-133.96h5.557z"/><path fill="#FEFEFE" d="M122.823 274.102h6.915v-6.915h-6.915v6.915zM107.948 274.102h6.915v-6.915h-6.915v6.915zM137.726 299.273h6.915v-6.915h-6.915v6.915zM107.948 299.273h6.915v-6.915h-6.915v6.915zM122.823 311.865h6.915v-6.915h-6.915v6.915zM137.726 324.444h6.915v-6.915h-6.915v6.915zM122.823 324.444h6.915v-6.915h-6.915v6.915zM107.948 337.048h6.915v-6.915h-6.915v6.915zM137.726 349.627h6.915v-6.915h-6.915v6.915zM122.823 362.207h6.915v-6.916h-6.915v6.916zM107.948 362.207h6.915v-6.916h-6.915v6.916z"/><path fill="#E6E6E6" d="M60.047 270.675v123.329h41.142V250.988l-41.142 19.687zm14.84 84.905h-7.684v-7.672h7.684v7.672zm0-41.899h-7.684v-7.673h7.684v7.673zm0-27.937h-7.684v-7.673h7.684v7.673zM91.4 383.517h-7.672v-7.672h7.672v7.672zm0-41.899h-7.672v-7.673h7.672v7.673zm0-13.975h-7.672v-7.672h7.672v7.672zm0-27.925h-7.672v-7.684h7.672v7.684z"/><path fill="#F0F0F0" d="M487.977 303.062l.204 90.906h51.545l.252-90.906h-10.042v-11.558H498.03v11.558h-10.053zm10.017 8.707h-6.734v-6.014h6.734v6.014zm-6.578 21.863v-5.784h6.47v5.784h-6.47zm6.41 4.895v5.64h-6.278v-5.64h6.278zm-6.506-15.634v-5.929h6.566v5.929h-6.566zm19.567-25.953v6.122h-6.867v-6.182l6.867.06zm0 8.815v6.014h-6.735v-6.014h6.735zm-6.603 27.937v-5.784h6.434v5.784h-6.434zm6.398 4.895v5.64h-6.29v-5.64h6.29zm-6.482-15.634v-5.929h6.59v5.929h-6.59zM523.791 297v6.062h-6.867v-6.182l6.867.12zm0 8.816v6.013h-6.663v-6.013h6.663zm-6.651 27.937v-5.785h6.434v5.785h-6.434zm.108 4.894h6.29v5.641h-6.29v-5.641zm-.18-15.634v-5.929h6.578v5.929h-6.578zm19.639-11.064h-6.735v-6.013h6.747l-.012 6.013zm-6.675 21.864v-5.785h6.434v5.785h-6.434zm.109 4.894h6.277v5.641h-6.277v-5.641zm-.157-15.634v-5.929h6.591v5.929h-6.591zm6.651 43.187h-6.843v-6.134h6.855l-.012 6.134zm-6.747 21.503v-5.821h6.518v5.821h-6.518zm-.132-10.247v-6.013h6.674v6.013h-6.674zm-.145-21.262v-6.278h7.012v6.278h-7.012zm-5.82 10.006h-6.843v-6.134h6.843v6.134zm-6.867 11.256v-6.013h6.674v6.013h-6.674zm-.169-21.262v-6.278h7.012v6.278h-7.012zm-12.663 15.297h6.674v6.013h-6.674v-6.013zm0-11.425h6.843v6.134h-6.843v-6.134zm-.205-10.15h7.012v6.278h-7l-.012-6.278zm-12.471 31.966h6.518v5.821h-6.506l-.012-5.821zm-.168-10.391h6.674v6.013h-6.674v-6.013zm0-11.425h6.855v6.134h-6.843l-.012-6.134zm-.205-10.15h7.012v6.278h-7l-.012-6.278z"/><path fill="#F5F5F5" d="M523.707 381.738h-19.459l.036 1.455h.541l.012 10.811h1.949l-.012-10.811h14.431l-.012 10.811h1.948l.012-10.811h.59l-.036-1.455z"/><path fill="#E6E6E6" d="M514.075 394.004h-7.204v-10.811h7.216l-.012 10.811z"/><path fill="#EBEBEB" d="M521.11 394.004h-7.204v-10.811h7.216l-.012 10.811z"/><path fill="#F0F0F0" d="M421.857 303.062l.217 90.906h51.532l.289-90.906h-10.042v-11.558h-31.93v11.558h-10.066zm10.018 8.707h-6.734v-6.014h6.746l-.012 6.014zm-6.566 21.863v-5.784h6.434v5.784h-6.434zm6.398 4.895v5.64h-6.29v-5.64h6.29zm-6.494-15.634v-5.929h6.53v5.929h-6.53zm19.554-25.953v6.122H437.9v-6.182l6.867.06zm0 8.815v6.014h-6.746v-6.014h6.746zm-6.614 27.937v-5.784h6.434v5.784h-6.434zm6.398 4.895v5.64h-6.278v-5.64h6.278zm-6.482-15.634v-5.929h6.59v5.929h-6.59zM457.672 297v6.062h-6.867v-6.182l6.867.12zm0 8.816v6.013h-6.687v-6.013h6.687zm-6.651 27.937v-5.785h6.434v5.785h-6.434zm.108 4.894h6.29v5.641h-6.278l-.012-5.641zm-.168-15.634v-5.929h6.59v5.929h-6.59zm19.639-11.064h-6.747v-6.013h6.747v6.013zm-6.687 21.864v-5.785h6.434v5.785h-6.434zm.108 4.894h6.29v5.641h-6.29v-5.641zm-.156-15.634v-5.929h6.591v5.929h-6.591zm6.663 43.187h-6.843v-6.134h6.843v6.134zm-6.759 21.503v-5.821h6.518v5.821h-6.518zm-.132-10.247v-6.013h6.674v6.013h-6.674zm-.145-21.262v-6.278h7.012v6.278h-7.012zm-5.82 10.006h-6.843v-6.134h6.855l-.012 6.134zm-6.867 11.256v-6.013h6.674v6.013h-6.674zm-.169-21.262v-6.278h7.012v6.278h-7.012zm-12.663 15.297h6.674v6.013h-6.674v-6.013zm0-11.425h6.843v6.134h-6.843v-6.134zm-.193-10.15h7.011v6.278h-6.999l-.012-6.278zm-12.411 31.761h6.518v5.821h-6.518v-5.821zm-.156-10.39h6.674v6.013h-6.674v-6.013zm0-11.425h6.855v6.133h-6.831l-.024-6.133zm-.193-10.15h7.012v6.277h-7l-.012-6.277z"/><path fill="#F5F5F5" d="M457.587 381.738h-19.446l.036 1.455h.541v10.811h1.948v-10.811h14.432l-.012 10.811h1.936l.024-10.811h.577l-.036-1.455z"/><path fill="#E6E6E6" d="M447.966 394.004h-7.204l-.012-10.811h7.216v10.811z"/><path fill="#EBEBEB" d="M454.989 394.004h-7.204v-10.811h7.228l-.024 10.811z"/><path fill="#F0F0F0" d="M361.161 141.91l45.615-2.658a8.28 8.28 0 0 1 4.618 1.094c15.069 13.061 31.329 4.342 38.484-.805a17.794 17.794 0 0 1 9.296-3.344l50.811-2.958c19.062-1.106 22.117-28.069 3.741-33.289l-.71-.192c18.953-17.75-26.794-50.198-71.436 1.01 2.754-16.368-39.097-8.07-50.715 14.72-5.435-14.167-44.208 13.313-29.704 26.422zM179.035 156.257l-24.702-.481-2.057.878a40.574 40.574 0 0 1-35.02-1.587l-20.673-.397s-19.242-7.661-16.32-26.891c2.922-19.23 31.749-2.61 31.749-2.61s-8.322-27.083 19.796-18.905c28.117 8.178 30.366 34.876 30.366 34.876s37.245-5.736 16.861 15.117zM263.675 173.719h67.527c8.659 0 10.74-12.11 2.574-14.96l-.313-.097c9.032-7.54-10.823-23.415-32.338-1.431 1.683-7.324-17.462-4.678-23.319 5.316-2.081-6.566-20.349 4.846-14.131 11.172z"/><path fill="#F5F5F5" d="M294.861 443.42c128.78 0 233.177-6.095 233.177-13.614 0-7.519-104.397-13.614-233.177-13.614-128.781 0-233.177 6.095-233.177 13.614 0 7.519 104.396 13.614 233.177 13.614z"/><path fill="#5FBE3F" d="M459.847 436.084a3281.878 3281.878 0 0 1-33.204 1.66c-4.674.2-9.361.393-14.059.577a2949.222 2949.222 0 0 1-134.201 2.237c-48.618-.297-97.228-1.8-145.83-4.51a164.628 164.628 0 0 1 327.294 0v.036z"/><path fill="#000" d="M459.847 436.084a3281.878 3281.878 0 0 1-33.204 1.66c-4.674.2-9.361.393-14.059.577a2949.222 2949.222 0 0 1-134.201 2.237c-48.618-.297-97.228-1.8-145.83-4.51a164.628 164.628 0 0 1 327.294 0v.036z" opacity=".3"/><path fill="#fff" d="M212.335 356.951c-1.9-1.443-11.016 1.672-11.04-1.034 0-1.804 6.133-6.843 7.288-9.092 1.696-3.331.818-7.985 2.405-11.112.866-1.72 3.223-5.701 5.159-7.336 9.261-7.817 23.379-16.296 35.141-16.837 4.233-.204 10.042 7.06 10.992 12.724.565 3.367 0 13.361-2.97 16.837-4.486 5.279-14.312 5.339-19.531 9.452-6.085 4.811-9.032 16.043-16.031 19.808-1.948 1.046-5.652-1.011-6.915-2.081-2.333-1.996-2.297-9.681-4.498-11.329zM303.386 375.748c1.985-.204 6.362-1.274 7.565-3.054 1.948-2.875 2.682-11.534.649-13.975-.854-1.022-4.052-.806-5.147.084-1.419 1.203-1.034 6.146-2.405 7.384-1.371 1.239-5.412-.517-6.639.878-1.226 1.395-1.563 5.941-.613 7.336.95 1.395 4.871 1.516 6.59 1.347z" opacity=".7"/><path fill="#fff" d="M459.848 436.084a3311.338 3311.338 0 0 1-33.204 1.66c-.421-2.009-.854-4.174-1.997-4.895-2.826-1.828-12.531-1.924-13.229.565a6.12 6.12 0 0 0 1.119 4.907 2949.222 2949.222 0 0 1-134.201 2.237l.072-.121c6.013-9.921 18.99-20.059 29.705-23.583 6.013-1.996 14.816-2.513 20.324.685 2.105 1.203 2.514 7.745 4.402 9.621 2.718 2.634 10.258 5.677 13.974 5.905 7.793.481 18.401-.697 24.053-5.76 1.66-1.467 2.574-7.108 1.84-9.477-1.046-3.379-6.482-9.549-9.862-10.342-2.862-.698-7.793 5.087-10.631 4.293-4.005-1.131-6.422-12.363-10.378-13.313a4.973 4.973 0 0 0-4.21 2.189c-1.202 3.066 5.725 9.476 4.51 12.531-.962 2.405-7.444 6.181-9.368 4.39-1.576-1.456 3.211-6.014 2.826-8.094-.517-2.826-4.474-8.418-7.216-8.851-2.056-.349-5.123 3.92-7.155 4.425-2.622.662-8.491-2.309-10.716-.685-1.684 1.202-.673 6.819-2.333 8.105-2.333 1.792-9.404 1.937-11.569.073-2.874-2.478-4.727-12.315-2.165-15.37 1.936-2.273 9.741 2.405 11.305-.132 1.106-1.756-3.392-5.256-3.187-7.312.228-2.405 3.355-6.687 5.207-8.142 2.514-1.984 9.862-1.203 11.714-3.776 1.671-2.405-1.804-9.85.228-11.786 1.672-1.587 6.987-.216 8.563 1.455 1.575 1.672.06 9.369 2.068 10.319 5.484 2.549 16.056-2.406 18.605-7.216 2.405-4.462 1.419-14.708-2.501-18.4-1.311-1.203-5.593 1.275-6.795 2.826-1.203 1.551-.313 6.206-1.636 7.336-1.9 1.636-7.661 1.371-9.765 0-2.105-1.371-4.426-6.951-4.45-9.621a33.814 33.814 0 0 1 5.508-17.679c2.478-3.716 10.415-8.755 13.939-8.622 7.071.276 14.287 7.48 21.238 9.621 1.407.433 4.402.24 5.869.336 4.101.253 12.182-1.743 16.416 1.203 1.022.697 1.924 3.908 2.982 4.462 3.428 1.828 10.247-.229 11.1-3.127.349-1.203-2.405-5.051-2.309-6.398a7.854 7.854 0 0 1 2.971-4.979 164.306 164.306 0 0 1 58.339 108.537zM137.7 424.394c.89.385 3.475.53 4.365-.18 2.105-1.636.265-6.999 1.997-8.851 7.336-7.89 22.14-7.336 29.031-15.851 1.924-2.405-1.022-8.563 1.587-10.367 8.226-5.676 21.311 6.206 28.515.999 4.245-3.079 8.045-13.698 6.013-18.509-.361-.89-4.979 1.263-5.917.589-1.876-1.346 1.203-9.681-.457-10.258-4.907-1.672-13.097 2.67-18.244 5.484-1.419.782-3.92 3.921-5.303 4.366-2.935.926-8.695-1.083-7.144-3.199 3.427-4.691 12.327-5.929 17.234-9.706 4.305-3.331 11.894-10.246 11.797-13.806-.12-4.81-20.673.614-25.808 3.199-3.031 1.528-9.621 7.841-12.7 9.345a163.861 163.861 0 0 0-27.66 62.392c.818 1.768 1.419 3.812 2.694 4.353z" opacity=".7"/><path fill="#263238" d="M228.006 224.518a40.557 40.557 0 0 1 38.182 23.928 40.56 40.56 0 0 1-7.496 44.432 40.558 40.558 0 0 1-20.431 11.701 40.558 40.558 0 0 1-42.116-16.021 40.559 40.559 0 0 1-7.489-22.321 40.563 40.563 0 0 1 39.35-41.719zm-.168-5.821a46.37 46.37 0 0 0-30.487 80.079 46.37 46.37 0 0 0 71.115-9.086 46.374 46.374 0 0 0 7.068-25.978 46.388 46.388 0 0 0-47.708-45.003l.012-.012z"/><path fill="#5FBE3F" d="M229.16 308.016a42.956 42.956 0 0 1-31.143-72.763 42.958 42.958 0 0 1 29.94-13.14 42.957 42.957 0 0 1 32.498 72.418 42.951 42.951 0 0 1-29.997 13.461l-1.298.024zm-1.083-81.093a38.26 38.26 0 0 0-37.017 39.242 38.15 38.15 0 0 0 65.881 25.066 38.148 38.148 0 0 0-28.864-64.308z"/><path fill="#263238" d="M367.245 220.465a40.555 40.555 0 0 1 41.186 47.278 40.555 40.555 0 0 1-30.921 32.783 40.548 40.548 0 0 1-42.118-16.028 40.555 40.555 0 0 1-7.485-22.326 40.578 40.578 0 0 1 39.35-41.707h-.012zm-.156-5.82a46.375 46.375 0 0 0-30.466 80.087 46.375 46.375 0 0 0 71.113-9.105 46.374 46.374 0 0 0-40.647-70.982zM228.98 257.903a7.157 7.157 0 0 1 5.42 12.061 7.158 7.158 0 0 1-11.038-.761 7.153 7.153 0 0 1-1.321-3.94 7.21 7.21 0 0 1 1.964-5.099 7.211 7.211 0 0 1 4.975-2.261z"/><path fill="#263238" d="M368.004 245.877a15.132 15.132 0 0 0-13.701 9.744 15.126 15.126 0 0 0 11.628 20.297 15.124 15.124 0 0 0 15.336-6.891 15.128 15.128 0 0 0-13.263-23.15zm.721 24.738a9.618 9.618 0 0 1-9.758-11.219 9.62 9.62 0 0 1 19.103 1.309 9.631 9.631 0 0 1-2.63 6.882 9.615 9.615 0 0 1-6.727 3.004l.012.024z"/><path fill="#fff" d="M368.004 245.877a15.132 15.132 0 0 0-13.701 9.744 15.126 15.126 0 0 0 11.628 20.297 15.124 15.124 0 0 0 15.336-6.891 15.128 15.128 0 0 0-13.263-23.15zm.721 24.738a9.618 9.618 0 0 1-9.758-11.219 9.62 9.62 0 0 1 19.103 1.309 9.631 9.631 0 0 1-2.63 6.882 9.615 9.615 0 0 1-6.727 3.004l.012.024z" opacity=".5"/><path fill="#263238" d="M228.739 249.93a15.13 15.13 0 1 0 15.562 14.648 15.138 15.138 0 0 0-15.562-14.648zm.71 24.75a9.622 9.622 0 0 1-2.428-18.994 9.622 9.622 0 1 1 2.428 18.994z"/><path fill="#fff" d="M228.739 249.93a15.13 15.13 0 1 0 15.562 14.648 15.138 15.138 0 0 0-15.562-14.648zm.71 24.75a9.622 9.622 0 0 1-2.428-18.994 9.622 9.622 0 1 1 2.428 18.994z" opacity=".5"/><path fill="#5FBE3F" d="M225.564 261.186a4.994 4.994 0 0 1 1.335-.216h.156l63.571-6.843a8.62 8.62 0 0 1 8.876 7.11 8.621 8.621 0 0 1-5.894 9.727 8.501 8.501 0 0 1-2.056.372l-64.256-.469h-.073a4.976 4.976 0 0 1-4.393-7.559 4.983 4.983 0 0 1 2.734-2.158v.036zm-.65-2.333a7.22 7.22 0 0 0-2.231 12.305 7.224 7.224 0 0 0 4.637 1.706l64.34.409a10.587 10.587 0 0 0 2.658-.481 10.83 10.83 0 0 0 7.22-12.204 10.826 10.826 0 0 0-11.056-8.878l-63.667 6.855a6.95 6.95 0 0 0-1.925.312l.024-.024z"/><path fill="#263238" d="M291.48 268.715h-.313a2.205 2.205 0 0 1-1.744-1.263l-22.73-71.268a2.187 2.187 0 0 1-.056-1.667 2.187 2.187 0 0 1 1.139-1.219 2.191 2.191 0 0 1 1.667-.056 2.161 2.161 0 0 1 1.219 1.139l21.226 67.936 57.221-61.334a2.19 2.19 0 0 1 3.452 2.67l-59.398 64.22a2.144 2.144 0 0 1-1.683.842z"/><path fill="#263238" d="M229.233 266.514a1.47 1.47 0 0 1-1.503-1.419 1.391 1.391 0 0 1 .12-.626l49.151-37.522a1.459 1.459 0 0 1 2.73 1.023v.144l-49.151 37.522a1.458 1.458 0 0 1-1.347.878z"/><path fill="#5FBE3F" d="M268.33 174.477s-2.129 19.158-.565 18.833c1.563-.325 40.107-2.093 40.107-2.093l-15.273 38.22 9.116 1.034s27.66-40.889 25.532-50.198c-2.129-9.308-58.917-5.796-58.917-5.796z"/><path fill="#000" d="M268.33 174.477s-2.129 19.158-.565 18.833c1.563-.325 40.107-2.093 40.107-2.093l-15.273 38.22 9.116 1.034s27.66-40.889 25.532-50.198c-2.129-9.308-58.917-5.796-58.917-5.796z" opacity=".3"/><path fill="#000" d="M272.744 185.589l3.608 7.216c6.59-.289 20.144-1.046 20.144-1.046-5.364-4.149-18.689-7.228-23.752-6.17z" opacity=".2"/><path fill="#FF8B7B" d="M288.955 242.822l6.819-.698 4.943-12.856-6.338-.481-5.424 14.035z"/><path fill="#000" d="M300.716 229.28l-2.393 6.23-6.507-.096 2.55-6.627 6.35.493z" opacity=".2"/><path fill="#5FBE3F" d="M303.411 232.383l-12.556-.469.145-4.053 13.337.289-.926 4.233zM295.186 240.393l-6.807.072a.55.55 0 0 0-.529.433l-1.203 5.544a.898.898 0 0 0 .122.683.892.892 0 0 0 .576.387h.18c2.405-.072 6.013-.24 9.08-.264 3.608 0 4.81.18 8.971.144 2.562 0 3.247-2.622 2.165-2.85-4.81-1.01-6.879-1.143-11.112-3.692a2.952 2.952 0 0 0-1.443-.457z"/><path fill="#5FBE3F" d="M299.634 241.559a9.248 9.248 0 0 1-1.636-.144.171.171 0 0 1-.12-.12.12.12 0 0 1 .06-.133c.217-.144 2.189-1.383 2.886-1.082a.454.454 0 0 1 .265.385.837.837 0 0 1-.277.746 1.969 1.969 0 0 1-1.178.348zm-1.203-.36a3.13 3.13 0 0 0 2.189-.193.59.59 0 0 0 .18-.517.162.162 0 0 0-.03-.095.162.162 0 0 0-.078-.061c-.337-.157-1.455.384-2.261.841v.025z"/><path fill="#5FBE3F" d="M298.022 241.403h-.096a.187.187 0 0 1 0-.132c0-.072.084-1.768.782-2.345a.756.756 0 0 1 .613-.205.48.48 0 0 1 .493.337c.156.685-1.034 1.984-1.672 2.405l-.12-.06zm1.203-2.405a.6.6 0 0 0-.337.144 3.212 3.212 0 0 0-.674 1.864c.614-.481 1.407-1.491 1.287-1.864 0 0 0-.12-.228-.132l-.048-.012zM368.4 303.952a42.96 42.96 0 0 1-30.864-72.61 42.955 42.955 0 0 1 29.661-13.282 42.958 42.958 0 0 1 2.514 85.88l-1.311.012zm-1.083-81.093a38.265 38.265 0 0 0-37.016 39.313 38.154 38.154 0 0 0 46.673 36.095 38.153 38.153 0 0 0 29.098-30.847 38.164 38.164 0 0 0-17.371-38.685 38.158 38.158 0 0 0-21.384-5.804v-.072z"/><path fill="#263238" d="M346.115 194.982l-68.128 30.258a2.192 2.192 0 1 1-.529-4.354l67.587-29.44 1.07 3.536zM290.17 297.301l-12.844.373a1.457 1.457 0 0 1-.084-2.91l12.844-.373a1.456 1.456 0 1 1 .084 2.91z"/><path fill="#263238" d="M284.47 296.435a1.432 1.432 0 0 1-1.455-1.804l11.509-46.758a1.457 1.457 0 0 1 1.727-.941 1.458 1.458 0 0 1 1.087 1.639l-11.509 46.734a1.44 1.44 0 0 1-1.359 1.13z"/><path fill="#263238" d="M301.053 257.362l-12.856.372a1.451 1.451 0 0 1-1.497-1.413 1.456 1.456 0 0 1 1.413-1.497l12.856-.373a1.457 1.457 0 0 1 .084 2.911zM302.268 249.809l-12.844.373a1.445 1.445 0 0 1-1.042-.396 1.47 1.47 0 0 1-.456-1.017 1.468 1.468 0 0 1 .397-1.041 1.444 1.444 0 0 1 1.016-.456l12.845-.373a1.457 1.457 0 0 1 1.497 1.413 1.455 1.455 0 0 1-1.413 1.497zM369.037 263.062a2.09 2.09 0 0 1-.541.121 2.192 2.192 0 0 1-2.165-1.588l-9.416-31.268-10.631-35.381-.169.072-1.07-3.536 2.562-1.118c.326-.038.657-.002.967.107.311.108.592.285.824.518.272.259.467.588.566.95l20.565 68.465a2.166 2.166 0 0 1-1.492 2.658z"/><path fill="#263238" d="M347.559 190.327l-2.561 1.119-2.574-8.418a2.188 2.188 0 0 1 3.981-1.804l2.946 9.705a2.178 2.178 0 0 0-1.792-.602zM290.578 262.365l-59.999 1.359a1.404 1.404 0 0 0-1.383 1.455 1.419 1.419 0 0 0 1.371 1.383l60.913 2.153-.902-6.35z"/><path fill="#5FBE3F" d="M344.793 191.855l4.751 15.165a.735.735 0 0 0 .366.442.749.749 0 0 0 .572.051l3.668-1.203a.724.724 0 0 0 .434-.362.749.749 0 0 0 .047-.564l-4.666-15.285a.762.762 0 0 0-.141-.265.734.734 0 0 0-.821-.216l-3.741 1.311a.746.746 0 0 0-.469.926zM343.266 185.709l-2.85-9.38 6.843-2.454 1.118 4.234-.986 6.277-4.125 1.323z"/><path fill="#5FBE3F" d="M333.788 180.394a3.013 3.013 0 0 1-.361-6.013l18.942-2.273a3.026 3.026 0 0 1 3.367 2.646 3.026 3.026 0 0 1-2.646 3.367l-18.929 2.273a1.937 1.937 0 0 1-.373 0z"/><path fill="#263238" d="M248.943 190.015a1.05 1.05 0 0 0-.98.762 1.042 1.042 0 0 0 .438 1.162c3.608 2.297 9.621 6.145 11.87 7.781a2.098 2.098 0 0 0 2.117.192l.986-.481a50.742 50.742 0 0 1 20.625-5.039l3.055-.084a2.066 2.066 0 0 0 1.999-2.556 2.064 2.064 0 0 0-.628-1.052l-1.203-1.202a2.075 2.075 0 0 0-1.491-.578l-36.788 1.095z"/><path fill="#5FBE3F" d="M290.134 256.304a7.212 7.212 0 0 1 7.38 8.401 7.221 7.221 0 0 1-5.522 5.847 7.22 7.22 0 0 1-8.809-6.888 7.214 7.214 0 0 1 6.951-7.36zm-.108-3.608a10.827 10.827 0 0 0-9.819 6.962 10.819 10.819 0 0 0 2.688 11.733 10.83 10.83 0 0 0 11.872 1.992 10.823 10.823 0 0 0 6.371-10.213 10.821 10.821 0 0 0-11.1-10.486l-.012.012z"/><path fill="#FF8B7B" d="M275.966 290.037l6.206-.649-.361-13.626-6.206.649.361 13.626z"/><path fill="#5FBE3F" d="M283.147 288.029l-7.589.288a.54.54 0 0 0-.505.421l-1.022 5.28a.887.887 0 0 0 .165.654.867.867 0 0 0 .581.344h.204c2.405-.132 4.221-.337 7.216-.457 1.888 0 7.588-.108 10.186-.216 2.598-.109 2.838-2.538 1.768-2.73-4.811-.794-8.503-2.021-10.09-3.259a1.54 1.54 0 0 0-.914-.325z"/><path fill="#000" d="M275.605 276.423l6.206-.649.18 7.011-6.205.65-.181-7.012z" opacity=".2"/><path fill="#5FBE3F" d="M268.823 173.346s16.548 35.117 15.886 52.327c-.709 18.857-.132 54.118-.132 54.118l-10.764 1.118s-5.303-33.565-4.81-51.941c.589-20.914-29.801-44.076-21.262-59.398 10.294 1.708 21.082 3.776 21.082 3.776z"/><path fill="#000" d="M268.823 173.346s16.548 35.117 15.886 52.327c-.709 18.857-.132 54.118-.132 54.118l-10.764 1.118s-5.303-33.565-4.81-51.941c.589-20.914-29.801-44.076-21.262-59.398 10.294 1.708 21.082 3.776 21.082 3.776z" opacity=".3"/><path fill="#5FBE3F" d="M285.527 280.897l-13.325 1.636-.493-3.752 14.275-1.997-.457 4.113zM285.251 288.979a9.351 9.351 0 0 1-1.636-.144.171.171 0 0 1-.12-.121.118.118 0 0 1 .008-.076.123.123 0 0 1 .052-.056c.217-.144 2.189-1.383 2.887-1.082a.458.458 0 0 1 .264.385.838.838 0 0 1-.276.745 1.975 1.975 0 0 1-1.179.349zm-1.203-.361a3.125 3.125 0 0 0 2.189-.192.592.592 0 0 0 .181-.517.178.178 0 0 0-.03-.095.172.172 0 0 0-.079-.062c-.336-.156-1.455.385-2.261.842v.024z"/><path fill="#5FBE3F" d="M283.639 288.835h-.096a.193.193 0 0 1-.061-.133c0-.072.085-1.768.782-2.345a.766.766 0 0 1 .613-.204.48.48 0 0 1 .494.336c.156.686-1.035 1.985-1.672 2.346h-.06zm1.202-2.406a.6.6 0 0 0-.336.145 3.203 3.203 0 0 0-.674 1.864c.614-.481 1.407-1.492 1.287-1.864 0 0 0-.121-.229-.133l-.048-.012z"/><path fill="#263238" d="M273.213 121.646l16.284 2.405c9.128 1.359 18.568-3.319 26.458-8.166l3.788 3.957s-16.681 12.29-24.931 12.327c-4.678 0-12.026-1.203-17.474-2.322a5.824 5.824 0 0 1-4.125-8.201z"/><path fill="#FF8B7B" d="M325.611 108.693c-.457 2.658-.902 5.316-1.359 7.986-1.516.962-2.826 2.261-4.342 3.235a12.794 12.794 0 0 1-4.053-3.764c.277-1.203.782-2.406 1.059-3.668.469-2.057 2.982-3.404 4.365-4.991 1.251.288 3.091.914 4.33 1.202z"/><path fill="#5FBE3F" d="M276.676 134.225l12.194-.325 1.684-11.34s-6.783-1.335-13.145-2.622c-.264 3.68-.469 10.595-.733 14.287z"/><path fill="#000" d="M276.676 134.225l12.194-.325 1.684-11.34s-6.783-1.335-13.145-2.622c-.264 3.68-.469 10.595-.733 14.287z" opacity=".1"/><path fill="#000" d="M288.87 133.9l-11.365-2.104-.06 2.441 11.425-.337z" opacity=".2"/><path fill="#5FBE3F" d="M248.343 125.915c2.405 21.334-.421 35.802-2.189 48.947 4.342 1.022 12.88 1.395 20.758 1.094a86.12 86.12 0 0 0 12.928-1.912c-.806-12.628 1.142-37.883 2.032-48.406a5.371 5.371 0 0 0-4.473-5.772h-.097a71.601 71.601 0 0 0-2.886-.397 53.869 53.869 0 0 0-1.72-.157 121.102 121.102 0 0 0-14.167.241c-.89 0-1.792.132-2.67.228a86.15 86.15 0 0 0-2.405.301l-1.046.156a4.919 4.919 0 0 0-4.113 5.629l.048.048z"/><path fill="#5FBE3F" d="M253.755 133.72c.132 2.922-2.165 8.972-4.306 12.784.145-3.608.157-7.529-.084-11.485l4.39-1.299z"/><path fill="#000" d="M253.755 133.72c.132 2.922-2.165 8.972-4.306 12.784.145-3.608.157-7.529-.084-11.485l4.39-1.299z" opacity=".2"/><path fill="#FF8B7B" d="M259.695 103.582c.962 4.546 1.997 12.868-1.142 15.971 2.513 2.405 5.808 5.208 11.22 5.304 5.412.096 4.39-3.608 2.947-5.544-5.111-1.131-5.039-4.895-4.21-8.419l-8.815-7.312z"/><path fill="#000" d="M263.28 106.529l5.207 4.305a13.511 13.511 0 0 0-.385 2.513 6.943 6.943 0 0 1-5.207-3.908c-.493-1.335-.108-2.73.385-2.91z" opacity=".2"/><path fill="#FF8B7B" d="M255.655 98.615c1.912 5.881 2.73 9.417 6.53 11.702 5.737 3.427 12.4-1.203 12.279-7.565-.108-5.7-3.211-14.347-9.621-15.225a8.415 8.415 0 0 0-7.68 2.98 8.42 8.42 0 0 0-1.46 8.108h-.048z"/><path fill="#263238" d="M259.622 100.094a22.75 22.75 0 0 0 1.552 3.404 11.177 11.177 0 0 0-3.837-.481c-.451.048-.905.072-1.359.072a1.85 1.85 0 0 1-1.202-.481 1.582 1.582 0 0 1-.349-1.588 2.523 2.523 0 0 1 1.034-1.334 3.066 3.066 0 0 1 1.78-.542c.601.024 2.165.361 2.381.95z"/><path fill="#263238" d="M258.385 94.141s.745 3.151 1.756 6.014c-.746-.073-3.909 1.647-3.765 2.597.337 2.153 2.406 3.861 4.33 4.883 0 .673-.096 2.61-.096 2.61-1.203.878-2.682 1.202-3.909 2.068a6.755 6.755 0 0 1-2.08 1.131 2.262 2.262 0 0 1-2.201-.469 1.429 1.429 0 0 1-.407-1.062 1.43 1.43 0 0 1 .503-1.019 2.945 2.945 0 0 1-3.247-1.744 3.093 3.093 0 0 1 1.203-3.608 1.826 1.826 0 0 1-2.406-.541 2.797 2.797 0 0 1-.096-2.597 5.892 5.892 0 0 1 1.708-2.069 1.085 1.085 0 0 1-1.491-.289 2.218 2.218 0 0 1-.277-1.6 6.23 6.23 0 0 1 2.405-4.112c5.015-3.824 14.432-11.545 18.701-4.943l-.974-.265c-2.477.542-1.106 1.311-2.502 1.504a12.65 12.65 0 0 0-7.155 3.511z"/><path fill="#FF8B7B" d="M254.752 105.326a5.8 5.8 0 0 0 1.933 1.218 5.808 5.808 0 0 0 2.252.381c2.069-.072 2.466-2.068 1.371-3.68-1.094-1.611-3.247-3.175-5.051-2.309a2.618 2.618 0 0 0-1.455 2.057 2.626 2.626 0 0 0 .95 2.333z"/><path fill="#263238" d="M265.144 97.894c.156.469.493.805.805.721.313-.084.469-.541.349-1.022s-.481-.818-.806-.734c-.324.085-.469.554-.348 1.035zM270.591 96.463c.144.48.481.817.806.733.324-.084.481-.54.349-1.034-.133-.493-.482-.806-.806-.722-.325.085-.421.542-.349 1.023z"/><path fill="#FF5652" d="M268.967 97.172a17.586 17.586 0 0 0 3.367 3.608 2.875 2.875 0 0 1-2.201 1.034l-1.166-4.642z"/><path fill="#263238" d="M268.426 103.582a4.127 4.127 0 0 1-3.151-.878.147.147 0 0 1-.032-.046.146.146 0 0 1 .032-.158.137.137 0 0 1 .046-.036.139.139 0 0 1 .113 0 .143.143 0 0 1 .045.036 4.015 4.015 0 0 0 3.536.685.167.167 0 0 1 .18.109.155.155 0 0 1-.108.18c-.217.054-.438.09-.661.108zM262.99 96.547h-.145a.302.302 0 0 1-.156-.385 2.91 2.91 0 0 1 2.02-1.792.301.301 0 0 1 .337.24.3.3 0 0 1-.228.349 2.276 2.276 0 0 0-1.588 1.42.287.287 0 0 1-.24.168zM272.527 93.961a.325.325 0 0 1-.265-.096 2.33 2.33 0 0 0-1.936-.878.298.298 0 0 1-.337-.126.29.29 0 0 1-.035-.247.3.3 0 0 1 .288-.216 2.898 2.898 0 0 1 2.405 1.082.279.279 0 0 1 .085.205.28.28 0 0 1-.085.204.216.216 0 0 1-.12.072zM254.319 123.137l-17.678 5.147c-9.886 2.874-21.046-.878-30.463-5.075l-3.608 4.955s20.24 11.088 29.392 9.873c5.196-.685 13.121-3.175 19.002-5.195a6.509 6.509 0 0 0 3.343-9.705h.012z"/><path fill="#FF8B7B" d="M194.344 116.655l2.706 8.647c1.828.841 3.463 2.08 5.291 2.922a14.212 14.212 0 0 0 3.933-4.811c-.505-1.335-1.203-2.573-1.732-3.908-.83-2.201-3.812-3.319-5.592-4.811-1.335.517-3.271 1.48-4.606 1.961z"/><path fill="#5FBE3F" d="M251.24 120.467c-7.433 2.73-7.397 3.259-15.178 4.714l6.398 14.564s5.857-.469 9.766-3.944c2.886-2.562 5.063-6.014 4.125-11.101-.445-2.393-2.826-5.075-5.111-4.233z"/><path fill="#fff" d="M251.24 120.467c-7.433 2.73-7.397 3.259-15.178 4.714l6.398 14.564s5.857-.469 9.766-3.944c2.886-2.562 5.063-6.014 4.125-11.101-.445-2.393-2.826-5.075-5.111-4.233z" opacity=".1"/></svg>