<svg xmlns="http://www.w3.org/2000/svg" fill="none" viewBox="0 0 106 32"><path fill="#000" d="M.076 8.009h5.322v6.03h5.815v-6.03h5.345V25.24h-5.345v-6.97H5.397v6.97H.076V8.009zm18.314 4.749h5.051l2.573 8.31 2.385-8.31h4.71l-4.945 13.34c-.564 1.521-1.14 2.548-1.727 3.08-.83.753-2.095 1.129-3.795 1.129-.689 0-1.754-.094-3.195-.282l-.376-3.338c.69.22 1.457.329 2.303.329.564 0 1.018-.13 1.363-.388.352-.259.65-.721.892-1.387L18.39 12.758zM34.507 29.99V12.758h4.476v1.845c.619-.776 1.186-1.3 1.703-1.575A4.875 4.875 0 0 1 43 12.475c1.669 0 2.957.64 3.865 1.917.916 1.277 1.375 2.856 1.375 4.736 0 2.077-.498 3.664-1.492 4.761-.995 1.09-2.252 1.634-3.771 1.634-.736 0-1.41-.125-2.02-.376a4.813 4.813 0 0 1-1.622-1.117v5.96h-4.828zM39.3 19.035c0 .987.208 1.72.623 2.198.415.478.94.717 1.574.717.556 0 1.022-.228 1.398-.682.376-.463.564-1.242.564-2.34 0-1.01-.196-1.75-.588-2.22-.391-.479-.87-.718-1.433-.718-.61 0-1.12.24-1.527.717-.407.478-.61 1.254-.61 2.328zm25.08 1.151h-9.585c.086.768.293 1.34.622 1.717.462.54 1.065.81 1.81.81.47 0 .916-.117 1.338-.352.259-.149.537-.411.835-.788l4.71.435c-.72 1.254-1.59 2.155-2.608 2.704-1.018.54-2.478.811-4.382.811-1.652 0-2.952-.231-3.9-.694-.947-.47-1.734-1.21-2.36-2.221-.62-1.019-.929-2.214-.929-3.585 0-1.951.623-3.53 1.868-4.737 1.253-1.207 2.98-1.81 5.18-1.81 1.786 0 3.196.27 4.23.81a5.476 5.476 0 0 1 2.36 2.351c.541 1.027.811 2.363.811 4.009v.54zm-4.863-2.292c-.094-.924-.345-1.586-.752-1.986-.4-.4-.928-.6-1.586-.6-.76 0-1.366.302-1.82.905-.29.377-.474.937-.553 1.681h4.711zm7.107-5.136H71.1v2.045c.43-.886.873-1.493 1.327-1.822.462-.337 1.03-.505 1.703-.505.705 0 1.477.219 2.315.658l-1.48 3.409c-.564-.235-1.01-.353-1.34-.353-.626 0-1.112.258-1.456.776-.494.729-.74 2.092-.74 4.09v4.185h-4.805V12.758zM94.17 31.369c-2.043-.481-3.559-1.406-5.125-3.107-2.095-2.275-2.963-4.568-2.963-7.785 0-3.2.868-5.474 2.98-7.786 2.094-2.312 4.325-3.31 7.322-3.292 2.366.019 4.444.833 6.351 2.478.8.685 2.418 2.774 2.418 3.144 0 .111-3.406 2.22-3.61 2.22-.051 0-.307-.334-.562-.722-.664-1.054-2.01-1.997-3.371-2.348-1.005-.278-1.329-.278-2.3-.093-2.145.425-3.915 1.96-4.614 4.013-.476 1.368-.476 3.403 0 4.771.716 2.09 2.827 3.847 4.921 4.105 1.924.24 4.427-.943 5.398-2.551l.426-.685.715.444c.374.24 1.209.758 1.839 1.165l1.141.721-.562.906c-2.112 3.403-6.624 5.308-10.404 4.402zm-6.897-29.15V.26h17.879v3.917H87.273V2.219z"/></svg>