<svg xmlns="http://www.w3.org/2000/svg" fill="none" viewBox="0 0 587 554"><path fill="#E0E0E0" d="M84.777 452.27v-40.985c8.617-.003 17.044 2.376 24.224 6.837 7.18 4.462 12.794 10.808 16.14 18.244 3.345 7.436 4.273 15.632 2.666 23.559-1.606 7.928-5.675 15.235-11.697 21.007-6.022 5.772-13.729 9.751-22.156 11.44-8.426 1.689-17.197 1.011-25.215-1.947-8.017-2.958-14.924-8.066-19.855-14.683-4.93-6.618-7.666-14.451-7.864-22.517l43.757-.955z"/><path fill="#F5F5F5" d="M74.112 441.219l-43.784.93c-.002-10.954 4.43-21.502 12.403-29.518 8.159-7.662 19.15-12.096 30.7-12.385l.68 40.973zM543.104 53.236l32.818-4.688c1.045 6.417-.082 12.98-3.224 18.766-3.142 5.787-8.14 10.507-14.293 13.497-6.153 2.99-13.152 4.101-20.014 3.177-6.862-.925-13.242-3.838-18.245-8.332-5.003-4.494-8.377-10.341-9.649-16.723-1.272-6.38-.378-12.975 2.557-18.856 2.935-5.88 7.763-10.753 13.807-13.933 6.043-3.18 12.999-4.508 19.89-3.797l-3.647 30.889z"/><path fill="#E0E0E0" d="M553.756 22.445L549.77 46.26l24.976-4.394s-3.673-13.34-20.99-19.421zM58.022 35.906h-18.18v67.995h18.18V35.906zM84.764 50.739h-18.18V103.9h18.18V50.739zM111.908 62.88h-18.18V103.9h18.18V62.879zM137.03 79.535h-18.18v24.354h18.18V79.535z"/><path fill="#F5F5F5" d="M354.403 283.605c-.089-7.478 2.189-14.813 6.547-21.08 4.358-6.266 10.601-11.184 17.941-14.131 7.34-2.948 15.448-3.794 23.301-2.431 7.853 1.363 15.099 4.874 20.823 10.089 5.724 5.215 9.67 11.9 11.34 19.213 1.671 7.313.99 14.926-1.955 21.877-2.946 6.951-8.024 12.93-14.595 17.181-6.57 4.251-14.339 6.585-22.324 6.706-10.743.124-21.1-3.746-28.801-10.761-7.7-7.016-12.115-16.604-12.277-26.663zm59.754-.906c-.08-3.575-1.29-7.048-3.476-9.98-2.186-2.932-5.251-5.192-8.807-6.494a20.562 20.562 0 0 0-11.176-.825c-3.731.764-7.136 2.547-9.786 5.122-2.65 2.575-4.426 5.827-5.103 9.346a17.037 17.037 0 0 0 1.295 10.427c1.522 3.28 4.047 6.064 7.257 8.001 3.211 1.937 6.962 2.94 10.78 2.883a20.471 20.471 0 0 0 7.389-1.508 19.442 19.442 0 0 0 6.209-4.041 18.047 18.047 0 0 0 4.084-5.961 17.115 17.115 0 0 0 1.334-6.97z"/><path fill="#E0E0E0" d="M354.404 283.605c-.182-10.06 3.904-19.776 11.362-27.019 7.458-7.243 17.68-11.42 28.422-11.617l.34 19.85c-5.078.174-9.882 2.204-13.38 5.655-3.499 3.451-5.413 8.049-5.333 12.807.081 4.758 2.15 9.296 5.763 12.642 3.613 3.347 8.483 5.233 13.564 5.256l.34 19.85a42.933 42.933 0 0 1-15.551-2.687c-4.945-1.843-9.453-4.581-13.268-8.056-3.815-3.475-6.861-7.621-8.964-12.199a35.888 35.888 0 0 1-3.295-14.482z"/><path fill="#EBEBEB" d="M390.555 241.922a48.975 48.975 0 0 1 17.97 2.977c5.719 2.101 10.933 5.25 15.336 9.261 4.404 4.012 7.908 8.806 10.309 14.101A40.909 40.909 0 0 1 437.841 285l-24.676.379c-.209-11.724-9.737-19.115-22.218-18.932l-.392-24.525z"/><path fill="#263238" d="M571.02 534.045c0 .184-121.652.318-271.705.318s-271.745-.134-271.745-.318 121.64-.318 271.745-.318c150.105 0 271.705.147 271.705.318z"/><path fill="#B78876" d="M346.536 225.45l-5.725 7.637-1.555 6.119 5.829 7.832 11.057-6.364 9.632-8.86c.303-.276.489-.645.523-1.039a1.556 1.556 0 0 0-.34-1.103l-1.568-2.044.196-.428a2.56 2.56 0 0 0 .152-1.836 2.726 2.726 0 0 0-1.132-1.505l-1.399-.918 5.228-6.266a2.43 2.43 0 0 0 .583-1.511 2.416 2.416 0 0 0-.505-1.536l-13.318 9.484-5.75-.11-1.908 2.448z"/><path fill="#AA6550" d="M364.649 227.445a6.44 6.44 0 0 1-1.83 1.456c-.716.474-1.477.884-2.274 1.224a2.936 2.936 0 0 1-1.686.171 1.784 1.784 0 0 1-.84-.437 1.611 1.611 0 0 1-.467-.787 2.148 2.148 0 0 1 .392-1.688 7.74 7.74 0 0 1 .993-1.151l1.764-1.774a8.083 8.083 0 0 1 1.739-1.518 7.507 7.507 0 0 1-1.386 1.811l-1.646 1.861c-.628.685-1.386 1.456-1.203 2.325.047.195.154.373.307.512s.346.233.556.271c.437.095.895.056 1.307-.11a19.411 19.411 0 0 0 2.248-1.077 12.133 12.133 0 0 1 2.026-1.089z"/><path fill="#AA6550" d="M366.087 231.177s-.588.673-1.699 1.604a11.064 11.064 0 0 1-2.117 1.529 2.43 2.43 0 0 1-.855.316 2.513 2.513 0 0 1-.919-.014 2.449 2.449 0 0 1-.842-.343 2.271 2.271 0 0 1-.638-.62 1.8 1.8 0 0 1 .209-1.762c.28-.435.604-.845.967-1.224a12.52 12.52 0 0 1 1.934-1.701 5.805 5.805 0 0 1 2.117-1.126 18.946 18.946 0 0 1-1.816 1.469 15.751 15.751 0 0 0-1.765 1.738c-.32.347-.609.72-.862 1.113-.129.178-.213.38-.244.592-.032.213-.011.429.061.632.111.18.266.333.452.446.186.112.399.182.62.203.451.04.906-.045 1.306-.245a11.738 11.738 0 0 0 2.092-1.346 8.084 8.084 0 0 1 1.999-1.261zM350.273 235.681a9.624 9.624 0 0 0 1.726-2.203c.439-.918.641-1.92.588-2.925a5.65 5.65 0 0 0-1.033-3.5l-.509-.624.823.135c.74.109 1.494.109 2.235 0a6.791 6.791 0 0 0 2.875-1.114 3.295 3.295 0 0 0 1.386-2.117l.287.293a234.774 234.774 0 0 1-4.757-.183 7.587 7.587 0 0 1-1.791-.196 7.736 7.736 0 0 1 1.804-.135h5.058v.294a3.515 3.515 0 0 1-.503 1.42c-.27.435-.633.814-1.066 1.113a7.069 7.069 0 0 1-3.162 1.224 7.425 7.425 0 0 1-2.444 0l.3-.489a5.907 5.907 0 0 1 1.098 3.879 6.156 6.156 0 0 1-.771 3.096 5.524 5.524 0 0 1-1.425 1.64c-.392.306-.653.416-.719.392z"/><path fill="#263238" d="M293.406 181.246a3.364 3.364 0 0 1-.235-1.628 4.274 4.274 0 0 1 .68-1.799 12.952 12.952 0 0 1 1.777-1.995 10.902 10.902 0 0 0 2.117-2.594 8.756 8.756 0 0 0 .419-7.734 24.964 24.964 0 0 0-2.209-3.892 17.926 17.926 0 0 1-2.052-3.818 6.752 6.752 0 0 1-.327-3.843c.562-2.448 2-4.455 2.614-6.352a7.012 7.012 0 0 0 .366-4.65 4.402 4.402 0 0 0-.575-1.224c-.183-.245-.301-.355-.327-.343.27.501.485 1.026.641 1.567a7.184 7.184 0 0 1-.562 4.43c-.706 1.811-2.183 3.757-2.836 6.388a7.352 7.352 0 0 0 .3 4.161 19.118 19.118 0 0 0 2.104 3.965 25.51 25.51 0 0 1 2.183 3.782 8.217 8.217 0 0 1 .667 3.843 8.532 8.532 0 0 1-.968 3.414 11.061 11.061 0 0 1-1.96 2.521 11.665 11.665 0 0 0-1.751 2.13 4.317 4.317 0 0 0-.628 1.958c-.021.419.06.837.236 1.223.182.368.313.502.326.49zM256.472 171.333a5.945 5.945 0 0 1-2.155 2.704 6.555 6.555 0 0 1-3.387 1.151 7.999 7.999 0 0 1-3.541-.708 7.484 7.484 0 0 1-2.785-2.168c-1.446-1.877-2.064-4.205-1.725-6.498.233-1 .308-2.027.222-3.047-.261-1.445-1.476-2.595-1.947-3.99-.85-2.521.98-5.324 3.516-6.486a13.504 13.504 0 0 1 8.299-.429"/><path fill="#263238" d="M294.244 139.734c2.614 2.228 1.882 5.373.836 7.527-1.045 2.154-2.313 4.344-2.195 6.719.117 2.374 1.659 4.528 2.509 6.816a12.188 12.188 0 0 1-.209 8.958c-.902 2.142-2.405 4.014-3.32 6.119-.915 2.105-1.137 4.773.392 6.572a4.573 4.573 0 0 1-1.886-.719 4.23 4.23 0 0 1-1.342-1.435 7.628 7.628 0 0 1-.954-3.671c-.183-4.895 2.026-9.729 1.111-14.527-.536-2.79-2.104-5.409-2.078-8.236.026-2.827 1.66-5.421 2.784-8.065 1.124-2.643 1.699-5.886-.157-8.138"/><path fill="#263238" d="M287.539 130.837a10.51 10.51 0 0 1 4.427 1.14 9.809 9.809 0 0 1 3.415 2.874 5.812 5.812 0 0 1 1.004 4.122c-.199 1.442-.939 2.77-2.089 3.747-2.3 1.689-5.712 1.359-8.26 0-1.91-.967-3.409-2.518-4.248-4.393a5.975 5.975 0 0 1-.452-2.963 6.08 6.08 0 0 1 1.053-2.826 5.2 5.2 0 0 1 2.504-1.824 5.562 5.562 0 0 1 3.169-.134"/><path fill="#263238" d="M290.035 130.409a13.049 13.049 0 0 0-3.61-4.379 14.132 14.132 0 0 0-5.238-2.56 24.334 24.334 0 0 0-11.763.086 70.31 70.31 0 0 0-11.135 3.928 25.443 25.443 0 0 0-7.437 4.1c-2.011 1.924-3.468 4.295-4.234 6.89-1.569 4.822-1.438 8.273 1.006 12.764 1.072 1.946.431 4.222 1.399 6.217.967 1.995 5.045 4.222 3.921 6.119"/><path fill="#B78876" d="M281.71 190.828c.144-9.79.13-13.461.144-13.461.013 0 9.005-1.42 10.834-12.422.915-5.47.601-14.453.092-21.784-.458-6.596-5.15-14.686-12.168-13.976l-21.931 5.238a4.215 4.215 0 0 0-2.663 1.29 3.713 3.713 0 0 0-1.023 2.639v52.452"/><path fill="#263238" d="M290.153 150.688c0 .367-.15.72-.42.987-.27.266-.639.426-1.031.444a1.504 1.504 0 0 1-1.048-.31 1.32 1.32 0 0 1-.507-.913 1.36 1.36 0 0 1 .407-.99 1.55 1.55 0 0 1 1.03-.442 1.53 1.53 0 0 1 1.05.313c.293.229.479.555.519.911zM290.714 147.138c-.183.184-1.307-.611-2.953-.599-1.647.012-2.81.771-2.98.587-.17-.183.104-.416.614-.771a4.354 4.354 0 0 1 2.392-.697 4.11 4.11 0 0 1 2.352.709c.497.355.667.686.575.771zM274.795 150.687c.004.369-.145.724-.416.991a1.566 1.566 0 0 1-1.035.441 1.512 1.512 0 0 1-1.044-.314 1.335 1.335 0 0 1-.511-.909 1.373 1.373 0 0 1 .416-.991 1.566 1.566 0 0 1 1.035-.441c.379-.028.754.085 1.044.314.291.229.475.555.511.909zM274.769 148.167c-.183.183-1.307-.612-2.954-.6-1.646.012-2.81.771-2.98.587-.169-.183.105-.416.615-.771a4.35 4.35 0 0 1 2.391-.697 4.164 4.164 0 0 1 2.353.71c.497.354.667.685.575.771zM280.69 159.413a11.79 11.79 0 0 1 2.614-.452c.419 0 .811-.111.876-.38.03-.4-.065-.8-.274-1.15l-1.242-2.95a48.925 48.925 0 0 1-2.758-7.722 50.93 50.93 0 0 1 3.424 7.49c.41 1.044.802 2.035 1.177 2.974.261.466.34 1.003.222 1.517a1.01 1.01 0 0 1-.272.358c-.117.1-.256.174-.408.217-.23.055-.467.084-.705.086-.881.107-1.772.111-2.654.012z"/><path fill="#AA6550" d="M281.852 177.379c-5.533.095-10.986-1.252-15.748-3.892 0 0 3.986 7.551 15.748 6.498v-2.606z"/><path fill="#263238" d="M275.489 143.712c-.17.416-1.791.22-3.686.44-1.895.221-3.437.71-3.699.343-.104-.183.157-.563.772-.967a6.811 6.811 0 0 1 2.737-.898 6.945 6.945 0 0 1 2.883.299c.705.257 1.058.587.993.783zM290.153 143.455c-.288.343-1.412 0-2.758 0s-2.47.232-2.744-.123c-.275-.354.065-.526.562-.856a4.123 4.123 0 0 1 2.234-.563 3.95 3.95 0 0 1 2.196.685c.431.331.588.686.51.857z"/><path fill="#AA6550" d="M279.997 162.913a2.768 2.768 0 0 0-1.092-.768 2.934 2.934 0 0 0-1.352-.186 2.67 2.67 0 0 0-1.725.869 1.401 1.401 0 0 0-.104 1.688c.24.255.557.436.91.519.352.082.722.064 1.063-.053a5.82 5.82 0 0 0 1.934-1.077c.173-.115.32-.261.432-.429a.448.448 0 0 0 .087-.263.448.448 0 0 0-.087-.263"/><path fill="#263238" d="M276.181 160.478c.248 0 .248 1.53 1.659 2.619 1.412 1.089 3.15.918 3.163 1.126.013.208-.379.306-1.124.318a4.223 4.223 0 0 1-2.614-.857 3.297 3.297 0 0 1-1.307-2.19c-.078-.637.105-1.016.223-1.016zM290.401 133.395c-.562 3.476-6.43 4.051-10.129 3.378a11.879 11.879 0 0 1-4.687 3.384 12.673 12.673 0 0 1-5.847.862 3.566 3.566 0 0 0-1.608.062 3.355 3.355 0 0 0-1.215 1.125c-1.559 1.95-3.837 3.285-6.391 3.745a8.618 8.618 0 0 1-2.388 4.658c-1.274 1.296-2.932 2.205-4.761 2.612 0 0-1.216-.563-.784-5.006.214-4.567.184-9.142-.092-13.706l12.821-5.52 15.383-2.692s10.652 1.15 9.698 7.098z"/><path fill="#455A64" d="M247.819 151.752a10.72 10.72 0 0 1 .797-3.096 7.71 7.71 0 0 1 2.327-2.9 8.753 8.753 0 0 1 4.548-1.799h.196v-.196c.444-1.932 1.506-3.691 3.045-5.042a6.153 6.153 0 0 1 3.053-1.407 6.356 6.356 0 0 1 3.377.379l.366.171.131-.367.144-.392a8.724 8.724 0 0 1 2.97-3.74 9.588 9.588 0 0 1 4.61-1.755 10.114 10.114 0 0 1 2.274.062c.771.122 1.56.084 2.314-.111a4.218 4.218 0 0 0 1.751-1.223c.378-.459.817-.87 1.307-1.224a6.789 6.789 0 0 1 2.543-1.015 6.967 6.967 0 0 1 2.763.06c.67.177 1.318.419 1.935.722 0 0-.131-.134-.432-.342a5.995 5.995 0 0 0-1.437-.625 7.055 7.055 0 0 0-2.938-.19 6.877 6.877 0 0 0-2.735 1.023c-1.084.636-1.725 1.921-2.953 2.313-1.229.391-2.797-.233-4.47 0a10.228 10.228 0 0 0-4.969 1.858 9.31 9.31 0 0 0-3.2 4.016l-.157.428.497-.196a7.055 7.055 0 0 0-3.774-.443 6.829 6.829 0 0 0-3.414 1.569c-1.632 1.446-2.742 3.333-3.176 5.397l.248-.22a9.152 9.152 0 0 0-4.796 2.007c-1.676 1.404-2.695 3.369-2.836 5.47-.018.273.013.546.091.808z"/><path fill="#455A64" d="M268.117 140.089c.302.162.635.266.98.306a10.31 10.31 0 0 0 2.784.135 11.917 11.917 0 0 0 4.457-1.234 11.183 11.183 0 0 0 3.555-2.805l-.431.098.379.159a9.406 9.406 0 0 0 5.228.465 8.832 8.832 0 0 0 3.842-1.835 7.6 7.6 0 0 0 1.791-2.13c.199-.283.324-.606.366-.942a13.393 13.393 0 0 1-2.471 2.717 8.564 8.564 0 0 1-3.659 1.603 9.1 9.1 0 0 1-4.862-.465l-.353-.159-.261-.11-.17.208c-1.854 2.19-4.544 3.62-7.502 3.989a24.743 24.743 0 0 1-3.673 0z"/><path fill="#455A64" d="M274.742 133.579c0 .195 1.725 0 3.725.501 2 .502 3.463 1.224 3.581 1.065a5.802 5.802 0 0 0-3.424-1.701 6.092 6.092 0 0 0-3.882.135zM279.186 133.224c.157.11.758-.355 1.516-.857s1.412-.905 1.307-1.077c-.104-.171-.915 0-1.751.551-.837.551-1.216 1.273-1.072 1.383zM260.928 139.624c.065.172 1.555-.281 3.437-.22 1.882.061 3.333.563 3.411.392a6.543 6.543 0 0 0-3.397-1.041 6.597 6.597 0 0 0-3.451.869zM257.674 145.511c1.617.224 3.27.02 4.77-.588a8.805 8.805 0 0 0 4.117-2.337c-.117-.147-1.908.93-4.352 1.725-2.444.796-4.548 1.016-4.535 1.2zM249.636 149.721a24.278 24.278 0 0 1 3.058-1.603 23.19 23.19 0 0 1 3.45-.563 4.441 4.441 0 0 0-1.842-.398c-.639 0-1.269.136-1.843.398-2.026.624-2.98 2.105-2.823 2.166zM249.871 133.921s.196-.367.614-.954a6.851 6.851 0 0 1 2.366-1.946 24.11 24.11 0 0 1 10.26-2.154c3.565.013 7.114.453 10.56 1.309 2.614.625 4.3 1.102 4.326 1.004a4.197 4.197 0 0 0-1.085-.465 41.883 41.883 0 0 0-3.11-.979 38.656 38.656 0 0 0-10.704-1.518 22.466 22.466 0 0 0-10.456 2.448 6.238 6.238 0 0 0-2.353 2.203 2.241 2.241 0 0 0-.418 1.052z"/><path fill="#455A64" d="M248.918 139.881a18.027 18.027 0 0 1 1.817-3.096c1.878-2.245 4.475-3.866 7.41-4.626a28.2 28.2 0 0 1 9.058-.649c1.27.15 2.549.232 3.829.245a17.068 17.068 0 0 0-3.777-.697 25.148 25.148 0 0 0-9.306.477c-3.075.793-5.765 2.551-7.619 4.981a8.337 8.337 0 0 0-1.229 2.447 2.33 2.33 0 0 0-.183.918zM292.949 144.483a4.155 4.155 0 0 0 2.169-1.518 6.388 6.388 0 0 0 1.489-2.807 6.155 6.155 0 0 0-.072-3.134 6.45 6.45 0 0 0-1.617-2.745 7.05 7.05 0 0 0-2.793-1.728 4.464 4.464 0 0 0-2.705-.294c.854.179 1.692.416 2.509.71a6.807 6.807 0 0 1 2.489 1.683 6.26 6.26 0 0 1 1.447 2.535c.269.937.307 1.92.11 2.873a6.198 6.198 0 0 1-1.249 2.626 20.376 20.376 0 0 1-1.777 1.799z"/><path fill="#263238" d="M244.983 161.763c.065-.11-1.163-.624-2.915-1.713a8.315 8.315 0 0 1-2.509-2.448 4.107 4.107 0 0 1-.431-3.855c.506-1.279 1.53-2.321 2.849-2.9a6.744 6.744 0 0 1 3.503-.392 12.98 12.98 0 0 1 3.176 1.077s-.21-.269-.706-.6a7.315 7.315 0 0 0-2.379-.93 6.956 6.956 0 0 0-3.855.294 6.035 6.035 0 0 0-1.973 1.306 5.609 5.609 0 0 0-1.269 1.925 4.606 4.606 0 0 0-.292 2.256 4.7 4.7 0 0 0 .828 2.137 8.185 8.185 0 0 0 2.797 2.448c.729.415 1.494.771 2.287 1.065.549.281.863.367.889.33zM244.408 161.849a3.77 3.77 0 0 0-.484.979c-.37.911-.679 1.843-.928 2.79a13.768 13.768 0 0 0-.483 4.357 8.975 8.975 0 0 0 1.895 5.091 7.043 7.043 0 0 0 2.22 1.811 7.509 7.509 0 0 0 2.812.82 5.474 5.474 0 0 0 2.381-.337 5.159 5.159 0 0 0 1.958-1.315 4.191 4.191 0 0 0 1.215-2.742 1.877 1.877 0 0 0-.209-1.076c-.065 0 0 .391-.065 1.052-.182 1.143-.826 2.177-1.799 2.887a5.043 5.043 0 0 1-3.429.931 6.969 6.969 0 0 1-2.536-.787 6.52 6.52 0 0 1-1.999-1.66 8.736 8.736 0 0 1-1.804-4.736 14.253 14.253 0 0 1 .327-4.223c.549-2.349 1.072-3.806.928-3.842z"/><path fill="#263238" d="M260.707 145.939c1.581 2.582.68 5.85-.614 8.567-1.294 2.717-3.006 5.409-2.941 8.383.092 4.981 5.097 9.117 4.731 14.086a7.16 7.16 0 0 1-1.74 4.044 7.967 7.967 0 0 1-3.867 2.43c2.418-1.714 2.444-5.177 1.307-7.808-1.137-2.631-6.182-9.472-7.031-12.238-2.81-9.154-1.908-10.28 1.307-13.731"/><path fill="#455A64" d="M251.559 153.049c0 .086.705.196 1.842 0a7.805 7.805 0 0 0 3.905-2.027 7.014 7.014 0 0 0 2.029-3.725c.196-1.064 0-1.725 0-1.725-.19.532-.338 1.076-.444 1.628a7.729 7.729 0 0 1-2.053 3.367 8.476 8.476 0 0 1-3.528 2.03 13.59 13.59 0 0 0-1.751.452z"/><path fill="#455A64" d="M257.335 180.438s.13-.061.34-.232c.296-.251.56-.535.784-.845a6.025 6.025 0 0 0 1.111-3.989 5.605 5.605 0 0 0-.941-2.766 13.195 13.195 0 0 0-2.353-2.448 9.407 9.407 0 0 1-2.313-2.68 7.743 7.743 0 0 1-.928-3.537 7.317 7.317 0 0 1 .876-3.549 19.937 19.937 0 0 1 2.051-2.937 20.673 20.673 0 0 0 3.281-5.25 10.59 10.59 0 0 0 .836-4.039 4.424 4.424 0 0 0-.209-1.505 13.074 13.074 0 0 1-1.084 5.373 21.413 21.413 0 0 1-3.346 5.054 19.274 19.274 0 0 0-2.131 3.023 7.811 7.811 0 0 0-.967 3.83 8.135 8.135 0 0 0 1.02 3.831 9.809 9.809 0 0 0 2.47 2.827 12.531 12.531 0 0 1 2.313 2.288c.523.753.841 1.615.928 2.509a6.06 6.06 0 0 1-.836 3.818c-.51.82-.941 1.188-.902 1.224z"/><path fill="#455A64" d="M250.381 152.768s-.3.171-.692.612a7.363 7.363 0 0 0-1.307 2.117 10.762 10.762 0 0 0 .104 7.93 19.721 19.721 0 0 0 4.705 6.646 12.683 12.683 0 0 0 2.614 2.178 27.068 27.068 0 0 0-2.274-2.448 21.941 21.941 0 0 1-4.404-6.547 11.204 11.204 0 0 1-.301-7.563c.41-1.022.931-2.002 1.555-2.925z"/><path fill="#DFFFD5" d="M339.438 233.233l-9.841 4.369-12.417 6.254c-5.149-14.11-4.927-29.151-6.77-34.854-5.789-17.917-16.507-19.483-16.507-19.483v.147a4.027 4.027 0 0 0-1.006-.49l-9.044-2.631-.288-4.601-30.57.673-.261 5.776-9.632 1.505a19.74 19.74 0 0 0-8.249 3.162c-2.442 1.651-4.431 3.823-5.801 6.335-.196.355-.366.734-.536 1.114-6.3 14.465-20.088 46.296-21.16 49.662-3.712 11.785 9.659 22.126 21.33 19.715a70.552 70.552 0 0 0 6.757-2.447 9.626 9.626 0 0 0 .884 4.212 10.241 10.241 0 0 0 2.658 3.498 5.591 5.591 0 0 0 3.332 1.53l56.056.305c1.516 0 3.111-1.223 4.392-2.533a13.74 13.74 0 0 0 8.142.551c4.849-.918 9.907-3.476 11.083-4.577l28.427-25.039-10.979-12.153zm-98.245 8.004l-.509 2.301-3.124.196 3.699-11.565v8.358a3.14 3.14 0 0 1-.066.71z"/><path fill="#263238" d="M255.714 242.608l-1.307.122-3.816.318-12.952.992h-.51l.17-.453c.405-1.138.797-2.313 1.202-3.537 1.752-5.483 3.242-10.5 4.444-14.086a111.975 111.975 0 0 1 1.49-4.234 6.372 6.372 0 0 1 .679-1.518 8.589 8.589 0 0 1-.431 1.591c-.34 1.138-.758 2.57-1.307 4.283-1.071 3.672-2.483 8.653-4.26 14.148a74.597 74.597 0 0 1-1.216 3.549l-.34-.417c5.228-.354 9.724-.624 12.978-.771 3.255-.146 5.228-.146 5.176.013zM262 255.776a7.314 7.314 0 0 1-1.307.722l-3.738 1.799c-3.163 1.493-7.449 3.671-12.298 6.009a71.809 71.809 0 0 1-12.965 4.724c-1.713.416-3.124.734-4.104.893a6.066 6.066 0 0 1-1.529.208c0-.098 2.117-.575 5.502-1.542a82.257 82.257 0 0 0 12.795-4.895c4.823-2.276 9.149-4.443 12.39-5.838 1.608-.709 2.915-1.223 3.843-1.615.452-.2.925-.356 1.411-.465zM297.145 239.169c-.118-.061 1.046-1.603 2.17-4.418a23.04 23.04 0 0 0 1.437-11.455 57.13 57.13 0 0 0-1.385-6.315c-.51-1.933-.941-3.671-1.163-5.201a19.9 19.9 0 0 1-.262-3.598 3.728 3.728 0 0 1 .17-1.309c.097 1.639.285 3.273.562 4.895.288 1.468.758 3.206 1.307 5.128a47.584 47.584 0 0 1 1.451 6.388 21.832 21.832 0 0 1-1.66 11.699 19.608 19.608 0 0 1-1.764 3.195 4.566 4.566 0 0 1-.863.991zM297.431 240.05a13.056 13.056 0 0 0-.771 5.789 19.227 19.227 0 0 0 1.738 6.119c.981 2.227 2.353 4.564 3.608 7.122a22.177 22.177 0 0 1 2.405 7.637 10.564 10.564 0 0 1-1.307 6.388 8.597 8.597 0 0 1-3.137 3.255c-.362.214-.748.39-1.15.527-.275.085-.419.122-.432.097-.013-.024.549-.244 1.438-.832a8.823 8.823 0 0 0 2.862-3.255 10.395 10.395 0 0 0 1.072-6.119 22.316 22.316 0 0 0-2.392-7.416c-1.241-2.534-2.614-4.896-3.568-7.172a18.725 18.725 0 0 1-1.647-6.315 11.02 11.02 0 0 1 .536-4.344c.124-.385.286-.758.484-1.114.157-.245.235-.367.261-.367zM297.588 192.689c.52 1.482.702 3.049.536 4.601a10.413 10.413 0 0 1-.889 4.553 33.642 33.642 0 0 1 .209-4.577 34.626 34.626 0 0 1 .144-4.577zM313.024 260.059a6.672 6.672 0 0 1-.549-2.447 18.842 18.842 0 0 1 .379-6.021 18.963 18.963 0 0 1 2.274-5.63 6.728 6.728 0 0 1 1.569-2.019c-2.983 4.885-4.266 10.518-3.673 16.117zM246.107 201.843c-.131 0-.131-.784-.706-1.885a10.326 10.326 0 0 0-3.319-3.561 11.561 11.561 0 0 0-4.562-2.02 7.994 7.994 0 0 0-.862-.073h-.654c-.183 0-.536.135-.562.098-.026-.037.131-.147.484-.343.23-.075.466-.132.706-.171.313-.026.628-.026.941 0 1.802.228 3.504.909 4.927 1.97 1.485.976 2.645 2.325 3.346 3.892.339.649.431 1.388.261 2.093z"/><path fill="#000" d="M245.153 240.136a55.65 55.65 0 0 1-1.516-15.041l-.496.918-1.882 6.119-.575 11.369 10.847-.44c-1.786-1.523-3.998-2.537-6.378-2.925z" opacity=".3"/><path fill="#263238" d="M283.448 187.389a1.435 1.435 0 0 1 0 1.224 3.635 3.635 0 0 1-.935 1.417c-.424.399-.94.702-1.509.884a38.768 38.768 0 0 1-11.527 1.603 41.96 41.96 0 0 1-11.514-1.652 33.915 33.915 0 0 1-3.307-1.15 5.678 5.678 0 0 1-1.15-.563c0-.098 1.751.55 4.6 1.224 3.709.935 7.53 1.42 11.371 1.444a44.08 44.08 0 0 0 11.358-1.383 3.85 3.85 0 0 0 1.469-.73c.425-.343.763-.771.988-1.253.103-.346.156-.705.156-1.065z"/><path fill="#FAFAFA" d="M231.025 226.001a10.78 10.78 0 0 1-1.843-3.415 11.568 11.568 0 0 1-1.215-3.671 11.205 11.205 0 0 1 1.843 3.414 11.25 11.25 0 0 1 1.215 3.672zM224.805 242.424a17.464 17.464 0 0 1-4.34 1.579 16.814 16.814 0 0 1-4.522.979 17.232 17.232 0 0 1 4.326-1.579 16.761 16.761 0 0 1 4.536-.979zM223.3 259.166a9.858 9.858 0 0 1-.222-3.672 10.05 10.05 0 0 1 .445-3.671 9.984 9.984 0 0 1 .235 3.671 10.236 10.236 0 0 1-.458 3.672zM245.009 254.234a17.416 17.416 0 0 1-3.045-2.374 16.506 16.506 0 0 1-2.862-2.57c2.403 1.104 4.444 2.795 5.907 4.895v.049zM260.328 245.655c.131.122-.693 1.15-1.856 2.301-1.163 1.15-2.209 1.982-2.352 1.86-.144-.123.692-1.151 1.855-2.301 1.164-1.15 2.209-1.982 2.353-1.86zM238.906 204.278a24.692 24.692 0 0 1-6.797 4.075c2-1.712 4.299-3.091 6.797-4.075zM256.275 200.472a15.992 15.992 0 0 1-1.777-3.573 16.1 16.1 0 0 1-1.49-3.672 9.825 9.825 0 0 1 2.117 3.439 9.827 9.827 0 0 1 1.15 3.806zM257.882 220.848a12.15 12.15 0 0 1-3.999-1.958 11.42 11.42 0 0 1-3.385-2.79 22.112 22.112 0 0 1 3.764 2.264 21.584 21.584 0 0 1 3.62 2.484zM270.352 230.761a24.113 24.113 0 0 1-4.927 2.803 24.889 24.889 0 0 1-5.228 2.239 25.904 25.904 0 0 1 4.941-2.802 26.686 26.686 0 0 1 5.214-2.24zM276.195 218.878a9.37 9.37 0 0 1-1.177-3.292 8.883 8.883 0 0 1-.509-3.427 9.388 9.388 0 0 1 1.176 3.292 8.884 8.884 0 0 1 .51 3.427zM292.008 230.149a11.919 11.919 0 0 1-2.196-3.316 11.841 11.841 0 0 1-1.582-3.61c.918.992 1.66 2.116 2.196 3.328a12.35 12.35 0 0 1 1.582 3.598zM289.774 197.767a12.75 12.75 0 0 1-3.189 2.534 13.503 13.503 0 0 1-3.581 2.007 25.521 25.521 0 0 1 6.77-4.541zM275.005 198.698c-.17.085-.785-.784-1.307-1.934-.523-1.15-.928-2.13-.758-2.203.17-.073.784.783 1.372 1.934.588 1.15.863 2.129.693 2.203zM266.105 186.472c0 .171-1.02.367-2.301.416-1.28.049-2.326 0-2.339-.221-.013-.22 1.019-.367 2.313-.416 1.294-.049 2.327.049 2.327.221zM276.443 186.667c-.144-.11.301-.893.993-1.774.693-.881 1.386-1.493 1.543-1.383.156.11-.301.893-.994 1.775-.692.881-1.385 1.493-1.542 1.382zM304.974 211.719a11.056 11.056 0 0 1-.798-3.819 10.72 10.72 0 0 1-.117-3.879 23.015 23.015 0 0 1 .915 7.698zM308.319 226.955c-.131.123-1.412-.856-2.614-2.337a7.138 7.138 0 0 1-1.83-2.95 44.735 44.735 0 0 1 4.496 5.287h-.052zM303.641 242.559c.33-1.212.869-2.365 1.594-3.415a11.14 11.14 0 0 1 2.196-3.108 10.577 10.577 0 0 1-1.595 3.414 10.687 10.687 0 0 1-2.195 3.109zM309.273 265.248a14.688 14.688 0 0 1-1.96-4.014 15.214 15.214 0 0 1-1.307-4.247 14.673 14.673 0 0 1 1.96 4.014 15.2 15.2 0 0 1 1.307 4.247zM326.224 257a18.424 18.424 0 0 1-6.326-2.766 18.37 18.37 0 0 1 6.326 2.766zM335.753 248.494a7.677 7.677 0 0 1 .182-3.879 7.985 7.985 0 0 1 1.451-3.672 19.91 19.91 0 0 1-.784 3.77 21.7 21.7 0 0 1-.849 3.781zM279.697 242.987a10.479 10.479 0 0 1 1.307-3.488 10.486 10.486 0 0 1 2-3.218 10.834 10.834 0 0 1-1.385 3.488 10.686 10.686 0 0 1-1.922 3.218zM252.602 272.004a10.118 10.118 0 0 1-2.483-2.68 10.057 10.057 0 0 1-1.947-3.048 10.516 10.516 0 0 1 2.496 2.68 10.01 10.01 0 0 1 1.934 3.048zM265.424 268.834c.219-1.349.66-2.657 1.307-3.88a13.137 13.137 0 0 1 1.895-3.671 24.334 24.334 0 0 1-3.163 7.514l-.039.037zM286.139 272.224c-2.91-.547-5.563-1.939-7.58-3.977a27.456 27.456 0 0 1 3.79 1.994 29.456 29.456 0 0 1 3.79 1.983zM294.609 259.753a14.397 14.397 0 0 1-1.961-8.089c.475 1.31.825 2.658 1.046 4.026.429 1.327.735 2.687.915 4.063z"/><path fill="#000" d="M235.638 269.666a14.519 14.519 0 0 0 9.737.832 34.289 34.289 0 0 0 9.044-3.916 17.105 17.105 0 0 1 5.228-2.264 17.226 17.226 0 0 1 6.313.416c4.901.918 10.011 1.665 14.847.502s9.358-4.687 9.998-9.326c.249-1.872-.418-4.136-2.326-4.736a18.476 18.476 0 0 0-3.921-1.04c-20.781 1.579-49.037 17.341-49.011 17.88" opacity=".3"/><path fill="#B78876" d="M329.624 490.306l5.267 38.305-18.533 1.102-9.528-36.751 22.794-2.656z"/><path fill="#5FBE3F" d="M314.618 522.284s14.167 6.939 19.343-1.223l2.156 3.39 11.07 24.733a3.27 3.27 0 0 1 .151 2.449 3.52 3.52 0 0 1-1.614 1.932 3.775 3.775 0 0 1-1.959.43 3.736 3.736 0 0 1-1.897-.626c-6.012-4.063-28.008-19.091-28.165-21.49l-.837-6.315a3.073 3.073 0 0 1 .353-1.859 3.347 3.347 0 0 1 1.399-1.359v-.062z"/><path fill="#fff" d="M345.11 553.748l-31.733-24.121.209 1.371c.078 1.517.863 2.019 1.751 2.876 2.614 2.545 9.79 8.089 26.427 19.446a3.696 3.696 0 0 0 1.616.608 3.787 3.787 0 0 0 1.73-.18zM316.853 525.013c.466.24.824.631 1.004 1.099.181.469.172.984-.024 1.447a2.048 2.048 0 0 1-1.146.973 2.223 2.223 0 0 1-1.546-.031 2.212 2.212 0 0 1-1.07-1.174 2.04 2.04 0 0 1 .037-1.543 2.159 2.159 0 0 1 1.312-.889 2.284 2.284 0 0 1 1.603.216" opacity=".6"/><path fill="#263238" d="M335.059 540.605c.222.061.745-1.738 2.614-2.925a11.588 11.588 0 0 1 3.921-1.224c0-.086-.458-.281-1.307-.281a5.875 5.875 0 0 0-3.032.93 5.244 5.244 0 0 0-2.026 2.288c-.275.71-.248 1.199-.17 1.212zM338.184 544.594c.182.123 1.137-1.077 2.862-1.799a33.227 33.227 0 0 1 3.333-.856 4.245 4.245 0 0 0-3.647.208c-1.96.856-2.745 2.447-2.548 2.447zM329.635 535.636a36.331 36.331 0 0 1 4.221-3.047c2.549-1.371 4.993-1.579 4.967-1.799a10.329 10.329 0 0 0-5.338 1.196c-1.621.868-2.943 2.151-3.811 3.699l-.039-.049zM327.885 527.902c.13.183 1.921-.82 4.404-1.224 2.483-.404 4.535-.11 4.588-.318a9.491 9.491 0 0 0-4.723-.391 9.167 9.167 0 0 0-4.269 1.933z"/><path fill="#263238" d="M333.701 526.421a2.685 2.685 0 0 0-.366-1.224 8.595 8.595 0 0 0-2.091-2.766 4.098 4.098 0 0 0-2.274-1.224 1.543 1.543 0 0 0-.856.171 1.406 1.406 0 0 0-.595.6 2.102 2.102 0 0 0 0 1.567 4.89 4.89 0 0 0 2.303 2.382c1.04.52 2.24.686 3.396.469a5.974 5.974 0 0 0 2.974-1.573 5.371 5.371 0 0 0 1.535-2.857c.05-.271.037-.549-.037-.815a1.88 1.88 0 0 0-.395-.727 1.447 1.447 0 0 0-.785-.361c-.296-.04-.598.01-.862.141a4.831 4.831 0 0 0-1.816 1.738 9.731 9.731 0 0 0-1.412 3.12 2.891 2.891 0 0 0-.13 1.224 15.27 15.27 0 0 1 1.999-4.063 4.488 4.488 0 0 1 1.621-1.493.803.803 0 0 1 .889.123 1.251 1.251 0 0 1 .235 1.028 4.797 4.797 0 0 1-1.365 2.441 5.327 5.327 0 0 1-2.556 1.365 4.66 4.66 0 0 1-2.872-.385 4.237 4.237 0 0 1-1.99-1.977 1.54 1.54 0 0 1 0-1.102.751.751 0 0 1 .325-.335.827.827 0 0 1 .472-.093 3.758 3.758 0 0 1 1.948.991 12.656 12.656 0 0 1 2.705 3.635z"/><path fill="#B78876" d="M272.692 488.617l.522 39.248-22.636-.808-3.359-37.975 25.473-.465z"/><path fill="#5FBE3F" d="M250.186 522.321s-25.12 8.812-25.381 13.107l48.58-.086v-11.895l-1.778.392a38.45 38.45 0 0 1-21.421-1.518z"/><path fill="#fff" d="M267.804 525.686c.454.146.837.44 1.077.83.24.389.322.846.23 1.288a1.8 1.8 0 0 1-.841 1.066 2.017 2.017 0 0 1-1.394.231 2.064 2.064 0 0 1-1.185-.865 1.844 1.844 0 0 1-.253-1.387 1.913 1.913 0 0 1 1.006-1.017 2.103 2.103 0 0 1 1.478-.084M273.371 535.342v-3.671l-46.711 1.456s-2.156.881-1.908 2.313l48.619-.098z" opacity=".6"/><path fill="#263238" d="M249.388 522.088c0 .221 1.203.319 2.366 1.028 1.163.71 1.79 1.653 2.012 1.555.223-.098-.13-1.371-1.568-2.203-1.438-.832-2.862-.588-2.81-.38zM244.305 524.071c0 .208.967.587 1.777 1.53.81.942 1.046 1.933 1.307 1.921.262-.012.379-1.224-.64-2.447-1.02-1.224-2.444-1.224-2.444-1.004zM241.416 529.786c.222 0 .549-1.064-.066-2.276-.614-1.212-1.725-1.701-1.816-1.518-.092.184.588.833 1.071 1.836.484 1.004.576 1.934.811 1.958z"/><path fill="#263238" d="M249.924 521.954a4.704 4.704 0 0 0 2.431 0c.877-.15 1.733-.397 2.548-.734a12.22 12.22 0 0 0 1.386-.698c.279-.139.531-.321.745-.538a.954.954 0 0 0 .282-.595.927.927 0 0 0-.178-.629 1.281 1.281 0 0 0-.459-.367 1.372 1.372 0 0 0-.586-.135 3.438 3.438 0 0 0-.915.122 8.89 8.89 0 0 0-1.503.49 8.42 8.42 0 0 0-2.248 1.383c-1.124.979-1.503 1.811-1.425 1.848.079.036.654-.624 1.804-1.432a9.463 9.463 0 0 1 2.169-1.15c.45-.17.913-.305 1.386-.404.523-.123.954-.135 1.085.085.13.221 0 .11 0 .257a2.479 2.479 0 0 1-.536.392 14.554 14.554 0 0 1-3.66 1.53c-.789.137-1.567.329-2.326.575z"/><path fill="#263238" d="M250.225 522.272c.092 0 .562-.759.641-2.203a7.037 7.037 0 0 0-.327-2.447 7.675 7.675 0 0 0-.627-1.383 1.925 1.925 0 0 0-.617-.766 2.107 2.107 0 0 0-.939-.385 1.206 1.206 0 0 0-.607.181 1.09 1.09 0 0 0-.412.456 3.39 3.39 0 0 0-.248.832 4.882 4.882 0 0 0 .107 2.044c.179.668.498 1.296.938 1.848.954 1.223 1.948 1.431 1.961 1.358.013-.073-.745-.538-1.477-1.664a5.107 5.107 0 0 1-.771-2.142 4.506 4.506 0 0 1 0-1.322c.078-.477.274-.869.47-.82.196.049.654.355.85.747.239.39.441.799.601 1.224.276.729.439 1.491.484 2.264.104 1.309-.144 2.141-.027 2.178zM316.748 321.396c-1.006-21.208-18.402-44.375-18.402-44.375l-26.766-2.105v-.085h-.562l-30.779 2.349s-13.567 27.683-10.038 60.677 15.435 154.358 15.435 154.358h28.231l.601-175.591L303.051 498.2h28.27s-13.566-155.534-14.573-176.804z"/><path fill="#455A64" d="M242.199 489.254l3.934 17.892 28.753-.086 1.739-16.484-34.426-1.322zM301.156 494.969l6.3 20.168 26.767-3.5-1.399-22.677-31.668 6.009zM275.62 316.464h-.418a2.957 2.957 0 0 1-1.111-.465c-1.14-.922-1.894-2.192-2.131-3.585-.653-3.415-1.307-8.126-1.882-13.352a609.75 609.75 0 0 1-1.307-13.389 128.63 128.63 0 0 1-.261-4.075 5.489 5.489 0 0 1 0-1.493c.139.484.226.98.261 1.481.118 1.077.288 2.448.471 4.039.392 3.561.902 8.223 1.464 13.376.562 5.152 1.15 9.949 1.686 13.315a5.974 5.974 0 0 0 1.816 3.5 4.94 4.94 0 0 0 1.412.648zM273.227 278.845s.222-.159.68-.221c.653-.062 1.31.08 1.868.404a3.48 3.48 0 0 1 1.09.965c.286.391.481.833.57 1.299.117.575.011 1.17-.3 1.677-.333.56-.865.993-1.503 1.224-.59.232-1.242.29-1.868.165a3.197 3.197 0 0 1-1.635-.863 2.952 2.952 0 0 1-.64-1.28 2.84 2.84 0 0 1 .052-1.412 3.05 3.05 0 0 1 1.006-1.579c.366-.269.615-.33.628-.306a3.856 3.856 0 0 0-1.164 1.97c-.086.389-.077.791.024 1.177.102.385.295.744.565 1.051.364.323.821.541 1.315.628a2.77 2.77 0 0 0 1.468-.139 2.089 2.089 0 0 0 1.144-.836c.263-.396.368-.868.294-1.33a2.916 2.916 0 0 0-.441-1.114 3.125 3.125 0 0 0-.866-.868 4.721 4.721 0 0 0-2.287-.612zM258.785 241.629l-2.731-12.447a1.5 1.5 0 0 1 .016-.705c.062-.231.177-.446.339-.63.161-.185.364-.333.595-.434.23-.101.481-.153.736-.152l34.386.159c.24.001.477.048.696.14.219.092.415.226.575.393.161.168.281.364.355.578.074.214.099.44.073.664l-3.555 28.514a2.171 2.171 0 0 1-.788 1.407 2.464 2.464 0 0 1-1.591.552l-22.427-.16a2.494 2.494 0 0 1-1.447-.476 2.227 2.227 0 0 1-.84-1.2l-4.392-16.203z"/><path fill="#B78876" d="M255.713 235.081a3.807 3.807 0 0 1 2.049.586 3.44 3.44 0 0 1 1.336 1.568c.562 1.371 1.385 2.986 2.3 3.451 1.686.857 4.601 1.555 6.143.845 1.542-.71 7.672-5.875 8.744-5.299 1.071.575 1.999 1.86.928 3.01-1.072 1.151-6.758 4.602-5.686 5.752 1.072 1.15 13.07-3.904 14.9-3.463 1.829.44 2.914 1.505 1.842 2.203-1.071.697-9.214 3.561-9.671 4.564 0 0 12.272-3.01 12.743-2.3.47.709 1.228 1.872 0 2.3-1.229.429-11.763 3.023-12.743 3.452a23.128 23.128 0 0 1-4.744 1.297c-.327 0-2.732.758-4.941 1.468a11.54 11.54 0 0 1-7.646-.183l-1.306-.478a4.825 4.825 0 0 1-2.285-1.798 4.363 4.363 0 0 1-.748-2.705l.262-3.916-1.307-3.243-.17-7.111z"/><path fill="#FAFAFA" d="M276.35 232.058c0 .245-.079.484-.225.686a1.296 1.296 0 0 1-.598.45 1.39 1.39 0 0 1-.764.058 1.33 1.33 0 0 1-.667-.352 1.196 1.196 0 0 1-.342-.642 1.154 1.154 0 0 1 .102-.712c.109-.222.286-.409.51-.535.223-.127.482-.189.743-.176.335.015.651.151.882.379.231.228.36.53.359.844z"/><path fill="#5FBE3F" d="M6.096 370.373l.522-.379 1.595-1.114 6.169-4.259 23.29-15.909 80.784-54.888-.118.343c-7.013-18.374-10.603-37.739-10.613-57.25a167.605 167.605 0 0 1 1.098-19.275 165.558 165.558 0 0 1 3.346-18.467 156.784 156.784 0 0 1 12.129-33.496c15.29-30.524 39.9-56.119 70.72-73.55l5.881-3.158c1.712-.906 3.215-1.567 4.405-2.142l2.718-1.224c.614-.293.941-.416.941-.416s-.301.172-.915.478L205.434 87c-1.176.6-2.679 1.224-4.378 2.191l-5.829 3.206c-30.613 17.563-55.052 43.148-70.289 73.588a156.177 156.177 0 0 0-12.05 33.385 161.578 161.578 0 0 0-3.32 18.358 166.326 166.326 0 0 0-1.098 19.201c-.014 19.43 3.527 38.719 10.469 57.029l.079.221-.196.134-80.915 54.705-23.394 15.762c-2.732 1.811-4.823 3.219-6.26 4.186l-1.621 1.064-.536.343z"/><path fill="#5FBE3F" d="M156.372 50.935s-.249.134-.745.367l-2.196 1.004-3.568 1.627c-1.425.636-2.98 1.518-4.783 2.448a164.09 164.09 0 0 0-28.192 18.602 176.252 176.252 0 0 0-16.833 15.811 187.038 187.038 0 0 0-16.403 20.438c-11.321 16.512-19.95 34.512-25.603 53.407a242.611 242.611 0 0 0-9.972 57.91 297.488 297.488 0 0 0 1.176 47.912 154.05 154.05 0 0 0 6.652 31.819 120.488 120.488 0 0 0 3.098 8.31l.902 2.129.287.735s-.13-.233-.353-.71l-1.02-2.166a110.72 110.72 0 0 1-3.214-8.285 149.953 149.953 0 0 1-6.888-31.734 293.995 293.995 0 0 1-1.372-48.034 240.427 240.427 0 0 1 9.946-58.058c5.673-18.952 14.342-37.003 25.72-53.553a186.882 186.882 0 0 1 16.573-20.487 173.904 173.904 0 0 1 16.991-15.812 160.931 160.931 0 0 1 28.387-18.479c1.804-.893 3.372-1.75 4.81-2.362l3.607-1.579 2.222-.954.771-.306zM198.756 0s.065.061.17.208l.457.624 1.699 2.448 6.339 9.374c5.411 8.102 13.07 19.581 22.049 32.957l-.353-.122a248.689 248.689 0 0 1 37.575-6.609 253.63 253.63 0 0 1 37.301-.942 245.944 245.944 0 0 1 30.269 3.402l3.124.539 2.94.6 5.398 1.125c3.333.82 6.208 1.469 8.548 2.093l5.345 1.517 1.386.417c.158.036.312.089.457.159a3.12 3.12 0 0 1-.483-.098l-1.399-.355-5.385-1.395c-2.339-.588-5.227-1.224-8.56-1.995l-5.398-1.114-2.941-.575-3.123-.514a249.98 249.98 0 0 0-30.204-3.267 256.196 256.196 0 0 0-37.21.966 250.931 250.931 0 0 0-37.47 6.535h-.236l-.117-.183c-8.901-13.462-16.468-24.954-21.84-33.043-2.614-4.039-4.731-7.245-6.182-9.472l-1.62-2.521-.405-.661a2.256 2.256 0 0 1-.131-.098zM530.556 163.868a1.183 1.183 0 0 1-.143-.343l-.353-1.04c-.314-.955-.745-2.276-1.307-3.977-.562-1.702-1.19-3.855-2.118-6.266l-1.411-3.892c-.262-.685-.51-1.395-.784-2.117l-.915-2.203c-1.307-2.998-2.614-6.315-4.287-9.791-.85-1.725-1.634-3.549-2.614-5.36l-2.98-5.531a195.492 195.492 0 0 0-15.579-23.571 211.182 211.182 0 0 0-19.134-21.16c-1.607-1.517-3.176-2.986-4.692-4.43-1.516-1.444-3.11-2.717-4.587-4.014-2.928-2.631-5.842-4.895-8.443-6.988l-1.922-1.542-1.842-1.395-3.425-2.57c-2.117-1.628-4.025-2.925-5.567-4.014l-3.542-2.448-.915-.66-.301-.245s.131 0 .34.183l.954.624 3.62 2.448c1.569 1.052 3.503 2.325 5.647 3.928l3.463 2.473 1.895 1.383 1.921 1.53c2.614 2.092 5.581 4.32 8.522 6.938 1.49 1.297 3.071 2.595 4.626 4.002l4.719 4.418a206.565 206.565 0 0 1 19.238 21.196 189.516 189.516 0 0 1 15.579 23.681l2.98 5.605c.954 1.811 1.738 3.671 2.614 5.373 1.712 3.463 2.98 6.792 4.222 9.79.313.759.614 1.493.901 2.215.288.722.51 1.444.758 2.13.484 1.382.941 2.692 1.373 3.903.901 2.448 1.503 4.578 2.012 6.315.51 1.738.889 3.06 1.164 4.027.117.428.209.771.287 1.04l.026.355zM481.453 503.572s-.079-.11-.209-.342l-.549-1.028c-.497-.943-1.19-2.289-2.091-4.027a7839.34 7839.34 0 0 1-7.751-15.15c-6.6-12.985-15.866-31.257-26.636-52.49l-.117-.22.222-.159a249.454 249.454 0 0 0 28.4-23.448c1.542-1.407 2.98-2.876 4.405-4.345l4.273-4.356 4.026-4.431c1.307-1.48 2.614-2.912 3.921-4.417 2.47-2.999 4.992-5.887 7.214-8.873l3.372-4.394c1.072-1.468 2.091-2.949 3.124-4.393a235.616 235.616 0 0 0 19.186-32.284c2.405-4.761 4.261-9.203 5.947-13.07 1.686-3.868 2.875-7.343 3.921-10.084 1.045-2.742 1.699-4.957 2.209-6.462.261-.71.457-1.224.601-1.677.063-.191.137-.379.222-.563 0 0 0 .196-.157.588-.157.391-.301.966-.536 1.689-.483 1.517-1.189 3.671-2.091 6.498-.902 2.827-2.274 6.205-3.816 10.133-1.543 3.928-3.49 8.359-5.869 13.131a233.016 233.016 0 0 1-19.107 32.431c-1.033 1.444-2.039 2.938-3.124 4.406l-3.372 4.406c-2.222 3.01-4.744 5.899-7.228 8.897-1.215 1.517-2.613 2.961-3.92 4.442-1.307 1.481-2.68 2.95-4.026 4.455l-4.287 4.357c-1.424 1.468-2.862 2.949-4.404 4.356a248.408 248.408 0 0 1-28.518 23.498l.104-.368 26.414 52.624 7.58 15.188c.863 1.762 1.543 3.12 2 4.075l.51 1.065.157.342z"/><g fill="#fff" opacity=".8"><path d="M6.096 370.373l.522-.379 1.595-1.114 6.169-4.259 23.29-15.909 80.784-54.888-.118.343c-7.013-18.374-10.603-37.739-10.613-57.25a167.605 167.605 0 0 1 1.098-19.275 165.558 165.558 0 0 1 3.346-18.467 156.784 156.784 0 0 1 12.129-33.496c15.29-30.524 39.9-56.119 70.72-73.55l5.881-3.158c1.712-.906 3.215-1.567 4.405-2.142l2.718-1.224c.614-.293.941-.416.941-.416s-.301.172-.915.478L205.434 87c-1.176.6-2.679 1.224-4.378 2.191l-5.829 3.206c-30.613 17.563-55.052 43.148-70.289 73.588a156.177 156.177 0 0 0-12.05 33.385 161.578 161.578 0 0 0-3.32 18.358 166.326 166.326 0 0 0-1.098 19.201c-.014 19.43 3.527 38.719 10.469 57.029l.079.221-.196.134-80.915 54.705-23.394 15.762c-2.732 1.811-4.823 3.219-6.26 4.186l-1.621 1.064-.536.343z" opacity=".8"/><path d="M156.37 50.935s-.249.134-.745.367l-2.196 1.004-3.568 1.627c-1.424.636-2.98 1.518-4.783 2.448a164.09 164.09 0 0 0-28.192 18.602 176.252 176.252 0 0 0-16.833 15.811 187.037 187.037 0 0 0-16.403 20.438c-11.321 16.512-19.95 34.512-25.603 53.407a242.611 242.611 0 0 0-9.972 57.91 297.477 297.477 0 0 0 1.176 47.912 154.044 154.044 0 0 0 6.652 31.819 120.551 120.551 0 0 0 3.098 8.31l.902 2.129.287.735s-.13-.233-.353-.71l-1.02-2.166c-.81-1.86-1.96-4.638-3.214-8.285a149.953 149.953 0 0 1-6.888-31.734 293.972 293.972 0 0 1-1.372-48.034 240.417 240.417 0 0 1 9.946-58.058c5.673-18.952 14.343-37.003 25.72-53.553a186.88 186.88 0 0 1 16.573-20.487 173.904 173.904 0 0 1 16.991-15.812 160.931 160.931 0 0 1 28.387-18.479c1.804-.893 3.372-1.75 4.81-2.362l3.607-1.579 2.222-.954.771-.306zM198.756 0s.065.061.17.208l.457.624 1.699 2.448 6.339 9.374c5.411 8.102 13.07 19.581 22.049 32.957l-.353-.122a248.689 248.689 0 0 1 37.575-6.609 253.63 253.63 0 0 1 37.301-.942 245.944 245.944 0 0 1 30.269 3.402l3.124.539 2.94.6 5.398 1.125c3.333.82 6.208 1.469 8.548 2.093l5.345 1.517 1.386.417c.158.036.312.089.457.159a3.12 3.12 0 0 1-.483-.098l-1.399-.355-5.385-1.395c-2.339-.588-5.227-1.224-8.56-1.995l-5.398-1.114-2.941-.575-3.123-.514a249.98 249.98 0 0 0-30.204-3.267 256.196 256.196 0 0 0-37.21.966 250.931 250.931 0 0 0-37.47 6.535h-.236l-.117-.183c-8.901-13.462-16.468-24.954-21.84-33.043-2.614-4.039-4.731-7.245-6.182-9.472l-1.62-2.521-.405-.661a2.256 2.256 0 0 1-.131-.098zM530.554 163.868a1.183 1.183 0 0 1-.143-.343l-.353-1.04c-.314-.955-.745-2.276-1.307-3.977-.562-1.702-1.19-3.855-2.118-6.266l-1.411-3.892c-.261-.685-.51-1.395-.784-2.117l-.915-2.203c-1.307-2.998-2.614-6.315-4.287-9.791-.85-1.725-1.634-3.549-2.614-5.36l-2.98-5.531a195.492 195.492 0 0 0-15.579-23.571 211.182 211.182 0 0 0-19.134-21.16c-1.607-1.517-3.176-2.986-4.692-4.43-1.516-1.444-3.11-2.717-4.587-4.014-2.928-2.631-5.842-4.895-8.443-6.988l-1.922-1.542-1.842-1.395-3.425-2.57c-2.117-1.628-4.025-2.925-5.567-4.014l-3.542-2.448-.915-.66-.301-.245s.131 0 .34.183l.954.624 3.621 2.448c1.568 1.052 3.502 2.325 5.646 3.928l3.463 2.473 1.895 1.383 1.921 1.53c2.614 2.092 5.581 4.32 8.522 6.938 1.49 1.297 3.071 2.595 4.627 4.002l4.718 4.418a206.565 206.565 0 0 1 19.238 21.196 189.516 189.516 0 0 1 15.579 23.681l2.98 5.605c.954 1.811 1.738 3.671 2.614 5.373 1.712 3.463 2.98 6.792 4.222 9.79.313.759.614 1.493.901 2.215.288.722.51 1.444.758 2.13.484 1.382.941 2.692 1.373 3.903.902 2.448 1.503 4.578 2.012 6.315.51 1.738.889 3.06 1.164 4.027.117.428.209.771.287 1.04l.026.355zM481.453 503.572s-.079-.11-.209-.342l-.549-1.028c-.497-.943-1.19-2.289-2.091-4.027a7839.34 7839.34 0 0 1-7.751-15.15c-6.6-12.985-15.866-31.257-26.636-52.49l-.117-.22.222-.159a249.454 249.454 0 0 0 28.4-23.448c1.542-1.407 2.98-2.876 4.405-4.345l4.273-4.356 4.026-4.431c1.307-1.48 2.614-2.912 3.921-4.417 2.47-2.999 4.992-5.887 7.214-8.873l3.372-4.394c1.072-1.468 2.091-2.949 3.124-4.393a235.616 235.616 0 0 0 19.186-32.284c2.405-4.761 4.261-9.203 5.947-13.07 1.686-3.868 2.875-7.343 3.921-10.084 1.045-2.742 1.699-4.957 2.209-6.462.261-.71.457-1.224.601-1.677.063-.191.137-.379.222-.563 0 0 0 .196-.157.588-.157.391-.301.966-.536 1.689-.483 1.517-1.189 3.671-2.091 6.498-.902 2.827-2.274 6.205-3.816 10.133-1.543 3.928-3.49 8.359-5.869 13.131a233.016 233.016 0 0 1-19.107 32.431c-1.033 1.444-2.039 2.938-3.124 4.406l-3.372 4.406c-2.222 3.01-4.744 5.899-7.228 8.897-1.215 1.517-2.613 2.961-3.92 4.442-1.307 1.481-2.68 2.95-4.026 4.455l-4.287 4.357c-1.424 1.468-2.862 2.949-4.404 4.356a248.408 248.408 0 0 1-28.518 23.498l.104-.368 26.414 52.624 7.58 15.188c.863 1.762 1.543 3.12 2 4.075l.51 1.065.157.342z" opacity=".8"/></g><path fill="#5FBE3F" d="M396.121 152.731c3.096 0 5.606-2.35 5.606-5.25s-2.51-5.25-5.606-5.25c-3.097 0-5.607 2.35-5.607 5.25s2.51 5.25 5.607 5.25zM367.812 47.9c0 1.041-.33 2.059-.948 2.925a5.554 5.554 0 0 1-2.524 1.938 5.975 5.975 0 0 1-3.249.297 5.745 5.745 0 0 1-2.877-1.444 5.16 5.16 0 0 1-1.535-2.697 4.943 4.943 0 0 1 .325-3.041 5.357 5.357 0 0 1 2.075-2.36 5.898 5.898 0 0 1 3.126-.88c.738 0 1.468.136 2.149.4a5.65 5.65 0 0 1 1.821 1.142 5.25 5.25 0 0 1 1.214 1.707c.281.638.425 1.322.423 2.013zM535.64 164.076a5.025 5.025 0 0 1-.941 2.928 5.56 5.56 0 0 1-2.522 1.944 5.98 5.98 0 0 1-3.25.302 5.752 5.752 0 0 1-2.881-1.441 5.168 5.168 0 0 1-1.538-2.697 4.948 4.948 0 0 1 .323-3.043 5.353 5.353 0 0 1 2.075-2.361 5.886 5.886 0 0 1 3.127-.882c1.487 0 2.914.553 3.965 1.537 1.052.985 1.642 2.32 1.642 3.713zM245.585 409.657a5.026 5.026 0 0 1-.951 2.914 5.56 5.56 0 0 1-2.519 1.928 5.968 5.968 0 0 1-3.239.294 5.73 5.73 0 0 1-2.867-1.44 5.153 5.153 0 0 1-1.531-2.688 4.942 4.942 0 0 1 .321-3.032 5.343 5.343 0 0 1 2.065-2.354 5.879 5.879 0 0 1 3.114-.884c.737 0 1.468.136 2.149.401a5.632 5.632 0 0 1 1.82 1.141 5.243 5.243 0 0 1 1.215 1.707 4.96 4.96 0 0 1 .423 2.013zM168.29 411.101c3.097 0 5.607-2.35 5.607-5.25 0-2.899-2.51-5.25-5.607-5.25-3.096 0-5.606 2.351-5.606 5.25 0 2.9 2.51 5.25 5.606 5.25zM475.833 300.543c3.097 0 5.607-2.351 5.607-5.251 0-2.899-2.51-5.25-5.607-5.25-3.096 0-5.606 2.351-5.606 5.25 0 2.9 2.51 5.251 5.606 5.251zM60.82 166.793a5.013 5.013 0 0 1-.946 2.916 5.538 5.538 0 0 1-2.516 1.934 5.952 5.952 0 0 1-3.24.299 5.74 5.74 0 0 1-2.87-1.437 5.156 5.156 0 0 1-1.535-2.688 4.939 4.939 0 0 1 .32-3.033 5.34 5.34 0 0 1 2.064-2.357 5.88 5.88 0 0 1 3.115-.884c1.487 0 2.913.553 3.965 1.537 1.051.985 1.642 2.32 1.642 3.713zM375.655 208.782a5.011 5.011 0 0 1-.951 2.913 5.541 5.541 0 0 1-2.519 1.928 5.959 5.959 0 0 1-3.239.294 5.734 5.734 0 0 1-2.867-1.44 5.149 5.149 0 0 1-1.531-2.688 4.95 4.95 0 0 1 .321-3.032 5.35 5.35 0 0 1 2.066-2.354 5.881 5.881 0 0 1 3.113-.884 5.93 5.93 0 0 1 2.149.401c.681.265 1.3.652 1.821 1.141.52.489.933 1.069 1.214 1.708.281.638.425 1.322.423 2.013zM484.107 211.89c3.096 0 5.607-2.35 5.607-5.25s-2.511-5.25-5.607-5.25c-3.097 0-5.607 2.35-5.607 5.25s2.51 5.25 5.607 5.25zM121.659 186.631a5.014 5.014 0 0 1-.945 2.916 5.54 5.54 0 0 1-2.516 1.934 5.973 5.973 0 0 1-3.24.299 5.74 5.74 0 0 1-2.87-1.437 5.149 5.149 0 0 1-1.535-2.688 4.948 4.948 0 0 1 .319-3.034 5.34 5.34 0 0 1 2.065-2.356 5.88 5.88 0 0 1 3.115-.885c1.486.004 2.91.558 3.961 1.542 1.051.984 1.643 2.317 1.646 3.709zM120.429 122.332c3.097 0 5.607-2.351 5.607-5.25 0-2.9-2.51-5.25-5.607-5.25-3.096 0-5.607 2.35-5.607 5.25 0 2.899 2.511 5.25 5.607 5.25zM63 316.024c0 .52-.164 1.029-.473 1.462a2.789 2.789 0 0 1-1.26.969 2.985 2.985 0 0 1-1.624.149 2.87 2.87 0 0 1-1.44-.72 2.585 2.585 0 0 1-.768-1.347 2.475 2.475 0 0 1 .16-1.52 2.675 2.675 0 0 1 1.035-1.181 2.948 2.948 0 0 1 1.56-.443c.37-.002.736.065 1.078.197a2.8 2.8 0 0 1 .914.57c.26.244.468.535.608.855.141.32.212.663.21 1.009zM110.444 239.866c0 .521-.165 1.029-.473 1.462-.309.433-.748.77-1.261.969a2.996 2.996 0 0 1-1.624.15 2.879 2.879 0 0 1-1.439-.72 2.589 2.589 0 0 1-.769-1.347 2.479 2.479 0 0 1 .16-1.521 2.683 2.683 0 0 1 1.035-1.181 2.947 2.947 0 0 1 1.561-.443 2.95 2.95 0 0 1 1.078.197c.341.132.652.325.913.57.261.245.468.535.609.855.14.32.212.663.21 1.009zM164.854 331.933c0 .521-.164 1.029-.473 1.462-.309.433-.748.77-1.261.969a2.996 2.996 0 0 1-1.624.15 2.879 2.879 0 0 1-1.439-.72 2.589 2.589 0 0 1-.769-1.347 2.486 2.486 0 0 1 .16-1.521c.213-.48.573-.891 1.035-1.181a2.95 2.95 0 0 1 1.561-.443 2.95 2.95 0 0 1 1.078.197c.341.132.652.325.913.57.261.245.468.535.609.855.141.32.212.663.21 1.009zM136.218 238.642a2.51 2.51 0 0 1-.474 1.462c-.309.433-.748.77-1.261.969a2.985 2.985 0 0 1-1.624.15 2.867 2.867 0 0 1-1.438-.72 2.582 2.582 0 0 1-.769-1.347 2.468 2.468 0 0 1 .16-1.52 2.67 2.67 0 0 1 1.034-1.181 2.954 2.954 0 0 1 1.562-.444c.369-.001.735.066 1.077.197.342.132.652.326.913.57.262.245.469.536.609.856.141.32.212.662.211 1.008zM176.315 179.533c.003.52-.16 1.03-.467 1.465a2.777 2.777 0 0 1-1.258.974 2.991 2.991 0 0 1-1.625.155 2.876 2.876 0 0 1-1.442-.717 2.595 2.595 0 0 1-.773-1.347 2.481 2.481 0 0 1 .158-1.522 2.67 2.67 0 0 1 1.035-1.183 2.942 2.942 0 0 1 1.562-.444c.743 0 1.456.275 1.983.766a2.55 2.55 0 0 1 .827 1.853zM76.634 242.473c1.552 0 2.81-1.178 2.81-2.631 0-1.453-1.258-2.631-2.81-2.631s-2.81 1.178-2.81 2.631c0 1.453 1.258 2.631 2.81 2.631zM453.315 343.449c0 .521-.165 1.029-.473 1.462-.309.433-.748.77-1.261.969a2.996 2.996 0 0 1-1.624.15 2.879 2.879 0 0 1-1.439-.72 2.589 2.589 0 0 1-.769-1.347 2.486 2.486 0 0 1 .16-1.521c.213-.48.573-.891 1.035-1.18a2.941 2.941 0 0 1 1.561-.444c.746 0 1.46.277 1.987.771.527.493.823 1.162.823 1.86zM433.749 329.694a2.51 2.51 0 0 1-.475 1.463c-.309.433-.749.77-1.263.969a2.98 2.98 0 0 1-1.625.147 2.87 2.87 0 0 1-1.439-.723 2.584 2.584 0 0 1-.766-1.351 2.474 2.474 0 0 1 .166-1.521c.214-.48.576-.89 1.04-1.178a2.952 2.952 0 0 1 1.565-.438c.368 0 .733.069 1.073.201.341.132.649.326.909.571.26.244.466.535.606.854.14.319.211.661.209 1.006zM474.304 355.846a2.51 2.51 0 0 1-.474 1.462c-.309.433-.748.77-1.261.969-.514.2-1.079.252-1.624.15a2.867 2.867 0 0 1-1.438-.72 2.582 2.582 0 0 1-.769-1.347 2.475 2.475 0 0 1 .159-1.52 2.678 2.678 0 0 1 1.035-1.181 2.951 2.951 0 0 1 1.562-.444c.369-.001.735.066 1.077.197.342.132.652.326.913.57.262.245.469.536.609.856.141.32.212.662.211 1.008zM363.839 358.306c0 .521-.165 1.029-.474 1.462-.309.433-.747.77-1.261.969a2.992 2.992 0 0 1-1.623.15 2.874 2.874 0 0 1-1.439-.72 2.582 2.582 0 0 1-.769-1.347 2.472 2.472 0 0 1 .16-1.521c.212-.48.572-.891 1.035-1.18a2.939 2.939 0 0 1 1.561-.444c.745 0 1.46.277 1.987.771.527.493.823 1.162.823 1.86zM381.639 398.692c0 .521-.165 1.03-.474 1.463-.309.433-.749.77-1.263.969-.514.199-1.08.25-1.626.148a2.877 2.877 0 0 1-1.438-.724 2.579 2.579 0 0 1-.766-1.35 2.48 2.48 0 0 1 .165-1.521 2.681 2.681 0 0 1 1.041-1.179 2.949 2.949 0 0 1 1.565-.437 2.906 2.906 0 0 1 1.978.775c.524.493.818 1.16.818 1.856zM350.481 386.478a2.51 2.51 0 0 1-.468 1.467 2.782 2.782 0 0 1-1.26.974 2.987 2.987 0 0 1-1.627.153 2.873 2.873 0 0 1-1.442-.721 2.59 2.59 0 0 1-.769-1.35 2.471 2.471 0 0 1 .163-1.523 2.675 2.675 0 0 1 1.04-1.18 2.945 2.945 0 0 1 1.566-.439c.742 0 1.454.276 1.978.767.525.492.819 1.158.819 1.852zM168.958 150.1a2.517 2.517 0 0 1-.467 1.465 2.787 2.787 0 0 1-1.259.975 2.986 2.986 0 0 1-1.624.154 2.868 2.868 0 0 1-1.442-.717 2.574 2.574 0 0 1-.773-1.347 2.468 2.468 0 0 1 .158-1.522 2.68 2.68 0 0 1 1.034-1.183 2.957 2.957 0 0 1 1.563-.444c.743 0 1.456.276 1.982.766.527.491.824 1.157.828 1.853zM235.261 119.578a2.51 2.51 0 0 1-.468 1.465 2.772 2.772 0 0 1-1.258.975 2.99 2.99 0 0 1-1.625.155 2.885 2.885 0 0 1-1.442-.718 2.58 2.58 0 0 1-.772-1.347c-.11-.51-.055-1.04.157-1.522a2.68 2.68 0 0 1 1.035-1.182 2.944 2.944 0 0 1 1.563-.445 2.91 2.91 0 0 1 1.982.767c.527.49.824 1.156.828 1.852zM317.325 112.358c0 .52-.165 1.029-.474 1.462a2.782 2.782 0 0 1-1.261.969 2.982 2.982 0 0 1-1.623.149 2.87 2.87 0 0 1-1.439-.72 2.582 2.582 0 0 1-.769-1.347 2.477 2.477 0 0 1 .16-1.52 2.678 2.678 0 0 1 1.035-1.181 2.947 2.947 0 0 1 1.561-.443c.745 0 1.46.277 1.987.77a2.55 2.55 0 0 1 .823 1.861zM446.44 49.356a2.51 2.51 0 0 1-.467 1.465 2.776 2.776 0 0 1-1.258.975 2.99 2.99 0 0 1-1.625.154 2.873 2.873 0 0 1-1.442-.717 2.59 2.59 0 0 1-.773-1.347 2.482 2.482 0 0 1 .158-1.522 2.671 2.671 0 0 1 1.035-1.183 2.946 2.946 0 0 1 1.562-.444c.743 0 1.456.276 1.983.766a2.55 2.55 0 0 1 .827 1.853zM230.843 45.085c0 .52-.165 1.03-.474 1.462-.309.433-.748.77-1.261.969-.513.199-1.078.251-1.624.15a2.871 2.871 0 0 1-1.438-.72 2.581 2.581 0 0 1-.769-1.348 2.47 2.47 0 0 1 .16-1.52c.212-.48.572-.892 1.034-1.18a2.952 2.952 0 0 1 1.562-.444 2.922 2.922 0 0 1 1.983.774c.526.493.823 1.16.827 1.857z"/><path fill="#5FBE3F" d="M198.757 334.246s-.117-.098-.326-.306l-.928-.918-3.49-3.585c-.758-.796-1.634-1.64-2.496-2.632l-2.81-3.255c-.994-1.224-2.105-2.386-3.189-3.757l-3.346-4.381a134.928 134.928 0 0 1-14.011-23.032 117.898 117.898 0 0 1-9.763-31.109c-.575-2.84-.771-5.691-1.124-8.481l-.274-4.174c0-.685-.092-1.383-.131-2.056-.039-.673 0-1.37 0-2.056v-4.038l.157-3.965c0-1.31.131-2.607.248-3.88.118-1.273.235-2.533.34-3.781a128.233 128.233 0 0 1 5.777-25.945 119.267 119.267 0 0 1 6.94-16.644 70.113 70.113 0 0 1 2.391-4.32c.288-.489.523-.844.68-1.089.157-.245.248-.367.261-.355a2.775 2.775 0 0 1-.196.379l-.627 1.126c-.549.979-1.307 2.448-2.261 4.357a126.111 126.111 0 0 0-6.731 16.681 130.677 130.677 0 0 0-5.698 25.822c-.105 1.224-.222 2.447-.327 3.769-.104 1.322-.209 2.558-.235 3.855-.026 1.297-.105 2.619-.157 3.941-.052 1.322 0 2.68 0 4.026v2.044c0 .685.091 1.358.131 2.044l.274 4.161c.366 2.778.562 5.605 1.124 8.432a118.716 118.716 0 0 0 9.672 30.974 138.081 138.081 0 0 0 13.827 23.008l3.294 4.393c1.072 1.371 2.17 2.607 3.15 3.782l2.757 3.28c.85 1.003 1.713 1.86 2.444 2.655l3.399 3.672.875.967c.288.244.392.379.379.391zM76.556 246.377a1.484 1.484 0 0 1 0-.355v-1.04c0-.967 0-2.313.091-4.014 0-.869 0-1.848.078-2.901.079-1.052.144-2.203.236-3.439.183-2.447.313-5.287.706-8.383.183-1.542.365-3.169.548-4.895.183-1.726.51-3.439.785-5.25.483-3.672 1.307-7.478 2.065-11.528 3.677-17.56 9.483-34.67 17.304-50.996 1.869-3.733 3.581-7.343 5.424-10.537.902-1.628 1.725-3.219 2.614-4.7l2.614-4.271c1.581-2.741 3.215-5.115 4.574-7.233.706-1.052 1.307-2.043 1.947-2.937l1.713-2.447 2.404-3.329.628-.857c.072-.094.151-.184.235-.269-.038.11-.095.214-.17.306l-.588.893-2.287 3.39-1.66 2.448-1.895 2.949c-1.307 2.13-2.928 4.516-4.483 7.27l-2.496 4.271c-.876 1.493-1.686 3.096-2.614 4.724-1.804 3.23-3.503 6.804-5.346 10.537a255.99 255.99 0 0 0-10.142 24.99 249.826 249.826 0 0 0-7.11 25.871c-.81 4.039-1.62 7.869-2.143 11.492-.275 1.811-.588 3.549-.81 5.238-.223 1.688-.393 3.304-.589 4.895-.431 3.084-.588 5.898-.81 8.358-.105 1.224-.196 2.375-.288 3.439-.091 1.065-.104 2.007-.143 2.888-.092 1.702-.17 3.035-.222 4.002v1.04c-.04.133-.097.26-.17.38zM344.17 94.992a5.521 5.521 0 0 1-.981-.245l-2.796-.808a64.736 64.736 0 0 0-4.418-1.223c-1.738-.416-3.699-.992-5.921-1.432l-3.463-.747c-1.202-.257-2.47-.453-3.777-.685-2.614-.502-5.424-.845-8.391-1.224a167.941 167.941 0 0 0-19.421-1.089c-6.493.083-12.975.537-19.409 1.358-2.954.44-5.764.82-8.364 1.359-1.307.257-2.614.465-3.778.734l-3.45.808c-2.209.465-4.156 1.064-5.881 1.517a75.41 75.41 0 0 0-4.405 1.298l-2.784.856a7.85 7.85 0 0 1-.98.257 5.02 5.02 0 0 1 .941-.38l2.732-.966a59.402 59.402 0 0 1 4.378-1.407c1.764-.49 3.673-1.114 5.881-1.616l3.451-.844c1.202-.282 2.47-.502 3.777-.771 2.614-.563 5.437-.967 8.404-1.42a149.258 149.258 0 0 1 38.987-.281c2.966.416 5.803.77 8.416 1.297 1.307.257 2.614.453 3.791.722l3.463.796c2.222.465 4.169 1.064 5.908 1.53 1.738.464 3.215.93 4.404 1.345l2.745.918c.325.084.64.199.941.343zM395.155 150.736a4.576 4.576 0 0 1-.653-.66c-.458-.49-1.046-1.139-1.778-1.959l-1.307-1.419c-.47-.502-1.019-1.028-1.594-1.616-1.163-1.138-2.418-2.508-3.921-3.855l-2.405-2.166c-.85-.746-1.791-1.456-2.719-2.227-1.855-1.567-3.999-3.06-6.221-4.663-9.816-6.797-20.788-11.994-32.452-15.371-2.705-.722-5.228-1.456-7.711-1.921-1.215-.257-2.378-.539-3.529-.734l-3.28-.527c-2.091-.391-4.012-.526-5.685-.722-.837-.098-1.621-.196-2.34-.257l-1.96-.049-2.732-.183a5.009 5.009 0 0 1-.954-.11c.317-.03.637-.03.954 0h4.731c.732 0 1.516.122 2.353.195 1.686.16 3.62.27 5.724.625l3.307.501c1.15.172 2.326.453 3.555.698 2.47.44 5.045 1.224 7.763 1.872 11.768 3.335 22.825 8.566 32.675 15.457 2.221 1.64 4.378 3.145 6.221 4.736.928.796 1.869 1.518 2.705 2.276l2.392 2.203c1.542 1.371 2.784 2.766 3.921 3.941.549.587 1.098 1.126 1.555 1.652.458.526.863 1.016 1.229 1.469.705.832 1.307 1.517 1.686 2.031.181.247.339.51.47.783zM423.111 117.485a1.537 1.537 0 0 1-.274-.22l-.771-.685-2.902-2.68-2.091-1.946c-.784-.698-1.66-1.408-2.614-2.203-1.882-1.554-3.921-3.427-6.443-5.238l-3.921-2.925c-1.307-1.016-2.836-1.958-4.326-2.998-2.954-2.117-6.326-4.1-9.829-6.242a191.356 191.356 0 0 0-23.982-11.785 197.737 197.737 0 0 0-25.787-8.053c-4.078-.868-7.946-1.762-11.632-2.276-1.83-.281-3.594-.636-5.306-.832l-4.927-.563c-3.137-.428-5.999-.514-8.509-.71-1.307-.073-2.418-.171-3.502-.22h-2.941l-4.078-.098h-1.424c.121-.02.244-.02.366 0h8.09c1.084 0 2.248.098 3.515.16 2.51.158 5.385.22 8.535.611l4.953.526c1.712.196 3.49.526 5.333.796 3.698.502 7.58 1.383 11.671 2.227 17.705 3.968 34.602 10.606 50.031 19.654 3.502 2.167 6.874 4.174 9.828 6.315 1.49 1.053 2.967 2.007 4.313 3.035l3.842 2.974c2.497 1.836 4.536 3.672 6.405 5.324.928.795 1.803 1.53 2.614 2.239l2.051 1.995 2.823 2.766.719.734c.074.097.132.205.17.318zM513.853 238.336a1.06 1.06 0 0 1 0-.318v-.967c0-.881 0-2.117-.078-3.671v-2.656c0-.967-.105-2.031-.157-3.169-.144-2.264-.196-4.896-.523-7.686-.131-1.419-.261-2.913-.418-4.467-.157-1.554-.405-3.157-.628-4.822-.392-3.328-1.071-6.865-1.738-10.585a205.54 205.54 0 0 0-6.352-23.767 211.266 211.266 0 0 0-9.344-22.922c-1.726-3.414-3.307-6.682-5.019-9.631-.837-1.481-1.595-2.949-2.418-4.296l-2.379-3.891c-1.464-2.448-2.98-4.663-4.247-6.597l-1.791-2.68-1.594-2.203-2.183-3.059-.562-.808-.17-.281a153.64 153.64 0 0 1 10.965 15.395l2.418 3.88c.837 1.358 1.608 2.814 2.457 4.295 1.739 2.95 3.346 6.217 5.085 9.632a200.253 200.253 0 0 1 9.423 22.983 200.946 200.946 0 0 1 6.247 23.913c.64 3.671 1.307 7.269 1.673 10.622.209 1.677.457 3.28.588 4.834.131 1.555.261 3.06.379 4.48.508 6.135.63 12.293.366 18.442zM485.048 206.64c.046.194.081.39.104.587.066.429.144 1.004.235 1.738.17 1.53.576 3.782.772 6.707.741 8.233.924 16.502.549 24.757-.197 5.238-.706 10.953-1.425 17.072a166.374 166.374 0 0 1-3.464 19.373c-.365 1.701-.771 3.415-1.307 5.128l-1.398 5.213c-1.085 3.476-2.13 7.049-3.476 10.598a144.91 144.91 0 0 1-9.633 21.503 168.476 168.476 0 0 1-13.07 19.85 194.03 194.03 0 0 1-14.624 16.864 209.204 209.204 0 0 1-28.963 24.758 194.573 194.573 0 0 1-22.061 13.657c-2.68 1.506-4.888 2.448-6.339 3.194l-1.66.796c-.379.183-.575.257-.575.257s.17-.11.536-.306l1.633-.857c1.425-.771 3.608-1.762 6.274-3.292a208.414 208.414 0 0 0 21.931-13.804 213.519 213.519 0 0 0 28.753-24.807 195.041 195.041 0 0 0 14.534-16.827 167.302 167.302 0 0 0 13.004-19.777 145.818 145.818 0 0 0 9.606-21.404c1.307-3.537 2.392-7.098 3.477-10.562.47-1.75.941-3.488 1.411-5.201.471-1.713.889-3.414 1.307-5.103 1.634-6.731 2.614-13.23 3.516-19.312.902-6.082 1.307-11.81 1.503-17.023.419-8.243.305-16.503-.34-24.733-.144-2.913-.51-5.165-.627-6.694-.079-.747-.131-1.334-.17-1.751-.039-.416-.013-.599-.013-.599z"/><path fill="#5FBE3F" d="M425.607 153.906s.131.11.353.367l.994 1.102c.836.991 2.182 2.386 3.711 4.344a137.84 137.84 0 0 1 11.894 17.133c2.261 3.77 4.443 8.041 6.626 12.691a143.043 143.043 0 0 1 5.895 15.249 131.732 131.732 0 0 1 4.365 17.451 128.991 128.991 0 0 1 2.039 19.153 145.25 145.25 0 0 1-.745 19.226 140.063 140.063 0 0 1-3.294 17.672c-4.281 16.5-11.816 32.106-22.218 46.015-1.438 2.007-2.719 3.451-3.516 4.479l-.954 1.138c-.1.134-.209.26-.327.38a1.9 1.9 0 0 1 .275-.416l.888-1.224c.758-1.041 2.013-2.509 3.411-4.541a140.13 140.13 0 0 0 10.94-17.622 130.552 130.552 0 0 0 10.9-28.405 139.472 139.472 0 0 0 3.215-17.537c.669-6.364.914-12.761.732-19.153a127.943 127.943 0 0 0-2.039-19.054 130.72 130.72 0 0 0-4.3-17.391 145.245 145.245 0 0 0-5.803-15.212c-2.169-4.638-4.313-8.909-6.535-12.678a144.61 144.61 0 0 0-11.671-17.207c-1.49-1.97-2.797-3.39-3.607-4.406l-.941-1.15a2.582 2.582 0 0 1-.288-.404zM370.048 439.053l-.706.159-2.065.404c-1.816.343-4.509.893-7.985 1.432a309.06 309.06 0 0 1-29.695 3.39 320.919 320.919 0 0 1-44.345-.086c-8.325-.587-17.056-1.493-26.022-2.888a286.518 286.518 0 0 1-27.511-5.532c-17.561-4.394-34.263-11.376-49.482-20.682-6.625-4.053-13-8.453-19.095-13.18-5.763-4.333-10.861-8.8-15.448-12.899-9.149-8.224-15.893-15.371-20.533-20.365a166.35 166.35 0 0 1-5.227-5.813l-1.307-1.529-.432-.527.497.49 1.385 1.493c1.216 1.309 3.006 3.255 5.359 5.727 4.679 4.896 11.553 12.03 20.65 20.205 4.574 4.076 9.672 8.445 15.435 12.814a214.8 214.8 0 0 0 19.082 13.094 180.245 180.245 0 0 0 22.911 11.724 180.896 180.896 0 0 0 26.414 8.836 287.737 287.737 0 0 0 27.446 5.532c8.953 1.395 17.657 2.313 25.97 2.913a327.625 327.625 0 0 0 44.267.22 325.978 325.978 0 0 0 29.668-3.182c3.489-.502 6.182-1.003 8.011-1.309l2.078-.343.68-.098z"/><path fill="#5FBE3F" d="M297.773 418.395c-5.949.293-11.913.224-17.853-.208l-4.326-.318c-1.503-.11-3.045-.33-4.666-.514-3.228-.318-6.639-.918-10.233-1.493-15.603-2.736-30.716-7.515-44.895-14.196-3.228-1.579-6.339-3.047-9.149-4.626-1.398-.771-2.77-1.481-4.051-2.24l-3.634-2.203a134.742 134.742 0 0 1-14.376-9.974l.261.159.758.502 2.849 1.983 2.039 1.456c.758.514 1.608 1.04 2.51 1.628 1.803 1.15 3.803 2.533 6.169 3.867l3.646 2.166c1.307.747 2.614 1.432 4.052 2.203 2.783 1.554 5.881 2.986 9.148 4.553 14.163 6.583 29.212 11.342 44.738 14.147 3.581.587 6.979 1.224 10.194 1.542 1.608.196 3.15.428 4.64.55l4.313.368c2.731.269 5.228.306 7.41.416 1.098 0 2.105.11 3.046.134h7.096l.314.098zM253.258 385.964s-.392 0-1.137-.147l-3.242-.55-2.339-.404c-.85-.171-1.765-.392-2.758-.612-1.96-.477-4.234-.918-6.665-1.664l-3.843-1.102c-1.307-.391-2.692-.893-4.104-1.37-2.862-.906-5.803-2.13-8.913-3.366-13.44-5.635-25.827-13.255-36.687-22.567-2.444-2.191-4.809-4.222-6.835-6.315-1.02-1.04-2.065-1.995-2.967-2.986l-2.614-2.864c-1.712-1.799-3.045-3.573-4.287-5.078-.614-.759-1.202-1.457-1.699-2.118l-1.307-1.86-1.79-2.533a5.772 5.772 0 0 1-.589-.918c.257.27.493.556.706.857l1.921 2.447 1.373 1.812c.523.648 1.124 1.334 1.738 2.08 1.307 1.481 2.614 3.231 4.352 5.005l2.614 2.827c.915.979 1.948 1.922 2.98 2.95 2.026 2.068 4.404 4.087 6.862 6.253 10.852 9.217 23.172 16.793 36.516 22.457 3.098 1.224 6.012 2.448 8.848 3.415 1.412.477 2.745.991 4.078 1.395l3.803 1.126c2.418.783 4.679 1.224 6.627 1.75.98.245 1.895.489 2.744.673l2.314.465 3.215.649c.37.065.734.164 1.085.293zM303.588 474.054a2.184 2.184 0 0 1-.418.061l-1.307.098-4.771.367-3.45.233c-1.307 0-2.614.073-4.117.11-2.954 0-6.326.208-10.05 0l-5.83-.159c-2.038-.061-4.143-.282-6.325-.429-4.366-.232-9.005-.856-13.88-1.444-21.175-2.89-41.761-8.762-61.062-17.414-4.404-2.069-8.626-3.966-12.39-6.046-1.895-1.028-3.777-1.946-5.502-2.949l-4.94-2.913c-3.189-1.799-5.882-3.671-8.313-5.275-1.202-.807-2.339-1.529-3.359-2.239l-2.718-2.007-3.751-2.791-.967-.734c-.209-.171-.327-.257-.314-.269.013-.012.131 0 .353.22l1.006.686 3.83 2.692 2.757 1.958c1.02.698 2.17 1.395 3.385 2.191 2.444 1.542 5.15 3.414 8.352 5.176l4.953 2.876c1.726.992 3.595 1.897 5.503 2.913 3.764 2.056 7.985 3.941 12.377 5.984 19.282 8.58 39.808 14.456 60.917 17.44 4.862.599 9.476 1.223 13.841 1.493 2.17.159 4.274.391 6.3.465l5.816.196c3.712.208 7.07 0 10.024 0h4.117l3.45-.196 4.784-.233h1.307l.392-.061zM116.052 186.631c-.065.171-12.481-4.137-27.734-9.62-15.252-5.482-27.564-10.059-27.446-10.218.118-.159 12.481 4.148 27.747 9.619 15.265 5.47 27.498 10.059 27.433 10.219zM167.022 148.925s-.078.11-.261.306l-.823.857c-.706.771-1.856 1.811-3.15 3.316a95.527 95.527 0 0 0-10.129 13.193 111.67 111.67 0 0 0-10.652 21.869 136.524 136.524 0 0 0-6.796 28.809 130.655 130.655 0 0 0-.98 22.591v.331h-.34l-41-.123-11.854-.134h-3.163l-.758-.074a1.146 1.146 0 0 1-.274 0H81.103l11.867-.098 40.999-.11-.326.331a129.062 129.062 0 0 1 .954-22.616 134.955 134.955 0 0 1 6.887-28.919 108.903 108.903 0 0 1 10.835-21.967 90.888 90.888 0 0 1 10.338-13.132c1.307-1.48 2.51-2.447 3.255-3.231l.862-.819c.131-.294.235-.392.248-.38z"/><path fill="#5FBE3F" d="M196.926 336.009c-.311.464-.67.898-1.072 1.297-.732.808-1.803 1.946-3.163 3.341a220.373 220.373 0 0 1-10.991 10.549c-4.457 3.99-8.626 7.429-11.763 9.79a125.44 125.44 0 0 1-3.712 2.815 8.413 8.413 0 0 1-1.424.955c.393-.424.831-.81 1.307-1.151l3.555-2.961c3.006-2.509 7.136-5.997 11.566-9.974 4.431-3.978 8.313-7.686 11.11-10.39l3.319-3.207a8.007 8.007 0 0 1 1.268-1.064zM185.661 379.809c.157.085-7.397 11.699-16.873 25.932-9.475 14.233-17.291 25.7-17.448 25.614-.157-.085 7.398-11.712 16.873-25.944 9.476-14.233 17.291-25.7 17.448-25.602zM248.8 388.277a11.355 11.355 0 0 1-.666 1.836c-.51 1.285-1.19 2.949-2 4.957a738.906 738.906 0 0 0-6.443 16.386c-2.431 6.425-4.535 12.238-6.025 16.534l-1.778 5.03a10.41 10.41 0 0 1-.732 1.823 12.49 12.49 0 0 1 .471-1.897 178.21 178.21 0 0 1 1.581-5.091c1.307-4.283 3.398-10.17 5.842-16.607 2.444-6.437 4.823-12.238 6.64-16.338.902-2.08 1.66-3.744 2.208-4.895.243-.604.545-1.186.902-1.738zM364.297 440.106a1.942 1.942 0 0 1-.235-.527 73.283 73.283 0 0 0-.549-1.554l-1.908-5.764a2161.743 2161.743 0 0 1-6.026-19.055 2024.564 2024.564 0 0 1-5.842-19.14c-.692-2.386-1.307-4.345-1.699-5.813l-.379-1.53a3.599 3.599 0 0 1-.104-.563s.104.172.248.526c.144.355.327.943.549 1.555.483 1.456 1.124 3.402 1.895 5.764a1759.595 1759.595 0 0 1 6.038 19.054 1890.41 1890.41 0 0 1 5.842 19.116c.693 2.375 1.307 4.333 1.686 5.813l.432 1.591c.045.172.062.35.052.527zM377.628 397.48c-.183 0-4.039-9.007-8.613-20.266-4.575-11.259-8.156-20.438-7.986-20.499.17-.061 4.039 9.008 8.613 20.267 4.575 11.259 8.156 20.437 7.986 20.498zM471.599 355.345a12.693 12.693 0 0 1-1.817-.735 73.011 73.011 0 0 1-4.796-2.264c-4.026-1.97-9.489-4.895-15.266-8.444-5.776-3.549-10.769-7.159-14.272-9.852-1.764-1.346-3.162-2.447-4.103-3.255-.52-.36-.998-.77-1.425-1.224.56.325 1.093.689 1.594 1.09l4.235 3.084c3.581 2.594 8.587 6.119 14.377 9.668a255.082 255.082 0 0 0 15.108 8.566l4.692 2.448c.587.257 1.147.564 1.673.918zM532.346 308.485c0 .171-13.514-2.802-30.06-6.633-16.546-3.83-29.969-7.086-29.917-7.257.053-.171 13.501 2.802 30.061 6.633 16.559 3.83 29.955 7.086 29.916 7.257zM516.728 239.059c0 .183-11.762.452-26.27.611-14.507.16-26.283.147-26.296 0-.013-.146 11.763-.452 26.283-.611 14.521-.16 26.283-.172 26.283 0zM484.106 206.505c0 .172-25.525.735-57.023 1.224-31.498.49-57.036.796-57.036.624 0-.171 25.525-.734 57.036-1.224 31.511-.489 57.023-.795 57.023-.624zM530.557 163.868a2.899 2.899 0 0 1-.562.245l-1.66.563-6.09 2.031a911.283 911.283 0 0 0-20.023 6.902c-7.777 2.791-14.782 5.446-19.827 7.343l-5.986 2.301-1.633.612a2.495 2.495 0 0 1-.588.171s.169-.122.535-.294l1.582-.709a146.461 146.461 0 0 1 5.907-2.448c5.006-2.056 11.972-4.773 19.762-7.575a474.5 474.5 0 0 1 20.114-6.731 374.17 374.17 0 0 1 6.169-1.836l1.686-.453a2.21 2.21 0 0 1 .614-.122zM430.429 117.314c.118.135-7.463 6.572-16.925 14.38-9.463 7.808-17.252 14.037-17.37 13.902-.117-.134 7.45-6.571 16.912-14.379 9.463-7.808 17.252-14.037 17.383-13.903zM442.44 49.944c.157.11-7.502 10.414-17.095 23.032-9.593 12.617-17.5 22.75-17.657 22.652-.157-.097 7.502-10.414 17.108-23.032 9.606-12.617 17.487-22.75 17.644-22.652zM296.805 64.996a1.633 1.633 0 0 1 0-.6c0-.464 0-1.027.065-1.713.079-1.59.17-3.671.301-6.314.222-5.336.392-12.703.209-20.805a323.532 323.532 0 0 0-1.163-20.805l-.575-6.29-.157-1.714a1.726 1.726 0 0 1 0-.6c.085.187.134.386.144.588.078.453.156 1.016.274 1.701.222 1.469.497 3.672.797 6.278a226.746 226.746 0 0 1 1.307 20.805c.131 8.114-.065 15.542-.418 20.878-.17 2.668-.34 4.822-.51 6.315l-.196 1.713c-.008.19-.034.378-.078.563zM232.096 119.407a7.926 7.926 0 0 1-1.058-1.297c-.641-.857-1.53-2.105-2.614-3.672-2.157-3.133-5.019-7.551-7.96-12.544a206.762 206.762 0 0 1-7.057-13.021c-.837-1.689-1.503-3.072-1.922-4.039a8.437 8.437 0 0 1-.614-1.517c.333.446.617.921.85 1.42l2.117 3.94c1.79 3.341 4.3 7.918 7.227 12.911 2.928 4.993 5.725 9.424 7.842 12.618l2.418 3.781c.305.449.563.925.771 1.42zM388.436 192.272a2.888 2.888 0 0 1 0-.416v-1.224c0-1.052 0-2.533-.065-4.417 0-3.843-.078-9.326-.144-16.045l.262.245-44.516.074c-.3.293.418-.38.34-.306v22.028l-.327-.306 31.916.147 9.241.086h3.359c-.27.017-.541.017-.811 0h-2.418l-9.148.073-32.126.147h-.313v-.294-10.659-11.369c-.079.061.64-.612.34-.331l44.515.086h.261v.233c0 6.779-.104 12.311-.144 16.191 0 1.86 0 3.316-.065 4.369v1.125a1.984 1.984 0 0 1-.157.563z"/><path fill="#5FBE3F" d="M380.608 177.917c0 .171-6.914.318-15.448.318-8.535 0-15.435-.147-15.435-.318s6.913-.318 15.435-.318c8.521 0 15.448.147 15.448.318zM380.608 182.665c0 .172-6.914.319-15.448.319-8.535 0-15.435-.147-15.435-.319 0-.171 6.913-.318 15.435-.318 8.521 0 15.448.147 15.448.318zM370.048 191.783c.335 1.97.449 3.967.34 5.96a26.69 26.69 0 0 1-.34 5.947 26.69 26.69 0 0 1-.34-5.947c-.109-1.993.005-3.99.34-5.96zM550.932 288.819v-.417-1.223c0-1.053 0-2.534-.065-4.418 0-3.843-.079-9.313-.131-16.044l.248.244-44.437.074c-.313.293.406-.38.34-.306v22.028l-.313-.306 31.903.147 9.24.086h3.359a6.234 6.234 0 0 1-.797 0h-2.418l-9.149.073-32.125.147h-.327v-.085-22.029c-.078 0 .64-.612.34-.33l44.437.085h.261v.245c0 6.792-.105 12.312-.144 16.191V288.476a1.195 1.195 0 0 1-.222.343z"/><path fill="#5FBE3F" d="M543.102 274.463c0 .172-6.913.318-15.435.318-8.521 0-15.448-.146-15.448-.318 0-.171 6.914-.318 15.448-.318 8.535 0 15.435.147 15.435.318zM543.102 279.212c0 .183-6.913.318-15.435.318-8.521 0-15.448-.135-15.448-.318 0-.184 6.914-.319 15.448-.319 8.535 0 15.435.135 15.435.319z"/><path fill="#fff" d="M560.929 81.212h-44.515v22.041h44.515V81.212z"/><path fill="#5FBE3F" d="M560.917 103.253v-.416-1.224c0-1.065 0-2.546-.065-4.418 0-3.855-.079-9.326-.131-16.044l.248.232-44.502.086c-.313.281.405-.392.34-.318v22.028l-.314-.294 31.903.147 9.241.074h3.359a6.25 6.25 0 0 1-.798 0h-2.418l-9.148.085-32.126.147h-.326v-.306-21.808l.34-.318 44.502.073h.261v.245c0 6.78-.104 12.238-.131 16.191v5.483c-.056.13-.135.25-.235.355z"/><path fill="#5FBE3F" d="M553.102 88.91c0 .171-6.927.318-15.449.318-8.521 0-15.448-.147-15.448-.318 0-.172 6.914-.319 15.448-.319 8.535 0 15.449.135 15.449.319zM553.102 93.658c0 .171-6.927.318-15.449.318-8.521 0-15.448-.147-15.448-.318s6.914-.318 15.448-.318c8.535 0 15.449.135 15.449.318zM530.334 103.155c.196 0 .34 13.021.34 29.065s-.144 29.078-.34 29.078c-.196 0-.34-13.021-.34-29.078 0-16.056.157-29.065.34-29.065zM44.809 160.319a1.574 1.574 0 0 1 0-.416v-1.163-4.43c0-3.843-.079-9.313-.13-16.032l.26.232-44.515.086.34-.318v22.028l-.314-.293 31.903.147 9.24.073h3.373c-.27.017-.54.017-.81 0h-2.419l-9.148.086-32.126.147H.006v-.147-22.029c-.078.061.64-.612.34-.318l44.515.073h.248v.245c0 6.78-.104 12.299-.13 16.191v5.483c0 .294-.17.355-.17.355z"/><path fill="#5FBE3F" d="M36.98 145.939c0 .184-6.914.318-15.449.318-8.534 0-15.435-.134-15.435-.318s6.9-.318 15.435-.318 15.448.147 15.448.318zM36.98 150.7c0 .171-6.914.318-15.449.318-8.534 0-15.435-.147-15.435-.318 0-.172 6.9-.319 15.435-.319s15.448.147 15.448.319z"/><path fill="#fff" d="M124.861 393.405H80.346v22.041h44.515v-22.041z"/><path fill="#5FBE3F" d="M124.862 415.446a1.525 1.525 0 0 1 0-.416v-1.163-4.43c0-3.843-.079-9.313-.144-16.032l.261.233-44.515.085.34-.318v22.029l-.314-.294 31.916.147 9.227.073h3.372c-.269.017-.54.017-.81 0h-2.418l-9.149.086-32.125.147h-.314v-.306-22.029l.34-.318 44.516.073h.261v.245c0 6.78-.105 12.299-.131 16.179 0 1.86 0 3.329-.065 4.381v1.114a1.744 1.744 0 0 1-.248.514z"/><path fill="#5FBE3F" d="M117.032 401.091c0 .183-6.914.318-15.448.318-8.535 0-15.436-.135-15.436-.318 0-.184 6.914-.319 15.436-.319 8.521 0 15.448.147 15.448.319zM117.032 405.851c0 .172-6.914.318-15.448.318-8.535 0-15.436-.146-15.436-.318 0-.171 6.914-.318 15.436-.318 8.521 0 15.448.135 15.448.318zM391.011 24.72v-.415-1.224c0-1.065 0-2.546-.065-4.418 0-3.855-.079-9.325-.131-16.044l.248.245-44.502.073c-.313.282.405-.392.327-.318v22.028l-.327-.305 31.916.146 9.241.086h2.548-2.405l-9.148.086-32.126.146h-.313v-.085V8.444 2.692c-.066.074.653-.6.353-.318l44.502.074h.261v.232c-.065 6.78-.104 12.312-.144 16.191 0 1.86 0 3.317-.065 4.369v1.126a1.172 1.172 0 0 1-.17.355z"/><path fill="#5FBE3F" d="M383.182 10.366c0 .17-6.913.318-15.435.318-8.521 0-15.448-.147-15.448-.318 0-.172 6.914-.319 15.448-.319 8.535 0 15.435.135 15.435.319zM383.182 15.114c0 .171-6.913.318-15.435.318-8.521 0-15.448-.147-15.448-.318s6.914-.318 15.448-.318c8.535 0 15.435.147 15.435.318zM55.213 165.214c-.503.1-1.016.145-1.53.135l-4.169.097c-3.529 0-8.39.086-13.762.086-5.633 0-10.704 0-14.22-.098h-.235v-.22c0-1.42.078-2.631.104-3.61-.01-.44.034-.879.131-1.31.106.429.15.87.13 1.31 0 .979 0 2.19.105 3.61l-.235-.208c3.516-.061 8.587-.11 14.22-.11 5.372 0 10.233 0 13.762.098l4.17.098a7.754 7.754 0 0 1 1.529.122zM349.816 92.581a2.57 2.57 0 0 1 .183-.698c.157-.501.366-1.15.628-1.933l2.326-7.123c1.921-6.009 4.418-14.38 6.692-23.717a360.897 360.897 0 0 0 2.862-12.764c-.131-6.303-.248-11.7-.327-15.616v-4.48a7.841 7.841 0 0 1 .066-1.59c.084.527.132 1.058.143 1.59 0 1.127.131 2.62.21 4.468.143 3.916.339 9.313.575 15.615a286.519 286.519 0 0 1-2.81 12.79c-2.288 9.361-4.849 17.732-6.901 23.717a213.732 213.732 0 0 1-2.536 7.06l-.745 1.91a2.935 2.935 0 0 1-.366.771zM164.854 405.851c0 .172-8.443.318-18.846.318s-18.86-.146-18.86-.318c0-.171 8.443-.318 18.86-.318 10.416 0 18.846.135 18.846.318zM544.841 456.027c1.124-3.671 3.529-7.171 7.241-8.677 3.711-1.505 8.364-.673 12.324.673 3.96 1.347 7.842 3.158 12.064 3.403 4.221.244 8.952-1.628 10.207-5.397 1.189-3.537-1.085-7.343-3.921-9.889-3.015-2.718-6.713-4.681-10.752-5.709a26.57 26.57 0 0 0-12.359-.173c-4.07.914-7.829 2.773-10.93 5.405s-5.444 5.953-6.815 9.656"/><path fill="#000" d="M544.841 456.027c1.124-3.671 3.529-7.171 7.241-8.677 3.711-1.505 8.364-.673 12.324.673 3.96 1.347 7.842 3.158 12.064 3.403 4.221.244 8.952-1.628 10.207-5.397 1.189-3.537-1.085-7.343-3.921-9.889-3.015-2.718-6.713-4.681-10.752-5.709a26.57 26.57 0 0 0-12.359-.173c-4.07.914-7.829 2.773-10.93 5.405s-5.444 5.953-6.815 9.656" opacity=".5"/><path fill="#5FBE3F" d="M511.5 471.851c-6.169-5.495-5.868-15.053-2.784-22.481 3.084-7.429 9.802-13.144 17.304-16.901 7.327-3.596 15.426-5.594 23.694-5.846 8.267-.252 16.489 1.248 24.05 4.389a23.863 23.863 0 0 0-10.485 2.918c-3.189 1.757-5.871 4.217-7.813 7.167-3.372 5.262-4.13 11.638-6.927 17.194-3.151 6.264-8.744 11.16-15.63 13.681a30.753 30.753 0 0 1-21.396-.121M508.533 438.857c-6.835-7.551-7.75-19.679-6.744-29.53 1.007-9.852 3.451-19.777 1.791-29.555-.98-5.789-3.385-11.321-4.196-17.134-.81-5.813.34-12.385 5.15-16.142 5.528-4.32 14.246-3.304 19.996.747 5.751 4.051 9.149 10.427 11.528 16.766 5.358 13.939 7.319 29.371 2.928 43.617-4.392 14.245-14.717 26.923-29.865 31.243"/><path fill="#263238" d="M505.252 500.843a4.35 4.35 0 0 1 0-.869v-2.448c.078-2.166.314-5.299.823-9.154a115.92 115.92 0 0 1 2.614-13.4 59.286 59.286 0 0 1 6.535-15.506c5.325-8.855 12.814-16.404 21.853-22.028 1.712-1.114 3.359-1.946 4.783-2.73 1.425-.783 2.732-1.297 3.764-1.774l2.47-.967c.28-.121.568-.223.863-.306a4.334 4.334 0 0 1-.823.404l-2.405 1.052a172.598 172.598 0 0 0-3.712 1.848 51.56 51.56 0 0 0-4.718 2.778c-8.903 5.699-16.29 13.235-21.591 22.029-6.274 10.292-7.999 21.111-9.254 28.698a116.924 116.924 0 0 0-.993 9.118l-.157 2.447c.002.27-.015.54-.052.808z"/><path fill="#5FBE3F" d="M446.296 409.057c-12.639 7.147-12.6 13.646-10.456 19.789 2.143 6.144 9.881 10.403 16.311 8.102 3.633-1.297 6.273-4.259 8.521-7.233 2.248-2.974 4.365-6.119 7.515-8.297 3.15-2.178 7.738-2.949 10.9-.832"/><path fill="#000" d="M446.296 409.057c-12.639 7.147-12.6 13.646-10.456 19.789 2.143 6.144 9.881 10.403 16.311 8.102 3.633-1.297 6.273-4.259 8.521-7.233 2.248-2.974 4.365-6.119 7.515-8.297 3.15-2.178 7.738-2.949 10.9-.832" opacity=".5"/><path fill="#5FBE3F" d="M436.834 416.89c3.307-4.271 11.475-5.52 16.638-3.378 5.162 2.142 8.926 6.364 12.311 10.586s6.679 8.689 11.358 11.638c4.679 2.95 11.227 4.002 15.893 1.041a13.128 13.128 0 0 0 3.669-3.86 12.248 12.248 0 0 0 1.741-4.903 27.536 27.536 0 0 0-.745-10.316c-1.124-4.969-2.94-10.158-7.188-13.316-4.731-3.512-11.292-3.671-17.33-3.487-6.927.208-13.959.697-20.454 2.937-6.496 2.239-13.135 7.11-15.893 13.058z"/><path fill="#263238" d="M494.744 491.358a.694.694 0 0 1 0-.257v-.758c0-.722-.065-1.701-.117-2.95-.079-2.594-.183-6.278-.327-10.806a598.538 598.538 0 0 0-.706-16.02c-.353-6.033-.836-12.642-1.803-19.581a59.65 59.65 0 0 0-2.104-9.925c-1.925-5.733-4.887-11.114-8.757-15.909a47.533 47.533 0 0 0-5.346-5.483 39.513 39.513 0 0 0-9.462-6.045c-.614-.257-1.15-.527-1.634-.71l-1.241-.441-.758-.293c-.17-.062-.249-.098-.249-.111l.262.062.784.232 1.307.404c.496.171 1.045.416 1.673.673a38.288 38.288 0 0 1 9.645 5.948 49.134 49.134 0 0 1 5.437 5.495 49.597 49.597 0 0 1 4.849 7.33 49.273 49.273 0 0 1 3.921 8.75 58.799 58.799 0 0 1 2.117 10.011c.98 6.915 1.451 13.548 1.778 19.581.326 6.034.483 11.467.588 16.032.104 4.565.13 8.261.143 10.818V491.358zM499.268 496.706a32.146 32.146 0 0 1-1.385-5.078 49.758 49.758 0 0 1-.576-14.282 89.527 89.527 0 0 1 4.81-20.732c2.614-7.624 6.117-15.762 9.149-24.476a105.966 105.966 0 0 0 3.62-12.972 106.91 106.91 0 0 0 1.804-12.373 172.34 172.34 0 0 0 .405-21.172c-.222-6.033-.562-10.904-.784-14.281a582.771 582.771 0 0 1-.235-3.88v-1.016a1.09 1.09 0 0 1 0-.342c.012.114.012.228 0 .342 0 .257.065.588.104 1.004.092.93.209 2.227.353 3.879.287 3.366.68 8.237.954 14.282.37 7.073.274 14.16-.287 21.221a107.439 107.439 0 0 1-1.765 12.434 106.358 106.358 0 0 1-3.633 13.033c-3.019 8.787-6.535 16.926-9.149 24.477a91.648 91.648 0 0 0-4.914 20.608 51.573 51.573 0 0 0 .392 14.221c.314 1.652.601 2.937.849 3.794l.262.991c.022.105.03.212.026.318z"/><path fill="#455A64" d="M530.647 502.067h-59.389l-1.346-10.708h60.735v10.708z"/><path fill="#455A64" d="M477.637 500.843l7.423 32.1h32.269l6.94-32.1h-46.632z"/><path fill="#455A64" d="M530.633 502.067c0 .147-13.069.22-29.158.183-16.089-.036-29.159-.196-29.159-.342 0-.147 13.07-.233 29.159-.184 16.089.049 29.158.196 29.158.343z"/><path fill="#263238" d="M520.453 517.903a25.401 25.401 0 0 0-5.228-2.803 20.02 20.02 0 0 0-6.365-1.224 23.736 23.736 0 0 0-7.842 1.347c-2.705.856-5.227 1.86-7.698 2.447a19.917 19.917 0 0 1-6.652.184 14.357 14.357 0 0 1-4.274-1.224 7.072 7.072 0 0 1-1.019-.612c-.236-.159-.34-.245-.327-.257.013-.012.51.269 1.451.685a16.05 16.05 0 0 0 4.234 1.09c2.159.252 4.347.152 6.47-.294 2.378-.563 4.914-1.567 7.632-2.448a23.385 23.385 0 0 1 8.012-1.321c2.249.053 4.466.506 6.535 1.334a17.282 17.282 0 0 1 3.921 2.105c.324.232.634.481.928.746.131.135.235.233.222.245z"/><path fill="#fff" d="M519.995 520.118a25.25 25.25 0 0 0-5.018-2.778 18.01 18.01 0 0 0-6.13-1.224 23.42 23.42 0 0 0-7.567 1.224c-2.614.82-5.072 1.762-7.411 2.362a20.286 20.286 0 0 1-6.391.661 11.312 11.312 0 0 1-4.195-1.041 7.447 7.447 0 0 1-.994-.599c-.209-.147-.326-.233-.313-.245.013-.012.496.257 1.411.649 1.303.525 2.699.819 4.117.869a20.805 20.805 0 0 0 6.221-.771c2.301-.6 4.731-1.567 7.385-2.387a22.99 22.99 0 0 1 7.75-1.224c2.162.061 4.292.509 6.273 1.322a16.711 16.711 0 0 1 3.712 2.105c.305.226.598.467.876.722.2.171.292.29.274.355z"/><path fill="#fff" d="M521.041 515.773a30.195 30.195 0 0 0-5.371-2.961 21.108 21.108 0 0 0-6.535-1.469 22.544 22.544 0 0 0-8.064 1.334c-2.6.96-5.258 1.777-7.959 2.448-2.275.368-4.6.368-6.875 0a16.025 16.025 0 0 1-4.418-1.31 7.928 7.928 0 0 1-1.058-.612c-.236-.171-.353-.257-.34-.269.013-.012.523.282 1.503.698 1.397.562 2.87.941 4.378 1.126a21.85 21.85 0 0 0 6.705-.123 81.025 81.025 0 0 0 7.842-2.447c2.64-.954 5.458-1.4 8.286-1.31 3.858.284 7.543 1.62 10.599 3.843.337.237.655.494.955.771.261.171.366.269.352.281z"/><path fill="#263238" d="M531.171 502.103c0 .147-13.357.27-29.838.27s-29.825-.123-29.825-.27c0-.146 13.357-.257 29.825-.257s29.838.111 29.838.257z"/></svg>