<svg xmlns="http://www.w3.org/2000/svg" fill="none" viewBox="0 0 482 405"><path fill="#EBEBEB" d="M419.303 373.125a18.927 18.927 0 0 1 11.719-1.43c2.129.36 4.352 1.029 5.802 2.593 1.451 1.564 1.719 4.414.052 5.782a5.532 5.532 0 0 1-3.653.926c-3.086 0-6.533-.576-9.013 1.286-1.409 1.029-2.356 2.83-4.043 3.355a3.985 3.985 0 0 1-4.393-1.955 6.829 6.829 0 0 1-.494-5.042 7.655 7.655 0 0 1 4.023-5.515zm-8.179-15.773c2.181 3.087 6.42 2.058 8.385.175 1.966-1.883 2.799-4.65 3.56-7.284 1.729-5.999 3.468-12.347 2.181-18.417a10.199 10.199 0 0 0-2.356-5.011 5.335 5.335 0 0 0-5.062-1.688c-2.14.566-3.467 2.665-4.424 4.651a43.96 43.96 0 0 0-4.342 18.849c0 3.035.35 6.174 2.058 8.725zm-5.988 4.466a11.316 11.316 0 0 0 1.769-10.433 20.164 20.164 0 0 0-6.173-8.962 33.077 33.077 0 0 0-11.06-6.523 11.9 11.9 0 0 0-4.98-.854 5.254 5.254 0 0 0-4.177 2.531c-1.163 2.223 0 4.918 1.162 7.11a85.58 85.58 0 0 0 7.274 11.071c2.182 2.809 4.672 5.576 7.995 6.842 3.323 1.265 6.77 1.121 8.529-1.183"/><path fill="#E0E0E0" d="M410.98 404.342c.112-.462.178-.935.196-1.41.102-1.029.226-2.325.38-3.868.188-1.904.476-3.796.864-5.67a44.35 44.35 0 0 1 2.058-6.687 24.517 24.517 0 0 1 3.416-6.05 12.767 12.767 0 0 1 4.321-3.591 12.325 12.325 0 0 1 3.632-1.132 6.583 6.583 0 0 0 1.41-.205 6.974 6.974 0 0 0-1.43 0 11.15 11.15 0 0 0-3.797 1.028 12.805 12.805 0 0 0-4.548 3.622 23.756 23.756 0 0 0-3.539 6.173 40.47 40.47 0 0 0-2.058 6.801 46.444 46.444 0 0 0-.751 5.731 74.756 74.756 0 0 0-.195 3.889c-.035.457-.021.915.041 1.369z"/><path fill="#E0E0E0" d="M411.247 401.358c.027-.219.027-.44 0-.658v-1.873c0-1.636 0-3.992.083-6.904.144-5.823.648-12.099 1.615-20.938.916-8.313 2.15-17.984 3.447-24.271.277-1.43.565-2.716.823-3.848.257-1.132.473-2.058.679-2.891.205-.834.319-1.348.442-1.832.063-.207.101-.421.113-.638-.104.191-.18.395-.226.608-.144.473-.329 1.028-.545 1.8-.216.772-.494 1.749-.782 2.881a112.537 112.537 0 0 0-.906 3.827 212.85 212.85 0 0 0-3.621 22.533c-1.029 8.859-1.41 16.925-1.451 22.759 0 2.922 0 5.288.103 6.914 0 .772.082 1.389.113 1.883.008.22.046.438.113.648z"/><path fill="#E0E0E0" d="M411.289 385.811a12.51 12.51 0 0 0 0-1.955c-.072-1.265-.247-3.086-.597-5.319a71.242 71.242 0 0 0-1.729-7.747 63.846 63.846 0 0 0-3.24-9.168 48.86 48.86 0 0 0-9.569-14.795 23.368 23.368 0 0 0-2.243-2.058c-.339-.298-.648-.586-.957-.813l-.864-.596a12.522 12.522 0 0 0-1.656-1.029 57.027 57.027 0 0 1 5.411 4.835 51.318 51.318 0 0 1 9.26 14.755 72.128 72.128 0 0 1 3.251 9.074 75.195 75.195 0 0 1 2.624 12.934c.056.634.159 1.263.309 1.882zm27.655-305.609l-55.847 16.802a5.143 5.143 0 0 1-6.389-3.437l-22.635-75.252a5.142 5.142 0 0 1 3.436-6.39L396.606.185l28.057 14.6 17.759 59.028a5.145 5.145 0 0 1-3.478 6.39z"/><path fill="#EBEBEB" d="M396.504 0l4.506 14.96a6.995 6.995 0 0 0 3.382 4.144 6.993 6.993 0 0 0 5.323.537l14.908-4.846L396.504 0z"/><path fill="#fff" d="M426.093 67.865a1.712 1.712 0 0 0-.062-.185l-.175-.504a201.41 201.41 0 0 0-.617-1.975c-.535-1.75-1.317-4.26-2.305-7.45-1.955-6.41-4.743-15.536-8.087-26.473l.289.155-38.068 11.492c0 .072.339-.627.185-.329v.144l.051.154.093.309.185.628.381 1.245.74 2.49 1.472 4.887 2.839 9.465c1.842 6.174 3.581 11.977 5.145 17.327l-.288-.154 27.563-8.17 7.799-2.284 2.057-.597.535-.144a.692.692 0 0 1 .196 0l-.154.062-.515.165-2.006.627-7.645 2.336-27.645 8.437-.227.072-.072-.227c-1.615-5.35-3.364-11.153-5.226-17.305-.926-3.074-1.88-6.229-2.86-9.466l-1.472-4.888-.741-2.49-.38-1.244-.185-.628-.093-.309-.051-.154v-.144c-.165.298.216-.412.174-.34l38.068-11.42.227-.072.062.226c3.271 11.03 5.988 20.218 7.901 26.68.936 3.178 1.667 5.689 2.181 7.438l.556 1.945.134.493c.041.124.051.175.041.175z"/><path fill="#fff" d="M406.812 74.172c-.144 0-2.726-8.128-5.761-18.242s-5.402-18.366-5.258-18.407c.144-.041 2.717 8.128 5.762 18.252 3.045 10.125 5.402 18.314 5.257 18.397z"/><path fill="#fff" d="M423.253 58.924c0 .134-8.488 2.83-19.044 6.009-10.556 3.179-19.168 5.638-19.209 5.494-.041-.144 8.488-2.83 19.055-6.009 10.566-3.18 19.147-5.68 19.198-5.494zm-2.406-9.445c0 .144-8.488 2.83-19.044 6.009-10.556 3.179-19.158 5.638-19.209 5.494-.051-.144 8.488-2.83 19.055-6.009 10.566-3.179 19.198-5.669 19.198-5.494zm-3.087-9.26c0 .144-8.416 2.809-18.901 5.967-10.484 3.159-19.013 5.597-19.054 5.453-.041-.144 8.416-2.819 18.9-5.967 10.484-3.149 19.055-5.628 19.055-5.453z"/><path fill="#E0E0E0" d="M30.907 157.625L2.098 152.48a2.572 2.572 0 0 1-2.057-2.983l6.945-38.759a2.555 2.555 0 0 1 1.065-1.647 2.555 2.555 0 0 1 1.918-.41l20.135 3.56 9.26 12.892-5.453 30.403a2.578 2.578 0 0 1-1.066 1.672 2.585 2.585 0 0 1-1.938.417z"/><path fill="#EBEBEB" d="M30.115 112.158l-1.378 7.707a3.497 3.497 0 0 0 2.829 4.115l7.768 1.214-9.219-13.036z"/><path fill="#fff" d="M27.954 149.189a2.298 2.298 0 0 1 0-.371l.154-1.029c.155-.946.37-2.243.638-3.868.566-3.344 1.369-8.026 2.325-13.633l.186.268-19.59-3.499.309-.205v.308l-.062.319-.113.638c-.082.432-.155.854-.227 1.276-.154.854-.308 1.698-.463 2.521-.298 1.666-.586 3.292-.874 4.877-.576 3.169-1.122 6.173-1.626 8.91l-.185-.268 14.126 2.655 4.003.782 1.029.216.38.092h-.34l-1.028-.154-3.971-.658-14.353-2.459h-.237v-.237a1316.56 1316.56 0 0 0 1.574-8.921c.288-1.584.576-3.21.875-4.876.144-.834.298-1.667.442-2.521.083-.422.155-.844.237-1.276l.113-.638.052-.329v-.299l.308-.216 19.62 3.56h.227v.227c-1.029 5.648-1.955 10.371-2.582 13.735-.31 1.595-.566 2.871-.741 3.797-.083.401-.155.72-.206 1.029.008.082.008.165 0 .247z"/><path fill="#fff" d="M17.912 147.624c.3-3.186.778-6.353 1.43-9.486a87.46 87.46 0 0 1 1.955-9.394 86.226 86.226 0 0 1-1.43 9.487 84.499 84.499 0 0 1-1.955 9.393z"/><path fill="#fff" d="M28.704 144.547a90.562 90.562 0 0 1-9.898-1.502 91.854 91.854 0 0 1-9.794-2.057c3.323.324 6.627.825 9.897 1.502 3.3.513 6.569 1.2 9.795 2.057zm1.093-4.763a96.92 96.92 0 0 1-9.898-1.502 93.893 93.893 0 0 1-9.805-2.058 93.1 93.1 0 0 1 9.897 1.502 90.774 90.774 0 0 1 9.806 2.058zm.709-4.846a91.555 91.555 0 0 1-9.816-1.482 96.122 96.122 0 0 1-9.733-2.057c3.3.309 6.58.804 9.826 1.481a92.36 92.36 0 0 1 9.723 2.058z"/><path fill="#263238" d="M464.707 404.208c0 .144-101.179.268-225.96.268-124.78 0-225.98-.124-225.98-.268 0-.144 101.159-.267 225.98-.267 124.822 0 225.96.123 225.96.267z"/><path fill="#5FBE3F" d="M135.636 63.544l-39.91 13.787a3.714 3.714 0 0 1-4.722-2.294l-18.52-53.77a3.714 3.714 0 0 1 2.254-4.712l27.902-9.63 20.732 9.733 14.569 42.184a3.707 3.707 0 0 1-2.305 4.702z"/><path fill="#5FBE3F" d="M102.6 6.78l3.693 10.68a5.06 5.06 0 0 0 6.431 3.138l10.648-3.951L102.6 6.78z"/><path fill="#000" d="M102.6 6.78l3.693 10.68a5.06 5.06 0 0 0 6.431 3.138l10.648-3.951L102.6 6.78z" opacity=".2"/><path fill="#fff" d="M125.985 54.994a4.19 4.19 0 0 1-.206-.494c-.123-.35-.298-.823-.514-1.41l-1.893-5.32c-1.626-4.598-3.91-11.09-6.657-18.89l.298.145-27.203 9.434c0 .083.309-.637.165-.329v.113l.072.227.154.442.309.895.617 1.77a453.76 453.76 0 0 0 1.204 3.498c.792 2.305 1.574 4.569 2.325 6.77l4.25 12.347-.289-.144 19.744-6.544 5.597-1.852 1.492-.494.535-.154a3.1 3.1 0 0 1-.473.196l-1.43.514-5.484 1.996-19.785 6.904-.216.082-.072-.226c-1.328-3.817-2.778-7.964-4.3-12.347l-2.326-6.76a667.935 667.935 0 0 1-1.204-3.498l-.617-1.77-.309-.895-.154-.442-.072-.227v-.113c-.144.299.206-.422.175-.35l27.223-9.362.227-.072.072.216c2.665 7.881 4.897 14.404 6.471 19.096l1.77 5.309c.185.586.34 1.029.453 1.389.113.36.061.36.051.35z"/><path fill="#fff" d="M112.188 60.097c-.134.051-2.274-5.772-4.774-13.005-2.5-7.233-4.414-13.129-4.27-13.18.144-.052 2.274 5.772 4.774 13.005 2.5 7.233 4.445 13.128 4.27 13.18z"/><path fill="#fff" d="M123.659 48.615c0 .134-6.029 2.366-13.571 4.97-7.541 2.603-13.704 4.609-13.756 4.465-.051-.144 6.03-2.366 13.581-4.97 7.552-2.603 13.705-4.63 13.746-4.465zm-1.996-6.781c0 .134-6.029 2.367-13.571 4.97-7.541 2.603-13.704 4.61-13.756 4.465-.051-.144 6.029-2.366 13.581-4.97 7.552-2.602 13.705-4.609 13.746-4.465zm-2.511-6.604c0 .133-5.988 2.345-13.467 4.928-7.48 2.582-13.602 4.578-13.653 4.434-.052-.144 5.988-2.346 13.478-4.938 7.49-2.593 13.591-4.579 13.642-4.425z"/><path fill="#455A64" d="M418.717 303.778l-20.916 11.019a2.057 2.057 0 0 1-2.809-.874l-14.847-28.182a2.056 2.056 0 0 1 .23-2.3c.176-.21.391-.383.634-.508l14.631-7.707 12.346 3.632 11.647 22.111a2.054 2.054 0 0 1-.916 2.809z"/><path fill="#E0E0E0" d="M395.609 275.155l2.953 5.597a2.828 2.828 0 0 0 3.828 1.193l5.555-3.086-12.336-3.704z"/><path fill="#fff" d="M412.616 299.858a9.78 9.78 0 0 1-.587-1.029l-1.533-2.778-5.319-9.847.319.103-14.26 7.552.113-.36v.062l.062.113.123.237.247.463.484.936.967 1.831 1.862 3.55 3.395 6.492-.319-.092 10.289-5.309 2.963-1.482c.69-.35 1.029-.525 1.091-.525a7.613 7.613 0 0 1-.957.566l-2.85 1.574-10.361 5.587-.195.114-.113-.206c-1.029-2.007-2.223-4.178-3.437-6.482-.617-1.153-1.234-2.336-1.883-3.54l-.967-1.831-.483-.926-.247-.473-.124-.227-.061-.123v-.062c-.103.319.133-.442.113-.36l14.291-7.49.206-.103.102.206c2.12 4.115 3.89 7.583 5.145 10.072a334.918 334.918 0 0 0 1.399 2.789c.197.32.372.654.525.998z"/><path fill="#fff" d="M405.465 303.85a54.594 54.594 0 0 1-3.858-6.739 55.317 55.317 0 0 1-3.375-6.986 57.968 57.968 0 0 1 3.848 6.739 59.55 59.55 0 0 1 3.385 6.986z"/><path fill="#fff" d="M410.816 296.524a60.672 60.672 0 0 1-7.037 4.013 63.722 63.722 0 0 1-7.285 3.539 59.999 59.999 0 0 1 7.038-4.012 61.479 61.479 0 0 1 7.284-3.54zm-1.678-3.58a62.764 62.764 0 0 1-7.037 4.002 61.46 61.46 0 0 1-7.285 3.581c4.6-2.832 9.385-5.351 14.322-7.542v-.041zm-1.954-3.447a119.025 119.025 0 0 1-14.219 7.491 121.108 121.108 0 0 1 14.219-7.491z"/><path fill="#F5F5F5" d="M456.198 71.404H57.914v215.963h398.284V71.404z"/><path fill="#263238" d="M456.198 71.404H57.914v18.191h398.284v-18.19z"/><path fill="#FAFAFA" d="M67.34 83a2.253 2.253 0 1 0 0-4.506 2.253 2.253 0 0 0 0 4.507zm8.198 0a2.253 2.253 0 1 0 0-4.506 2.253 2.253 0 0 0 0 4.507zm8.2 0a2.253 2.253 0 1 0 0-4.506 2.253 2.253 0 0 0 0 4.507z"/><path fill="#455A64" d="M71.803 120.853H57.316v166.504h14.487V120.853z"/><path fill="#455A64" d="M57.316 114.442v14.487h398.706v-14.487H57.316z"/><path fill="#E0E0E0" d="M71.805 278.087c-.144 0-.268-36.629-.268-81.817 0-45.189.124-81.828.268-81.828.144 0 .267 36.629.267 81.828 0 45.199-.113 81.817-.267 81.817zm56.957 9.271c-.144 0-.268-38.707-.268-86.427 0-47.719.124-86.426.268-86.426.144 0 .267 38.707.267 86.426 0 47.72-.123 86.427-.267 86.427zm60.416-.001c-.144 0-.268-38.583-.268-86.169s.124-86.169.268-86.169c.144 0 .267 38.573.267 86.169 0 47.597-.092 86.169-.267 86.169zm58.994 0c-.155 0-.268-38.583-.268-86.169s.113-86.169.268-86.169c.154 0 .267 38.573.267 86.169 0 47.597-.123 86.169-.267 86.169zm60.373.001c-.144 0-.268-38.707-.268-86.427 0-47.719.124-86.426.268-86.426.144 0 .267 38.707.267 86.426 0 47.72-.113 86.427-.267 86.427zm60.385 0c-.155 0-.268-38.707-.268-86.427 0-47.719.113-86.426.268-86.426.154 0 .267 38.707.267 86.426 0 47.72-.123 86.427-.267 86.427zm60.373-.001c-.144 0-.268-38.583-.268-86.169s.124-86.169.268-86.169c.144 0 .267 38.573.267 86.169 0 47.597-.113 86.169-.267 86.169z"/><path fill="#E0E0E0" d="M453.822 142.151c0 .144-88.76.267-198.232.267-109.471 0-198.262-.123-198.262-.267 0-.144 88.75-.278 198.262-.278 109.513 0 198.232.124 198.232.278zm0-13.222c0 .155-88.76.268-198.232.268-109.471 0-198.262-.113-198.262-.268 0-.154 88.75-.267 198.262-.267 109.513 0 198.232.123 198.232.267zm0 27.132c0 .155-88.76.268-198.232.268-109.471 0-198.262-.113-198.262-.268 0-.154 88.75-.267 198.262-.267 109.513 0 198.232.123 198.232.267zm0 13.921c0 .144-88.76.268-198.232.268-109.471 0-198.262-.124-198.262-.268 0-.144 88.75-.267 198.262-.267 109.513 0 198.232.144 198.232.267zm0 13.921c0 .144-88.76.267-198.232.267-109.471 0-198.262-.123-198.262-.267 0-.144 88.75-.268 198.262-.268 109.513 0 198.232.114 198.232.268zm0 13.911c0 .154-88.76.267-198.232.267-109.471 0-198.262-.113-198.262-.267 0-.155 88.75-.268 198.262-.268 109.513 0 198.232.093 198.232.268zm0 13.921c0 .144-88.76.267-198.232.267-109.471 0-198.262-.123-198.262-.267 0-.144 88.75-.268 198.262-.268 109.513 0 198.232.124 198.232.268zm0 13.92c0 .144-88.76.268-198.232.268-109.471 0-198.262-.124-198.262-.268 0-.144 88.75-.267 198.262-.267 109.513 0 198.232.113 198.232.267zm0 13.91c0 .154-88.76.278-198.232.278-109.471 0-198.262-.124-198.262-.278 0-.154 88.75-.267 198.262-.267 109.513 0 198.232.123 198.232.267zm0 13.921c0 .154-88.76.267-198.232.267-109.471 0-198.262-.113-198.262-.267 0-.154 88.75-.268 198.262-.268 109.513 0 198.232.124 198.232.268zm0 13.921c0 .144-88.76.267-198.232.267-109.471 0-198.262-.123-198.262-.267 0-.144 88.75-.268 198.262-.268 109.513 0 198.232.124 198.232.268zm0 13.92c0 .145-88.76.268-198.232.268-109.471 0-198.262-.123-198.262-.268 0-.144 88.75-.267 198.262-.267 109.513 0 198.232.113 198.232.267z"/><path fill="#5FBE3F" d="M456.014 128.929H71.804v27.132h384.21v-27.132z"/><path fill="#FAFAFA" d="M374.28 140.607c0 .144-45.209.267-100.973.267-55.765 0-100.973-.123-100.973-.267 0-.144 45.198-.268 100.973-.268s100.973.114 100.973.268zm19.126 7.727c0 .144-56.536.267-126.262.267s-126.283-.123-126.283-.267c0-.144 56.526-.268 126.283-.268s126.262.113 126.262.268z"/><path fill="#5FBE3F" d="M248.172 169.982h-119.41v13.92h119.41v-13.92z"/><path fill="#EBEBEB" d="M248.172 182.359h-119.41v58.739h119.41v-58.739z"/><path fill="#263238" d="M179.28 190.241c0 .154-9.856.267-22.007.267-12.151 0-22.007-.113-22.007-.267 0-.154 9.856-.268 22.007-.268 12.151 0 22.007.124 22.007.268zm-17.573 15.279c0 .154-5.926.267-13.22.267-7.295 0-13.221-.113-13.221-.267 0-.155 5.916-.268 13.221-.268 7.304 0 13.22.124 13.22.268zm21.823 11.132c0 .144-10.803.268-24.127.268-13.324 0-24.137-.124-24.137-.268 0-.144 10.803-.267 24.137-.267s24.127.113 24.127.267zm-21.823-22.255c0 .144-5.926.268-13.22.268-7.295 0-13.221-.124-13.221-.268 0-.144 5.916-.267 13.221-.267 7.304 0 13.22.113 13.22.267zm82.03-4.156a45.32 45.32 0 0 1-7.017.268 45.32 45.32 0 0 1-7.017-.268 46.729 46.729 0 0 1 7.017-.267 46.729 46.729 0 0 1 7.017.267zm0 12.542a46.862 46.862 0 0 1-7.017.268 46.862 46.862 0 0 1-7.017-.268 45.195 45.195 0 0 1 7.017-.267 45.195 45.195 0 0 1 7.017.267zm0 13.869a46.73 46.73 0 0 1-7.017.268 46.73 46.73 0 0 1-7.017-.268 45.195 45.195 0 0 1 7.017-.267 45.195 45.195 0 0 1 7.017.267zm-.771 16.997c0 .144-4.969.268-11.101.268-6.132 0-11.092-.124-11.092-.268 0-.144 4.96-.268 11.092-.268 6.132 0 11.101.124 11.101.268z"/><path fill="#E0E0E0" d="M189.178 240.08c-.144 0-.268-12.697-.268-28.346 0-15.649.124-28.346.268-28.346.144 0 .267 12.686.267 28.346s-.092 28.346-.267 28.346z"/><path fill="#E0E0E0" d="M247.175 224.39c0 .144-13.2.267-29.487.267s-29.477-.123-29.477-.267c0-.144 13.19-.268 29.477-.268s29.487.144 29.487.268z"/><path fill="#F5F5F5" d="M248.172 266.893h-119.41v14.435h119.41v-14.435z"/><path fill="#5FBE3F" d="M248.172 253.486H128.566v13.921h119.606v-13.921z"/><path fill="#263238" d="M184.536 274.805c0 .154-11.266.267-25.156.267-13.889 0-25.155-.113-25.155-.267 0-.154 11.255-.268 25.155-.268s25.156.134 25.156.268zm58.43-.7c0 .144-4.969.268-11.101.268-6.132 0-11.092-.124-11.092-.268 0-.144 4.96-.267 11.092-.267 6.132 0 11.101.123 11.101.267z"/><path fill="#5FBE3F" d="M321.787 218.195h-10.33v35.044h10.33v-35.044zm62.762 6.359h-10.33v28.685h10.33v-28.685z"/><path fill="#263238" d="M426.392 232.568h-10.33v20.671h10.33v-20.671z"/><path fill="#455A64" d="M342.715 196.703h-10.33v56.537h10.33v-56.537z"/><path fill="#263238" d="M363.631 196.703h-10.33v56.537h10.33v-56.537z"/><path fill="#455A64" d="M405.466 183.645h-10.329v69.594h10.329v-69.594z"/><path fill="#5FBE3F" d="M77.802 95.954h-9.167v9.167h9.167v-9.167z"/><path fill="#5FBE3F" d="M83.131 109.155H72.945V98.958h10.186v10.197zm-9.157-1.029h8.128v-8.139h-8.128v8.139z"/><path fill="#E0E0E0" d="M105.119 98.382h-8.56v8.56h8.56v-8.56zm13.91 0h-8.56v8.56h8.56v-8.56zm13.91 0h-8.56v8.56h8.56v-8.56zm13.92 0h-8.56v8.56h8.56v-8.56zm13.912 0h-8.56v8.56h8.56v-8.56zm103.215-.082h-90.478v8.734h90.478v-8.735zm102.897 0h-90.479v8.734h90.479v-8.735zm89.139 0h-78.008v8.734h78.008v-8.735z"/><path fill="#263238" d="M456.197 287.357c0-1.626-.082-83.114-.206-215.953l.206.196-398.253.072.268-.268v215.953l-.247-.247 398.284.247-398.284.257h-.309V71.137h.299l398.253.061h.205v.206a966125.92 966125.92 0 0 0-.216 215.953z"/><path fill="#F5F5F5" d="M429.663 53.955H31.379v215.963h398.284V53.955z"/><path fill="#263238" d="M429.663 53.955H31.379v18.19h398.284v-18.19z"/><path fill="#FAFAFA" d="M40.816 65.55a2.253 2.253 0 1 0 0-4.507 2.253 2.253 0 0 0 0 4.507zm8.199 0a2.253 2.253 0 1 0 0-4.507 2.253 2.253 0 0 0 0 4.507zm8.199 0a2.253 2.253 0 1 0 0-4.507 2.253 2.253 0 0 0 0 4.507z"/><path fill="#455A64" d="M45.28 103.403H30.792v166.505h14.486V103.403z"/><path fill="#455A64" d="M30.783 96.993v14.486H429.49V96.993H30.783z"/><path fill="#E0E0E0" d="M45.31 260.637c-.144 0-.267-36.639-.267-81.817 0-45.178.123-81.827.267-81.827.145 0 .268 36.628.268 81.827s-.154 81.817-.268 81.817zm56.928 9.27c-.144 0-.267-38.707-.267-86.426 0-47.72.123-86.427.267-86.427.144 0 .268 38.707.268 86.427 0 47.719-.124 86.426-.268 86.426zm60.414 0c-.144 0-.267-38.583-.267-86.169s.123-86.17.267-86.17c.144 0 .268 38.573.268 86.17 0 47.596-.113 86.169-.268 86.169zm58.996 0c-.154 0-.267-38.583-.267-86.169s.113-86.17.267-86.17c.155 0 .268 38.573.268 86.17 0 47.596-.124 86.169-.268 86.169zm60.373 0c-.144 0-.267-38.707-.267-86.426 0-47.72.123-86.427.267-86.427.144 0 .268 38.707.268 86.427 0 47.719-.124 86.426-.268 86.426zm60.386 0c-.155 0-.278-38.707-.278-86.426 0-47.72.123-86.427.278-86.427.154 0 .267 38.707.267 86.427 0 47.719-.123 86.426-.267 86.426zm60.372 0c-.144 0-.267-38.583-.267-86.169s.123-86.17.267-86.17c.144 0 .268 38.573.268 86.17 0 47.596-.124 86.169-.268 86.169z"/><path fill="#E0E0E0" d="M427.298 124.691c0 .154-88.76.278-198.231.278-109.471 0-198.262-.124-198.262-.278 0-.154 88.75-.268 198.262-.268s198.231.165 198.231.268zm0-13.211c0 .154-88.76.267-198.231.267-109.471 0-198.262-.113-198.262-.267 0-.154 88.75-.268 198.262-.268s198.231.124 198.231.268zm0 27.132c0 .154-88.76.267-198.231.267-109.471 0-198.262-.113-198.262-.267 0-.155 88.75-.268 198.262-.268s198.231.124 198.231.268zm0 13.921c0 .144-88.76.267-198.231.267-109.471 0-198.262-.123-198.262-.267 0-.145 88.75-.268 198.262-.268s198.231.103 198.231.268zm0 13.92c0 .144-88.76.268-198.231.268-109.471 0-198.262-.124-198.262-.268 0-.144 88.75-.267 198.262-.267s198.231.113 198.231.267zm0 13.91c0 .154-88.76.268-198.231.268-109.471 0-198.262-.114-198.262-.268 0-.154 88.75-.267 198.262-.267s198.231.123 198.231.267zm0 13.921c0 .144-88.76.267-198.231.267-109.471 0-198.262-.123-198.262-.267 0-.144 88.75-.268 198.262-.268s198.231.124 198.231.268zm0 13.921c0 .144-88.76.267-198.231.267-109.471 0-198.262-.123-198.262-.267 0-.144 88.75-.268 198.262-.268s198.231.113 198.231.268zm0 13.911c0 .154-88.76.277-198.231.277-109.471 0-198.262-.123-198.262-.277 0-.155 88.75-.268 198.262-.268s198.231.123 198.231.268zm0 13.92c0 .155-88.76.268-198.231.268-109.471 0-198.262-.113-198.262-.268 0-.154 88.75-.267 198.262-.267s198.231.123 198.231.267zm0 13.921c0 .144-88.76.268-198.231.268-109.471 0-198.262-.114-198.262-.268 0-.154 88.75-.267 198.262-.267s198.231.123 198.231.267zm0 13.921c0 .144-88.76.267-198.231.267-109.471 0-198.262-.123-198.262-.267 0-.144 88.75-.268 198.262-.268s198.231.114 198.231.268z"/><path fill="#5FBE3F" d="M429.49 111.479H45.281v27.132H429.49v-27.132z"/><path fill="#FAFAFA" d="M347.797 123.158c0 .144-45.219.267-100.973.267s-100.972-.123-100.972-.267c0-.144 45.198-.278 100.972-.278 55.775 0 100.973.123 100.973.278zm19.086 7.726c0 .144-56.536.267-126.273.267-69.736 0-126.272-.123-126.272-.267 0-.144 56.526-.268 126.272-.268 69.747 0 126.273.144 126.273.268z"/><path fill="#5FBE3F" d="M221.648 152.532h-119.41v13.921h119.41v-13.921z"/><path fill="#EBEBEB" d="M221.648 164.909h-119.41v58.739h119.41v-58.739z"/><path fill="#263238" d="M152.755 172.79c0 .155-9.856.268-22.007.268-12.151 0-22.008-.113-22.008-.268 0-.154 9.857-.267 22.008-.267s22.007.123 22.007.267zm-17.583 15.28c0 .144-5.916.268-13.211.268s-13.221-.124-13.221-.268c0-.144 5.916-.268 13.221-.268s13.211.124 13.211.268zm21.832 11.132c0 .145-10.803.268-24.127.268-13.323 0-24.137-.123-24.137-.268 0-.144 10.803-.267 24.137-.267s24.127.113 24.127.267zm-21.832-22.254c0 .144-5.916.267-13.211.267s-13.221-.123-13.221-.267c0-.144 5.916-.278 13.221-.278s13.211.124 13.211.278zm82.042-4.158a45.32 45.32 0 0 1-7.017.268 45.444 45.444 0 0 1-7.027-.268 46.99 46.99 0 0 1 7.027-.267 46.862 46.862 0 0 1 7.017.267zm0 12.502a46.862 46.862 0 0 1-7.017.267 46.99 46.99 0 0 1-7.027-.267 45.444 45.444 0 0 1 7.027-.268 45.32 45.32 0 0 1 7.017.268zm0 13.91a46.995 46.995 0 0 1-7.017.267 46.99 46.99 0 0 1-7.027-.267 45.32 45.32 0 0 1 7.027-.268 45.195 45.195 0 0 1 7.017.268zm-.773 17.007c0 .144-4.969.268-11.101.268-6.132 0-11.102-.124-11.102-.268 0-.144 4.97-.267 11.102-.267 6.132 0 11.101.113 11.101.267z"/><path fill="#E0E0E0" d="M162.652 222.63c-.144 0-.267-12.696-.267-28.346 0-15.649.123-28.345.267-28.345.144 0 .268 12.686.268 28.345 0 15.66-.113 28.346-.268 28.346z"/><path fill="#E0E0E0" d="M220.65 206.971c0 .144-13.21.267-29.487.267-16.277 0-29.487-.123-29.487-.267 0-.144 13.2-.268 29.487-.268s29.487.114 29.487.268z"/><path fill="#F5F5F5" d="M221.648 249.442h-119.41v14.436h119.41v-14.436z"/><path fill="#5FBE3F" d="M221.648 236.037H102.043v13.921h119.605v-13.921z"/><path fill="#263238" d="M158.013 257.365c0 .154-11.266.268-25.156.268-13.889 0-25.166-.114-25.166-.268 0-.154 11.318-.267 25.166-.267 13.849 0 25.156.123 25.156.267zm58.428-.71c0 .144-4.969.268-11.101.268-6.132 0-11.102-.124-11.102-.268 0-.144 4.97-.267 11.102-.267 6.132 0 11.101.123 11.101.267z"/><path fill="#5FBE3F" d="M295.263 200.745h-10.329v35.044h10.329v-35.044zm62.76 6.359h-10.33v28.686h10.33v-28.686z"/><path fill="#263238" d="M399.857 215.119h-10.33v20.67h10.33v-20.67z"/><path fill="#455A64" d="M316.181 179.252h-10.329v56.537h10.329v-56.537z"/><path fill="#263238" d="M337.107 179.252h-10.33v56.537h10.33v-56.537z"/><path fill="#455A64" d="M378.941 166.196h-10.33v69.593h10.33v-69.593z"/><path fill="#5FBE3F" d="M51.269 78.504h-9.167v9.167h9.167v-9.167z"/><path fill="#5FBE3F" d="M56.627 91.663H46.441V81.477h10.186v10.186zm-9.157-1.03h8.128v-8.127H47.47v8.128z"/><path fill="#E0E0E0" d="M78.584 80.932h-8.56v8.56h8.56v-8.56zm13.921 0h-8.56v8.56h8.56v-8.56zm13.911 0h-8.56v8.56h8.56v-8.56zm13.92 0h-8.561v8.56h8.561v-8.56zm13.91 0h-8.56v8.56h8.56v-8.56zm103.215-.082h-90.479v8.735h90.479V80.85zm102.898 0h-90.478v8.735h90.478V80.85zm89.13 0H351.48v8.735h78.009V80.85z"/><path fill="#263238" d="M429.674 269.907c0-1.625-.083-83.113-.206-215.952l.206.195-398.263.072.267-.267v215.952l-.257-.246 398.294.246-398.294.258h-.247V53.677h.298l398.263.072h.196v.206a427004.03 427004.03 0 0 0-.257 215.952z"/><path fill="#5FBE3F" d="M240.877 292.913l27.779 29.642 41.546-12.346 7.315 16.194s-48.212 17.965-52.431 16.308c-4.218-1.656-29.59-23.16-29.59-23.16l5.381-26.638z"/><path fill="#FAFAFA" d="M257.668 311.845a18.17 18.17 0 0 1-1.965 2.13 121.607 121.607 0 0 0-4.671 5.144c-2.881 3.395-5.031 6.482-5.772 7.418l-.422.535.288-.607c.134-.288.216-.422.237-.411.02.01 0 .164-.093.463l-.134-.072a53.159 53.159 0 0 1 5.484-7.676 62.952 62.952 0 0 1 4.815-5.093 13.666 13.666 0 0 1 2.233-1.831zm-2.232-3.477a24.89 24.89 0 0 1-2.253 2.212 77.799 77.799 0 0 0-5.217 5.494 76.535 76.535 0 0 0-4.64 5.988 22.606 22.606 0 0 1-1.842 2.552c.405-.976.916-1.904 1.523-2.768a55.074 55.074 0 0 1 4.558-6.173 53.804 53.804 0 0 1 5.371-5.433 14.532 14.532 0 0 1 2.5-1.872z"/><path fill="#5FBE3F" d="M314.493 397.654l-.69-3.221-17.953 3.55 1.193 7.017 1.132-.113c5.021-.515 25.485-2.963 28.654-4.496 3.529-1.719-12.336-2.737-12.336-2.737z"/><path fill="#fff" d="M303.555 403.816a6.419 6.419 0 0 0-2.809-3.611 5.324 5.324 0 0 0-4.609-.515l.885 5.042 6.533-.916z" opacity=".5"/><path fill="#fff" d="M322.281 398.426s5.618.689 5.093 1.687c-.525.998-21.123 4.239-30.331 4.887v-.411l24.003-3.591s.196-2.366 1.235-2.572z" opacity=".5"/><path fill="#263238" d="M296.725 404.619h.319l.895-.092 3.302-.371c2.778-.339 6.626-.864 10.845-1.522a308.742 308.742 0 0 0 10.803-1.883l3.251-.659.885-.195c.106-.013.21-.041.308-.083h-.319l-.884.155-3.272.586a544.207 544.207 0 0 1-10.803 1.821 527.934 527.934 0 0 1-10.834 1.585l-3.293.442-.895.124-.308.092z"/><path fill="#263238" d="M321.097 401.275a8.224 8.224 0 0 1 .36-1.656c.249-.513.56-.993.926-1.431a2.97 2.97 0 0 0-1.286 3.087zm-5.749-1.852c.061 0 .267-.329.463-.782a2.05 2.05 0 0 0 .257-.874c-.062 0-.268.329-.463.782a2.05 2.05 0 0 0-.257.874zm-1.586-.545c.051 0 .309-.196.576-.525.268-.329.442-.627.391-.669-.051-.041-.298.196-.566.525-.267.329-.442.628-.401.669zm-1.184-1.553a4.216 4.216 0 0 0 1.883-.278 4.188 4.188 0 0 0-1.883.278zm-.514-1.112a1.86 1.86 0 0 0 1.101.134 1.84 1.84 0 0 0 1.029-.309c-.72.066-1.44.124-2.161.175h.031z"/><path fill="#263238" d="M315.717 397.747c.392.009.783-.053 1.152-.185a7.31 7.31 0 0 0 1.194-.474c.237-.103.458-.238.658-.401a.58.58 0 0 0 .227-.401.453.453 0 0 0-.247-.432 2.15 2.15 0 0 0-2.531 1.028 2.27 2.27 0 0 0-.258.834.816.816 0 0 0 0 .319 3.43 3.43 0 0 1 .371-1.029 2.15 2.15 0 0 1 .895-.803 1.815 1.815 0 0 1 1.389-.123c.206.113.175.339 0 .494-.19.146-.393.273-.607.381a8.35 8.35 0 0 1-1.152.493c-.659.196-1.101.268-1.091.299z"/><path fill="#263238" d="M316.027 397.757a1.249 1.249 0 0 0 0-.823 1.745 1.745 0 0 0-.453-.793 1.145 1.145 0 0 0-1.028-.442.465.465 0 0 0-.278.586c.056.183.151.351.278.494.192.23.414.434.658.607.215.18.468.306.741.371 0 0-.268-.175-.638-.494a3.46 3.46 0 0 1-.597-.618c-.206-.216-.38-.637-.092-.74.288-.103.627.175.833.37.201.201.355.443.453.71.064.253.105.511.123.772zm-19.672 1.872s.505-.134 1.338-.165a5.831 5.831 0 0 1 3.087.741 5.897 5.897 0 0 1 2.222 2.284c.401.72.504 1.245.545 1.225a1.025 1.025 0 0 0-.062-.36 4.824 4.824 0 0 0-.349-.947 5.52 5.52 0 0 0-5.464-3.087 4.986 4.986 0 0 0-1.028.186.87.87 0 0 0-.289.123zm9.196 2.068a9.8 9.8 0 0 0 2.675-.155 10.327 10.327 0 0 0 2.603-.627c0-.062-1.183.195-2.634.411-1.451.216-2.644.309-2.644.371z"/><path fill="#263238" d="M302.012 402.253c0 .051.133.236.298.483.165.247.268.484.329.474.062-.011.052-.309-.144-.597-.195-.288-.452-.412-.483-.36zm-1.543-1.451c0 .051.113.226.329.381.216.154.422.247.453.205.031-.041-.103-.226-.319-.38-.216-.155-.463-.247-.463-.206zm-2.057-.473c0 .061.268 0 .545.072.278.072.494.164.535.113.042-.052-.154-.278-.493-.329-.34-.052-.587.144-.587.144zm-1.432-.124c0 .062.103.134.268.175.165.041.298 0 .309-.051.01-.052-.103-.134-.268-.165-.164-.031-.298-.02-.309.041zm-87.914-24.075l61.732-58.225a20.287 20.287 0 0 1 14.528-6.06h1.224a21.286 21.286 0 0 1 19.631 17.872l12.809 64.13-25.721 7.202-9.26-51.917-30.485 27.553-44.458-.555z"/><path fill="#263238" d="M189.547 382.221c-.268.74-1.976 22.1 24.693 22.1h71.341c9.023 0 16.349-6.873 16.349-15.351 0-8.488-7.326-15.361-16.349-15.361h-66.393a17.144 17.144 0 0 0-6.883 1.43l-22.758 7.182z"/><path fill="#455A64" d="M291.92 373.578c0 .155-14.734.288-32.924.288-18.19 0-32.924-.133-32.924-.288 0-.154 14.734-.288 32.924-.288 18.19 0 32.924.165 32.924.288zm-9.794-38.017c.164 0 .175 3.087.73 6.832.556 3.745 1.43 6.698 1.266 6.76a28.8 28.8 0 0 1-1.996-13.592z"/><path fill="#455A64" d="M285.151 335.118a43.426 43.426 0 0 1-1.142 13.952c-.165 0 .267-3.087.597-6.976.329-3.889.432-6.976.545-6.976zm5.091 68.596a19.82 19.82 0 0 0 5.206-3.086 16.028 16.028 0 0 0 3.971-5.145 15.48 15.48 0 0 0-1.101-15.207 15.927 15.927 0 0 0-4.671-4.496 19.732 19.732 0 0 0-5.586-2.263c.139-.021.282-.021.421 0 .406.042.809.115 1.204.216 1.449.357 2.836.929 4.116 1.697a15.744 15.744 0 0 1 4.887 4.538 15.688 15.688 0 0 1 2.675 7.698 15.686 15.686 0 0 1-1.544 8.002 15.781 15.781 0 0 1-4.166 5.196 15.277 15.277 0 0 1-3.879 2.284c-.377.15-.761.277-1.153.381a1.855 1.855 0 0 1-.38.185z"/><path fill="#FFBE9D" d="M231.074 237.868l-.577 3.087-8.961 46.248c-1.029 5.371 2.747 10.546 8.509 11.616 5.813 1.029 11.441-2.428 12.583-7.84 1.204-5.669 2.562-11.626 2.562-11.626s7.572.309 11.07-8.921c1.739-4.588 3.087-12.428 4.033-18.869a10.296 10.296 0 0 0-2.084-7.847 10.281 10.281 0 0 0-7.124-3.893l-20.011-1.955z"/><path fill="#263238" d="M257.812 256.934a1.25 1.25 0 0 1-1.43 1.028 1.212 1.212 0 0 1-.801-.469 1.204 1.204 0 0 1-.228-.899 1.255 1.255 0 0 1 1.44-1.029 1.18 1.18 0 0 1 .797.47c.095.128.163.273.202.427.038.154.044.315.02.472zm-.051-1.678c-.185.133-.967-.751-2.284-1.029-1.317-.278-2.418.195-2.531 0-.113-.196.154-.34.648-.566a3.503 3.503 0 0 1 2.058-.196 3.291 3.291 0 0 1 1.78 1.029c.339.402.421.762.329.762zm-13.108-1.317a1.257 1.257 0 0 1-1.44 1.029 1.185 1.185 0 0 1-.859-1.813 1.239 1.239 0 0 1 .774-.557c.16-.038.325-.043.486-.017.318.044.605.211.8.465.194.255.28.576.239.893z"/><path fill="#263238" d="M244.767 252.828c-.185.124-1.029-.751-2.294-1.029-1.266-.277-2.418.186-2.521 0-.103-.185.154-.349.638-.565a3.456 3.456 0 0 1 2.058-.196 3.28 3.28 0 0 1 1.78 1.029c.35.391.422.71.339.761zm2.747 10.762a8.887 8.887 0 0 1 2.222.062c.34 0 .679 0 .782-.185a1.82 1.82 0 0 0 0-1.029 474.08 474.08 0 0 0-.463-2.768 45.174 45.174 0 0 1-.844-7.202 44.776 44.776 0 0 1 1.42 7.079c.144.967.288 1.893.422 2.778.121.451.085.93-.103 1.358a.872.872 0 0 1-.658.37 2.062 2.062 0 0 1-.587 0 9.229 9.229 0 0 1-2.191-.463z"/><path fill="#EB996E" d="M245.188 279.363a24.821 24.821 0 0 1-12.079-6.061s1.749 7.203 11.483 8.293l.596-2.232z"/><path fill="#263238" d="M243.45 263.693c.216 0-.072 1.461.937 2.736 1.008 1.276 2.572 1.42 2.541 1.626-.031.206-.401.206-1.029.093a3.65 3.65 0 0 1-2.13-1.276 3.192 3.192 0 0 1-.699-2.274c.051-.607.288-.936.38-.905zm2.727-15.959c-.206.33-1.481-.113-3.086-.246-1.606-.134-2.922 0-3.087-.34-.052-.165.237-.463.813-.7a4.98 4.98 0 0 1 2.376-.319 5.05 5.05 0 0 1 2.284.762c.566.35.793.689.7.843zm11.893 3.623c-.299.257-1.132-.247-2.223-.484-1.09-.237-2.057-.226-2.202-.576-.061-.175.145-.443.607-.638.61-.24 1.28-.28 1.914-.113a3.088 3.088 0 0 1 1.657.967c.319.391.38.72.247.844z"/><path fill="#263238" d="M270.365 240.646a3.698 3.698 0 0 0-.267-2.315 2.612 2.612 0 0 0-1.029-1.595 2.842 2.842 0 0 0-2.058.114c-2.335.679-5.144.566-6.801-1.256-1.265-1.419-1.512-3.601-2.983-4.804-1.472-1.204-3.992-.968-5.978-.33-1.986.638-4.115 1.492-6.101.895a14.364 14.364 0 0 1-3.786-2.397 10.461 10.461 0 0 0-7.809-1.749 8.535 8.535 0 0 0-6.174 4.897 7.208 7.208 0 0 0 1.359 7.635c.092.123.185.236.288.35-.947 4.959-2.058 12.861.164 13.457 3.282.885 4.455-7.531 4.455-7.531 4.435-.545 5.433-4.887 6.678-5.556 1.244-.669 6.018 1.245 9.907 4.116 4.826 3.56 13.221 4.115 16.154 4.187.256.026.515.026.771 0h.278c.194-.039.384-.098.566-.175a4.293 4.293 0 0 0 1.873-2.49c.416-.864.604-1.82.545-2.778a2.341 2.341 0 0 0-1.122-1.697 1.495 1.495 0 0 0 1.07-.978z"/><path fill="#455A64" d="M264.644 242.611c.082-.172.21-.318.37-.421a1.772 1.772 0 0 1 1.585-.268 1.815 1.815 0 0 1 1.121 2.192 1.776 1.776 0 0 1-1.162 1.183 2.865 2.865 0 0 1-1.852 0c-1.317-.432-2.058-1.811-2.614-3.087a14.772 14.772 0 0 0-.915-2.058 4.12 4.12 0 0 0-1.523-1.625 2.933 2.933 0 0 0-2.253-.144c-.792.216-1.585.607-2.459.874a5.584 5.584 0 0 1-2.799.155 8.105 8.105 0 0 1-2.654-1.091 21.257 21.257 0 0 1-4.177-3.663 16.075 16.075 0 0 0-3.89-3.169 6.464 6.464 0 0 0-4.352-.597 6.42 6.42 0 0 0-5.093 7.131c.1.701.269 1.39.505 2.057a2.12 2.12 0 0 1-.278-.493 6.002 6.002 0 0 1-.432-1.544 6.768 6.768 0 0 1 1.646-5.545 6.923 6.923 0 0 1 8.231-1.441 16.1 16.1 0 0 1 4.054 3.231 21.255 21.255 0 0 0 4.115 3.58c.76.485 1.6.833 2.48 1.029a5.14 5.14 0 0 0 2.541-.134c.833-.246 1.625-.637 2.479-.864a3.423 3.423 0 0 1 2.624.206c1.564.926 2.058 2.613 2.613 3.91.556 1.296 1.214 2.562 2.336 2.942a2.534 2.534 0 0 0 1.605.062 1.478 1.478 0 0 0 1.029-.947 1.586 1.586 0 0 0-.906-1.913 1.738 1.738 0 0 0-1.461.154c-.391.144-.494.319-.514.298z"/><path fill="#455A64" d="M268.421 244.463c-.021.137-.067.27-.134.391-.17.364-.403.695-.689.978a3.656 3.656 0 0 1-1.657.946 3.773 3.773 0 0 1-2.52-.226 5.906 5.906 0 0 1-2.192-2.12 4.768 4.768 0 0 0-1.091-1.132 1.935 1.935 0 0 0-1.512-.288c-.588.141-1.162.33-1.718.566a5.784 5.784 0 0 1-1.976.34 8.902 8.902 0 0 1-4.022-1.029c-2.542-1.327-4.435-3.262-6.472-4.476a8.139 8.139 0 0 0-5.926-1.409 4.845 4.845 0 0 0-3.21 2.49c-.198.48-.33.986-.391 1.502a1.246 1.246 0 0 1 0-.422c.009-.403.092-.801.247-1.173a4.923 4.923 0 0 1 3.302-2.757 8.35 8.35 0 0 1 6.276 1.347c2.12 1.245 4.023 3.159 6.451 4.414a8.623 8.623 0 0 0 3.776 1.029 5.347 5.347 0 0 0 1.821-.298 12.253 12.253 0 0 1 1.801-.576 2.436 2.436 0 0 1 1.852.391c.464.349.868.773 1.193 1.255a5.513 5.513 0 0 0 1.996 2.058 3.445 3.445 0 0 0 2.284.288 3.607 3.607 0 0 0 1.585-.813c.363-.383.674-.812.926-1.276z"/><path fill="#FFBE9D" d="M230.033 250.164c-.123-.093-5.144-3.036-6.348 2.52-1.203 5.556 4.62 5.628 4.661 5.474.041-.154 1.687-7.994 1.687-7.994z"/><path fill="#EB996E" d="M227.112 255.678s-.114 0-.288.092a1.027 1.027 0 0 1-.731-.144 2.445 2.445 0 0 1-.638-2.387c.088-.481.285-.935.576-1.327a1.141 1.141 0 0 1 .885-.587.504.504 0 0 1 .515.391v.289c0 .01.133-.062.144-.309a.603.603 0 0 0-.144-.391.75.75 0 0 0-.505-.257 1.387 1.387 0 0 0-1.193.638 3.398 3.398 0 0 0-.679 1.471 2.593 2.593 0 0 0 .885 2.716 1.09 1.09 0 0 0 .926 0c.205-.062.267-.175.247-.195z"/><path fill="#FFBE9D" d="M320.902 310.455c1.594.227 11.811 1.77 12.778 2.531.967.762.947 1.832-.206 2.058-1.152.226-7.603-.206-7.603-.206s8.324.196 8.581 1.029c.401 1.317-2.562 2.058-8.128 1.173 0 0 8.488-.905 8.395 1.183 0 1.029-7.634 1.122-7.634 1.122-.175.586 7.645-1.029 7.871.226.103.597-.967 1.204-4.939 1.76-2.397.339-6.358.833-10.288 1.358v.051l-4.301.607-5.041-11.369c.391-.381 2.767-1.873 4.383-2.994a5.065 5.065 0 0 1 3.446-.875 3.14 3.14 0 0 1 2.675 2.274l.011.072z"/><path fill="#EB996E" d="M332.96 315.312a110.637 110.637 0 0 1-7.942-.782 11.325 11.325 0 0 1 4.022-.072c1.348.043 2.677.333 3.92.854zm.3 1.852a16.23 16.23 0 0 1-3.539 0 16.586 16.586 0 0 1-3.539-.237 9.381 9.381 0 0 1 3.56-.298 9.258 9.258 0 0 1 3.518.535zm.297 1.883a16.962 16.962 0 0 1-3.529.401c-1.17.192-2.356.258-3.54.195a9.15 9.15 0 0 1 3.498-.73 9.354 9.354 0 0 1 3.571.134z"/><path fill="#5FBE3F" d="M349.958 341.188l-29.292-4.568a2.59 2.59 0 0 1-2.17-2.974l6.173-39.468c.052-.339.171-.664.35-.957a2.601 2.601 0 0 1 2.633-1.224l20.485 3.19 9.651 12.861-4.846 30.959a2.614 2.614 0 0 1-2.984 2.181z"/><path fill="#5FBE3F" d="M348.117 295.094l-1.225 7.85a3.56 3.56 0 0 0 2.964 4.054l7.901 1.029-9.64-12.933z"/><path fill="#000" d="M348.117 295.094l-1.225 7.85a3.56 3.56 0 0 0 2.964 4.054l7.901 1.029-9.64-12.933z" opacity=".2"/><path fill="#fff" d="M346.768 332.7a1.733 1.733 0 0 1 0-.381c0-.278.082-.628.144-1.029.134-.967.319-2.284.545-3.94.505-3.406 1.204-8.17 2.058-13.89l.196.267-19.991-3.087.298-.216v.638l-.103.659c-.072.432-.144.864-.205 1.296l-.402 2.572c-.267 1.688-.524 3.344-.782 4.96-.514 3.22-1.029 6.265-1.44 9.074l-.196-.267 14.405 2.366 4.115.7 1.091.195c.132.016.263.044.391.083h-.35l-1.029-.144-4.044-.566-14.579-2.151h-.226v-.236c.432-2.809.895-5.855 1.389-9.085.257-1.616.514-3.272.772-4.96l.401-2.572c.062-.432.134-.864.195-1.296l.103-.659.052-.329v-.309l.308-.226 19.971 3.087h.236v.226c-.946 5.762-1.728 10.567-2.294 14.003a790.706 790.706 0 0 1-.669 3.859c-.072.411-.134.74-.175 1.028a1.324 1.324 0 0 1-.185.33z"/><path fill="#fff" d="M336.562 331.394a87.765 87.765 0 0 1 1.235-9.651 88.749 88.749 0 0 1 1.759-9.569 87.46 87.46 0 0 1-1.234 9.651 87.739 87.739 0 0 1-1.76 9.569z"/><path fill="#fff" d="M347.436 327.978a96.686 96.686 0 0 1-10.073-1.297 98.956 98.956 0 0 1-9.99-1.821c3.379.248 6.741.681 10.073 1.297a94.791 94.791 0 0 1 9.99 1.821zm.988-4.816a93.029 93.029 0 0 1-10.063-1.296 97.528 97.528 0 0 1-9.99-1.821c3.379.249 6.741.682 10.073 1.296a97.884 97.884 0 0 1 9.98 1.821zm.617-4.969a96.94 96.94 0 0 1-10-1.286 91.182 91.182 0 0 1-9.908-1.821 96.17 96.17 0 0 1 9.99 1.286 90.88 90.88 0 0 1 9.918 1.821z"/><path fill="#455A64" d="M237.738 373.135v-3.663l52.153 1.07 30.033-47.987 2.757 1.996-30.763 49.058-54.18-.474z"/><path fill="#FFBE9D" d="M273.822 357.116l2.623 3.9v8.004a1.738 1.738 0 0 1-1.903-.771 32.925 32.925 0 0 1-1.266-4.795l-1.265 3.282a2.853 2.853 0 0 1-3.334 1.729l-9.671-2.428 3.951-11.318 10.865 2.397zm44.787-48.965l8.889 2.83a1.453 1.453 0 0 1-.439 1.134 1.452 1.452 0 0 1-1.145.409c-1.636-.062-5.999-.473-5.999-.473s0 3.086-2.572 3.734c0 0-3.23-5.597-3.086-5.751.144-.154 4.352-1.883 4.352-1.883z"/><path fill="#EB996E" d="M319.267 319.901s-.134-.329-.422-.834a3.715 3.715 0 0 0-1.697-1.584l-.484-.226.504-.206a4.585 4.585 0 0 0 2.336-2.12c.441-.818.627-1.75.535-2.675v-.298h.298a20.74 20.74 0 0 1 3.9.494c-1.311.124-2.63.124-3.941 0l.257-.278a4.848 4.848 0 0 1-.535 2.984 4.91 4.91 0 0 1-2.644 2.346v-.433c.784.403 1.4 1.07 1.739 1.883.216.576.195.937.154.947z"/><path fill="#5FBE3F" d="M220.413 279.744s-11.657 6.667-15.978 13.17c-4.321 6.502-11.996 14.208-17.357 35.115-4.64 18.253-6.368 43.008-1.348 49.84a30.601 30.601 0 0 0 6.04 6.533l9.013-3.694c10.731-3.837 20.495-6.317 28.911-13.993l17.089-15.597-9.074-7.141s6.883-37.184 5.051-50.168c-1.564-11.359-22.347-14.065-22.347-14.065z"/><path fill="#5FBE3F" d="M215.948 297.719l-9.548 44.602a15.965 15.965 0 0 0 10.155 18.345l41.473 7.953 5.145-15.433-33.634-10.474 9.877-43.09-23.468-1.903z"/><path fill="#263238" d="M206.051 350.798l.062.267c.041.186.092.443.154.772l.113.566.247.669.278.771c.144.258.298.535.453.834a11.024 11.024 0 0 0 3.354 3.539 18.778 18.778 0 0 0 6.091 2.655l41.021 7.511-.278.154c1.718-4.898 3.519-10.073 5.401-15.433l.175.339-33.644-10.505-.257-.082.072-.268a850.224 850.224 0 0 1 1.842-7.202c1.955-7.809 3.786-15.433 5.381-22.872.782-3.714 1.523-7.367 2.058-10.978.144-.895.144-1.79.226-2.675a12.252 12.252 0 0 0-.298-2.603 10.95 10.95 0 0 0-2.295-4.579 11.227 11.227 0 0 0-8.797-3.93 11.477 11.477 0 0 0-8.159 4.115 21.47 21.47 0 0 0-4.208 7.758 67.332 67.332 0 0 0-1.903 8.026c-2.058 10.34-3.694 18.715-4.846 24.528l-1.337 6.657a102.194 102.194 0 0 1-.505 2.325c.016-.2.044-.399.083-.596.072-.422.175-1.029.308-1.75.288-1.543.7-3.796 1.235-6.677 1.101-5.824 2.696-14.209 4.661-24.56a66.735 66.735 0 0 1 1.883-8.087 21.94 21.94 0 0 1 4.269-7.932 11.967 11.967 0 0 1 8.509-4.322 11.732 11.732 0 0 1 9.208 4.116 11.437 11.437 0 0 1 2.418 4.795c.206.894.31 1.809.309 2.726-.072.916-.072 1.852-.226 2.758-.505 3.631-1.245 7.294-2.058 11.009-1.595 7.438-3.457 15.042-5.381 22.872-.638 2.479-1.266 4.938-1.852 7.202l-.185-.34 33.644 10.516.257.082-.083.257-5.432 15.433-.072.196h-.206c-16.976-3.179-31.113-5.772-41.01-7.717a18.933 18.933 0 0 1-6.173-2.747 11.027 11.027 0 0 1-3.355-3.652c-.164-.299-.308-.587-.452-.854l-.268-.793-.226-.668c0-.213-.031-.409-.093-.587l-.123-.782a1.053 1.053 0 0 1 .01-.257z"/><path fill="#263238" d="M223.757 348.504c-.061 0-.123-.525.093-1.327a6.01 6.01 0 0 1 1.667-2.768 6.109 6.109 0 0 1 2.829-1.564c.823-.175 1.338-.092 1.338 0 0 .093-.494.165-1.225.422a7.203 7.203 0 0 0-4.228 4.064c-.299.69-.381 1.183-.474 1.173z"/><path fill="#000" d="M214.971 297.121a257.254 257.254 0 0 0-9.99 47.637 38.607 38.607 0 0 0-.216 11.205c.638 3.704 2.459 7.346 5.607 9.383a13.929 13.929 0 0 0 10.134 1.554c3.447-.659 9.013-1.42 12.172-2.912l-18.52-3.827s-11.965-.741-6.821-23.665c5.144-22.923 7.634-39.375 7.634-39.375z" opacity=".2"/><path fill="#263238" d="M237.709 343.977c.013-.595.078-1.187.195-1.77.175-1.224.402-2.85.68-4.815.596-4.116 1.409-9.723 2.294-15.886a983.73 983.73 0 0 0 2.16-15.896l.608-4.826a9.863 9.863 0 0 1 .267-1.759c.021.594 0 1.189-.062 1.78a145.947 145.947 0 0 1-.442 4.846c-.422 4.115-1.122 9.723-2.006 15.937-.885 6.215-1.749 11.812-2.439 15.855a254.35 254.35 0 0 1-.854 4.795c-.085.59-.219 1.171-.401 1.739z"/><path fill="#FAFAFA" d="M237.123 311.526c0 .082-1.327-.422-3.447-1.081a54.465 54.465 0 0 0-17.11-2.5c-2.222 0-3.601.144-3.611.052.309-.104.631-.166.957-.186a29.719 29.719 0 0 1 2.644-.246c5.858-.3 11.717.556 17.244 2.52 1.029.381 1.893.721 2.459 1.029.305.099.595.238.864.412zm-1.112 4.589c0 .082-1.338-.432-3.499-1.029a48.728 48.728 0 0 0-17.387-1.883c-2.243.165-3.632.381-3.643.288.307-.127.628-.213.957-.257.618-.134 1.523-.278 2.655-.401a40.709 40.709 0 0 1 8.869 0c2.946.323 5.85.957 8.663 1.893 1.08.37 1.934.71 2.51.967.576.257.895.381.875.422z"/><path fill="#455A64" d="M250.703 283.252a3.234 3.234 0 0 0-2.058-3.025 7.68 7.68 0 0 0-3.426 0 18.172 18.172 0 0 1-11.667-2.819c-3.087-2.058-5.607-5.011-9.033-6.41a6.095 6.095 0 0 0-2.789-.525 3.141 3.141 0 0 0-2.417 1.358c-.834 1.307-.278 3.087.679 4.311-1.842.936-2.789 3.354-1.605 5.052a32.381 32.381 0 0 1 21.235 12.347 10.072 10.072 0 0 0 3.087 3.158c2.438 1.256 5.669-.236 6.832-2.716a8.126 8.126 0 0 0-1.029-7.778 3.233 3.233 0 0 0 2.191-2.953z"/><path fill="#263238" d="M248.243 285.958a3.24 3.24 0 0 1-1.029.535c-.952.392-1.952.655-2.973.782a12.465 12.465 0 0 1-4.569-.267 14.943 14.943 0 0 1-5.031-2.459c-1.615-1.163-3.014-2.418-4.321-3.488a27.858 27.858 0 0 0-3.642-2.614 18.676 18.676 0 0 0-3.807-1.584 3.55 3.55 0 0 1 1.122.144c1.002.239 1.968.613 2.87 1.111a25.38 25.38 0 0 1 3.766 2.552c1.337 1.029 2.737 2.304 4.321 3.436a14.846 14.846 0 0 0 4.846 2.418c1.434.385 2.925.51 4.403.37a18.834 18.834 0 0 0 4.044-.936z"/><path fill="#FAFAFA" d="M244.395 297.265a5.1 5.1 0 0 0 .72-.278 3.645 3.645 0 0 0 1.482-1.461 5.27 5.27 0 0 0 .628-3.014 15.79 15.79 0 0 0-.731-3.766 2.057 2.057 0 0 0-1.564-1.399h-.185l.165-.196a4.696 4.696 0 0 0 1.029-2.767 4.648 4.648 0 0 0-.535-2.295 5.637 5.637 0 0 0-1.369-1.656c.17.095.329.209.473.339.412.357.76.782 1.029 1.255.407.719.616 1.531.607 2.357a4.895 4.895 0 0 1-1.029 2.901l-.205-.134a2.229 2.229 0 0 1 1.738 1.533 15.03 15.03 0 0 1 .741 3.848 5.397 5.397 0 0 1-.699 3.087 3.662 3.662 0 0 1-1.575 1.451c-.226.107-.47.173-.72.195zm-6.204-17.717c.5.481.896 1.059 1.163 1.698a6.88 6.88 0 0 1 .288 4.918l-.165.442v-.092c.379.697.606 1.465.668 2.256a5.677 5.677 0 0 1-.307 2.333 4.241 4.241 0 0 1-.978 1.646 8.55 8.55 0 0 0 .834-1.688 5.663 5.663 0 0 0-.402-4.434v-.103l.155-.422a6.998 6.998 0 0 0-.216-4.794 9.56 9.56 0 0 0-1.04-1.76zm-4.321-2.161c.082.095.148.203.196.319.15.312.264.64.339.978a5.145 5.145 0 0 1-.411 3.343 4.895 4.895 0 0 1-.659 1.029v-.061a3.27 3.27 0 0 1-1.224 2.263c-.198.163-.42.295-.658.391a.65.65 0 0 1-.258.082c.289-.171.568-.36.834-.565a3.349 3.349 0 0 0 1.101-2.182c.242-.296.452-.617.627-.957a5.284 5.284 0 0 0 .453-3.22c-.082-.48-.196-.954-.34-1.42zm-5.586-4.012a6.752 6.752 0 0 0-1.08 1.142 4.57 4.57 0 0 0-.7 3.581v.308h-.102a3.186 3.186 0 0 0-2.367 2.439 4.61 4.61 0 0 0 0 1.492 1.151 1.151 0 0 1-.123-.391 3.077 3.077 0 0 1 0-1.132 3.278 3.278 0 0 1 2.459-2.614l-.072.134-.062-.216a4.602 4.602 0 0 1 .792-3.724c.237-.316.518-.597.834-.834a1.44 1.44 0 0 1 .421-.185zm-8.632 7.973a1.253 1.253 0 0 1-.34-.381 3.433 3.433 0 0 1-.504-1.286 3.335 3.335 0 0 1 .319-2.057 3.45 3.45 0 0 1 1.914-1.657l-.051.165-.165-.237a3.606 3.606 0 0 1-.504-2.593 3.43 3.43 0 0 1 1.029-1.872 3.252 3.252 0 0 1 1.255-.741 1.78 1.78 0 0 1 .525-.113 4.304 4.304 0 0 0-1.677.957 3.469 3.469 0 0 0-.957 1.81 3.428 3.428 0 0 0 .494 2.429c.045.079.097.155.154.226l.082.123h-.134a3.27 3.27 0 0 0-1.81 1.544 3.084 3.084 0 0 0-.34 1.924c.085.637.329 1.242.71 1.759z"/><path fill="#5FBE3F" d="M92.422 358.536a71.239 71.239 0 0 1 7.84-14.898 9.581 9.581 0 0 1 4.116-3.807c2.952-1.122 6.173.689 8.786 2.428l6.112 4.023a1.586 1.586 0 0 1 .812.936c.103.761-.833 1.194-1.594 1.286-2.609.3-5.239-.35-7.408-1.831-1.646-1.132-3.251-2.809-5.237-2.603-2.459.257-3.56 3.086-4.517 5.412a24.317 24.317 0 0 1-10.453 11.75"/><path fill="#5FBE3F" d="M92.411 359.544c.474-12.234.957-24.56 3.88-36.433 2.921-11.873 8.518-23.428 17.716-31.494-1.214 10.289-4.959 20.114-8.663 29.837-5 13.033-9.997 26.065-14.99 39.098m-.072 3.436a135.913 135.913 0 0 0-9.26-32.379 7.966 7.966 0 0 0-2.82-3.971c-2.057-1.255-4.773-.432-7.006.566a56.979 56.979 0 0 0-14.569 9.414 2.057 2.057 0 0 0-.781 1.101 1.439 1.439 0 0 0 1.142 1.482 4.117 4.117 0 0 0 2.057-.124l12.223-2.829a6.369 6.369 0 0 1 3.745-.103c1.43.566 2.233 2.058 2.922 3.447l12.007 24.199"/><path fill="#000" d="M92.422 358.536a71.239 71.239 0 0 1 7.84-14.898 9.581 9.581 0 0 1 4.116-3.807c2.952-1.122 6.173.689 8.786 2.428l6.112 4.023a1.586 1.586 0 0 1 .812.936c.103.761-.833 1.194-1.594 1.286-2.609.3-5.239-.35-7.408-1.831-1.646-1.132-3.251-2.809-5.237-2.603-2.459.257-3.56 3.086-4.517 5.412a24.317 24.317 0 0 1-10.453 11.75" opacity=".4"/><path fill="#000" d="M92.411 359.544c.474-12.234.957-24.56 3.88-36.433 2.921-11.873 8.518-23.428 17.716-31.494-1.214 10.289-4.959 20.114-8.663 29.837-5 13.033-9.997 26.065-14.99 39.098" opacity=".4"/><path fill="#000" d="M90.282 363.988a135.913 135.913 0 0 0-9.26-32.379 7.966 7.966 0 0 0-2.82-3.971c-2.057-1.255-4.773-.432-7.006.566a56.979 56.979 0 0 0-14.569 9.414 2.057 2.057 0 0 0-.781 1.101 1.439 1.439 0 0 0 1.142 1.482 4.117 4.117 0 0 0 2.057-.124l12.223-2.829a6.369 6.369 0 0 1 3.745-.103c1.43.566 2.233 2.058 2.922 3.447l12.007 24.199" opacity=".3"/><path fill="#5FBE3F" d="M108.852 271.801a72.83 72.83 0 0 0-17.028 43.059c-1.152 26.03-2.685 44.787-2.685 44.787h2.87s5.741-52.473 9.569-61.63c3.827-9.157 9.764-22.183 7.274-26.216z"/><path fill="#263238" d="M108.852 271.801a4.45 4.45 0 0 1-.36.833l-1.101 2.346a159.824 159.824 0 0 0-3.724 8.766c-1.461 3.745-3.087 8.231-4.589 13.376a135.933 135.933 0 0 0-4.002 16.781c-.515 3.014-.751 5.998-.967 8.889-.216 2.891-.391 5.68-.546 8.334-.308 5.32-.638 10.114-1.08 14.116-.442 4.003-.957 7.203-1.41 9.446-.205 1.111-.421 1.955-.555 2.541-.05.295-.129.585-.237.864.021-.301.066-.6.134-.895.103-.576.278-1.43.463-2.551.38-2.213.854-5.433 1.235-9.446.38-4.012.668-8.786.957-14.106.144-2.654.298-5.453.514-8.344.173-2.995.495-5.979.967-8.941a130.002 130.002 0 0 1 4.054-16.863c1.553-5.145 3.2-9.62 4.712-13.376 1.512-3.755 2.881-6.708 3.889-8.725.494-1.029.916-1.78 1.194-2.305.136-.255.287-.502.452-.74z"/><path fill="#5FBE3F" d="M119.522 296.175s-19.384 18.52-21.606 36.011c-2.223 17.491-3.22 26.761-3.22 26.761h1.913s4.548-24.878 10.433-32.698c5.885-7.819 13.828-27.975 12.48-30.074z"/><path fill="#263238" d="M119.295 297.379c-.077.204-.174.4-.288.587l-.905 1.635-3.375 5.978c-2.839 5.042-6.77 12.038-10.288 20.115a102.599 102.599 0 0 0-6.935 21.473c-.556 2.839-.875 5.144-1.029 6.77-.103.802-.144 1.43-.206 1.852a3.773 3.773 0 0 1-.092.648 2.919 2.919 0 0 1 0-.658c0-.422 0-1.029.092-1.863a64.7 64.7 0 0 1 .885-6.821 96.35 96.35 0 0 1 6.811-21.607 199.74 199.74 0 0 1 10.495-20.094c1.461-2.5 2.675-4.506 3.529-5.885l1.029-1.585c.072-.191.165-.374.277-.545z"/><path fill="#5FBE3F" d="M82.06 299.426s-2.87 36.556 3.828 58.368h2.294s1.533-47.267-6.121-58.368z"/><path fill="#263238" d="M83.646 306.341c.058.165.09.339.093.514l.154 1.482c.124 1.368.288 3.21.484 5.453.37 4.609.864 10.978 1.368 18.005.504 7.028.926 13.376 1.204 18.026.134 2.254.237 4.116.309 5.474v1.482c.024.174.024.35 0 .524a1.759 1.759 0 0 1-.093-.514l-.154-1.482c-.124-1.368-.278-3.21-.474-5.453-.38-4.609-.864-10.978-1.368-18.016-.504-7.037-.936-13.375-1.214-18.026a926.758 926.758 0 0 0-.309-5.463v-1.492a2.44 2.44 0 0 1 0-.514z"/><path fill="#263238" d="M77.504 355.676s7.027 5.052 6.667 7.397c-.36 2.346-17.254 14.96-16.226 24.91 1.03 9.949 9.199 16.771 23.078 16.225 13.879-.545 23.263-9.198 21.997-18.026-1.265-8.828-15.042-22.892-15.237-23.582-.453-1.944 6.173-6.924 6.173-6.924H77.504z"/><path fill="#FAFAFA" d="M102.772 368.495c0 .144-5.145.268-11.431.268s-11.43-.124-11.43-.268c0-.144 5.144-.267 11.43-.267s11.431.113 11.431.267zm1.615 2.397c0 .144-6.029.268-13.468.268-7.438 0-13.478-.124-13.478-.268 0-.144 6.04-.267 13.478-.267 7.44 0 13.468.123 13.468.267zm2.429 2.685c0 .145-7.12.268-15.917.268s-15.917-.123-15.917-.268c0-.144 7.13-.267 15.917-.267 8.787 0 15.917.093 15.917.267zm2.149 3.509c0 .145-8.231.268-18.344.268-10.114 0-18.355-.123-18.355-.268 0-.144 8.23-.267 18.355-.267 10.124 0 18.344.113 18.344.267z"/></svg>