<svg xmlns="http://www.w3.org/2000/svg" xmlns:xlink="http://www.w3.org/1999/xlink"><symbol fill="none" id="sprite-arrow-r" viewBox="0 0 24 16"><title>arrow-r</title><path fill="#fff" fill-rule="evenodd" d="M15.724 1.057c.52-.52 1.365-.52 1.886 0l6 6c.52.52.52 1.365 0 1.886l-6 6a1.333 1.333 0 11-1.886-1.886l3.724-3.724H1.333a1.333 1.333 0 110-2.666h18.115l-3.724-3.724a1.333 1.333 0 010-1.886z" clip-rule="evenodd"/></symbol><symbol fill="none" id="sprite-chat" viewBox="0 0 40 41"><title>chat</title><g fill="#5FBE3F" clip-path="url(#clip0)"><path d="M37.791 22.938A14.305 14.305 0 0040 15.278C40 7.353 33.55.905 25.625.905c-2.655 0-5.25.73-7.502 2.11a.781.781 0 10.817 1.332 12.785 12.785 0 016.685-1.88c7.065 0 12.812 5.748 12.812 12.813 0 2.562-.753 5.035-2.18 7.15a.781.781 0 00.022.904l.856 3.195-3.436-.92a.78.78 0 00-.655.118 12.725 12.725 0 01-7.42 2.365 12.79 12.79 0 01-4.437-.79 10.823 10.823 0 00-7.583-7.584 12.758 12.758 0 01-.791-4.438c0-2.393.663-4.727 1.919-6.75a.781.781 0 00-1.328-.823 14.34 14.34 0 00-2.154 7.573c0 1.405.202 2.785.6 4.115a10.868 10.868 0 00-1.069-.053C4.836 19.341 0 24.178 0 30.123c0 2.133.617 4.181 1.787 5.947l-.836 3.12a.781.781 0 00.957.957l3.198-.857a10.733 10.733 0 005.675 1.614c2.054 0 4.051-.58 5.777-1.677a.781.781 0 00-.839-1.318 9.189 9.189 0 01-4.938 1.432 9.175 9.175 0 01-5.11-1.545.78.78 0 00-.635-.105l-2.225.597.579-2.162a.781.781 0 00-.119-.656 9.155 9.155 0 01-1.709-5.348c0-5.083 4.136-9.218 9.22-9.218 5.082 0 9.218 4.135 9.218 9.218a9.192 9.192 0 01-.555 3.158.781.781 0 001.468.535 10.747 10.747 0 00.596-4.76c1.331.397 2.711.599 4.116.599 2.88 0 5.645-.844 8.02-2.444l4.393 1.178a.781.781 0 00.957-.957l-1.204-4.493z"/><path d="M29.653 16.942h-7.958a.781.781 0 00-.78.782 4.765 4.765 0 004.759 4.76 4.765 4.765 0 004.76-4.76.781.781 0 00-.781-.782zm-3.979 3.979a3.203 3.203 0 01-3.1-2.416h6.2a3.204 3.204 0 01-3.1 2.416zm6.084-8.313a.781.781 0 00-1.075-.255l-.101.063a.781.781 0 10.821 1.329l.1-.062a.781.781 0 00.255-1.075zm-10.734 0a.781.781 0 00-1.075-.255l-.102.063a.781.781 0 10.822 1.329l.1-.062a.781.781 0 00.255-1.075zM7.037 29.57a.787.787 0 00-.553-.228.787.787 0 00-.552.229.787.787 0 00-.229.552c0 .205.084.407.229.552a.787.787 0 00.552.23.787.787 0 00.553-.23.787.787 0 00.229-.552.787.787 0 00-.23-.552zm4.297 0a.787.787 0 00-.553-.228.787.787 0 00-.552.229.787.787 0 00-.229.552c0 .205.084.407.229.552a.787.787 0 00.552.23.787.787 0 00.553-.23.787.787 0 00.229-.552.787.787 0 00-.23-.552zm4.296 0a.787.787 0 00-.552-.228.787.787 0 00-.552.229.787.787 0 00-.23.552.787.787 0 00.781.781.787.787 0 00.553-.229.787.787 0 00.23-.552.787.787 0 00-.23-.552zm3.498 6.266a.787.787 0 00-.552-.229.786.786 0 00-.552.229.787.787 0 00-.23.552.786.786 0 00.781.781.787.787 0 00.553-.228.787.787 0 00.23-.553.787.787 0 00-.23-.552zM16.591 5.088a.786.786 0 00-1.104 0 .786.786 0 000 1.106.785.785 0 001.104 0 .787.787 0 00.23-.553.789.789 0 00-.23-.553z"/></g><defs><clipPath id="clip0"><path fill="#fff" d="M0 0h40v40H0z" transform="translate(0 .904)"/></clipPath></defs></symbol><symbol fill="none" id="sprite-close" viewBox="0 0 13 13"><title>close</title><path fill="#fff" d="M6.784 6.132l5.128-5.128a.462.462 0 10-.654-.654L6.13 5.478 1.002.35a.462.462 0 10-.654.654l5.128 5.128L.348 11.26a.462.462 0 10.654.653L6.13 6.785l5.128 5.128a.461.461 0 10.654-.653L6.784 6.132z"/></symbol><symbol fill="none" id="sprite-facebook" viewBox="0 0 24 24"><title>facebook</title><path fill="#1F2036" d="M17.563 1.005L14.786 1c-3.12 0-5.137 2.125-5.137 5.414v2.497H6.857c-.242 0-.437.2-.437.448v3.617c0 .248.196.449.437.449h2.792v9.126c0 .248.195.449.437.449h3.643a.443.443 0 00.437-.449v-9.126h3.265c.241 0 .436-.2.436-.449l.002-3.617a.456.456 0 00-.128-.317.431.431 0 00-.31-.131h-3.265V6.794c0-1.017.236-1.533 1.525-1.533h1.871a.444.444 0 00.437-.45V1.454a.443.443 0 00-.436-.448z"/></symbol><symbol fill="none" id="sprite-leaf" viewBox="0 0 59 47"><title>leaf</title><path fill="#00DC00" d="M52.98 23.894l2.229-2.585 2.24-.775c-2.11 1.48-1.154.768-4.47 3.36z"/><path fill="#13F400" d="M54.219 19.178c.272.089.49.16.744.303l2.486 1.053-2.295.757-.935-2.113z"/><path fill="#45FA00" d="M52.979 23.894c.018-.054 1.24-4.716 1.24-4.716l.054.017.935 2.114-2.23 2.585z"/><path fill="#00B800" d="M48.764 27.397l1.933-3.887 2.355.347c-.252.219-3.711 3.065-4.288 3.54z"/><path fill="#00DF00" d="M51.326 19.739l1.708 4.173-2.355-.348.647-3.825z"/><path fill="#00DC00" d="M51.327 19.739l2.893-.561-1.186 4.733-.054-.017-1.653-4.155z"/><path fill="#00CF00" d="M46.216 25.058l4.535-1.53-1.95 3.941c-.055-.018-2.585-2.41-2.585-2.41z"/><path fill="#00C700" d="M46.234 25.004l2.585 2.41a335.702 335.702 0 00-2.557 2.298c-.037-.072-.053.345-.028-4.708z"/><path fill="#00C600" d="M44.023 27.535l1.063 2.275 1.176-.098c-.432.401-.576.475-2.501 2.497l-.432.4.694-5.074z"/><path fill="#00DC00" d="M44.004 27.589l2.23-2.585.027 4.708-.055-.018-2.202-2.105z"/><path fill="#00E100" d="M44.006 27.59l.017-.055 2.24 2.177-1.231.08-1.026-2.203z"/><path fill="#00D600" d="M41.546 34.377s.68-1.344.698-1.399l1.12-.477.377-.42.055.019a66.564 66.564 0 01-2.25 2.277z"/><path fill="#00D600" d="M43.329 32.61l-1.194-2.981 1.906-2.149-.694 5.075-.018.055z"/><path fill="#009E00" d="M39.096 30.082l1.733 2.434 2.517.04s-4.677 1.966-4.75 2.002l.5-4.476z"/><path fill="#00C500" d="M39.078 30.137l.054.017 4.214 2.401-2.534.016-1.734-2.434z"/><path fill="#14E300" d="M39.079 30.137l3.11-.49 1.194 2.98-4.304-2.49z"/><path fill="#00E000" d="M48.941 17.453c.055.018 0 0 0 0l2.385 2.286-.648 3.825-.054-.018-1.683-6.093z"/><path fill="#00A000" d="M47.936 21.824l2.798 1.758-4.534 1.53 1.736-3.288z"/><path fill="#00E400" d="M47.937 21.824l1.024-4.425 1.773 6.183-2.797-1.758z"/><path fill="#00BC00" d="M48.943 17.453c2.356.53 1.05.103 5.332 1.742l-2.911.616-2.421-2.358z"/><path fill="#00E200" d="M39.993 34.894l2.234-1.861.054.018-.698 1.398-1.59.445z"/><path fill="#00DC00" d="M37.312 37.754l2.68-2.86 1.536-.462c-1.187 1.238-.358.545-4.216 3.322z"/><path fill="#5FBE3F" d="M42.226 33.033l-2.234 1.86-1.396-.335 3.63-1.525z"/><path fill="#006C00" d="M37.313 37.754l1.357-3.232 1.396.335-2.699 2.914-.054-.017z"/><path fill="#1EE134" d="M38.67 34.522l-.018.054-1.285 3.196-.98-.502 2.282-2.748z"/><path fill="#00A500" d="M35.362 38.562l1.024-1.292.98.501-2.004.791z"/><path fill="#00DC00" d="M34.316 36.233l2.124 1.055-1.096 1.33-1.028-2.385z"/><path fill="#00CA00" d="M34.334 36.178l1.027 2.384-1.607.68.58-3.064z"/><path fill="#00AE00" d="M38.67 34.522l-.018.054-2.21 2.712-2.142-1 4.37-1.766z"/><path fill="#0BE600" d="M38.652 34.576l-1.16-3.27 1.695-1.134-.535 4.404z"/><path fill="#00C800" d="M34.372 36.25l2.79-2.824 1.508 1.096-4.316 1.783.018-.055z"/><path fill="#00C200" d="M37.16 33.426l.278-2.138.054.017 1.214 3.289-1.546-1.168z"/><path fill="#E0F2B5" d="M44.836 18.04l.054.018 3.045 3.766-1.682 3.306-1.417-7.09z"/><path fill="#00CF00" d="M41.584 25.232l4.705-.21-2.284 2.567-2.421-2.357z"/><path fill="#00CE00" d="M44.225 21.937l2.046 3.139-4.706.21 2.66-3.349z"/><path fill="#00F600" d="M44.225 21.937l.61-3.897.055.018 1.38 7.018-.054-.018-1.991-3.12z"/><path fill="#00CE00" d="M41.584 25.232l2.439 2.303L42.17 29.7l-.587-4.47z"/><path fill="#00C600" d="M38.783 26.245l3.405 3.402-3.129.544-.276-3.946z"/><path fill="#00DB00" d="M38.765 26.3l.018-.055 2.124 1.055 1.28 2.347-.071.036-3.35-3.384z"/><path fill="#00C800" d="M40.853 27.282l.73-2.05.055.017.55 4.398-.054-.018-1.28-2.347z"/><path fill="#008400" d="M33.756 39.242l-1.214-3.288 1.83.297-.616 2.991z"/><path fill="#00C100" d="M30.434 34.663l2.161 1.309 1.16 3.27-3.321-4.58zm-.26 2.084l3.58 2.495-3.224-.45-.356-2.045z"/><path fill="#1FE800" d="M30.156 36.801l.295-2.193 3.32 4.58-.017.054-3.598-2.44z"/><path fill="#00D500" d="M30.476 38.773l3.351.432-.072.037-2.552.07-.727-.539z"/><path fill="#00D000" d="M30.551 39.28c.905-.005 2.299-.032 3.204-.038l-.018.055c-.27.092.235.017-3.726.53l.54-.547z"/><path fill="#37EF00" d="M44.837 18.04l4.178-.623-1.025 4.425-3.153-3.802z"/><path fill="#00E500" d="M35.887 32.347l1.623-1.096c-.018.054-.295 2.193-.295 2.193l-1.328-1.097z"/><path fill="#00A300" d="M34.371 36.25l1.517-3.902 1.327 1.096-2.844 2.807z"/><path fill="#00AB00" d="M32.818 33.634l3.07-1.286-1.534 3.957-1.536-2.67z"/><path fill="#00D600" d="M32.836 33.58l1.518 2.725-1.83-.297.312-2.428z"/><path fill="#00DB00" d="M38.784 26.245l.331 3.964c-2.433-1.217-3.068-1.485-3.667-1.861l3.336-2.103z"/><path fill="#00C800" d="M37.438 31.288l-3.107-1.919 4.802.785-1.695 1.134z"/><path fill="#00E000" d="M35.465 28.293c.09.09 1.815.895 3.613 1.843l-.018.055-4.802-.786c.073-.036 1.189-1.057 1.207-1.112z"/><path fill="#5FBE3F" d="M28.126 39.331l2.459-.522.673.521c-.055-.018-3.15.056-3.132.001z"/><path fill="#00C600" d="M38.986 23.78l2.652 1.47-.748 2.105-1.904-3.575z"/><path fill="#13E500" d="M39.937 25.477l1.025 1.841c-.11-.036-2.07-1.038-2.179-1.073l1.154-.768z"/><path fill="#00BD00" d="M43.615 16.436c3.315.54 2.137.276 5.327 1.017l-.018.055-4.105.586-1.204-1.658z"/><path fill="#00CB00" d="M34.277 29.351l3.179 1.882.036.072-1.622 1.097-1.593-3.05z"/><path fill="#00C700" d="M28.126 39.331l2.425-.05-.467.509-1.976-.404.018-.055z"/><path fill="#0B0" d="M30.433 34.663l.243-1.849 5.21-.467c-.234.165-5.453 2.316-5.453 2.316z"/><path fill="#00E900" d="M29.348 37.803l1.236 1.006-2.476.577-.054-.018 1.294-1.565z"/><path fill="#00AC00" d="M34.332 29.369l1.61 2.996-5.32.431 3.71-3.427z"/><path fill="#00E900" d="M29.347 37.803l.826-1.056.393 2.117-1.219-1.061z"/><path fill="#00E000" d="M38.987 23.78c.018-.054 5.257-1.897 5.257-1.897l-2.66 3.348-2.597-1.45z"/><path fill="#68FF2B" d="M44.892 18.058l-.684 3.934-3.61-1.481 4.294-2.453z"/><path fill="#00D800" d="M40.614 20.456l3.665 1.5c-2.73.433-1.754.21-5.153 1.027l1.488-2.527z"/><path fill="#00EA00" d="M30.433 34.663l2.456-1.066-.312 2.429-2.144-1.363z"/><path fill="#00E300" d="M36.043 24.867l3.895.61-1.209.75c.055.018-2.632-1.342-2.686-1.36z"/><path fill="#00E000" d="M36.044 24.867c1.445-.552 1.77-.626 2.998-1.069l.934 1.751-3.932-.682z"/><path fill="#E0F2B5" d="M28.108 39.386l-1.317-2.419 3.474-.13c-1.043 1.166-.72.729-2.157 2.549z"/><path fill="#00C200" d="M25.66 38.405l1.113-1.565 1.336 2.546-1.396-.336-1.054-.645z"/><path fill="#00D300" d="M26.37 32.913l4.082 1.695-.241 2.211-3.842-3.906z"/><path fill="#00C200" d="M23.533 36.987l2.689-1.41 3.952 1.17-.017.054c-.236-.016-6.642.24-6.624.186z"/><path fill="#00BE00" d="M26.37 32.913l3.804 3.834-.017.054-3.935-1.225.147-2.663z"/><path fill="#12D500" d="M36.043 24.867l2.741 1.378-3.336 2.103.595-3.48z"/><path fill="#00B500" d="M40.615 20.456l3.072-4.057 1.204 1.659-4.239 2.47-.037-.072z"/><path fill="#00CF00" d="M26.37 32.913l4.325-.153-.26 1.903-4.065-1.75z"/><path fill="#19EB00" d="M33.068 26.968c1.417.824 1.871 1.093 2.397 1.325l-1.134 1.076-1.263-2.401z"/><path fill="#00D500" d="M33.104 27.04l2.993-2.155-.613 3.535c-.546-.359-.854-.52-2.38-1.38z"/><path fill="#00AE00" d="M30.676 32.814l2.447-5.828 1.262 2.4-3.709 3.428z"/><path fill="#00A300" d="M37.996 18.336l2.673 2.138-1.487 2.527-.055-.018-1.13-4.647z"/><path fill="#00D300" d="M37.996 18.336L39.18 23l-2.45-.981 1.265-3.684z"/><path fill="#00B800" d="M34.61 21.145l4.626 1.873s-.054-.017-.072.037l-3.677-.358-.878-1.552z"/><path fill="#A7D772" d="M35.45 22.625l3.677.358-.018.054c-1.5.354-1.717.463-4.68 1.424l1.021-1.836z"/><path fill="#00D313" d="M30.314 29.502l2.81-2.516.054.018-2.518 5.865-.346-3.367z"/><path fill="#00C400" d="M26.791 30.52l3.941 2.312-4.38.136.439-2.448z"/><path fill="#5FBE3F" d="M26.771 30.575l.018-.055 2.173.168 1.714 2.126-3.905-2.24z"/><path fill="#00C100" d="M28.945 30.742l1.369-1.24.4 3.384-1.769-2.144z"/><path fill="#A7D772" d="M40.002 17.907l3.702-1.562c-.108.145-2.982 3.966-3.108 4.166l-.594-2.604z"/><path fill="#00CD00" d="M37.978 18.39l2.097-.52.576 2.659-2.673-2.139z"/><path fill="#00CB00" d="M23.478 36.97l3.348-.112-.018.055-1.15 1.492-2.18-1.436z"/><path fill="#36F200" d="M34.615 15.785c7.712.17 7.369.299 9.127.632l-3.684 1.507-5.443-2.14z"/><path fill="#00DC00" d="M30.03 27.24c1.354-.642 4.93-2.004 6.032-2.427 0 0-2.92 2.118-2.938 2.173l-3.094.254z"/><path fill="#00C400" d="M22.832 34.529l3.39 1.047-2.706 1.466-.684-2.513z"/><path fill="#52EC00" d="M26.369 32.913l-.093 2.68-3.463-1.01 3.556-1.67z"/><path fill="#21E21D" d="M30.066 27.313l.018-.055 3.093-.254-2.881 2.553-.23-2.244z"/><path fill="#00DF00" d="M38.05 18.353l-1.318 3.667-2.123-.875 3.442-2.792z"/><path fill="#1BE700" d="M34.67 15.803l5.46 2.085-2.096.52-3.364-2.605z"/><path fill="#00D000" d="M30.066 27.313l.018-.055.285 2.262-1.441 1.277 1.138-3.484z"/><path fill="#21E200" d="M31.016 25.695l4.435-3.07.054.018-1.003 1.781c-1.482.48-.868.259-3.486 1.271z"/><path fill="#00DA00" d="M30.083 27.258L29 30.76l-2.227-.185 3.311-3.317z"/><path fill="#A7D772" d="M30.998 25.75l3.611-4.605.841 1.48c-.017.055-4.38 3.088-4.452 3.124z"/><path fill="#00D200" d="M20.342 33.113l2.542 1.433.648 2.44c-2.569-2.827-1.894-1.943-3.19-3.873z"/><path fill="#00C300" d="M26.807 30.466l-.384 2.465-1.99.012 2.374-2.477z"/><path fill="#57EF00" d="M22.885 34.546l1.547-1.603 1.937-.03.054.018-3.556 1.67.018-.055z"/><path fill="#00CF00" d="M34.615 15.785l.055.018 3.381 2.55-3.404 2.865-.032-5.433z"/><path fill="#55F700" d="M22.831 31.395c2.813-1.791 3.589-2.322 7.253-4.137L26.79 30.52l-3.959.875z"/><path fill="#00CB00" d="M30.661 24.013l3.948-2.868.054.018-3.611 4.604-.055-.018-.336-1.736z"/><path fill="#00C100" d="M26.81 27.695l2.037-1.625 2.206-.303c-2.708 1.104-1.716.645-4.242 1.928z"/><path fill="#00C200" d="M30.662 24.013l.39 1.754-2.278.34 1.888-2.094z"/><path fill="#00D800" d="M32.017 17.286l2.653-1.484-.023 5.416-2.63-3.932z"/><path fill="#0C0" d="M28.912 21.633l5.77-.524-4.037 2.958-1.733-2.434z"/><path fill="#00C700" d="M31.484 18.92l3.18 2.243-5.753.47 2.573-2.714z"/><path fill="#00DE00" d="M28.394 16.765l3.641.466 2.593 3.86-.018.054c-.254-.143-5.98-4.182-6.216-4.38z"/><path fill="#40DD00" d="M22.83 31.395l4.014-.857-2.357 2.423-2.896.018 1.24-1.584z"/><path fill="#3DEF00" d="M21.608 32.924l2.896-.017-1.637 1.694-1.259-1.677z"/><path fill="#A7D772" d="M20.342 33.113l1.32-.171 1.222 1.604-.018.055-2.524-1.488z"/><path fill="#007F00" d="M30.663 24.013l-1.834 2.112-1.016-.392 2.85-1.72z"/><path fill="#45EC28" d="M28.38 23.81l2.337.22-2.868 1.775.532-1.995z"/><path fill="#1EE100" d="M28.928 21.579l1.788 2.452-2.337-.221.549-2.231z"/><path fill="#00AF00" d="M27.867 25.75l.98.32c-2.271 1.789-2.037 1.625-2.109 1.661l1.129-1.98z"/><path fill="#00C100" d="M25.662 23.464l2.204 2.287-1.057 1.944-.018.054-1.129-4.285z"/><path fill="#00BA00" d="M22.603 26.38l.072-.036 4.135 1.35-1.461.788-2.746-2.102z"/><path fill="#00B900" d="M26.217 25.453l.592 2.242-4.207-1.315 3.615-.927z"/><path fill="#008300" d="M25.646 23.518l2.753.237-.532 1.995-2.22-2.232z"/><path fill="#65FF00" d="M20.343 33.113c2.65-1.845 2.343-1.644 2.433-1.735l.055.017-1.186 1.601-1.302.117z"/><path fill="#00AB00" d="M24.067 29.088l-1.464-2.708.018-.054.109.035-.072.037 2.708 2.03-1.299.66z"/><path fill="#43ED00" d="M22.621 26.326l1.5 2.78-2.044.175.544-2.955z"/><path fill="#00C900" d="M22.095 29.227l1.99-.194-2.49 1.537.5-1.343z"/><path fill="#00B100" d="M28.983 21.596l-.602 2.214-2.735-.291 3.337-1.922z"/><path fill="#38D400" d="M30.455 16.173c4.468-.408 4.034-.37 4.215-.37L32 17.34l-1.545-1.167z"/><path fill="#E0F2B5" d="M25.716 23.482l.5 1.97-3.56.946-.054-.018 3.114-2.898z"/><path fill="#59ED3A" d="M28.395 16.765l3.143 2.172c-.017.054-2.572 2.714-2.572 2.714l-.572-4.886z"/><path fill="#00A900" d="M19.026 30.875l3.085-1.703-.462 1.416-2.641.342.018-.055z"/><path fill="#00AF00" d="M19.027 30.876l2.569-.306.054.018-2.038 1.262-.585-.974z"/><path fill="#00B100" d="M24.714 22.13l4.251-.48-3.265 1.886-.986-1.406z"/><path fill="#009200" d="M24.494 18.564c.254.143 4.434 3.015 4.525 3.105l-4.25.479-.275-3.584z"/><path fill="#00B100" d="M26.656 20.053l1.755-3.343.553 4.94-2.308-1.597z"/><path fill="#00C800" d="M28.394 16.765l2.115-.575 1.508 1.096-3.623-.521z"/><path fill="#00DA00" d="M19.205 30.331l3.416-4.005.055.018c-.018.054-.527 2.9-.527 2.9l-2.944 1.087z"/><path fill="#22DE2E" d="M19.204 30.331l2.89-1.104-3.086 1.703.196-.599z"/><path fill="#00C000" d="M24.404 24.74l.328-2.665.968 1.461-1.296 1.204z"/><path fill="#00C800" d="M22.164 22.38c.091.09-.145-.107 2.24 2.36l-1.8 1.64c.017-.054-.421-3.872-.44-4z"/><path fill="#00BF00" d="M22.146 22.435l2.641-.342-.383 2.646-2.258-2.304z"/><path fill="#00B500" d="M20.076 24.35c.054.018 2.317.094 2.39.057l.21 1.937-.018.054-2.582-2.048z"/><path fill="#0D0" d="M20.074 24.35l.055.017 2.49 1.959-1.707 2.093-.838-4.07z"/><path fill="#00C400" d="M19.158 28.448l1.773-.083-1.744 2.02-.03-1.937z"/><path fill="#00C600" d="M20.075 24.35c.055.017.856 4.015.856 4.015l-1.719.1c.594-3.661.419-2.754.863-4.115z"/><path fill="#00CB00" d="M24.495 18.564l2.128-1.354 1.79-.5-1.719 3.415-2.199-1.561z"/><path fill="#00A300" d="M23.267 19.368l1.227-.805.274 3.585-.055-.018-1.446-2.762z"/><path fill="#00C000" d="M22.2 22.453l1.087-3.14 1.483 2.835-2.57.305z"/><path fill="#00B500" d="M20.699 22.625l1.519-.227.229 2.064-.054-.018-1.694-1.819z"/><path fill="#E0F2B5" d="M20.075 24.35l.624-1.725 1.748 1.837-2.317-.095-.055-.017z"/><path fill="#00BD00" d="M23.268 19.368l.055.018-1.123 3.067-1.52.227 2.588-3.312z"/><path fill="#004B00" d="M14.88 27.533l1.141.192-.16.309-2.037 1.624-1.066.314 2.122-2.44z"/><path fill="#00C200" d="M16.138 26.076l1.64-1.332-.267.817-1.526 2.273.153-1.758z"/><path fill="#007F00" d="M14.862 27.587l1.295-1.565-.153 1.757-1.142-.192z"/><path fill="#009A00" d="M16.138 26.076c2.173-2.965 1.976-2.729 2.066-2.82l-.426 1.488-1.64 1.332z"/><path fill="#00A700" d="M14.555 24.474l1.303.065c.055.017.96.012 1.032-.025l1.224-1.166.054.017-2.03 2.711-1.583-1.602z"/><path fill="#00A500" d="M12.982 27.997l2.106-2.023 1.105.12-3.398 3.95.187-2.047z"/><path fill="#00C81B" d="M14.537 24.529l.072-.037 1.566 1.657-1.105-.12-.533-1.5z"/><path fill="#004300" d="M12.02 27.26l1.018.755-.224 1.975-.794-2.73z"/><path fill="#005900" d="M11.925 29.941c-.074-.325-.24-.74-.368-1.084l1.31 1.15-.888-.048-.054-.018z"/><path fill="#00AC00" d="M11.612 28.875l.425-1.669.83 2.802-1.255-1.133z"/><path fill="#00A000" d="M15.858 24.539a43.893 43.893 0 001.517-.59l.811-.638.055.018c-.018.054.09-.091-1.314 1.257l-1.069-.047z"/><path fill="#007400" d="M14.609 24.492l.516 1.554s-1.866-.188-1.883-.133l1.367-1.421z"/><path fill="#E0F2B5" d="M13.26 25.858l1.883.133-2.124 2.078.241-2.21z"/><path fill="#00A900" d="M7.647 28.845l2.211.42 1.473 1.205-.018.055c-1.958-.64-1.178-.265-3.666-1.68z"/><path fill="#009300" d="M9.84 29.32l.103-.87 1.37 2.074-.018.055L9.84 29.32z"/><path fill="#009400" d="M9.888 28.433l.617.14.753 1.934-1.37-2.074z"/><path fill="#004B00" d="M12.019 27.26l1.259-1.456-.259 2.265-1-.808z"/><path fill="#E0F2B5" d="M15.715 21.479l1.42 1.367c-.414.528-1.24 1.584-1.366 1.784l-.054-3.151z"/><path fill="#006C00" d="M14.146 22.774l1.622-1.278.072 3.097-1.694-1.819z"/><path fill="#008400" d="M14.146 22.774l.018-.054 1.676 1.873-1.25-.047-.444-1.772z"/><path fill="#00B706" d="M17.378 21.179l.556-.782-.746 2.467-.054-.018.244-1.667z"/><path fill="#009000" d="M16.697 19.209l.736 1.988-.244 1.667-.054-.018-.438-3.637z"/><path fill="#007200" d="M15.696 21.533l1.018-2.378.456 3.764-1.474-1.386z"/><path fill="#009E00" d="M16.697 19.209l1.238 1.188-.575.836-.663-2.024z"/><path fill="#5FBE3F" d="M12.506 23.744l2.104.748-1.35 1.366-.754-2.114z"/><path fill="#E0F2B5" d="M11.918 22.407l.054.018 2.637 2.067-.018.054-2.086-.802-.587-1.337z"/><path fill="#00BA00" d="M11.918 22.407l1.016.393 1.675 1.692-.018.054-2.673-2.139z"/><path fill="#5FBE3F" d="M12.934 22.8l-.514-1.192 1.744 1.112.427 1.826c-.037-.072.145.108-1.657-1.746z"/><path fill="#009A00" d="M16.642 19.191l1.425-.86-.096 2.138-1.33-1.278z"/><path fill="#008500" d="M8.74 26.791l.072-.036 1.73 1.89-.615-.14-1.187-1.713z"/><path fill="#009400" d="M9.786 29.302l-1.046-2.51.072-.037 1.132 1.695-.103.87-.055-.018z"/><path fill="#0C0" d="M9.84 29.32c-2.31-1.96-2.182-1.797-2.219-1.87l1.19-.695 1.03 2.565z"/><path fill="#00BD00" d="M7.622 27.45c.054.018-.128-.162 2.237 1.816l-.018.054-2.21-.42-.009-1.45z"/><path fill="#0C0" d="M15.4 20.231l.054.018 1.243-1.04-.964 2.396-.334-1.374z"/><path fill="#009100" d="M13.807 20.313l1.944 1.238-1.604 1.223-.34-2.46z"/><path fill="#2BEA0F" d="M13.806 20.313l1.593-.082.351 1.32-1.944-1.238z"/><path fill="#E0F2B5" d="M12.402 21.662l1.459-1.331.34 2.46-1.799-1.129z"/><path fill="#5FBE3F" d="M14.686 18.913l2.011.296-1.26 1.094-.75-1.39z"/><path fill="#00BC00" d="M14.758 18.877l.695 1.372-1.664.119.969-1.491z"/><path fill="#00AF00" d="M12.935 22.8s-2.076-2.125-2.058-2.179l1.599 1.004.459 1.175z"/><path fill="#00B100" d="M10.86 20.675l.017-.054 2.058 2.179-1.016-.392-1.06-1.733z"/><path fill="#E0F2B5" d="M5.717 26.828l1.922.568.045 1.52-1.967-2.088zm1.616-2.364l2.008-.247-.547 2.593-1.461-2.346z"/><path fill="#E0F2B5" d="M4.854 24.498l3.959 2.257-1.191.696-2.768-2.953z"/><path fill="#E0F2B5" d="M4.798 24.48l2.588.002 1.425 2.273-.072.037-3.941-2.312z"/><path fill="#009C00" d="M12.738 17.133l.018-.055 1.983 1.853-.896 1.454-1.105-3.252z"/><path fill="#00BC00" d="M10.858 20.676l-.036-.073 3.094-.254-1.459 1.33-1.599-1.003z"/><path fill="#E0F2B5" d="M11.83 19.366l2.086.983-3.111.309 1.024-1.292z"/><path fill="#E0F2B5" d="M12.757 17.078l1.087 3.308-2.033-.966.946-2.342z"/><path fill="#10B516" d="M15.874 17.675l.953-1.075.688.105-1.587.988-.054-.018z"/><path fill="#008600" d="M15.873 17.675c.183.36.787 1.462.806 1.588l-2.011-.295 1.205-1.293z"/><path fill="#10B516" d="M17.798 15.653l-.301 1.106-.634-.086.935-1.02z"/><path fill="#10B516" d="M15.874 17.675l1.587-.988-.764 2.522c-.037-.072-.804-1.408-.823-1.534z"/><path fill="#009D00" d="M17.799 15.653c.019.127.304 2.57.25 2.733l-1.37.878 1.12-3.611z"/><path fill="#3CE500" d="M16.808 16.655l.756-3.79.055.018c.137 1.792.157 2.1.233 2.788l-1.044.984z"/><path fill="#008900" d="M16.808 16.655l-.226-4.653.982.863-.701 3.808-.055-.018z"/><path fill="#A7D772" d="M13.578 11.803l3.042.271.226 4.653c-1.132-1.695-.237-.379-3.268-4.924z"/><path fill="#17D619" d="M16.096 15.519c.821 1.172.73 1.082.784 1.1l-.935 1.02c-.072.036.133-2.066.15-2.12z"/><path fill="#E0F2B5" d="M12.702 17.06l3.17.615-1.132 1.256-2.038-1.87z"/><path fill="#22B326" d="M16.15 15.536l-.223 2.157-3.243-.578 3.466-1.579z"/><path fill="#009C00" d="M10.822 20.604c.037.072-.036-.073 1.151 1.822l-1.323-.373.172-1.45z"/><path fill="#00BD00" d="M5.895 26.284l1.671 1.149-.017.054c-.055-.018-1.868-.55-1.868-.55l.214-.653z"/><path fill="#3CF700" d="M5.95 26.302l-1.096-1.804 2.786 2.898-.018.055L5.95 26.3z"/><path fill="#009C00" d="M8.508 21.052l1.352 2.129-.555 1.144-.797-3.273z"/><path fill="#00C700" d="M7.883 22.596l1.44 1.675-1.99.193.55-1.868z"/><path fill="#00A700" d="M7.865 22.65l.66-1.652.797 3.273-.054-.018-1.403-1.603z"/><path fill="#5FBE3F" d="M13.594 11.749l2.538 3.842-3.394 1.542.856-5.384z"/><path fill="#009E00" d="M8.508 21.052l1.568-1.114-.234 3.297-1.334-2.183z"/><path fill="#007300" d="M16.565 12.056s1.238-1.764 1.256-1.818l.054.018c-.035.108 0-.182-.256 2.627l-1.054-.826z"/><path fill="#00CA00" d="M4.545 24.518l1.404 1.784-.196.599c.018-.055-1.226-2.329-1.208-2.383z"/><path fill="#E0F2B5" d="M11.065 18.936c.922-3.374.673-2.612 1.083-3.683l.054.018s-.338 4.167-.283 4.185l-1.007 1.237-.054-.017c-.055-.018.207-1.74.207-1.74z"/><path fill="#00BF00" d="M12.148 15.253l.055.018.608 1.825-.946 2.342-.054-.018.337-4.167z"/><path fill="#00DC00" d="M4.546 24.517c.018-.054.326-.074.326-.074l1.096 1.804-1.422-1.73z"/><path fill="#00C800" d="M7.937 22.613l-.55 1.869-2.606.052 3.156-1.92z"/><path fill="#E0F2B5" d="M12.148 15.253c.212-.835 1.142-2.76 1.428-3.45l.054.018-.82 5.275-.054-.018-.608-1.825z"/><path fill="#009B00" d="M4.853 24.497l3.672-3.5-.017.055-.588 1.615-3.067 1.83z"/><path fill="#A7D772" d="M17.008 10.514l.813-.276.036.072-1.238 1.764-.055-.018.444-1.542z"/><path fill="#00B100" d="M16.064 9.905l1 .627-.462 1.597-.538-2.224z"/><path fill="#00D100" d="M13.594 11.749l.054.018 1.77-.627 1.255.952-3.115-.234.036-.11z"/><path fill="#5FBE3F" d="M15.364 11.122l.717-1.272.537 2.224-1.254-.952z"/><path fill="#009400" d="M9.255 18.947l1.617-2.002.055.018-.87 3.03-.802-1.046z"/><path fill="#00BA00" d="M9.273 18.892l.803 1.046-1.569 1.114.766-2.16z"/><path fill="#00AD00" d="M17.877 7.304l.054.017-.073 2.99-.054-.019-.813.277.886-3.265z"/><path fill="#00BD00" d="M17.876 7.304l1.89-1.914-1.272 2.417-.637 2.503-.054-.018.073-2.988z"/><path fill="#E0F2B5" d="M8.267 17.178l.073-.036.915 1.805-.748 2.105-.24-3.874z"/><path fill="#007C00" d="M7.625 18.595l.661-1.471.055.018.185 3.856-.018.054-.883-2.457z"/><path fill="#00C000" d="M8.58 21.015l-1.37 1.24-1.832-.84 3.201-.4z"/><path fill="#E0F2B5" d="M7.624 18.595l.073-.037.81 2.494-3.147.418 2.264-2.875zm8.439-8.691l-.536-2.043 2.422-.594-.904 3.32-.982-.683zM4.57 22.235l2.714-.016-2.43 2.278s-.303-2.207-.285-2.262z"/><path fill="#A7D772" d="M4.55 22.29l.883-.857 1.778.823-2.66.034zm0 0l.358 2.225c-.055-.017-.308.02-.363.003l.006-2.228z"/><path fill="#00BC00" d="M10.194 15.337c.017-.054.017-.054 0 0l1.84-1.025c-1.215 2.796-1.09 2.415-1.143 2.76l-.697-1.735z"/><path fill="#00C400" d="M9.255 18.947c.16-.49.5-1.162.938-3.61l.018-.054.716 1.68-1.672 1.984z"/><path fill="#00CF00" d="M8.285 17.124l1.398.698-.446 1.18-.952-1.878z"/><path fill="#E0F2B5" d="M3.822 21.57l.8.683s-.005 2.228-.022 2.282l-.055-.018-.723-2.947z"/><path fill="#00C100" d="M19.4 4.668l2.095-.882.055.018-1.783 1.586-.366-.722z"/><path fill="#009E00" d="M18.17 4.567c1.933-.573 1.463-.425 3.325-.78l-2.04.9-1.286-.12z"/><path fill="#00A800" d="M14.58 9.841l.966-2.034.573 2.115-.699 1.218-.84-1.299z"/><path fill="#00C200" d="M14.596 9.787l.822 1.353-1.788.68-.054-.017 1.02-2.016z"/><path fill="#00A000" d="M10.213 15.283c-.124.562-.583 2.52-.6 2.575l-1.344-.68 1.944-1.895z"/><path fill="#009600" d="M17.876 7.303l1.578-2.617.311.704-1.835 1.931-.054-.018z"/><path fill="#00A800" d="M17.36 5.568l2.112-.936-1.596 2.672-.516-1.736z"/><path fill="#00B900" d="M14.233 6.294l3.662.955-.017.055-2.296.575-1.349-1.585z"/><path fill="#5FBE3F" d="M14.306 6.257l1.66-.843 1.93 1.835-.019.055-3.661-.956.09-.09z"/><path fill="#00D100" d="M15.948 5.468s1.43.046 1.484.064l.554 1.807-2.038-1.87z"/><path fill="#00CB00" d="M10.193 15.337c.123-.562.157-1.033.489-3.154l1.406 2.146c-.055-.017-1.895 1.008-1.895 1.008z"/><path fill="#E0F2B5" d="M10.61 12.22l3.021-.399c-1.58 2.255-1.239 1.764-1.614 2.545L10.61 12.22zm3.099-2.663l1.818-1.696.055.018-1.95 3.942-.055-.018.132-2.246z"/><path fill="#00B900" d="M11.91 8.608l1.852.966-.15 2.301-1.702-3.267z"/><path fill="#00C700" d="M11.984 8.571l1.648 3.25-2.966.417 1.318-3.667z"/><path fill="#00D500" d="M17.36 5.568l.809-1.001 1.285.119-2.094.882z"/><path fill="#00C400" d="M5.188 19.787l2.437-1.192.055.017-2.264 2.876-.228-1.701z"/><path fill="#00D923" d="M4.55 22.29l-.113-.941 1.05.102-.936.839z"/><path fill="#00AF00" d="M4.414 20.498l1.074.953-1.05-.102-.024-.851z"/><path fill="#E0F2B5" d="M7.625 18.595L6.189 14.51l2.08 2.667-.644 1.417z"/><path fill="#008600" d="M6.185 17.1l1.51 1.458-.017.055-2.509 1.228 1.016-2.74z"/><path fill="#E0F2B5" d="M6.186 17.1l.94-.114.57 1.572-.071.037L6.186 17.1z"/><path fill="#00D917" d="M3.805 21.625l.65-.33.15 1.013-.8-.683z"/><path fill="#00AF00" d="M6.19 14.51l4.022.773-.017.054-1.927 1.841-2.078-2.667z"/><path fill="#E0F2B5" d="M7.071 13.835c.055.018 3.14 1.448 3.14 1.448l-.018.054-4.005-.826.883-.676z"/><path fill="#5FBE3F" d="M8.628 13.5l1.585 1.783-.018.054c-.109-.035-3.085-1.43-3.194-1.465.126-.019-.055-.018 1.627-.372z"/><path fill="#00C900" d="M8.555 13.536c.072-.036 2.074-1.37 2.11-1.299-.296 2.012-.329 2.483-.47 3.1l-1.64-1.8z"/><path fill="#00D61E" d="M3.556 19.435l.018-.055.84 1.118.022.85-.88-1.913z"/><path fill="#00C700" d="M3.556 19.435l.018-.055.917 1.987-.704.312-.23-2.244z"/><path fill="#5FBE3F" d="M15.6 7.824l-1.837 1.75-1.852-.966 3.688-.784z"/><path fill="#00BE00" d="M14.288 6.312l1.294 1.567-3.634.801c.485-.745.017-.235 2.34-2.368z"/><path fill="#00D500" d="M18.223 4.585c-.018.054-.809 1-.809 1l-1.467-.117c1.372-.696.686-.439 2.276-.883z"/><path fill="#008600" d="M5.37 16.834l.87.284-.998 2.687-.055-.018.182-2.953z"/><path fill="#00B100" d="M6.342 15.886l-.153-1.375.018-.055.92 2.53-.018.055-.767-1.155z"/><path fill="#00A100" d="M6.305 15.814l.803 1.226-.94.115c.07-.218.156-1.215.137-1.341z"/><path fill="#E0F2B5" d="M8.483 10.621l3.554-2.032-1.372 3.649-2.182-1.617z"/><path fill="#00DA00" d="M8.5 10.566l2.181 1.617-.017.054c-.072.037-2.038 1.262-2.056 1.317L8.5 10.566z"/><path fill="#00AC00" d="M6.36 15.832l-.12 1.286-.887-.23 1.007-1.057z"/><path fill="#20D000" d="M8.502 10.567l.108 2.987c-.054-.018-1.537.281-1.555.336l1.447-3.323z"/><path fill="#00A900" d="M5.37 16.834l.891-2.36.055.018c-.018.054.098 1.357.08 1.412l-1.026.93z"/><path fill="#00AC00" d="M8.5 10.567c1.96-2.312 2.14-2.495 2.625-3.059 0 0 .803 1.045.857 1.063L8.5 10.567z"/><path fill="#00CE00" d="M11.108 7.562l.796-.04-.017.054.115 1.122-.894-1.136z"/><path fill="#00B300" d="M8.501 10.567l-1.43 3.268-.828.693-.054-.017c.463-1.235.016-.417 2.312-3.944z"/><path fill="#00B100" d="M11.108 7.562c.253-.218.45-.455 1.062-1.038l-.283 1.052-.779-.014z"/><path fill="#009100" d="M10.644 24.28l.072-.036 1.357 3.034-1.105-.301-.324-2.697z"/><path fill="#007400" d="M10.984 26.923l1.088.355-.424 1.67a32.797 32.797 0 01-.664-2.025z"/><path fill="#E0F2B5" d="M10.645 24.28l1.86-.536.755 2.114-1.258 1.457-1.357-3.034zM8.74 26.792l1.151-1.311.652 3.165-1.803-1.854z"/><path fill="#A7D772" d="M11.936 22.353l.624 1.409-1.916.519 1.292-1.928z"/><path fill="green" d="M9.27 24.253l.536-1.09.054.018c.02.127-.019-.127.068 2.372l-.659-1.3z"/><path fill="#00A900" d="M9.285 24.199l.605 1.282-1.169 1.365.564-2.647z"/><path fill="#00A600" d="M10.822 20.604l-.172 1.45 1.323.372-1.346 1.91c.018-3.007-.048-1.884.195-3.732z"/></symbol><symbol fill="none" id="sprite-linked-in" viewBox="0 0 24 24"><title>linked-in</title><path fill="#1F2036" d="M21.995 22H22v-7.336c0-3.588-.773-6.352-4.968-6.352-2.016 0-3.37 1.106-3.922 2.155h-.058v-1.82H9.074v13.352h4.142v-6.611c0-1.741.33-3.425 2.486-3.425 2.124 0 2.156 1.987 2.156 3.536V22h4.137zM2.33 8.648h4.147V22H2.33V8.648zM4.402 2A2.402 2.402 0 002 4.402c0 1.325 1.076 2.424 2.402 2.424 1.325 0 2.401-1.098 2.401-2.424A2.403 2.403 0 004.402 2z"/></symbol><symbol fill="none" id="sprite-next" viewBox="0 0 8 12"><title>next</title><path fill="#F2F2F2" d="M7.333 5.532L1.993.192A.652.652 0 001.529 0a.652.652 0 00-.464.192L.67.585a.657.657 0 000 .928l4.485 4.485-4.49 4.489a.652.652 0 00-.191.464c0 .176.068.34.191.464l.394.393a.652.652 0 00.464.192.65.65 0 00.464-.192l5.345-5.345a.653.653 0 00.191-.465.652.652 0 00-.19-.466z"/></symbol><symbol class="ldi-47ibm8" display="block" overflow="hidden" pointer-events="all" preserveAspectRatio="xMidYMid" style="width:525px;webkit-user-select:none;webkit-transform-origin:262.5px 262.5px;webkit-perspective-origin:262.5px 262.5px;webkit-logical-width:525px;webkit-logical-height:525px;user-select:none;transform-origin:262.5px 262.5px;r:0;perspective-origin:262.5px 262.5px;overflow-y:hidden;overflow-x:hidden;inline-size:525px;height:525px;d:none;block-size:525px;background:0 0/auto padding-box border-box" id="sprite-ok" viewBox="0 0 100 100"><title>ok</title><svg xmlns="http://www.w3.org/2000/svg" id="圖層_1" x="0" y="0" display="block" overflow="hidden" pointer-events="all" version="1.1" viewBox="0 0 100 100" xml:space="preserve" style="x:0;webkit-user-select:none;webkit-transform-origin:50px 50px;webkit-perspective-origin:0 0;user-select:none;transform-origin:50px 50px;r:0;perspective-origin:0 0;overflow-y:hidden;overflow-x:hidden"><g style="x:0;webkit-user-select:none;webkit-transform-origin:50px 50px;webkit-perspective-origin:0 0;user-select:none;transform-origin:50px 50px;r:0;perspective-origin:0 0"><g style="x:0;webkit-user-select:none;webkit-transform-origin:50px 50px;webkit-transform:matrix(.7,0,0,.7,0,0);webkit-perspective-origin:0 0;user-select:none;transform-origin:50px 50px;r:0;perspective-origin:0 0"><g style="x:0;webkit-user-select:none;webkit-transform-origin:50px 50px;webkit-perspective-origin:0 0;user-select:none;transform-origin:50px 50px;r:0;perspective-origin:0 0"><g style="webkit-user-select:none;webkit-perspective-origin:0 0;user-select:none;perspective-origin:0 0" transform="scale(.7)"><style/><g style="y:0;x:0;webkit-user-select:none;webkit-transform-origin:50px 50px;webkit-perspective-origin:0 0;webkit-animation-duration:2.2s;webkit-animation-delay:.169231s;webkit-animation:2.2s ease .169231s 1 normal none running none;user-select:none;transform-origin:50px 50px;r:0;perspective-origin:0 0;d:none"><circle cx="50" cy="50" r="40" fill="none" stroke="#3c3" style="webkit-user-select:none;webkit-perspective-origin:0 0;user-select:none;r:40px;perspective-origin:0 0;cy:50px;cx:50px" stroke-miterlimit="10" stroke-width="8"/></g><g style="x:0;webkit-user-select:none;webkit-transform-origin:50px 50px;webkit-perspective-origin:0 0;user-select:none;transform-origin:50px 50px;r:0;perspective-origin:0 0"><g style="webkit-user-select:none;webkit-perspective-origin:0 0;user-select:none;perspective-origin:0 0"><g style="y:0;x:0;webkit-user-select:none;webkit-transform-origin:50px 50px;webkit-perspective-origin:0 0;webkit-animation-duration:2.2s;webkit-animation-delay:.338462s;webkit-animation:2.2s ease .338462s 1 normal none running none;user-select:none;transform-origin:50px 50px;r:0;perspective-origin:0 0;d:none"><path fill="#3c3" style="webkit-user-select:none;webkit-perspective-origin:0 0;user-select:none;r:0;perspective-origin:0 0" d="M43.7 69.4L25 47.7l3.9-3.9 14.8 12.6 28.6-25.8 2.7 2.7z"/></g></g></g></g></g></g></g><style>@keyframes ldt-bounce-in{0%{-webkit-transform:scale(0);transform:scale(0)}5%{-webkit-transform:scale(.0846);transform:scale(.0846)}6%{-webkit-transform:scale(.191);transform:scale(.191)}7%{-webkit-transform:scale(.3255);transform:scale(.3255)}8%{-webkit-transform:scale(.4804);transform:scale(.4804)}9%{-webkit-transform:scale(.646);transform:scale(.646)}10%{-webkit-transform:scale(.8116);transform:scale(.8116)}11%{-webkit-transform:scale(.9665);transform:scale(.9665)}12%{-webkit-transform:scale(1.1);transform:scale(1.1)}13%{-webkit-transform:scale(1.2069);transform:scale(1.2069)}14%{-webkit-transform:scale(1.2796);transform:scale(1.2796)}19%{-webkit-transform:scale(1.1558);transform:scale(1.1558)}20%{-webkit-transform:scale(1.07);transform:scale(1.07)}21%{-webkit-transform:scale(.9823);transform:scale(.9823)}22%{-webkit-transform:scale(.901);transform:scale(.901)}23%{-webkit-transform:scale(.8328);transform:scale(.8328)}25%{-webkit-transform:scale(.7551);transform:scale(.7551)}29%{-webkit-transform:scale(.8516);transform:scale(.8516)}31%{-webkit-transform:scale(.973);transform:scale(.973)}33%{-webkit-transform:scale(1.0857);transform:scale(1.0857)}35%{-webkit-transform:scale(1.1538);transform:scale(1.1538)}40%{-webkit-transform:scale(1.0771);transform:scale(1.0771)}42%{-webkit-transform:scale(.9954);transform:scale(.9954)}45%{-webkit-transform:scale(.9057);transform:scale(.9057)}52%{-webkit-transform:scale(.9908);transform:scale(.9908)}56%{-webkit-transform:scale(1.0623);transform:scale(1.0623)}64%{-webkit-transform:scale(.9845);transform:scale(.9845)}}@-webkit-keyframes ldt-bounce-in{0%{-webkit-transform:scale(0);transform:scale(0)}5%{-webkit-transform:scale(.0846);transform:scale(.0846)}6%{-webkit-transform:scale(.191);transform:scale(.191)}7%{-webkit-transform:scale(.3255);transform:scale(.3255)}8%{-webkit-transform:scale(.4804);transform:scale(.4804)}9%{-webkit-transform:scale(.646);transform:scale(.646)}10%{-webkit-transform:scale(.8116);transform:scale(.8116)}11%{-webkit-transform:scale(.9665);transform:scale(.9665)}12%{-webkit-transform:scale(1.1);transform:scale(1.1)}13%{-webkit-transform:scale(1.2069);transform:scale(1.2069)}14%{-webkit-transform:scale(1.2796);transform:scale(1.2796)}19%{-webkit-transform:scale(1.1558);transform:scale(1.1558)}20%{-webkit-transform:scale(1.07);transform:scale(1.07)}21%{-webkit-transform:scale(.9823);transform:scale(.9823)}22%{-webkit-transform:scale(.901);transform:scale(.901)}23%{-webkit-transform:scale(.8328);transform:scale(.8328)}25%{-webkit-transform:scale(.7551);transform:scale(.7551)}29%{-webkit-transform:scale(.8516);transform:scale(.8516)}31%{-webkit-transform:scale(.973);transform:scale(.973)}33%{-webkit-transform:scale(1.0857);transform:scale(1.0857)}35%{-webkit-transform:scale(1.1538);transform:scale(1.1538)}40%{-webkit-transform:scale(1.0771);transform:scale(1.0771)}42%{-webkit-transform:scale(.9954);transform:scale(.9954)}45%{-webkit-transform:scale(.9057);transform:scale(.9057)}52%{-webkit-transform:scale(.9908);transform:scale(.9908)}56%{-webkit-transform:scale(1.0623);transform:scale(1.0623)}64%{-webkit-transform:scale(.9845);transform:scale(.9845)}}</style></svg></symbol><symbol fill="none" id="sprite-phone" viewBox="0 0 30 30"><title>phone</title><g clip-path="url(#clip0)"><path d="M21.56 30a8.358 8.358 0 01-2.867-.512A30.577 30.577 0 017.59 22.41 30.575 30.575 0 01.512 11.307a8.298 8.298 0 01-.423-4.08 8.494 8.494 0 011.445-3.62A8.528 8.528 0 014.462.998a8.354 8.354 0 014-.999c.442 0 .824.309.917.741l1.471 6.867a.937.937 0 01-.254.86l-2.514 2.514a24.676 24.676 0 0010.936 10.936l2.515-2.514a.938.938 0 01.859-.254l6.867 1.471a.937.937 0 01.74.917 8.352 8.352 0 01-.998 4 8.528 8.528 0 01-2.608 2.928 8.494 8.494 0 01-3.621 1.445c-.404.06-.808.089-1.211.089zM7.714 1.916c-1.875.207-3.539 1.19-4.644 2.766a6.459 6.459 0 00-.794 5.984 28.434 28.434 0 0017.058 17.06 6.46 6.46 0 005.985-.796c1.576-1.104 2.56-2.768 2.766-4.643l-5.586-1.197-2.626 2.626a.937.937 0 01-1.061.185A26.545 26.545 0 016.098 11.19a.937.937 0 01.186-1.061L8.91 7.502 7.713 1.916z" fill="#5FBE3F"/></g><defs><clipPath id="clip0"><path fill="#fff" d="M0 0h30v30H0z"/></clipPath></defs></symbol><symbol fill="none" id="sprite-pin" viewBox="0 0 30 30"><title>pin</title><path d="M15 6.449a5.576 5.576 0 00-5.57 5.57A5.576 5.576 0 0015 17.587a5.576 5.576 0 005.569-5.57 5.576 5.576 0 00-5.57-5.569zm0 8.794a3.228 3.228 0 01-3.225-3.225 3.228 3.228 0 013.224-3.224 3.228 3.228 0 013.225 3.224 3.228 3.228 0 01-3.225 3.225z" fill="#5FBE3F"/><path d="M14.999 0C8.372 0 2.98 5.391 2.98 12.018v.333c0 3.351 1.922 7.257 5.712 11.608 2.747 3.154 5.456 5.354 5.57 5.446l.737.595.737-.595c.114-.093 2.823-2.292 5.57-5.446 3.79-4.351 5.711-8.257 5.711-11.608v-.333C27.017 5.391 21.626 0 15 0zm9.673 12.35c0 5.665-7.298 12.521-9.673 14.602-2.376-2.082-9.673-8.938-9.673-14.601v-.333c0-5.333 4.339-9.673 9.673-9.673s9.673 4.34 9.673 9.673v.333z" fill="#5FBE3F"/></symbol><symbol fill="none" id="sprite-planning" viewBox="0 0 48 48"><title>planning</title><g clip-path="url(#clip0)"><path fill="#5FBE3F" d="M43.46 24.128H29.233a.55.55 0 00-.55.551v3.213a.55.55 0 00.55.55h14.229a.55.55 0 00.55-.55v-3.213a.55.55 0 00-.55-.55zm-.642 3.213H29.783V25.23h13.035v2.111zM31.12 45.187a2.204 2.204 0 100-4.409 2.204 2.204 0 000 4.409zm0-3.306a1.102 1.102 0 110 2.205 1.102 1.102 0 010-2.205zm5.228 3.306a2.204 2.204 0 100-4.408 2.204 2.204 0 000 4.407zm0-3.306a1.102 1.102 0 110 2.204 1.102 1.102 0 010-2.204zm5.229 3.306a2.204 2.204 0 100-4.408 2.204 2.204 0 000 4.407zm0-3.306a1.102 1.102 0 110 2.204 1.102 1.102 0 010-2.204zM31.12 40.324a2.204 2.204 0 100-4.409 2.204 2.204 0 000 4.409zm0-3.306a1.102 1.102 0 110 2.205 1.102 1.102 0 010-2.205zm5.228 3.306a2.204 2.204 0 100-4.408 2.204 2.204 0 000 4.408zm0-3.306a1.102 1.102 0 110 2.205 1.102 1.102 0 010-2.205zm5.229 3.306a2.204 2.204 0 100-4.408 2.204 2.204 0 000 4.408zm0-3.306a1.102 1.102 0 110 2.205 1.102 1.102 0 010-2.205zM31.12 35.46a2.204 2.204 0 100-4.407 2.204 2.204 0 000 4.408zm0-3.305a1.102 1.102 0 110 2.204 1.102 1.102 0 010-2.204zm5.228 3.305a2.204 2.204 0 100-4.407 2.204 2.204 0 000 4.408zm0-3.305a1.102 1.102 0 110 2.204 1.102 1.102 0 010-2.204zm5.229 3.305a2.204 2.204 0 100-4.407 2.204 2.204 0 000 4.408zm0-3.305a1.102 1.102 0 110 2.204 1.102 1.102 0 010-2.204z"/><path fill="#BBB8F8" d="M20.884 29.269h-5.738a.55.55 0 100 1.102h5.738a.55.55 0 000-1.102z"/><path fill="#5FBE3F" d="M12.523 30.37h.56a.55.55 0 000-1.101h-.56a.55.55 0 000 1.102zm7.543 3.58H17.07a.55.55 0 000 1.102h2.996a.55.55 0 100-1.102zm-5.148 0h-2.395a.55.55 0 000 1.102h2.395a.55.55 0 100-1.102zM10.322 5.2a.55.55 0 00-.55.551v.222a.55.55 0 101.101 0V5.75a.55.55 0 00-.55-.55zm0 2.373a.55.55 0 00-.55.55v7.296a.55.55 0 101.101 0V8.123a.55.55 0 00-.55-.55zm11.346-.716a8.128 8.128 0 108.128 8.127 8.137 8.137 0 00-8.128-8.127zm7.014 7.724H22.85l4.157-4.156a6.993 6.993 0 011.675 4.156zM21.668 7.96a6.994 6.994 0 014.56 1.687l-4.557 4.557-3.586-5.258a6.982 6.982 0 013.583-.986zm0 14.051a7.021 7.021 0 01-4.483-12.43l3.998 5.863a.55.55 0 00.455.24h7.021a7.035 7.035 0 01-6.99 6.327z"/><path fill="#5FBE3F" d="M43.7 21.833h-7.4V9.968a1.53 1.53 0 00-.433-1.079L28.98 1.83a1.542 1.542 0 00-1.1-.466H8.616a1.516 1.516 0 00-1.507 1.543v1.486H5.644a1.539 1.539 0 00-1.441.92c-.08.184-.121.382-.123.582v.885H2.97a1.525 1.525 0 00-1.433.924 1.496 1.496 0 00-.119.582v36.588a1.567 1.567 0 001.552 1.562h23.691a2.785 2.785 0 002.148 1.01H43.7a2.79 2.79 0 002.79-2.79V24.623a2.79 2.79 0 00-2.79-2.79zM28.682 3.098l5.791 5.976H31.47a2.79 2.79 0 01-1.972-.84 2.822 2.822 0 01-.816-1.993V3.098zm-23.5 2.796a.405.405 0 01.14-.292.448.448 0 01.323-.109H7.11v34.1a1.492 1.492 0 001.508 1.518H26.02v1.744H5.645a.489.489 0 01-.463-.473V5.894zM2.97 45.334a.465.465 0 01-.451-.46V8.283a.403.403 0 01.134-.293.434.434 0 01.316-.11h1.11v34.502a1.59 1.59 0 001.565 1.573H26.02v.699c0 .229.027.456.083.678H2.971zm23.049-20.71v4.898a.55.55 0 00-.463-.253h-2.061a.55.55 0 100 1.102h2.06a.55.55 0 00.463-.253v3.832h-3.835a.55.55 0 000 1.102h3.835v4.957H8.617a.389.389 0 01-.406-.416V2.905a.414.414 0 01.406-.44H27.58V6.24a3.927 3.927 0 003.89 3.935h3.73v11.658h-6.39a2.79 2.79 0 00-2.79 2.79zm19.46 20.03a1.7 1.7 0 01-1.699 1.69H28.854c-.931 0-1.733-.758-1.733-1.69V30.37h18.36v14.285zm0-15.385H27.121v-4.644c0-.93.802-1.69 1.733-1.69H43.78a1.701 1.701 0 011.7 1.69v4.644z"/></g><defs><clipPath id="clip0"><path fill="#fff" d="M0 0h47v47H0z" transform="translate(.5 .904)"/></clipPath></defs></symbol><symbol fill="none" id="sprite-prev" viewBox="0 0 8 12"><title>prev</title><path fill="#F2F2F2" d="M2.844 6.003l4.489-4.49a.65.65 0 00.191-.464.651.651 0 00-.191-.464L6.939.192A.651.651 0 006.475 0a.651.651 0 00-.464.192L.666 5.537a.651.651 0 00-.191.465c0 .177.067.342.191.466l5.34 5.34A.651.651 0 006.47 12c.176 0 .34-.068.465-.192l.393-.393a.657.657 0 000-.928L2.844 6.003z"/></symbol><symbol fill="none" id="sprite-team" viewBox="0 0 40 41"><title>team</title><path fill="#5FBE3F" d="M13.254 18.783h13.493a.469.469 0 00.47-.468v-4.948a3.617 3.617 0 00-3.618-3.617H22.46a.338.338 0 01-.264-.127.757.757 0 00-.44-.283l-.168-.032a.708.708 0 00-.636.194l-.247.248H19.31l-.284-.32a.658.658 0 00-.73-.175l-.12.047a.711.711 0 00-.335.29.34.34 0 01-.286.158h-1.154a3.617 3.617 0 00-3.617 3.617v4.948a.468.468 0 00.469.468zm6.99-8.096l-.141.412h-.205l-.14-.412h.486zm-.203 1.42l.601 3.463-.65.76-.63-.752.679-3.47zm-6.318 1.26a2.682 2.682 0 012.68-2.68h1.153a1.272 1.272 0 00.953-.43l.18.203.466 1.292-.756 3.865a.47.47 0 00.1.39l1.128 1.35a.469.469 0 00.357.168h.003a.469.469 0 00.356-.164l1.155-1.35a.47.47 0 00.106-.384l-.694-3.993.398-1.16.208-.208a1.272 1.272 0 00.929.422h1.154a2.682 2.682 0 012.68 2.68v4.478H13.723v-4.479z"/><path fill="#5FBE3F" d="M20 9.21a3.171 3.171 0 003.167-3.168v-1.8a3.168 3.168 0 00-6.335 0v1.8A3.171 3.171 0 0020 9.209zm-2.23-4.967a2.23 2.23 0 014.46 0v1.799a2.23 2.23 0 01-4.46 0v-1.8zm6.661 8.898H22.7a.468.468 0 100 .938h1.732a.469.469 0 100-.938zM6.498 25.468A.469.469 0 006.967 25v-1.97a1.032 1.032 0 011.03-1.031h11.535v3.255a.469.469 0 00.937 0v-3.255h11.535a1.032 1.032 0 011.03 1.03V25a.469.469 0 10.938 0v-1.97a1.97 1.97 0 00-1.968-1.968H20.469V20.05a.469.469 0 10-.937 0v1.012H7.997A1.97 1.97 0 006.03 23.03V25a.469.469 0 00.47.47zm-.001 8.048a2.57 2.57 0 002.568-2.568v-1.4a2.568 2.568 0 00-5.135 0v1.4a2.57 2.57 0 002.567 2.568zm-1.63-3.967a1.63 1.63 0 013.26 0v1.399a1.632 1.632 0 01-1.63 1.63 1.632 1.632 0 01-1.63-1.63v-1.4zm4.429 4.928h-.884a.159.159 0 01-.103-.037.741.741 0 00-1.179.312l-.134.373a.533.533 0 01-.374.345.52.52 0 01-.61-.336l-.133-.386a.735.735 0 00-1.17-.317.16.16 0 01-.113.046H3.7a2.918 2.918 0 00-2.92 2.918v1.599a.469.469 0 00.469.469h10.495a.469.469 0 00.469-.469v-1.6a2.918 2.918 0 00-2.918-2.917zm1.98 4.048H1.72v-1.13a1.982 1.982 0 011.98-1.98h.897c.167 0 .332-.038.482-.112l.047.136a1.456 1.456 0 002.748.017l.055-.154c.14.069.292.107.447.112h.921a1.982 1.982 0 011.98 1.98v1.131zm6.156-8.976v1.399a2.568 2.568 0 005.135 0v-1.4a2.568 2.568 0 10-5.135 0zm4.198 0v1.399a1.63 1.63 0 11-3.26 0v-1.4a1.63 1.63 0 013.26 0zm1.168 4.928h-.884a.16.16 0 01-.103-.037.741.741 0 00-1.179.312l-.134.373a.533.533 0 01-.374.345.52.52 0 01-.61-.336l-.133-.386a.736.736 0 00-1.056-.4.49.49 0 00-.114.083.16.16 0 01-.113.046h-.897a2.918 2.918 0 00-2.918 2.918v1.6a.469.469 0 00.469.468h10.495a.468.468 0 00.469-.469v-1.599a2.918 2.918 0 00-2.918-2.918zm1.98 4.048h-9.557v-1.13a1.983 1.983 0 011.98-1.98h.897c.167 0 .332-.038.482-.112l.047.136a1.456 1.456 0 002.748.017l.055-.154c.14.069.292.107.447.112h.921a1.982 1.982 0 011.98 1.98v1.131zm6.158-8.976v1.399a2.568 2.568 0 005.135 0v-1.4a2.568 2.568 0 10-5.135 0zm4.197 0v1.399a1.632 1.632 0 01-1.63 1.63 1.633 1.633 0 01-1.63-1.63v-1.4a1.63 1.63 0 013.26 0zm1.169 4.928h-.885a.159.159 0 01-.102-.037.741.741 0 00-1.179.312l-.134.373a.533.533 0 01-.374.345.52.52 0 01-.61-.336l-.133-.386a.734.734 0 00-1.17-.317.159.159 0 01-.113.046h-.897a2.917 2.917 0 00-2.918 2.918v1.6a.469.469 0 00.469.468H38.75a.468.468 0 00.468-.469v-1.599a2.916 2.916 0 00-2.917-2.918zm1.98 4.048h-9.557v-1.13a1.982 1.982 0 011.98-1.98h.897c.168 0 .332-.038.482-.112l.047.136a1.457 1.457 0 002.748.017l.056-.154c.139.069.29.107.446.112h.921a1.983 1.983 0 011.98 1.98v1.131z"/></symbol><symbol fill="none" id="sprite-twitter" viewBox="0 0 24 24"><title>twitter</title><path fill="#1F2036" d="M22.5 5.773a8.902 8.902 0 01-2.474.65 4.18 4.18 0 001.894-2.281 8.922 8.922 0 01-2.737 1.001 4.387 4.387 0 00-3.145-1.303c-2.379 0-4.308 1.847-4.308 4.124 0 .323.038.638.112.94-3.58-.172-6.754-1.815-8.879-4.31a3.961 3.961 0 00-.583 2.073c0 1.431.762 2.694 1.916 3.433a4.455 4.455 0 01-1.95-.518v.052c0 1.998 1.485 3.665 3.454 4.044-.36.093-.741.145-1.135.145-.278 0-.547-.026-.81-.077.548 1.64 2.138 2.832 4.023 2.865a8.89 8.89 0 01-5.35 1.763c-.348 0-.69-.02-1.028-.056a12.572 12.572 0 006.603 1.855c7.925 0 12.257-6.285 12.257-11.735l-.015-.534A8.412 8.412 0 0022.5 5.773z"/></symbol><symbol fill="none" id="sprite-watch" viewBox="0 0 40 40"><title>watch</title><path fill="#5FBE3F" d="M20 8.056c-7.951 0-14.42 6.474-14.42 14.432S12.05 36.92 20 36.92s14.42-6.474 14.42-14.432c0-7.957-6.469-14.432-14.42-14.432zm0 27.927c-7.434 0-13.482-6.054-13.482-13.495 0-7.44 6.048-13.494 13.482-13.494 7.434 0 13.483 6.053 13.483 13.494S27.435 35.983 20 35.983z"/><path fill="#5FBE3F" d="M31.352 10.326l1.557-2.095a1.84 1.84 0 00-2.964-2.18L28.43 8.137a16.51 16.51 0 00-7.102-2.248V4.297h1.77a.496.496 0 00.496-.472v-.98c0-1.095-.918-1.986-2.012-1.986h-3.164c-1.094 0-2.012.891-2.012 1.986v.98a.496.496 0 00.497.472h1.456v1.62c-2.36.232-4.643.97-6.692 2.163l-1.534-2.063a1.84 1.84 0 10-2.94 2.213l1.535 2.021a16.616 16.616 0 00-5.367 12.237c0 9.182 7.464 16.653 16.639 16.653 9.174 0 16.639-7.47 16.639-16.653a16.616 16.616 0 00-5.287-12.162zm-.648-3.724a.903.903 0 011.453 1.07l-1.51 2.03a16.74 16.74 0 00-1.42-1.065l1.477-2.035zm-13.36-3.243v-.514a1.072 1.072 0 011.074-1.048h3.164a1.072 1.072 0 011.074 1.048v.514h-5.312zm3.046.938V5.84a17.07 17.07 0 00-1.093.01V4.297h1.093zM7.94 7.662a.903.903 0 011.44-1.086l1.486 2c-.495.327-.973.68-1.432 1.057L7.94 7.663zM20 38.203c-8.657 0-15.7-7.05-15.7-15.715S11.343 6.773 20 6.773c8.659 0 15.702 7.05 15.702 15.715 0 8.666-7.044 15.715-15.701 15.715z"/><path fill="#5FBE3F" d="M20 13.575a8.851 8.851 0 00-5.138 1.637.468.468 0 10.546.761 7.986 7.986 0 11-2.06 2.127.47.47 0 00-.056-.593.467.467 0 00-.72.07 8.866 8.866 0 00-1.478 4.911c0 4.915 3.995 8.914 8.906 8.914 4.91 0 8.906-3.999 8.906-8.914 0-4.915-3.995-8.913-8.906-8.913zm-.078-.782a.469.469 0 00.469-.469v-2.183a.469.469 0 00-.938 0v2.183a.47.47 0 00.469.469zm.156 19.391a.469.469 0 00-.469.468v2.184a.469.469 0 00.938 0v-2.184a.469.469 0 00-.469-.468z"/><path fill="#5FBE3F" d="M21.698 22.922c0-.282-.07-.561-.206-.81l-1.03-6.083a.48.48 0 00-.46-.404H20a.48.48 0 00-.462.4l-1.088 6.206a1.699 1.699 0 002.618 2.01 1.698 1.698 0 00.63-1.319zm-1.706-4.048l.406 2.398a1.694 1.694 0 00-.83.008l.424-2.406zm-.752 4.048a.76.76 0 111.52 0 .76.76 0 01-1.52 0zm10.924-.032h2.184a.469.469 0 000-.937h-2.184a.469.469 0 100 .938zm-20.328-.78H7.652a.469.469 0 000 .937h2.184a.469.469 0 000-.938zm17.309-6.383a.468.468 0 00.33-.137l1.545-1.544a.47.47 0 00-.663-.663l-1.544 1.544a.469.469 0 00.332.8zM12.524 29.386L10.98 30.93a.47.47 0 10.662.663l1.545-1.544a.468.468 0 00-.663-.663zm15.036-.085a.468.468 0 10-.662.663l1.544 1.544a.469.469 0 10.663-.663l-1.544-1.544zM12.439 15.675a.468.468 0 10.662-.663l-1.544-1.544a.468.468 0 00-.662.663l1.544 1.544zm3.983 12.871a.469.469 0 00.48-.806 6.101 6.101 0 01-2.183-8.294.47.47 0 00-.527-.69.468.468 0 00-.285.222 7.038 7.038 0 002.515 9.568zM15.219 18.46a.466.466 0 00.341-.148c.128-.135.263-.267.403-.39a.469.469 0 10-.622-.702 7.303 7.303 0 00-.464.45.468.468 0 00.342.79z"/></symbol></svg>