<svg xmlns="http://www.w3.org/2000/svg" fill="none" viewBox="0 0 40 41"><g fill="#5FBE3F" clip-path="url(#clip0)"><path d="M37.791 22.938A14.305 14.305 0 0 0 40 15.278C40 7.353 33.55.905 25.625.905c-2.655 0-5.25.73-7.502 2.11a.781.781 0 1 0 .817 1.332 12.785 12.785 0 0 1 6.685-1.88c7.065 0 12.812 5.748 12.812 12.813 0 2.562-.753 5.035-2.18 7.15a.781.781 0 0 0 .022.904l.856 3.195-3.436-.92a.78.78 0 0 0-.655.118 12.725 12.725 0 0 1-7.42 2.365c-1.525 0-3.018-.267-4.437-.79-1-3.681-3.903-6.585-7.583-7.584a12.758 12.758 0 0 1-.791-4.438c0-2.393.663-4.727 1.919-6.75a.781.781 0 0 0-1.328-.823 14.34 14.34 0 0 0-2.154 7.573c0 1.405.202 2.785.6 4.115a10.868 10.868 0 0 0-1.069-.053C4.836 19.341 0 24.178 0 30.123c0 2.133.617 4.181 1.787 5.947l-.836 3.12a.781.781 0 0 0 .957.957l3.198-.857a10.733 10.733 0 0 0 5.675 1.614c2.054 0 4.051-.58 5.777-1.677a.781.781 0 0 0-.839-1.318 9.189 9.189 0 0 1-4.938 1.432 9.175 9.175 0 0 1-5.11-1.545.78.78 0 0 0-.635-.105l-2.225.597.579-2.162a.781.781 0 0 0-.119-.656 9.155 9.155 0 0 1-1.709-5.348c0-5.083 4.136-9.218 9.22-9.218 5.082 0 9.218 4.135 9.218 9.218a9.192 9.192 0 0 1-.555 3.158.781.781 0 0 0 1.468.535 10.747 10.747 0 0 0 .596-4.76c1.331.397 2.711.599 4.116.599 2.88 0 5.645-.844 8.02-2.444l4.393 1.178a.781.781 0 0 0 .957-.957l-1.204-4.493z"/><path d="M29.653 16.942h-7.958a.781.781 0 0 0-.78.782 4.765 4.765 0 0 0 4.759 4.76 4.765 4.765 0 0 0 4.76-4.76.781.781 0 0 0-.781-.782zm-3.979 3.979a3.203 3.203 0 0 1-3.1-2.416h6.2a3.204 3.204 0 0 1-3.1 2.416zM31.758 12.608a.781.781 0 0 0-1.075-.255l-.101.063a.781.781 0 1 0 .821 1.329l.1-.062a.781.781 0 0 0 .255-1.075zM21.024 12.608a.781.781 0 0 0-1.075-.255l-.102.063a.781.781 0 1 0 .822 1.329l.1-.062a.781.781 0 0 0 .255-1.075zM7.037 29.57a.787.787 0 0 0-.553-.228.787.787 0 0 0-.552.229.787.787 0 0 0-.229.552c0 .205.084.407.229.552a.787.787 0 0 0 .552.23.787.787 0 0 0 .553-.23.787.787 0 0 0 .229-.552.787.787 0 0 0-.23-.552zM11.334 29.57a.787.787 0 0 0-.553-.228.787.787 0 0 0-.552.229.787.787 0 0 0-.229.552c0 .205.084.407.229.552a.787.787 0 0 0 .552.23.787.787 0 0 0 .553-.23.787.787 0 0 0 .229-.552.787.787 0 0 0-.23-.552zM15.63 29.57a.787.787 0 0 0-.552-.228.787.787 0 0 0-.552.229.787.787 0 0 0-.23.552.787.787 0 0 0 .781.781.787.787 0 0 0 .553-.229.787.787 0 0 0 .23-.552.787.787 0 0 0-.23-.552zM19.128 35.836a.787.787 0 0 0-.552-.229.786.786 0 0 0-.552.229.787.787 0 0 0-.23.552.786.786 0 0 0 .781.781.787.787 0 0 0 .553-.228.787.787 0 0 0 .23-.553.787.787 0 0 0-.23-.552zM16.591 5.088a.786.786 0 0 0-1.104 0 .786.786 0 0 0 0 1.106.785.785 0 0 0 1.104 0 .787.787 0 0 0 .23-.553.789.789 0 0 0-.23-.553z"/></g><defs><clipPath id="clip0"><path fill="#fff" d="M0 0h40v40H0z" transform="translate(0 .904)"/></clipPath></defs></svg>