<svg width="13" height="13" viewBox="0 0 13 13" fill="none" xmlns="http://www.w3.org/2000/svg">
<path d="M6.7839 6.13158L11.9119 1.00354C12.0925 0.823001 12.0925 0.530284 11.9119 0.349763C11.7314 0.169243 11.4387 0.169219 11.2581 0.349763L6.1301 5.4778L1.00208 0.349763C0.821536 0.169219 0.528819 0.169219 0.348299 0.349763C0.167778 0.530307 0.167755 0.823024 0.348299 1.00354L5.47632 6.13156L0.348299 11.2596C0.167755 11.4401 0.167755 11.7329 0.348299 11.9134C0.438559 12.0036 0.55688 12.0488 0.675201 12.0488C0.793522 12.0488 0.91182 12.0036 1.0021 11.9134L6.1301 6.78536L11.2581 11.9134C11.3484 12.0036 11.4667 12.0488 11.585 12.0488C11.7033 12.0488 11.8216 12.0036 11.9119 11.9134C12.0925 11.7328 12.0925 11.4401 11.9119 11.2596L6.7839 6.13158Z" fill="white"/>
</svg>
