<svg width="59" height="47" viewBox="0 0 59 47" fill="none" xmlns="http://www.w3.org/2000/svg">
<path d="M52.9794 23.8939L55.209 21.3086L57.449 20.5342C55.3398 22.0141 56.295 21.3019 52.9794 23.8939Z" fill="#00DC00"/>
<path d="M54.2188 19.1777C54.4908 19.2666 54.7084 19.3377 54.9626 19.481L57.4485 20.5342L55.1541 21.2908L54.2188 19.1777Z" fill="#13F400"/>
<path d="M52.9789 23.8939C52.9967 23.8395 54.2188 19.1777 54.2188 19.1777L54.2731 19.1955L55.2085 21.3086L52.9789 23.8939Z" fill="#45FA00"/>
<path d="M48.7642 27.3968L50.6966 23.5095L53.0517 23.8572C52.7995 24.076 49.3407 26.9224 48.7642 27.3968Z" fill="#00B800"/>
<path d="M51.3262 19.7388L53.0337 23.9117L50.6785 23.5639L51.3262 19.7388Z" fill="#00DF00"/>
<path d="M51.3268 19.7387L54.2198 19.1776L53.0343 23.9115L52.9799 23.8938L51.3268 19.7387Z" fill="#00DC00"/>
<path d="M46.2161 25.0584L50.7507 23.5274L48.8004 27.4692C48.746 27.4514 46.2161 25.0584 46.2161 25.0584Z" fill="#00CF00"/>
<path d="M46.2344 25.0037L48.8186 27.4145C47.6301 28.4722 46.9458 29.0921 46.2616 29.7121C46.225 29.6398 46.2093 30.0565 46.2344 25.0037Z" fill="#00C700"/>
<path d="M44.0234 27.5347L45.0864 29.81L46.2624 29.7122C45.8303 30.1133 45.686 30.1866 43.7608 32.2086L43.3287 32.6097L44.0234 27.5347Z" fill="#00C600"/>
<path d="M44.0042 27.5889L46.2337 25.0036L46.261 29.712L46.2065 29.6942L44.0042 27.5889Z" fill="#00DC00"/>
<path d="M44.0057 27.5891L44.0234 27.5347L46.2624 29.7122L45.032 29.7922L44.0057 27.5891Z" fill="#00E100"/>
<path d="M41.5462 34.3772C41.5462 34.3772 42.2263 33.0329 42.2441 32.9785L43.3636 32.5007L43.7413 32.0819L43.7957 32.0997C43.148 32.7918 42.4282 33.5206 41.5462 34.3772Z" fill="#00D600"/>
<path d="M43.3287 32.6097L42.135 29.6289L44.0412 27.4803L43.3465 32.5553L43.3287 32.6097Z" fill="#00D600"/>
<path d="M39.0957 30.082L40.8294 32.5162L43.3456 32.5551C43.3456 32.5551 38.6688 34.5216 38.5966 34.5582L39.0957 30.082Z" fill="#009E00"/>
<path d="M39.0781 30.1367L39.1325 30.1545L43.3459 32.5553L40.8118 32.5709L39.0781 30.1367Z" fill="#00C500"/>
<path d="M39.0788 30.1368L42.1893 29.6469L43.383 32.6276L39.0788 30.1368Z" fill="#14E300"/>
<path d="M48.9414 17.4534C48.9958 17.4711 48.9414 17.4534 48.9414 17.4534L51.3258 19.7387L50.6782 23.5638L50.6238 23.546L48.9414 17.4534Z" fill="#00E000"/>
<path d="M47.9364 21.8242L50.7341 23.5818L46.1996 25.1127L47.9364 21.8242Z" fill="#00A000"/>
<path d="M47.9367 21.824L48.9609 17.3989L50.7343 23.5816L47.9367 21.824Z" fill="#00E400"/>
<path d="M48.9427 17.4534C51.2989 17.9822 49.9932 17.5556 54.2745 19.1953L51.3638 19.8109L48.9427 17.4534Z" fill="#00BC00"/>
<path d="M39.993 34.8938L42.2268 33.0329L42.2812 33.0507L41.5834 34.4495L39.993 34.8938Z" fill="#00E200"/>
<path d="M37.3119 37.7536L39.9924 34.8938L41.5283 34.4317C40.3408 35.6704 41.1695 34.9772 37.3119 37.7536Z" fill="#00DC00"/>
<path d="M42.2257 33.033L39.9919 34.8939L38.5961 34.5584L42.2257 33.033Z" fill="#5FBE3F"/>
<path d="M37.3131 37.7536L38.6701 34.5217L40.0658 34.8572L37.3674 37.7714L37.3131 37.7536Z" fill="#006C00"/>
<path d="M38.6693 34.5219L38.6516 34.5763L37.3667 37.7715L36.3864 37.2705L38.6693 34.5219Z" fill="#1EE134"/>
<path d="M35.3616 38.5624L36.3859 37.2703L37.3662 37.7713L35.3616 38.5624Z" fill="#00A500"/>
<path d="M34.3164 36.2329L36.4403 37.2883L35.3438 38.6171L34.3164 36.2329Z" fill="#00DC00"/>
<path d="M34.334 36.1782L35.3615 38.5624L33.7543 39.2423L34.334 36.1782Z" fill="#00CA00"/>
<path d="M38.6697 34.5217L38.6519 34.5761L36.4411 37.2881L34.2995 36.2871L38.6697 34.5217Z" fill="#00AE00"/>
<path d="M38.6516 34.5763L37.4922 31.3055L39.1872 30.1723L38.6516 34.5763Z" fill="#0BE600"/>
<path d="M34.3719 36.2504L37.1612 33.4263L38.6699 34.5217L34.3541 36.3049L34.3719 36.2504Z" fill="#00C800"/>
<path d="M37.1602 33.4263L37.4375 31.2876L37.4919 31.3054L38.7056 34.5939L37.1602 33.4263Z" fill="#00C200"/>
<path d="M44.8359 18.04L44.8903 18.0578L47.935 21.8241L46.2526 25.1304L44.8359 18.04Z" fill="#E0F2B5"/>
<path d="M41.5838 25.2316L46.2889 25.0216L44.0049 27.5891L41.5838 25.2316Z" fill="#00CF00"/>
<path d="M44.2251 21.9373L46.2706 25.0758L41.5655 25.2858L44.2251 21.9373Z" fill="#00CE00"/>
<path d="M44.2249 21.9374L44.8359 18.04L44.8903 18.0578L46.2704 25.0759L46.2159 25.0582L44.2249 21.9374Z" fill="#00F600"/>
<path d="M41.584 25.2317L44.0229 27.5348L42.171 29.7012L41.584 25.2317Z" fill="#00CE00"/>
<path d="M38.7832 26.2449L42.1878 29.6467L39.0594 30.1911L38.7832 26.2449Z" fill="#00C600"/>
<path d="M38.7654 26.2993L38.7832 26.2449L40.9071 27.3003L42.1878 29.6467L42.1156 29.6834L38.7654 26.2993Z" fill="#00DB00"/>
<path d="M40.8534 27.2825L41.5837 25.2316L41.6381 25.2494L42.1885 29.6467L42.134 29.6289L40.8534 27.2825Z" fill="#00C800"/>
<path d="M33.7556 39.2424L32.5419 35.9538L34.3718 36.2505L33.7556 39.2424Z" fill="#008400"/>
<path d="M30.4336 34.6628L32.5952 35.9716L33.7543 39.2423L30.4336 34.6628Z" fill="#00C100"/>
<path d="M30.1738 36.7471L33.7541 39.2423L30.5295 38.7913L30.1738 36.7471Z" fill="#00C100"/>
<path d="M30.1561 36.8015L30.4512 34.6084L33.7719 39.1879L33.7541 39.2423L30.1561 36.8015Z" fill="#1FE800"/>
<path d="M30.4762 38.7734L33.8273 39.2055L33.7551 39.2422L31.2034 39.3122L30.4762 38.7734Z" fill="#00D500"/>
<path d="M30.5512 39.2802C31.4562 39.2746 32.8499 39.2479 33.7549 39.2424L33.7371 39.2968C33.4661 39.389 33.9725 39.3135 30.0113 39.8268L30.5512 39.2802Z" fill="#00D000"/>
<path d="M44.8369 18.0401L49.0146 17.4168L47.9903 21.8419L44.8369 18.0401Z" fill="#37EF00"/>
<path d="M35.887 32.3475L37.5097 31.251C37.4919 31.3054 37.2147 33.4441 37.2147 33.4441L35.887 32.3475Z" fill="#00E500"/>
<path d="M34.3715 36.2506L35.8876 32.3477L37.2152 33.4442L34.3715 36.2506Z" fill="#00A300"/>
<path d="M32.8183 33.6341L35.888 32.3476L34.3542 36.3049L32.8183 33.6341Z" fill="#00AB00"/>
<path d="M32.8359 33.5796L34.3542 36.3049L32.5242 36.0082L32.8359 33.5796Z" fill="#00D600"/>
<path d="M38.7844 26.2448L39.115 30.2087C36.6825 28.9922 36.0474 28.7245 35.4479 28.3479L38.7844 26.2448Z" fill="#00DB00"/>
<path d="M37.4377 31.2877L34.3313 29.3691L39.1326 30.1545L37.4377 31.2877Z" fill="#00C800"/>
<path d="M35.4648 28.2933C35.5558 28.3833 37.2801 29.1876 39.0776 30.1364L39.0598 30.1909L34.2585 29.4054C34.3307 29.3687 35.447 28.3477 35.4648 28.2933Z" fill="#00E000"/>
<path d="M28.1263 39.3312L30.585 38.809L31.2578 39.3301C31.2034 39.3123 28.1085 39.3856 28.1263 39.3312Z" fill="#5FBE3F"/>
<path d="M38.9863 23.7805L41.6375 25.2492L40.8895 27.3546L38.9863 23.7805Z" fill="#00C600"/>
<path d="M39.9372 25.4771L40.9615 27.318C40.8527 27.2824 38.892 26.2803 38.7832 26.2448L39.9372 25.4771Z" fill="#13E500"/>
<path d="M43.6147 16.4357C46.9303 16.9768 45.7522 16.7124 48.9422 17.4534L48.9244 17.5078L44.8189 18.0944L43.6147 16.4357Z" fill="#00BD00"/>
<path d="M34.2773 29.3511L37.4559 31.2331L37.4925 31.3053L35.8698 32.4018L34.2773 29.3511Z" fill="#00CB00"/>
<path d="M28.126 39.3312L30.5512 39.2801L30.0835 39.79L28.1082 39.3857L28.126 39.3312Z" fill="#00C700"/>
<path d="M30.4333 34.6627L30.6761 32.814L35.8864 32.3474C35.6521 32.5118 30.4333 34.6627 30.4333 34.6627Z" fill="#00BB00"/>
<path d="M29.3479 37.8026L30.5845 38.8092L28.1081 39.3858L28.0537 39.368L29.3479 37.8026Z" fill="#00E900"/>
<path d="M34.3316 29.3688L35.9419 32.3652L30.6226 32.7963L34.3316 29.3688Z" fill="#00AC00"/>
<path d="M29.347 37.8026L30.1735 36.7472L30.5658 38.8636L29.347 37.8026Z" fill="#00E900"/>
<path d="M38.9875 23.7805C39.0053 23.726 44.2439 21.8829 44.2439 21.8829L41.5843 25.2314L38.9875 23.7805Z" fill="#00E000"/>
<path d="M44.8918 18.0578L44.2085 21.9918L40.598 20.5109L44.8918 18.0578Z" fill="#68FF2B"/>
<path d="M40.6141 20.4565L44.2792 21.9552C41.5484 22.3885 42.5246 22.1652 39.1263 22.9829L40.6141 20.4565Z" fill="#00D800"/>
<path d="M30.433 34.6627L32.8885 33.5972L32.5767 36.0258L30.433 34.6627Z" fill="#00EA00"/>
<path d="M36.0426 24.8671L39.9379 25.4771L38.7294 26.227C38.7839 26.2448 36.097 24.8849 36.0426 24.8671Z" fill="#00E300"/>
<path d="M36.0437 24.8673C37.4886 24.3151 37.814 24.2407 39.0423 23.7985L39.9756 25.5494L36.0437 24.8673Z" fill="#00E000"/>
<path d="M28.1078 39.3858L26.7905 36.9672L30.2651 36.8372C29.222 38.0026 29.5453 37.566 28.1078 39.3858Z" fill="#E0F2B5"/>
<path d="M25.6594 38.4046L26.7726 36.8404L28.1087 39.3856L26.7129 39.0501L25.6594 38.4046Z" fill="#00C200"/>
<path d="M26.3691 32.9131L30.4516 34.6084L30.211 36.8193L26.3691 32.9131Z" fill="#00D300"/>
<path d="M23.5327 36.9871L26.2216 35.5761L30.1744 36.7471L30.1566 36.8015C29.9212 36.7849 23.5149 37.0416 23.5327 36.9871Z" fill="#00C200"/>
<path d="M26.3691 32.9131L30.1744 36.7471L30.1566 36.8015L26.2216 35.5761L26.3691 32.9131Z" fill="#00BE00"/>
<path d="M36.043 24.8672L38.7842 26.2448L35.4477 28.3479L36.043 24.8672Z" fill="#12D500"/>
<path d="M40.6153 20.4564L43.6872 16.399L44.8914 18.0577L40.652 20.5286L40.6153 20.4564Z" fill="#00B500"/>
<path d="M26.3696 32.9132L30.6948 32.7598L30.4342 34.663L26.3696 32.9132Z" fill="#00CF00"/>
<path d="M33.0684 26.968C34.485 27.7924 34.9391 28.0612 35.4654 28.2934L34.3313 29.3689L33.0684 26.968Z" fill="#19EB00"/>
<path d="M33.1044 27.0403L36.0967 24.8849L35.4836 28.4201C34.9385 28.0613 34.6299 27.9002 33.1044 27.0403Z" fill="#00D500"/>
<path d="M30.6763 32.8142L33.1225 26.9859L34.3853 29.3868L30.6763 32.8142Z" fill="#00AE00"/>
<path d="M37.9961 18.3357L40.6693 20.4744L39.1815 23.0008C39.1815 23.0008 39.1815 23.0008 39.1271 22.983L37.9961 18.3357Z" fill="#00A300"/>
<path d="M37.9958 18.3356L39.1813 23.0007L36.7319 22.0197L37.9958 18.3356Z" fill="#00D300"/>
<path d="M34.6094 21.1453L39.236 23.0184C39.236 23.0184 39.1816 23.0006 39.1638 23.055L35.4872 22.6973L34.6094 21.1453Z" fill="#00B800"/>
<path d="M35.4502 22.6251L39.1268 22.9828L39.109 23.0373C37.6086 23.3906 37.3921 23.5005 34.429 24.4605L35.4502 22.6251Z" fill="#A7D772"/>
<path d="M30.3143 29.5024L33.1234 26.986L33.1778 27.0037L30.6595 32.8687L30.3143 29.5024Z" fill="#00D313"/>
<path d="M26.791 30.52L30.7323 32.832L26.3527 32.9675L26.791 30.52Z" fill="#00C400"/>
<path d="M26.7714 30.5747L26.7891 30.5202L28.9622 30.688L30.676 32.8144L26.7714 30.5747Z" fill="#5FBE3F"/>
<path d="M28.9453 30.7423L30.3139 29.5024L30.7136 32.8865L28.9453 30.7423Z" fill="#00C100"/>
<path d="M40.0021 17.9068L43.7038 16.3447C43.596 16.4902 40.7219 20.311 40.5964 20.5109L40.0021 17.9068Z" fill="#A7D772"/>
<path d="M37.9783 18.3903L40.075 17.8703L40.6515 20.5289L37.9783 18.3903Z" fill="#00CD00"/>
<path d="M23.4783 36.9694L26.8263 36.8583L26.8085 36.9127L25.6587 38.4048L23.4783 36.9694Z" fill="#00CB00"/>
<path d="M34.6149 15.7847C42.3269 15.9547 41.9837 16.0835 43.7415 16.4168L40.0576 17.9245L34.6149 15.7847Z" fill="#36F200"/>
<path d="M30.0297 27.2401C31.3836 26.598 34.9597 25.2359 36.0615 24.8126C36.0615 24.8126 33.1413 26.9313 33.1236 26.9857L30.0297 27.2401Z" fill="#00DC00"/>
<path d="M22.8318 34.5286L26.2227 35.5762L23.5161 37.0416L22.8318 34.5286Z" fill="#00C400"/>
<path d="M26.3687 32.9129L26.2756 35.5938L22.8125 34.5828L26.3687 32.9129Z" fill="#52EC00"/>
<path d="M30.0657 27.3126L30.0835 27.2582L33.1773 27.0038L30.2959 29.5568L30.0657 27.3126Z" fill="#21E21D"/>
<path d="M38.0507 18.3533L36.7324 22.0196L34.6095 21.1452L38.0507 18.3533Z" fill="#00DF00"/>
<path d="M34.6699 15.8027L40.1304 17.888L38.0337 18.408L34.6699 15.8027Z" fill="#1BE700"/>
<path d="M30.0662 27.3127L30.084 27.2583L30.3686 29.5203L28.9279 30.7968L30.0662 27.3127Z" fill="#00D000"/>
<path d="M31.0156 25.695L35.4507 22.6253L35.5051 22.643L34.5017 24.424C33.0202 24.9039 33.6344 24.6828 31.0156 25.695Z" fill="#21E200"/>
<path d="M30.0833 27.2583L28.9994 30.7602L26.7719 30.5746L30.0833 27.2583Z" fill="#00DA00"/>
<path d="M30.9976 25.7493L34.6093 21.1453L35.4505 22.6252C35.4327 22.6796 31.0698 25.7126 30.9976 25.7493Z" fill="#A7D772"/>
<path d="M20.3418 33.1128L22.8842 34.546L23.5319 36.9868C20.9633 34.1594 21.6381 35.0426 20.3418 33.1128Z" fill="#00D200"/>
<path d="M26.8071 30.4656L26.4231 32.9309L24.4321 32.9431L26.8071 30.4656Z" fill="#00C300"/>
<path d="M22.885 34.5462L24.4324 32.943L26.369 32.913L26.4234 32.9308L22.8672 34.6006L22.885 34.5462Z" fill="#57EF00"/>
<path d="M34.6152 15.7849L34.6697 15.8027L38.0512 18.3535L34.6466 21.2177L34.6152 15.7849Z" fill="#00CF00"/>
<path d="M22.831 31.3955C25.6444 29.6035 26.4197 29.0735 30.0837 27.2581L26.79 30.52L22.831 31.3955Z" fill="#55F700"/>
<path d="M30.6614 24.0129L34.6089 21.1454L34.6633 21.1631L31.0516 25.7671L30.9973 25.7493L30.6614 24.0129Z" fill="#00CB00"/>
<path d="M26.8108 27.6948L28.8468 26.0705L31.0534 25.7672C28.3446 26.8705 29.3375 26.4116 26.8108 27.6948Z" fill="#00C100"/>
<path d="M30.6623 24.0127L31.0526 25.767L28.7738 26.107L30.6623 24.0127Z" fill="#00C200"/>
<path d="M32.0173 17.2857L34.6696 15.8025L34.6466 21.2175L32.0173 17.2857Z" fill="#00D800"/>
<path d="M28.9116 21.6331L34.6827 21.1087L30.6452 24.0673L28.9116 21.6331Z" fill="#00CC00"/>
<path d="M31.4843 18.9191L34.6649 21.1633L28.9115 21.6333L31.4843 18.9191Z" fill="#00C700"/>
<path d="M28.394 16.7648L32.035 17.2314L34.6276 21.091L34.6098 21.1454C34.3556 21.0021 28.6304 16.9626 28.394 16.7648Z" fill="#00DE00"/>
<path d="M22.8309 31.3955L26.8444 30.5378L24.4872 32.9609L21.5911 32.9787L22.8309 31.3955Z" fill="#40DD00"/>
<path d="M21.608 32.9242L24.5041 32.9065L22.8667 34.6007L21.608 32.9242Z" fill="#3DEF00"/>
<path d="M20.3417 33.113L21.662 32.9419L22.8841 34.5461L22.8663 34.6006L20.3417 33.113Z" fill="#A7D772"/>
<path d="M30.6631 24.0129L28.829 26.1249L27.8131 25.7327L30.6631 24.0129Z" fill="#007F00"/>
<path d="M28.3809 23.8095L30.7173 24.0306L27.8494 25.8049L28.3809 23.8095Z" fill="#45EC28"/>
<path d="M28.9277 21.5789L30.7158 24.0308L28.3795 23.8097L28.9277 21.5789Z" fill="#1EE100"/>
<path d="M27.8669 25.7504L28.8462 26.0703C26.5758 27.859 26.8102 27.6946 26.738 27.7313L27.8669 25.7504Z" fill="#00AF00"/>
<path d="M25.6621 23.4641L27.8655 25.7505L26.8088 27.6948L26.791 27.7492L25.6621 23.4641Z" fill="#00C100"/>
<path d="M22.6033 26.3804L22.6755 26.3437L26.8104 27.6947L25.3488 28.4824L22.6033 26.3804Z" fill="#00BA00"/>
<path d="M26.217 25.4528L26.8092 27.6948L22.6021 26.3804L26.217 25.4528Z" fill="#00B900"/>
<path d="M25.6461 23.5185L28.3989 23.7551L27.8674 25.7505L25.6461 23.5185Z" fill="#008300"/>
<path d="M20.3428 33.1131C22.993 31.2677 22.6864 31.4688 22.7764 31.3777L22.8308 31.3955L21.6454 32.9964L20.3428 33.1131Z" fill="#65FF00"/>
<path d="M24.0671 29.0879L22.6033 26.3804L22.6211 26.3259L22.7299 26.3615L22.6577 26.3981L25.3665 28.4279L24.0671 29.0879Z" fill="#00AB00"/>
<path d="M22.6211 26.3259L24.1215 29.1056L22.0771 29.2812L22.6211 26.3259Z" fill="#43ED00"/>
<path d="M22.0945 29.2267L24.0846 29.0334L21.5954 30.5699L22.0945 29.2267Z" fill="#00C900"/>
<path d="M28.9834 21.5965L28.3808 23.8096L25.6458 23.5186L28.9834 21.5965Z" fill="#00B100"/>
<path d="M30.4549 16.1727C34.9235 15.765 34.4893 15.8039 34.6703 15.8027L32.0002 17.3404L30.4549 16.1727Z" fill="#38D400"/>
<path d="M25.7164 23.4817L26.2165 25.4526L22.6561 26.3981L22.6017 26.3803L25.7164 23.4817Z" fill="#E0F2B5"/>
<path d="M28.3945 16.7646L31.5385 18.9366C31.5208 18.9911 28.9658 21.6508 28.9658 21.6508L28.3945 16.7646Z" fill="#59ED3A"/>
<path d="M19.0258 30.8755L22.1113 29.1724L21.6489 30.5878L19.008 30.93L19.0258 30.8755Z" fill="#00A900"/>
<path d="M19.0273 30.8757L21.596 30.5701L21.6504 30.5879L19.6122 31.85L19.0273 30.8757Z" fill="#00AF00"/>
<path d="M24.7142 22.1297L28.9651 21.6508L25.6998 23.5362L24.7142 22.1297Z" fill="#00B100"/>
<path d="M24.4941 18.5635C24.7484 18.7068 28.9281 21.5787 29.0191 21.6686L24.7683 22.1475L24.4941 18.5635Z" fill="#009200"/>
<path d="M26.6564 20.0532L28.411 16.7102L28.9644 21.6508L26.6564 20.0532Z" fill="#00B100"/>
<path d="M28.3941 16.7648L30.5086 16.1904L32.0172 17.2858L28.3941 16.7648Z" fill="#00C800"/>
<path d="M19.205 30.3312L22.6211 26.326L22.6755 26.3438C22.6577 26.3982 22.1492 29.2446 22.1492 29.2446L19.205 30.3312Z" fill="#00DA00"/>
<path d="M19.2039 30.3311L22.0937 29.2268L19.0082 30.93L19.2039 30.3311Z" fill="#22DE2E"/>
<path d="M24.4039 24.7396L24.7324 22.0754L25.7003 23.5364L24.4039 24.7396Z" fill="#00C000"/>
<path d="M22.1641 22.3809C22.2551 22.4708 22.0186 22.2731 24.4041 24.7395L22.6035 26.3804C22.6213 26.326 22.1829 22.5075 22.1641 22.3809Z" fill="#00C800"/>
<path d="M22.1462 22.4352L24.787 22.093L24.4041 24.7394L22.1462 22.4352Z" fill="#00BF00"/>
<path d="M20.0756 24.3498C20.13 24.3676 22.393 24.4442 22.4652 24.4075L22.6755 26.344L22.6577 26.3984L20.0756 24.3498Z" fill="#00B500"/>
<path d="M20.0742 24.3496L20.1286 24.3674L22.6198 26.326L20.9123 28.4192L20.0742 24.3496Z" fill="#00DD00"/>
<path d="M19.1579 28.4482L20.9313 28.3648L19.1871 30.3858L19.1579 28.4482Z" fill="#00C400"/>
<path d="M20.0753 24.3496C20.1297 24.3674 20.9311 28.3647 20.9311 28.3647L19.2121 28.4658C19.8064 24.804 19.6306 25.7106 20.0753 24.3496Z" fill="#00C600"/>
<path d="M24.495 18.5635L26.6231 17.2103L28.4122 16.7103L26.6943 20.1255L24.495 18.5635Z" fill="#00CB00"/>
<path d="M23.2673 19.3678L24.4935 18.5634L24.7676 22.1475L24.7132 22.1297L23.2673 19.3678Z" fill="#00A300"/>
<path d="M22.2008 22.4531L23.2868 19.3134L24.7695 22.1476L22.2008 22.4531Z" fill="#00C000"/>
<path d="M20.6987 22.6252L22.2178 22.3985L22.4469 24.4616L22.3926 24.4439L20.6987 22.6252Z" fill="#00B500"/>
<path d="M20.0754 24.3497L20.699 22.6254L22.4472 24.4619L20.1298 24.3675L20.0754 24.3497Z" fill="#E0F2B5"/>
<path d="M23.2683 19.368L23.3227 19.3857L22.2001 22.4532L20.6809 22.6799L23.2683 19.368Z" fill="#00BD00"/>
<path d="M14.8799 27.5327L16.0214 27.7248L15.8602 28.0337L13.8242 29.658L12.7581 29.9724L14.8799 27.5327Z" fill="#004B00"/>
<path d="M16.1381 26.076L17.7776 24.7439L17.5108 25.5605L15.9853 27.8336L16.1381 26.076Z" fill="#00C200"/>
<path d="M14.8623 27.587L16.1565 26.0216L16.0037 27.7792L14.8623 27.587Z" fill="#007F00"/>
<path d="M16.1383 26.0759C18.3114 23.1107 18.1137 23.3473 18.2036 23.2562L17.7778 24.7438L16.1383 26.0759Z" fill="#009A00"/>
<path d="M14.5546 24.4742L15.8582 24.5386C15.9126 24.5564 16.8176 24.5508 16.8898 24.5142L18.1139 23.3476L18.1683 23.3654L16.1386 26.0762L14.5546 24.4742Z" fill="#00A700"/>
<path d="M12.982 27.9971L15.0881 25.974L16.193 26.0939L12.7947 30.0447L12.982 27.9971Z" fill="#00A500"/>
<path d="M14.5369 24.5288L14.6091 24.4921L16.1753 26.1486L15.0705 26.0286L14.5369 24.5288Z" fill="#00C81B"/>
<path d="M12.0195 27.2605L13.0376 28.0149L12.8137 29.9902L12.0195 27.2605Z" fill="#004300"/>
<path d="M11.925 29.9413C11.8507 29.6158 11.6853 29.2002 11.5566 28.8569L12.8666 30.0079L11.9794 29.9591L11.925 29.9413Z" fill="#005900"/>
<path d="M11.6123 28.8748L12.0371 27.2061L12.8679 30.008L11.6123 28.8748Z" fill="#00AC00"/>
<path d="M15.8584 24.5387C16.1293 24.4465 17.3032 23.9865 17.3754 23.9498L18.1863 23.311L18.2407 23.3288C18.2229 23.3832 18.3307 23.2377 16.9266 24.5864L15.8584 24.5387Z" fill="#00A000"/>
<path d="M14.609 24.492L15.1249 26.0462C15.1249 26.0462 13.2594 25.8585 13.2416 25.9129L14.609 24.492Z" fill="#007400"/>
<path d="M13.2601 25.8581L15.1433 25.9914L13.0194 28.069L13.2601 25.8581Z" fill="#E0F2B5"/>
<path d="M7.6474 28.8447L9.85817 29.2658L11.3313 30.4701L11.3135 30.5245C9.3549 29.8846 10.1354 30.2601 7.6474 28.8447Z" fill="#00A900"/>
<path d="M9.83977 29.3201L9.94336 28.4502L11.3129 30.5244L11.2951 30.5788L9.83977 29.3201Z" fill="#009300"/>
<path d="M9.88846 28.4326L10.5047 28.5737L11.258 30.5068L9.88846 28.4326Z" fill="#009400"/>
<path d="M12.0189 27.2606L13.2776 25.8041L13.0192 28.0694L12.0189 27.2606Z" fill="#004B00"/>
<path d="M15.7148 21.4788L17.1345 22.8464C16.7213 23.3741 15.8948 24.4295 15.7692 24.6295L15.7148 21.4788Z" fill="#E0F2B5"/>
<path d="M14.1461 22.774L15.7678 21.4964L15.8399 24.5927L14.1461 22.774Z" fill="#006C00"/>
<path d="M14.1463 22.7742L14.1641 22.7197L15.8401 24.5928L14.5909 24.5462L14.1463 22.7742Z" fill="#008400"/>
<path d="M17.3775 21.1786L17.9341 20.3965L17.1881 22.864L17.1337 22.8462L17.3775 21.1786Z" fill="#00B706"/>
<path d="M16.6973 19.209L17.4328 21.1966L17.189 22.8642L17.1346 22.8464L16.6973 19.209Z" fill="#009000"/>
<path d="M15.6957 21.5332L16.7137 19.1546L17.1699 22.9186L15.6957 21.5332Z" fill="#007200"/>
<path d="M16.6973 19.209L17.9349 20.3966L17.3605 21.2332L16.6973 19.209Z" fill="#009E00"/>
<path d="M12.5059 23.7441L14.6099 24.4918L13.2602 25.8584L12.5059 23.7441Z" fill="#5FBE3F"/>
<path d="M11.918 22.4075L11.9724 22.4252L14.609 24.4917L14.5912 24.5461L12.5049 23.744L11.918 22.4075Z" fill="#E0F2B5"/>
<path d="M11.918 22.4075L12.9339 22.7996L14.609 24.4917L14.5912 24.5461L11.918 22.4075Z" fill="#00BA00"/>
<path d="M12.9336 22.7998L12.4199 21.6077L14.1641 22.7198L14.5909 24.5462C14.5543 24.474 14.7364 24.654 12.9336 22.7998Z" fill="#5FBE3F"/>
<path d="M16.6419 19.1913L18.0669 18.3314L17.9707 20.4689L16.6419 19.1913Z" fill="#009A00"/>
<path d="M8.74003 26.7915L8.81224 26.7548L10.5428 28.6458L9.92656 28.5047L8.74003 26.7915Z" fill="#008500"/>
<path d="M9.7863 29.3023L8.74003 26.7915L8.81224 26.7548L9.94428 28.4502L9.84069 29.3201L9.7863 29.3023Z" fill="#009400"/>
<path d="M9.84031 29.3204C7.53024 27.3606 7.65787 27.5228 7.62125 27.4506L8.81189 26.7551L9.84031 29.3204Z" fill="#00CC00"/>
<path d="M7.62206 27.4505C7.67646 27.4683 7.49443 27.2883 9.8589 29.2659L9.84111 29.3203L7.63041 28.8993L7.62206 27.4505Z" fill="#00BD00"/>
<path d="M15.3993 20.2311L15.4537 20.2489L16.6966 19.209L15.733 21.6054L15.3993 20.2311Z" fill="#00CC00"/>
<path d="M13.8066 20.3132L15.7505 21.5508L14.1466 22.7741L13.8066 20.3132Z" fill="#009100"/>
<path d="M13.8065 20.3134L15.3988 20.2312L15.7503 21.551L13.8065 20.3134Z" fill="#2BEA0F"/>
<path d="M12.402 21.662L13.8605 20.331L14.2006 22.7919L12.402 21.662Z" fill="#E0F2B5"/>
<path d="M14.6862 18.9133L16.6971 19.2088L15.4364 20.3032L14.6862 18.9133Z" fill="#5FBE3F"/>
<path d="M14.7575 18.8768L15.4532 20.2489L13.7887 20.3678L14.7575 18.8768Z" fill="#00BC00"/>
<path d="M12.9349 22.7997C12.9349 22.7997 10.8592 20.6755 10.877 20.6211L12.4756 21.6254L12.9349 22.7997Z" fill="#00AF00"/>
<path d="M10.8592 20.6755L10.877 20.6211L12.9349 22.7997L11.919 22.4076L10.8592 20.6755Z" fill="#00B100"/>
<path d="M5.71659 26.8281L7.63854 27.3958L7.68353 28.9168L5.71659 26.8281Z" fill="#E0F2B5"/>
<path d="M7.33281 24.4643L9.34053 24.2165L8.79438 26.8096L7.33281 24.4643Z" fill="#E0F2B5"/>
<path d="M4.85352 24.4976L8.81254 26.7551L7.62189 27.4505L4.85352 24.4976Z" fill="#E0F2B5"/>
<path d="M4.79787 24.4797L7.38628 24.4819L8.81129 26.755L8.73907 26.7916L4.79787 24.4797Z" fill="#E0F2B5"/>
<path d="M12.7381 17.1326L12.7559 17.0781L14.7395 18.9312L13.8429 20.3855L12.7381 17.1326Z" fill="#009C00"/>
<path d="M10.8584 20.6756L10.8218 20.6034L13.9155 20.349L12.4571 21.6799L10.8584 20.6756Z" fill="#00BC00"/>
<path d="M11.8292 19.3657L13.9165 20.3489L10.8049 20.6578L11.8292 19.3657Z" fill="#E0F2B5"/>
<path d="M12.757 17.0782L13.8441 20.3857L11.8111 19.4202L12.757 17.0782Z" fill="#E0F2B5"/>
<path d="M15.8737 17.6747L16.8268 16.6003L17.5153 16.7048L15.9281 17.6925L15.8737 17.6747Z" fill="#10B516"/>
<path d="M15.8733 17.6747C16.0564 18.0358 16.66 19.1367 16.6789 19.2634L14.668 18.9679L15.8733 17.6747Z" fill="#008600"/>
<path d="M17.7979 15.6528L17.4966 16.7594L16.8626 16.6727L17.7979 15.6528Z" fill="#10B516"/>
<path d="M15.8737 17.6747L17.4608 16.687L16.6971 19.209C16.6605 19.1367 15.8925 17.8013 15.8737 17.6747Z" fill="#10B516"/>
<path d="M17.7988 15.6528C17.8177 15.7795 18.1033 18.2226 18.0499 18.3859L16.6794 19.2636L17.7988 15.6528Z" fill="#009D00"/>
<path d="M16.808 16.6548L17.5645 12.8652L17.6188 12.883C17.7559 14.675 17.7758 14.9828 17.8522 15.6705L16.808 16.6548Z" fill="#3CE500"/>
<path d="M16.8081 16.6548L16.582 12.002L17.5645 12.8652L16.8625 16.6726L16.8081 16.6548Z" fill="#008900"/>
<path d="M13.5776 11.8032L16.6201 12.0742L16.8461 16.7271C15.7141 15.0317 16.6086 16.3482 13.5776 11.8032Z" fill="#A7D772"/>
<path d="M16.0957 15.5186C16.917 16.6906 16.8259 16.6006 16.8803 16.6184L15.945 17.6383C15.8728 17.675 16.0779 15.573 16.0957 15.5186Z" fill="#17D619"/>
<path d="M12.7017 17.0603L15.8729 17.6746L14.7398 18.9312L12.7017 17.0603Z" fill="#E0F2B5"/>
<path d="M16.1502 15.5363L15.9274 17.6927L12.684 17.115L16.1502 15.5363Z" fill="#22B326"/>
<path d="M10.8223 20.6035C10.8589 20.6757 10.7856 20.5313 11.9732 22.4255L10.6496 22.0534L10.8223 20.6035Z" fill="#009C00"/>
<path d="M5.89453 26.2839L7.56649 27.4327L7.5487 27.4871C7.4943 27.4694 5.68109 26.9372 5.68109 26.9372L5.89453 26.2839Z" fill="#00BD00"/>
<path d="M5.95003 26.3018L4.85352 24.4976L7.63973 27.3961L7.62195 27.4506L5.95003 26.3018Z" fill="#3CF700"/>
<path d="M8.50781 21.0522L9.85962 23.1809L9.30511 24.3252L8.50781 21.0522Z" fill="#009C00"/>
<path d="M7.88281 22.5955L9.32252 24.2708L7.3325 24.4642L7.88281 22.5955Z" fill="#00C700"/>
<path d="M7.86464 22.6498L8.52483 20.9977L9.32212 24.2707L9.2677 24.2529L7.86464 22.6498Z" fill="#00A700"/>
<path d="M13.5938 11.7488L16.132 15.5906L12.7379 17.1327L13.5938 11.7488Z" fill="#5FBE3F"/>
<path d="M8.50805 21.0521L10.0764 19.9378L9.84207 23.2352L8.50805 21.0521Z" fill="#009E00"/>
<path d="M16.5646 12.0565C16.5646 12.0565 17.8033 10.2922 17.8211 10.2378L17.8755 10.2555C17.8399 10.3644 17.8745 10.0744 17.6192 12.883L16.5646 12.0565Z" fill="#007300"/>
<path d="M4.54492 24.5176L5.94902 26.3018L5.75337 26.9007C5.77116 26.8462 4.52714 24.572 4.54492 24.5176Z" fill="#00CA00"/>
<path d="M11.0649 18.9358C11.9867 15.5617 11.7376 16.3238 12.1478 15.2528L12.2022 15.2706C12.2022 15.2706 11.8642 19.4379 11.9186 19.4557L10.9121 20.6934L10.8577 20.6756C10.8033 20.6578 11.0649 18.9358 11.0649 18.9358Z" fill="#E0F2B5"/>
<path d="M12.1484 15.2527L12.2028 15.2705L12.8108 17.0958L11.8649 19.4378L11.8106 19.42L12.1484 15.2527Z" fill="#00BF00"/>
<path d="M4.54625 24.5173C4.56404 24.4629 4.87164 24.4429 4.87164 24.4429L5.96813 26.2472L4.54625 24.5173Z" fill="#00DC00"/>
<path d="M7.93732 22.6133L7.38697 24.4819L4.78081 24.5342L7.93732 22.6133Z" fill="#00C800"/>
<path d="M12.1479 15.2528C12.3603 14.4184 13.2904 12.4931 13.5761 11.8031L13.6305 11.8209L12.8102 17.0959L12.7558 17.0781L12.1479 15.2528Z" fill="#E0F2B5"/>
<path d="M4.8529 24.4972L8.52533 20.9976L8.50754 21.052L7.91956 22.6674L4.8529 24.4972Z" fill="#009B00"/>
<path d="M17.0079 10.5144L17.8208 10.2377L17.8574 10.3099L16.6187 12.0742L16.5643 12.0564L17.0079 10.5144Z" fill="#A7D772"/>
<path d="M16.0645 9.90454L17.0636 10.5322L16.6022 12.1287L16.0645 9.90454Z" fill="#00B100"/>
<path d="M13.5935 11.7489L13.6479 11.7667L15.4182 11.1401L16.6727 12.0922L13.5579 11.8578L13.5935 11.7489Z" fill="#00D100"/>
<path d="M15.3639 11.122L16.0806 9.84986L16.6184 12.0741L15.3639 11.122Z" fill="#5FBE3F"/>
<path d="M9.25493 18.9468L10.8724 16.9448L10.9268 16.9626L10.0573 19.9922L9.25493 18.9468Z" fill="#009400"/>
<path d="M9.27318 18.8925L10.0757 19.938L8.5073 21.0523L9.27318 18.8925Z" fill="#00BA00"/>
<path d="M17.877 7.30371L17.9313 7.32148L17.8581 10.3101L17.8037 10.2923L16.9908 10.5689L17.877 7.30371Z" fill="#00AD00"/>
<path d="M17.876 7.30352L19.7656 5.39038L18.4944 7.8068L17.8572 10.3099L17.8028 10.2921L17.876 7.30352Z" fill="#00BD00"/>
<path d="M8.26737 17.1782L8.33958 17.1416L9.25514 18.9469L8.50705 21.0523L8.26737 17.1782Z" fill="#E0F2B5"/>
<path d="M7.62503 18.5948L8.28626 17.1239L8.34069 17.1417L8.52588 20.9979L8.50809 21.0524L7.62503 18.5948Z" fill="#007C00"/>
<path d="M8.57941 21.0155L7.21087 22.2553L5.37781 21.4154L8.57941 21.0155Z" fill="#00C000"/>
<path d="M7.62448 18.5947L7.69666 18.558L8.50754 21.0522L5.36034 21.4699L7.62448 18.5947Z" fill="#E0F2B5"/>
<path d="M16.0632 9.90433L15.5265 7.86122L17.9486 7.26682L17.0446 10.5865L16.0632 9.90433Z" fill="#E0F2B5"/>
<path d="M4.56914 22.2355L7.28424 22.2189L4.85372 24.4975C4.85372 24.4975 4.55136 22.29 4.56914 22.2355Z" fill="#E0F2B5"/>
<path d="M4.55073 22.2899L5.43273 21.4334L7.21138 22.2555L4.55073 22.2899Z" fill="#A7D772"/>
<path d="M4.55078 22.29L4.90752 24.5153C4.85311 24.4976 4.5999 24.5353 4.5455 24.5176L4.55078 22.29Z" fill="#A7D772"/>
<path d="M10.1936 15.3373C10.2114 15.2828 10.2114 15.2828 10.1936 15.3373L12.034 14.3118C10.8193 17.1082 10.9438 16.7271 10.8915 17.0715L10.1936 15.3373Z" fill="#00BC00"/>
<path d="M9.25468 18.9468C9.41475 18.4568 9.75478 17.7847 10.1932 15.3372L10.2109 15.2827L10.9266 16.9625L9.25468 18.9468Z" fill="#00C400"/>
<path d="M8.28516 17.1238L9.68302 17.8215L9.23733 19.0014L8.28516 17.1238Z" fill="#00CF00"/>
<path d="M3.82227 21.5698L4.62268 22.2531C4.62268 22.2531 4.61746 24.4806 4.59967 24.5351L4.54525 24.5173L3.82227 21.5698Z" fill="#E0F2B5"/>
<path d="M19.4008 4.66834L21.4954 3.78617L21.5498 3.80395L19.767 5.39048L19.4008 4.66834Z" fill="#00C100"/>
<path d="M18.1693 4.56724C20.1028 3.99395 19.633 4.14172 21.4954 3.78618L19.4551 4.6861L18.1693 4.56724Z" fill="#009E00"/>
<path d="M14.5798 9.84114L15.5455 7.8069L16.1189 9.92224L15.42 11.1399L14.5798 9.84114Z" fill="#00A800"/>
<path d="M14.596 9.78658L15.4184 11.1398L13.6303 11.8208L13.5759 11.8031L14.596 9.78658Z" fill="#00C200"/>
<path d="M10.2126 15.2827C10.0892 15.8449 9.62989 17.8035 9.6121 17.858L8.2686 17.178L10.2126 15.2827Z" fill="#00A000"/>
<path d="M17.8759 7.30347L19.4536 4.68596L19.7654 5.39033L17.9303 7.32124L17.8759 7.30347Z" fill="#009600"/>
<path d="M17.3596 5.56823L19.4719 4.63163L17.8765 7.3036L17.3596 5.56823Z" fill="#00A800"/>
<path d="M14.2335 6.29393L17.8955 7.24937L17.8777 7.30381L15.5822 7.87931L14.2335 6.29393Z" fill="#00B900"/>
<path d="M14.3055 6.25718L15.9659 5.41392L17.8952 7.24928L17.8774 7.30371L14.2155 6.34827L14.3055 6.25718Z" fill="#5FBE3F"/>
<path d="M15.9478 5.46823C15.9478 5.46823 17.378 5.51377 17.4324 5.53155L17.9859 7.33913L15.9478 5.46823Z" fill="#00D100"/>
<path d="M10.1931 15.3372C10.3165 14.7751 10.35 14.304 10.6816 12.1831L12.0878 14.3295C12.0334 14.3118 10.1931 15.3372 10.1931 15.3372Z" fill="#00CB00"/>
<path d="M10.6104 12.2199L13.631 11.821C12.0512 14.0763 12.3923 13.5853 12.0167 14.3663L10.6104 12.2199Z" fill="#E0F2B5"/>
<path d="M13.7089 9.55671L15.5273 7.86132L15.5817 7.8791L13.6314 11.8209L13.5771 11.8031L13.7089 9.55671Z" fill="#E0F2B5"/>
<path d="M11.9102 8.60791L13.762 9.57446L13.6124 11.8753L11.9102 8.60791Z" fill="#00B900"/>
<path d="M11.9838 8.57144L13.6316 11.8211L10.6655 12.2377L11.9838 8.57144Z" fill="#00C700"/>
<path d="M17.3598 5.568L18.1686 4.56699L19.4544 4.68583L17.3598 5.568Z" fill="#00D500"/>
<path d="M5.18844 19.7867L7.62519 18.5946L7.67958 18.6124L5.41551 21.4876L5.18844 19.7867Z" fill="#00C400"/>
<path d="M4.55072 22.2899L4.43667 21.3489L5.4871 21.4511L4.55072 22.2899Z" fill="#00D923"/>
<path d="M4.41406 20.4978L5.48757 21.4511L4.43709 21.3488L4.41406 20.4978Z" fill="#00AF00"/>
<path d="M7.62499 18.5948L6.18945 14.5107L8.26844 17.1782L7.62499 18.5948Z" fill="#E0F2B5"/>
<path d="M6.18499 17.1005L7.69578 18.5581L7.67799 18.6125L5.16907 19.8413L6.18499 17.1005Z" fill="#008600"/>
<path d="M6.18604 17.1006L7.12661 16.9861L7.6968 18.5582L7.62462 18.5948L6.18604 17.1006Z" fill="#E0F2B5"/>
<path d="M3.80477 21.6245L4.45452 21.2945L4.60519 22.3077L3.80477 21.6245Z" fill="#00D917"/>
<path d="M6.18953 14.5107L10.2124 15.2828L10.1947 15.3373L8.26847 17.1782L6.18953 14.5107Z" fill="#00AF00"/>
<path d="M7.07111 13.8352C7.12552 13.853 10.211 15.2828 10.211 15.2828C10.211 15.2828 10.211 15.2828 10.1932 15.3372L6.18807 14.5107L7.07111 13.8352Z" fill="#E0F2B5"/>
<path d="M8.62774 13.4998L10.2128 15.2829C10.2128 15.2829 10.2128 15.2829 10.1951 15.3374C10.0862 15.3018 7.1096 13.9076 7.00078 13.872C7.12738 13.8531 6.94638 13.8542 8.62774 13.4998Z" fill="#5FBE3F"/>
<path d="M8.55523 13.5362C8.62742 13.4996 10.6289 12.1652 10.6655 12.2374C10.3694 14.2495 10.336 14.7205 10.1947 15.3371L8.55523 13.5362Z" fill="#00C900"/>
<path d="M3.55643 19.4346L3.57422 19.3801L4.41331 20.4978L4.43633 21.3488L3.55643 19.4346Z" fill="#00D61E"/>
<path d="M3.55643 19.4346L3.57422 19.3801L4.4907 21.3666L3.78658 21.6788L3.55643 19.4346Z" fill="#00C700"/>
<path d="M15.5992 7.82449L13.763 9.57432L11.9111 8.60777L15.5992 7.82449Z" fill="#5FBE3F"/>
<path d="M14.2876 6.31154L15.5819 7.87914L11.9482 8.68018C12.4326 7.9347 11.9649 8.44465 14.2876 6.31154Z" fill="#00BE00"/>
<path d="M18.2232 4.5849C18.2054 4.63934 17.4144 5.5859 17.4144 5.5859L15.9475 5.46813C17.3192 4.77154 16.6328 5.02929 18.2232 4.5849Z" fill="#00D500"/>
<path d="M5.36914 16.8337L6.23964 17.1182L5.24151 19.8045L5.18709 19.7867L5.36914 16.8337Z" fill="#008600"/>
<path d="M6.34203 15.8862L6.18925 14.5107L6.20703 14.4563L7.12676 16.986L7.10898 17.0405L6.34203 15.8862Z" fill="#00B100"/>
<path d="M6.30469 15.8137L7.1083 17.0403L6.16765 17.1547C6.23879 16.937 6.32352 15.9404 6.30469 15.8137Z" fill="#00A100"/>
<path d="M8.4831 10.6211L12.0373 8.58908L10.6646 12.2376L8.4831 10.6211Z" fill="#E0F2B5"/>
<path d="M8.5 10.5664L10.6815 12.1829C10.6815 12.1829 10.6815 12.1829 10.6637 12.2373C10.5915 12.274 8.62559 13.4994 8.6078 13.5539L8.5 10.5664Z" fill="#00DA00"/>
<path d="M6.3602 15.8315L6.24092 17.1181L5.35263 16.8881L6.3602 15.8315Z" fill="#00AC00"/>
<path d="M8.50221 10.5666L8.61002 13.5541C8.55561 13.5363 7.07303 13.8352 7.05524 13.8896L8.50221 10.5666Z" fill="#20D000"/>
<path d="M5.36974 16.8338L6.26116 14.474L6.31555 14.4918C6.29777 14.5462 6.41391 15.8494 6.39613 15.9039L5.36974 16.8338Z" fill="#00A900"/>
<path d="M8.50014 10.5666C10.4598 8.25461 10.6398 8.07241 11.1252 7.50803C11.1252 7.50803 11.9277 8.55347 11.9821 8.57125L8.50014 10.5666Z" fill="#00AC00"/>
<path d="M11.1083 7.56248L11.9045 7.52137L11.8868 7.57581L12.0019 8.69792L11.1083 7.56248Z" fill="#00CE00"/>
<path d="M8.50107 10.5666L7.07188 13.8351L6.24323 14.5284L6.18883 14.5106C6.65233 13.2763 6.2045 14.094 8.50107 10.5666Z" fill="#00B300"/>
<path d="M11.1085 7.56239C11.3606 7.34353 11.5584 7.10689 12.1704 6.52361L11.8869 7.57572L11.1085 7.56239Z" fill="#00B100"/>
<path d="M10.6443 24.2805L10.7165 24.2439L12.0735 27.278L10.9676 26.9769L10.6443 24.2805Z" fill="#009100"/>
<path d="M10.9844 26.9229L12.0725 27.2784L11.6477 28.9471C11.3349 28.0616 11.2428 27.7905 10.9844 26.9229Z" fill="#007400"/>
<path d="M10.6445 24.2807L12.5058 23.7441L13.2602 25.8583L12.0015 27.3148L10.6445 24.2807Z" fill="#E0F2B5"/>
<path d="M8.74026 26.7916L9.89118 25.4807L10.5431 28.6459L8.74026 26.7916Z" fill="#E0F2B5"/>
<path d="M11.9364 22.353L12.5599 23.7617L10.6442 24.2806L11.9364 22.353Z" fill="#A7D772"/>
<path d="M9.26906 24.2531L9.8058 23.1632L9.86023 23.181C9.87906 23.3076 9.84137 23.0543 9.92826 25.5529L9.26906 24.2531Z" fill="#008000"/>
<path d="M9.28516 24.1987L9.88993 25.4808L8.72123 26.8462L9.28516 24.1987Z" fill="#00A900"/>
<path d="M10.8223 20.6035L10.6496 22.0534L11.9732 22.4256L10.6266 24.3353C10.6454 21.329 10.5795 22.4522 10.8223 20.6035Z" fill="#00A600"/>
</svg>
