<svg width="30" height="30" viewBox="0 0 30 30" fill="none" xmlns="http://www.w3.org/2000/svg">
<g clip-path="url(#clip0)">
<path d="M21.5609 30C20.5925 30 19.6323 29.8288 18.6934 29.4877C14.5569 27.985 10.7174 25.5377 7.58984 22.4101C4.46223 19.2826 2.01487 15.443 0.512297 11.3066C0.0294459 9.97729 -0.113048 8.60508 0.088916 7.22795C0.278107 5.938 0.777774 4.68573 1.53395 3.60647C2.29347 2.52247 3.30605 1.62087 4.46217 0.999158C5.69505 0.336197 7.04072 0 8.46191 0C8.90392 0 9.28594 0.308835 9.37857 0.741005L10.85 7.60785C10.9167 7.9188 10.8211 8.24234 10.5963 8.46721L8.08195 10.9815C10.4538 15.6973 14.3026 19.546 19.0184 21.9179L21.5326 19.4036C21.7575 19.1788 22.0811 19.0833 22.392 19.1498L29.2589 20.6213C29.6911 20.7139 29.9999 21.0959 29.9999 21.5379C29.9999 22.9591 29.6637 24.3049 29.0006 25.5377C28.3789 26.6939 27.4773 27.7064 26.3933 28.466C25.3141 29.2221 24.0619 29.7218 22.7719 29.911C22.3676 29.9704 21.9635 29.9999 21.5609 30ZM7.71288 1.91594C5.83825 2.12288 4.17437 3.10546 3.06946 4.68244C1.82697 6.45571 1.53724 8.63678 2.27455 10.6665C5.16334 18.6189 11.3811 24.8366 19.3335 27.7254C21.3631 28.4627 23.5442 28.1731 25.3175 26.9305C26.8945 25.8256 27.8771 24.1617 28.084 22.2871L22.4979 21.0901L19.872 23.7159C19.5926 23.9953 19.1681 24.0696 18.8106 23.9015C13.2332 21.2813 8.71866 16.7667 6.09845 11.1894C5.93047 10.8318 6.00465 10.4073 6.28407 10.1279L8.9099 7.50209L7.71288 1.91594Z" fill="#5FBE3F"/>
</g>
<defs>
<clipPath id="clip0">
<rect width="30" height="30" fill="white"/>
</clipPath>
</defs>
</svg>
