<svg xmlns="http://www.w3.org/2000/svg" fill="none" viewBox="0 0 48 48"><g clip-path="url(#clip0)"><path fill="#5FBE3F" d="M43.46 24.128H29.233a.55.55 0 0 0-.55.551v3.213a.55.55 0 0 0 .55.55h14.229a.55.55 0 0 0 .55-.55v-3.213a.55.55 0 0 0-.55-.55zm-.642 3.213H29.783V25.23h13.035v2.111zM31.12 45.187a2.204 2.204 0 1 0 0-4.409 2.204 2.204 0 0 0 0 4.409zm0-3.306a1.102 1.102 0 1 1 0 2.205 1.102 1.102 0 0 1 0-2.205zM36.348 45.187a2.204 2.204 0 1 0 0-4.408 2.204 2.204 0 0 0 0 4.407zm0-3.306a1.102 1.102 0 1 1 0 2.204 1.102 1.102 0 0 1 0-2.204zM41.577 45.187a2.204 2.204 0 1 0 0-4.408 2.204 2.204 0 0 0 0 4.407zm0-3.306a1.102 1.102 0 1 1 0 2.204 1.102 1.102 0 0 1 0-2.204zM31.12 40.324a2.204 2.204 0 1 0 0-4.409 2.204 2.204 0 0 0 0 4.409zm0-3.306a1.102 1.102 0 1 1 0 2.205 1.102 1.102 0 0 1 0-2.205zM36.348 40.324a2.204 2.204 0 1 0 0-4.408 2.204 2.204 0 0 0 0 4.408zm0-3.306a1.102 1.102 0 1 1 0 2.205 1.102 1.102 0 0 1 0-2.205zM41.577 40.324a2.204 2.204 0 1 0 0-4.408 2.204 2.204 0 0 0 0 4.408zm0-3.306a1.102 1.102 0 1 1 0 2.205 1.102 1.102 0 0 1 0-2.205zM31.12 35.46a2.204 2.204 0 1 0 0-4.407 2.204 2.204 0 0 0 0 4.408zm0-3.305a1.102 1.102 0 1 1 0 2.204 1.102 1.102 0 0 1 0-2.204zM36.348 35.46a2.204 2.204 0 1 0 0-4.407 2.204 2.204 0 0 0 0 4.408zm0-3.305a1.102 1.102 0 1 1 0 2.204 1.102 1.102 0 0 1 0-2.204zM41.577 35.46a2.204 2.204 0 1 0 0-4.407 2.204 2.204 0 0 0 0 4.408zm0-3.305a1.102 1.102 0 1 1 0 2.204 1.102 1.102 0 0 1 0-2.204z"/><path fill="#BBB8F8" d="M20.884 29.269h-5.738a.55.55 0 1 0 0 1.102h5.738a.55.55 0 0 0 0-1.102z"/><path fill="#5FBE3F" d="M12.523 30.37h.56a.55.55 0 0 0 0-1.101h-.56a.55.55 0 0 0 0 1.102zM20.066 33.95H17.07a.55.55 0 0 0 0 1.102h2.996a.55.55 0 1 0 0-1.102zM14.918 33.95h-2.395a.55.55 0 0 0 0 1.102h2.395a.55.55 0 1 0 0-1.102zM10.322 5.2a.55.55 0 0 0-.55.551v.222a.55.55 0 1 0 1.101 0V5.75a.55.55 0 0 0-.55-.55zM10.322 7.573a.55.55 0 0 0-.55.55v7.296a.55.55 0 1 0 1.101 0V8.123a.55.55 0 0 0-.55-.55zM21.668 6.857a8.128 8.128 0 1 0 8.128 8.127 8.137 8.137 0 0 0-8.128-8.127zm7.014 7.724H22.85l4.157-4.156a6.993 6.993 0 0 1 1.675 4.156zM21.668 7.96a6.994 6.994 0 0 1 4.56 1.687l-4.557 4.557-3.586-5.258a6.982 6.982 0 0 1 3.583-.986zm0 14.051a7.021 7.021 0 0 1-4.483-12.43l3.998 5.863a.55.55 0 0 0 .455.24h7.021a7.035 7.035 0 0 1-6.99 6.327z"/><path fill="#5FBE3F" d="M43.7 21.833h-7.4V9.968a1.53 1.53 0 0 0-.433-1.079L28.98 1.83a1.542 1.542 0 0 0-1.1-.466H8.616a1.516 1.516 0 0 0-1.507 1.543v1.486H5.644a1.539 1.539 0 0 0-1.441.92c-.08.184-.121.382-.123.582v.885H2.97a1.525 1.525 0 0 0-1.433.924 1.496 1.496 0 0 0-.119.582v36.588a1.567 1.567 0 0 0 1.552 1.562h23.691a2.785 2.785 0 0 0 2.148 1.01H43.7a2.79 2.79 0 0 0 2.79-2.79V24.623a2.79 2.79 0 0 0-2.79-2.79zM28.682 3.098l5.791 5.976H31.47a2.79 2.79 0 0 1-1.972-.84 2.822 2.822 0 0 1-.816-1.993V3.098zm-23.5 2.796a.405.405 0 0 1 .14-.292.448.448 0 0 1 .323-.109H7.11v34.1a1.492 1.492 0 0 0 1.508 1.518H26.02v1.744H5.645a.489.489 0 0 1-.463-.473V5.894zM2.97 45.334a.465.465 0 0 1-.451-.46V8.283a.403.403 0 0 1 .134-.293.434.434 0 0 1 .316-.11h1.11v34.502a1.59 1.59 0 0 0 1.565 1.573H26.02v.699c0 .229.027.456.083.678H2.971zm23.049-20.71v4.898a.55.55 0 0 0-.463-.253h-2.061a.55.55 0 1 0 0 1.102h2.06a.55.55 0 0 0 .463-.253v3.832h-3.835a.55.55 0 0 0 0 1.102h3.835v4.957H8.617a.389.389 0 0 1-.406-.416V2.905a.414.414 0 0 1 .406-.44H27.58V6.24a3.927 3.927 0 0 0 3.89 3.935h3.73v11.658h-6.39a2.79 2.79 0 0 0-2.79 2.79zm19.46 20.03a1.7 1.7 0 0 1-1.699 1.69H28.854c-.931 0-1.733-.758-1.733-1.69V30.37h18.36v14.285zm0-15.385H27.121v-4.644c0-.93.802-1.69 1.733-1.69H43.78a1.701 1.701 0 0 1 1.7 1.69v4.644z"/></g><defs><clipPath id="clip0"><path fill="#fff" d="M0 0h47v47H0z" transform="translate(.5 .904)"/></clipPath></defs></svg>