<svg xmlns="http://www.w3.org/2000/svg" fill="none" viewBox="0 0 40 41"><path fill="#5FBE3F" d="M13.254 18.783h13.493a.469.469 0 0 0 .47-.468v-4.948a3.617 3.617 0 0 0-3.618-3.617H22.46a.338.338 0 0 1-.264-.127.757.757 0 0 0-.44-.283l-.168-.032a.708.708 0 0 0-.636.194l-.247.248H19.31l-.284-.32a.658.658 0 0 0-.73-.175l-.12.047a.711.711 0 0 0-.335.29.34.34 0 0 1-.286.158h-1.154a3.617 3.617 0 0 0-3.617 3.617v4.948a.468.468 0 0 0 .469.468zm6.99-8.096l-.141.412h-.205l-.14-.412h.486zm-.203 1.42l.601 3.463-.65.76-.63-.752.679-3.47zm-6.318 1.26a2.682 2.682 0 0 1 2.68-2.68h1.153a1.272 1.272 0 0 0 .953-.43l.18.203.466 1.292-.756 3.865a.47.47 0 0 0 .1.39l1.128 1.35a.469.469 0 0 0 .357.168h.003a.469.469 0 0 0 .356-.164l1.155-1.35a.47.47 0 0 0 .106-.384l-.694-3.993.398-1.16.208-.208a1.272 1.272 0 0 0 .929.422h1.154a2.682 2.682 0 0 1 2.68 2.68v4.478H13.723v-4.479z"/><path fill="#5FBE3F" d="M20 9.21a3.171 3.171 0 0 0 3.167-3.168v-1.8a3.168 3.168 0 0 0-6.335 0v1.8A3.171 3.171 0 0 0 20 9.209zm-2.23-4.967a2.23 2.23 0 0 1 4.46 0v1.799a2.23 2.23 0 0 1-4.46 0v-1.8zM24.431 13.141H22.7a.468.468 0 1 0 0 .938h1.732a.469.469 0 1 0 0-.938zM6.498 25.468A.469.469 0 0 0 6.967 25v-1.97a1.032 1.032 0 0 1 1.03-1.031h11.535v3.255a.469.469 0 0 0 .937 0v-3.255h11.535a1.032 1.032 0 0 1 1.03 1.03V25a.469.469 0 1 0 .938 0v-1.97a1.97 1.97 0 0 0-1.968-1.968H20.469V20.05a.469.469 0 1 0-.937 0v1.012H7.997A1.97 1.97 0 0 0 6.03 23.03V25a.469.469 0 0 0 .47.47zM6.497 33.516a2.57 2.57 0 0 0 2.568-2.568v-1.4a2.568 2.568 0 0 0-5.135 0v1.4a2.57 2.57 0 0 0 2.567 2.568zm-1.63-3.967a1.63 1.63 0 0 1 3.26 0v1.399a1.632 1.632 0 0 1-1.63 1.63 1.632 1.632 0 0 1-1.63-1.63v-1.4zM9.296 34.477h-.884a.159.159 0 0 1-.103-.037.741.741 0 0 0-1.179.312l-.134.373a.533.533 0 0 1-.374.345.52.52 0 0 1-.61-.336l-.133-.386a.735.735 0 0 0-1.17-.317.16.16 0 0 1-.113.046H3.7A2.918 2.918 0 0 0 .78 37.395v1.599a.469.469 0 0 0 .469.469h10.495a.469.469 0 0 0 .469-.469v-1.6a2.918 2.918 0 0 0-2.918-2.917zm1.98 4.048H1.72v-1.13a1.982 1.982 0 0 1 1.98-1.98h.897c.167 0 .332-.038.482-.112l.047.136a1.456 1.456 0 0 0 2.748.017l.055-.154c.14.069.292.107.447.112h.921a1.982 1.982 0 0 1 1.98 1.98v1.131zM17.432 29.549v1.399a2.568 2.568 0 0 0 5.135 0v-1.4a2.568 2.568 0 1 0-5.135 0zm4.198 0v1.399a1.63 1.63 0 1 1-3.26 0v-1.4a1.63 1.63 0 0 1 3.26 0zM22.798 34.477h-.884a.16.16 0 0 1-.103-.037.741.741 0 0 0-1.179.312l-.134.373a.533.533 0 0 1-.374.345.52.52 0 0 1-.61-.336l-.133-.386a.736.736 0 0 0-1.056-.4.49.49 0 0 0-.114.083.16.16 0 0 1-.113.046h-.897a2.918 2.918 0 0 0-2.918 2.918v1.6a.469.469 0 0 0 .469.468h10.495a.468.468 0 0 0 .469-.469v-1.599a2.918 2.918 0 0 0-2.918-2.918zm1.98 4.048h-9.557v-1.13a1.983 1.983 0 0 1 1.98-1.98h.897c.167 0 .332-.038.482-.112l.047.136a1.456 1.456 0 0 0 2.748.017l.055-.154c.14.069.292.107.447.112h.921a1.982 1.982 0 0 1 1.98 1.98v1.131zM30.936 29.549v1.399a2.568 2.568 0 0 0 5.135 0v-1.4a2.568 2.568 0 1 0-5.135 0zm4.197 0v1.399a1.632 1.632 0 0 1-1.63 1.63 1.633 1.633 0 0 1-1.63-1.63v-1.4a1.63 1.63 0 0 1 3.26 0zM36.302 34.477h-.885a.159.159 0 0 1-.102-.037.741.741 0 0 0-1.179.312l-.134.373a.533.533 0 0 1-.374.345.52.52 0 0 1-.61-.336l-.133-.386a.734.734 0 0 0-1.17-.317.159.159 0 0 1-.113.046h-.897a2.917 2.917 0 0 0-2.918 2.918v1.6a.469.469 0 0 0 .469.468H38.75a.468.468 0 0 0 .468-.469v-1.599a2.916 2.916 0 0 0-2.917-2.918zm1.98 4.048h-9.557v-1.13a1.982 1.982 0 0 1 1.98-1.98h.897c.168 0 .332-.038.482-.112l.047.136a1.457 1.457 0 0 0 2.748.017l.056-.154c.139.069.29.107.446.112h.921a1.983 1.983 0 0 1 1.98 1.98v1.131z"/></svg>