<svg xmlns="http://www.w3.org/2000/svg" fill="none" viewBox="0 0 40 40"><path fill="#5FBE3F" d="M20 8.056c-7.951 0-14.42 6.474-14.42 14.432S12.05 36.92 20 36.92s14.42-6.474 14.42-14.432c0-7.957-6.469-14.432-14.42-14.432zm0 27.927c-7.434 0-13.482-6.054-13.482-13.495 0-7.44 6.048-13.494 13.482-13.494 7.434 0 13.483 6.053 13.483 13.494S27.435 35.983 20 35.983z"/><path fill="#5FBE3F" d="M31.352 10.326l1.557-2.095a1.84 1.84 0 0 0-2.964-2.18L28.43 8.137a16.51 16.51 0 0 0-7.102-2.248V4.297h1.77a.496.496 0 0 0 .496-.472v-.98c0-1.095-.918-1.986-2.012-1.986h-3.164c-1.094 0-2.012.891-2.012 1.986v.98a.496.496 0 0 0 .497.472h1.456v1.62c-2.36.232-4.643.97-6.692 2.163l-1.534-2.063a1.84 1.84 0 1 0-2.94 2.213l1.535 2.021a16.616 16.616 0 0 0-5.367 12.237c0 9.182 7.464 16.653 16.639 16.653 9.174 0 16.639-7.47 16.639-16.653a16.616 16.616 0 0 0-5.287-12.162zm-.648-3.724a.903.903 0 0 1 1.453 1.07l-1.51 2.03a16.74 16.74 0 0 0-1.42-1.065l1.477-2.035zm-13.36-3.243v-.514a1.072 1.072 0 0 1 1.074-1.048h3.164a1.072 1.072 0 0 1 1.074 1.048v.514h-5.312zm3.046.938V5.84a17.07 17.07 0 0 0-1.093.01V4.297h1.093zM7.94 7.662A.903.903 0 0 1 9.38 6.576l1.486 2c-.495.327-.973.68-1.432 1.057L7.94 7.663zm12.06 30.541c-8.657 0-15.7-7.05-15.7-15.715s7.043-15.715 15.7-15.715c8.659 0 15.702 7.05 15.702 15.715 0 8.666-7.044 15.715-15.701 15.715z"/><path fill="#5FBE3F" d="M20 13.575a8.851 8.851 0 0 0-5.138 1.637.468.468 0 1 0 .546.761 7.986 7.986 0 1 1-2.06 2.127.47.47 0 0 0-.056-.593.467.467 0 0 0-.72.07 8.866 8.866 0 0 0-1.478 4.911c0 4.915 3.995 8.914 8.906 8.914 4.91 0 8.906-3.999 8.906-8.914 0-4.915-3.995-8.913-8.906-8.913zM19.922 12.793a.469.469 0 0 0 .469-.469v-2.183a.469.469 0 0 0-.938 0v2.183a.47.47 0 0 0 .469.469zM20.078 32.184a.469.469 0 0 0-.469.468v2.184a.469.469 0 0 0 .938 0v-2.184a.469.469 0 0 0-.469-.468z"/><path fill="#5FBE3F" d="M21.698 22.922c0-.282-.07-.561-.206-.81l-1.03-6.083a.48.48 0 0 0-.46-.404H20a.48.48 0 0 0-.462.4l-1.088 6.206a1.699 1.699 0 0 0 2.618 2.01 1.698 1.698 0 0 0 .63-1.319zm-1.706-4.048l.406 2.398a1.694 1.694 0 0 0-.83.008l.424-2.406zm-.752 4.048a.76.76 0 1 1 1.52 0 .76.76 0 0 1-1.52 0zM30.164 22.89h2.184a.469.469 0 0 0 0-.937h-2.184a.469.469 0 1 0 0 .938zM9.836 22.11H7.652a.469.469 0 0 0 0 .937h2.184a.469.469 0 0 0 0-.938zM27.145 15.727a.468.468 0 0 0 .33-.137l1.545-1.544a.47.47 0 0 0-.663-.663l-1.544 1.544a.469.469 0 0 0 .332.8zM12.524 29.386L10.98 30.93a.47.47 0 1 0 .662.663l1.545-1.544a.468.468 0 0 0-.663-.663zM27.56 29.301a.468.468 0 1 0-.662.663l1.544 1.544a.469.469 0 1 0 .663-.663l-1.544-1.544zM12.439 15.675a.468.468 0 1 0 .662-.663l-1.544-1.544a.468.468 0 0 0-.662.663l1.544 1.544zM16.422 28.546a.469.469 0 0 0 .48-.806 6.101 6.101 0 0 1-2.183-8.294.47.47 0 0 0-.527-.69.468.468 0 0 0-.285.222 7.038 7.038 0 0 0 2.515 9.568zM15.219 18.46a.466.466 0 0 0 .341-.148c.128-.135.263-.267.403-.39a.469.469 0 1 0-.622-.702c-.161.143-.317.294-.464.45a.468.468 0 0 0 .342.79z"/></svg>