<svg width="654" height="654" viewBox="0 0 654 654" fill="none" xmlns="http://www.w3.org/2000/svg">
<path d="M548.263 489.79C534.88 496.395 519.422 497.413 505.289 492.621C491.156 487.829 479.505 477.619 472.899 464.237C471.594 461.578 470.497 458.822 469.617 455.994C469.617 455.994 469.617 455.994 469.617 455.921C465.67 443.138 466.408 429.368 471.698 417.08C476.988 404.793 486.484 394.792 498.481 388.874L523.372 439.332L551.339 390.478C560.205 395.538 567.527 402.915 572.522 411.818C577.517 420.721 579.996 430.815 579.693 441.018C579.391 451.222 576.318 461.152 570.805 469.743C565.292 478.334 557.545 485.264 548.395 489.79H548.263Z" stroke="#263238" stroke-linecap="round" stroke-linejoin="round"/>
<path d="M499.129 362.923C507.391 358.847 516.527 356.861 525.736 357.141C534.944 357.421 543.943 359.957 551.942 364.528L523.975 413.367L499.129 362.923Z" stroke="#263238" stroke-linecap="round" stroke-linejoin="round"/>
<path d="M499.129 362.924V375.141L524.019 425.584L551.942 376.745V364.528L524.019 413.382L499.129 362.924Z" stroke="#263238" stroke-linecap="round" stroke-linejoin="round"/>
<path d="M189.358 334.22H36.6293C32.9012 334.22 29.3257 335.701 26.6895 338.337C24.0533 340.974 22.5723 344.549 22.5723 348.277V405.992C22.5723 409.722 24.0528 413.299 26.6886 415.937C29.3244 418.576 32.8998 420.06 36.6293 420.064H189.358C193.09 420.064 196.67 418.581 199.309 415.942C201.948 413.304 203.43 409.724 203.43 405.992V348.277C203.426 344.548 201.942 340.972 199.303 338.337C196.665 335.701 193.088 334.22 189.358 334.22V334.22ZM98.0978 408.2C98.0978 408.561 97.9556 408.907 97.702 409.163C97.4485 409.419 97.1041 409.565 96.7436 409.569H83.9818C83.802 409.569 83.624 409.534 83.4579 409.465C83.2919 409.396 83.1409 409.295 83.0138 409.168C82.8867 409.041 82.7859 408.89 82.7171 408.724C82.6483 408.558 82.6129 408.38 82.6129 408.2V378.496C82.6168 378.136 82.7627 377.791 83.019 377.538C83.2753 377.284 83.6213 377.142 83.9818 377.142H96.6847C97.0438 377.142 97.3883 377.285 97.6422 377.539C97.8962 377.793 98.0389 378.137 98.0389 378.496L98.0978 408.2ZM123.459 409.569H110.756C110.393 409.569 110.045 409.425 109.789 409.168C109.532 408.911 109.388 408.563 109.388 408.2V368.252C109.391 367.891 109.537 367.547 109.794 367.293C110.05 367.04 110.396 366.897 110.756 366.897H123.459C123.637 366.897 123.813 366.932 123.978 367C124.142 367.069 124.291 367.168 124.417 367.294C124.543 367.42 124.642 367.569 124.71 367.733C124.779 367.898 124.814 368.074 124.814 368.252V408.2C124.814 408.384 124.777 408.565 124.705 408.734C124.634 408.903 124.529 409.056 124.397 409.184C124.265 409.312 124.109 409.412 123.938 409.478C123.767 409.544 123.584 409.575 123.4 409.569H123.459ZM149.954 408.2C149.954 408.561 149.812 408.907 149.559 409.163C149.305 409.419 148.961 409.565 148.6 409.569H135.883C135.522 409.565 135.178 409.419 134.924 409.163C134.671 408.907 134.528 408.561 134.528 408.2V403.416C134.528 403.057 134.671 402.713 134.925 402.459C135.179 402.205 135.523 402.062 135.883 402.062H148.6C148.959 402.062 149.304 402.205 149.558 402.459C149.812 402.713 149.954 403.057 149.954 403.416V408.2ZM175.08 408.2C175.08 408.561 174.938 408.907 174.685 409.163C174.431 409.419 174.087 409.565 173.726 409.569H160.965C160.601 409.569 160.253 409.425 159.997 409.168C159.74 408.911 159.596 408.563 159.596 408.2V364.425L146.687 395.851C146.588 396.082 146.428 396.282 146.223 396.428C146.018 396.575 145.777 396.662 145.526 396.68C145.275 396.698 145.024 396.647 144.8 396.532C144.577 396.417 144.389 396.242 144.258 396.027L121.354 357.536C121.261 357.377 121.137 357.239 120.988 357.131C120.839 357.023 120.67 356.946 120.491 356.906C120.311 356.866 120.125 356.863 119.945 356.898C119.764 356.933 119.593 357.005 119.441 357.109L96.7877 372.388C96.5685 372.53 96.3129 372.605 96.0517 372.605C95.7906 372.605 95.535 372.53 95.3158 372.388L70.8373 358.905V408.215C70.8374 408.575 70.6951 408.921 70.4416 409.178C70.1881 409.434 69.8436 409.58 69.4831 409.584H56.8097C56.6299 409.584 56.4519 409.548 56.2858 409.48C56.1198 409.411 55.9688 409.31 55.8417 409.183C55.7146 409.056 55.6138 408.905 55.545 408.739C55.4762 408.573 55.4408 408.395 55.4408 408.215V347.276C55.4447 346.916 55.5906 346.571 55.8469 346.318C56.1032 346.064 56.4492 345.922 56.8097 345.922H69.5126C69.8717 345.922 70.2162 346.065 70.4701 346.319C70.7241 346.573 70.8668 346.917 70.8668 347.276V355.608L95.2275 369.017C95.4467 369.159 95.7023 369.234 95.9634 369.234C96.2246 369.234 96.4802 369.159 96.6994 369.017L120.251 353.179C120.403 353.074 120.576 353.003 120.758 352.967C120.939 352.932 121.126 352.935 121.307 352.975C121.488 353.015 121.658 353.091 121.808 353.2C121.958 353.308 122.084 353.447 122.179 353.606L143.89 389.919C144.021 390.134 144.209 390.308 144.432 390.423C144.656 390.539 144.907 390.59 145.158 390.572C145.409 390.553 145.65 390.466 145.855 390.32C146.06 390.174 146.22 389.974 146.319 389.742L159.654 357.271V347.262C159.658 346.901 159.804 346.557 160.061 346.303C160.317 346.05 160.663 345.907 161.023 345.907H164.335L165.807 342.478C165.876 342.314 165.976 342.164 166.102 342.039C166.229 341.913 166.378 341.814 166.543 341.746C166.708 341.678 166.884 341.644 167.062 341.644C167.24 341.645 167.417 341.681 167.581 341.749C167.745 341.818 167.894 341.918 168.02 342.044C168.145 342.171 168.245 342.32 168.313 342.485C168.38 342.65 168.415 342.826 168.414 343.004C168.414 343.182 168.378 343.359 168.31 343.523L167.338 345.907H173.785C174.144 345.907 174.489 346.05 174.743 346.304C174.997 346.558 175.139 346.902 175.139 347.262L175.08 408.2Z" stroke="#263238" stroke-linecap="round" stroke-linejoin="round"/>
<path d="M96.6851 377.142H83.9675C83.2196 377.142 82.6133 377.748 82.6133 378.496V408.215C82.6133 408.963 83.2196 409.569 83.9675 409.569H96.6851C97.433 409.569 98.0393 408.963 98.0393 408.215V378.496C98.0393 377.748 97.433 377.142 96.6851 377.142Z" stroke="#263238" stroke-linecap="round" stroke-linejoin="round"/>
<path d="M123.402 366.898H110.684C109.936 366.898 109.33 367.504 109.33 368.252V408.215C109.33 408.963 109.936 409.569 110.684 409.569H123.402C124.15 409.569 124.756 408.963 124.756 408.215V368.252C124.756 367.504 124.15 366.898 123.402 366.898Z" stroke="#263238" stroke-linecap="round" stroke-linejoin="round"/>
<path d="M148.543 402.062H135.825C135.077 402.062 134.471 402.669 134.471 403.416V408.215C134.471 408.963 135.077 409.569 135.825 409.569H148.543C149.29 409.569 149.897 408.963 149.897 408.215V403.416C149.897 402.669 149.29 402.062 148.543 402.062Z" stroke="#263238" stroke-linecap="round" stroke-linejoin="round"/>
<path d="M55.9693 349.249V349.087C56.0488 348.918 56.1622 348.766 56.3025 348.642C56.4427 348.518 56.6069 348.425 56.7849 348.367C56.9628 348.309 57.1508 348.288 57.3371 348.305C57.5234 348.323 57.7042 348.379 57.8682 348.469L70.8065 355.593V347.262C70.8065 347.084 70.7715 346.908 70.7035 346.744C70.6354 346.579 70.5357 346.43 70.4099 346.304C70.2842 346.178 70.1349 346.079 69.9706 346.011C69.8063 345.943 69.6302 345.908 69.4524 345.908H56.8084C56.4478 345.908 56.1019 346.05 55.8456 346.303C55.5893 346.557 55.4433 346.901 55.4395 347.262V408.2C55.4395 408.38 55.4749 408.558 55.5436 408.724C55.6124 408.89 55.7133 409.041 55.8404 409.168C55.9675 409.295 56.1184 409.396 56.2845 409.465C56.4506 409.534 56.6286 409.569 56.8084 409.569H69.5112C69.8717 409.565 70.2162 409.419 70.4697 409.163C70.7232 408.907 70.8654 408.561 70.8654 408.2V358.89L56.5434 351.001C56.2443 350.835 56.0188 350.562 55.9124 350.237C55.8059 349.913 55.8262 349.559 55.9693 349.249V349.249Z" stroke="#263238" stroke-linecap="round" stroke-linejoin="round"/>
<path d="M173.667 345.893H167.22L159.596 364.41V408.186C159.596 408.549 159.74 408.897 159.997 409.153C160.253 409.41 160.602 409.554 160.965 409.554H173.667C174.028 409.551 174.372 409.405 174.626 409.148C174.879 408.892 175.022 408.546 175.022 408.186V347.247C175.022 346.888 174.879 346.543 174.625 346.289C174.371 346.036 174.027 345.893 173.667 345.893Z" stroke="#263238" stroke-linecap="round" stroke-linejoin="round"/>
<path d="M160.965 345.893C160.604 345.893 160.258 346.035 160.002 346.289C159.746 346.542 159.6 346.887 159.596 347.247V357.256L164.276 345.893H160.965Z" stroke="#263238" stroke-linecap="round" stroke-linejoin="round"/>
<path d="M123.402 366.898H110.684C109.936 366.898 109.33 367.504 109.33 368.252V408.215C109.33 408.963 109.936 409.569 110.684 409.569H123.402C124.15 409.569 124.756 408.963 124.756 408.215V368.252C124.756 367.504 124.15 366.898 123.402 366.898Z" stroke="#263238" stroke-linecap="round" stroke-linejoin="round"/>
<path d="M96.6851 377.142H83.9675C83.2196 377.142 82.6133 377.748 82.6133 378.496V408.215C82.6133 408.963 83.2196 409.569 83.9675 409.569H96.6851C97.433 409.569 98.0393 408.963 98.0393 408.215V378.496C98.0393 377.748 97.433 377.142 96.6851 377.142Z" stroke="#263238" stroke-linecap="round" stroke-linejoin="round"/>
<path d="M148.543 402.062H135.825C135.077 402.062 134.471 402.669 134.471 403.416V408.215C134.471 408.963 135.077 409.569 135.825 409.569H148.543C149.29 409.569 149.897 408.963 149.897 408.215V403.416C149.897 402.669 149.29 402.062 148.543 402.062Z" stroke="#263238" stroke-linecap="round" stroke-linejoin="round"/>
<path d="M425.43 387.108L402.35 410.217C415.633 425.789 423.659 445.159 425.283 465.562H457.901C456.188 436.508 444.751 408.874 425.43 387.108V387.108Z" fill="#5FBE3F"/>
<path opacity="0.2" d="M425.43 387.108L402.35 410.217C415.633 425.789 423.659 445.159 425.283 465.562H457.901C456.188 436.508 444.751 408.874 425.43 387.108V387.108Z" fill="white"/>
<path d="M253.653 536.642C238.651 518.997 230.413 496.591 230.413 473.43C230.413 450.269 238.651 427.863 253.653 410.217L230.588 387.108C209.506 410.909 197.867 441.605 197.867 473.4C197.867 505.196 209.506 535.891 230.588 559.693L253.653 536.642Z" fill="#5FBE3F"/>
<g opacity="0.4">
<path opacity="0.4" d="M253.651 536.642C238.649 518.997 230.411 496.591 230.411 473.43C230.411 450.269 238.649 427.863 253.651 410.217L230.586 387.108C209.504 410.909 197.865 441.605 197.865 473.4C197.865 505.196 209.504 535.891 230.586 559.693L253.651 536.642Z" fill="white"/>
</g>
<path d="M264.781 399.075C282.43 384.074 304.838 375.838 328.001 375.838C351.164 375.838 373.572 384.074 391.221 399.075L414.287 376.009C390.488 354.933 359.798 343.297 328.009 343.297C296.219 343.297 265.529 354.933 241.73 376.009L264.781 399.075Z" fill="#5FBE3F"/>
<path opacity="0.2" d="M264.781 399.075C282.43 384.074 304.838 375.838 328.001 375.838C351.164 375.838 373.572 384.074 391.221 399.075L414.287 376.009C390.488 354.933 359.798 343.297 328.009 343.297C296.219 343.297 265.529 354.933 241.73 376.009L264.781 399.075Z" fill="black"/>
<path d="M457.9 481.312H425.282C423.839 499.212 417.484 516.367 406.915 530.887C396.347 545.406 381.976 556.727 365.386 563.603C348.796 570.478 330.63 572.64 312.889 569.852C295.148 567.063 278.521 559.433 264.84 547.8L241.76 570.865C260.023 587.036 282.465 597.747 306.523 601.777C330.582 605.807 355.289 602.992 377.825 593.655C400.361 584.318 419.818 568.834 433.977 548.969C448.136 529.105 456.425 505.661 457.9 481.312V481.312Z" fill="#5FBE3F"/>
<path d="M530.068 316.041H152.72C148.683 316.041 144.812 314.437 141.958 311.583C139.104 308.729 137.5 304.858 137.5 300.821V56.066C137.5 54.068 137.894 52.0896 138.659 50.2439C139.424 48.3981 140.545 46.7213 141.959 45.3091C143.372 43.897 145.05 42.7773 146.897 42.014C148.743 41.2508 150.722 40.8589 152.72 40.8608H530.068C532.066 40.8589 534.045 41.2508 535.891 42.014C537.738 42.7773 539.415 43.897 540.829 45.3091C542.242 46.7213 543.364 48.3981 544.129 50.2439C544.894 52.0896 545.288 54.068 545.288 56.066V300.821C545.288 304.858 543.684 308.729 540.83 311.583C537.976 314.437 534.104 316.041 530.068 316.041V316.041Z" fill="#263238"/>
<path d="M530.068 307.239H152.72C148.683 307.239 144.812 305.636 141.958 302.782C139.104 299.927 137.5 296.056 137.5 292.019V47.2644C137.504 43.2304 139.109 39.3629 141.963 36.5118C144.817 33.6607 148.686 32.0592 152.72 32.0592H530.068C534.102 32.0592 537.971 33.6607 540.825 36.5118C543.678 39.3629 545.284 43.2304 545.288 47.2644V292.019C545.288 296.056 543.684 299.927 540.83 302.782C537.976 305.636 534.104 307.239 530.068 307.239V307.239Z" fill="#A7D772"/>
<path d="M545.904 55.2863V46.4546C545.904 44.4566 545.51 42.4782 544.745 40.6324C543.98 38.7867 542.859 37.1098 541.445 35.6977C540.032 34.2856 538.354 33.1659 536.507 32.4026C534.661 31.6393 532.682 31.2475 530.684 31.2494H153.292C151.294 31.2475 149.315 31.6393 147.469 32.4026C145.622 33.1659 143.944 34.2856 142.531 35.6977C141.117 37.1098 139.996 38.7867 139.231 40.6324C138.466 42.4782 138.072 44.4566 138.072 46.4546V291.239V300.071C138.072 304.107 139.676 307.979 142.53 310.833C145.384 313.687 149.256 315.291 153.292 315.291H530.684C534.721 315.291 538.592 313.687 541.446 310.833C544.301 307.979 545.904 304.107 545.904 300.071V55.2863V55.2863Z" stroke="#263238" stroke-miterlimit="10"/>
<path d="M161.758 56.3458V281.377H519.44V56.3458H161.758ZM515.466 100.504H475.208V60.3348H515.466V100.504ZM254.137 148.74H294.395V188.998H254.137V148.74ZM250.178 188.998H209.935V148.74H250.178V188.998ZM382.829 144.839H342.601V104.493H382.844L382.829 144.839ZM386.759 104.493H427.002V144.751H386.759V104.493ZM342.601 148.651H382.859V188.909H342.601V148.651ZM338.641 188.909H298.354V148.74H338.612L338.641 188.909ZM338.641 144.751H298.354V104.493H338.612L338.641 144.751ZM294.483 144.751H254.137V104.493H294.395L294.483 144.751ZM294.483 192.928V233.171H254.137V192.957L294.483 192.928ZM298.443 192.928H338.7V233.171H298.354L298.443 192.928ZM342.601 192.928H382.859V233.171H342.601V192.928ZM386.759 192.928H427.002V233.171H386.759V192.928ZM386.759 188.968V148.74H427.002V188.998L386.759 188.968ZM430.918 148.71H471.249V188.968H430.991L430.918 148.71ZM430.918 144.751V104.493H471.249V144.751H430.918ZM430.918 100.592V60.3348H471.249V100.563L430.918 100.592ZM426.958 100.592H386.759V60.3348H427.002L426.958 100.592ZM382.8 100.592H342.601V60.3348H382.844L382.8 100.592ZM338.641 100.592H298.354V60.3348H338.612L338.641 100.592ZM294.483 100.592H254.137V60.3348H294.395L294.483 100.592ZM250.325 100.592H209.935V60.3348H250.178L250.325 100.592ZM250.325 104.552V144.81H209.935V104.493L250.325 104.552ZM206.166 144.81H165.717V104.493H205.975L206.166 144.81ZM206.166 148.769V189.027H165.717V148.74L206.166 148.769ZM206.166 192.928V233.171H165.717V192.957L206.166 192.928ZM210.126 192.928H250.369V233.171H209.935L210.126 192.928ZM250.369 237.086V277.344H209.935V237.16L250.369 237.086ZM254.328 237.086H294.586V277.344H254.137L254.328 237.086ZM298.487 237.086H338.744V277.344H298.354L298.487 237.086ZM342.645 237.086H382.903V277.344H342.601L342.645 237.086ZM386.803 237.086H427.046V277.344H386.759L386.803 237.086ZM430.962 237.086H471.249V277.344H430.991L430.962 237.086ZM430.962 233.126V192.957H471.249V233.2L430.962 233.126ZM475.12 192.883H515.378V233.126H475.208L475.12 192.883ZM475.12 188.924V148.74H515.378V188.998L475.12 188.924ZM475.12 144.766V104.493H515.378V144.751L475.12 144.766ZM205.975 60.3348V100.563H165.717V60.3348H205.975ZM165.717 237.16H205.975V277.417H165.717V237.16ZM475.208 277.417V237.16H515.466V277.417H475.208Z" fill="white"/>
<path opacity="0.8" d="M161.758 56.3458V281.377H519.44V56.3458H161.758ZM515.466 100.504H475.208V60.3348H515.466V100.504ZM254.137 148.74H294.395V188.998H254.137V148.74ZM250.178 188.998H209.935V148.74H250.178V188.998ZM382.829 144.839H342.601V104.493H382.844L382.829 144.839ZM386.759 104.493H427.002V144.751H386.759V104.493ZM342.601 148.651H382.859V188.909H342.601V148.651ZM338.641 188.909H298.354V148.74H338.612L338.641 188.909ZM338.641 144.751H298.354V104.493H338.612L338.641 144.751ZM294.483 144.751H254.137V104.493H294.395L294.483 144.751ZM294.483 192.928V233.171H254.137V192.957L294.483 192.928ZM298.443 192.928H338.7V233.171H298.354L298.443 192.928ZM342.601 192.928H382.859V233.171H342.601V192.928ZM386.759 192.928H427.002V233.171H386.759V192.928ZM386.759 188.968V148.74H427.002V188.998L386.759 188.968ZM430.918 148.71H471.249V188.968H430.991L430.918 148.71ZM430.918 144.751V104.493H471.249V144.751H430.918ZM430.918 100.592V60.3348H471.249V100.563L430.918 100.592ZM426.958 100.592H386.759V60.3348H427.002L426.958 100.592ZM382.8 100.592H342.601V60.3348H382.844L382.8 100.592ZM338.641 100.592H298.354V60.3348H338.612L338.641 100.592ZM294.483 100.592H254.137V60.3348H294.395L294.483 100.592ZM250.325 100.592H209.935V60.3348H250.178L250.325 100.592ZM250.325 104.552V144.81H209.935V104.493L250.325 104.552ZM206.166 144.81H165.717V104.493H205.975L206.166 144.81ZM206.166 148.769V189.027H165.717V148.74L206.166 148.769ZM206.166 192.928V233.171H165.717V192.957L206.166 192.928ZM210.126 192.928H250.369V233.171H209.935L210.126 192.928ZM250.369 237.086V277.344H209.935V237.16L250.369 237.086ZM254.328 237.086H294.586V277.344H254.137L254.328 237.086ZM298.487 237.086H338.744V277.344H298.354L298.487 237.086ZM342.645 237.086H382.903V277.344H342.601L342.645 237.086ZM386.803 237.086H427.046V277.344H386.759L386.803 237.086ZM430.962 237.086H471.249V277.344H430.991L430.962 237.086ZM430.962 233.126V192.957H471.249V233.2L430.962 233.126ZM475.12 192.883H515.378V233.126H475.208L475.12 192.883ZM475.12 188.924V148.74H515.378V188.998L475.12 188.924ZM475.12 144.766V104.493H515.378V144.751L475.12 144.766ZM205.975 60.3348V100.563H165.717V60.3348H205.975ZM165.717 237.16H205.975V277.417H165.717V237.16ZM475.208 277.417V237.16H515.466V277.417H475.208Z" fill="white"/>
<path d="M342.38 192.368L339.186 189.571L342.38 186.775L345.574 189.571L342.38 192.368Z" fill="#263238"/>
<path d="M351.95 183.978L348.756 181.181L355.144 175.588L358.324 178.385L351.95 183.978ZM364.712 172.791L361.518 169.98L367.891 164.386L371.085 167.183L364.712 172.791ZM377.459 161.59L374.265 158.793L380.653 153.2L383.818 156.011L377.459 161.59ZM390.221 150.403L387.026 147.606L389.838 145.133L395.004 142.867L397.021 146.414L392.517 148.386L390.221 150.403ZM405.087 142.867L403.071 139.334L411.137 135.786L413.153 139.334L405.087 142.867ZM421.279 135.801L419.144 132.254L427.211 128.706L429.227 132.254L421.279 135.801ZM437.47 128.721L435.336 125.174L440.237 123.025L442.224 121.288L445.419 124.084L442.916 126.278L437.47 128.721ZM451.91 118.491L448.716 115.694L455.104 110.086L458.283 112.898L451.91 118.491ZM464.672 107.29L461.36 104.493L467.718 98.8995L470.913 101.696L464.672 107.29ZM477.419 96.1028L474.224 93.3061L480.613 87.7127L483.792 90.5094L477.419 96.1028ZM490.18 84.916L486.854 82.1194L493.227 76.526L496.421 79.3227L490.18 84.916ZM502.927 73.7293L499.733 70.9179L506.121 65.3245L509.316 68.1212L502.927 73.7293Z" fill="#263238"/>
<path d="M519.426 72.8758H514.907V60.3054H500.6V56.3606H519.426V72.8758Z" fill="#263238"/>
<g opacity="0.5">
<path opacity="0.5" d="M460.844 161.9L458.047 159.103L463.567 153.583L466.363 156.38L460.844 161.9ZM471.883 150.86L469.086 148.063L474.606 142.544L477.403 145.34L471.883 150.86ZM482.923 139.82L480.126 137.024L485.646 131.504L488.443 134.301L482.923 139.82ZM493.962 128.781L491.166 125.984L496.685 120.464L499.482 123.261L493.962 128.781ZM505.002 117.741L502.205 114.945L507.725 109.425L510.522 112.222L505.002 117.741Z" fill="black"/>
<path opacity="0.5" d="M451.937 170.849H447.168V166.889H450.303L452.526 164.667L455.323 167.464L451.937 170.849Z" fill="black"/>
<path opacity="0.5" d="M385.626 192.957H381.799V188.998H383.978L386.553 186.422L389.35 189.219L385.626 192.957ZM374.351 192.957H366.903V188.998H374.351V192.957ZM359.455 192.957H351.992V188.998H359.455V192.957ZM394.62 183.979L391.823 181.182L397.063 175.883L399.86 178.68L394.62 183.979ZM405.159 173.454L402.362 170.643L406.086 166.919H409.898V170.878H407.735L405.159 173.454ZM439.75 170.849H432.301V166.889H439.75V170.849ZM424.853 170.849H417.405V166.889H424.853V170.849Z" fill="black"/>
<path opacity="0.5" d="M344.544 188.998H340.584V192.957H344.544V188.998Z" fill="black"/>
<path opacity="0.5" d="M519.426 117.079H515.467V104.523H502.896L502.911 100.563H519.426V117.079Z" fill="black"/>
<g opacity="0.2">
<path opacity="0.2" d="M460.844 161.9L458.047 159.103L463.567 153.583L466.363 156.38L460.844 161.9ZM471.883 150.86L469.086 148.063L474.606 142.544L477.403 145.34L471.883 150.86ZM482.923 139.82L480.126 137.024L485.646 131.504L488.443 134.301L482.923 139.82ZM493.962 128.781L491.166 125.984L496.685 120.464L499.482 123.261L493.962 128.781ZM505.002 117.741L502.205 114.945L507.725 109.425L510.522 112.222L505.002 117.741Z" fill="black"/>
<path opacity="0.2" d="M451.937 170.849H447.168V166.889H450.303L452.526 164.667L455.323 167.464L451.937 170.849Z" fill="black"/>
<path opacity="0.2" d="M385.626 192.957H381.799V188.998H383.978L386.553 186.422L389.35 189.219L385.626 192.957ZM374.351 192.957H366.903V188.998H374.351V192.957ZM359.455 192.957H351.992V188.998H359.455V192.957ZM394.62 183.979L391.823 181.182L397.063 175.883L399.86 178.68L394.62 183.979ZM405.159 173.454L402.362 170.643L406.086 166.919H409.898V170.878H407.735L405.159 173.454ZM439.75 170.849H432.301V166.889H439.75V170.849ZM424.853 170.849H417.405V166.889H424.853V170.849Z" fill="black"/>
<path opacity="0.2" d="M344.544 188.998H340.584V192.957H344.544V188.998Z" fill="black"/>
<path opacity="0.2" d="M519.426 117.079H515.467V104.523H502.896L502.911 100.563H519.426V117.079Z" fill="black"/>
</g>
</g>
<g opacity="0.3">
<path opacity="0.3" d="M341.997 189.583L339.197 192.382L341.997 195.182L344.797 192.382L341.997 189.583Z" fill="black"/>
<path opacity="0.3" d="M401.171 215.066H392.943V211.106H401.156L401.171 215.066ZM384.729 215.066H376.457V211.106H384.685L384.729 215.066ZM368.288 215.066H361.87L359.427 212.608L362.238 209.811L363.519 211.106H368.288V215.066ZM410.061 212.725L407.265 209.929L413.079 204.114L415.876 206.911L410.061 212.725ZM353.612 206.838L347.725 201.038L350.536 198.227L356.35 204.041L353.612 206.838ZM421.69 201.141L418.893 198.344L424.707 192.457L427.504 195.268L421.69 201.141ZM474.047 193.001H466.01V189.042H472.413L472.546 188.895L472.678 189.042H473.223V189.586L475.342 191.706L474.047 193.001ZM457.856 193.001H449.627V189.042H457.856V193.001ZM441.414 193.001H433.127V189.042H441.355L441.414 193.001ZM481.156 185.892L478.36 183.08L484.174 177.281L486.971 180.078L481.156 185.892ZM492.785 174.263L489.988 171.467L495.802 165.653L498.599 168.449L492.785 174.263ZM504.413 162.635L501.616 159.838L507.504 154.024L510.301 156.821L504.413 162.635Z" fill="black"/>
<path opacity="0.3" d="M519.426 161.295H515.467V148.74H502.896V144.78H519.426V161.295Z" fill="black"/>
<g opacity="0.3">
<path opacity="0.3" d="M341.997 189.583L339.197 192.382L341.997 195.182L344.797 192.382L341.997 189.583Z" fill="black"/>
<path opacity="0.3" d="M401.171 215.066H392.943V211.106H401.156L401.171 215.066ZM384.729 215.066H376.457V211.106H384.685L384.729 215.066ZM368.288 215.066H361.87L359.427 212.608L362.238 209.811L363.519 211.106H368.288V215.066ZM410.061 212.725L407.265 209.929L413.079 204.114L415.876 206.911L410.061 212.725ZM353.612 206.838L347.725 201.038L350.536 198.227L356.35 204.041L353.612 206.838ZM421.69 201.141L418.893 198.344L424.707 192.457L427.504 195.268L421.69 201.141ZM474.047 193.001H466.01V189.042H472.413L472.546 188.895L472.678 189.042H473.223V189.586L475.342 191.706L474.047 193.001ZM457.856 193.001H449.627V189.042H457.856V193.001ZM441.414 193.001H433.127V189.042H441.355L441.414 193.001ZM481.156 185.892L478.36 183.08L484.174 177.281L486.971 180.078L481.156 185.892ZM492.785 174.263L489.988 171.467L495.802 165.653L498.599 168.449L492.785 174.263ZM504.413 162.635L501.616 159.838L507.504 154.024L510.301 156.821L504.413 162.635Z" fill="black"/>
<path opacity="0.3" d="M519.426 161.295H515.467V148.74H502.896V144.78H519.426V161.295Z" fill="black"/>
</g>
</g>
<path d="M187.076 281.377H163.746V277.418H184.618L206.329 234.01L229.233 211.106H273.45L295.559 188.998H340.586V192.957H297.193L275.084 215.066H230.882L209.582 236.365L187.076 281.377Z" fill="#A7D772"/>
<g opacity="0.3">
<path opacity="0.3" d="M187.074 281.377H163.744V277.418H184.616L206.327 234.01L229.231 211.107H273.448L295.557 188.998H340.584V192.957H297.191L275.082 215.066H230.88L209.581 236.365L187.074 281.377Z" fill="#263238"/>
</g>
<path d="M245.542 245.02H222.064C218.203 245.02 215.072 248.15 215.072 252.012V275.489C215.072 279.35 218.203 282.481 222.064 282.481H245.542C249.403 282.481 252.533 279.35 252.533 275.489V252.012C252.533 248.15 249.403 245.02 245.542 245.02Z" fill="#A7D772"/>
<path opacity="0.3" d="M245.542 245.02H222.064C218.203 245.02 215.072 248.15 215.072 252.012V275.489C215.072 279.35 218.203 282.481 222.064 282.481H245.542C249.403 282.481 252.533 279.35 252.533 275.489V252.012C252.533 248.15 249.403 245.02 245.542 245.02Z" fill="black"/>
<path d="M245.542 242.399H222.064C218.203 242.399 215.072 245.53 215.072 249.391V272.869C215.072 276.73 218.203 279.86 222.064 279.86H245.542C249.403 279.86 252.533 276.73 252.533 272.869V249.391C252.533 245.53 249.403 242.399 245.542 242.399Z" fill="#A7D772"/>
<path opacity="0.8" d="M245.542 242.399H222.064C218.203 242.399 215.072 245.53 215.072 249.391V272.869C215.072 276.73 218.203 279.86 222.064 279.86H245.542C249.403 279.86 252.533 276.73 252.533 272.869V249.391C252.533 245.53 249.403 242.399 245.542 242.399Z" fill="white"/>
<path d="M223.874 255.5C223.78 254.144 224.224 252.806 225.11 251.776C226.093 250.93 227.346 250.465 228.643 250.465C229.939 250.465 231.193 250.93 232.175 251.776C233.061 252.806 233.505 254.144 233.412 255.5V265.804C233.444 266.771 233.236 267.732 232.808 268.6C232.83 268.677 232.867 268.748 232.918 268.809C232.968 268.869 233.031 268.919 233.103 268.954C233.294 269.009 233.493 269.033 233.691 269.027H233.971V271.824H233.544C232.95 271.848 232.359 271.727 231.822 271.471C231.39 271.25 231.043 270.893 230.836 270.455C230.502 270.576 230.157 270.665 229.806 270.72C229.422 270.793 229.033 270.828 228.643 270.823C227.996 270.869 227.347 270.777 226.738 270.554C226.129 270.33 225.574 269.981 225.11 269.528C224.227 268.496 223.783 267.159 223.874 265.804V255.5ZM227.009 266.083C226.964 266.612 227.122 267.138 227.45 267.555C227.78 267.84 228.2 267.997 228.635 267.997C229.071 267.997 229.491 267.84 229.82 267.555C230.149 267.138 230.307 266.612 230.262 266.083V255.294C230.303 254.765 230.145 254.241 229.82 253.822C229.491 253.537 229.071 253.38 228.635 253.38C228.2 253.38 227.78 253.537 227.45 253.822C227.126 254.241 226.968 254.765 227.009 255.294V266.083Z" fill="black"/>
<path d="M237.373 253.16C237.871 253.172 238.367 253.107 238.845 252.968C239.199 252.856 239.525 252.67 239.802 252.424C240.042 252.194 240.241 251.925 240.391 251.629C240.552 251.316 240.69 250.991 240.803 250.657H242.908V270.676H239.772V255.441H237.344L237.373 253.16Z" fill="black"/>
<path d="M378.413 246.492H354.935C351.074 246.492 347.943 249.622 347.943 253.483V276.961C347.943 280.822 351.074 283.953 354.935 283.953H378.413C382.274 283.953 385.404 280.822 385.404 276.961V253.483C385.404 249.622 382.274 246.492 378.413 246.492Z" fill="#A7D772"/>
<path opacity="0.3" d="M378.413 246.492H354.935C351.074 246.492 347.943 249.622 347.943 253.483V276.961C347.943 280.822 351.074 283.953 354.935 283.953H378.413C382.274 283.953 385.404 280.822 385.404 276.961V253.483C385.404 249.622 382.274 246.492 378.413 246.492Z" fill="black"/>
<path d="M378.413 243.872H354.935C351.074 243.872 347.943 247.002 347.943 250.863V274.341C347.943 278.202 351.074 281.333 354.935 281.333H378.413C382.274 281.333 385.404 278.202 385.404 274.341V250.863C385.404 247.002 382.274 243.872 378.413 243.872Z" fill="#A7D772"/>
<path opacity="0.8" d="M378.413 243.872H354.935C351.074 243.872 347.943 247.002 347.943 250.863V274.341C347.943 278.202 351.074 281.333 354.935 281.333H378.413C382.274 281.333 385.404 278.202 385.404 274.341V250.863C385.404 247.002 382.274 243.872 378.413 243.872Z" fill="white"/>
<path d="M357.158 257.237C357.063 255.884 357.502 254.547 358.38 253.513C359.37 252.678 360.624 252.219 361.92 252.219C363.215 252.219 364.469 252.678 365.46 253.513C366.332 254.551 366.77 255.885 366.681 257.237V267.541C366.713 268.508 366.506 269.469 366.078 270.337C366.101 270.417 366.141 270.49 366.194 270.554C366.247 270.617 366.313 270.669 366.387 270.705C366.577 270.736 366.771 270.736 366.961 270.705H367.255V273.502H366.829C366.234 273.526 365.643 273.405 365.106 273.149C364.672 272.932 364.324 272.574 364.12 272.133C363.784 272.251 363.439 272.344 363.09 272.413C362.701 272.479 362.307 272.513 361.912 272.516C361.265 272.557 360.615 272.462 360.007 272.236C359.398 272.01 358.844 271.659 358.38 271.206C357.499 270.173 357.06 268.836 357.158 267.482V257.237ZM360.264 267.879C360.223 268.408 360.38 268.932 360.705 269.351C361.034 269.636 361.455 269.793 361.89 269.793C362.325 269.793 362.746 269.636 363.075 269.351C363.4 268.932 363.557 268.408 363.517 267.879V257.09C363.562 256.561 363.404 256.035 363.075 255.618C362.746 255.333 362.325 255.176 361.89 255.176C361.455 255.176 361.034 255.333 360.705 255.618C360.377 256.035 360.219 256.561 360.264 257.09V267.879Z" fill="black"/>
<path d="M374.983 257.355C375.056 256.718 374.899 256.076 374.541 255.544C374.392 255.383 374.209 255.257 374.006 255.175C373.802 255.094 373.582 255.059 373.363 255.073C373.145 255.062 372.927 255.095 372.722 255.171C372.517 255.247 372.329 255.364 372.171 255.515C371.842 255.932 371.685 256.458 371.73 256.987V259.136H368.786V257.193C368.691 255.847 369.112 254.516 369.963 253.469C370.936 252.632 372.176 252.171 373.459 252.171C374.742 252.171 375.983 252.632 376.955 253.469C377.806 254.516 378.227 255.847 378.133 257.193C378.15 258.196 377.986 259.193 377.647 260.137C377.325 260.978 376.905 261.778 376.396 262.521C375.918 263.224 375.386 263.888 374.806 264.508C374.232 265.112 373.717 265.686 373.26 266.216C372.787 266.718 372.376 267.277 372.039 267.879C371.774 268.396 371.686 268.986 371.788 269.557H377.676V272.413H368.609V269.955C368.589 269.079 368.744 268.208 369.065 267.393C369.36 266.666 369.746 265.978 370.214 265.347C370.669 264.74 371.161 264.16 371.685 263.611C372.207 263.063 372.698 262.489 373.157 261.888C373.628 261.27 374.014 260.592 374.306 259.872C374.7 259.088 374.931 258.231 374.983 257.355V257.355Z" fill="black"/>
<path d="M511.743 245.02H488.265C484.404 245.02 481.273 248.15 481.273 252.012V275.489C481.273 279.35 484.404 282.481 488.265 282.481H511.743C515.604 282.481 518.734 279.35 518.734 275.489V252.012C518.734 248.15 515.604 245.02 511.743 245.02Z" fill="#A7D772"/>
<path opacity="0.3" d="M511.743 245.02H488.265C484.404 245.02 481.273 248.15 481.273 252.012V275.489C481.273 279.35 484.404 282.481 488.265 282.481H511.743C515.604 282.481 518.734 279.35 518.734 275.489V252.012C518.734 248.15 515.604 245.02 511.743 245.02Z" fill="black"/>
<path d="M511.743 242.399H488.265C484.404 242.399 481.273 245.53 481.273 249.391V272.869C481.273 276.73 484.404 279.86 488.265 279.86H511.743C515.604 279.86 518.734 276.73 518.734 272.869V249.391C518.734 245.53 515.604 242.399 511.743 242.399Z" fill="#A7D772"/>
<path opacity="0.8" d="M511.743 242.399H488.265C484.404 242.399 481.273 245.53 481.273 249.391V272.869C481.273 276.73 484.404 279.86 488.265 279.86H511.743C515.604 279.86 518.734 276.73 518.734 272.869V249.391C518.734 245.53 515.604 242.399 511.743 242.399Z" fill="white"/>
<path d="M490.502 255.765C490.414 254.413 490.852 253.079 491.724 252.041C492.714 251.206 493.968 250.748 495.264 250.748C496.56 250.748 497.813 251.206 498.804 252.041C499.676 253.079 500.114 254.413 500.026 255.765V266.069C500.067 267.037 499.859 268 499.422 268.866C499.475 269.023 499.586 269.154 499.731 269.234C499.926 269.264 500.125 269.264 500.32 269.234H500.6V272.03H500.173C499.578 272.055 498.987 271.933 498.451 271.677C498.016 271.46 497.668 271.102 497.464 270.661C497.128 270.779 496.784 270.872 496.434 270.941C496.045 271.007 495.651 271.041 495.256 271.044C494.609 271.085 493.96 270.99 493.351 270.764C492.743 270.538 492.188 270.187 491.724 269.734C490.849 268.698 490.411 267.363 490.502 266.01V255.765ZM493.637 266.349C493.597 266.877 493.754 267.402 494.079 267.82C494.408 268.105 494.829 268.262 495.264 268.262C495.699 268.262 496.12 268.105 496.449 267.82C496.774 267.402 496.931 266.877 496.89 266.349V255.559C496.935 255.03 496.778 254.504 496.449 254.087C496.12 253.802 495.699 253.646 495.264 253.646C494.829 253.646 494.408 253.802 494.079 254.087C493.75 254.504 493.592 255.03 493.637 255.559V266.349Z" fill="black"/>
<path d="M508.106 255.883C508.179 255.246 508.022 254.604 507.664 254.072C507.514 253.909 507.329 253.782 507.122 253.7C506.916 253.619 506.694 253.585 506.472 253.601C506.256 253.592 506.041 253.626 505.838 253.702C505.636 253.778 505.451 253.894 505.295 254.043C504.966 254.46 504.808 254.986 504.853 255.515V256.81H501.909V255.721C501.819 254.373 502.245 253.041 503.101 251.997C504.071 251.161 505.309 250.701 506.59 250.701C507.87 250.701 509.108 251.161 510.078 251.997C510.935 253.041 511.361 254.373 511.271 255.721V256.236C511.271 258.356 510.535 259.739 509.077 260.343C509.819 260.637 510.424 261.199 510.77 261.918C511.128 262.744 511.298 263.638 511.271 264.538V266.098C511.364 267.446 510.937 268.779 510.078 269.822C509.113 270.667 507.873 271.132 506.59 271.132C505.307 271.132 504.067 270.667 503.101 269.822C502.242 268.779 501.816 267.446 501.909 266.098V264.494H504.853V266.407C504.812 266.936 504.97 267.46 505.295 267.879C505.451 268.028 505.636 268.144 505.838 268.22C506.041 268.296 506.256 268.33 506.472 268.321C506.691 268.329 506.91 268.293 507.115 268.215C507.32 268.137 507.507 268.017 507.664 267.864C508.02 267.337 508.177 266.701 508.106 266.069V264.494C508.171 263.8 508 263.105 507.62 262.521C507.406 262.314 507.148 262.159 506.865 262.067C506.581 261.976 506.281 261.95 505.986 261.991H504.927V259.047H506.163C506.665 259.072 507.158 258.909 507.547 258.591C507.737 258.361 507.879 258.096 507.965 257.81C508.051 257.524 508.079 257.224 508.047 256.928L508.106 255.883Z" fill="black"/>
<path d="M380.578 452.932L383.066 474.423C383.066 532.27 381.035 536.568 376.192 556.66C374.499 563.667 372.424 571.468 370.01 578.46C369.246 580.683 368.699 582.976 368.376 585.304V585.408C368.089 587.298 367.942 589.207 367.934 591.119C367.891 598.535 366.76 605.904 364.578 612.992C362.002 621.823 358.691 631.862 354.996 642.504C320.16 652.029 283.974 655.651 247.941 653.22L282.385 589.661C285.968 583.053 287.193 575.422 285.859 568.024C281.443 543.575 275.849 506.6 274.79 470.478C273.141 414.176 276.895 424.362 278.587 397.808C278.783 394.621 279.626 391.506 281.063 388.655C282.5 385.803 284.502 383.273 286.948 381.219L289.009 379.512L309.881 336.237C311.235 333.429 313.163 330.937 315.541 328.922C317.919 326.908 320.694 325.415 323.686 324.541C326.677 323.666 329.819 323.43 332.908 323.848C335.997 324.265 338.964 325.327 341.616 326.963L362.444 339.813C362.897 340.093 363.28 340.471 363.566 340.919C363.851 341.368 364.031 341.876 364.093 342.404L366.889 366.323C366.889 366.323 382.05 389.138 383.081 397.97C383.404 400.914 380.284 409.26 380.284 409.26L380.578 452.932Z" fill="#FFA8A7"/>
<path d="M448.023 176.693C448.023 177.767 448.023 178.842 448.023 179.931C448.032 189.203 446.779 198.434 444.299 207.368C441.921 216.003 438.407 224.284 433.848 231.994H434.187C433.142 233.789 432.038 235.541 430.89 237.263H430.536C416.512 258.066 395.369 273.027 371.085 279.331L369.068 279.817L367.92 280.082C360.515 281.755 352.946 282.595 345.355 282.584C340.037 282.589 334.727 282.18 329.473 281.363C326.158 280.853 322.871 280.175 319.625 279.331C317.138 278.684 314.694 277.962 312.266 277.138V277.359C310.382 276.731 308.527 276.039 306.702 275.284C289.636 268.298 274.76 256.855 263.633 242.15C262.293 240.413 261.042 238.632 259.85 236.807C259.055 235.615 258.289 234.393 257.553 233.156C256.376 231.214 255.257 229.241 254.212 227.269C253.668 226.224 253.152 225.179 252.652 224.119C252.372 223.574 252.122 223.015 251.872 222.455C251.504 221.646 251.151 220.836 250.797 220.012C245.53 207.425 242.823 193.914 242.834 180.269C242.834 178.297 242.834 176.339 242.996 174.382C243.128 172.144 243.32 169.966 243.599 167.714C245.265 154.112 249.64 140.982 256.466 129.099C263.292 117.217 272.431 106.823 283.342 98.5324C290.252 93.2637 297.799 88.887 305.804 85.5057C308.026 84.5783 310.293 83.7099 312.589 82.9445C334.586 75.5215 358.445 75.7446 380.299 83.5774C382.517 84.3723 384.705 85.2456 386.864 86.1975C390.358 87.7269 393.764 89.4518 397.064 91.364H397.241C398.242 91.9381 399.243 92.5416 400.185 93.1892C401.127 93.8369 402.172 94.4551 403.129 95.1175L403.32 95.4413C405.391 96.8544 407.407 98.3263 409.37 99.8571C416.055 105.177 422.056 111.303 427.239 118.095C428.24 119.405 429.197 120.744 430.183 122.098L430.669 122.819C431.464 124.012 432.259 125.189 433.009 126.411C433.937 127.883 434.834 129.458 435.688 131.018L435.762 131.165C436.046 131.643 436.307 132.134 436.542 132.637C436.674 132.902 436.807 133.182 436.954 133.447C437.366 134.256 437.764 135.081 438.146 135.905C438.152 135.944 438.152 135.984 438.146 136.023V136.111L438.235 136.288L438.308 136.435L438.411 136.67C438.417 136.71 438.417 136.749 438.411 136.788L438.838 137.716C442.974 146.753 445.756 156.35 447.096 166.198L447.361 169.318C447.464 170.363 447.552 171.423 447.64 172.468C447.729 173.513 447.758 174.382 447.802 175.412C447.802 175.5 447.802 175.589 447.802 175.677C448.008 175.971 448.023 176.339 448.023 176.693Z" fill="#263238"/>
<path d="M448.023 176.693C448.023 177.767 448.023 178.842 448.023 179.931C448.032 189.203 446.779 198.434 444.299 207.368C441.921 216.003 438.407 224.284 433.848 231.994H434.187C433.142 233.789 432.038 235.541 430.89 237.263H430.536C416.512 258.066 395.369 273.027 371.085 279.331L369.068 279.817L367.92 280.082C360.515 281.755 352.946 282.595 345.355 282.584C340.037 282.589 334.727 282.18 329.473 281.363C326.158 280.853 322.871 280.175 319.625 279.331C317.138 278.684 314.694 277.962 312.266 277.138V277.359C310.382 276.731 308.527 276.039 306.702 275.284C289.636 268.298 274.76 256.855 263.633 242.15C262.293 240.413 261.042 238.632 259.85 236.807C259.055 235.615 258.289 234.393 257.553 233.156C256.376 231.214 255.257 229.241 254.212 227.269C253.668 226.224 253.152 225.179 252.652 224.119C252.372 223.574 252.122 223.015 251.872 222.455C251.504 221.646 251.151 220.836 250.797 220.012C245.53 207.425 242.823 193.914 242.834 180.269C242.834 178.297 242.834 176.339 242.996 174.382C243.128 172.144 243.32 169.966 243.599 167.714C245.265 154.112 249.64 140.982 256.466 129.099C263.292 117.217 272.431 106.823 283.342 98.5324C290.252 93.2637 297.799 88.887 305.804 85.5057C308.026 84.5783 310.293 83.7099 312.589 82.9445C334.586 75.5215 358.445 75.7446 380.299 83.5774C382.517 84.3723 384.705 85.2456 386.864 86.1975C390.358 87.7269 393.764 89.4518 397.064 91.364H397.241C398.242 91.9381 399.243 92.5416 400.185 93.1892C401.127 93.8369 402.172 94.4551 403.129 95.1175L403.32 95.4413C405.391 96.8544 407.407 98.3263 409.37 99.8571C416.055 105.177 422.056 111.303 427.239 118.095C428.24 119.405 429.197 120.744 430.183 122.098L430.669 122.819C431.464 124.012 432.259 125.189 433.009 126.411C433.937 127.883 434.834 129.458 435.688 131.018L435.762 131.165L438.161 135.905C438.166 135.944 438.166 135.984 438.161 136.023V136.111L438.249 136.288L438.323 136.435L438.426 136.67C438.431 136.71 438.431 136.749 438.426 136.788L438.853 137.716C442.989 146.753 445.771 156.35 447.111 166.198L447.375 169.318C447.479 170.363 447.567 171.423 447.655 172.468C447.743 173.513 447.773 174.382 447.817 175.412C447.817 175.5 447.817 175.589 447.817 175.677C448.008 175.971 448.023 176.339 448.023 176.693Z" fill="#5FBE3F"/>
<path d="M361.046 167.861H358.97H354.702H341.925H329.046H316.755H316.107C316.107 168.7 316.107 169.553 316.107 170.392C316.107 171.349 316.107 172.306 316.107 173.248L316.505 173.631C316.372 173.778 316.24 173.895 316.107 174.028V174.602C320.405 174.602 324.718 174.602 329.001 174.602H330.105H341.881L354.613 174.499L367.198 174.352L379.607 174.175C379.68 171.953 379.754 169.759 379.813 167.493H381.491L361.046 167.861ZM447.993 175.618C447.993 176.03 447.92 176.442 447.89 176.854C447.066 187.393 445.889 197.653 444.358 207.367C446.838 198.433 448.091 189.203 448.082 179.93C448.082 178.841 448.082 177.767 448.082 176.692C448.023 176.339 448.008 175.971 447.993 175.618V175.618ZM361.046 167.861H358.97H354.702H341.925H329.046H316.755H316.107C316.107 168.7 316.107 169.553 316.107 170.392C316.107 171.349 316.107 172.306 316.107 173.248L316.505 173.631C316.372 173.778 316.24 173.895 316.107 174.028V174.602C320.405 174.602 324.718 174.602 329.001 174.602H330.105H341.881L354.613 174.499L367.198 174.352L379.607 174.175C379.68 171.953 379.754 169.759 379.813 167.493H381.491L361.046 167.861ZM361.046 167.861H358.97H354.702H341.925H329.046H316.755H316.107C316.107 168.7 316.107 169.553 316.107 170.392C316.107 171.349 316.107 172.306 316.107 173.248L316.505 173.631C316.372 173.778 316.24 173.895 316.107 174.028V174.602C320.405 174.602 324.718 174.602 329.001 174.602H330.105H341.881L354.613 174.499L367.198 174.352L379.607 174.175C379.68 171.953 379.754 169.759 379.813 167.493H381.491L361.046 167.861ZM361.046 167.861H358.97H354.702H341.925H329.046H316.755H316.107C316.107 168.7 316.107 169.553 316.107 170.392C316.107 171.349 316.107 172.306 316.107 173.248L316.505 173.631C316.372 173.778 316.24 173.895 316.107 174.028V174.602C320.405 174.602 324.718 174.602 329.001 174.602H330.105H341.881L354.613 174.499L367.198 174.352L379.607 174.175C379.68 171.953 379.754 169.759 379.813 167.493H381.491L361.046 167.861ZM361.046 167.861H358.97H354.702H341.925H329.046H316.755H316.107C316.107 168.7 316.107 169.553 316.107 170.392C316.107 171.349 316.107 172.306 316.107 173.248L316.505 173.631C316.372 173.778 316.24 173.895 316.107 174.028V174.602C320.405 174.602 324.718 174.602 329.001 174.602H330.105H341.881L354.613 174.499L367.198 174.352L379.607 174.175C379.68 171.953 379.754 169.759 379.813 167.493H381.491L361.046 167.861ZM361.046 167.861H358.97H354.702H341.925H329.046H316.755H316.107C316.107 168.7 316.107 169.553 316.107 170.392C316.107 171.349 316.107 172.306 316.107 173.248L316.505 173.631C316.372 173.778 316.24 173.895 316.107 174.028V174.602C320.405 174.602 324.718 174.602 329.001 174.602H330.105H341.881L354.613 174.499L367.198 174.352L379.607 174.175C379.68 171.953 379.754 169.759 379.813 167.493H381.491L361.046 167.861ZM361.046 167.861H358.97H354.702H341.925H329.046H316.755H316.107C316.107 168.7 316.107 169.553 316.107 170.392C316.107 171.349 316.107 172.306 316.107 173.248L316.505 173.631C316.372 173.778 316.24 173.895 316.107 174.028V174.602C320.405 174.602 324.718 174.602 329.001 174.602H330.105H341.881L354.613 174.499L367.198 174.352L379.607 174.175C379.68 171.953 379.754 169.759 379.813 167.493H381.491L361.046 167.861ZM361.046 167.861H358.97H354.702H341.925H329.046H316.755H316.107C316.107 168.7 316.107 169.553 316.107 170.392C316.107 171.349 316.107 172.306 316.107 173.248L316.505 173.631C316.372 173.778 316.24 173.895 316.107 174.028V174.602C320.405 174.602 324.718 174.602 329.001 174.602H330.105H341.881L354.613 174.499L367.198 174.352L379.607 174.175C379.68 171.953 379.754 169.759 379.813 167.493H381.491L361.046 167.861ZM361.046 167.861H358.97H354.702H341.925H329.046H316.755H316.107C316.107 168.7 316.107 169.553 316.107 170.392C316.107 171.349 316.107 172.306 316.107 173.248L316.505 173.631L316.092 174.028V174.617C320.391 174.617 324.703 174.617 328.987 174.617H330.091H341.866L354.599 174.514L367.184 174.366L379.592 174.19C379.666 171.967 379.739 169.774 379.798 167.507H381.476L361.046 167.861ZM361.046 167.861H358.97H354.702H341.925H329.046H316.755H316.107C316.107 168.7 316.107 169.553 316.107 170.392C316.107 171.349 316.107 172.306 316.107 173.248L316.505 173.631L316.092 174.028V174.617C320.391 174.617 324.703 174.617 328.987 174.617H330.091H341.866L354.599 174.514L367.184 174.366L379.592 174.19C379.666 171.967 379.739 169.774 379.798 167.507H381.476L361.046 167.861ZM379.769 167.654H381.447L361.046 167.89H358.97H354.702H341.925H329.046H316.755H316.107C316.107 168.729 316.107 169.583 316.107 170.422C316.107 171.378 316.107 172.335 316.107 173.277L316.505 173.66L316.092 174.057V174.646H312.663V177.428C312.663 199.316 312.663 220.041 312.545 237.498C334.183 237.498 355.806 236.983 376.442 236.026C377.502 227.916 378.429 219.114 379.18 209.811C379.342 207.78 379.504 205.734 379.651 203.658C380.343 194.164 380.873 184.243 381.241 174.087H379.563C379.636 172.114 379.71 169.892 379.769 167.654V167.654ZM381.535 112.707C381.535 111.706 381.535 110.705 381.462 109.763C381.344 106.171 381.226 102.624 381.079 99.106C359 98.6349 335.861 98.3847 312.648 98.37C312.648 119.787 312.648 142.528 312.648 164.607V168.17H313.266C313.541 168.184 313.816 168.184 314.091 168.17H314.738H327.029H339.909H352.685H356.954H359.029L379.43 167.934C381.977 149.491 382.006 130.797 381.535 112.707V112.707ZM361.046 167.861H358.97H354.702H341.925H329.046H316.755H316.107C316.107 168.7 316.107 169.553 316.107 170.392C316.107 171.349 316.107 172.306 316.107 173.248L316.505 173.631L316.092 174.028V174.617C320.391 174.617 324.703 174.617 328.987 174.617H330.091H341.866L354.599 174.514L367.184 174.366L379.592 174.19C379.666 171.967 379.739 169.774 379.798 167.507H381.476L361.046 167.861ZM361.046 167.861H358.97H354.702H341.925H329.046H316.755H316.107C316.107 168.7 316.107 169.553 316.107 170.392C316.107 171.349 316.107 172.306 316.107 173.248L316.505 173.631L316.092 174.028V174.617C320.391 174.617 324.703 174.617 328.987 174.617H330.091H341.866L354.599 174.514L367.184 174.366L379.592 174.19C379.666 171.967 379.739 169.774 379.798 167.507H381.476L361.046 167.861ZM361.046 167.861H358.97H354.702H341.925H329.046H316.755H316.107C316.107 168.7 316.107 169.553 316.107 170.392C316.107 171.349 316.107 172.306 316.107 173.248L316.505 173.631L316.092 174.028V174.617C320.391 174.617 324.703 174.617 328.987 174.617H330.091H341.866L354.599 174.514L367.184 174.366L379.592 174.19C379.666 171.967 379.739 169.774 379.798 167.507H381.476L361.046 167.861ZM361.046 167.861H358.97H354.702H341.925H329.046H316.755H316.107C316.107 168.7 316.107 169.553 316.107 170.392C316.107 171.349 316.107 172.306 316.107 173.248L316.505 173.631C316.372 173.778 316.24 173.895 316.107 174.028V174.602C320.405 174.602 324.718 174.602 329.001 174.602H330.105H341.881L354.613 174.499L367.198 174.352L379.607 174.175C379.68 171.953 379.754 169.759 379.813 167.493H381.491L361.046 167.861ZM361.046 167.861H358.97H354.702H341.925H329.046H316.755H316.107C316.107 168.7 316.107 169.553 316.107 170.392C316.107 171.349 316.107 172.306 316.107 173.248L316.505 173.631C316.372 173.778 316.24 173.895 316.107 174.028V174.602C320.405 174.602 324.718 174.602 329.001 174.602H330.105H341.881L354.613 174.499L367.198 174.352L379.607 174.175C379.68 171.953 379.754 169.759 379.813 167.493H381.491L361.046 167.861ZM361.046 167.861H358.97H354.702H341.925H329.046H316.755H316.107C316.107 168.7 316.107 169.553 316.107 170.392C316.107 171.349 316.107 172.306 316.107 173.248L316.505 173.631C316.372 173.778 316.24 173.895 316.107 174.028V174.602C320.405 174.602 324.718 174.602 329.001 174.602H330.105H341.881L354.613 174.499L367.198 174.352L379.607 174.175C379.68 171.953 379.754 169.759 379.813 167.493H381.491L361.046 167.861ZM361.046 167.861H358.97H354.702H341.925H329.046H316.755H316.107C316.107 168.7 316.107 169.553 316.107 170.392C316.107 171.349 316.107 172.306 316.107 173.248L316.505 173.631C316.372 173.778 316.24 173.895 316.107 174.028V174.602C320.405 174.602 324.718 174.602 329.001 174.602H330.105H341.881L354.613 174.499L367.198 174.352L379.607 174.175C379.68 171.953 379.754 169.759 379.813 167.493H381.491L361.046 167.861ZM361.046 167.861H358.97H354.702H341.925H329.046H316.755H316.107C316.107 168.7 316.107 169.553 316.107 170.392C316.107 171.349 316.107 172.306 316.107 173.248L316.505 173.631C316.372 173.778 316.24 173.895 316.107 174.028V174.602C320.405 174.602 324.718 174.602 329.001 174.602H330.105H341.881L354.613 174.499L367.198 174.352L379.607 174.175C379.68 171.953 379.754 169.759 379.813 167.493H381.491L361.046 167.861ZM361.046 167.861H358.97H354.702H341.925H329.046H316.755H316.107C316.107 168.7 316.107 169.553 316.107 170.392C316.107 171.349 316.107 172.306 316.107 173.248L316.505 173.631C316.372 173.778 316.24 173.895 316.107 174.028V174.602C320.405 174.602 324.718 174.602 329.001 174.602H330.105H341.881L354.613 174.499L367.198 174.352L379.607 174.175C379.68 171.953 379.754 169.759 379.813 167.493H381.491L361.046 167.861ZM361.046 167.861H358.97H354.702H341.925H329.046H316.755H316.107C316.107 168.7 316.107 169.553 316.107 170.392C316.107 171.349 316.107 172.306 316.107 173.248L316.505 173.631C316.372 173.778 316.24 173.895 316.107 174.028V174.602C320.405 174.602 324.718 174.602 329.001 174.602H330.105H341.881L354.613 174.499L367.198 174.352L379.607 174.175C379.68 171.953 379.754 169.759 379.813 167.493H381.491L361.046 167.861ZM447.537 169.332L447.272 166.212H447.11C430.36 166.771 411.592 167.213 391.706 167.522H387.894C387.894 166.212 387.982 164.887 388.012 163.562C388.6 142.131 388.424 120.052 387.482 99.1943H389.969L396.078 99.3562L409.325 99.7536C407.363 98.1934 405.346 96.7214 403.276 95.3378L403.084 95.014C402.098 94.3516 401.112 93.7039 400.14 93.0857H399.846L393.384 92.8796L387.232 92.7177C387.114 90.5245 386.996 88.3019 386.864 86.197C384.715 85.2157 382.526 84.3424 380.299 83.5769C380.475 86.5208 380.637 89.5138 380.784 92.5558C358.838 92.0112 335.758 91.7315 312.648 91.7168C312.648 88.7729 312.648 85.829 312.648 82.8851C310.352 83.6505 308.085 84.519 305.862 85.4463C305.862 87.507 305.862 89.5678 305.862 91.6579H293.439C290.003 93.6821 286.69 95.9086 283.518 98.3258C290.878 98.3258 298.385 98.2375 305.848 98.2228C305.774 120.788 305.759 144.839 305.848 167.964C285.417 167.964 265.075 167.816 245.498 167.566H243.687C243.408 169.759 243.216 171.982 243.084 174.234C243.952 174.234 244.836 174.234 245.719 174.234C256.832 174.411 268.21 174.543 279.735 174.617H283.71H290.451H297.09H305.804C305.804 197.535 305.995 219.276 306.172 237.454C290.613 237.454 275.084 237.101 259.967 236.556C261.159 238.381 262.411 240.162 263.75 241.899C277.675 242.4 291.923 242.665 306.186 242.709C306.333 255.956 306.525 266.981 306.746 274.797V275.239C308.571 275.994 310.425 276.686 312.31 277.314V277.094C312.398 269.219 312.457 257.384 312.501 242.93C333.888 242.93 355.261 242.4 375.677 241.458C375.157 245.02 374.597 248.41 373.999 251.629C373.822 252.659 373.631 253.66 373.439 254.646C371.29 265.686 368.714 274.473 365.726 280.082C353.863 280.729 341.719 281.171 329.502 281.362C334.756 282.18 340.066 282.588 345.384 282.584C352.976 282.594 360.544 281.755 367.949 280.082L369.097 279.817L371.114 279.331C375.441 271.53 378.974 258.076 381.682 241.134C398.933 240.192 415.419 238.897 430.566 237.263H430.919C432.067 235.541 433.171 233.789 434.216 231.993H433.877C418.039 233.686 400.685 234.937 382.462 235.953C385.237 215.446 386.981 194.813 387.688 174.131C408.001 173.748 427.195 173.218 444.372 172.527H445.668L447.787 172.438C447.728 171.393 447.64 170.333 447.537 169.259V169.332Z" fill="#5FBE3F"/>
<path opacity="0.8" d="M361.046 167.861H358.97H354.702H341.925H329.046H316.755H316.107C316.107 168.7 316.107 169.553 316.107 170.392C316.107 171.349 316.107 172.306 316.107 173.248L316.505 173.631C316.372 173.778 316.24 173.895 316.107 174.028V174.602C320.405 174.602 324.718 174.602 329.001 174.602H330.105H341.881L354.613 174.499L367.198 174.352L379.607 174.175C379.681 171.953 379.754 169.759 379.813 167.493H381.491L361.046 167.861ZM448.023 176.692C448.023 176.339 448.023 175.971 448.023 175.618C448.023 176.03 447.949 176.442 447.92 176.854C447.096 187.393 445.918 197.653 444.387 207.367C446.867 198.433 448.12 189.203 448.111 179.93C448.082 178.841 448.067 177.767 448.023 176.692ZM361.046 167.861H358.97H354.702H341.925H329.046H316.755H316.107C316.107 168.7 316.107 169.553 316.107 170.392C316.107 171.349 316.107 172.306 316.107 173.248L316.505 173.631C316.372 173.778 316.24 173.895 316.107 174.028V174.602C320.405 174.602 324.718 174.602 329.001 174.602H330.105H341.881L354.613 174.499L367.198 174.352L379.607 174.175C379.681 171.953 379.754 169.759 379.813 167.493H381.491L361.046 167.861ZM361.046 167.861H358.97H354.702H341.925H329.046H316.755H316.107C316.107 168.7 316.107 169.553 316.107 170.392C316.107 171.349 316.107 172.306 316.107 173.248L316.505 173.631C316.372 173.778 316.24 173.895 316.107 174.028V174.602C320.405 174.602 324.718 174.602 329.001 174.602H330.105H341.881L354.613 174.499L367.198 174.352L379.607 174.175C379.681 171.953 379.754 169.759 379.813 167.493H381.491L361.046 167.861ZM361.046 167.861H358.97H354.702H341.925H329.046H316.755H316.107C316.107 168.7 316.107 169.553 316.107 170.392C316.107 171.349 316.107 172.306 316.107 173.248L316.505 173.631C316.372 173.778 316.24 173.895 316.107 174.028V174.602C320.405 174.602 324.718 174.602 329.001 174.602H330.105H341.881L354.613 174.499L367.198 174.352L379.607 174.175C379.681 171.953 379.754 169.759 379.813 167.493H381.491L361.046 167.861ZM361.046 167.861H358.97H354.702H341.925H329.046H316.755H316.107C316.107 168.7 316.107 169.553 316.107 170.392C316.107 171.349 316.107 172.306 316.107 173.248L316.505 173.631C316.372 173.778 316.24 173.895 316.107 174.028V174.602C320.405 174.602 324.718 174.602 329.001 174.602H330.105H341.881L354.613 174.499L367.198 174.352L379.607 174.175C379.681 171.953 379.754 169.759 379.813 167.493H381.491L361.046 167.861ZM361.046 167.861H358.97H354.702H341.925H329.046H316.755H316.107C316.107 168.7 316.107 169.553 316.107 170.392C316.107 171.349 316.107 172.306 316.107 173.248L316.505 173.631C316.372 173.778 316.24 173.895 316.107 174.028V174.602C320.405 174.602 324.718 174.602 329.001 174.602H330.105H341.881L354.613 174.499L367.198 174.352L379.607 174.175C379.681 171.953 379.754 169.759 379.813 167.493H381.491L361.046 167.861ZM361.046 167.861H358.97H354.702H341.925H329.046H316.755H316.107C316.107 168.7 316.107 169.553 316.107 170.392C316.107 171.349 316.107 172.306 316.107 173.248L316.505 173.631C316.372 173.778 316.24 173.895 316.107 174.028V174.602C320.405 174.602 324.718 174.602 329.001 174.602H330.105H341.881L354.613 174.499L367.198 174.352L379.607 174.175C379.681 171.953 379.754 169.759 379.813 167.493H381.491L361.046 167.861ZM361.046 167.861H358.97H354.702H341.925H329.046H316.755H316.107C316.107 168.7 316.107 169.553 316.107 170.392C316.107 171.349 316.107 172.306 316.107 173.248L316.505 173.631C316.372 173.778 316.24 173.895 316.107 174.028V174.602C320.405 174.602 324.718 174.602 329.001 174.602H330.105H341.881L354.613 174.499L367.198 174.352L379.607 174.175C379.681 171.953 379.754 169.759 379.813 167.493H381.491L361.046 167.861ZM361.046 167.861H358.97H354.702H341.925H329.046H316.755H316.107C316.107 168.7 316.107 169.553 316.107 170.392C316.107 171.349 316.107 172.306 316.107 173.248L316.505 173.631L316.092 174.028V174.617C320.391 174.617 324.703 174.617 328.987 174.617H330.091H341.866L354.599 174.514L367.184 174.366L379.592 174.19C379.666 171.967 379.739 169.774 379.798 167.507H381.476L361.046 167.861ZM361.046 167.861H358.97H354.702H341.925H329.046H316.755H316.107C316.107 168.7 316.107 169.553 316.107 170.392C316.107 171.349 316.107 172.306 316.107 173.248L316.505 173.631L316.092 174.028V174.617C320.391 174.617 324.703 174.617 328.987 174.617H330.091H341.866L354.599 174.514L367.184 174.366L379.592 174.19C379.666 171.967 379.739 169.774 379.798 167.507H381.476L361.046 167.861ZM361.046 167.861H358.97H354.702H341.925H329.046H316.755H316.107C316.107 168.7 316.107 169.553 316.107 170.392C316.107 171.349 316.107 172.306 316.107 173.248L316.505 173.631L316.092 174.028V174.617C320.391 174.617 324.703 174.617 328.987 174.617H330.091H341.866L354.599 174.514L367.184 174.366L379.592 174.19C379.666 171.967 379.739 169.774 379.798 167.507H381.476L361.046 167.861ZM361.046 167.861H358.97H354.702H341.925H329.046H316.755H316.107C316.107 168.7 316.107 169.553 316.107 170.392C316.107 171.349 316.107 172.306 316.107 173.248L316.505 173.631L316.092 174.028V174.617C320.391 174.617 324.703 174.617 328.987 174.617H330.091H341.866L354.599 174.514L367.184 174.366L379.592 174.19C379.666 171.967 379.739 169.774 379.798 167.507H381.476L361.046 167.861ZM361.046 167.861H358.97H354.702H341.925H329.046H316.755H316.107C316.107 168.7 316.107 169.553 316.107 170.392C316.107 171.349 316.107 172.306 316.107 173.248L316.505 173.631L316.092 174.028V174.617C320.391 174.617 324.703 174.617 328.987 174.617H330.091H341.866L354.599 174.514L367.184 174.366L379.592 174.19C379.666 171.967 379.739 169.774 379.798 167.507H381.476L361.046 167.861ZM361.046 167.861H358.97H354.702H341.925H329.046H316.755H316.107C316.107 168.7 316.107 169.553 316.107 170.392C316.107 171.349 316.107 172.306 316.107 173.248L316.505 173.631L316.092 174.028V174.617C320.391 174.617 324.703 174.617 328.987 174.617H330.091H341.866L354.599 174.514L367.184 174.366L379.592 174.19C379.666 171.967 379.739 169.774 379.798 167.507H381.476L361.046 167.861ZM361.046 167.861H358.97H354.702H341.925H329.046H316.755H316.107C316.107 168.7 316.107 169.553 316.107 170.392C316.107 171.349 316.107 172.306 316.107 173.248L316.505 173.631C316.372 173.778 316.24 173.895 316.107 174.028V174.602C320.405 174.602 324.718 174.602 329.001 174.602H330.105H341.881L354.613 174.499L367.198 174.352L379.607 174.175C379.681 171.953 379.754 169.759 379.813 167.493H381.491L361.046 167.861ZM361.046 167.861H358.97H354.702H341.925H329.046H316.755H316.107C316.107 168.7 316.107 169.553 316.107 170.392C316.107 171.349 316.107 172.306 316.107 173.248L316.505 173.631C316.372 173.778 316.24 173.895 316.107 174.028V174.602C320.405 174.602 324.718 174.602 329.001 174.602H330.105H341.881L354.613 174.499L367.198 174.352L379.607 174.175C379.681 171.953 379.754 169.759 379.813 167.493H381.491L361.046 167.861ZM361.046 167.861H358.97H354.702H341.925H329.046H316.755H316.107C316.107 168.7 316.107 169.553 316.107 170.392C316.107 171.349 316.107 172.306 316.107 173.248L316.505 173.631C316.372 173.778 316.24 173.895 316.107 174.028V174.602C320.405 174.602 324.718 174.602 329.001 174.602H330.105H341.881L354.613 174.499L367.198 174.352L379.607 174.175C379.681 171.953 379.754 169.759 379.813 167.493H381.491L361.046 167.861ZM361.046 167.861H358.97H354.702H341.925H329.046H316.755H316.107C316.107 168.7 316.107 169.553 316.107 170.392C316.107 171.349 316.107 172.306 316.107 173.248L316.505 173.631C316.372 173.778 316.24 173.895 316.107 174.028V174.602C320.405 174.602 324.718 174.602 329.001 174.602H330.105H341.881L354.613 174.499L367.198 174.352L379.607 174.175C379.681 171.953 379.754 169.759 379.813 167.493H381.491L361.046 167.861ZM361.046 167.861H358.97H354.702H341.925H329.046H316.755H316.107C316.107 168.7 316.107 169.553 316.107 170.392C316.107 171.349 316.107 172.306 316.107 173.248L316.505 173.631C316.372 173.778 316.24 173.895 316.107 174.028V174.602C320.405 174.602 324.718 174.602 329.001 174.602H330.105H341.881L354.613 174.499L367.198 174.352L379.607 174.175C379.681 171.953 379.754 169.759 379.813 167.493H381.491L361.046 167.861ZM361.046 167.861H358.97H354.702H341.925H329.046H316.755H316.107C316.107 168.7 316.107 169.553 316.107 170.392C316.107 171.349 316.107 172.306 316.107 173.248L316.505 173.631C316.372 173.778 316.24 173.895 316.107 174.028V174.602C320.405 174.602 324.718 174.602 329.001 174.602H330.105H341.881L354.613 174.499L367.198 174.352L379.607 174.175C379.681 171.953 379.754 169.759 379.813 167.493H381.491L361.046 167.861ZM361.046 167.861H358.97H354.702H341.925H329.046H316.755H316.107C316.107 168.7 316.107 169.553 316.107 170.392C316.107 171.349 316.107 172.306 316.107 173.248L316.505 173.631C316.372 173.778 316.24 173.895 316.107 174.028V174.602C320.405 174.602 324.718 174.602 329.001 174.602H330.105H341.881L354.613 174.499L367.198 174.352L379.607 174.175C379.681 171.953 379.754 169.759 379.813 167.493H381.491L361.046 167.861ZM447.537 169.332L447.272 166.212H447.11C430.36 166.771 411.592 167.213 391.706 167.522H387.894C387.894 166.212 387.982 164.887 388.012 163.562C388.6 142.131 388.424 120.052 387.482 99.1943H389.969L396.078 99.3562L409.325 99.7536C407.363 98.1934 405.346 96.7214 403.276 95.3378L403.084 95.014C402.098 94.3516 401.112 93.7039 400.141 93.0857H399.846L393.384 92.8796L387.232 92.7177C387.114 90.5245 386.996 88.3019 386.864 86.197C384.715 85.2157 382.526 84.3424 380.299 83.5769C380.475 86.5208 380.637 89.5138 380.784 92.5558C358.838 92.0112 335.758 91.7315 312.648 91.7168C312.648 88.7729 312.648 85.829 312.648 82.8851C310.352 83.6505 308.085 84.519 305.862 85.4463C305.862 87.507 305.862 89.5678 305.862 91.6579H293.439C290.003 93.6821 286.69 95.9086 283.518 98.3258C290.878 98.3258 298.385 98.2375 305.848 98.2228C305.774 120.788 305.759 144.839 305.848 167.964C285.417 167.964 265.075 167.816 245.498 167.566H243.687C243.408 169.759 243.216 171.982 243.084 174.234C243.952 174.234 244.836 174.234 245.719 174.234C256.832 174.411 268.21 174.543 279.735 174.617H283.71H290.451H297.09H305.804C305.804 197.535 305.995 219.276 306.172 237.454C290.613 237.454 275.084 237.101 259.967 236.556C261.159 238.381 262.411 240.162 263.75 241.899C277.675 242.4 291.923 242.665 306.186 242.709C306.333 255.956 306.525 266.981 306.746 274.797V275.239C308.571 275.994 310.425 276.686 312.31 277.314V277.094C312.398 269.219 312.457 257.384 312.501 242.93C333.888 242.93 355.261 242.4 375.677 241.458C375.157 245.02 374.597 248.41 373.999 251.629C373.822 252.659 373.631 253.66 373.439 254.646C371.29 265.686 368.714 274.473 365.726 280.082C353.863 280.729 341.719 281.171 329.502 281.362C334.756 282.18 340.066 282.588 345.384 282.584C352.976 282.594 360.544 281.755 367.949 280.082L369.097 279.817L371.114 279.331C375.441 271.53 378.974 258.076 381.682 241.134C398.934 240.192 415.419 238.897 430.566 237.263H430.919C432.067 235.541 433.171 233.789 434.216 231.993H433.878C418.039 233.686 400.685 234.937 382.462 235.953C385.237 215.446 386.982 194.813 387.688 174.131C408.001 173.748 427.195 173.218 444.372 172.527H445.668L447.787 172.438C447.728 171.393 447.64 170.333 447.537 169.259V169.332ZM379.651 203.923C379.504 205.999 379.342 208.045 379.18 210.076C378.429 219.379 377.502 228.181 376.442 236.291C355.835 237.263 334.183 237.763 312.545 237.763C312.545 220.306 312.633 199.581 312.663 177.693V174.911H316.107C320.405 174.911 324.718 174.911 329.001 174.911H330.105H341.881L354.613 174.808L367.198 174.661L379.607 174.484H381.285C380.873 184.464 380.343 194.385 379.651 203.879V203.923ZM381.447 167.669L361.046 167.905H358.97H354.702H341.925H329.046H316.755H316.107C315.833 167.919 315.557 167.919 315.283 167.905H314.635V164.343C314.635 142.263 314.635 119.566 314.635 98.105C337.848 98.105 361.031 98.37 383.066 98.841C383.213 102.359 383.331 105.906 383.449 109.498C383.449 110.484 383.449 111.485 383.522 112.442C382.006 130.797 381.977 149.491 381.447 167.625V167.669Z" fill="white"/>
<path d="M381.243 174.308C380.875 184.464 380.345 194.385 379.653 203.879C379.506 205.955 379.344 208.001 379.182 210.032C378.431 219.335 377.504 228.137 376.444 236.247C355.837 237.219 334.184 237.719 312.547 237.719C312.547 220.262 312.635 199.537 312.665 177.649V174.867H316.109C320.407 174.867 324.72 174.867 329.003 174.867H330.107H341.883L354.615 174.764L367.2 174.617L379.609 174.44L381.243 174.308Z" fill="#5FBE3F"/>
<path d="M381.446 167.625L361.045 167.861H358.97H354.701H341.925H329.045H316.754H316.107C315.832 167.876 315.557 167.876 315.282 167.861H314.635V164.299C314.635 142.22 314.635 119.522 314.635 98.0613C337.847 98.0613 361.03 98.3262 383.065 98.7973C383.213 102.315 383.33 105.863 383.448 109.454C383.448 110.44 383.448 111.441 383.522 112.398C382.006 130.797 381.976 149.491 381.446 167.625Z" fill="#5FBE3F"/>
<path d="M312.325 173.881L306.775 169.082L312.325 164.255L317.874 169.082L312.325 173.881Z" fill="#263238"/>
<path d="M403.379 95.3676L403.187 95.0437C402.201 94.3814 401.215 93.7337 400.243 93.1155C399.272 92.4973 398.256 91.8643 397.3 91.2903H397.123L393.531 92.7622L392.265 93.3069L387.923 97.2222L390.102 99.1358L393.296 101.962L396.24 99.2977L396.858 98.7383L403.791 95.7944L403.379 95.3676ZM381.461 109.719L377.752 106.437C374.337 109.518 370.859 112.629 367.316 115.769L372.777 120.685L381.535 112.781L383.169 111.309L381.461 109.719ZM356.6 125.307L345.678 134.992L351.184 139.864C354.854 136.626 358.489 133.398 362.091 130.179L356.6 125.307ZM334.609 144.751L323.467 154.54L329.001 159.397L340.129 149.638L334.609 144.751Z" fill="#263238"/>
<g opacity="0.5">
<path opacity="0.5" d="M424.78 130.12H418.995L413.255 136.273L417.568 140.983C418.892 139.511 420.202 138.039 421.498 136.685H424.78C424.824 134.507 424.81 132.314 424.78 130.12ZM405.012 145.164C402.205 148.108 399.355 151.105 396.46 154.157C397.952 155.727 399.424 157.292 400.876 158.853C403.761 155.85 406.602 152.857 409.398 149.874C407.926 148.314 406.484 146.739 405.012 145.164ZM329.045 168.052C329.045 170.319 329.045 172.586 329.045 174.838H330.149H341.924C341.924 172.601 341.924 170.334 342.013 168.067L329.045 168.052ZM361.045 167.861H358.97H354.701C354.701 170.128 354.613 172.365 354.568 174.603L367.154 174.455C367.227 172.233 367.286 170.04 367.33 167.743L361.045 167.861ZM391.764 167.478L388.07 163.578L387.702 163.195C386.23 164.667 384.758 166.139 383.36 167.611H381.446H379.768C379.768 169.848 379.636 172.027 379.562 174.293H381.24L385.818 174.22L392.118 167.846L391.764 167.478Z" fill="black"/>
<path opacity="0.5" d="M316.106 174.883H309.232V168.082H316.106C316.106 170.364 316.106 172.616 316.106 174.883Z" fill="black"/>
<g opacity="0.2">
<path opacity="0.2" d="M424.78 130.12H418.995L413.255 136.273L417.568 140.983C418.892 139.511 420.202 138.039 421.498 136.685H424.78C424.824 134.507 424.81 132.314 424.78 130.12ZM405.012 145.164C402.205 148.108 399.355 151.105 396.46 154.157C397.952 155.727 399.424 157.292 400.876 158.853C403.761 155.85 406.602 152.857 409.398 149.874C407.926 148.314 406.484 146.739 405.012 145.164ZM329.045 168.052C329.045 170.319 329.045 172.586 329.045 174.838H330.149H341.924C341.924 172.601 341.924 170.334 342.013 168.067L329.045 168.052ZM361.045 167.861H358.97H354.701C354.701 170.128 354.613 172.365 354.568 174.603L367.154 174.455C367.227 172.233 367.286 170.04 367.33 167.743L361.045 167.861ZM391.764 167.478L388.07 163.578L387.702 163.195C386.23 164.667 384.758 166.139 383.36 167.611H381.446H379.768C379.768 169.848 379.636 172.027 379.562 174.293H381.24L385.818 174.22L392.118 167.846L391.764 167.478Z" fill="black"/>
<path opacity="0.2" d="M316.106 174.883H309.232V168.082H316.106C316.106 170.364 316.106 172.616 316.106 174.883Z" fill="black"/>
</g>
</g>
<g opacity="0.3">
<path opacity="0.3" d="M311.691 178.665L306.834 173.881L311.691 169.083L316.549 173.881L311.691 178.665Z" fill="black"/>
<path opacity="0.3" d="M447.994 175.618C447.994 175.529 447.994 175.441 447.994 175.353L445.639 172.527C445.448 172.291 445.257 172.041 445.05 171.805L444.344 172.586C441.709 175.529 439.001 178.473 436.263 181.417C437.47 182.889 438.648 184.229 439.81 185.627C442.533 182.683 445.227 179.739 447.832 176.795C447.885 176.749 447.93 176.694 447.965 176.633C448.024 176.339 448.009 175.971 447.994 175.618ZM326.5 183.713L321.643 188.424C324.94 191.633 328.207 194.802 331.446 197.932L336.303 193.325C333.065 190.165 329.797 186.962 326.5 183.713ZM427.181 190.97C424.08 194.159 420.911 197.324 417.672 200.464C418.909 201.818 420.116 203.173 421.308 204.512C424.487 201.392 427.623 198.256 430.714 195.106L427.181 190.97ZM347.932 204.586L345.856 202.569L341.013 207.088L344.943 210.841L355.556 210.65C355.659 208.604 355.762 206.529 355.865 204.438L347.932 204.586ZM379.652 203.82C376.266 203.938 372.837 204.041 369.348 204.129C369.216 206.205 369.083 208.266 368.936 210.297C372.361 210.208 375.756 210.101 379.122 209.973L382.154 209.87C382.331 207.839 382.493 205.793 382.655 203.732C381.698 203.82 380.682 203.864 379.652 203.879V203.82ZM395.726 203.246C395.549 205.307 395.358 207.338 395.152 209.34C399.405 209.163 403.615 208.957 407.751 208.737C407.972 206.735 408.193 204.718 408.399 202.687C404.233 202.952 400.009 203.114 395.726 203.305V203.246Z" fill="black"/>
<g opacity="0.3">
<path opacity="0.3" d="M311.691 178.665L306.834 173.881L311.691 169.083L316.549 173.881L311.691 178.665Z" fill="black"/>
<path opacity="0.3" d="M447.994 175.618C447.994 175.529 447.994 175.441 447.994 175.353L445.639 172.527C445.448 172.291 445.257 172.041 445.05 171.805L444.344 172.586C441.709 175.529 439.001 178.473 436.263 181.417C437.47 182.889 438.648 184.229 439.81 185.627C442.533 182.683 445.227 179.739 447.832 176.795C447.885 176.749 447.93 176.694 447.965 176.633C448.024 176.339 448.009 175.971 447.994 175.618ZM326.5 183.713L321.643 188.424C324.94 191.633 328.207 194.802 331.446 197.932L336.303 193.325C333.065 190.165 329.797 186.962 326.5 183.713ZM427.181 190.97C424.08 194.159 420.911 197.324 417.672 200.464C418.909 201.818 420.116 203.173 421.308 204.512C424.487 201.392 427.623 198.256 430.714 195.106L427.181 190.97ZM347.932 204.586L345.856 202.569L341.013 207.088L344.943 210.841L355.556 210.65C355.659 208.604 355.762 206.529 355.865 204.438L347.932 204.586ZM379.652 203.82C376.266 203.938 372.837 204.041 369.348 204.129C369.216 206.205 369.083 208.266 368.936 210.297C372.361 210.208 375.756 210.101 379.122 209.973L382.154 209.87C382.331 207.839 382.493 205.793 382.655 203.732C381.698 203.82 380.682 203.864 379.652 203.879V203.82ZM395.726 203.246C395.549 205.307 395.358 207.338 395.152 209.34C399.405 209.163 403.615 208.957 407.751 208.737C407.972 206.735 408.193 204.718 408.399 202.687C404.233 202.952 400.009 203.114 395.726 203.305V203.246Z" fill="black"/>
</g>
</g>
<path d="M375.959 260.328C375.635 261.727 375.282 263.051 374.928 264.347V264.626L374.575 265.907C374.133 267.467 373.692 268.954 373.221 270.323C373.132 270.529 373.074 270.735 373 270.941L372.735 271.706C372.661 271.957 372.558 272.207 372.47 272.457C372.355 272.817 372.223 273.171 372.073 273.517C371.454 275.151 370.822 276.638 370.159 277.933C369.894 278.492 369.615 279.022 369.335 279.537L369.202 279.729L368.054 279.994C360.65 281.667 353.081 282.506 345.489 282.496C340.172 282.5 334.862 282.092 329.607 281.274C326.292 280.764 323.006 280.086 319.76 279.243C319.76 278.742 319.76 278.227 319.863 277.683C319.966 277.138 319.951 276.299 319.995 275.563C320.039 274.827 320.084 274.091 320.128 273.267C320.172 272.442 320.216 271.648 320.246 270.794C320.246 270.367 320.246 269.94 320.246 269.499C320.349 267.202 320.452 264.715 320.555 262.051C320.672 258.017 325.618 254.293 331.594 254.205C343.649 253.999 355.587 253.631 367.274 253.086C369.448 252.907 371.623 253.422 373.486 254.558C374.48 255.11 375.262 255.976 375.71 257.02C376.157 258.065 376.245 259.229 375.959 260.328V260.328Z" fill="#5FBE3F"/>
<g opacity="0.3">
<path opacity="0.3" d="M375.959 260.328C375.635 261.727 375.282 263.051 374.928 264.347V264.626L374.575 265.907C374.133 267.467 373.692 268.954 373.221 270.323C373.132 270.529 373.074 270.735 373 270.941L372.735 271.706C372.661 271.957 372.558 272.207 372.47 272.457C372.355 272.817 372.223 273.171 372.073 273.517C371.454 275.151 370.822 276.638 370.159 277.933C369.894 278.492 369.615 279.022 369.335 279.537L369.202 279.729L368.054 279.994C360.65 281.667 353.081 282.506 345.489 282.496C340.172 282.5 334.862 282.092 329.607 281.274C326.292 280.764 323.006 280.086 319.76 279.243C319.76 278.742 319.76 278.227 319.863 277.683C319.966 277.138 319.951 276.299 319.995 275.563C320.039 274.827 320.084 274.091 320.128 273.267C320.172 272.442 320.216 271.648 320.246 270.794C320.246 270.367 320.246 269.94 320.246 269.499C320.349 267.202 320.452 264.715 320.555 262.051C320.672 258.017 325.618 254.293 331.594 254.205C343.649 253.999 355.587 253.631 367.274 253.086C369.448 252.907 371.623 253.422 373.486 254.558C374.48 255.11 375.262 255.976 375.71 257.02C376.157 258.065 376.245 259.229 375.959 260.328V260.328Z" fill="black"/>
</g>
<path d="M376.606 257.576C376.4 258.518 376.179 259.445 375.959 260.343C375.635 261.742 375.282 263.066 374.928 264.362V264.641L374.575 265.922C374.133 267.482 373.692 268.969 373.221 270.338C373.059 270.809 372.912 271.265 372.735 271.721C372.558 272.178 372.558 272.222 372.47 272.472C372.355 272.832 372.223 273.186 372.073 273.532C371.454 275.166 370.822 276.652 370.159 277.948C369.66 278.815 368.932 279.528 368.054 280.009C360.65 281.682 353.081 282.521 345.489 282.511C340.172 282.515 334.862 282.107 329.607 281.289C326.292 280.779 323.006 280.101 319.76 279.258C319.76 278.757 319.76 278.242 319.863 277.698C319.966 277.153 319.951 276.314 319.995 275.578C320.039 274.842 320.084 274.106 320.128 273.282C320.172 272.457 320.216 271.663 320.246 270.809C320.246 270.382 320.246 269.955 320.246 269.514C320.349 267.217 320.452 264.73 320.555 262.066C320.555 261.153 320.584 260.226 320.643 259.284C320.761 255.088 325.751 251.232 331.786 251.144C343.929 250.938 355.984 250.57 367.775 250.025C369.968 249.844 372.162 250.359 374.045 251.497V251.497C375.075 252.094 375.882 253.011 376.344 254.108C376.806 255.204 376.898 256.422 376.606 257.576Z" fill="#5FBE3F"/>
<g opacity="0.8">
<path opacity="0.8" d="M376.606 257.576C376.4 258.518 376.179 259.445 375.959 260.343C375.635 261.742 375.282 263.066 374.928 264.362V264.641L374.575 265.922C374.133 267.482 373.692 268.969 373.221 270.338C373.059 270.809 372.912 271.265 372.735 271.721C372.558 272.178 372.558 272.222 372.47 272.472C372.355 272.832 372.223 273.186 372.073 273.532C371.454 275.166 370.822 276.652 370.159 277.948C369.66 278.815 368.932 279.528 368.054 280.009C360.65 281.682 353.081 282.521 345.489 282.511C340.172 282.515 334.862 282.107 329.607 281.289C326.292 280.779 323.006 280.101 319.76 279.258C319.76 278.757 319.76 278.242 319.863 277.698C319.966 277.153 319.951 276.314 319.995 275.578C320.039 274.842 320.084 274.106 320.128 273.282C320.172 272.457 320.216 271.663 320.246 270.809C320.246 270.382 320.246 269.955 320.246 269.514C320.349 267.217 320.452 264.73 320.555 262.066C320.555 261.153 320.584 260.226 320.643 259.284C320.761 255.088 325.751 251.232 331.786 251.144C343.929 250.938 355.984 250.57 367.775 250.025C369.968 249.844 372.162 250.359 374.045 251.497V251.497C375.075 252.094 375.882 253.011 376.344 254.108C376.806 255.204 376.898 256.422 376.606 257.576Z" fill="white"/>
</g>
<path d="M346.328 274.459C346.917 271.78 347.491 268.733 348.021 265.362C348.183 264.69 348.15 263.985 347.926 263.331C347.702 262.676 347.295 262.099 346.755 261.668C345.244 260.685 343.44 260.253 341.647 260.446C339.731 260.39 337.841 260.902 336.216 261.918C335.59 262.347 335.067 262.911 334.688 263.568C334.308 264.225 334.081 264.959 334.022 265.716C333.689 269.091 333.335 272.119 332.963 274.798C332.847 275.323 332.91 275.872 333.142 276.357C333.374 276.843 333.762 277.237 334.243 277.477C335.712 278.131 337.324 278.394 338.924 278.242C339.498 278.242 340.043 278.242 340.543 278.139C341.044 278.036 341.529 278.007 342.015 277.918C342.329 278.248 342.743 278.465 343.193 278.536C343.942 278.693 344.71 278.747 345.474 278.698H346.048C346.225 278.095 346.401 277.462 346.563 276.799H346.181C345.916 276.817 345.651 276.817 345.386 276.799C345.312 276.788 345.241 276.759 345.18 276.716C345.118 276.673 345.068 276.615 345.033 276.549C345.689 276.019 346.145 275.282 346.328 274.459ZM343.458 265.304C342.972 268.822 342.457 271.986 341.912 274.753C341.875 275.002 341.778 275.238 341.629 275.441C341.48 275.643 341.284 275.807 341.058 275.916C340.524 276.166 339.941 276.292 339.351 276.284C338.805 276.337 338.256 276.241 337.761 276.005C337.575 275.89 337.433 275.715 337.358 275.51C337.283 275.304 337.28 275.079 337.349 274.871C337.82 272.119 338.262 268.983 338.674 265.436C338.693 265.145 338.777 264.861 338.919 264.607C339.062 264.352 339.26 264.133 339.498 263.964C340.043 263.634 340.671 263.466 341.309 263.478C341.902 263.413 342.499 263.553 343.001 263.876C343.198 264.051 343.344 264.276 343.425 264.527C343.505 264.778 343.516 265.047 343.458 265.304Z" fill="black"/>
<path d="M363.606 261.006C362.174 260.037 360.433 259.633 358.72 259.872C356.807 259.851 354.932 260.399 353.332 261.447C352.703 261.891 352.17 262.458 351.765 263.113C351.36 263.768 351.092 264.498 350.977 265.26C350.874 265.893 350.756 266.511 350.653 267.114L354.937 266.952C355.069 266.275 355.202 265.598 355.334 264.892C355.38 264.598 355.484 264.316 355.641 264.063C355.798 263.81 356.004 263.592 356.247 263.42C356.796 263.084 357.428 262.905 358.072 262.905C358.647 262.837 359.226 262.978 359.706 263.302C360.074 263.596 360.162 264.2 359.985 265.068C359.804 265.964 359.399 266.8 358.808 267.497C358.204 268.21 357.511 268.843 356.747 269.381C355.953 269.962 355.128 270.497 354.274 270.986C353.434 271.459 352.619 271.975 351.831 272.531C351.102 273.018 350.43 273.586 349.829 274.224C349.29 274.763 348.899 275.432 348.696 276.167C348.548 276.77 348.387 277.344 348.225 277.889C352.346 277.742 356.438 277.565 360.501 277.359C360.751 276.726 360.986 276.049 361.222 275.343C358.528 275.475 355.82 275.608 353.097 275.711C353.117 275.459 353.191 275.215 353.312 274.994C353.434 274.774 353.602 274.581 353.803 274.43C354.382 273.936 355.003 273.493 355.658 273.105C356.404 272.634 357.243 272.144 358.175 271.633C359.112 271.09 360.012 270.485 360.869 269.823C361.714 269.174 362.479 268.428 363.15 267.6C363.828 266.782 364.298 265.813 364.519 264.774C364.755 264.126 364.794 263.422 364.632 262.752C364.469 262.082 364.113 261.474 363.606 261.006V261.006Z" fill="black"/>
<path d="M309.218 168.082V174.882H305.804H297.09H290.451H283.71H279.735C268.21 174.809 256.832 174.676 245.719 174.5C244.836 174.5 243.952 174.5 243.084 174.5C243.216 172.262 243.408 170.084 243.687 167.832H245.454C264.972 168.082 285.314 168.2 305.804 168.229L309.218 168.082Z" fill="#263238"/>
<path d="M309.219 178.842C313.211 178.842 316.447 175.606 316.447 171.614C316.447 167.623 313.211 164.387 309.219 164.387C305.228 164.387 301.992 167.623 301.992 171.614C301.992 175.606 305.228 178.842 309.219 178.842Z" fill="#263238"/>
<path opacity="0.2" d="M448.215 180.049C448.191 205.055 439.019 229.188 422.427 247.897C405.836 266.606 382.972 278.598 358.147 281.61C333.323 284.623 308.255 278.448 287.67 264.25C267.085 250.052 252.407 228.813 246.403 204.538C240.4 180.263 243.486 154.63 255.08 132.474C266.674 110.318 285.975 93.1699 309.341 84.2641C332.708 75.3583 358.526 75.3103 381.925 84.1291C405.325 92.9478 424.689 110.024 436.366 132.137C444.152 146.906 448.22 163.352 448.215 180.049V180.049Z" fill="white"/>
<path opacity="0.2" d="M448.215 180.048C448.215 207.278 437.398 233.392 418.144 252.646C398.89 271.9 372.776 282.716 345.547 282.716L448.215 180.048Z" fill="white"/>
<path opacity="0.2" d="M245.733 204.115C241.539 186.624 242.009 168.34 247.096 151.088C252.183 133.836 261.708 118.221 274.72 105.804C287.732 93.3862 303.774 84.6011 321.245 80.3262C338.716 76.0513 357.003 76.4363 374.278 81.4428L245.733 204.115Z" fill="white"/>
<path opacity="0.2" d="M436.365 132.136L294.882 269.351C286.357 264.499 278.57 258.451 271.758 251.393L418.555 107.879C425.655 115.043 431.657 123.217 436.365 132.136V132.136Z" fill="white"/>
<path d="M404.527 283.791L363.121 314.113H327.971L286.58 283.791H404.527Z" fill="#C9CCCD" stroke="#263238" stroke-linecap="round" stroke-linejoin="round"/>
<path d="M345.547 60.7327C319.21 60.7331 293.613 69.4467 272.745 85.5153C251.877 101.584 236.912 124.105 230.181 149.567C223.451 175.03 225.333 202.004 235.534 226.286C245.736 250.567 263.684 270.791 286.581 283.806V283.806C302.465 292.834 320.209 298.095 338.447 299.182C356.684 300.27 374.928 297.155 391.772 290.078C408.616 283.001 423.609 272.151 435.598 258.365C447.586 244.578 456.248 228.222 460.917 210.559C465.586 192.896 466.137 174.396 462.528 156.486C458.918 138.576 451.244 121.735 440.097 107.259C428.951 92.7833 414.629 81.0603 398.236 72.9937C381.843 64.9272 363.817 60.7324 345.547 60.7327V60.7327ZM345.547 282.717C325.241 282.717 305.392 276.695 288.508 265.414C271.624 254.133 258.465 238.098 250.694 219.338C242.924 200.578 240.89 179.935 244.852 160.019C248.813 140.103 258.592 121.81 272.95 107.451C287.308 93.0928 305.602 83.3146 325.518 79.3531C345.433 75.3916 366.077 77.4248 384.837 85.1955C403.597 92.9662 419.631 106.125 430.913 123.009C442.194 139.893 448.215 159.743 448.215 180.049C448.217 193.532 445.563 206.883 440.404 219.34C435.245 231.797 427.683 243.116 418.149 252.65C408.615 262.184 397.296 269.747 384.839 274.905C372.382 280.064 359.03 282.719 345.547 282.717V282.717Z" fill="#C9CCCD" stroke="#263238" stroke-linecap="round" stroke-linejoin="round"/>
<path d="M361.546 314.113H327.971V523.218H361.546V314.113Z" fill="#263238"/>
<path d="M322.994 91.7316C330.08 90.0234 337.343 89.1636 344.632 89.1705" stroke="#263238" stroke-miterlimit="10"/>
<path d="M252.945 180.843C252.943 163.221 258.019 145.972 267.566 131.16C277.112 116.348 290.725 104.601 306.774 97.3248" stroke="#263238" stroke-miterlimit="10"/>
<path d="M379.4 458.511C363.694 415.206 363.768 408.185 362.855 381.97C362.561 373.786 362.723 365.499 360.78 357.536C358.837 349.572 353.965 339.151 345.854 337.944C339.893 337.046 334.005 340.888 330.826 346.025C327.646 351.162 326.675 357.315 326.101 363.32C324.217 382.494 325.686 401.85 330.443 420.52C324.658 433.841 326.866 443.806 323.23 464.104V549.477H375.529C375.529 549.477 389.542 486.655 379.4 458.511Z" fill="#FFA8A7"/>
<path d="M378.018 549.374C378.018 549.374 389.543 486.655 379.328 458.511C363.622 415.206 363.696 408.185 362.783 381.97C362.489 373.786 362.65 365.499 360.708 357.536C358.765 349.572 353.892 339.151 345.782 337.944C339.821 337.046 333.933 340.888 330.753 346.025C327.574 351.162 326.603 357.315 326.029 363.32C324.145 382.494 325.614 401.85 330.371 420.52C324.586 433.841 326.794 443.806 323.158 464.104" stroke="#263238" stroke-linecap="round" stroke-linejoin="round"/>
<path d="M366.89 366.5C367.492 368.923 367.445 371.461 366.752 373.86C366.059 376.258 364.746 378.431 362.945 380.16" fill="white"/>
<path d="M366.89 366.5C367.492 368.923 367.445 371.461 366.752 373.86C366.059 376.258 364.746 378.431 362.945 380.16" stroke="#263238" stroke-linecap="round" stroke-linejoin="round"/>
<path d="M352.714 346.614C353.266 350.776 353.266 354.993 352.714 359.155C346.327 361.329 339.44 361.57 332.917 359.847C331.817 356.145 331.676 352.225 332.505 348.454" fill="white"/>
<path d="M352.714 346.614C353.266 350.776 353.266 354.993 352.714 359.155C346.327 361.329 339.44 361.57 332.917 359.847C331.817 356.145 331.676 352.225 332.505 348.454" stroke="#263238" stroke-linecap="round" stroke-linejoin="round"/>
<path d="M334.301 436.049C334.919 438.507 335.302 440.023 335.773 441.79Z" fill="white"/>
<path d="M334.301 436.049C334.919 438.507 335.302 440.023 335.773 441.79" stroke="#263238" stroke-linecap="round" stroke-linejoin="round"/>
<path d="M329.355 416.546C329.841 418.533 331.858 426.496 333.624 433.576Z" fill="white"/>
<path d="M329.355 416.546C329.841 418.533 331.858 426.496 333.624 433.576" stroke="#263238" stroke-linecap="round" stroke-linejoin="round"/>
<path d="M364.24 435.755C364.24 438.861 364.402 441.643 364.608 444.072Z" fill="white"/>
<path d="M364.24 435.755C364.24 438.861 364.402 441.643 364.608 444.072" stroke="#263238" stroke-linecap="round" stroke-linejoin="round"/>
<path d="M363.504 396.763C364.372 407.581 364.004 419.401 364.152 430.779Z" fill="white"/>
<path d="M363.504 396.763C364.372 407.581 364.004 419.401 364.152 430.779" stroke="#263238" stroke-linecap="round" stroke-linejoin="round"/>
<path d="M380.533 407.126C376.487 412.492 372.142 417.627 367.521 422.508Z" fill="white"/>
<path d="M380.533 407.126C376.487 412.492 372.142 417.627 367.521 422.508" stroke="#263238" stroke-linecap="round" stroke-linejoin="round"/>
<path d="M373.029 439.582C375.744 437.673 378.076 435.271 379.903 432.501Z" fill="white"/>
<path d="M373.029 439.582C375.744 437.673 378.076 435.271 379.903 432.501" stroke="#263238" stroke-linecap="round" stroke-linejoin="round"/>
<path d="M280.854 433.002C283.474 443.305 277.484 454.154 278.661 464.781" stroke="#263238" stroke-linecap="round" stroke-linejoin="round"/>
<path d="M277.838 409.186C278.471 415.295 278.942 419.961 279.575 426.069" stroke="#263238" stroke-linecap="round" stroke-linejoin="round"/>
<path d="M301.389 527.752C302.537 529.489 303.685 531.181 304.848 532.815" stroke="#263238" stroke-linecap="round" stroke-linejoin="round"/>
<path d="M335.125 368.487L351.508 367.235" stroke="#263238" stroke-linecap="round" stroke-linejoin="round"/>
<path d="M329.517 377.319C324.998 379.659 347.328 371.902 348.329 371.814" stroke="#263238" stroke-linecap="round" stroke-linejoin="round"/>
<path d="M333.77 383.339C332.121 384.207 349.873 380.174 353.582 381.19" stroke="#263238" stroke-linecap="round" stroke-linejoin="round"/>
<path d="M324.939 334.441C327.206 338.445 330.283 341.212 330.371 345.804" stroke="#263238" stroke-linecap="round" stroke-linejoin="round"/>
<path d="M315.988 358.948C319.094 361.412 322.016 364.098 324.732 366.985" stroke="#263238" stroke-linecap="round" stroke-linejoin="round"/>
<path d="M363.504 394.953C365.202 394.156 367.065 393.777 368.939 393.846C370.814 393.915 372.644 394.431 374.279 395.35" fill="white"/>
<path d="M363.504 394.953C365.202 394.156 367.065 393.777 368.939 393.846C370.814 393.915 372.644 394.431 374.279 395.35" stroke="#263238" stroke-linecap="round" stroke-linejoin="round"/>
<path d="M311.029 396.763C315.445 398.235 320.744 401.635 327.015 403.828" stroke="#263238" stroke-linecap="round" stroke-linejoin="round"/>
<path d="M326.133 416.119L315.947 423.905" stroke="#263238" stroke-linecap="round" stroke-linejoin="round"/>
<path d="M346.518 644.698C355.979 625.78 363.31 605.87 368.376 585.334Z" fill="white"/>
<path d="M346.518 644.698C355.979 625.78 363.31 605.87 368.376 585.334" stroke="#263238" stroke-linecap="round" stroke-linejoin="round"/>
<path d="M372.776 568.892C370.524 576.061 364.562 599.332 363.768 600.421C363.983 590.568 364.794 580.737 366.196 570.982C367.017 565.082 368.585 559.31 370.862 553.805C373.88 546.445 378.811 534.037 383.433 520.23C383.433 520.215 379.723 546.828 372.776 568.892Z" fill="#263238"/>
</svg>
