<svg xmlns="http://www.w3.org/2000/svg" fill="none" viewBox="0 0 654 654"><path stroke="#263238" stroke-linecap="round" stroke-linejoin="round" d="M548.263 489.79a56.272 56.272 0 0 1-75.364-25.553 57.456 57.456 0 0 1-3.282-8.243v-.073a56.254 56.254 0 0 1 28.864-67.047l24.891 50.458 27.967-48.854a56.273 56.273 0 0 1-2.944 99.312h-.132z"/><path stroke="#263238" stroke-linecap="round" stroke-linejoin="round" d="M499.129 362.923a56.272 56.272 0 0 1 52.813 1.605l-27.967 48.839-24.846-50.444z"/><path stroke="#263238" stroke-linecap="round" stroke-linejoin="round" d="M499.129 362.924v12.217l24.89 50.443 27.923-48.839v-12.217l-27.923 48.854-24.89-50.458zM189.358 334.22H36.629a14.058 14.058 0 0 0-14.057 14.057v57.715a14.07 14.07 0 0 0 14.057 14.072h152.729a14.074 14.074 0 0 0 14.072-14.072v-57.715a14.07 14.07 0 0 0-14.072-14.057v0zm-91.26 73.98a1.368 1.368 0 0 1-1.354 1.369H83.982a1.365 1.365 0 0 1-1.265-.845 1.368 1.368 0 0 1-.104-.524v-29.704a1.368 1.368 0 0 1 1.369-1.354h12.703a1.354 1.354 0 0 1 1.354 1.354l.059 29.704zm25.361 1.369h-12.703a1.368 1.368 0 0 1-1.368-1.369v-39.948a1.37 1.37 0 0 1 1.368-1.355h12.703a1.361 1.361 0 0 1 .958.397 1.352 1.352 0 0 1 .397.958V408.2a1.362 1.362 0 0 1-1.414 1.369h.059zm26.495-1.369a1.37 1.37 0 0 1-1.354 1.369h-12.717a1.372 1.372 0 0 1-1.355-1.369v-4.784a1.353 1.353 0 0 1 1.355-1.354H148.6a1.356 1.356 0 0 1 1.354 1.354v4.784zm25.126 0a1.37 1.37 0 0 1-1.354 1.369h-12.761a1.365 1.365 0 0 1-1.369-1.369v-43.775l-12.909 31.426a1.37 1.37 0 0 1-2.429.176l-22.904-38.491a1.326 1.326 0 0 0-.863-.63 1.34 1.34 0 0 0-1.05.203l-22.653 15.279a1.353 1.353 0 0 1-1.472 0l-24.479-13.483v49.31a1.371 1.371 0 0 1-1.354 1.369H56.81a1.375 1.375 0 0 1-1.369-1.369v-60.939a1.368 1.368 0 0 1 1.369-1.354h12.703a1.354 1.354 0 0 1 1.354 1.354v8.332l24.36 13.409a1.353 1.353 0 0 0 1.472 0l23.552-15.838a1.352 1.352 0 0 1 1.928.427l21.711 36.313a1.37 1.37 0 0 0 2.429-.177l13.335-32.471v-10.009a1.369 1.369 0 0 1 1.369-1.355h3.312l1.472-3.429a1.363 1.363 0 0 1 .736-.732 1.36 1.36 0 0 1 1.477.298 1.359 1.359 0 0 1 .29 1.479l-.972 2.384h6.447a1.356 1.356 0 0 1 1.354 1.355l-.059 60.938z"/><path stroke="#263238" stroke-linecap="round" stroke-linejoin="round" d="M96.685 377.142H83.967c-.747 0-1.354.606-1.354 1.354v29.719c0 .748.607 1.354 1.355 1.354h12.717c.748 0 1.354-.606 1.354-1.354v-29.719c0-.748-.606-1.354-1.354-1.354zM123.402 366.898h-12.718c-.748 0-1.354.606-1.354 1.354v39.963c0 .748.606 1.354 1.354 1.354h12.718c.748 0 1.354-.606 1.354-1.354v-39.963c0-.748-.606-1.354-1.354-1.354zM148.543 402.062h-12.718c-.748 0-1.354.607-1.354 1.354v4.799c0 .748.606 1.354 1.354 1.354h12.718c.747 0 1.354-.606 1.354-1.354v-4.799c0-.747-.607-1.354-1.354-1.354zM55.97 349.249v-.162a1.376 1.376 0 0 1 .815-.72c.178-.058.366-.079.552-.062.186.018.367.074.531.164l12.938 7.124v-8.331a1.352 1.352 0 0 0-1.354-1.354H56.808a1.37 1.37 0 0 0-1.368 1.354V408.2a1.37 1.37 0 0 0 1.368 1.369h12.703a1.37 1.37 0 0 0 1.354-1.369v-49.31l-14.322-7.889a1.357 1.357 0 0 1-.574-1.752v0zM173.667 345.893h-6.447l-7.624 18.517v43.776a1.367 1.367 0 0 0 1.369 1.368h12.702a1.37 1.37 0 0 0 1.355-1.368v-60.939a1.356 1.356 0 0 0-1.355-1.354zM160.965 345.893a1.366 1.366 0 0 0-1.369 1.354v10.009l4.68-11.363h-3.311z"/><path stroke="#263238" stroke-linecap="round" stroke-linejoin="round" d="M123.402 366.898h-12.718c-.748 0-1.354.606-1.354 1.354v39.963c0 .748.606 1.354 1.354 1.354h12.718c.748 0 1.354-.606 1.354-1.354v-39.963c0-.748-.606-1.354-1.354-1.354zM96.685 377.142H83.967c-.747 0-1.354.606-1.354 1.354v29.719c0 .748.607 1.354 1.355 1.354h12.717c.748 0 1.354-.606 1.354-1.354v-29.719c0-.748-.606-1.354-1.354-1.354zM148.543 402.062h-12.718c-.748 0-1.354.607-1.354 1.354v4.799c0 .748.606 1.354 1.354 1.354h12.718c.747 0 1.354-.606 1.354-1.354v-4.799c0-.747-.607-1.354-1.354-1.354z"/><path fill="#5FBE3F" d="M425.43 387.108l-23.08 23.109a97.16 97.16 0 0 1 22.933 55.345h32.618a129.678 129.678 0 0 0-32.471-78.454z"/><path fill="#fff" d="M425.43 387.108l-23.08 23.109a97.16 97.16 0 0 1 22.933 55.345h32.618a129.678 129.678 0 0 0-32.471-78.454z" opacity=".2"/><path fill="#5FBE3F" d="M253.653 536.642a97.589 97.589 0 0 1 0-126.425l-23.065-23.109a130.143 130.143 0 0 0 0 172.585l23.065-23.051z"/><path fill="#fff" d="M253.651 536.642a97.589 97.589 0 0 1 0-126.425l-23.065-23.109a130.143 130.143 0 0 0 0 172.585l23.065-23.051z" opacity=".4"/><path fill="#5FBE3F" d="M264.781 399.075a97.616 97.616 0 0 1 126.44 0l23.066-23.066a130.137 130.137 0 0 0-172.557 0l23.051 23.066z"/><path fill="#000" d="M264.781 399.075a97.616 97.616 0 0 1 126.44 0l23.066-23.066a130.137 130.137 0 0 0-172.557 0l23.051 23.066z" opacity=".2"/><path fill="#5FBE3F" d="M457.9 481.312h-32.618A97.56 97.56 0 0 1 264.84 547.8l-23.08 23.065a130.121 130.121 0 0 0 216.14-89.553z"/><path fill="#263238" d="M530.068 316.041H152.72a15.22 15.22 0 0 1-15.22-15.22V56.066a15.206 15.206 0 0 1 15.22-15.205h377.348a15.204 15.204 0 0 1 15.22 15.205v244.755a15.22 15.22 0 0 1-15.22 15.22z"/><path fill="#A7D772" d="M530.068 307.239H152.72a15.219 15.219 0 0 1-15.22-15.22V47.264a15.22 15.22 0 0 1 15.22-15.205h377.348a15.22 15.22 0 0 1 15.22 15.205V292.02a15.22 15.22 0 0 1-15.22 15.22z"/><path stroke="#263238" stroke-miterlimit="10" d="M545.904 55.286v-8.831a15.207 15.207 0 0 0-15.22-15.206H153.292a15.202 15.202 0 0 0-14.061 9.383 15.207 15.207 0 0 0-1.159 5.823V300.07a15.222 15.222 0 0 0 15.22 15.22h377.392a15.22 15.22 0 0 0 15.22-15.22V55.286v0z"/><path fill="#fff" d="M161.758 56.346v225.031H519.44V56.346H161.758zm353.708 44.158h-40.258v-40.17h40.258v40.17zM254.137 148.74h40.258v40.258h-40.258V148.74zm-3.959 40.258h-40.243V148.74h40.243v40.258zm132.651-44.159h-40.228v-40.346h40.243l-.015 40.346zm3.93-40.346h40.243v40.258h-40.243v-40.258zm-44.158 44.158h40.258v40.258h-40.258v-40.258zm-3.96 40.258h-40.287V148.74h40.258l.029 40.169zm0-44.158h-40.287v-40.258h40.258l.029 40.258zm-44.158 0h-40.346v-40.258h40.258l.088 40.258zm0 48.177v40.243h-40.346v-40.214l40.346-.029zm3.96 0H338.7v40.243h-40.346l.089-40.243zm44.158 0h40.258v40.243h-40.258v-40.243zm44.158 0h40.243v40.243h-40.243v-40.243zm0-3.96V148.74h40.243v40.258l-40.243-.03zm44.159-40.258h40.331v40.258h-40.258l-.073-40.258zm0-3.959v-40.258h40.331v40.258h-40.331zm0-44.159V60.335h40.331v40.228l-40.331.029zm-3.96 0h-40.199V60.335h40.243l-.044 40.257zm-44.158 0h-40.199V60.335h40.243l-.044 40.257zm-44.159 0h-40.287V60.335h40.258l.029 40.257zm-44.158 0h-40.346V60.335h40.258l.088 40.257zm-44.158 0h-40.39V60.335h40.243l.147 40.257zm0 3.96v40.258h-40.39v-40.317l40.39.059zm-44.159 40.258h-40.449v-40.317h40.258l.191 40.317zm0 3.959v40.258h-40.449V148.74l40.449.029zm0 44.159v40.243h-40.449v-40.214l40.449-.029zm3.96 0h40.243v40.243h-40.434l.191-40.243zm40.243 44.158v40.258h-40.434V237.16l40.434-.074zm3.959 0h40.258v40.258h-40.449l.191-40.258zm44.159 0h40.257v40.258h-40.39l.133-40.258zm44.158 0h40.258v40.258h-40.302l.044-40.258zm44.158 0h40.243v40.258h-40.287l.044-40.258zm44.159 0h40.287v40.258h-40.258l-.029-40.258zm0-3.96v-40.169h40.287V233.2l-40.287-.074zm44.158-40.243h40.258v40.243h-40.17l-.088-40.243zm0-3.959V148.74h40.258v40.258l-40.258-.074zm0-44.158v-40.273h40.258v40.258l-40.258.015zM205.975 60.335v40.228h-40.258V60.335h40.258zM165.717 237.16h40.258v40.257h-40.258V237.16zm309.491 40.257V237.16h40.258v40.257h-40.258z"/><path fill="#fff" d="M161.758 56.346v225.031H519.44V56.346H161.758zm353.708 44.158h-40.258v-40.17h40.258v40.17zM254.137 148.74h40.258v40.258h-40.258V148.74zm-3.959 40.258h-40.243V148.74h40.243v40.258zm132.651-44.159h-40.228v-40.346h40.243l-.015 40.346zm3.93-40.346h40.243v40.258h-40.243v-40.258zm-44.158 44.158h40.258v40.258h-40.258v-40.258zm-3.96 40.258h-40.287V148.74h40.258l.029 40.169zm0-44.158h-40.287v-40.258h40.258l.029 40.258zm-44.158 0h-40.346v-40.258h40.258l.088 40.258zm0 48.177v40.243h-40.346v-40.214l40.346-.029zm3.96 0H338.7v40.243h-40.346l.089-40.243zm44.158 0h40.258v40.243h-40.258v-40.243zm44.158 0h40.243v40.243h-40.243v-40.243zm0-3.96V148.74h40.243v40.258l-40.243-.03zm44.159-40.258h40.331v40.258h-40.258l-.073-40.258zm0-3.959v-40.258h40.331v40.258h-40.331zm0-44.159V60.335h40.331v40.228l-40.331.029zm-3.96 0h-40.199V60.335h40.243l-.044 40.257zm-44.158 0h-40.199V60.335h40.243l-.044 40.257zm-44.159 0h-40.287V60.335h40.258l.029 40.257zm-44.158 0h-40.346V60.335h40.258l.088 40.257zm-44.158 0h-40.39V60.335h40.243l.147 40.257zm0 3.96v40.258h-40.39v-40.317l40.39.059zm-44.159 40.258h-40.449v-40.317h40.258l.191 40.317zm0 3.959v40.258h-40.449V148.74l40.449.029zm0 44.159v40.243h-40.449v-40.214l40.449-.029zm3.96 0h40.243v40.243h-40.434l.191-40.243zm40.243 44.158v40.258h-40.434V237.16l40.434-.074zm3.959 0h40.258v40.258h-40.449l.191-40.258zm44.159 0h40.257v40.258h-40.39l.133-40.258zm44.158 0h40.258v40.258h-40.302l.044-40.258zm44.158 0h40.243v40.258h-40.287l.044-40.258zm44.159 0h40.287v40.258h-40.258l-.029-40.258zm0-3.96v-40.169h40.287V233.2l-40.287-.074zm44.158-40.243h40.258v40.243h-40.17l-.088-40.243zm0-3.959V148.74h40.258v40.258l-40.258-.074zm0-44.158v-40.273h40.258v40.258l-40.258.015zM205.975 60.335v40.228h-40.258V60.335h40.258zM165.717 237.16h40.258v40.257h-40.258V237.16zm309.491 40.257V237.16h40.258v40.257h-40.258z" opacity=".8"/><path fill="#263238" d="M342.38 192.368l-3.194-2.797 3.194-2.796 3.194 2.796-3.194 2.797zM351.95 183.978l-3.194-2.797 6.388-5.593 3.18 2.797-6.374 5.593zm12.762-11.187l-3.194-2.811 6.373-5.594 3.194 2.797-6.373 5.608zm12.747-11.201l-3.194-2.797 6.388-5.593 3.165 2.811-6.359 5.579zm12.762-11.187l-3.195-2.797 2.812-2.473 5.166-2.266 2.017 3.547-4.504 1.972-2.296 2.017zm14.866-7.536l-2.016-3.533 8.066-3.548 2.016 3.548-8.066 3.533zm16.192-7.066l-2.135-3.547 8.067-3.548 2.016 3.548-7.948 3.547zm16.191-7.08l-2.134-3.547 4.901-2.149 1.987-1.737 3.195 2.796-2.503 2.194-5.446 2.443zm14.44-10.23l-3.194-2.797 6.388-5.608 3.179 2.812-6.373 5.593zm12.762-11.201l-3.312-2.797 6.358-5.593 3.195 2.796-6.241 5.594zm12.747-11.187l-3.195-2.797 6.389-5.593 3.179 2.796-6.373 5.594zm12.761-11.187l-3.326-2.797 6.373-5.593 3.194 2.797-6.241 5.593zm12.747-11.187l-3.194-2.811 6.388-5.594 3.195 2.797-6.389 5.608zM519.426 72.876h-4.519v-12.57H500.6V56.36h18.826v16.515z"/><g fill="#000" opacity=".5"><path d="M460.844 161.9l-2.797-2.797 5.52-5.52 2.796 2.797-5.519 5.52zm11.039-11.04l-2.797-2.797 5.52-5.519 2.797 2.796-5.52 5.52zm11.04-11.04l-2.797-2.796 5.52-5.52 2.797 2.797-5.52 5.519zm11.039-11.039l-2.796-2.797 5.519-5.52 2.797 2.797-5.52 5.52zm11.04-11.04l-2.797-2.796 5.52-5.52 2.797 2.797-5.52 5.519zM451.937 170.849h-4.769v-3.96h3.135l2.223-2.222 2.797 2.797-3.386 3.385zM385.626 192.957h-3.827v-3.959h2.179l2.575-2.576 2.797 2.797-3.724 3.738zm-11.275 0h-7.448v-3.959h7.448v3.959zm-14.896 0h-7.463v-3.959h7.463v3.959zm35.165-8.978l-2.797-2.797 5.24-5.299 2.797 2.797-5.24 5.299zm10.539-10.525l-2.797-2.811 3.724-3.724h3.812v3.959h-2.163l-2.576 2.576zm34.591-2.605h-7.449v-3.96h7.449v3.96zm-14.897 0h-7.448v-3.96h7.448v3.96zM344.544 188.998h-3.96v3.959h3.96v-3.959zM519.426 117.079h-3.959v-12.556h-12.571l.015-3.96h16.515v16.516z" opacity=".5"/><g opacity=".2"><path d="M460.844 161.9l-2.797-2.797 5.52-5.52 2.796 2.797-5.519 5.52zm11.039-11.04l-2.797-2.797 5.52-5.519 2.797 2.796-5.52 5.52zm11.04-11.04l-2.797-2.796 5.52-5.52 2.797 2.797-5.52 5.519zm11.039-11.039l-2.796-2.797 5.519-5.52 2.797 2.797-5.52 5.52zm11.04-11.04l-2.797-2.796 5.52-5.52 2.797 2.797-5.52 5.519zM451.937 170.849h-4.769v-3.96h3.135l2.223-2.222 2.797 2.797-3.386 3.385zM385.626 192.957h-3.827v-3.959h2.179l2.575-2.576 2.797 2.797-3.724 3.738zm-11.275 0h-7.448v-3.959h7.448v3.959zm-14.896 0h-7.463v-3.959h7.463v3.959zm35.165-8.978l-2.797-2.797 5.24-5.299 2.797 2.797-5.24 5.299zm10.539-10.525l-2.797-2.811 3.724-3.724h3.812v3.959h-2.163l-2.576 2.576zm34.591-2.605h-7.449v-3.96h7.449v3.96zm-14.897 0h-7.448v-3.96h7.448v3.96zM344.544 188.998h-3.96v3.959h3.96v-3.959zM519.426 117.079h-3.959v-12.556h-12.571l.015-3.96h16.515v16.516z" opacity=".2"/></g></g><g fill="#000" opacity=".3"><path d="M341.997 189.583l-2.8 2.799 2.8 2.8 2.8-2.8-2.8-2.799zM401.171 215.066h-8.228v-3.96h8.213l.015 3.96zm-16.442 0h-8.272v-3.96h8.228l.044 3.96zm-16.441 0h-6.418l-2.443-2.458 2.811-2.797 1.281 1.295h4.769v3.96zm41.773-2.341l-2.796-2.796 5.814-5.815 2.797 2.797-5.815 5.814zm-56.449-5.887l-5.887-5.8 2.811-2.811 5.814 5.814-2.738 2.797zm68.078-5.697l-2.797-2.797 5.814-5.887 2.797 2.811-5.814 5.873zm52.357-8.14h-8.037v-3.959h6.403l.133-.147.132.147h.545v.544l2.119 2.12-1.295 1.295zm-16.191 0h-8.229v-3.959h8.229v3.959zm-16.442 0h-8.287v-3.959h8.228l.059 3.959zm39.742-7.109l-2.796-2.812 5.814-5.799 2.797 2.797-5.815 5.814zm11.629-11.629l-2.797-2.796 5.814-5.814 2.797 2.796-5.814 5.814zm11.628-11.628l-2.797-2.797 5.888-5.814 2.797 2.797-5.888 5.814zM519.426 161.295h-3.959V148.74h-12.571v-3.96h16.53v16.515z" opacity=".3"/><g opacity=".3"><path d="M341.997 189.583l-2.8 2.799 2.8 2.8 2.8-2.8-2.8-2.799zM401.171 215.066h-8.228v-3.96h8.213l.015 3.96zm-16.442 0h-8.272v-3.96h8.228l.044 3.96zm-16.441 0h-6.418l-2.443-2.458 2.811-2.797 1.281 1.295h4.769v3.96zm41.773-2.341l-2.796-2.796 5.814-5.815 2.797 2.797-5.815 5.814zm-56.449-5.887l-5.887-5.8 2.811-2.811 5.814 5.814-2.738 2.797zm68.078-5.697l-2.797-2.797 5.814-5.887 2.797 2.811-5.814 5.873zm52.357-8.14h-8.037v-3.959h6.403l.133-.147.132.147h.545v.544l2.119 2.12-1.295 1.295zm-16.191 0h-8.229v-3.959h8.229v3.959zm-16.442 0h-8.287v-3.959h8.228l.059 3.959zm39.742-7.109l-2.796-2.812 5.814-5.799 2.797 2.797-5.815 5.814zm11.629-11.629l-2.797-2.796 5.814-5.814 2.797 2.796-5.814 5.814zm11.628-11.628l-2.797-2.797 5.888-5.814 2.797 2.797-5.888 5.814zM519.426 161.295h-3.959V148.74h-12.571v-3.96h16.53v16.515z" opacity=".3"/></g></g><path fill="#A7D772" d="M187.076 281.377h-23.33v-3.959h20.872l21.711-43.408 22.904-22.904h44.217l22.109-22.108h45.027v3.959h-43.393l-22.109 22.109h-44.202l-21.3 21.299-22.506 45.012z"/><path fill="#263238" d="M187.074 281.377h-23.33v-3.959h20.872l21.711-43.408 22.904-22.903h44.217l22.109-22.109h45.027v3.959h-43.393l-22.109 22.109H230.88l-21.299 21.299-22.507 45.012z" opacity=".3"/><path fill="#A7D772" d="M245.542 245.02h-23.478a6.992 6.992 0 0 0-6.992 6.992v23.477a6.993 6.993 0 0 0 6.992 6.992h23.478a6.992 6.992 0 0 0 6.991-6.992v-23.477a6.991 6.991 0 0 0-6.991-6.992z"/><path fill="#000" d="M245.542 245.02h-23.478a6.992 6.992 0 0 0-6.992 6.992v23.477a6.993 6.993 0 0 0 6.992 6.992h23.478a6.992 6.992 0 0 0 6.991-6.992v-23.477a6.991 6.991 0 0 0-6.991-6.992z" opacity=".3"/><path fill="#A7D772" d="M245.542 242.399h-23.478a6.993 6.993 0 0 0-6.992 6.992v23.478a6.992 6.992 0 0 0 6.992 6.991h23.478a6.991 6.991 0 0 0 6.991-6.991v-23.478a6.992 6.992 0 0 0-6.991-6.992z"/><path fill="#fff" d="M245.542 242.399h-23.478a6.993 6.993 0 0 0-6.992 6.992v23.478a6.992 6.992 0 0 0 6.992 6.991h23.478a6.991 6.991 0 0 0 6.991-6.991v-23.478a6.992 6.992 0 0 0-6.991-6.992z" opacity=".8"/><path fill="#000" d="M223.874 255.5a5.163 5.163 0 0 1 1.236-3.724 5.415 5.415 0 0 1 7.065 0 5.168 5.168 0 0 1 1.237 3.724v10.304a5.885 5.885 0 0 1-.604 2.796.568.568 0 0 0 .295.354c.191.055.39.079.588.073h.28v2.797h-.427a3.658 3.658 0 0 1-1.722-.353 2.196 2.196 0 0 1-.986-1.016c-.334.121-.679.21-1.03.265a5.823 5.823 0 0 1-1.163.103 4.592 4.592 0 0 1-3.533-1.295 5.194 5.194 0 0 1-1.236-3.724V255.5zm3.135 10.583a2.094 2.094 0 0 0 .441 1.472 1.812 1.812 0 0 0 2.37 0 2.09 2.09 0 0 0 .442-1.472v-10.789a2.132 2.132 0 0 0-.442-1.472 1.809 1.809 0 0 0-2.37 0 2.136 2.136 0 0 0-.441 1.472v10.789zM237.373 253.16c.498.012.994-.053 1.472-.192.354-.112.68-.298.957-.544.24-.23.439-.499.589-.795.161-.313.299-.638.412-.972h2.105v20.019h-3.136v-15.235h-2.428l.029-2.281z"/><path fill="#A7D772" d="M378.413 246.492h-23.478a6.992 6.992 0 0 0-6.992 6.991v23.478a6.993 6.993 0 0 0 6.992 6.992h23.478a6.992 6.992 0 0 0 6.991-6.992v-23.478a6.991 6.991 0 0 0-6.991-6.991z"/><path fill="#000" d="M378.413 246.492h-23.478a6.992 6.992 0 0 0-6.992 6.991v23.478a6.993 6.993 0 0 0 6.992 6.992h23.478a6.992 6.992 0 0 0 6.991-6.992v-23.478a6.991 6.991 0 0 0-6.991-6.991z" opacity=".3"/><path fill="#A7D772" d="M378.413 243.872h-23.478a6.992 6.992 0 0 0-6.992 6.991v23.478a6.993 6.993 0 0 0 6.992 6.992h23.478a6.992 6.992 0 0 0 6.991-6.992v-23.478a6.991 6.991 0 0 0-6.991-6.991z"/><path fill="#fff" d="M378.413 243.872h-23.478a6.992 6.992 0 0 0-6.992 6.991v23.478a6.993 6.993 0 0 0 6.992 6.992h23.478a6.992 6.992 0 0 0 6.991-6.992v-23.478a6.991 6.991 0 0 0-6.991-6.991z" opacity=".8"/><path fill="#000" d="M357.158 257.237a5.193 5.193 0 0 1 1.222-3.724 5.492 5.492 0 0 1 7.08 0 5.254 5.254 0 0 1 1.221 3.724v10.304a5.884 5.884 0 0 1-.603 2.796.6.6 0 0 0 .309.368c.19.031.384.031.574 0h.294v2.797h-.426a3.66 3.66 0 0 1-1.723-.353 2.141 2.141 0 0 1-.986-1.016 7.5 7.5 0 0 1-1.03.28c-.389.066-.783.1-1.178.103a4.63 4.63 0 0 1-3.532-1.31 5.163 5.163 0 0 1-1.222-3.724v-10.245zm3.106 10.642a2.131 2.131 0 0 0 .441 1.472 1.81 1.81 0 0 0 2.37 0c.325-.419.482-.943.442-1.472V257.09a2.09 2.09 0 0 0-.442-1.472 1.81 1.81 0 0 0-2.37 0 2.094 2.094 0 0 0-.441 1.472v10.789zM374.983 257.355a2.694 2.694 0 0 0-.442-1.811 1.49 1.49 0 0 0-.535-.369 1.487 1.487 0 0 0-.643-.102 1.61 1.61 0 0 0-1.192.442 2.09 2.09 0 0 0-.441 1.472v2.149h-2.944v-1.943a5.31 5.31 0 0 1 1.177-3.724 5.36 5.36 0 0 1 6.992 0 5.316 5.316 0 0 1 1.178 3.724c.017 1.003-.147 2-.486 2.944a11.484 11.484 0 0 1-1.251 2.384 16.441 16.441 0 0 1-1.59 1.987 47.624 47.624 0 0 0-1.546 1.708 8.437 8.437 0 0 0-1.221 1.663 2.656 2.656 0 0 0-.251 1.678h5.888v2.856h-9.067v-2.458a6.581 6.581 0 0 1 .456-2.562 9.314 9.314 0 0 1 1.149-2.046c.455-.607.947-1.187 1.471-1.736a20.809 20.809 0 0 0 1.472-1.723 8.75 8.75 0 0 0 1.149-2.016 6.46 6.46 0 0 0 .677-2.517z"/><path fill="#A7D772" d="M511.743 245.02h-23.478a6.992 6.992 0 0 0-6.992 6.992v23.477a6.993 6.993 0 0 0 6.992 6.992h23.478a6.992 6.992 0 0 0 6.991-6.992v-23.477a6.991 6.991 0 0 0-6.991-6.992z"/><path fill="#000" d="M511.743 245.02h-23.478a6.992 6.992 0 0 0-6.992 6.992v23.477a6.993 6.993 0 0 0 6.992 6.992h23.478a6.992 6.992 0 0 0 6.991-6.992v-23.477a6.991 6.991 0 0 0-6.991-6.992z" opacity=".3"/><path fill="#A7D772" d="M511.743 242.399h-23.478a6.993 6.993 0 0 0-6.992 6.992v23.478a6.992 6.992 0 0 0 6.992 6.991h23.478a6.991 6.991 0 0 0 6.991-6.991v-23.478a6.992 6.992 0 0 0-6.991-6.992z"/><path fill="#fff" d="M511.743 242.399h-23.478a6.993 6.993 0 0 0-6.992 6.992v23.478a6.992 6.992 0 0 0 6.992 6.991h23.478a6.991 6.991 0 0 0 6.991-6.991v-23.478a6.992 6.992 0 0 0-6.991-6.992z" opacity=".8"/><path fill="#000" d="M490.502 255.765a5.259 5.259 0 0 1 1.222-3.724 5.49 5.49 0 0 1 7.08 0 5.259 5.259 0 0 1 1.222 3.724v10.304a5.676 5.676 0 0 1-.604 2.797.664.664 0 0 0 .309.368c.195.03.394.03.589 0h.28v2.796h-.427a3.641 3.641 0 0 1-1.722-.353 2.139 2.139 0 0 1-.987-1.016c-.336.118-.68.211-1.03.28-.389.066-.783.1-1.178.103a4.633 4.633 0 0 1-3.532-1.31 5.227 5.227 0 0 1-1.222-3.724v-10.245zm3.135 10.584c-.04.528.117 1.053.442 1.471a1.81 1.81 0 0 0 2.37 0c.325-.418.482-.943.441-1.471v-10.79a2.09 2.09 0 0 0-.441-1.472 1.81 1.81 0 0 0-2.37 0 2.09 2.09 0 0 0-.442 1.472v10.79zM508.106 255.883a2.694 2.694 0 0 0-.442-1.811 1.473 1.473 0 0 0-1.192-.471 1.614 1.614 0 0 0-1.177.442 2.09 2.09 0 0 0-.442 1.472v1.295h-2.944v-1.089a5.315 5.315 0 0 1 1.192-3.724 5.344 5.344 0 0 1 6.977 0 5.311 5.311 0 0 1 1.193 3.724v.515c0 2.12-.736 3.503-2.194 4.107a3.177 3.177 0 0 1 1.693 1.575c.358.826.528 1.72.501 2.62v1.56a5.286 5.286 0 0 1-1.193 3.724 5.3 5.3 0 0 1-6.977 0 5.285 5.285 0 0 1-1.192-3.724v-1.604h2.944v1.913a2.132 2.132 0 0 0 .442 1.472 1.604 1.604 0 0 0 1.177.442 1.606 1.606 0 0 0 1.192-.457 2.673 2.673 0 0 0 .442-1.795v-1.575a3.088 3.088 0 0 0-.486-1.973 1.954 1.954 0 0 0-1.634-.53h-1.059v-2.944h1.236c.502.025.995-.138 1.384-.456a2.237 2.237 0 0 0 .5-1.663l.059-1.045z"/><path fill="#FFA8A7" d="M380.578 452.932l2.488 21.491c0 57.847-2.031 62.145-6.874 82.237-1.693 7.007-3.768 14.808-6.182 21.8a36.49 36.49 0 0 0-1.634 6.844v.104a39.132 39.132 0 0 0-.442 5.711 75.836 75.836 0 0 1-3.356 21.873c-2.576 8.831-5.887 18.87-9.582 29.512a323.376 323.376 0 0 1-107.055 10.716l34.444-63.559a33.077 33.077 0 0 0 3.474-21.637c-4.416-24.449-10.01-61.424-11.069-97.546-1.649-56.302 2.105-46.116 3.797-72.67a23.551 23.551 0 0 1 8.361-16.589l2.061-1.707 20.872-43.275a22.26 22.26 0 0 1 13.805-11.696 22.26 22.26 0 0 1 17.93 2.422l20.828 12.85c.453.28.836.658 1.122 1.106.285.449.465.957.527 1.485l2.796 23.919s15.161 22.815 16.192 31.647c.323 2.944-2.797 11.29-2.797 11.29l.294 43.672z"/><path fill="#263238" d="M448.023 176.693v3.238a102.21 102.21 0 0 1-3.724 27.437 101.14 101.14 0 0 1-10.451 24.626h.339a102.196 102.196 0 0 1-3.297 5.269h-.354a102.871 102.871 0 0 1-59.451 42.068l-2.017.486-1.148.265a101.728 101.728 0 0 1-22.565 2.502 102.735 102.735 0 0 1-15.882-1.221 98.887 98.887 0 0 1-9.848-2.032 105.434 105.434 0 0 1-7.359-2.193v.221a84.221 84.221 0 0 1-5.564-2.075 102.887 102.887 0 0 1-43.069-33.134 83.266 83.266 0 0 1-3.783-5.343 83.936 83.936 0 0 1-2.297-3.651 117.862 117.862 0 0 1-3.341-5.887 89.377 89.377 0 0 1-1.56-3.15 33.58 33.58 0 0 1-.78-1.664 125.94 125.94 0 0 1-1.075-2.443 102.744 102.744 0 0 1-7.963-39.743c0-1.972 0-3.93.162-5.887.132-2.238.324-4.416.603-6.668a102.554 102.554 0 0 1 39.743-69.182 103.407 103.407 0 0 1 22.462-13.026 98.697 98.697 0 0 1 6.785-2.561 103.038 103.038 0 0 1 67.71.632 99.353 99.353 0 0 1 6.565 2.62c3.494 1.53 6.9 3.255 10.2 5.167h.177a42.767 42.767 0 0 1 2.944 1.825c.942.648 1.987 1.266 2.944 1.929l.191.323a117.835 117.835 0 0 1 6.05 4.416 103.72 103.72 0 0 1 17.869 18.238c1.001 1.31 1.958 2.649 2.944 4.003l.486.721c.795 1.193 1.59 2.37 2.34 3.592.928 1.472 1.825 3.047 2.679 4.607l.074.147c.284.478.545.969.78 1.472.132.265.265.545.412.81.412.809.81 1.634 1.192 2.458a.389.389 0 0 1 0 .118v.088l.089.177.073.147.103.235a.389.389 0 0 1 0 .118l.427.928a101.238 101.238 0 0 1 8.258 28.482l.265 3.12c.103 1.045.191 2.105.279 3.15.089 1.045.118 1.914.162 2.944v.265c.206.294.221.662.221 1.016z"/><path fill="#5FBE3F" d="M448.023 176.693v3.238a102.21 102.21 0 0 1-3.724 27.437 101.14 101.14 0 0 1-10.451 24.626h.339a102.196 102.196 0 0 1-3.297 5.269h-.354a102.871 102.871 0 0 1-59.451 42.068l-2.017.486-1.148.265a101.728 101.728 0 0 1-22.565 2.502 102.735 102.735 0 0 1-15.882-1.221 98.887 98.887 0 0 1-9.848-2.032 105.434 105.434 0 0 1-7.359-2.193v.221a84.221 84.221 0 0 1-5.564-2.075 102.887 102.887 0 0 1-43.069-33.134 83.266 83.266 0 0 1-3.783-5.343 83.936 83.936 0 0 1-2.297-3.651 117.862 117.862 0 0 1-3.341-5.887 89.377 89.377 0 0 1-1.56-3.15 33.58 33.58 0 0 1-.78-1.664 125.94 125.94 0 0 1-1.075-2.443 102.744 102.744 0 0 1-7.963-39.743c0-1.972 0-3.93.162-5.887.132-2.238.324-4.416.603-6.668a102.554 102.554 0 0 1 39.743-69.182 103.407 103.407 0 0 1 22.462-13.026 98.697 98.697 0 0 1 6.785-2.561 103.038 103.038 0 0 1 67.71.632 99.353 99.353 0 0 1 6.565 2.62c3.494 1.53 6.9 3.255 10.2 5.167h.177a42.767 42.767 0 0 1 2.944 1.825c.942.648 1.987 1.266 2.944 1.929l.191.323a117.835 117.835 0 0 1 6.05 4.416 103.72 103.72 0 0 1 17.869 18.238c1.001 1.31 1.958 2.649 2.944 4.003l.486.721c.795 1.193 1.59 2.37 2.34 3.592.928 1.472 1.825 3.047 2.679 4.607l.074.147 2.399 4.74a.466.466 0 0 1 0 .118v.088l.088.177.074.147.103.235a.466.466 0 0 1 0 .118l.427.928a101.238 101.238 0 0 1 8.258 28.482l.264 3.12c.104 1.045.192 2.105.28 3.15.088 1.045.118 1.914.162 2.944v.265c.191.294.206.662.206 1.016z"/><path fill="#5FBE3F" d="M361.046 167.861h-44.939V173.248l.398.383c-.133.147-.265.264-.398.397v.574h25.774l12.732-.103 12.585-.147 12.409-.177c.073-2.222.147-4.416.206-6.682h1.678l-20.445.368zm86.947 7.757c0 .412-.073.824-.103 1.236-.824 10.539-2.001 20.799-3.532 30.513a102.204 102.204 0 0 0 3.724-27.437v-3.238c-.059-.353-.074-.721-.089-1.074zm-86.947-7.757h-44.939V173.248l.398.383c-.133.147-.265.264-.398.397v.574h25.774l12.732-.103 12.585-.147 12.409-.177c.073-2.222.147-4.416.206-6.682h1.678l-20.445.368zm0 0h-44.939V173.248l.398.383c-.133.147-.265.264-.398.397v.574h25.774l12.732-.103 12.585-.147 12.409-.177c.073-2.222.147-4.416.206-6.682h1.678l-20.445.368zm0 0h-44.939V173.248l.398.383c-.133.147-.265.264-.398.397v.574h25.774l12.732-.103 12.585-.147 12.409-.177c.073-2.222.147-4.416.206-6.682h1.678l-20.445.368zm0 0h-44.939V173.248l.398.383c-.133.147-.265.264-.398.397v.574h25.774l12.732-.103 12.585-.147 12.409-.177c.073-2.222.147-4.416.206-6.682h1.678l-20.445.368zm0 0h-44.939V173.248l.398.383c-.133.147-.265.264-.398.397v.574h25.774l12.732-.103 12.585-.147 12.409-.177c.073-2.222.147-4.416.206-6.682h1.678l-20.445.368zm0 0h-44.939V173.248l.398.383c-.133.147-.265.264-.398.397v.574h25.774l12.732-.103 12.585-.147 12.409-.177c.073-2.222.147-4.416.206-6.682h1.678l-20.445.368zm0 0h-44.939V173.248l.398.383c-.133.147-.265.264-.398.397v.574h25.774l12.732-.103 12.585-.147 12.409-.177c.073-2.222.147-4.416.206-6.682h1.678l-20.445.368zm0 0h-44.939V173.248l.398.383-.413.397v.589h25.774l12.733-.103 12.585-.148 12.408-.176c.074-2.223.147-4.416.206-6.683h1.678l-20.43.354zm0 0h-44.939V173.248l.398.383-.413.397v.589h25.774l12.733-.103 12.585-.148 12.408-.176c.074-2.223.147-4.416.206-6.683h1.678l-20.43.354zm18.723-.207h1.678l-20.401.236h-44.939V173.277l.398.383-.413.397v.589h-3.429v2.782c0 21.888 0 42.613-.118 60.07 21.638 0 43.261-.515 63.897-1.472 1.06-8.11 1.987-16.912 2.738-26.215.162-2.031.324-4.077.471-6.153a813.951 813.951 0 0 0 1.59-29.571h-1.678c.073-1.973.147-4.195.206-6.433zm1.766-54.947c0-1.001 0-2.002-.073-2.944-.118-3.592-.236-7.139-.383-10.657a3331.238 3331.238 0 0 0-68.431-.736v69.8h.618c.275.014.55.014.825 0h44.938l20.401-.236c2.547-18.443 2.576-37.137 2.105-55.227zm-20.489 55.154h-44.939V173.248l.398.383-.413.397v.589h25.774l12.733-.103 12.585-.148 12.408-.176c.074-2.223.147-4.416.206-6.683h1.678l-20.43.354zm0 0h-44.939V173.248l.398.383-.413.397v.589h25.774l12.733-.103 12.585-.148 12.408-.176c.074-2.223.147-4.416.206-6.683h1.678l-20.43.354zm0 0h-44.939V173.248l.398.383-.413.397v.589h25.774l12.733-.103 12.585-.148 12.408-.176c.074-2.223.147-4.416.206-6.683h1.678l-20.43.354zm0 0h-44.939V173.248l.398.383c-.133.147-.265.264-.398.397v.574h25.774l12.732-.103 12.585-.147 12.409-.177c.073-2.222.147-4.416.206-6.682h1.678l-20.445.368zm0 0h-44.939V173.248l.398.383c-.133.147-.265.264-.398.397v.574h25.774l12.732-.103 12.585-.147 12.409-.177c.073-2.222.147-4.416.206-6.682h1.678l-20.445.368zm0 0h-44.939V173.248l.398.383c-.133.147-.265.264-.398.397v.574h25.774l12.732-.103 12.585-.147 12.409-.177c.073-2.222.147-4.416.206-6.682h1.678l-20.445.368zm0 0h-44.939V173.248l.398.383c-.133.147-.265.264-.398.397v.574h25.774l12.732-.103 12.585-.147 12.409-.177c.073-2.222.147-4.416.206-6.682h1.678l-20.445.368zm0 0h-44.939V173.248l.398.383c-.133.147-.265.264-.398.397v.574h25.774l12.732-.103 12.585-.147 12.409-.177c.073-2.222.147-4.416.206-6.682h1.678l-20.445.368zm0 0h-44.939V173.248l.398.383c-.133.147-.265.264-.398.397v.574h25.774l12.732-.103 12.585-.147 12.409-.177c.073-2.222.147-4.416.206-6.682h1.678l-20.445.368zm0 0h-44.939V173.248l.398.383c-.133.147-.265.264-.398.397v.574h25.774l12.732-.103 12.585-.147 12.409-.177c.073-2.222.147-4.416.206-6.682h1.678l-20.445.368zm86.491 1.471l-.265-3.12h-.162c-16.75.559-35.518 1.001-55.404 1.31h-3.812c0-1.31.088-2.635.118-3.96.588-21.431.412-43.51-.53-64.368h2.487l6.109.162 13.247.398a90.66 90.66 0 0 0-6.049-4.416l-.192-.324c-.986-.662-1.972-1.31-2.944-1.928h-.294l-6.462-.206-6.152-.162c-.118-2.194-.236-4.416-.368-6.521a72.663 72.663 0 0 0-6.565-2.62c.176 2.944.338 5.937.485 8.979-21.946-.545-45.026-.825-68.136-.84v-8.83a98.971 98.971 0 0 0-6.786 2.56v6.212h-12.423a100.69 100.69 0 0 0-9.921 6.668c7.36 0 14.867-.088 22.33-.103a9946.163 9946.163 0 0 0 0 69.741c-20.431 0-40.773-.148-60.35-.398h-1.811a98.512 98.512 0 0 0-.603 6.668h2.635c11.113.177 22.491.309 34.016.383H305.804c0 22.918.191 44.659.368 62.837-15.559 0-31.088-.353-46.205-.898a83.663 83.663 0 0 0 3.783 5.343c13.925.501 28.173.766 42.436.81.147 13.247.339 24.272.56 32.088v.442a84.011 84.011 0 0 0 5.564 2.075v-.22c.088-7.875.147-19.71.191-34.164 21.387 0 42.76-.53 63.176-1.472-.52 3.562-1.08 6.952-1.678 10.171-.177 1.03-.368 2.031-.56 3.017-2.149 11.04-4.725 19.827-7.713 25.436a935.376 935.376 0 0 1-36.224 1.28 102.736 102.736 0 0 0 15.882 1.222c7.592.01 15.16-.829 22.565-2.502l1.148-.265 2.017-.486c4.327-7.801 7.86-21.255 10.568-38.197 17.251-.942 33.737-2.237 48.884-3.871h.353a101.796 101.796 0 0 0 3.297-5.27h-.339c-15.838 1.693-33.192 2.944-51.415 3.96a618.63 618.63 0 0 0 5.226-61.822c20.313-.383 39.507-.913 56.684-1.604h1.296l2.119-.089a81.5 81.5 0 0 0-.25-3.179v.073z"/><path fill="#fff" d="M361.046 167.861h-44.939V173.248l.398.383c-.133.147-.265.264-.398.397v.574h25.774l12.732-.103 12.585-.147 12.409-.177c.074-2.222.147-4.416.206-6.682h1.678l-20.445.368zm86.977 8.831v-1.074c0 .412-.074.824-.103 1.236-.824 10.539-2.002 20.799-3.533 30.513a102.204 102.204 0 0 0 3.724-27.437c-.029-1.089-.044-2.163-.088-3.238zm-86.977-8.831h-44.939V173.248l.398.383c-.133.147-.265.264-.398.397v.574h25.774l12.732-.103 12.585-.147 12.409-.177c.074-2.222.147-4.416.206-6.682h1.678l-20.445.368zm0 0h-44.939V173.248l.398.383c-.133.147-.265.264-.398.397v.574h25.774l12.732-.103 12.585-.147 12.409-.177c.074-2.222.147-4.416.206-6.682h1.678l-20.445.368zm0 0h-44.939V173.248l.398.383c-.133.147-.265.264-.398.397v.574h25.774l12.732-.103 12.585-.147 12.409-.177c.074-2.222.147-4.416.206-6.682h1.678l-20.445.368zm0 0h-44.939V173.248l.398.383c-.133.147-.265.264-.398.397v.574h25.774l12.732-.103 12.585-.147 12.409-.177c.074-2.222.147-4.416.206-6.682h1.678l-20.445.368zm0 0h-44.939V173.248l.398.383c-.133.147-.265.264-.398.397v.574h25.774l12.732-.103 12.585-.147 12.409-.177c.074-2.222.147-4.416.206-6.682h1.678l-20.445.368zm0 0h-44.939V173.248l.398.383c-.133.147-.265.264-.398.397v.574h25.774l12.732-.103 12.585-.147 12.409-.177c.074-2.222.147-4.416.206-6.682h1.678l-20.445.368zm0 0h-44.939V173.248l.398.383c-.133.147-.265.264-.398.397v.574h25.774l12.732-.103 12.585-.147 12.409-.177c.074-2.222.147-4.416.206-6.682h1.678l-20.445.368zm0 0h-44.939V173.248l.398.383-.413.397v.589h25.774l12.733-.103 12.585-.148 12.408-.176c.074-2.223.147-4.416.206-6.683h1.678l-20.43.354zm0 0h-44.939V173.248l.398.383-.413.397v.589h25.774l12.733-.103 12.585-.148 12.408-.176c.074-2.223.147-4.416.206-6.683h1.678l-20.43.354zm0 0h-44.939V173.248l.398.383-.413.397v.589h25.774l12.733-.103 12.585-.148 12.408-.176c.074-2.223.147-4.416.206-6.683h1.678l-20.43.354zm0 0h-44.939V173.248l.398.383-.413.397v.589h25.774l12.733-.103 12.585-.148 12.408-.176c.074-2.223.147-4.416.206-6.683h1.678l-20.43.354zm0 0h-44.939V173.248l.398.383-.413.397v.589h25.774l12.733-.103 12.585-.148 12.408-.176c.074-2.223.147-4.416.206-6.683h1.678l-20.43.354zm0 0h-44.939V173.248l.398.383-.413.397v.589h25.774l12.733-.103 12.585-.148 12.408-.176c.074-2.223.147-4.416.206-6.683h1.678l-20.43.354zm0 0h-44.939V173.248l.398.383c-.133.147-.265.264-.398.397v.574h25.774l12.732-.103 12.585-.147 12.409-.177c.074-2.222.147-4.416.206-6.682h1.678l-20.445.368zm0 0h-44.939V173.248l.398.383c-.133.147-.265.264-.398.397v.574h25.774l12.732-.103 12.585-.147 12.409-.177c.074-2.222.147-4.416.206-6.682h1.678l-20.445.368zm0 0h-44.939V173.248l.398.383c-.133.147-.265.264-.398.397v.574h25.774l12.732-.103 12.585-.147 12.409-.177c.074-2.222.147-4.416.206-6.682h1.678l-20.445.368zm0 0h-44.939V173.248l.398.383c-.133.147-.265.264-.398.397v.574h25.774l12.732-.103 12.585-.147 12.409-.177c.074-2.222.147-4.416.206-6.682h1.678l-20.445.368zm0 0h-44.939V173.248l.398.383c-.133.147-.265.264-.398.397v.574h25.774l12.732-.103 12.585-.147 12.409-.177c.074-2.222.147-4.416.206-6.682h1.678l-20.445.368zm0 0h-44.939V173.248l.398.383c-.133.147-.265.264-.398.397v.574h25.774l12.732-.103 12.585-.147 12.409-.177c.074-2.222.147-4.416.206-6.682h1.678l-20.445.368zm0 0h-44.939V173.248l.398.383c-.133.147-.265.264-.398.397v.574h25.774l12.732-.103 12.585-.147 12.409-.177c.074-2.222.147-4.416.206-6.682h1.678l-20.445.368zm86.491 1.471l-.265-3.12h-.162c-16.75.559-35.518 1.001-55.404 1.31h-3.812c0-1.31.088-2.635.118-3.96.588-21.431.412-43.51-.53-64.368h2.487l6.109.162 13.247.398a90.66 90.66 0 0 0-6.049-4.416l-.192-.324c-.986-.662-1.972-1.31-2.943-1.928h-.295l-6.462-.206-6.152-.162c-.118-2.194-.236-4.416-.368-6.521a72.663 72.663 0 0 0-6.565-2.62c.176 2.944.338 5.937.485 8.979-21.946-.545-45.026-.825-68.136-.84v-8.83a98.971 98.971 0 0 0-6.786 2.56v6.212h-12.423a100.69 100.69 0 0 0-9.921 6.668c7.36 0 14.867-.088 22.33-.103a9946.163 9946.163 0 0 0 0 69.741c-20.431 0-40.773-.148-60.35-.398h-1.811a98.512 98.512 0 0 0-.603 6.668h2.635c11.113.177 22.491.309 34.016.383H305.804c0 22.918.191 44.659.368 62.837-15.559 0-31.088-.353-46.205-.898a83.663 83.663 0 0 0 3.783 5.343c13.925.501 28.173.766 42.436.81.147 13.247.339 24.272.56 32.088v.442a84.011 84.011 0 0 0 5.564 2.075v-.22c.088-7.875.147-19.71.191-34.164 21.387 0 42.76-.53 63.176-1.472-.52 3.562-1.08 6.952-1.678 10.171-.177 1.03-.368 2.031-.56 3.017-2.149 11.04-4.725 19.827-7.713 25.436a935.376 935.376 0 0 1-36.224 1.28 102.736 102.736 0 0 0 15.882 1.222c7.592.01 15.16-.829 22.565-2.502l1.148-.265 2.017-.486c4.327-7.801 7.86-21.255 10.568-38.197 17.252-.942 33.737-2.237 48.884-3.871h.353a101.796 101.796 0 0 0 3.297-5.27h-.338c-15.839 1.693-33.193 2.944-51.416 3.96a618.333 618.333 0 0 0 5.226-61.822c20.313-.383 39.507-.913 56.684-1.604h1.296l2.119-.089a81.5 81.5 0 0 0-.25-3.179v.073zm-67.886 34.591a690.205 690.205 0 0 1-.471 6.153c-.751 9.303-1.678 18.105-2.738 26.215-20.607.972-42.259 1.472-63.897 1.472 0-17.457.088-38.182.118-60.07v-2.782h29.218l12.732-.103 12.585-.147 12.409-.177h1.678c-.412 9.98-.942 19.901-1.634 29.395v.044zm1.796-36.254l-20.401.236h-44.939c-.274.014-.55.014-.824 0h-.648v-3.562-66.238c23.213 0 46.396.265 68.431.736.147 3.518.265 7.065.383 10.657 0 .986 0 1.987.073 2.944-1.516 18.355-1.545 37.049-2.075 55.183v.044z" opacity=".8"/><path fill="#5FBE3F" d="M381.243 174.308a813.951 813.951 0 0 1-1.59 29.571 690.205 690.205 0 0 1-.471 6.153c-.751 9.303-1.678 18.105-2.738 26.215-20.607.972-42.26 1.472-63.897 1.472 0-17.457.088-38.182.118-60.07v-2.782h29.218l12.732-.103 12.585-.147 12.409-.177 1.634-.132zM381.446 167.625l-20.401.236H316.107c-.275.015-.55.015-.825 0h-.647v-3.562-66.238c23.212 0 46.395.265 68.43.736.148 3.518.265 7.066.383 10.657 0 .986 0 1.987.074 2.944-1.516 18.399-1.546 37.093-2.076 55.227z"/><path fill="#263238" d="M312.325 173.881l-5.55-4.799 5.55-4.827 5.549 4.827-5.549 4.799zM403.379 95.368l-.192-.324a141.278 141.278 0 0 0-5.887-3.754h-.177l-3.592 1.472-1.266.545-4.342 3.915 2.179 1.914 3.194 2.826 2.944-2.664.618-.56 6.933-2.944-.412-.426zm-21.918 14.351l-3.709-3.282a1580.238 1580.238 0 0 1-10.436 9.332l5.461 4.916 8.758-7.904 1.634-1.472-1.708-1.59zM356.6 125.307l-10.922 9.685 5.506 4.872c3.67-3.238 7.305-6.466 10.907-9.685l-5.491-4.872zm-21.991 19.444l-11.142 9.789 5.534 4.857 11.128-9.759-5.52-4.887z"/><g fill="#000" opacity=".5"><path d="M424.78 130.12h-5.785l-5.74 6.153 4.313 4.71c1.324-1.472 2.634-2.944 3.93-4.298h3.282c.044-2.178.03-4.371 0-6.565zm-19.768 15.044a4817.684 4817.684 0 0 0-8.552 8.993 602.896 602.896 0 0 1 4.416 4.696c2.885-3.003 5.726-5.996 8.522-8.979-1.472-1.56-2.914-3.135-4.386-4.71zm-75.967 22.888v6.786H341.924c0-2.237 0-4.504.089-6.771l-12.968-.015zm32-.191h-6.344c0 2.267-.088 4.504-.133 6.742l12.586-.148c.073-2.222.132-4.415.176-6.712l-6.285.118zm30.719-.383l-3.694-3.9-.368-.383c-1.472 1.472-2.944 2.944-4.342 4.416H379.768c0 2.237-.132 4.416-.206 6.682h1.678l4.578-.073 6.3-6.374-.354-.368zM316.106 174.883h-6.874v-6.801h6.874v6.801z" opacity=".5"/><g opacity=".2"><path d="M424.78 130.12h-5.785l-5.74 6.153 4.313 4.71c1.324-1.472 2.634-2.944 3.93-4.298h3.282c.044-2.178.03-4.371 0-6.565zm-19.768 15.044a4817.684 4817.684 0 0 0-8.552 8.993 602.896 602.896 0 0 1 4.416 4.696c2.885-3.003 5.726-5.996 8.522-8.979-1.472-1.56-2.914-3.135-4.386-4.71zm-75.967 22.888v6.786H341.924c0-2.237 0-4.504.089-6.771l-12.968-.015zm32-.191h-6.344c0 2.267-.088 4.504-.133 6.742l12.586-.148c.073-2.222.132-4.415.176-6.712l-6.285.118zm30.719-.383l-3.694-3.9-.368-.383c-1.472 1.472-2.944 2.944-4.342 4.416H379.768c0 2.237-.132 4.416-.206 6.682h1.678l4.578-.073 6.3-6.374-.354-.368zM316.106 174.883h-6.874v-6.801h6.874v6.801z" opacity=".2"/></g></g><g fill="#000" opacity=".3"><path d="M311.691 178.665l-4.857-4.784 4.857-4.798 4.858 4.798-4.858 4.784zM447.994 175.618v-.265l-2.355-2.826c-.191-.236-.382-.486-.589-.722l-.706.781a634.203 634.203 0 0 1-8.081 8.831c1.207 1.472 2.385 2.812 3.547 4.21a543.259 543.259 0 0 0 8.022-8.832.63.63 0 0 0 .133-.162c.059-.294.044-.662.029-1.015zM326.5 183.713l-4.857 4.711c3.297 3.209 6.564 6.378 9.803 9.508l4.857-4.607a2824.78 2824.78 0 0 1-9.803-9.612zm100.681 7.257a455.353 455.353 0 0 1-9.509 9.494 420.763 420.763 0 0 1 3.636 4.048 706.902 706.902 0 0 0 9.406-9.406l-3.533-4.136zm-79.249 13.616l-2.076-2.017-4.843 4.519 3.93 3.753 10.613-.191c.103-2.046.206-4.121.309-6.212l-7.933.148zm31.72-.766c-3.386.118-6.815.221-10.304.309a708.996 708.996 0 0 1-.412 6.168c3.425-.089 6.82-.196 10.186-.324l3.032-.103c.177-2.031.339-4.077.501-6.138a39.4 39.4 0 0 1-3.003.147v-.059zm16.074-.574a362.982 362.982 0 0 1-.574 6.094c4.253-.177 8.463-.383 12.599-.603.221-2.002.442-4.019.648-6.05-4.166.265-8.39.427-12.673.618v-.059z" opacity=".3"/><g opacity=".3"><path d="M311.691 178.665l-4.857-4.784 4.857-4.798 4.858 4.798-4.858 4.784zM447.994 175.618v-.265l-2.355-2.826c-.191-.236-.382-.486-.589-.722l-.706.781a634.203 634.203 0 0 1-8.081 8.831c1.207 1.472 2.385 2.812 3.547 4.21a543.259 543.259 0 0 0 8.022-8.832.63.63 0 0 0 .133-.162c.059-.294.044-.662.029-1.015zM326.5 183.713l-4.857 4.711c3.297 3.209 6.564 6.378 9.803 9.508l4.857-4.607a2824.78 2824.78 0 0 1-9.803-9.612zm100.681 7.257a455.353 455.353 0 0 1-9.509 9.494 420.763 420.763 0 0 1 3.636 4.048 706.902 706.902 0 0 0 9.406-9.406l-3.533-4.136zm-79.249 13.616l-2.076-2.017-4.843 4.519 3.93 3.753 10.613-.191c.103-2.046.206-4.121.309-6.212l-7.933.148zm31.72-.766c-3.386.118-6.815.221-10.304.309a708.996 708.996 0 0 1-.412 6.168c3.425-.089 6.82-.196 10.186-.324l3.032-.103c.177-2.031.339-4.077.501-6.138a39.4 39.4 0 0 1-3.003.147v-.059zm16.074-.574a362.982 362.982 0 0 1-.574 6.094c4.253-.177 8.463-.383 12.599-.603.221-2.002.442-4.019.648-6.05-4.166.265-8.39.427-12.673.618v-.059z" opacity=".3"/></g></g><path fill="#5FBE3F" d="M375.959 260.328a104.979 104.979 0 0 1-1.031 4.019v.279l-.353 1.281c-.442 1.56-.883 3.047-1.354 4.416-.089.206-.147.412-.221.618l-.265.765c-.074.251-.177.501-.265.751-.115.36-.247.714-.397 1.06-.619 1.634-1.251 3.121-1.914 4.416a32.407 32.407 0 0 1-.824 1.604l-.133.192-1.148.265a101.774 101.774 0 0 1-22.565 2.502 102.755 102.755 0 0 1-15.882-1.222 99.149 99.149 0 0 1-9.847-2.031c0-.501 0-1.016.103-1.56.103-.545.088-1.384.132-2.12.044-.736.089-1.472.133-2.296.044-.825.088-1.619.118-2.473v-1.295c.103-2.297.206-4.784.309-7.448.117-4.034 5.063-7.758 11.039-7.846 12.055-.206 23.993-.574 35.68-1.119a10.307 10.307 0 0 1 6.212 1.472 5.13 5.13 0 0 1 2.224 2.462 5.129 5.129 0 0 1 .249 3.308z"/><path fill="#000" d="M375.959 260.328a104.979 104.979 0 0 1-1.031 4.019v.279l-.353 1.281c-.442 1.56-.883 3.047-1.354 4.416-.089.206-.147.412-.221.618l-.265.765c-.074.251-.177.501-.265.751-.115.36-.247.714-.397 1.06-.619 1.634-1.251 3.121-1.914 4.416a32.407 32.407 0 0 1-.824 1.604l-.133.192-1.148.265a101.774 101.774 0 0 1-22.565 2.502 102.755 102.755 0 0 1-15.882-1.222 99.149 99.149 0 0 1-9.847-2.031c0-.501 0-1.016.103-1.56.103-.545.088-1.384.132-2.12.044-.736.089-1.472.133-2.296.044-.825.088-1.619.118-2.473v-1.295c.103-2.297.206-4.784.309-7.448.117-4.034 5.063-7.758 11.039-7.846 12.055-.206 23.993-.574 35.68-1.119a10.307 10.307 0 0 1 6.212 1.472 5.13 5.13 0 0 1 2.224 2.462 5.129 5.129 0 0 1 .249 3.308z" opacity=".3"/><path fill="#5FBE3F" d="M376.606 257.576a113.8 113.8 0 0 1-.647 2.767 104.979 104.979 0 0 1-1.031 4.019v.279l-.353 1.281c-.442 1.56-.883 3.047-1.354 4.416-.162.471-.309.927-.486 1.383-.177.457-.177.501-.265.751-.115.36-.247.714-.397 1.06-.619 1.634-1.251 3.12-1.914 4.416a5.45 5.45 0 0 1-2.105 2.061 101.774 101.774 0 0 1-22.565 2.502 102.755 102.755 0 0 1-15.882-1.222 99.149 99.149 0 0 1-9.847-2.031c0-.501 0-1.016.103-1.56.103-.545.088-1.384.132-2.12.044-.736.089-1.472.133-2.296.044-.825.088-1.619.118-2.473v-1.295c.103-2.297.206-4.784.309-7.448 0-.913.029-1.84.088-2.782.118-4.196 5.108-8.052 11.143-8.14a1235.52 1235.52 0 0 0 35.989-1.119 10.459 10.459 0 0 1 6.27 1.472 5.473 5.473 0 0 1 2.561 6.079z"/><path fill="#fff" d="M376.606 257.576a113.8 113.8 0 0 1-.647 2.767 104.979 104.979 0 0 1-1.031 4.019v.279l-.353 1.281c-.442 1.56-.883 3.047-1.354 4.416-.162.471-.309.927-.486 1.383-.177.457-.177.501-.265.751-.115.36-.247.714-.397 1.06-.619 1.634-1.251 3.12-1.914 4.416a5.45 5.45 0 0 1-2.105 2.061 101.774 101.774 0 0 1-22.565 2.502 102.755 102.755 0 0 1-15.882-1.222 99.149 99.149 0 0 1-9.847-2.031c0-.501 0-1.016.103-1.56.103-.545.088-1.384.132-2.12.044-.736.089-1.472.133-2.296.044-.825.088-1.619.118-2.473v-1.295c.103-2.297.206-4.784.309-7.448 0-.913.029-1.84.088-2.782.118-4.196 5.108-8.052 11.143-8.14a1235.52 1235.52 0 0 0 35.989-1.119 10.459 10.459 0 0 1 6.27 1.472 5.473 5.473 0 0 1 2.561 6.079z" opacity=".8"/><path fill="#000" d="M346.328 274.459a154.175 154.175 0 0 0 1.693-9.097 3.639 3.639 0 0 0-1.266-3.694 7.83 7.83 0 0 0-5.108-1.222 9.71 9.71 0 0 0-5.431 1.472 5.078 5.078 0 0 0-2.194 3.798 232.784 232.784 0 0 1-1.059 9.082 2.409 2.409 0 0 0 1.28 2.679 9.337 9.337 0 0 0 4.681.765c.574 0 1.119 0 1.619-.103.501-.103.986-.132 1.472-.221.314.33.728.547 1.178.618a8.478 8.478 0 0 0 2.281.162h.574c.177-.603.353-1.236.515-1.899h-.382c-.265.018-.53.018-.795 0a.482.482 0 0 1-.353-.25 3.726 3.726 0 0 0 1.295-2.09zm-2.87-9.155c-.486 3.518-1.001 6.682-1.546 9.449a1.546 1.546 0 0 1-.854 1.163 3.9 3.9 0 0 1-1.707.368 3.015 3.015 0 0 1-1.59-.279.977.977 0 0 1-.412-1.134c.471-2.752.913-5.888 1.325-9.435a1.963 1.963 0 0 1 .824-1.472 3.373 3.373 0 0 1 1.811-.486 2.602 2.602 0 0 1 1.692.398 1.477 1.477 0 0 1 .457 1.428zM363.606 261.006a6.994 6.994 0 0 0-4.886-1.134 9.639 9.639 0 0 0-5.388 1.575 5.724 5.724 0 0 0-2.355 3.813c-.103.633-.221 1.251-.324 1.854l4.284-.162c.132-.677.265-1.354.397-2.06a2.224 2.224 0 0 1 .913-1.472 3.498 3.498 0 0 1 1.825-.515 2.412 2.412 0 0 1 1.634.397c.368.294.456.898.279 1.766a5.414 5.414 0 0 1-1.177 2.429 11.005 11.005 0 0 1-2.061 1.884 26.399 26.399 0 0 1-2.473 1.605c-.84.473-1.655.989-2.443 1.545a11.613 11.613 0 0 0-2.002 1.693 4.408 4.408 0 0 0-1.133 1.943 36.868 36.868 0 0 1-.471 1.722c4.121-.147 8.213-.324 12.276-.53.25-.633.485-1.31.721-2.016-2.694.132-5.402.265-8.125.368a1.788 1.788 0 0 1 .706-1.281c.579-.494 1.2-.937 1.855-1.325a47.643 47.643 0 0 1 2.517-1.472 24.514 24.514 0 0 0 2.694-1.81 13.593 13.593 0 0 0 2.281-2.223 6.57 6.57 0 0 0 1.369-2.826 3.504 3.504 0 0 0-.913-3.768z"/><path fill="#263238" d="M309.218 168.082v6.8h-29.483a3584.049 3584.049 0 0 1-34.016-.382h-2.635c.132-2.238.324-4.416.603-6.668h1.767c19.518.25 39.86.368 60.35.397l3.414-.147z"/><path fill="#263238" d="M309.219 178.842a7.228 7.228 0 1 0 0-14.456 7.228 7.228 0 0 0 0 14.456z"/><path fill="#fff" d="M448.215 180.049a102.403 102.403 0 1 1-11.849-47.912 102.674 102.674 0 0 1 11.849 47.912z" opacity=".2"/><path fill="#fff" d="M448.215 180.048a102.669 102.669 0 0 1-102.668 102.668l102.668-102.668zM245.733 204.115a102.764 102.764 0 0 1 28.987-98.311 102.766 102.766 0 0 1 99.558-24.361L245.733 204.115zM436.365 132.136L294.882 269.351a102.828 102.828 0 0 1-23.124-17.958l146.797-143.514a102.306 102.306 0 0 1 17.81 24.257z" opacity=".2"/><path fill="#C9CCCD" stroke="#263238" stroke-linecap="round" stroke-linejoin="round" d="M404.527 283.791l-41.406 30.322h-35.15l-41.391-30.322h117.947z"/><path fill="#C9CCCD" stroke="#263238" stroke-linecap="round" stroke-linejoin="round" d="M345.547 60.733a119.33 119.33 0 0 0-58.966 223.073v0a119.33 119.33 0 1 0 58.966-223.073v0zm0 221.984a102.67 102.67 0 0 1-72.597-175.266 102.667 102.667 0 0 1 175.265 72.598 102.646 102.646 0 0 1-30.066 72.601 102.652 102.652 0 0 1-72.602 30.067v0z"/><path fill="#263238" d="M361.546 314.113h-33.575v209.105h33.575V314.113z"/><path stroke="#263238" stroke-miterlimit="10" d="M322.994 91.732a91.955 91.955 0 0 1 21.638-2.561M252.945 180.843a91.687 91.687 0 0 1 53.829-83.518"/><path fill="#FFA8A7" d="M379.4 458.511c-15.706-43.305-15.632-50.326-16.545-76.541-.294-8.184-.132-16.471-2.075-24.434-1.943-7.964-6.815-18.385-14.926-19.592-5.961-.898-11.849 2.944-15.028 8.081-3.18 5.137-4.151 11.29-4.725 17.295a165.946 165.946 0 0 0 4.342 57.2c-5.785 13.321-3.577 23.286-7.213 43.584v85.373h52.299s14.013-62.822 3.871-90.966z"/><path stroke="#263238" stroke-linecap="round" stroke-linejoin="round" d="M378.018 549.374s11.525-62.719 1.31-90.863c-15.706-43.305-15.632-50.326-16.545-76.541-.294-8.184-.133-16.471-2.075-24.434-1.943-7.964-6.816-18.385-14.926-19.592-5.961-.898-11.849 2.944-15.029 8.081-3.179 5.137-4.15 11.29-4.724 17.295a165.946 165.946 0 0 0 4.342 57.2c-5.785 13.321-3.577 23.286-7.213 43.584"/><path fill="#fff" d="M366.89 366.5a14.189 14.189 0 0 1-3.945 13.66"/><path stroke="#263238" stroke-linecap="round" stroke-linejoin="round" d="M366.89 366.5a14.189 14.189 0 0 1-3.945 13.66"/><path fill="#fff" d="M352.714 346.614a47.694 47.694 0 0 1 0 12.541 34.275 34.275 0 0 1-19.797.692 22.807 22.807 0 0 1-.412-11.393"/><path stroke="#263238" stroke-linecap="round" stroke-linejoin="round" d="M352.714 346.614a47.694 47.694 0 0 1 0 12.541 34.275 34.275 0 0 1-19.797.692 22.807 22.807 0 0 1-.412-11.393"/><path fill="#fff" d="M334.301 436.049a397.407 397.407 0 0 0 1.472 5.741z"/><path stroke="#263238" stroke-linecap="round" stroke-linejoin="round" d="M334.301 436.049a397.407 397.407 0 0 0 1.472 5.741"/><path fill="#fff" d="M329.355 416.546c.486 1.987 2.503 9.95 4.269 17.03z"/><path stroke="#263238" stroke-linecap="round" stroke-linejoin="round" d="M329.355 416.546c.486 1.987 2.503 9.95 4.269 17.03"/><path fill="#fff" d="M364.24 435.755c0 3.106.162 5.888.368 8.317z"/><path stroke="#263238" stroke-linecap="round" stroke-linejoin="round" d="M364.24 435.755c0 3.106.162 5.888.368 8.317"/><path fill="#fff" d="M363.504 396.763c.868 10.818.5 22.638.648 34.016z"/><path stroke="#263238" stroke-linecap="round" stroke-linejoin="round" d="M363.504 396.763c.868 10.818.5 22.638.648 34.016"/><path fill="#fff" d="M380.533 407.126a180.014 180.014 0 0 1-13.012 15.382z"/><path stroke="#263238" stroke-linecap="round" stroke-linejoin="round" d="M380.533 407.126a180.014 180.014 0 0 1-13.012 15.382"/><path fill="#fff" d="M373.029 439.582a26.479 26.479 0 0 0 6.874-7.081z"/><path stroke="#263238" stroke-linecap="round" stroke-linejoin="round" d="M373.029 439.582a26.479 26.479 0 0 0 6.874-7.081M280.854 433.002c2.62 10.303-3.37 21.152-2.193 31.779M277.838 409.186c.633 6.109 1.104 10.775 1.737 16.883M301.389 527.752a177.797 177.797 0 0 0 3.459 5.063M335.125 368.487l16.383-1.252M329.517 377.319c-4.519 2.34 17.811-5.417 18.812-5.505M333.77 383.339c-1.649.868 16.103-3.165 19.812-2.149M324.939 334.441c2.267 4.004 5.344 6.771 5.432 11.363M315.988 358.948a81.827 81.827 0 0 1 8.744 8.037"/><path fill="#fff" d="M363.504 394.953a11.77 11.77 0 0 1 10.775.397"/><path stroke="#263238" stroke-linecap="round" stroke-linejoin="round" d="M363.504 394.953a11.77 11.77 0 0 1 10.775.397M311.029 396.763c4.416 1.472 9.715 4.872 15.986 7.065M326.133 416.119l-10.186 7.786"/><path fill="#fff" d="M346.518 644.698a285.706 285.706 0 0 0 21.858-59.364z"/><path stroke="#263238" stroke-linecap="round" stroke-linejoin="round" d="M346.518 644.698a285.706 285.706 0 0 0 21.858-59.364"/><path fill="#263238" d="M372.776 568.892c-2.252 7.169-8.214 30.44-9.008 31.529a244.422 244.422 0 0 1 2.428-29.439 70.285 70.285 0 0 1 4.666-17.177c3.018-7.36 7.949-19.768 12.571-33.575 0-.015-3.71 26.598-10.657 48.662z"/></svg>