<svg xmlns="http://www.w3.org/2000/svg" fill="none" viewBox="0 0 412 412"><path fill="#5A9F2B" d="M409.838 244.902l-7.221-15.216 8.315-14.23h.109s.109 0 .109.109l.329 5.911-1.641 23.426c.109 0 .109 0 0 0 .109 0 0 0 0 0z"/><path fill="#5A9F2B" d="M411.041 215.456l.328 5.911-1.531 23.426-7.111-15.107 8.314-14.23z"/><path fill="#61A337" d="M402.727 229.686c-.109 0-.109 0 0 0l-1.969-23.754v-.109h.109l10.284 9.523v.11l-8.424 14.23c.109 0 0 0 0 0z"/><path fill="#61A337" d="M411.042 215.456l-8.315 14.23-1.969-23.754 10.284 9.524z"/><path fill="#5B9E37" d="M411.042 215.565l-10.393-9.523-1.751-9.524 10.394-10.728h.109l.109.11 1.532 29.665c.109-.109.109 0 0 0 .109 0 .109 0 0 0z"/><path fill="#5B9E37" d="M409.401 185.9l1.641 29.556-10.284-9.524-1.641-9.414 10.284-10.618z"/><path fill="#4B9820" d="M399.664 258.695c-.109 0-.109-.11 0 0l3.063-29.009s0-.109.11-.109h.109l7.111 15.216v.109l-10.393 13.793z"/><path fill="#4B9820" d="M402.727 229.687l7.111 15.106-10.174 13.793 3.063-28.899z"/><path fill="#4B9723" d="M399.555 262.636v-4.05l10.283-13.793h.11s.109.109 0 .109l-5.689 15.544-4.704 2.19c.109 0 0 0 0 0z"/><path fill="#4B9723" d="M409.838 244.793l-5.689 15.653-4.594 2.19.109-4.05 10.174-13.793z"/><path fill="#2C720D" d="M409.4 186.009l-8.642-10.509 4.266-13.683s0-.109.11-.109c0 0 .109 0 .109.109l4.376 22.878-.219 1.314c.11-.109.11-.109 0 0z"/><path fill="#2C720D" d="M409.4 185.9l-8.642-10.509 4.266-13.574 4.267 22.878.109 1.205z"/><path fill="#377F1A" d="M399.008 196.627l1.641-21.236s0-.11.109-.11h.11l8.642 10.509v.11l-10.502 10.727c.109 0 .109 0 0 0 .109 0 0 0 0 0z"/><path fill="#377F1A" d="M400.758 175.391l8.643 10.509-10.284 10.618 1.641-21.127z"/><path fill="#28700D" d="M391.02 173.42c-.11-.109-.11-.109 0-.109l14.003-11.603h.109v.109l-4.266 13.574s0 .109-.11.109l-9.736-2.08z"/><path fill="#28700D" d="M405.025 161.817l-4.267 13.574-9.737-1.971 14.004-11.603z"/><path fill="#266F0E" d="M391.021 173.53s0-.11 0 0c0-.11-.109-.11 0 0l2.735-21.346s0-.11.11-.11h.109l6.345 5.693 4.705 3.941v.218l-14.004 11.604c.11-.11 0 0 0 0z"/><path fill="#266F0E" d="M405.025 161.817l-14.004 11.603 2.845-21.236 6.345 5.692 4.814 3.941z"/><path fill="#2C7911" d="M405.024 161.817c-.11 0-.11 0 0 0l-9.081-16.529-.547-14.231s0-.109.11-.109c0 0 .109 0 .109.109l7.658 20.58 1.751 10.18c.109 0 0 0 0 0z"/><path fill="#2C7911" d="M405.024 161.817l-9.081-16.53-.547-14.121 7.658 20.471 1.97 10.18z"/><path fill="#63A838" d="M399.663 258.695s-.11-.11 0 0l-.438-9.633v-.11l-.547-14.997-1.203-21.564-.438-9.086v-.11l3.61 2.628 1.969 23.754-2.953 29.118c.109-.11 0 0 0 0z"/><path fill="#63A838" d="M400.757 205.932l1.969 23.754-3.063 28.9-.329-9.524-.547-14.997-1.094-21.565h-.109l-.438-9.195 3.611 2.627z"/><path fill="#6CB523" d="M375.268 312.334s-.11-.11 0 0l-.766-44.663v-.109h.109l24.397 2.299 3.719.328h.11v.109l-8.315 16.858-8.095 10.509-11.159 14.669c.109 0 0 0 0 0z"/><path fill="#6CB523" d="M402.618 270.298l-8.315 16.858-8.095 10.509-10.94 14.559-.766-44.553 24.396 2.299 3.72.328z"/><path fill="#26700F" d="M405.024 161.817s-.11 0 0 0l-4.814-3.941-4.267-12.589v-.109h.11l9.08 16.42c0 .219 0 .219-.109.219z"/><path fill="#26700F" d="M395.943 145.288l9.08 16.529-4.813-3.941-4.267-12.588z"/><path fill="#66AA32" d="M400.758 206.042l-3.72-2.628h-11.925s-.109 0-.109-.109v-.11l13.894-6.787v.11l1.86 9.524c.109 0 .109 0 0 0z"/><path fill="#66AA32" d="M399.117 196.518l1.641 9.414-3.611-2.627h-12.034l14.004-6.787z"/><path fill="#5EA72E" d="M399.555 262.636l-17.504-21.565v-.11h.109l17.176 7.991v.11l.328 9.524-.109 4.05c.109 0 .109 0 0 0 .109 0 0 0 0 0z"/><path fill="#5EA72E" d="M399.555 262.636l-17.395-21.565 17.176 7.991.328 9.523-.109 4.051z"/><path fill="#6EB532" d="M374.502 267.671c-.109 0-.109-.109-.109-.109l7.548-26.601s0-.109.11-.109h.109l17.504 21.565v.109l-.11.11s-24.943 5.035-25.052 5.035z"/><path fill="#6EB532" d="M382.16 241.071l17.395 21.565-25.053 5.035 7.658-26.6z"/><path fill="#61A92C" d="M374.502 267.671c-.11-.109 0-.219 0-.219l25.052-5.035h.11v.109l-.657 7.335v.109h-.109l-24.396-2.299z"/><path fill="#61A92C" d="M399.555 262.636l-.657 7.334-24.396-2.299 25.053-5.035z"/><path fill="#61A531" d="M399.336 249.171s-.11 0 0 0l-7.221-15.106 5.47-21.565s0-.11.11-.11c0 0 .109 0 .109.11l1.203 21.565.329 15.106c.109-.109 0 0 0 0z"/><path fill="#61A531" d="M399.335 249.062l-7.22-14.997 5.579-21.565 1.094 21.565.547 14.997z"/><path fill="#71B432" d="M399.336 249.171l-17.176-7.991v-.109l2.954-37.657s0-.109.109-.109c0 0 .11 0 .11.109l7.001 30.651 7.221 14.997c-.11 0-.11 0-.219.109z"/><path fill="#71B432" d="M392.116 234.065l7.22 14.997-17.176-7.991 2.954-37.766 7.002 30.76z"/><path fill="#74B73B" d="M385.113 203.414l-5.142-11.603.109-8.21v-.11l18.927 12.918v.218l-13.894 6.787z"/><path fill="#74B73B" d="M399.117 196.518l-14.003 6.787-5.032-11.494.109-8.21 18.926 12.917z"/><path fill="#2D7310" d="M397.913 184.258c-.11 0-.11-.11 0 0l-2.298-4.598v-.109h.11l2.953.766.11.109-.875 3.832c0-.11 0 0 0 0z"/><path fill="#2D7310" d="M398.569 180.317l-.656 3.831-2.188-4.597 2.844.766z"/><path fill="#66AA32" d="M392.115 234.065l-7.111-30.76v-.11l12.472 9.086v.11l-5.361 21.674c.109 0 .109 0 0 0z"/><path fill="#66AA32" d="M397.694 212.5l-5.579 21.565-7.002-30.76 12.472 9.195h.109z"/><path fill="#63A838" d="M397.585 212.609s0-.109 0 0l-12.581-9.195v-.109s0-.11.109-.11h12.034s.11 0 .11.11l.328 9.304c.109-.109.109-.109 0 0 .109 0 .109 0 0 0z"/><path fill="#63A838" d="M397.585 212.5l-12.472-9.195h12.034l.438 9.195z"/><path fill="#2C7911" d="M395.944 145.397s-.109 0 0 0l-.437-1.095-3.501-11.165v-.11l3.282-1.97v.109l.656 14.231c.11-.109.11 0 0 0z"/><path fill="#2C7911" d="M395.944 145.288l-.328-1.095-3.501-11.056 3.282-2.08v.109l.547 14.122z"/><path fill="#2E7D15" d="M384.02 131.604s-.11 0 0 0l-.766-9.961v-.11l12.034 9.414v.219l-3.282 1.971c.109.109-7.986-1.533-7.986-1.533z"/><path fill="#2E7D15" d="M395.397 131.057l-3.282 2.08-8.095-1.642-.657-9.852 12.034 9.414z"/><path fill="#307D16" d="M395.397 131.166s-.109 0 0 0l-12.034-9.414-15.316-12.041v-.11l9.189-12.37h.219l1.641 2.08 14.441 26.054 2.188 5.692c-.219 0-.219.109-.328.109z"/><path fill="#307D16" d="M393.209 125.365l2.188 5.692-12.034-9.414-15.316-12.042 9.189-12.37 1.532 2.08 14.441 26.054z"/><path fill="#337E15" d="M391.021 173.53s0-.11 0 0l-4.705-16.311v-.109l7.44-5.036v.11l-2.735 21.346c.109-.11.109-.11 0 0z"/><path fill="#337E15" d="M393.865 152.184l-2.844 21.236-4.595-16.201 7.439-5.035z"/><path fill="#2C7911" d="M389.271 140.581l-5.361-8.977v-.109h.11l8.095 1.532h.11v.11l-2.954 7.444c.109 0 .109 0 0 0z"/><path fill="#2C7911" d="M392.115 133.137l-2.844 7.334-5.251-8.976 8.095 1.642z"/><path fill="#297715" d="M385.55 152.512l-6.454-10.618 4.157-20.251s0-.11.109-.11c0 0 .11 0 .11.11l.656 9.852 1.422 21.017c.11-.109.11 0 0 0z"/><path fill="#297715" d="M384.021 131.495l1.531 20.908-6.345-10.618 4.157-20.142.657 9.852z"/><path fill="#25710F" d="M385.55 152.512l-6.126-1.751s-.109 0-.109-.11l-.219-8.757s0-.109.109-.109h.11l6.345 10.618-.11.109c.11 0 0 0 0 0z"/><path fill="#25710F" d="M379.207 141.785l6.345 10.618-6.126-1.861-.219-8.757z"/><path fill="#559833" d="M385.114 203.414l-10.065-3.831v-.109-.11l5.032-7.663h.219l5.032 11.494c-.109.11-.109.219-.218.219.109 0 0 0 0 0z"/><path fill="#559833" d="M380.081 191.811l5.033 11.494-10.065-3.832 5.032-7.662z"/><path fill="#74B73B" d="M382.161 241.18s-.11-.109 0 0l-19.692-32.621v-.109h.109l22.537-5.145h.109v.109l-3.063 37.766c.109-.109 0-.109 0 0z"/><path fill="#74B73B" d="M385.112 203.305l-2.953 37.766-19.583-32.621 22.536-5.145z"/><path fill="#61A43A" d="M362.576 208.559s-.109 0 0 0c-.109-.109-.109-.109 0-.109l12.472-8.977 10.174 3.832s.109 0 .109.109c0 0 0 .11-.109.11-.109-.11-22.646 5.035-22.646 5.035z"/><path fill="#61A43A" d="M385.112 203.305l-22.536 5.145 12.472-8.977 10.064 3.832z"/><path fill="#286F0F" d="M389.271 177.033l-4.705-1.861-.109-.109-.109-1.971v-.109l4.376 1.313.109.11.547 2.408c0 .219 0 .219-.109.219 0 0 0 .109 0 0 0 .109 0 0 0 0z"/><path fill="#286F0F" d="M384.566 175.172l-.109-1.97 4.267 1.313.547 2.518-4.705-1.861z"/><path fill="#36841D" d="M356.014 125.912c-.11 0-.11 0 0 0l-.11-.11 12.034-16.201h.11l15.316 12.042v.109s-.001.11-.11.11c.109-.11-27.24 4.05-27.24 4.05z"/><path fill="#36841D" d="M368.048 109.601l15.316 12.042-27.35 4.159 12.034-16.201z"/><path fill="#2C7918" d="M379.206 141.894l-14.331-6.459v-.218l18.489-13.684v.11l-4.158 20.142c.11.109.11.109 0 .109z"/><path fill="#2C7918" d="M383.364 121.643l-4.158 20.142-14.331-6.459 18.489-13.683z"/><path fill="#327F1C" d="M364.875 135.435c-.109 0-.109 0 0 0l-.766-1.094-8.095-8.429v-.11l.109-.109 27.459-4.16h.11v.11l-18.817 13.792z"/><path fill="#327F1C" d="M383.364 121.643l-18.489 13.683-.766-.985-8.095-8.538 27.35-4.16z"/><path fill="#84C42F" d="M382.159 241.071l-13.894-4.707-5.689-27.914v-.11h.11l19.582 32.621c0 .11 0 .11-.109.11 0 0 0 .109 0 0 0 .109 0 .109 0 0z"/><path fill="#84C42F" d="M362.576 208.45l19.583 32.621-14.003-4.817-5.58-27.804z"/><path fill="#92D356" d="M374.502 267.671l-6.455-31.417v-.109h.109l13.894 4.707.11.11-7.658 26.709c.109 0 .109 0 0 0z"/><path fill="#92D356" d="M382.159 241.071l-7.658 26.6-6.345-31.417 14.003 4.817z"/><path fill="#257214" d="M381.613 168.385l-8.861-21.784-7.986-11.275v-.109h.109l14.441 6.458v.11l.219 8.757 2.078 17.843c.11 0 .11 0 0 0z"/><path fill="#257214" d="M379.425 150.542l2.188 17.843-8.752-21.784-7.986-11.275 14.331 6.459.219 8.757z"/><path fill="#428929" d="M375.049 199.583l-16.082-27.038v-.11h.219l21.004 19.266v.11l-5.141 7.772c.109 0 0 0 0 0z"/><path fill="#428929" d="M380.081 191.811l-5.032 7.662-15.973-26.928 21.005 19.266z"/><path fill="#378015" d="M377.237 97.341c-.109 0-.109 0 0 0l-21.442-21.127v-.11s0-.109.109-.109l4.814-1.094h.109l16.629 22.221c-.109.11-.219.11-.219.22z"/><path fill="#378015" d="M360.608 75.01l16.629 22.222-21.442-21.127 4.813-1.095z"/><path fill="#37831A" d="M368.046 109.711l-12.8-18.938v-.11h.109l21.88 6.46.11.109v.109l-9.299 12.37c.109 0 0 0 0 0z"/><path fill="#37831A" d="M377.235 97.231l-9.189 12.37-12.8-18.828 21.989 6.459z"/><path fill="#33811B" d="M377.127 97.341l-21.879-6.458-6.127-8.32v-.11h.11l5.032.439 22.974 14.34c0-.11.109 0-.11.11.11-.11.11 0 0 0 .11 0 0 0 0 0z"/><path fill="#33811B" d="M377.237 97.232l-21.99-6.459-6.017-8.32 5.033.439 22.974 14.34z"/><path fill="#337E15" d="M377.236 97.341c-.11 0-.11 0 0 0l-22.974-14.34v-.11l1.531-6.786s0-.11.11-.11h.109l21.443 21.127c-.219.11-.11.11-.219.22z"/><path fill="#337E15" d="M377.236 97.232l-22.974-14.34 1.531-6.787 21.443 21.127z"/><path fill="#85C728" d="M375.267 312.334l-33.038-24.521v-.219l32.272-20.142v.11l.766 44.772c.11-.11.11 0 0 0z"/><path fill="#85C728" d="M374.501 267.671l.766 44.553-33.038-24.52 32.272-20.033z"/><path fill="#71B833" d="M359.732 338.168s-.109 0 0 0l-17.503-50.464v-.11l33.038 24.521v.109L367.5 327.55l-7.768 10.618z"/><path fill="#71B833" d="M375.267 312.224L367.5 327.55l-7.768 10.509-17.503-50.355 33.038 24.52z"/><path fill="#4D9230" d="M362.577 208.559c-.109 0-.109-.109 0 0l-3.61-36.014s0-.11.109-.11h.11l15.972 26.929v.11l-12.581 9.085z"/><path fill="#4D9230" d="M359.076 172.545l15.973 26.928-12.472 8.977-3.501-35.905z"/><path fill="#94CC2D" d="M374.501 267.672l-21.442-16.202v-.109-.109l15.097-15.216h.109l.11.109 6.126 31.527c.109 0 .109 0 0 0 .109 0 .109 0 0 0z"/><path fill="#94CC2D" d="M368.156 236.254l6.345 31.417-21.333-16.201 14.988-15.216z"/><path fill="#A0D635" d="M342.229 287.813c-.11 0-.109-.109-.109-.109l2.625-7.444 1.422-9.414-5.579-1.314s-.109 0-.109-.109l.328-5.692v-.11h.109l33.695 3.722s.11 0 .11.109v.11l-32.492 20.251z"/><path fill="#A0D635" d="M374.502 267.671l-32.273 20.032 2.626-7.334 1.422-9.523-5.689-1.314.328-5.583 33.586 3.722z"/><path fill="#97CE0C" d="M340.916 263.95c-.109 0-.109 0 0 0l-1.641-11.713v-.11h.11l13.784-.876 21.442 16.202v.109s0 .11-.109.11l-33.586-3.722z"/><path fill="#97CE0C" d="M374.5 267.671l-33.586-3.722-1.531-11.713 13.784-.766 21.333 16.201z"/><path fill="#236E0F" d="M368.485 154.811s-.11 0 0 0l-9.299-20.251v-.11h.109l12.034 15.873v.11l-2.844 4.378c.109 0 0 0 0 0z"/><path fill="#236E0F" d="M359.295 134.56l12.034 15.872-2.844 4.379-9.19-20.251z"/><path fill="#266D0C" d="M368.485 165.211l-4.923-5.583v-.11l4.814-4.816 2.844-4.269h.11s.109.109 0 .109l-1.751 8.21-1.094 6.459c.11-.11.11 0 0 0z"/><path fill="#266D0C" d="M368.484 154.811l2.844-4.378-1.75 8.319-1.094 6.349-4.814-5.473 4.814-4.817z"/><path fill="#236E0F" d="M368.485 154.811l-10.612-16.529-9.846-9.196-.218-.438v-.109l7.986-2.846s.109 0 .109.109l3.282 8.758 9.19 20.142c.218.109.218.109.109.109z"/><path fill="#236E0F" d="M359.296 134.56l9.189 20.251-10.502-16.53-9.846-9.195-.219-.438 8.096-2.846 3.282 8.758z"/><path fill="#7AB718" d="M353.169 251.58c-.109 0-.109 0 0 0l-15.425-11.604v-.109-.11l24.834-31.417h.109s.11 0 .11.11l5.579 27.804-15.207 15.326z"/><path fill="#7AB718" d="M362.578 208.45l5.579 27.804-14.987 15.216-15.426-11.603 24.834-31.417z"/><path fill="#3B831A" d="M355.904 125.912l-.765-35.139s0-.11.109-.11h.109l12.8 18.938v.11l-12.253 16.201c.11 0 .11 0 0 0 .11 0 0 0 0 0z"/><path fill="#3B831A" d="M355.246 90.773l12.8 18.828-12.034 16.201-.766-35.03z"/><path fill="#4B9435" d="M362.576 208.559l-15.644-10.289v-.11-.109l.219-.219-1.313-19.595v-.109l13.128-5.802v.109l3.61 36.124c.11-.109.11 0 0 0z"/><path fill="#4B9435" d="M359.075 172.545l3.501 35.905-15.644-10.181.219-.219-1.313-19.704 13.237-5.801z"/><path fill="#60A00D" d="M337.744 239.976s-.109-.109 0 0l-.437-32.183.328-.438 24.943.985h.109v.11l-24.943 31.526c.11 0 0 0 0 0z"/><path fill="#60A00D" d="M362.576 208.45l-24.834 31.417-.328-32.074.328-.329 24.834.986z"/><path fill="#3C852B" d="M337.742 207.574s-.109-.109 0 0l-.109-.109 9.189-9.196h.11l15.644 10.181v.109s0 .11-.109.11c.109-.11-24.725-1.095-24.725-1.095z"/><path fill="#3C852B" d="M362.578 208.45l-24.834-.986 9.19-9.195 15.644 10.181z"/><path fill="#287716" d="M360.608 75.12l-21.989-9.196s-.109 0 0-.11l1.532-11.384s0-.11.109-.11h.109l20.349 20.58s0 .11-.11.22c0-.11 0 0 0 0z"/><path fill="#287716" d="M340.26 54.43l20.348 20.58-21.879-9.195 1.531-11.385z"/><path fill="#2C7116" d="M345.072 172.654s-.109 0 0 0l-.109-.109 14.878-12.042h.11v.11l-.876 12.041s0 .11-.109.11l-13.894-.11z"/><path fill="#2C7116" d="M359.953 160.503l-.876 12.042h-14.003l14.879-12.042z"/><path fill="#286F11" d="M345.074 172.654l-16.848-7.881s-.109 0 0-.11c0 0 0-.109.11-.109l19.473-4.16h12.253s.109 0 .109.11v.109l-15.097 12.041z"/><path fill="#286F11" d="M359.951 160.503l-14.879 12.042-16.847-7.882 19.473-4.16h12.253z"/><path fill="#92D356" d="M359.733 338.168s-.109 0 0 0l-20.458-24.521 3.72-13.245-.875-12.698s0-.11.109-.11c0 0 .11 0 .11.11l17.504 50.354s-.001.11-.11.11z"/><path fill="#92D356" d="M342.227 287.704l17.504 50.355-20.348-24.412 3.719-13.136-.875-12.807z"/><path fill="#9ED659" d="M348.246 346.597c-.109 0-.109 0 0 0l-8.971-32.95v-.109h.11l20.348 24.411v.219l-11.487 8.429z"/><path fill="#9ED659" d="M339.383 313.647l20.348 24.411-11.487 8.429-8.861-32.84z"/><path fill="#2D731A" d="M328.443 186.228c-.109 0-.109 0 0 0l-.109-.109 16.629-13.574 14.003-.11s.109 0 .109.11v.109l-30.632 13.574z"/><path fill="#2D731A" d="M359.077 172.545l-13.237 5.801-17.395 7.773 16.629-13.574h14.003z"/><path fill="#75B939" d="M348.684 358.748s-.11 0 0 0c-.11 0-.11-.11-.11-.11l12.362-17.186 2.517-1.095 6.235-7.443h.11v.109l-6.564 10.18-14.55 15.545z"/><path fill="#75B939" d="M361.046 341.561l2.407-1.094 6.235-7.444-6.564 10.18-14.44 15.544 12.362-17.186z"/><path fill="#236910" d="M352.512 152.074c-.109 0-.109 0 0 0l.438-2.298-1.751-.876v-.11l-.109-3.721 4.048-2.628v.11l.984 7.772v.109l-3.61 1.642z"/><path fill="#236910" d="M355.138 142.551l.984 7.772-3.61 1.642.547-2.299-1.86-.876-.109-3.721 4.048-2.518z"/><path fill="#458D21" d="M338.729 132.042s-.11 0 0 0c-.11 0-.11-.109-.11-.109l16.629-41.27s0-.109.109-.109c0 0 .11 0 .11.11l.656 35.138s0 .11-.109.11l-17.285 6.13z"/><path fill="#458D21" d="M355.248 90.773l.766 35.029-8.096 2.846-9.189 3.394 9.627-23.973 6.892-17.296z"/><path fill="#2B7713" d="M354.262 83.001s-.11 0 0 0l-7.987-8.1v-.11h.11l9.408 1.314h.11v.11L354.262 83c.109-.11 0 0 0 0z"/><path fill="#2B7713" d="M355.795 76.105l-1.531 6.786-7.877-8.1 9.408 1.314z"/><path fill="#86C10E" d="M339.383 252.346s-.109 0 0 0l-1.75-12.479v-.11l15.316 11.604v.109s0 .11-.11.11c.329 0-13.456.766-13.456.766z"/><path fill="#86C10E" d="M337.744 239.867l15.426 11.603-13.785.767-1.641-12.37z"/><path fill="#236D0E" d="M352.731 141.456c-.109 0-.109 0 0 0-.547-.547-2.297-1.861-2.297-1.861v-.109-.11l1.094-.985.218-3.065s0-.109.11-.109c0 0 .109 0 .109.109l.766 2.189c-.109 0-.109 2.956 0 3.941 0-.109 0-.109 0 0z"/><path fill="#236D0E" d="M351.746 135.326l.766 2.19s0 2.955.11 3.831c-.438-.548-2.188-1.861-2.188-1.861l1.094-.985.218-3.175z"/><path fill="#2F7915" d="M355.795 76.214l-5.908-2.846-11.158-7.444v-.11h.109l21.88 9.196s.109 0 0 .11c0 0 0 .11-.11.11 0-.11-4.813.984-4.813.984z"/><path fill="#2F7915" d="M338.729 65.815l21.879 9.195-4.813 1.095-5.908-2.846-11.158-7.444z"/><path fill="#91CF4A" d="M340.041 364.878c-.109 0-.109-.11 0 0l-.109-.11 11.815-13.355 4.704-5.583 4.485-4.269h.219v.11l-12.362 17.186-8.752 6.021c0-.11 0 0 0 0z"/><path fill="#91CF4A" d="M361.046 341.561l-12.362 17.187-8.643 6.02 11.815-13.464 4.704-5.583 4.486-4.16z"/><path fill="#469220" d="M321.879 106.865c-.109 0-.109 0 0 0l-.109-.11 2.188-5.145 5.36-3.393-1.86-5.145v-.11l7.33-2.627h.11l13.456 17.734v.109h-.109c.109 0-26.366-1.313-26.366-1.313z"/><path fill="#469220" d="M334.899 90.335l13.456 17.734-26.474-1.314 2.188-5.145 5.36-3.393-1.859-5.255 7.329-2.627z"/><path fill="#4B9422" d="M338.727 132.042s-.11 0 0 0l-16.957-25.287v-.109h.109l26.475 1.314h.109v.109l-9.736 23.973z"/><path fill="#4B9422" d="M348.355 108.069l-9.627 23.973-16.847-25.287 26.474 1.314z"/><path fill="#B7E36A" d="M348.246 346.597l-15.644-4.379-.11-.109 6.783-28.462s0-.109.109-.109c0 0 .11 0 .11.109l8.752 32.95c.109-.11.109 0 0 0z"/><path fill="#B7E36A" d="M339.384 313.647l8.862 32.84-15.644-4.378 6.782-28.462z"/><path fill="#CEEE7F" d="M304.268 376.591c-.11-.11-.11-.11 0-.11l43.869-29.994h.109v.11l-7.876 8.867-14.769 12.588-14.222 8.539h-7.111z"/><path fill="#CEEE7F" d="M348.246 346.487l-7.876 8.867-14.769 12.698-14.332 8.539h-7.001l43.978-30.104z"/><path fill="#C1E974" d="M321.662 349.662c-.109 0-.109 0 0 0-.109-.11-.109-.11 0-.11l10.94-7.443 15.754 4.378s.109 0 .109.11c0 0 0 .109-.109.109-.11-.109-26.694 2.956-26.694 2.956z"/><path fill="#C1E974" d="M348.246 346.487l-26.584 3.065 10.94-7.443 15.644 4.378z"/><path fill="#236E0F" d="M338.727 132.042c-.11 0-.11 0 0 0-.11-.109-.11-.109 0-.219l9.299-3.284.109.438v.109l-3.063 3.284h-.11c.11.11-6.235-.328-6.235-.328z"/><path fill="#236E0F" d="M347.918 128.649l.219.438-3.063 3.284-6.345-.329 9.189-3.393z"/><path fill="#337D23" d="M346.932 198.27l-18.598-12.151v-.219l17.504-7.772v.109l1.313 19.704-.219.329c.109 0 0 0 0 0z"/><path fill="#337D23" d="M345.84 178.346l1.313 19.704-.219.219-18.489-12.15 17.395-7.773z"/><path fill="#378026" d="M323.193 206.917c-.109 0-.109 0 0 0-.109 0-.109-.109 0 0l5.142-20.908v-.109l18.489 12.15v.219l-9.19 9.196h-.109l-14.332-.548z"/><path fill="#378026" d="M328.445 186.118l18.488 12.151-9.19 9.195-14.55-.656 5.252-20.69z"/><path fill="#2C7315" d="M328.334 186.228c0-.109 0-.109 0 0l-.219-21.565v-.109l16.848 7.882v.218l-16.629 13.574c.109 0 .109 0 0 0 .109 0 0 0 0 0z"/><path fill="#2C7315" d="M345.072 172.545l-16.629 13.574-.218-21.456 16.847 7.882z"/><path fill="#297711" d="M341.791 86.723s-.11 0 0 0l-6.893-9.852v-.11l6.127-6.02h.109v.11l-.437 4.597 1.094 11.275c.109 0 0 0 0 0z"/><path fill="#297711" d="M340.697 75.448l1.094 11.165-6.893-9.852 6.236-5.91-.437 4.597z"/><path fill="#286F0F" d="M340.368 148.681l-3.72-1.642s-.109-.109 0-.109c0 0 0-.11.11-.11l5.141-.328h.11v.109l-1.641 2.08c.109 0 0 0 0 0z"/><path fill="#286F0F" d="M341.79 146.601l-1.422 1.97-3.72-1.532 5.142-.438z"/><path fill="#29780F" d="M334.898 76.87l-.218-.328-8.096-8.319v-.11h.109l14.441 2.628s.11 0 .11.11v.109l-6.346 5.91c.11 0 .11 0 0 0z"/><path fill="#29780F" d="M341.134 70.85l-6.236 5.911-.109-.219-8.096-8.32 14.441 2.628z"/><path fill="#29750D" d="M326.584 68.223l-.109-.11 5.907-9.851h.11s.109 0 .109.11l.985 6.567 7.548 5.911v.11h-.109c.109 0-14.441-2.737-14.441-2.737z"/><path fill="#29750D" d="M341.134 70.85l-14.441-2.627 5.908-9.852.985 6.568 7.548 5.911z"/><path fill="#8DC90E" d="M311.707 267.671c-.109-.109-.109-.109 0-.219l27.569-15.325v.109l1.532 11.604v.109h-.11l-15.097.219c.219 0-13.785 3.503-13.894 3.503z"/><path fill="#8DC90E" d="M339.385 252.237l1.532 11.713-15.097.218-14.113 3.503 27.678-15.434z"/><path fill="#2B7810" d="M338.727 65.815c-.109 0-.109 0 0 0l-4.047-9.524v-.11l5.47-1.97v.11l-1.423 11.494z"/><path fill="#2B7810" d="M340.259 54.43l-1.532 11.385-3.938-9.414 5.47-1.97z"/><path fill="#2D801D" d="M334.79 56.4c-.11 0-.11 0 0 0l-10.612-14.23v-.11h.109l15.973 12.26v.11s0 .11-.11.11l-5.36 1.86z"/><path fill="#2D801D" d="M340.26 54.43l-5.47 1.97-10.503-14.34 15.973 12.37z"/><path fill="#65AE3F" d="M311.706 267.671l-21.552-43.458v-.109h.11l47.479 15.653s.11 0 .11.11l1.641 12.369v.11l-27.788 15.325c.109 0 .109 0 0 0z"/><path fill="#65AE3F" d="M337.743 239.867l1.641 12.37-27.678 15.434-21.442-43.458 47.479 15.654z"/><path fill="#D0F282" d="M321.66 349.662c-.109 0-.109 0 0 0-.109 0-.109-.11-.109-.11l3.719-13.792 7.439-10.947 6.564-11.166h.11s.109.11 0 .11l-6.783 28.461-10.94 7.444z"/><path fill="#D0F282" d="M339.385 313.647l-6.783 28.462-10.94 7.443 3.72-13.793 7.439-10.946 6.564-11.166z"/><path fill="#4A941B" d="M325.382 131.604c-.109 0-.109 0 0 0l-4.704-16.31-9.408-7.882v-.109s0-.11.109-.11l10.502-.656 16.957 25.286v.11h-.109c0 .109-13.347-.329-13.347-.329z"/><path fill="#4A941B" d="M321.881 106.755l16.848 25.287-13.347-.547-4.595-16.201-9.517-7.882 10.611-.657z"/><path fill="#3D8515" d="M331.726 147.367c-.109 0-.109 0 0 0l-6.455-15.872v-.11h.11l13.347.438h.109v.11l-.547 6.677-6.564 8.757z"/><path fill="#3D8515" d="M338.728 132.042l-.657 6.568-6.345 8.648-6.345-15.763 13.347.547z"/><path fill="#66A40F" d="M337.743 239.976l-29.1-25.396v-.109-.11l14.44-7.663 14.66.548s.109 0 .109.109v.11l-.328.328.219 32.183c.109-.109.109 0 0 0z"/><path fill="#66A40F" d="M337.415 207.793l.328 32.074-28.991-25.396 14.441-7.663 14.55.657-.328.328z"/><path fill="#3E851E" d="M337.743 239.976l-47.479-15.653s-.11 0-.11-.11v-.109l18.489-9.743h.109l28.991 25.396c.11.11.11.11 0 .219.11 0 0 0 0 0z"/><path fill="#3E851E" d="M337.743 239.867l-47.479-15.654 18.488-9.743 28.991 25.397z"/><path fill="#439020" d="M348.356 108.178c-.11 0-.11 0 0 0L334.79 90.335l-5.032-14.011v-.11h.109l6.564 12.698 8.533 2.846 10.174-1.094h.11v.11l-6.892 17.404z"/><path fill="#439020" d="M336.541 89.022l8.533 2.846 10.174-1.095-6.892 17.296L334.9 90.335l-4.923-14.011 6.564 12.698z"/><path fill="#4DA333" d="M334.789 56.4s-.109 0 0 0l-7.986-5.692-18.817-16.858v-.109h.11l16.191 8.32 10.502 14.23c.11 0 .11.11 0 .11z"/><path fill="#4DA333" d="M324.287 42.06l10.502 14.34-7.876-5.692-18.927-16.967 16.301 8.32z"/><path fill="#2D7E18" d="M315.644 55.306c-.109-.11 0-.11 0-.22l11.159-4.597h.11l5.688 7.663v.11h-.109c.109.109-16.848-2.956-16.848-2.956z"/><path fill="#2D7E18" d="M326.913 50.709l5.689 7.662-16.848-3.065 11.159-4.597z"/><path fill="#2D750B" d="M326.694 68.223c-.11 0-.11 0 0 0l-11.049-12.917v-.11h.109l16.847 3.066h.11v.11l-6.017 9.851z"/><path fill="#2D750B" d="M332.602 58.371l-5.908 9.852-10.94-12.917 16.848 3.065z"/><path fill="#448F1A" d="M331.727 147.367s-.11 0 0 0l-26.584-19.485v-.109h.109l20.13 3.722 6.454 15.872c0-.109-.109 0-.109 0z"/><path fill="#448F1A" d="M325.382 131.495l6.345 15.763-26.584-19.485 20.239 3.722z"/><path fill="#377F13" d="M331.07 154.154c-.109 0-.109 0 0 0l-25.927-26.272v-.109h.109l26.475 19.485-.657 6.896z"/><path fill="#377F13" d="M331.727 147.258l-.657 6.896-25.927-26.381 26.584 19.485z"/><path fill="#39871F" d="M315.973 155.906c-.109 0-.109 0 0 0l-10.83-28.133v-.109h.109l25.818 26.272v.109l-.109.11c.109 0-14.988 1.751-14.988 1.751z"/><path fill="#39871F" d="M305.143 127.773l25.927 26.381-15.097 1.752-10.83-28.133z"/><path fill="#327914" d="M317.504 159.847c-.109 0-.109 0 0 0-.109 0-.109 0 0 0l-1.641-4.051v-.109h.11l15.097-1.751s.109 0 .109.109v.109l-13.675 5.693z"/><path fill="#327914" d="M331.07 154.154l-13.566 5.693-1.531-3.941 15.097-1.752z"/><path fill="#317812" d="M328.444 186.228c-.109 0-.109 0 0 0l-12.799-17.843v-.11l.109-.109 12.472-3.722v.11l.218 21.674c0-.11 0-.11 0 0z"/><path fill="#317812" d="M328.226 164.663l.218 21.456-12.69-17.734 12.472-3.722z"/><path fill="#367F15" d="M308.861 184.039s0-.11 0 0l-.109-.11 6.783-15.544h.219l12.69 17.734v.109h-.109c.109 0-19.474-2.189-19.474-2.189z"/><path fill="#367F15" d="M315.754 168.385l12.69 17.734-19.583-2.19 6.893-15.544z"/><path fill="#3C852B" d="M323.193 206.917c-.11 0-.11 0 0 0l-23.302-16.639v-.109s0-.11.109-.11l28.444-4.159h.109v.109l-5.36 20.908z"/><path fill="#3C852B" d="M328.444 186.118l-5.251 20.69-23.302-16.53 28.553-4.16z"/><path fill="#388222" d="M299.891 190.388s0-.11 0 0c-.11-.11-.11-.11 0-.11l8.97-6.349 19.583 2.19s.11 0 .11.109c0 0 0 .109-.11.109 0-.109-28.553 4.051-28.553 4.051z"/><path fill="#388222" d="M328.444 186.119l-28.553 4.159 8.97-6.349 19.583 2.19z"/><path fill="#2E7610" d="M315.754 168.385c-.109 0-.109 0 0 0-.109 0-.109-.109-.109-.109l1.75-6.13s0-.11.109-.11l10.722 2.408s.109 0 .109.11c0 0 0 .109-.109.109l-12.472 3.722z"/><path fill="#2E7610" d="M328.226 164.663l-12.472 3.722 1.75-6.13 10.722 2.408z"/><path fill="#348A27" d="M315.754 55.306c-.11 0-.11 0 0 0-.11 0-.11 0 0 0L312.909 46l-4.923-12.15v-.11h.11l18.816 16.858v.219l-11.158 4.488z"/><path fill="#348A27" d="M326.912 50.708l-11.158 4.598L312.909 46l-4.923-12.26 18.926 16.967z"/><path fill="#327C0C" d="M326.695 68.223c-.109 0-.109 0 0 0l-15.425-8.1v-.11-.11l4.376-4.816h.218l10.94 12.917c-.109.11-.109.219-.109.219z"/><path fill="#327C0C" d="M315.755 55.306l10.94 12.917-15.425-8.1 4.485-4.817z"/><path fill="#2D750B" d="M324.726 74.682c-.11 0-.11 0 0 0l-7.549-4.817-5.907-9.633v-.11h.109l15.316 8.101s.109.11 0 .11l-1.969 6.349c0-.11 0-.11 0 0z"/><path fill="#2D750B" d="M326.695 68.223l-1.969 6.35-7.439-4.817-6.017-9.633 15.425 8.1z"/><path fill="#478E31" d="M308.752 214.58c-.109 0-.109-.11 0 0l-8.861-24.302v-.109l23.192 16.639v.219l-14.331 7.553z"/><path fill="#478E31" d="M323.193 206.808l-14.441 7.662-8.861-24.192 23.302 16.53z"/><path fill="#378717" d="M303.391 101.72l-.11-.11 1.86-1.642 2.516-2.955 2.626-2.08 10.284 2.408 3.61.985s.109 0 .109.11c0 0 0 .11-.109.11l-4.048 1.313-5.798.876c.109 0-10.94.985-10.94.985z"/><path fill="#378717" d="M324.288 98.326l-4.048 1.423-5.907.876-10.94.985 1.859-1.642 2.517-2.955 2.625-2.08 10.174 2.408 3.72.985z"/><path fill="#338112" d="M320.567 97.45l-10.174-2.408-.11-.11 2.407-10.398.109-.11.547.438 4.595 3.722v.11h-.109l-3.173-.986v.985l3.939 1.861 2.188 2.08-.219 4.817c.109-.11.109-.11 0 0 .109 0 .109 0 0 0z"/><path fill="#338112" d="M310.395 94.933l2.406-10.4.657.438 4.485 3.722-3.282-1.094.11 1.204 3.938 1.86 2.078 2.08-.218 4.598-10.174-2.408z"/><path fill="#408E21" d="M308.425 155.906c-.11 0-.11 0 0 0l-.657-11.275-2.625-16.858s0-.109.109-.109c0 0 .109 0 .109.109l10.722 28.024v.109h-7.658z"/><path fill="#408E21" d="M305.143 127.773l10.83 28.133h-7.548l-.657-11.275-2.625-16.858z"/><path fill="#357C16" d="M308.861 184.039s0-.11 0 0l-.109-10.838 6.783-4.926h.109v.11l-6.783 15.654c.11-.11.11 0 0 0z"/><path fill="#357C16" d="M315.753 168.385l-6.892 15.544v-10.727l6.892-4.817z"/><path fill="#378510" d="M304.485 82.563l-3.938-5.035v-.11h.109l3.392.22 5.142 3.83 3.829 3.066v.109h-.11c-.109 0-8.424-2.08-8.424-2.08z"/><path fill="#378510" d="M308.971 81.468l3.829 3.066-8.315-2.08-3.938-5.036 3.391.22 5.033 3.83z"/><path fill="#39881B" d="M302.406 93.4s0-.11 0 0c-.109-.11-.109-.11 0-.11l2.735-2.298-2.407-4.707v-.11h.11l4.157 1.314 5.798-2.956v.11l-2.406 10.4s-.001.109-.11.109c.109-.11-7.877-1.752-7.877-1.752z"/><path fill="#39881B" d="M312.799 84.533l-2.407 10.4-7.986-1.642 2.735-2.299-2.407-4.817 4.158 1.314 5.907-2.956z"/><path fill="#388613" d="M306.893 87.599l-1.86-2.956-.656-2.08v-.11h.109l8.315 2.08s.109 0 .109.11v.11l-6.017 2.846c.11 0 .11 0 0 0z"/><path fill="#388613" d="M312.801 84.534l-5.908 2.955-1.75-2.955-.657-2.08 8.315 2.08z"/><path fill="#85C54C" d="M311.706 267.671l-7.877-3.284-10.065-12.26-3.5-27.914s0-.109.109-.109h.109l21.443 43.348c-.11.219-.11.219-.219.219.109 0 .109 0 0 0z"/><path fill="#85C54C" d="M290.264 224.213l21.442 43.458-7.877-3.284-10.065-12.369-3.5-27.805z"/><path fill="#52A03F" d="M290.264 224.322c-.11 0-.11-.109-.11-.109l9.627-33.935s0-.109.11-.109c0 0 .109 0 .109.109l8.862 24.192v.11l-18.598 9.742c.109 0 0 0 0 0z"/><path fill="#52A03F" d="M299.891 190.278l8.861 24.192-18.488 9.743 9.627-33.935z"/><path fill="#CEEE7F" d="M304.268 376.591c-.11 0-.11-.11-.11-.11l3.063-4.926 7.768-10.18 6.564-11.823 26.693-3.065s.11 0 .11.11v.109l-44.088 29.885c.109 0 .109 0 0 0z"/><path fill="#CEEE7F" d="M348.246 346.487l-43.978 30.104 3.063-4.926 7.767-10.181 6.564-11.932 26.584-3.065z"/><path fill="#41911D" d="M304.486 82.563l-5.798-1.86-1.86-3.066.219-2.737-1.094-.437s-.109 0 0-.11c0 0 0-.11.109-.11l6.564-.875h.11v.11l-1.97 3.94 3.939 5.036c-.11 0-.11 0-.219.11.109 0 .109 0 0 0z"/><path fill="#41911D" d="M300.546 77.418l3.938 5.036-5.798-1.861-1.86-3.065.219-2.737-1.094-.547 6.564-.876-1.969 4.05z"/><path fill="#499B29" d="M295.953 74.353c-.109 0-.109 0 0 0l-.109-4.27v-.109h.109l5.579.438s.11 0 .11.11l.984 2.846v.11h-.109l-6.564.875z"/><path fill="#499B29" d="M301.53 70.522l.985 2.846-6.564.876v-4.16l5.579.438z"/><path fill="#65B047" d="M290.264 224.322l-3.391-12.369 5.032-8.21 7.877-13.574h.11s.109.109 0 .109l-9.628 34.044c.11 0 .11 0 0 0z"/><path fill="#65B047" d="M299.89 190.278l-9.627 33.935-3.283-12.26 5.033-8.101 7.877-13.574z"/><path fill="#51A334" d="M288.842 95.042l-2.297-1.751v-.11l1.969-5.91 9.408 3.393s.11 0 .11.11v.109l-3.064 1.423-6.126 2.736c.11 0 0 0 0 0z"/><path fill="#51A334" d="M297.921 90.664l-3.064 1.423-6.017 2.846-2.188-1.752 1.97-5.91 9.299 3.393z"/><path fill="#409117" d="M292.451 76.105s0-.11 0 0c0-.11 0-.11 0 0l-.328-4.27-.984-3.502s0-.11.109-.11l5.47-1.642h.109v.11l-.765 3.502V74.463l-3.611 1.642c.11-.11 0 0 0 0z"/><path fill="#409117" d="M296.718 66.581l-.766 3.503v4.16l-3.501 1.751-.218-4.16-.876-3.612 5.361-1.642z"/><path fill="#47992B" d="M297.922 90.773l-9.408-3.393-.11-.11v-.11l7.221-6.458h.109l.109.11.219 2.298-.437 1.97 2.406 5.584-.109.109c.109 0 .109 0 0 0z"/><path fill="#47992B" d="M295.953 83.11l-.438 1.97 2.407 5.584-9.299-3.394 7.111-6.458.219 2.299z"/><path fill="#499B29" d="M288.624 87.38l-3.173-1.533v-.219l3.61-3.722-1.422-2.08v-.109-.11l2.954-1.422 5.251 2.408v.219l-7.22 6.568z"/><path fill="#499B29" d="M295.735 80.812l-7.111 6.458-3.173-1.532 3.72-3.832-1.532-2.08 2.954-1.423 5.142 2.409z"/><path fill="#81C24C" d="M293.764 252.127l-8.424-20.251 4.814-7.772h.109s.109 0 .109.109l3.392 27.914c.109 0 .109 0 0 0z"/><path fill="#81C24C" d="M290.265 224.213l3.501 27.805-8.315-20.142 4.814-7.663z"/><path fill="#79C155" d="M255.147 50.818s-.11-.11 0 0l-.11-.11 8.424-8.976h.109s.11 0 .11.11l.656 4.707v.11l-9.189 4.159z"/><path fill="#79C155" d="M263.57 41.623l.657 4.707-9.081 4.379 8.424-9.086z"/><path fill="#84C65C" d="M255.146 50.818s-.109-.11 0 0l-6.673-7.772.437-1.97s0-.11.11-.11l5.579-1.204 4.376 1.423 4.704.328s.11 0 .11.11v.11l-8.643 9.085c0-.11 0 0 0 0z"/><path fill="#84C65C" d="M263.57 41.623l-8.424 9.085-6.564-7.772.438-1.86 5.579-1.205 4.267 1.423 4.704.329z"/><path fill="#8FCC66" d="M247.598 50.27h-3.719v-.109l4.595-7.225h.218l6.564 7.663v.11h-.109c0 .109-7.549-.439-7.549-.439z"/><path fill="#8FCC66" d="M248.583 42.936l6.564 7.773-7.549-.548-3.61.11 4.595-7.335z"/><path fill="#97CE69" d="M243.986 50.27c-.109 0-.109 0 0 0l-.765-1.97-2.735.219h-.11v-.11l-.219-2.736-5.47-.767s-.109 0-.109-.109v-.11l2.297-1.422-.984-2.628v-.11H236l4.486.986 4.376 5.145 1.094-2.956 2.735-.766h.109v.11l-4.814 7.224z"/><path fill="#97CE69" d="M244.862 46.767l1.094-3.065 2.625-.766-4.595 7.334-.765-1.97-2.845.11-.219-2.847-5.469-.766 2.297-1.532-.985-2.737 4.486.985 4.376 5.255z"/><path fill="#85BD5D" d="M214.887 42.06l-8.096-13.573v-.11h29.1s.11 0 .11.11v.11l-7.33 4.378-12.034 4.269-1.75 4.816c.109 0 0 0 0 0z"/><path fill="#85BD5D" d="M235.782 28.487l-7.111 4.488-12.034 4.269-1.75 4.707-8.096-13.464h28.991z"/><path fill="#6FAF58" d="M206.791 28.486c-.109-.109-.109-.109 0-.109l14.988-8.867 14.003 8.867v.11s0 .109-.109.109l-28.882-.11z"/><path fill="#6FAF58" d="M235.782 28.486h-28.991l14.988-8.976 14.003 8.976z"/><path fill="#53A529" d="M224.186 312.662c-.11 0-.11 0 0 0-.11 0-.11-.109-.11-.109l8.424-19.704h.109s.11 0 .11.109l.984 5.692-.218 3.503-9.299 10.509z"/><path fill="#53A529" d="M232.609 292.849l.985 5.692-.219 3.503-9.189 10.509 8.423-19.704z"/><path fill="#51A42E" d="M224.077 312.662l-1.86-22.003v-.109h.109l10.174 2.189h.11v.11l-8.533 19.813c.109 0 .109 0 0 0 .109 0 .109 0 0 0z"/><path fill="#51A42E" d="M232.61 292.849l-8.424 19.703-1.75-21.893 10.174 2.19z"/><path fill="#7AB05D" d="M235.783 28.596l-14.112-8.867-2.735-13.136v-.11h.109l2.297 3.175 8.424 5.255v.109l-1.203 2.627 1.422 5.364 5.579 5.364c.329.11.329.11.219.219.11 0 .11 0 0 0z"/><path fill="#7AB05D" d="M230.204 23.123l5.579 5.363-14.003-8.976-2.626-13.026 2.298 3.174 8.423 5.364-1.203 2.627 1.532 5.474z"/><path fill="#62B330" d="M224.185 312.662c-.109 0-.109 0 0 0l-25.271-30.979v-.11h.11l15.097 4.16 8.314 4.817 1.75 22.112c0-.11 0 0 0 0z"/><path fill="#62B330" d="M222.435 290.659l1.75 21.893-25.271-30.869 15.207 4.16 8.314 4.816z"/><path fill="#6AB82F" d="M224.186 312.662c-.109 0-.109 0 0 0l-36.649-23.864v-.219l11.378-7.006h.109l25.162 30.87v.219z"/><path fill="#6AB82F" d="M198.915 281.683l25.271 30.869-36.649-23.863 11.378-7.006z"/><path fill="#4A9722" d="M216.529 333.461c-.11 0-.11 0 0 0l-14.66-6.13v-.219l22.318-14.669h.109v.11l-2.844 7.224.437 11.385v.11l-5.36 2.189z"/><path fill="#4A9722" d="M224.187 312.552l-2.845 7.225.438 11.494-5.251 2.08-14.769-6.13 22.427-14.669z"/><path fill="#66AF29" d="M201.76 327.331l-16.52-11.604v-.109s0-.11.11-.11l38.727-3.065s.11 0 .11.11v.109l-22.427 14.669c.109 0 .109 0 0 0z"/><path fill="#66AF29" d="M224.187 312.552l-22.427 14.669-16.41-11.603 38.837-3.066z"/><path fill="#80C33F" d="M185.349 315.727s-.109-.109 0 0l2.079-27.038v-.11l36.54 23.864v.11s0 .109-.11.109c.328 0-38.509 3.065-38.509 3.065z"/><path fill="#80C33F" d="M224.187 312.552l-38.837 3.065 2.188-26.928 36.649 23.863z"/><path fill="#67A759" d="M221.778 19.62l-13.565-8.539v-.219l10.83-4.488v.11l2.735 13.136c.11 0 .11 0 0 0z"/><path fill="#67A759" d="M219.153 6.484l2.626 13.026-13.566-8.538 10.94-4.488z"/><path fill="#60A556" d="M206.791 28.486l1.313-17.514v-.11l13.566 8.539v.219l-14.879 8.866c.109 0 .109 0 0 0z"/><path fill="#60A556" d="M221.779 19.51l-14.988 8.976 1.422-17.514 13.566 8.538z"/><path fill="#66A35D" d="M208.324 11.081c-.11 0-.11 0 0 0l-6.236-9.633v-.11h.109l8.643-.109 2.078 3.394 6.346 1.751s.109 0 .109.11v.11l-11.049 4.487z"/><path fill="#66A35D" d="M219.154 6.484l-10.94 4.488-6.126-9.524 8.642-.11 2.079 3.394 6.345 1.752z"/><path fill="#529F20" d="M204.823 345.064l-3.173-17.843v-.109h.11l14.659 6.13v.219l-11.596 11.603c.109 0 .109 0 0 0z"/><path fill="#529F20" d="M216.529 333.351l-11.706 11.604-3.063-17.734 14.769 6.13z"/><path fill="#A2CF6E" d="M187.209 39.433c-.109-.11-.109-.11 0-.11l19.583-10.946h.109l8.096 13.574v.11h-.11l-27.678-2.628z"/><path fill="#A2CF6E" d="M206.792 28.487l8.095 13.464-27.678-2.627 19.583-10.837z"/><path fill="#BFDF84" d="M202.415 46.44l-15.206-7.007s-.11-.11 0-.11c0 0 0-.109.109-.109l27.678 2.628s.11 0 .11.109c0 0 0 .11-.11.11l-12.581 4.378z"/><path fill="#BFDF84" d="M214.887 41.95l-12.471 4.38-15.207-7.006 27.678 2.627z"/><path fill="#65A85A" d="M196.726 15.241s-.109 0 0 0l5.252-13.902.109-.11h.109l6.127 9.633v.11l-11.597 4.269c.11 0 0 0 0 0z"/><path fill="#65A85A" d="M202.087 1.448l6.127 9.524-11.487 4.16 5.36-13.684z"/><path fill="#5DA456" d="M206.791 28.486l-10.174-13.354v-.11-.11l11.487-4.16v.11l-1.313 17.624c.11 0 .11 0 0 0 .11 0 .11 0 0 0z"/><path fill="#5DA456" d="M208.214 10.972l-1.423 17.514-10.064-13.355 11.487-4.16z"/><path fill="#7EB763" d="M206.792 28.487l-20.458-16.64-.656-11.274s0-.11.109-.11h.11l21.114 27.805c-.11.11-.11.219-.219.219.109 0 .109 0 0 0z"/><path fill="#7EB763" d="M196.727 15.132l10.065 13.354-20.348-16.639-.657-11.165 10.94 14.45z"/><path fill="#8CC164" d="M187.21 39.433l-11.487-8.757v-.11s0-.109.109-.109l30.96-2.19s.11 0 .11.11v.11L187.21 39.433c.109 0 0 0 0 0z"/><path fill="#8CC164" d="M206.792 28.487L187.21 39.324l-11.378-8.648 30.96-2.19z"/><path fill="#79B45E" d="M175.832 30.785s0-.11 0 0l-.109-.11 10.502-18.827h.219l20.458 16.639v.11s0 .109-.11.109c.11-.22-30.96 2.08-30.96 2.08z"/><path fill="#79B45E" d="M206.792 28.487l-30.96 2.189 10.612-18.828 20.348 16.639z"/><path fill="#6DAF2B" d="M190.162 371.227l-.109-.11 14.659-26.053.219.11v.109l-4.157 12.917-5.689 12.042c.219 0-4.923.985-4.923.985z"/><path fill="#6DAF2B" d="M205.041 345.174l-4.158 13.026-5.688 12.042-5.033.875 14.66-26.053.219.11z"/><path fill="#59A422" d="M205.041 345.283l-.328-.109v-.11-.109s0-.11.109-.11l11.597-11.603h.109v.109l-3.719 6.787-7.768 5.145c.11 0 .11 0 0 0z"/><path fill="#59A422" d="M212.808 340.138l-7.767 5.035-.219-.109v-.109l11.706-11.604-3.72 6.787z"/><path fill="#67AB1E" d="M178.895 353.603s-.11 0 0 0l-.11-.11 22.974-26.272h.11s.109 0 .109.11l3.063 17.733s0 .11-.109.11l-26.037 8.429z"/><path fill="#67AB1E" d="M201.759 327.221l3.064 17.734-25.928 8.538 22.864-26.272z"/><path fill="#6EAE2E" d="M190.163 371.227l-11.378-17.624v-.11h.11l26.037-8.538h.109v.109l-14.878 26.163c.109 0 .109 0 0 0z"/><path fill="#6EAE2E" d="M204.823 344.955v.109l-14.66 26.053-11.268-17.624 25.928-8.538z"/><path fill="#DEEE9C" d="M185.568 62.968c-.109 0-.109 0 0 0-.109-.109-.109-.109 0-.109l16.848-16.53h.109v.11l-1.312 7.663-3.282 10.29s0 .11-.11.11c.11-.11-12.253-1.533-12.253-1.533z"/><path fill="#DEEE9C" d="M202.416 46.33l-1.313 7.662-3.172 10.29-12.363-1.313 16.848-16.64z"/><path fill="#CBE488" d="M185.459 62.969l1.641-23.645v-.11l15.207 7.006v.22l-16.848 16.529c.109 0 .109 0 0 0 .109 0 .109 0 0 0z"/><path fill="#CBE488" d="M202.416 46.33l-16.848 16.639 1.641-23.645 15.207 7.006z"/><path fill="#70AF5F" d="M196.727 15.241L185.678.682v-.11h13.894l2.625.767h.11v.11l-5.58 13.792c.109 0 .109 0 0 0z"/><path fill="#70AF5F" d="M202.088 1.448l-5.361 13.684-10.94-14.45h13.675l2.626.766z"/><path fill="#8DC339" d="M178.894 353.603s-.109 0 0 0l-14.988-14.669v-.109l.11-.11 37.852-11.713h.109v.11l-23.083 26.491z"/><path fill="#8DC339" d="M201.759 327.221l-22.865 26.272-14.878-14.559 37.743-11.713z"/><path fill="#9DCE47" d="M164.016 339.044c-.11 0-.11 0 0 0l-.11-.11 21.443-23.316h.109l16.41 11.603v.11s0 .109-.109.109l-37.743 11.604z"/><path fill="#9DCE47" d="M201.759 327.221l-37.743 11.713 21.333-23.316 16.41 11.603z"/><path fill="#A7DF3D" d="M187.538 288.798s0-.109 0 0l-10.612-25.505v-.11l8.314 6.13 7.658 5.474 5.908 6.787v.218l-11.268 7.006c.109 0 0 0 0 0z"/><path fill="#A7DF3D" d="M193.008 274.896l5.907 6.787-11.377 7.006-10.503-25.397 8.315 6.131 7.658 5.473z"/><path fill="#66A429" d="M183.926 381.298s-.109 0 0 0l-9.737-5.145v-.11l4.705-22.55s0-.109.109-.109h.109l11.269 17.624 1.094 4.598s0 .109-.11.109l-5.142 1.533-2.297 4.05c0-.11 0 0 0 0z"/><path fill="#66A429" d="M190.162 371.117l1.094 4.598-5.033 1.532-2.297 3.941-9.737-5.145 4.705-22.55 11.268 17.624z"/><path fill="#B2DF63" d="M191.695 409.978l-17.066-13.574v-.109h.109l14.222 1.97s.11 0 .11.109l.219 6.35 13.018 6.677s.11.109 0 .109c0 0 0 .11-.109.11 0-.219-10.503-1.642-10.503-1.642z"/><path fill="#B2DF63" d="M191.695 409.868l-17.066-13.573 14.222 1.97.219 6.349 13.128 6.677-10.503-1.423z"/><path fill="#8DC748" d="M174.627 396.404s0-.109 0 0l-.109-.109 9.299-15.216h.218l2.845 3.941v.109l-1.969 3.284 4.157 9.743v.109h-.11c-.109.11-14.331-1.861-14.331-1.861z"/><path fill="#8DC748" d="M184.694 388.413l4.157 9.852-14.222-1.97 9.299-15.107 2.735 3.941-1.969 3.284z"/><path fill="#C2EF60" d="M187.537 288.798l-14.879-16.091v-.11l4.376-9.414h.219l10.502 25.396-.218.219c.109 0 0 0 0 0z"/><path fill="#C2EF60" d="M177.034 263.292l10.503 25.397-14.879-15.982 4.376-9.415z"/><path fill="#C3EF65" d="M159.641 290.003s-.11 0 0 0l-.11-.11 13.019-17.186h.219l14.878 15.982v.109h-.109l-27.897 1.205z"/><path fill="#C3EF65" d="M172.659 272.707l14.879 15.982-27.897 1.204 13.018-17.186z"/><path fill="#B7E75A" d="M151.107 311.239c-.109-.109-.109-.109 0-.109l36.431-22.551v.11l-2.188 26.929v.109l-34.243-4.488z"/><path fill="#B7E75A" d="M187.538 288.689l-2.188 26.928-34.243-4.488 36.431-22.44z"/><path fill="#C1ED66" d="M151.107 311.239c-.109 0-.109-.11-.109-.11l8.533-21.346h.11l27.897-1.204s.109 0 .109.11v.109l-36.54 22.441c.11 0 0 0 0 0z"/><path fill="#C1ED66" d="M187.538 288.689l-36.431 22.44 8.534-21.236 27.897-1.204z"/><path fill="#C2E284" d="M185.568 62.969s-.109 0 0 0l-9.518-10.4-5.798-9.414v-.11h.109l16.957-3.83h.11v.109l-1.86 23.645c.109 0 0 0 0 0z"/><path fill="#C2E284" d="M187.209 39.324l-1.641 23.645-9.408-10.4-5.799-9.414 16.848-3.831z"/><path fill="#84BF65" d="M170.032 31.442s-.11-.11 0 0l-.985-3.065v-.11l-1.094-1.203.985-3.613 17.504-11.713h.109v.11l-10.502 18.828-2.626.328c-.219 0-3.391.438-3.391.438z"/><path fill="#84BF65" d="M169.156 28.268l-1.203-1.314.985-3.503 17.504-11.603-10.612 18.828-2.626.328-3.172.329-.876-3.065z"/><path fill="#82BE64" d="M168.939 23.56c-.109 0-.109-.109 0 0l1.313-11.274s0-.11.11-.11l15.972-.438s.11 0 .11.11v.11L168.939 23.56z"/><path fill="#82BE64" d="M186.443 11.848L168.939 23.45l1.423-11.165 16.081-.438z"/><path fill="#8CC365" d="M170.361 12.395l-9.955-5.364s-.109-.11 0-.11c0 0 0-.109.109-.109l25.928 4.926s.11 0 .11.11c0 0 0 .11-.11.11l-16.082.437z"/><path fill="#8CC365" d="M186.443 11.848l-16.081.438-9.956-5.364 26.037 4.926z"/><path fill="#AFDE51" d="M164.017 339.044c-.11 0-.11 0 0 0l-12.91-27.805v-.109h.11l34.242 4.488s.11 0 .11.109v.11l-21.552 23.207z"/><path fill="#AFDE51" d="M185.35 315.618l-21.333 23.316-12.91-27.804 34.243 4.488z"/><path fill="#81BD3C" d="M174.627 396.404s-.109-.109 0 0l-.547-20.361v-.109l9.737 5.145v.219l-9.19 15.106c.109 0 0 0 0 0z"/><path fill="#81BD3C" d="M183.926 381.188l-9.299 15.107-.438-20.252 9.737 5.145z"/><path fill="#62A020" d="M165.438 381.298s0-.11 0 0c-.11 0-.11-.11-.11-.11l13.456-27.585h.11l.109.109-4.704 22.55-8.861 5.036z"/><path fill="#62A020" d="M178.894 353.493l-4.705 22.55-8.751 5.145 13.456-27.695z"/><path fill="#76AE2F" d="M165.438 381.298s-.109-.109 0 0c-2.188-6.459-6.345-18.828-6.673-19.376-.438-.657-4.704-15.435-4.814-15.982v-.109h.11l24.833 7.662v.11l-13.456 27.695c.11-.109 0 0 0 0z"/><path fill="#76AE2F" d="M178.894 353.493l-13.456 27.586s-6.126-18.609-6.564-19.266c-.437-.657-4.813-15.982-4.813-15.982l24.833 7.662z"/><path fill="#8BC035" d="M178.894 353.603l-24.833-7.663s-.11 0-.11-.109v-.11l9.956-6.896h.109l14.878 14.668c.11 0 .11.11 0 .11z"/><path fill="#8BC035" d="M178.894 353.493l-24.833-7.662 9.955-6.897 14.878 14.559z"/><path fill="#A6CE6F" d="M170.361 43.265c-.109 0-.109 0 0 0-.109 0-.109-.11-.109-.11l1.969-6.349 2.735-1.751 1.969-1.205-1.094-3.284v-.109l11.378 8.757v.11s0 .11-.109.11c.109 0-16.739 3.83-16.739 3.83z"/><path fill="#A6CE6F" d="M176.925 33.96l-1.094-3.284 11.378 8.648-16.848 3.831 1.86-6.24 2.735-1.642 1.969-1.313z"/><path fill="#BBED56" d="M172.659 272.707l-10.175-13.793v-.11h.11l14.441 4.379v.11l-4.376 9.414c.109 0 0 0 0 0z"/><path fill="#BBED56" d="M177.035 263.292l-4.376 9.415-10.065-13.793 14.441 4.378z"/><path fill="#9ED253" d="M174.627 396.404l-9.299-15.216v-.109l8.752-5.145v.109l.547 20.361c.109-.109.109 0 0 0z"/><path fill="#9ED253" d="M174.19 376.043l.437 20.252-9.189-15.107 8.752-5.145z"/><path fill="#D7E992" d="M170.143 118.797c-.11 0-.11-.11 0 0l-.985-3.831.219-8.867s0-.11.109-.11h.11l3.501 6.897-2.954 5.911c0-.11 0 0 0 0z"/><path fill="#D7E992" d="M169.486 106.099l3.392 6.896-2.735 5.692-.875-3.831.218-8.757z"/><path fill="#B4E647" d="M143.012 280.588l-.11-.109 19.583-21.675h.219l10.065 13.793v.11l-.11.109-29.647 7.772z"/><path fill="#B4E647" d="M162.594 258.914l10.065 13.793-29.647 7.772 19.582-21.565z"/><path fill="#B1E34D" d="M159.641 290.003l-16.629-9.415v-.109s0-.109.109-.109l29.648-7.773h.109v.11l-13.237 17.296c.109 0 0 0 0 0z"/><path fill="#B1E34D" d="M172.659 272.707l-13.018 17.186-16.629-9.414 29.647-7.772z"/><path fill="#8DC568" d="M168.939 23.56s-.109 0 0 0l-2.954-6.787-3.391-2.517v-.11s0-.11.109-.11l7.768-1.97h.109v.11l-1.641 11.384c.109 0 .109 0 0 0z"/><path fill="#8DC568" d="M170.361 12.285l-1.422 11.166-2.844-6.678-3.501-2.517 7.767-1.97z"/><path fill="#A0CF6F" d="M162.594 14.366s-.109 0 0 0l-2.188-7.444v-.11h.11l9.955 5.364v.11s0 .11-.109.11l-7.768 1.97z"/><path fill="#A0CF6F" d="M170.362 12.286l-7.768 1.97-2.188-7.334 9.956 5.364z"/><path fill="#D5E893" d="M169.266 114.965c-.109 0-.109 0 0 0l-11.377-8.757v-.11l5.251-2.846 1.532 2.956 4.704-.219h.109v.109l-.219 8.867z"/><path fill="#D5E893" d="M169.485 106.098l-.219 8.758-11.377-8.648 5.251-2.846 1.532 2.955 4.813-.219z"/><path fill="#CEE68D" d="M161.391 113.98l-9.518-1.094s-.109 0-.109-.11v-.109c2.406-2.518 5.907-6.349 6.017-6.568h.218l11.269 8.757v.109h-.11c.11 0-7.767-.985-7.767-.985z"/><path fill="#CEE68D" d="M169.268 114.856l-7.768-1.095-9.518-1.094s6.017-6.349 6.017-6.568l11.269 8.757z"/><path fill="#E3F4AE" d="M151.654 104.019s-.109 0 0 0l-.109-.11 13.347-12.917h.109v.11l-1.75 6.349-11.597 6.568z"/><path fill="#E3F4AE" d="M165.001 90.992l-1.75 6.35-11.597 6.567 13.347-12.917z"/><path fill="#D6EA96" d="M151.654 104.019c-.109 0-.109-.11 0 0l1.86-12.59s0-.109.11-.109l11.377-.437h.11v.109l-13.457 13.027z"/><path fill="#D6EA96" d="M165.001 90.992l-13.347 12.917 1.97-12.479 11.377-.438z"/><path fill="#D4E78F" d="M157.889 106.317s0-.109 0 0c-.109-.109-.109-.218 6.345-8.21h.11s.109.11 0 .11l-1.204 5.145-5.251 2.955z"/><path fill="#D4E78F" d="M164.345 98.107l-1.204 5.145-5.251 2.847c-.219.109 6.455-7.992 6.455-7.992z"/><path fill="#ADDD4D" d="M163.906 339.043l-16.738-7.772s-.11-.109 0-.109l3.829-20.033s0-.109.109-.109h.11l12.799 27.805c.11.109 0 .109-.109.218.109 0 .109 0 0 0 .109 0 0 0 0 0z"/><path fill="#ADDD4D" d="M151.106 311.13l12.91 27.804-16.739-7.772 3.829-20.032z"/><path fill="#99CC3B" d="M154.06 345.94c-.109 0-.109 0 0 0l-6.892-14.778v-.11h.109l16.739 7.772v.219l-9.956 6.897z"/><path fill="#99CC3B" d="M164.016 338.934l-9.956 6.896-6.783-14.668 16.739 7.772z"/><path fill="#BFE283" d="M147.717 11.52s-.11 0 0 0c-.11-.11 0-.11 0-.22l8.861-2.736 3.829-1.752v.11l2.188 7.334v.11h-.11c.11 0-14.768-2.847-14.768-2.847z"/><path fill="#BFE283" d="M160.405 6.922l2.188 7.334-14.878-2.846 8.861-2.737 3.829-1.751z"/><path fill="#9FCD50" d="M113.691 274.677c-.109-.109 0-.109 0-.219l48.793-15.763h.109v.11l-19.583 21.674h-.109c.109.109-29.21-5.802-29.21-5.802z"/><path fill="#9FCD50" d="M162.593 258.914l-19.582 21.565-29.21-5.802 48.792-15.763z"/><path fill="#CFE990" d="M149.794 15.132s-.11 0 0 0l-2.626-2.19v-.11l.438-1.532s0-.11.109-.11l14.878 2.847s.11 0 .11.11c0 0 0 .109-.11.109 0 .11-12.799.876-12.799.876z"/><path fill="#CFE990" d="M162.593 14.256l-12.799.876-2.517-2.19.438-1.532 14.878 2.846z"/><path fill="#ABD05C" d="M113.802 274.787c-.11 0-.11-.11 0 0l-3.829-11.057.328-1.86s0-.11.109-.11l1.422.219 50.871-3.284s.11 0 .11.11c0 0 0 .109-.11.109l-48.901 15.873c0-.11 0 0 0 0z"/><path fill="#ABD05C" d="M162.594 258.914l-48.792 15.763-3.829-10.947.328-1.861 1.313.219 50.98-3.174z"/><path fill="#ACDB54" d="M111.613 262.198l-.109-.11 14.331-13.573 36.649 10.289s.11 0 .11.11c0 0 0 .109-.11.109.11-.109-50.871 3.175-50.871 3.175z"/><path fill="#ACDB54" d="M162.594 258.914l-50.981 3.175 14.441-13.574 36.54 10.399z"/><path fill="#ACDD36" d="M162.594 258.914l-36.539-10.29-.11-.109s0-.11.11-.11l14.441.657 15.097 2.846 7.001 6.787c.11.109.11.219 0 .219.11 0 0 0 0 0z"/><path fill="#ACDD36" d="M162.594 258.914l-36.539-10.399 14.44.656 15.098 2.847 7.001 6.896z"/><path fill="#84BB64" d="M160.406 7.031l-1.312-.766v-.11s0-.11.109-.11l9.737-2.955 8.97-1.313 7.987-1.204h.109v.109l.656 11.166v.11h-.109c-.109 0-26.147-4.927-26.147-4.927z"/><path fill="#84BB64" d="M160.407 6.921l-1.204-.766L168.94 3.2l8.861-1.314 7.986-1.204.657 11.166-26.037-4.927z"/><path fill="#B0E358" d="M151.107 311.239l-8.205-30.76v-.11l16.629 9.415s.11.109 0 .109l-8.424 21.346c.11 0 .11 0 0 0z"/><path fill="#B0E358" d="M159.641 289.893l-8.534 21.236-8.095-30.65 16.629 9.414z"/><path fill="#D7E998" d="M132.4 108.397s-.109 0 0 0c-.109 0-.109-.109-.109-.109l17.066-24.959h.11l9.846 3.503.109.11v.11l-5.689 4.597-21.333 16.748z"/><path fill="#D7E998" d="M159.313 86.832l-5.689 4.598-21.224 16.858 17.067-24.959 9.846 3.503z"/><path fill="#CAE78C" d="M147.496 9.44s-.109 0 0 0c-.109-.11-.109-.11 0-.11l8.096-4.817 7.658-1.423s.109 0 .109.11v.11l-8.314 3.612-4.486 1.86-3.063.657z"/><path fill="#CAE78C" d="M147.496 9.33l8.096-4.707L163.25 3.2l-8.315 3.612-4.485 1.861-2.954.657z"/><path fill="#CAE28A" d="M132.4 108.397s-.109 0 0 0l-.109-.109 21.224-16.858h.109v.11l-1.969 12.479s0 .109-.11.109l-7.001.876-12.144 3.393z"/><path fill="#CAE28A" d="M153.624 91.43l-1.969 12.479-7.002.876-12.253 3.503 21.224-16.858z"/><path fill="#E2F3AD" d="M146.293 52.022c-.11 0-.11 0 0 0l-5.799-5.474-3.391 2.628L130.758 46v-.219l7.877-4.926 13.018 2.956h.11v.11l-1.641 5.035-3.829 3.065z"/><path fill="#E2F3AD" d="M151.544 44.03l-1.751 5.036-3.5 2.846-5.799-5.473-3.5 2.627-6.236-3.065 7.767-5.035 13.019 3.065z"/><path fill="#92C34C" d="M151.106 311.239l-24.615-13.136-12.909-23.426v-.109h.109l17.504 12.479 11.706-6.678v.11l8.096 30.65c.219.11.219.11.109.11.11 0 0 0 0 0z"/><path fill="#92C34C" d="M143.011 280.479l8.095 30.651-24.505-13.137-12.8-23.316 17.504 12.479 11.706-6.677z"/><path fill="#A5DA43" d="M147.279 331.271l-14.004-6.568v-.219l17.942-13.464v.109l-3.829 20.033c0 .109-.109.109-.109.109z"/><path fill="#A5DA43" d="M151.108 311.13l-3.829 20.032-14.004-6.568 17.833-13.464z"/><path fill="#A7D946" d="M133.166 324.703l-.656-9.961s0-.11.109-.11l18.489-3.612h.109v.109l-18.051 13.574c.11 0 .11 0 0 0 .11 0 .11 0 0 0z"/><path fill="#A7D946" d="M151.106 311.13l-17.832 13.464-.657-9.852 18.489-3.612z"/><path fill="#A6D748" d="M132.619 314.851l-6.127-16.748v-.109h.11l24.505 13.136v.109s0 .11-.109.11c.109-.11-18.379 3.502-18.379 3.502z"/><path fill="#A6D748" d="M151.107 311.13l-18.488 3.612-6.017-16.748 24.505 13.136z"/><path fill="#B0DA7C" d="M139.838 125.474c-.109 0-.109 0 0 0l-1.422-4.707v-.109h.109l6.127.109h.109v.11l-.437.547 6.345-3.831h.109v.109l-3.282 7.663h-7.658v.109z"/><path fill="#B0DA7C" d="M150.559 117.702l-3.282 7.663h-7.439l-1.313-4.598 6.017.219-.765.876 6.782-4.16z"/><path fill="#DBF0A5" d="M149.466 83.439l-13.894-6.896v-.11-.11l6.236-8.866h.219l6.564 11.384.875 4.598c.109-.11.109-.11 0 0z"/><path fill="#DBF0A5" d="M148.372 78.95l1.094 4.38-13.894-6.897 6.236-8.867 6.564 11.385z"/><path fill="#DDEEA7" d="M132.399 108.397c-.109 0-.109 0 0 0l-4.266-34.044v-.11h.109l7.33 2.08 13.894 6.897v.219l-17.067 24.958z"/><path fill="#DDEEA7" d="M149.466 83.33l-17.067 24.958-4.157-33.935 7.33 2.08 13.894 6.896z"/><path fill="#E3F4AE" d="M145.198 110.039l-3.829-1.313s-.109 0-.109-.11c0 0 0-.109.109-.109l6.236-.657h.109v.109l-2.516 2.08c.11 0 0 0 0 0z"/><path fill="#E3F4AE" d="M147.607 107.959l-2.407 1.971-3.829-1.314 6.236-.657z"/><path fill="#9ECF6E" d="M133.057 133.465l-.11-.109 6.783-7.991h7.549s.109 0 .109.109v.109l-14.331 7.882c.109 0 0 0 0 0z"/><path fill="#9ECF6E" d="M147.279 125.365l-14.222 7.991 6.782-7.991h7.44z"/><path fill="#E2F3AD" d="M138.527 41.075l-5.142-10.18v-.11h.109l2.954.767 4.157 1.642 3.939 4.16v.219l-6.017 3.502c.109 0 .109 0 0 0z"/><path fill="#E2F3AD" d="M140.496 33.303l3.938 4.16-5.907 3.503-5.033-10.071 2.845.766 4.157 1.642zM134.26 63.625l-7.877-1.86s-.11 0-.11-.11v-.11l2.517-1.97 8.095-10.618h.11s.109 0 .109.11l1.203 3.174 5.252 2.846.218 3.831-1.969 1.861-7.111-1.751 4.814 3.94v.11s0 .11-.11.11c.11 0-5.141.437-5.141.437z"/><path fill="#E2F3AD" d="M143.559 55.197l.109 3.83-1.969 1.752-7.33-1.97 5.142 4.27-5.251.437-7.877-1.86 2.516-1.862 8.096-10.728 1.203 3.175 5.361 2.956z"/><path fill="#EBF8B5" d="M138.088 15.132s-.109 0 0 0l-.109-.11 5.36-6.24 4.157.548s.11 0 .11.11v.109l-3.939 2.627-5.579 2.956z"/><path fill="#EBF8B5" d="M138.088 15.022l5.36-6.24 4.048.548-3.938 2.627-5.47 3.065z"/><path fill="#CAE78C" d="M143.45 8.892l-2.298-.657s-.109 0-.109-.11c0 0 0-.109.109-.109l6.236-1.532 8.205-2.08h.109v.11l-8.095 4.816c-.109.11-4.157-.438-4.157-.438z"/><path fill="#CAE78C" d="M143.448 8.783l-2.298-.548 6.236-1.642 8.205-1.97-8.095 4.707-4.048-.547z"/><path fill="#A3CE5B" d="M131.305 287.266s-.11 0 0 0l-17.614-12.589v-.109h.11l29.319 5.801s.109 0 .109.11v.109l-11.924 6.678z"/><path fill="#A3CE5B" d="M143.01 280.479l-11.705 6.677-17.504-12.479 29.209 5.802z"/><path fill="#EBF8B5" d="M134.477 14.803l-3.282-.219s-.109 0-.109-.11c0 0 0-.109.109-.109l6.455-2.299 1.532-2.298 4.266-1.095h.11v.11l-5.361 6.24h-.109c0 .109-3.611-.22-3.611-.22z"/><path fill="#EBF8B5" d="M143.448 8.782l-5.361 6.24-3.61-.328-3.282-.11 6.455-2.299 1.531-2.408 4.267-1.095z"/><path fill="#E2F3AD" d="M122.006 36.916c-.11-.11 0-.11 0-.11l11.377-5.911 5.142 10.071v.11h-.109c.109 0-16.41-4.16-16.41-4.16z"/><path fill="#E2F3AD" d="M133.493 30.895l5.032 10.071-16.41-4.16 11.378-5.911z"/><path fill="#E2F3AD" d="M130.758 46.11s-.11 0 0 0l-4.595-4.159-4.157-5.035v-.11h.109l16.52 4.16s.109 0 .109.11v.109l-7.986 4.926z"/><path fill="#E2F3AD" d="M138.525 40.966L130.758 46l-4.595-4.16-4.048-5.035 16.41 4.16z"/><path fill="#ACD47B" d="M125.836 130.947c-.109 0-.109 0 0 0-.109 0-.109-.109-.109-.109l8.751-14.669h.219l3.939 4.598v.219l-12.8 9.961z"/><path fill="#ACD47B" d="M134.588 116.169l3.938 4.598-12.69 10.071 8.752-14.669z"/><path fill="#BCDE87" d="M121.24 121.533c-.109 0-.109 0 0 0-.109-.109-.109-.109 0-.109l17.067-10.728h.109v.11l-3.72 5.473-13.456 5.254z"/><path fill="#BCDE87" d="M138.307 110.696l-3.72 5.473-13.347 5.255 17.067-10.728z"/><path fill="#EBF8B5" d="M125.617 13.709c-.109 0-.109 0 0 0-.109-.11-.109-.11 0-.22l7.439-2.736L138.308 9h.109v.11l-1.532 2.19-7.439 2.298-3.829.11z"/><path fill="#EBF8B5" d="M138.198 9.111l-1.531 2.299-7.33 2.299-3.72-.11 7.33-2.736 5.251-1.752z"/><path fill="#E2F3AD" d="M128.899 59.794c-.11 0-.11 0 0 0l-1.204-7.444s0-.11.11-.11l9.299-3.283h.109v.11l-8.314 10.727z"/><path fill="#E2F3AD" d="M136.994 49.066l-8.095 10.728-1.094-7.334 9.189-3.394z"/><path fill="#E2F3AD" d="M127.805 52.46c-.11 0-.11 0 0 0l-.11-.11 2.954-6.458 6.345 3.174v.11s0 .11-.109.11l-9.08 3.174z"/><path fill="#E2F3AD" d="M136.994 49.066l-9.189 3.394L130.758 46l6.236 3.065z"/><path fill="#A3D073" d="M125.836 130.948c-.109 0-.109 0 0 0-.109-.11-.109-.11 0-.11l12.69-10.071.11.11 1.313 4.597v.11h-.11l-2.844-.657-11.159 6.021z"/><path fill="#A3D073" d="M136.995 124.708l-11.159 6.13 12.69-10.071 1.313 4.598-2.844-.657z"/><path fill="#A3D423" d="M131.086 243.37s0-.11 0 0l-1.641-2.846v-.11h6.674s.109 0 .109.11v.109l-5.142 2.737c.11 0 0 0 0 0z"/><path fill="#A3D423" d="M136.119 240.414l-5.033 2.846-1.531-2.846h6.564z"/><path fill="#BADC8A" d="M125.835 130.947c-.109 0-.109 0 0 0l-4.704-9.523v-.11l13.347-5.254h.109v.109l-8.752 14.778z"/><path fill="#BADC8A" d="M134.587 116.169l-8.752 14.669-4.595-9.414 13.347-5.255z"/><path fill="#E2F3AD" d="M122.772 31.223c-.11-.11-.11-.11 0-.219l9.299-2.627h.109l1.422 2.408v.11h-.109c0 .11-10.721.328-10.721.328z"/><path fill="#E2F3AD" d="M132.07 28.487l1.423 2.408-10.722.219 9.299-2.627z"/><path fill="#E2F3AD" d="M122.115 36.916c-.109 0-.109 0 0 0-.109 0-.109 0 0 0l.657-5.802s0-.11.109-.11l10.612-.218s.109 0 .109.11v.109l-11.487 5.91z"/><path fill="#E2F3AD" d="M133.493 30.895l-11.378 5.911.657-5.692 10.721-.219z"/><path fill="#A3D440" d="M133.275 324.703s-.109 0 0 0l-14.331-13.573-11.815-12.918v-.109h.109l25.49 16.639.547 9.961c.11-.109 0 0 0 0z"/><path fill="#A3D440" d="M132.619 314.742l.656 9.852-14.222-13.574-11.924-12.917 25.49 16.639z"/><path fill="#A1CF49" d="M132.619 314.852l-25.49-16.64v-.109s0-.109.109-.109l19.474-.11s.109 0 .109.11l6.017 16.748c-.109 0-.109.11-.219.11.11 0 .11 0 0 0z"/><path fill="#A1CF49" d="M126.602 297.994l6.017 16.748-25.49-16.639 19.473-.109z"/><path fill="#DDF0A9" d="M114.02 108.397l-.11-.109 14.113-33.935h.109s.11 0 .11.11l4.157 33.934v.11H114.02v-.11z"/><path fill="#DDF0A9" d="M128.242 74.353l4.157 33.935H114.02l14.222-33.935z"/><path fill="#CCE799" d="M121.131 121.533l-9.518-2.955s-.109 0-.109-.11v-.109l20.676-10.181h.11v.11l-11.159 13.245c.109 0 .109 0 0 0 .109 0 0 0 0 0z"/><path fill="#CCE799" d="M132.399 108.288l-11.159 13.136-9.517-2.956 20.676-10.18z"/><path fill="#EBF8B5" d="M126.055 24.108c-.11 0-.11-.11-.11-.11l2.188-4.16h.11l3.829.986s.109 0 .109.11v.109l-6.126 3.065z"/><path fill="#EBF8B5" d="M132.181 20.824L126.055 24l2.297-4.16 3.829.985zM125.836 18.087c-.109 0-.109 0 0 0-.109-.11-.109-.11 0-.219l2.516-1.094 1.094-1.095 2.516.11 2.626-1.095 3.61.328h.11v.11l-1.532 2.517h-.109l-4.814.11c.109 0-6.017.328-6.017.328z"/><path fill="#EBF8B5" d="M131.853 15.898l2.626-1.204 3.61.328-1.313 2.518-4.814.11-6.126.328 2.516-1.095 1.094-1.094 2.407.109z"/><path fill="#DEEFA8" d="M128.242 74.463c-.109 0-.109-.11 0 0l-7.877-9.743v-.11h.11l9.517 3.175.11.11-1.86 6.568c0-.11 0-.11 0 0z"/><path fill="#DEEFA8" d="M129.993 67.785l-1.751 6.568-7.877-9.742 9.628 3.174z"/><path fill="#E2F3AD" d="M128.898 59.794l-6.455-2.299-6.564 2.299-2.078-1.642v-.219l2.954-1.532 10.83-4.16v.11l1.094 7.334c.328.109.328.109.219.109z"/><path fill="#E2F3AD" d="M127.804 52.46l1.094 7.334-6.455-2.299-6.673 2.19-1.86-1.533 2.954-1.532 10.94-4.16z"/><path fill="#EBF8B5" d="M119.49 22.685c-.109 0-.109 0 0 0-.109-.11 0-.11 0-.22l8.862-2.736h.109v.11l-2.188 4.16h-.109c-.11.109-6.674-1.314-6.674-1.314z"/><path fill="#EBF8B5" d="M128.352 19.839l-2.298 4.16-6.564-1.423 8.862-2.737z"/><path fill="#E0F1AB" d="M108.879 87.599c-.109 0-.109-.11-.109-.11l11.487-22.878h.218l7.768 9.742v.22l-19.364 13.026c.109 0 .109 0 0 0z"/><path fill="#E0F1AB" d="M120.366 64.61l7.877 9.743-19.364 13.136 11.487-22.878z"/><path fill="#E3F4AE" d="M114.021 108.397s-.11 0 0 0l-5.142-20.908v-.11l19.254-13.135h.11v.11l-14.222 34.043c.109 0 .109 0 0 0z"/><path fill="#E3F4AE" d="M128.243 74.353l-14.222 33.935-5.142-20.799 19.364-13.136z"/><path fill="#92B74D" d="M107.129 298.212c0-.109 0-.109 0 0l2.516-15.434 3.938-8.101h.219l12.8 23.426v.109H107.129z"/><path fill="#92B74D" d="M113.802 274.677l12.8 23.316-19.473.11 2.625-15.325 4.048-8.101z"/><path fill="#ABD45C" d="M111.613 262.198c-.109 0-.109-.11-.109-.11l3.719-9.195 10.722-4.378h.109v.109l-14.441 13.574c.11 0 .11 0 0 0z"/><path fill="#ABD45C" d="M126.054 248.515l-14.441 13.574 3.72-9.196 10.721-4.378z"/><path fill="#90CA12" d="M115.332 238.225s-.11-.11 0 0c-.11-.11 0-.11 0-.219l9.408-2.299s.11 0 .11.109l1.094 3.613v.109h-.11l-10.502-1.313z"/><path fill="#90CA12" d="M124.852 235.816l.984 3.613-10.502-1.314 9.518-2.299z"/><path fill="#B6DC85" d="M119.162 143.865l1.86-22.441s0-.11.109-.11h.11l4.595 9.415-5.689 8.647-.985 4.489c.11 0 .11 0 0 0 .11 0 .11 0 0 0z"/><path fill="#B6DC85" d="M121.241 121.424l4.595 9.414-5.689 8.538-.876 4.379 1.97-22.331z"/><path fill="#EBF8B5" d="M123.319 50.051l-1.532-1.532-.656-2.408s0-.11.109-.11c.11 0 3.392-1.204 3.72-1.313h.109c0 .328-.875 3.065-1.75 5.363.109 0 0 0 0 0z"/><path fill="#EBF8B5" d="M124.85 44.797c.219 0-1.531 5.145-1.531 5.145l-1.422-1.532-.657-2.3s3.392-1.203 3.61-1.313z"/><path fill="#E5F4AA" d="M115.332 39.105c-.109 0-.109-.11-.109-.11l6.564-11.712h.109s.109 0 .109.109l.876 3.831-7.549 7.882c.109-.11 0 0 0 0z"/><path fill="#E5F4AA" d="M121.898 27.282l.875 3.832-7.439 7.881 6.564-11.712z"/><path fill="#E2F3AD" d="M115.332 39.105s0-.11 0 0l-.109-.11 7.439-7.772h.109v.11l-.766 5.692s0 .11-.109.11l-6.564 1.97z"/><path fill="#E2F3AD" d="M122.773 31.114l-.656 5.692-6.783 2.19 7.439-7.882z"/><path fill="#E2F3AD" d="M115.332 39.105s-.109-.11 0 0c-.109-.11-.109-.11 0-.219l6.673-2.08h.11v.11l-.219 1.642s0 .11-.109.11c.109 0-6.455.437-6.455.437z"/><path fill="#E2F3AD" d="M122.117 36.806l-.219 1.752-6.564.438 6.783-2.19z"/><path fill="#E2F3AD" d="M115.334 39.105l-6.674-5.035v-.11-.11l6.892-5.473 6.236-1.204h.11v.11l-6.564 11.822c.109-.11.109-.11 0 0z"/><path fill="#E2F3AD" d="M121.898 27.282l-6.564 11.713-6.564-5.035 3.829-3.065 3.172-2.408 6.127-1.204z"/><path fill="#C9E493" d="M119.271 143.864c-.109 0-.109 0 0 0l-7.548-25.396v-.109h.109l9.518 2.955s.109 0 .109.11l-2.188 22.44z"/><path fill="#C9E493" d="M121.24 121.424l-1.969 22.331-7.548-25.287 9.517 2.956z"/><path fill="#E2F3AD" d="M108.879 87.599s0-.11 0 0l-.766-9.852 2.845-3.722 9.299-9.524h.109v.11l-11.487 22.988c.109 0 .109 0 0 0z"/><path fill="#E2F3AD" d="M120.366 64.61l-11.487 22.88-.656-9.743 2.953-3.613 9.19-9.523z"/><path fill="#DFF3AC" d="M111.066 74.134l-.328-7.334s0-.11.11-.11l9.517-2.189h.11v.11l-9.409 9.523c.11 0 .11.11 0 0 0 .11 0 .11 0 0z"/><path fill="#DFF3AC" d="M120.365 64.61l-9.189 9.524-.219-7.334 9.408-2.19z"/><path fill="#EBF8B5" d="M114.676 18.634c-.11-.109-.11-.109 0-.218l2.188-.986h-1.313s-.109 0-.109-.11v-.109l4.813-1.97h.11v.11l-.985 2.517-.109.11c0 .11-4.595.656-4.595.656z"/><path fill="#EBF8B5" d="M120.255 15.57l-.984 2.408-4.595.657 2.625-1.205h-1.75l4.704-1.86zM112.926 26.297c-.11-.11-.11-.11 0-.219l6.564-3.612 6.673 1.423s.11 0 .11.11c0 0 0 .109-.11.109-.109 0-13.128 2.19-13.237 2.19z"/><path fill="#EBF8B5" d="M119.49 22.575L126.054 24l-13.128 2.189 6.564-3.613z"/><path fill="#D3EA99" d="M119.272 143.864c-.109 0-.109 0 0 0l-20.02-19.266v-.109-.11l12.472-6.13v.11l7.548 25.287v.218z"/><path fill="#D3EA99" d="M111.724 118.468l7.548 25.287-20.02-19.157 12.472-6.13z"/><path fill="#D9EE9F" d="M104.064 158.533l-40.806-31.089v-.109h.11l55.903 16.42s.109 0 .109.109v.11l-9.627 5.035-2.188 5.911-3.501 3.613c.109 0 .109 0 0 0z"/><path fill="#D9EE9F" d="M119.271 143.755l-9.737 5.035-2.188 6.021-3.282 3.722-40.697-31.198 55.904 16.42z"/><path fill="#E1F3A7" d="M119.161 143.864l-55.903-16.42s-.11 0-.11-.109c0 0 0-.11.11-.11l35.883-2.736 20.02 19.266c.11 0 .11.109 0 .109.11 0 .11 0 0 0 .11 0 0 0 0 0z"/><path fill="#E1F3A7" d="M119.271 143.755l-55.904-16.42 35.883-2.737 20.021 19.157z"/><path fill="#EBF8B5" d="M112.926 26.297l-.11-.11 3.173-3.612-1.86-.985v-.11s0-.109.11-.109l3.61-1.094 3.282.219h.109v.109l-1.75 1.97-6.564 3.722c.109 0 .109 0 0 0z"/><path fill="#EBF8B5" d="M116.317 22.466l-1.969-.985 3.61-1.095 3.282.219-1.75 1.97-6.564 3.613 3.391-3.722z"/><path fill="#E2F3AD" d="M105.815 41.185l-2.297-1.314v-.11-.109l5.251-5.802h.109l6.564 5.036v.11s0 .109-.109.109c0 0-9.409 2.08-9.518 2.08z"/><path fill="#E2F3AD" d="M115.333 38.995l-4.923 1.095-4.595.985-2.188-1.314 5.142-5.801 6.564 5.035z"/><path fill="#E9F8B5" d="M89.843 59.356l-5.689-2.846v-.11s0-.109.11-.109l14.331-4.27 8.424-7.333 3.72-3.613h.109l3.72 1.861v.22l-3.282 3.392-2.188 5.693-9.081 2.518-2.625 4.05c0-.11-7.549.547-7.549.547z"/><path fill="#E9F8B5" d="M114.458 43.155l-3.282 3.284-2.297 5.802-8.971 2.408-2.626 4.05-7.439.548-5.689-2.846 14.332-4.16 8.424-7.444 3.829-3.612 3.719 1.97z"/><path fill="#E3F4AE" d="M99.688 106.865l-.11-.11 9.19-19.266h.109s.11 0 .11.11l5.141 20.798v.11h-.109c0-.11-14.332-1.642-14.332-1.642z"/><path fill="#E3F4AE" d="M108.879 87.49l5.142 20.798-14.332-1.533 9.19-19.266z"/><path fill="#6BA81F" d="M112.378 241.18l-1.859-1.751-5.142-2.189s-.11-.11 0-.11c0 0 0-.109.109-.109l6.017.328-1.094-4.707v-.11h.11l4.813 5.583v.11l-2.954 2.955c.11 0 .11 0 0 0z"/><path fill="#6BA81F" d="M111.724 237.458l-1.203-4.926 4.813 5.583-2.954 2.956-1.641-1.752-5.251-2.298 6.236.437z"/><path fill="#E2F3AD" d="M98.485 52.24c-.11 0-.11-.109-.11-.109l2.626-7.006-4.267.767h-.109v-.11l4.048-8.976 10.393-7.882h.109l1.532 1.97v.22l-3.829 3.065-5.142 5.801 2.188 1.314 4.485-.985s.11 0 .11.11l.219 1.203-3.72 3.722-8.533 6.897z"/><path fill="#E2F3AD" d="M100.782 36.806l10.284-7.882 1.531 1.97-3.829 3.066-5.142 5.801 2.188 1.314 4.595-.985.328 1.095-3.829 3.612-8.423 7.444 2.735-7.225-4.486.766 4.048-8.976z"/><path fill="#EBF8B5" d="M107.02 69.755l-.985-.985v-.11-.109l3.282-1.751h.109v.11l-2.406 2.845c.109 0 0 0 0 0z"/><path fill="#EBF8B5" d="M109.425 66.91l-2.407 2.736-.875-.985 3.282-1.752z"/><path fill="#E3F4AE" d="M99.69 106.865s0-.11 0 0l2.953-13.683 6.236-5.693h.109v.11l-9.299 19.266c.11 0 .11 0 0 0z"/><path fill="#E3F4AE" d="M108.879 87.49l-9.19 19.265 3.064-13.573 6.126-5.693z"/><path fill="#EBF8B5" d="M95.97 67.347s-.11 0 0 0c-.11 0-.11-.109 0 0v-1.423l-1.423-.656v-.22l6.345-7.334h.109l4.048 1.97 1.969 3.504v.11h-.109l-5.689.546-5.25 3.503z"/><path fill="#EBF8B5" d="M104.94 59.794l1.969 3.394-5.689.547-5.25 3.503.108-1.423-1.531-.657L101 57.824l3.939 1.97zM102.752 28.487c-.109-.11-.109-.11 0-.11l2.844-2.19-2.297.11s-.109 0-.109-.11v-.109l3.5-1.97v.11l.11.875 1.641-1.751 3.61-1.095h.109v.11l-3.61 3.065-2.188 1.642-3.61 1.423z"/><path fill="#EBF8B5" d="M108.659 25.422l-2.188 1.642-3.719 1.422 3.172-2.408-2.625.11 3.501-1.97.218 1.094 1.751-1.86 3.61-1.096-3.72 3.066z"/><path fill="#A0CE67" d="M89.623 186.666c-.11 0-.11-.11-.11-.11l14.442-28.023h.109s.109 0 .109.109l-.765 13.903-13.785 14.121c.11 0 .11 0 0 0z"/><path fill="#A0CE67" d="M104.064 158.533l-.657 13.902-13.784 14.121 14.441-28.023z"/><path fill="#7DB952" d="M65.557 196.518s-.11 0 0 0l-.11-.11 38.509-37.875h.109v.109l-14.33 27.914-4.814 7.882h-8.424c0 .11-10.94 2.08-10.94 2.08z"/><path fill="#7DB952" d="M104.065 158.533l-14.44 28.023-4.814 7.882h-8.314l-10.94 1.97 38.508-37.875z"/><path fill="#C1E383" d="M65.557 196.518s-.11-.109 0 0l-10.174-42.364v-.109h.11l48.682 4.379s.11 0 .11.109v.11l-38.728 37.875z"/><path fill="#C1E383" d="M104.064 158.533l-38.509 37.875-10.065-42.254 48.574 4.379z"/><path fill="#D9EF9C" d="M55.492 154.154s-.11 0 0 0l-.11-.109 7.878-26.71.109-.109 40.697 31.088v.11s0 .109-.11.109c.11 0-48.464-4.379-48.464-4.379z"/><path fill="#D9EF9C" d="M104.064 158.533l-48.574-4.379 7.877-26.819 40.697 31.198z"/><path fill="#EBF8B5" d="M98.703 69.099s-.11 0 0 0l-.11-.11 2.079-2.627 3.392-.547h.109v.11l-2.625 3.283h-.11c-.109.11-2.735-.11-2.735-.11z"/><path fill="#EBF8B5" d="M104.064 65.924l-2.735 3.284-2.626-.11 2.079-2.627 3.282-.547z"/><path fill="#82AE3D" d="M101.658 265.701l-15.098-6.787s-.11 0 0-.11c0 0 0-.109.11-.109l5.25-.657 9.956 7.444c-.109.109-.109.219-.218.219.109 0 .109 0 0 0z"/><path fill="#82AE3D" d="M101.658 265.701l-15.097-6.787 5.25-.657 9.847 7.444z"/><path fill="#EBF8B5" d="M96.625 36.259l-1.86-2.518v-.11l.11-.109 6.673-1.86h.11v.109l-4.267 3.721-.766.767c.11 0 0 0 0 0z"/><path fill="#EBF8B5" d="M101.548 31.77l-4.266 3.722-.657.657-1.75-2.518 6.673-1.86z"/><path fill="#E2F3AD" d="M98.485 52.24s-.11 0 0 0l-1.75-6.458v-.11h.109l4.485-.875h.109v.11l-2.953 7.334c.11 0 0 0 0 0z"/><path fill="#E2F3AD" d="M101.22 45.016l-2.735 7.225-1.75-6.459 4.485-.766z"/><path fill="#E2F3AD" d="M90.17 45.344s0-.109 0 0c-.11-.109-.11-.109 0-.109l10.612-8.32v.11l-4.048 8.976h-.11c.11-.11-6.454-.657-6.454-.657z"/><path fill="#E2F3AD" d="M100.784 36.806l-4.048 8.976-6.564-.547 10.612-8.429z"/><path fill="#4B8C21" d="M99.47 230.234l-1.423-7.444.766-3.393s0-.11.11-.11h.108L107.566 231v.109h-.11c0 .11-7.986-.875-7.986-.875z"/><path fill="#4B8C21" d="M98.156 222.79l.766-3.394 8.533 11.713-7.986-.985-1.313-7.334z"/><path fill="#E8F7B3" d="M63.367 127.444s-.11 0 0 0c-.11-.109-.11-.109 0-.109l36.32-20.58v.11l-.437 17.843s0 .109-.11.109c.11-.109-35.773 2.627-35.773 2.627z"/><path fill="#E8F7B3" d="M99.688 106.755l-.438 17.843-35.883 2.737 36.321-20.58z"/><path fill="#E5F7AD" d="M63.367 127.445c-.11 0-.11-.11-.11-.11l11.597-35.577s0-.11.11-.11l12.362 3.613 6.783 8.539 5.688 2.846v.219l-36.43 20.58z"/><path fill="#E5F7AD" d="M99.688 106.755l-36.32 20.58 11.596-35.577 12.362 3.613 6.673 8.538 5.689 2.846z"/><path fill="#4B8623" d="M95.313 239.101c-.11 0-.11-.11 0 0l-.11-4.379v-.109l3.61 2.736v.219l-3.5 1.533z"/><path fill="#4B8623" d="M98.923 237.459l-3.61 1.532v-4.269l3.61 2.737z"/><path fill="#E2F3AD" d="M84.154 56.51l-.11-.11 7.878-9.085-1.86-1.97v-.11h.11l6.563.657s.11 0 .11.11l1.75 6.348s0 .11-.11.11l-14.33 4.05z"/><path fill="#E2F3AD" d="M96.735 45.782l1.75 6.459-14.33 4.16 3.61-4.16 4.266-4.926-1.86-2.08 6.564.547z"/><path fill="#EBF8B5" d="M90.498 39.98c-.11 0-.11-.109 0 0-.11-.109-.11-.109 0-.109l6.126-3.722h.11v.11l-3.282 3.503c-.11-.11-2.954.218-2.954.218z"/><path fill="#EBF8B5" d="M96.626 36.15l-3.282 3.502-2.844.219 6.126-3.722z"/><path fill="#EBF8B5" d="M90.498 39.98s-.11 0 0 0c-.11-.109-.11-.109 0 0l.219-2.955v-.11l3.829-1.532.219-1.751s0-.11.11-.11h.108l1.75 2.518v.219l-6.235 3.722z"/><path fill="#EBF8B5" d="M94.876 33.632l1.75 2.517-6.126 3.722.328-2.846 3.72-1.532.328-1.861z"/><path fill="#E9F8B5" d="M83.936 67.347L64.9 60.341l-.109-.11s0-.109.11-.109l24.943-.985 5.579 1.204s.11 0 .11.11v.11l-11.597 6.786c.11 0 0 0 0 0z"/><path fill="#E9F8B5" d="M95.314 60.56l-11.378 6.787L64.9 60.341l24.944-1.094 5.47 1.313z"/><path fill="#70AE43" d="M91.812 210.092l-4.048-8.867-3.063-6.787 4.814-7.991h.11s.109 0 .109.109l5.032 14.888-2.954 8.648c.11 0 .11 0 0 0z"/><path fill="#70AE43" d="M89.624 186.556l5.033 14.888-2.845 8.538-3.938-8.757-3.063-6.787 4.813-7.882z"/><path fill="#EBF8B5" d="M91.375 31.88s-.11 0 0 0l1.313-3.94 6.235-2.956h.11v.11l-4.048 3.064 6.126-2.627h.11v.11l-4.267 4.05-5.58 2.19z"/><path fill="#EBF8B5" d="M92.797 27.94l6.127-2.956-4.595 3.612 6.673-2.955-4.266 3.94-5.361 2.19 1.422-3.832z"/><path fill="#E0F4A9" d="M94 104.019l-6.783-8.539v-.11l.11-.109L94 93.51V104.019c.109-.11.109 0 0 0 .109 0 0 0 0 0z"/><path fill="#E0F4A9" d="M94 93.62v10.289l-6.674-8.538L94 93.619z"/><path fill="#66A12D" d="M98.048 222.9l-6.782-3.066-8.205 1.752s-.11 0-.11-.11v-.109l6.455-3.831 9.408 1.751h.11v.11l-.766 3.393-.11.11c.11 0 .11 0 0 0 .11 0 .11 0 0 0z"/><path fill="#66A12D" d="M91.375 219.725l-8.314 1.751 6.454-3.831 9.409 1.751-.766 3.394-6.783-3.065z"/><path fill="#EBF8B5" d="M84.482 35.164c-.109-.11-.109-.11 0-.11L88.64 32.1l-3.83.985h-.109v-.11l7.987-5.035v.11l-1.423 3.831-.984.438-5.799 2.846c.11 0 0 0 0 0z"/><path fill="#EBF8B5" d="M89.077 31.88l-4.266 1.095 7.986-5.036-1.422 3.831-.985.438-5.908 2.847 4.595-3.175z"/><path fill="#E2F3AD" d="M64.9 60.341s-.109 0 0 0l-.109-.11 5.689-5.254 5.798 1.314 6.892-3.831v.11l.875 3.94 5.58 2.737v.11s0 .109-.11.109c.329-.11-24.615.875-24.615.875z"/><path fill="#E2F3AD" d="M89.844 59.247L64.9 60.34l5.69-5.254 5.688 1.313 7.001-3.94.876 3.94 5.689 2.847z"/><path fill="#EBF8B5" d="M86.999 51.584c-.11 0-.11 0 0 0l-2.407-2.627v-.11-.11l3.5-1.97v.11L87 51.584z"/><path fill="#EBF8B5" d="M88.202 46.877L87 51.584l-2.407-2.736 3.61-1.97z"/><path fill="#E0F4A9" d="M87.327 95.48l-12.362-3.612s-.11 0-.11-.11c0 0 0-.11.11-.11l5.47-1.203 6.892 4.816c.11.11.11.11 0 .219.11 0 0 0 0 0z"/><path fill="#E0F4A9" d="M87.327 95.37l-12.362-3.612 5.47-1.204 6.892 4.817z"/><path fill="#528722" d="M86.561 258.914l-11.924-8.976v-.219l12.252-7.444v.109l-.328 16.53c.11 0 .11 0 0 0 .11 0 0 0 0 0z"/><path fill="#528722" d="M87 242.384l-.439 16.53-11.815-9.086L87 242.384z"/><path fill="#467D22" d="M74.746 249.938s-.11 0 0 0l-.765-6.897v-.109h.109l13.018-.657s.11 0 .11.109v.11l-12.472 7.444z"/><path fill="#467D22" d="M86.999 242.384l-12.253 7.444-.656-6.787 12.909-.657z"/><path fill="#E8F8AF" d="M70.152 83.877s0-.11 0 0L64.79 60.34v-.11h.11l19.035 7.007.11.11v.109l-5.908 6.568-7.986 9.852c.109 0 .109 0 0 0z"/><path fill="#E8F8AF" d="M83.936 67.347l-5.908 6.568-7.876 9.852L64.9 60.341l19.036 7.006z"/><path fill="#EBF8B5" d="M79.34 50.599c0-.11 0-.11 0 0l-3.5-7.991v-.11h.11l5.36 2.08 1.531 3.284v.11l-3.5 2.627c.109-.11.109 0 0 0 .109 0 .109 0 0 0z"/><path fill="#EBF8B5" d="M81.31 44.688l1.531 3.174-3.391 2.627-3.5-7.99 5.36 2.189z"/><path fill="#EBF8B5" d="M81.31 44.797l-5.36-2.08s-.11 0-.11-.11c0 0 0-.109.11-.109l5.141-1.532h.11v.11l-.657 1.97 6.127-5.364h.219v.11l-5.58 7.005c.11 0 0 0 0 0z"/><path fill="#EBF8B5" d="M80.216 43.264l6.454-5.582-5.36 7.005-5.36-2.189 5.141-1.532-.875 2.298z"/><path fill="#EBF8B5" d="M75.95 42.608c-.11 0-.11 0 0 0l-.11-3.284s0-.11.11-.11l3.828-1.204h.11v.11l-3.939 4.488z"/><path fill="#EBF8B5" d="M79.778 38.12l-3.829 4.378-.11-3.174 3.94-1.204zM79.45 50.599s-.11 0 0 0l-10.065-6.13v-.11s0-.11.11-.11l6.563-1.75h.11l3.5 7.88c-.11.11-.219.11-.219.22 0-.11 0 0 0 0z"/><path fill="#EBF8B5" d="M75.949 42.498l3.5 7.991-10.064-6.13 6.564-1.86z"/><path fill="#EBF8B5" d="M74.089 53.226l-1.203-1.423-3.61-7.553v-.11h.109l10.064 6.13v.22l-5.36 2.736z"/><path fill="#EBF8B5" d="M79.45 50.49l-5.361 2.627-1.204-1.314-3.5-7.444 10.064 6.13z"/><path fill="#609A2C" d="M74.308 234.175l-5.58-7.444v-.11-.109l5.47-2.846h.11l3.063 2.846v.109l-3.063 7.554c.11 0 .11 0 0 0z"/><path fill="#609A2C" d="M77.371 226.622l-3.063 7.443-5.47-7.443 5.47-2.847 3.063 2.847z"/><path fill="#EBF8B5" d="M69.385 44.36s-.11 0 0 0c-.11-.11-.11-.11 0-.11l6.454-4.926v.11l.11 3.174s0 .11-.11.11l-6.454 1.641z"/><path fill="#EBF8B5" d="M69.385 44.36l6.454-5.036.11 3.174-6.564 1.861z"/><path fill="#427A1F" d="M66.213 248.405l-8.533-4.597v-.219l16.628-9.633v.109l1.094 4.16-1.422 4.816.766 6.787v.11h-.11c.11 0-8.423-1.533-8.423-1.533z"/><path fill="#427A1F" d="M74.308 234.065l1.094 4.16-1.312 4.816.656 6.787-8.533-1.532-8.533-4.598 8.861-5.035 7.767-4.598z"/><path fill="#E0F4A9" d="M56.586 105.989c-.11 0-.11-.109-.11-.109l13.566-22.113h.219l3.172 2.627 1.641 5.474v.11l-18.488 14.011z"/><path fill="#E0F4A9" d="M73.324 86.394l1.641 5.364-18.38 14.122 13.566-22.113 3.173 2.627z"/><path fill="#E1F6A7" d="M63.369 127.445s-.11 0 0 0l-6.892-21.565v-.11l18.488-14.121v.11L63.37 127.444c.11 0 0 0 0 0z"/><path fill="#E1F6A7" d="M74.965 91.758L63.37 127.335l-6.783-21.455 18.38-14.122z"/><path fill="#4C861D" d="M66.432 238.772s0-.109 0 0l-1.094-1.861 3.391-10.29.11-.109h.11l5.47 7.444v.219l-7.987 4.597c.11 0 .11 0 0 0z"/><path fill="#4C861D" d="M68.839 226.621l5.47 7.444-7.768 4.598-1.094-1.861 3.392-10.181z"/><path fill="#EBF8B5" d="M69.385 51.146s0-.11 0 0l-.11-6.787s0-.11.11-.11h.11l3.61 7.554v.11h-.11c-.11 0-3.61-.767-3.61-.767z"/><path fill="#EBF8B5" d="M69.385 44.36l3.5 7.443-3.39-.766-.11-6.678z"/><path fill="#EBF8B5" d="M61.18 58.48s-.11 0 0 0c-.11 0-.11-.109-.11-.109l.766-1.752-2.078-.766-.11-.11v-.109l9.628-4.707 3.5.767s.11 0 .11.109v.11l-4.595 3.393-7.11 3.174z"/><path fill="#EBF8B5" d="M72.886 51.803l-2.954 2.299-1.532 1.094-7.22 3.175.766-1.752-2.188-.875 9.736-4.707 3.392.766z"/><path fill="#E5F8A9" d="M70.15 83.877L56.365 73.04v-.11l8.424-12.698h.11s.109 0 .109.11l5.142 23.535c.11-.11.11-.11 0 0 .11 0 .11 0 0 0z"/><path fill="#E5F8A9" d="M64.9 60.341l5.252 23.426L56.477 72.93 64.9 60.341z"/><path fill="#E3F7A8" d="M56.584 105.989c-.11 0-.11-.11 0 0l-.219-33.059v-.11L70.15 83.659v.11l-13.566 22.221c.11 0 0 0 0 0z"/><path fill="#E3F7A8" d="M70.152 83.767L56.586 105.88l-.11-32.95 13.676 10.837z"/><path fill="#6FAD40" d="M56.805 199.364s-.11 0 0 0l-.22-.876v-.109h.11l8.971-2.08 3.063 2.956v.109H56.805z"/><path fill="#6FAD40" d="M68.62 199.364l-11.815-.109-.22-.767 8.972-2.08 3.063 2.956z"/><path fill="#EBF8B5" d="M60.523 53.007c-.109 0-.109-.11-.109-.11l1.641-3.064 7.22-5.583v.11l.11 6.786s0 .11-.11.11l-5.25.656h-.11v-.109l2.954-3.393-6.346 4.597z"/><path fill="#EBF8B5" d="M67.744 47.643l-7.22 5.255 1.64-3.065 7.22-5.474.11 6.678-5.25.657 3.5-4.05z"/><path fill="#4C861D" d="M57.679 243.808s-.11 0 0 0l-5.58-9.086v-.109h.11l7.22 4.05 5.908-1.861h.11l1.093 1.861v.109l-8.861 5.036z"/><path fill="#4C861D" d="M65.446 236.802l1.094 1.861-8.861 5.035-5.47-9.085 7.22 4.05 6.017-1.861z"/><path fill="#92C75D" d="M65.556 196.518l-32.054-12.26s-.11 0-.11-.11l.11-.657 21.88-29.446h.11s.109 0 .109.109l10.065 42.255-.11.109z"/><path fill="#92C75D" d="M55.491 154.154l10.065 42.254-32.054-12.26.11-.657 21.88-29.337z"/><path fill="#71B047" d="M31.424 204.4c-.11-.11-.11-.11 0 0l1.969-20.252v-.109l32.054 12.26s.11 0 .11.11c0 0 0 .109-.11.109.11 0-34.023 7.882-34.023 7.882z"/><path fill="#71B047" d="M65.557 196.408l-8.971 2.08-25.162 5.802 2.078-20.142 32.055 12.26z"/><path fill="#E8F7AD" d="M56.477 73.04c-.11 0-.11 0 0 0V62.093s0-.11.109-.11l8.314-1.751h.11v.11L56.477 73.04z"/><path fill="#E8F7AD" d="M64.9 60.341L56.477 72.93l.109-10.837L64.9 60.34z"/><path fill="#D3ED95" d="M20.045 154.154c-.11 0-.11 0 0 0l-.11-.109 36.54-48.166h.11s.109 0 .109.11l6.783 21.455v.11l-43.432 26.6z"/><path fill="#D3ED95" d="M56.585 105.879l6.782 21.456-43.322 26.819 36.54-48.275z"/><path fill="#B8E17B" d="M20.045 154.154c-.11 0-.11 0 0 0-.11-.109-.11-.109 0-.109l43.322-26.71v.109l-7.876 26.71s0 .11-.11.11H20.045v-.11z"/><path fill="#B8E17B" d="M63.367 127.335l-7.876 26.819H20.045l43.322-26.819z"/><path fill="#E8FAAE" d="M56.585 62.093s-.11 0 0 0l-2.954-3.722v-.11h.11l5.25.33h.11v.109l-2.516 3.393z"/><path fill="#E8FAAE" d="M58.992 58.7l-2.407 3.393-2.845-3.722 5.252.328z"/><path fill="#5C9732" d="M44.989 242.932l-11.159-6.349v-.11s0-.109.11-.109l18.379-1.861h.11l5.47 9.085v.11h-.11c-.11.109-12.8-.766-12.8-.766z"/><path fill="#5C9732" d="M52.21 234.613l5.47 9.085-12.691-.875-11.159-6.35 18.38-1.86z"/><path fill="#6FAD40" d="M29.016 227.825s-.11 0 0 0c-.11 0-.11-.109 0 0l2.297-23.535s0-.11.11-.11c0 0 25.161-5.801 25.27-5.801 0 0 .11 0 .11.109l.219.766v.11l-8.096 6.349-1.531 7.225-18.38 14.887z"/><path fill="#6FAD40" d="M56.584 198.489l.22.766-8.096 6.349-1.532 7.225-18.16 14.887 2.406-23.426 25.162-5.801z"/><path fill="#E8FAAE" d="M56.475 73.04s-.11 0 0 0L53.631 58.37v-.11h.11l2.844 3.723-.11 11.056c.11 0 0 0 0 0z"/><path fill="#E8FAAE" d="M53.74 58.371l2.845 3.722-.11 10.837-2.735-14.559z"/><path fill="#E3F8AA" d="M35.47 107.303c-.109 0-.109 0 0 0l-.109-.11L56.366 72.93h.11s.109 0 .109.11l.11 32.949s0 .11-.11.11c0-.11-21.114 1.204-21.114 1.204z"/><path fill="#E3F8AA" d="M56.475 72.93l.11 32.95-21.114 1.313L56.476 72.93z"/><path fill="#BAE380" d="M20.045 154.154c-.11 0-.11 0 0 0-.11 0-.11-.109-.11-.109l15.426-46.852s0-.109.11-.109l21.114-1.314h.109v.109l-36.65 48.275z"/><path fill="#BAE380" d="M56.584 105.879l-36.54 48.275 15.426-46.961 21.114-1.314z"/><path fill="#E8FAAE" d="M31.643 79.28c-.11 0-.11-.11 0 0l-.11-.11 22.1-20.799h.108l.11.11 2.735 14.668s0 .11-.11.11c0-.22-24.833 6.02-24.833 6.02z"/><path fill="#E8FAAE" d="M53.741 58.371l2.735 14.56-24.833 6.239L53.74 58.37z"/><path fill="#EEFBB5" d="M35.472 107.303c-.11 0-.11 0 0 0L33.284 91.32l-1.641-12.15s0-.11.109-.11l24.834-6.24h.11v.11l-21.224 34.373z"/><path fill="#EEFBB5" d="M56.476 72.93l-21.004 34.263-2.188-15.982-1.641-12.041 24.833-6.24z"/><path fill="#A2D366" d="M33.61 183.601c-.109 0-.109-.11 0 0l-13.674-29.447v-.109H55.6v.109l-21.99 29.447c0-.11 0 0 0 0z"/><path fill="#A2D366" d="M55.49 154.154l-21.88 29.337-13.565-29.337H55.49z"/><path fill="#669F39" d="M33.83 236.583c-.11 0-.11 0 0 0l-.11-.11 13.348-23.645h.219l2.406 3.722-2.844 8.648 5.47 9.414v.11h-.11l-18.379 1.861z"/><path fill="#669F39" d="M46.74 225.089l5.47 9.523-18.38 1.861 13.347-23.645 2.407 3.722-2.845 8.539z"/><path fill="#639F38" d="M33.83 236.583c-.11 0-.11 0 0 0l-4.924-8.867v-.11l18.16-14.887h.22v.109l-13.457 23.755z"/><path fill="#639F38" d="M47.176 212.828l-13.347 23.645-4.813-8.757 18.16-14.888z"/><path fill="#D5EE93" d="M9.105 120.876c-.109 0-.109 0 0 0l-.109-.109 24.177-29.556h.11s.11 0 .11.11l2.187 15.982v.109L9.105 120.876z"/><path fill="#D5EE93" d="M33.283 91.21l2.188 15.983-26.366 13.574 24.178-29.556z"/><path fill="#8EC760" d="M20.046 154.155c-.11 0-.11 0 0 0L6.152 139.924v-.11l29.21-32.621h.11v.11l-15.426 46.852z"/><path fill="#8EC760" d="M35.472 107.193l-15.426 46.962-13.894-14.341 29.32-32.621z"/><path fill="#B6DF76" d="M6.152 139.924l2.845-19.157 26.474-13.683h.11v.109L6.152 139.924c.11 0 .11 0 0 0z"/><path fill="#B6DF76" d="M35.472 107.193l-29.32 32.621 2.954-19.047 26.366-13.574z"/><path fill="#AAD56A" d="M18.842 186.228c-.11-.109-.11-.109 0 0l1.094-32.074s0-.109.11-.109h.109l13.565 29.337v.109h-.109c0 .11-14.77 2.737-14.77 2.737z"/><path fill="#AAD56A" d="M20.045 154.154l13.566 29.337-14.77 2.628 1.204-31.965z"/><path fill="#8CBE53" d="M29.016 227.825c-.11 0-.11 0 0 0l-10.284-41.707v-.109h.11l14.769-2.627h.11v.109l-4.705 44.334z"/><path fill="#8CBE53" d="M33.61 183.491l-.108.657-2.08 20.142-2.406 23.426-10.174-41.597 14.769-2.628z"/><path fill="#D4EE93" d="M9.105 120.876c-.109 0-.109 0 0 0-.109 0-.109-.109-.109-.109l6.783-18.39 17.504-11.166h.11v.11L9.104 120.875z"/><path fill="#D4EE93" d="M33.283 91.21L9.105 120.768l6.783-18.39 17.395-11.166z"/><path fill="#E8F9B0" d="M15.889 102.486c-.11 0-.11 0 0 0l-.11-.109L31.533 79.17h.11s.109 0 .109.11l1.64 12.15v.11L15.89 102.486z"/><path fill="#E8F9B0" d="M31.642 79.17l1.641 12.041-17.394 11.166L31.642 79.17z"/><path fill="#8EBB53" d="M29.017 227.825c-.109 0-.109 0 0 0l-7.767-8.757-9.627-17.734 7.111-15.216h.11s.109 0 .109.11l10.064 41.597c.11-.109 0 0 0 0z"/><path fill="#8EBB53" d="M18.843 186.118l10.174 41.598-7.657-8.758-9.628-17.733 7.111-15.107z"/><path fill="#87B64E" d="M21.14 227.387c-.11 0-.11 0 0 0l-10.175-11.603-8.97-21.893v-.11l9.626 7.444 3.501 13.464 5.908 12.698c.219-.109.11 0 .11 0z"/><path fill="#87B64E" d="M15.232 214.58l5.907 12.698-10.065-11.603-9.08-21.894 9.737 7.444 3.5 13.355z"/><path fill="#A5D16F" d="M.463 164.006l5.58-24.192s0-.109.109-.109h.11l13.783 14.23v.219L.463 164.006c.11 0 .11 0 0 0z"/><path fill="#A5D16F" d="M6.152 139.814l13.893 14.34-19.582 9.852 5.689-24.192z"/><path fill="#ADD670" d="M18.842 186.228L.462 164.006v-.109-.109l19.474-9.852v.109l-1.094 32.183c.11-.109.11-.109 0 0z"/><path fill="#ADD670" d="M20.045 154.154l-1.203 31.965-18.38-22.113 19.583-9.852z"/><path fill="#A1CB61" d="M1.995 193.891c0-.11 0-.11 0 0L.354 164.006s0-.109.109-.109h.11l18.378 22.112v.219l-16.956 7.663c.109 0 .109 0 0 0z"/><path fill="#A1CB61" d="M.463 164.007l18.38 22.112-16.849 7.663-1.531-29.775z"/><path fill="#9AC75F" d="M11.73 201.334c-.109 0-.109 0 0 0l-9.736-7.443v-.219l16.848-7.663h.109v.11l-7.22 15.215z"/><path fill="#9AC75F" d="M18.842 186.118l-7.111 15.107-9.737-7.444 16.848-7.663z"/></svg>