<svg xmlns="http://www.w3.org/2000/svg" fill="none" viewBox="0 0 572 572"><path fill="url(#paint0_linear)" d="M571.325 299.535l.438 8.21-2.188 32.621-7.877 21.675s0 .109-.109.109l-6.346 3.065-.875 9.852 4.923.438c.11 0 .11 0 .219.11v.218l-11.596 23.426-11.159 14.559-15.207 20.252-10.83 21.236-10.831 14.669-15.972 11.713-10.94 12.26-20.568 17.515-19.801 11.932h-9.846c-.109 0-.109 0-.219-.11v-.109-.11-.219l4.157-6.896 10.722-14.121 9.08-16.42 5.142-19.157 10.393-15.216 9.08-15.435 5.142-18.281-1.204-17.624 3.61-10.29 1.97-12.917-7.658-1.751a.236.236 0 0 1-.219-.219l.437-7.553-20.676.328-19.473 4.926h-.11l-10.94-4.598-14.003-17.076-11.706-28.133v-.11l6.674-10.727-4.595-16.968v-.109l7.001-11.385 10.94-18.828 12.363-8.757v-14.888l9.408-6.787 2.407-8.429c0-.109.109-.219.219-.219l14.878 3.284 27.022-5.801h17.176l.109.109v.11l-1.203 16.638 28.662 26.382.11-10.837c0-.11 0-.219.109-.219h.219l25.818 17.733 2.298-28.789c-.766-.11-3.392-.657-13.238-2.737l-6.345-22.55c0-.11 0-.219.11-.329l10.283-7.005h.11l8.095 7.334-5.689-16.42-.547-1.423-4.594-14.778-3.611 9.633c0 .109-.109.109-.218.219-.11 0-.219 0-.219-.11l-6.783-11.494 2.079 27.914v.11s-.11 0-.11.109h-.109-.11l-8.095-2.408 2.954 24.302c0 .109-.11.219-.219.328h-.11c-.109 0-.218-.109-.218-.109l-11.597-30.542-11.159-15.544-.984-1.423-10.393-10.837 4.157 10.946 16.738 22.003v.11l-2.516 11.494-1.532 8.867a.234.234 0 0 1-.218.218h-.11c-.109 0-.109 0-.219-.109l-6.782-7.663c-.11-.109-.11-.219 0-.328l6.564-6.568-14.441-22.66-13.456-12.588-4.048 4.378s-.11.11-.219.11l-8.533-.548-.766 8.977v.109l-8.971 12.151-.875 9.305h-.109l-18.817 7.881h-.219l-.109-.109-2.079-5.364h-10.284c-.109 0-.218-.11-.218-.219l-.876-15.544-3.61-23.426v-.11h.11l27.678 5.145-6.236-22.112-13.019-10.837c-.109-.11-.109-.219-.109-.219 0-.11.109-.219.219-.219l14.441-.876 2.953-7.006v-.109l7.44-4.707-2.626-7.115v-.219c0-.11.109-.11.109-.11l10.065-3.612-6.783-19.266c0-.11 0-.219.11-.329h.109c.11 0 .219.11.219.11l9.08 17.624 11.706 3.831c9.737-1.095 12.8-1.423 13.675-1.532l-8.205-11.166c0-.109-.109-.219 0-.328 0-.11.109-.11.219-.11l6.345.547-10.502-10.727c-.11-.11-.11-.219 0-.329 0-.109.109-.109.218-.109l11.487 1.642-6.673-3.284-15.535-10.4v-.109l-5.47-13.026-9.518-6.897 6.893 9.305 1.422 9.086 10.393 8.1v.11l-.657 6.349 1.86 15.982c0 .109 0 .219-.219.219h-.109c-.109 0-.219 0-.219-.11l-9.518-13.683-.218-.329-10.94-11.275-2.626 8.429c0 .11-.109.11-.109.219h-.219l-10.393-6.677-8.205-13.465v-.11-.218l6.017-6.568-3.829-12.698-6.783-16.967v-.22h.219L450.438 58.6l22.208 17.077 28.335 28.68 23.083 30.87 2.188 2.955 20.13 36.234 2.954 7.881 10.721 28.571 2.626 14.012 6.017 31.855.109 1.642 2.516 41.159c0-.109 0-.109 0 0 0-.109 0-.109 0 0zm.11 8.21l-.438-7.553-11.268 19.047 9.627 20.252 2.079-31.746zm-.547-8.757l-2.298-40.065-14.003 14.45 2.297 12.917 14.004 12.698zm-11.269 19.485l11.05-18.938-13.675-12.698 2.625 31.636zm9.518 21.784l-9.518-20.142-4.047 38.423 13.565-18.281zm-7.767 21.565l7.439-20.252-13.347 17.953-.109 5.254 6.017-2.955zm7.22-104.103l-.109-.985-5.908-31.089-5.579 17.953 11.596 14.121zm-.219.657l-11.487-14.121-2.297 28.461 13.784-14.34zm-6.126-34.701l-2.407-12.808-10.283-27.366.765 18.39 11.925 21.784zm-18.707 16.748l18.598-15.544-6.346-5.254-.109-.219-8.314-7.444-3.829 28.461zm13.018 3.175l5.58-17.953-18.489 15.326 12.909 2.627zm5.142-19.814l-10.831-19.704 5.142 14.888.11.109 5.579 4.707zm-2.516 95.346l-2.735-32.731-4.486-3.284.657 12.042v.109l1.641 29.884.766 20.909.328 9.523 3.829-36.452zm-11.487 79.801l11.487-23.207-4.814-.438v.11h-.109l-33.586-3.175.985 61.082 14.878-19.813 11.159-14.559zm8.642-113.189l-2.188-12.15-18.051 8.757h15.645l4.594 3.393zm-1.422 73.671l-.437-13.026-22.756-10.618 23.084 28.461.109-4.817zm-.875 15.435l.875-9.633c-21.77 4.379-29.866 6.021-32.82 6.568 2.954.329 10.831 1.095 31.945 3.065zm.547-10.071l-23.63-29.227-10.284 36.014c26.256-5.254 32.492-6.458 33.914-6.787zm-.109-19.704l-.766-19.704-1.532-28.242-7.22 28.242 9.518 19.704zm-.329.548l-9.627-20.252-9.408-40.94-4.048 50.464 23.083 10.728zm-19.035-63.382l18.817-9.195-25.709-17.624-.11 10.947v.109l7.002 15.763zm9.627 42.036l7.33-28.79-16.629-12.151 9.299 40.941zm7.33-29.447l-.657-11.932H535.77l16.301 11.932zm-2.298-94.141l-.765-17.953-4.158 2.518 4.923 15.435zm-.875-19.047l-2.735-7.225-20.129-36.234-1.97-2.736-12.471 16.858 21.114 16.529 16.191 12.808zm-4.266 3.174l4.157-2.518-15.973-12.588.876 12.917c.656.109 2.844.547 10.94 2.189zm-1.532 55.281l3.829-28.243-9.846 6.678 6.017 21.565zm-2.297-45.1l3.719-9.743c-.547-.109-2.735-.547-10.612-2.08l6.893 11.823zm-5.361 15.982l-2.079-27.805-.109-.219v-.109l-.766-11.823-5.36 26.053 8.314 13.903zm-.328.547l-8.096-13.464.219 11.165 7.877 2.299zm-4.486 122.712l4.048-51.23c-23.849 5.364-29.319 6.677-30.632 6.896l26.584 44.334zm3.939-52.106l-6.564-14.997-6.564 10.071 13.128 4.926zm-.438.438l-13.128-5.036-16.191 11.713c20.895-4.816 27.35-6.239 29.319-6.677zm-7.548-85.822l5.579-27.038-24.834 18.281 19.255 8.757zm5.36-27.805l-20.567-16.201-16.301 21.784c27.897-4.159 35.008-5.254 36.868-5.583zm-25.162 18.938l24.834-18.281c-28.991 4.379-35.336 5.364-36.649 5.583l11.049 11.494.766 1.204zm13.566 183.028l10.174-35.686-18.707-6.349 8.533 42.035zm9.955-36.342l-26.037-43.349 7.439 37.109 18.598 6.24zm-.437-101.586l-2.845-23.425c-.109 0-.109-.11-.109-.219l-.328-12.042-19.145-8.648 10.721 14.997 11.706 29.337zm-8.862 43.787l6.674-10.29-28.007-25.615 21.333 35.905zm-9.736-124.792l12.252-16.639-29.428-8.648 17.176 25.287zm11.049-18.828l-21.333-28.571c-3.829.876-5.47 1.204-6.236 1.423l27.569 27.148zm-28.663-7.225l28.554 8.429-30.304-18.938-.11-.109-6.454-.548 8.314 11.166c-.109 0-.109 0 0 0zm-1.313-10.837l29.757 18.609-27.787-27.366-1.97 8.757zm18.051 340.113l10.722-21.127-45.183-33.497 23.959 68.854 10.502-14.23zm10.612-21.784l-.984-60.973-44.198 27.476 45.182 33.497zm-.328-156.209l-21.552-36.233 4.704 48.384 16.848-12.151zm-.766 94.141l-8.642-42.473-20.458 20.58 29.1 21.893zm-44.197 28.024l43.76-27.257c-2.298-.219-11.05-1.205-45.839-5.036l-.438 7.444 7.768 1.751c.109 0 .109.11.109.11l-1.969 13.136-3.391 9.852zm43.65-27.805l-28.991-21.893c-14.331.876-17.832 1.095-18.707 1.095l2.078 15.653c1.094.219 7.549.986 45.62 5.145zm-3.719-162.558l-15.535-20.47 11.815 25.944 3.72-5.474zm-2.407 11.604l2.297-10.4-3.391 5.145-.11.11h-.109l-6.455 6.458 6.455 7.335 1.313-8.648zm-1.969 107.715l-7.768-37.985-33.914 43.02 21.005 15.873 20.677-20.908zm-.329-175.913l-17.066-25.396.875 47.18 16.191-21.784zm-.437 60.316l-11.597-25.506v-.219l-4.376-11.712-.109-.11-10.721 3.831.109.329v.109l13.566 12.589 13.128 20.689zm-7.111 76.517l-4.814-49.041-17.832 7.882 1.75 27.148v.109l-.109.219 21.005 13.683zm-34.024 43.459l33.696-42.692c-1.532-.11-7.987-.329-33.914-1.423l-.329.328.547 43.787zm.329-44.553l33.038 1.313-20.786-13.574-12.252 12.261zm30.413-184.452l-27.241-27.695-2.078 15.216 29.319 12.479zm0 .548l-27.788-11.713 13.785 9.195 7.767 3.722h.328c3.392-.657 5.033-1.095 5.908-1.204zm-1.422 135.3l1.203-15.982-19.801 16.092 18.598-.11zm-19.364 0l20.129-16.31H482.93l-26.475 5.583 22.865 10.727zm20.02 230.428l-27.459-32.95 11.924 44.334 15.535-11.384zm-.328-1.314l-23.302-67.212 1.094 16.091c.109.11.109.11.109.219l-5.142 18.172 27.241 32.73zm-18.598-221.013l17.176-7.663h-18.051L457.987 257.5l22.427-9.852zm13.784-72.905l-.875-47.289-9.19 22.988-13.128 32.621 12.363-4.379 10.83-3.941zm-2.297-59.878l1.969-8.867-.109-.109-12.253-1.752 10.393 10.728zm-8.096 34.92l9.409-23.426-13.894 1.532-11.925-3.94s-.109 0-.109-.11l-8.205-15.872 6.126 17.405c.11 0 .11 0 .11.109l18.488 24.302zm-12.143 200.543l18.16-1.095-20.239-15.325 2.079 16.42zm-1.204-167.375l13.019-32.402c-1.313-.109-7.549-.438-35.993-1.861l22.974 34.263zm12.91 298.297l-11.925-44.225-9.19 38.423 21.115 5.802zm0-301.69l-.11-.329-11.706 4.16 7.768.547 4.048-4.378zm-.11-29.556l-18.27-24.192-9.955 3.503 2.626 7.115v.219l-7.44 4.707-2.953 6.787c1.094.109 6.673.328 35.992 1.861zm-59.951 372.624l59.404-40.612c-33.476 3.831-35.774 4.16-35.992 4.16l-8.971 16.201-10.721 14.121-3.72 6.13zm49.339-28.789l9.846-11.057-59.185 40.503h9.08l19.692-11.822 20.567-17.624zm9.737-12.37l-20.458-5.693-14.331 9.743c24.177-2.737 32.163-3.722 34.789-4.05zm-.438-206.345l-1.75-26.819-23.521 10.399 25.271 16.42zm-12.909 12.917l12.472-12.479-25.162-16.529-7.111 28.242 19.801.766zm-12.581-29.884l22.427-18.172-22.755-10.618.328 28.79zm18.051-138.147l-1.422-15.107.547-5.801-8.096 7.881 8.971 13.027zm-9.299-13.574l8.096-7.772c-1.204-.219-5.361-.985-19.036-3.503l10.831 11.166.109.109zm7.986 260.202l-2.078-15.544-36.759 20.361 18.051-4.488 20.786-.329zm-.109-268.521l-9.846-7.663v-.11l-1.313-8.538-7.767 12.917c1.094.11 4.923.766 18.926 3.394zm-2.735-7.335l1.969-14.668-7.111 2.517 5.142 12.151zm-5.251-12.698l7.111-2.518-20.786-15.982 13.675 18.5zm6.017 272.463l-2.188-16.968-65.203-21.455 29.429 59.55 37.962-21.127zm-9.409 124.792l9.081-38.204-8.424 14.34-10.393 15.216-5.033 18.609 14.769-9.961zm7.877-282.643l.766-8.867c-.547 0-3.61-.11-18.051-.657l8.643 21.237 8.642-11.713zm.438-9.524l-23.193-34.701-14.003.876 12.8 10.728v.109l6.345 22.331c.328.11 2.735.219 18.051.657zm-1.094 149.641l-.547-44.006v-.109l.109-.109c-1.313-.11-5.579-.219-19.692-.767l-19.582 10.4 39.712 34.591zm-65.093-21.236l64.108 21.127-39.165-34.373-24.943 13.246zm60.17-234.04L450.11 58.709v-.11l-21.005-10.728 25.053 22.441.219.328 9.627 6.897zM453.72 94.395l7.877-13.136c-1.203-.22-5.579-.986-22.318-4.05l14.441 17.186zm7.768-13.574l-7.33-9.852-.219-.11-14.55 5.912c1.75.328 7.001 1.204 22.099 4.05zm-1.751 132.892l.875-8.757-34.242-25.177 33.367 33.934zm.438-9.742l-8.533-21.127-26.913-5.036 35.446 26.163zm-.875 10.071l-34.68-35.249 14.441 37.657c14.55-1.751 18.926-2.299 20.239-2.408zm-18.27 7.881l17.394-7.334c-15.206 1.752-18.598 2.189-19.363 2.299l1.969 5.035zm14.878 35.905l-.328-28.68-16.629 4.926 16.957 23.754zm-7.22 29.228l7.111-28.133c-29.101 4.269-36.649 5.364-38.509 5.583l31.398 22.55zm6.892-28.68l-17.066-23.864-9.081 20.908 26.147 2.956zm-16.848-24.74l16.301-4.926-14.003-3.174-2.298 8.1zm-.109-157.084l14.988-6.13-25.272-22.66 6.455 16.2 3.829 12.59zm12.253 26.928l2.625-8.428-20.567-10.838 7.768 12.698 10.174 6.568zm1.75-9.523l-14.222-16.858-5.689 6.24 19.911 10.618zm-23.63 203.717l19.364-10.29-31.289-22.331 11.925 32.621zm25.162-38.97c-1.422-.109-3.72-.438-7.658-.876-3.939-.437-9.518-1.094-17.395-1.97l-11.596 8.21c24.177-3.503 33.257-4.817 36.649-5.364zm-15.644-42.145l-14.113-36.999 3.282 21.565.875 15.434h9.956zm-9.299 38.095l8.752-20.142-8.752 6.24v13.902zm3.391 117.02l-28.882-58.565 4.595 37.219v.109l13.894 16.858 10.393 4.379zm-4.048-73.671l-11.924-32.621-13.019 45.866 24.943-13.245zm-25.381 12.917l12.8-44.991-10.174 17.515-7.002 11.165 4.376 16.311zm4.486 38.094l-4.595-36.781-6.345 10.071 10.94 26.71z"/><path fill="url(#paint1_linear)" d="M553.821 250.385c.11 0 .219.109.219.328l-.984 5.364c0 .109-.11.219-.219.219-.11 0-.219 0-.219-.11l-3.063-6.349v-.218c0-.11.109-.11.219-.11-.11-.109-.11-.109 4.047.876zm-1.203 5.145l.875-4.817-3.61-.876 2.735 5.693z"/><path fill="url(#paint2_linear)" d="M541.021 246.006c0 .11 0 .219-.109.219h-.328l-6.564-2.517c-.11 0-.11-.11-.11-.219l-.219-2.737c0-.11 0-.219.11-.219.109-.109.109-.109.219 0l6.017 1.861c.109 0 .109.109.218.219l.766 3.393zm-.437-.219l-.657-3.065-5.798-1.751.219 2.408 6.236 2.408z"/><path fill="url(#paint3_linear)" d="M513.781 462.641c.109.109.109.219 0 .328l-9.19 14.231-20.129 21.455-12.034 8.429h-.11c-.109 0-.109 0-.218-.109-.11-.11-.11-.219 0-.329l16.41-18.609 6.564-7.772 6.235-5.911 3.392-1.423 8.642-10.29c.11 0 .329-.11.438 0zm-9.518 14.34l7.986-12.26-7.329 8.647-3.282 1.314v.11l-15.316 21.345 17.941-19.156zm-20.129 21.346l15.972-22.112-4.704 4.378-6.564 7.772-15.644 17.734 10.94-7.663c-.11 0-.11 0 0-.109z"/><path fill="url(#paint4_linear)" d="M494.964 209.006c0 .11 0 .219-.109.219l-5.032 2.299h-.11c-.109 0-.109 0-.109-.109-.109-.11-.109-.219-.109-.219l.656-2.956-2.407-1.204c-.109 0-.109-.109-.109-.219l-.11-5.145s0-.109.11-.109l5.688-3.613h.219c.11 0 .11.11.11.219l1.312 10.837zm-.437-.109l-1.313-10.509-5.36 3.284.109 4.926 2.516 1.204.11.11-.657 2.955 4.595-1.97z"/><path fill="url(#paint5_linear)" d="M490.151 196.418c0 .109 0 .219-.109.328h-.11c-.109 0-.109 0-.218-.109-.657-.657-3.064-2.518-3.064-2.518-.109 0-.109-.11-.109-.219 0-.11 0-.11.109-.219l1.532-1.423.219-4.269c0-.11.109-.219.219-.219.109 0 .218.109.218.109l1.094 3.065v.329c.11 1.204 0 4.159.219 5.145zm-.547-5.255l-.875-2.408-.219 3.722v.109l-1.422 1.314c.438.328 1.969 1.423 2.735 2.189-.219-1.423-.219-4.597-.219-4.926z"/><path fill="url(#paint6_linear)" d="M474.944 203.752v.329l-1.97 2.736c0 .11-.109.11-.218.11h-.11l-5.142-2.19c-.109 0-.218-.218-.109-.328 0-.109.109-.219.219-.219l7.111-.547c.109 0 .219 0 .219.109zm-2.188 2.627l1.75-2.408-6.236.438 4.486 1.97z"/><path fill="url(#paint7_linear)" d="M450.659 136.758c0 .11-.109.219-.219.219l-5.579 1.861-8.096 1.314-15.206 1.313a.235.235 0 0 1-.219-.219c0-.109 0-.218.109-.328l2.626-2.299 3.501-4.05 3.282-2.627c-.547-.11-1.423-.329-3.064-.657s-4.047-.876-7.548-1.533c-.11 0-.11-.109-.219-.218 0-.11 0-.219.109-.219l3.611-3.065-3.282-6.459v-.328c.109-.11.218-.11.218-.11l5.142 1.642-2.078-3.503-.876-2.846-7.876-2.518-.11-.109-2.625-4.269v-.11l.218-3.722-1.203-.547-4.704 2.299h-.219c-.109 0-.109-.11-.109-.219l-.329-5.802-1.312-4.926c0-.11 0-.219.218-.328l7.549-2.3s.219 0 .219.11c.109.11.109.11.109.22l-.984 4.487c.547 0 2.297.11 7.439.548.109 0 .219.11.219.219l1.312 3.941v.218l-2.516 5.255c.547 0 1.641.109 4.267.328h.109l7.111 5.364 5.361 4.269.875.657 6.345 5.145c.11.11.11.219.11.328 0 .11-.11.11-.219.11h-.11l-4.266-1.423v1.095l5.36 2.517 3.064 2.956v.109l-.219 6.24 4.813 1.314c-.218.437-.109.547-.109.656zm-5.908 1.752l5.142-1.752-4.376-1.204-.109.11-14.113-3.394-3.501 2.737-3.5 4.05-2.298 1.971 14.769-1.314 7.986-1.204zm.438-3.503l.328-6.021-2.954-2.846-5.47-2.518-.109-.109-.109-1.642v-.11h.109l3.938 1.314-6.345-5.035-3.172 14.011 13.784 2.956zm-14.222-3.175l3.173-13.792-7.658 3.831h-.11c-.109 0-.219 0-.219-.11v-.109l-5.251-1.642 3.173 6.349v.219l-3.61 3.065 10.502 2.189zm-4.595-10.508l7.439-3.722c-1.094-.219-3.829-.986-10.611-2.628l.765 2.518 2.407 3.832zm7.33-4.27l-4.595-3.722-7.001-5.254-4.158-.219 5.142 6.568c.547.11 2.516.547 10.612 2.627zm-11.268-2.736l-5.142-6.568c-.109-.11-.109-.219 0-.219 0-.11.109-.11.219-.11l2.407-5.035c-5.033.766-7.221.985-8.205 1.094l.875.438.109.11-.219 3.722 2.517 4.159 7.439 2.409zm-2.407-12.589l-1.203-3.612-7.44-.548v5.364c6.346-.876 8.096-1.095 8.643-1.204zm-8.971-4.488l.985-4.379-7.221 2.19 1.313 4.816.328 5.583 4.486-2.189V97.46c-.11-.11 0-.11.109-.22-.109 0 0 0 0 0z"/><path fill="url(#paint8_linear)" d="M414.117 126.031v.219l-4.266 1.97-8.315 3.941h-.109c-.11 0-.11 0-.11-.11l-3.172-2.408c-.11-.109-.11-.219-.11-.328l2.735-7.991-4.157-2.08c-.109 0-.109-.11-.109-.219 0-.11 0-.219.109-.219l4.923-5.145-1.969-2.737v-.219c0-.109.109-.109.109-.109l4.158-1.971h.109l7.22 3.394c.11 0 .11.109.11.219l.328 3.174-.547 2.737 3.063 7.882c0-.11 0-.11 0 0zm-.547-.329l-3.172-7.334v-.109l.547-2.737-.219-2.737-9.409 8.429 12.253 4.488zm-4.048 2.19l3.829-1.752-12.471-4.488-2.626 7.882 2.954 2.298 8.314-3.94zm-8.752-6.787l9.737-8.758-6.783-3.174-3.938 1.861 1.969 2.846v.219l-4.923 5.145 3.938 1.861z"/><path fill="url(#paint9_linear)" d="M367.295 64.51c0 .11 0 .22-.11.22l-12.581 6.02h-.109s-.438 0-10.502-.657h-5.033-.109l-.985-2.517-3.829.219c-.109 0-.109 0-.219-.11 0 0-.109-.11-.109-.219l-.219-3.722-7.439-1.094a.235.235 0 0 1-.219-.22c0-.109 0-.218.109-.218l3.064-1.97-1.313-3.613v-.219c0-.11.109-.11.219-.11l6.345 1.314h.109l5.908 7.006 1.422-3.94s0-.11.11-.11l3.61-.985.547-2.409c0-.11.109-.219.219-.219l7.767-1.642h.109l6.017 1.861 6.455.548v.11l.766 6.677zm-.438-.109l-.875-6.02-10.721 11.493 11.596-5.473zm-12.471 5.692l11.268-12.04-6.127-.439-5.907-1.86-7.658 1.641-.547 2.3 8.971 10.398zm-.547.22l-8.643-10.072-6.017 9.415h4.704l9.956.656zm-14.988-.876l5.907-9.305-3.063.876-1.532 4.269c0 .11 0 .11-.109.11s-.109 0-.109-.11l-6.017-7.225-5.908-1.313 1.313 3.612v.11l-2.954 1.86 7.33 1.095c.109 0 .109.11.109.11l.219 3.83 3.829-.218s.109 0 .109.11l.876 2.189z"/><path fill="url(#paint10_linear)" d="M327.802 39.661c0 .11 0 .11 0 0-.11.11-.11.11 0 0-.11.11-.11.11 0 0l-.11.11-9.955 6.24-16.629 5.91-2.407 6.569-17.176 6.02-1.75 10.4-4.485 14.34c0 .11-.11.219-.219.219l-2.188-.22c-2.188-.218-6.455-.656-15.097-1.641l-13.128-14.45-8.096-13.026v-.22l2.626-8.756s0-.11.109-.11l3.829-2.408 2.626-1.642-1.423-4.27-3.391.438-4.485.548a.235.235 0 0 1-.219-.22l-1.313-4.159v-.11l-1.532-1.641v-.11l1.313-4.816-3.938-9.195-4.704-3.394-17.723 1.095c-.11 0-.11 0-.11-.11l-3.5-2.955c-.11-.11-.11-.22-.11-.329l.657-2.08v-.11h.109l12.362-3.83 4.814-2.19-1.313-.766c-.109-.11-.109-.11-.109-.219 0-.11.109-.219.218-.219l13.457-4.16 12.471-1.86L258.333.69h18.707l3.61.986 12.034-.11s.11 0 .11.11l2.844 4.597 8.752 2.408h.109l3.173 4.489 11.706 7.334c.109.11.109.219.109.328l-1.641 3.613 2.079 7.443 7.767 7.444v.11l.11.218zm-10.284 6.021l9.299-5.802h-39.165l10.721 18.063 2.297-6.24s0-.11.11-.11l16.738-5.91zm-29.319-6.349h38.399L308 27.511l-19.801 11.822zm20.02-12.26l17.723 11.275-6.345-6.02v-.11l-1.97-7.553v-.11l1.641-3.503-11.705-7.334-2.735-3.722 3.391 17.077zm-.547-.329l-3.61-17.295-14.332 5.91 17.942 11.385zm-20.13 12.37l19.911-11.822-18.051-11.494-1.86 23.316zm1.751-24.082l14.331-5.912-8.205-2.408s-.109 0-.109-.11l-2.735-4.597-11.597.11 8.315 12.916zm8.642 43.13l-10.83-18.172-26.256 14.668c2.188.11 9.846.876 37.086 3.503zm-16.738 6.13l16.301-5.693c-2.188-.219-9.846-.985-35.993-3.393l19.692 9.085zm5.908-25.397l1.86-23.207-15.316 5.583 13.456 17.624zm1.75-23.645L280.76 2.663l-7.002 18.171 15.097-5.582zm-2.297 24.193L258.88 17.002l-14.222 25.396c31.944-2.299 39.931-2.846 41.9-2.955zM260.083 54.44l26.037-14.56c-31.179 2.19-39.165 2.847-41.244 2.956l15.207 11.604zm25.709-16.42l-12.69-16.749-14.769-19.485.875 14.669 26.584 21.565zm-6.564 37l1.641-9.962-22.755 22.331 16.629 1.86 4.485-14.23zm-21.224 11.822L280.65 64.62l-20.348-9.414-2.298 31.636zm15.207-66.228l7.22-18.5-3.282-.985h-18.598l14.66 19.485zm-15.754 66.447l2.298-31.965c-17.942 4.05-21.99 5.036-22.974 5.255l7.877 12.698 12.799 14.012zm1.97-32.403l-14.879-11.384 1.313 4.05v.22l-6.564 4.05-2.516 8.319c16.41-3.831 21.223-4.926 22.646-5.255zm-.766-38.422l-.875-15.107-10.831 1.642-12.362 1.861-13.128 4.05 1.313.767c.547.11 4.157.766 35.883 6.787zm-14.66 26.272l14.113-25.178-23.412 15.545h-.109l-1.204 4.597 1.532 1.752v.219l1.203 3.94 7.877-.875c0 .11 0 0 0 0zm-9.08-10.29l22.974-15.326c-16.629.438-20.348.548-21.114.548l-1.86 14.778zm1.75-15.326c11.597-.328 17.176-.437 19.802-.547-3.392-.657-11.815-2.299-32.054-6.13l12.252 6.677zM234.483 32l1.86-14.45c-6.892 1.752-9.299 2.3-10.065 2.518l4.486 3.174v.11l3.719 8.648zm1.423-14.888l-12.691-6.896 2.735 9.414c6.345-1.642 8.971-2.299 9.956-2.518zm-10.503 2.518l-2.844-9.633-5.033 2.299-11.596 3.612c1.532.22 6.126 1.095 19.473 3.722zm-17.394 1.314l16.191-1.095c-2.079-.438-7.111-1.313-19.036-3.612l-.547 1.751 3.392 2.956z"/><path fill="url(#paint11_linear)" d="M323.206 406.922l1.422 7.991-.328 4.926v.11l-12.8 14.668-3.938 9.962.656 15.763a.236.236 0 0 1-.219.219l-7.22 2.955-5.142 9.305-10.612 7.006-5.798 17.843-7.877 16.748s0 .11-.109.11c-4.704.875-6.236 1.204-6.783 1.313l1.532 6.021c0 .11 0 .219-.219.328l-7.002 2.08-2.953 5.255 3.829 5.364c0 .109.109.219 0 .328l-2.735 4.488 5.798 13.574v.109l.328 8.648 18.051 9.305c.109 0 .219.219.109.328 0 .11-.109.219-.219.219l-14.659-1.97h-.109l-23.74-18.938-12.909-21.127c-2.954-8.976-8.643-26.053-9.081-26.71-.656-.985-6.454-21.236-6.673-22.331l-9.408-20.251-19.364-9.086-20.02-19.047-16.41-17.953v-.109-.11l3.61-21.346 5.47-11.165-5.142-15.107v-.109l.328-2.518c0-.109.11-.219.219-.219l1.75.219 5.033-12.589s0-.109.109-.109l14.879-6.13 20.129.876 21.005 3.94h.109l9.737 9.415 20.02 6.02 11.597 8.539 10.611 7.662 8.205 9.414 20.896 5.802 11.596 6.678c.438.109 2.626.547 14.113 2.955.219.219.328.329.328.438 0-.109 0-.109 0 0 0-.109 0-.109 0 0zm1.094 7.991l-1.313-7.225-10.94 25.725 11.925-13.683.328-4.817zm-12.8 18.391l11.159-26.272-13.566-2.847 2.407 29.119zm-.547.328l-2.407-29.666-11.377-6.568-20.349-5.582 34.133 41.816zm-3.72 10.728l3.72-9.414-30.085 19.813 19.911 8.319 7.002-2.846-.548-15.872c0 .109 0 0 0 0zm3.283-10.181l-49.777-32.511-2.954 36.78c40.478-3.284 50.324-4.05 52.731-4.269zm-30.195 20.252l30.085-19.704c-40.259 3.174-49.886 3.94-52.184 4.159l22.099 15.545zm29.757-21.127l-33.805-41.488-15.316 9.414 49.121 32.074zm-25.381 45.647l15.535-15.544-19.583-8.21 4.048 23.754zm10.721-6.24l4.486-8.21-14.988 14.997h.109l10.393-6.787zm-16.519 24.959l5.689-17.734-20.02 35.686 6.454-1.204 7.877-16.748zm5.36-18.391l-4.157-23.863-30.85 35.467 35.007-11.604zm-20.129 36.015l19.911-35.358-35.118 11.604 15.207 23.754zm2.188 54.186l13.675 1.861-17.504-8.976-.109-.11-.329-8.538c-.547-.11-3.391-.438-19.035-2.627l23.302 18.39zm-37.743-98.958l51.09-15.763-22.208-15.763-28.882 31.526zm19.801 20.47l31.07-35.686-51.309 15.873 20.239 19.813zm27.678-99.614l-7.986-9.195-10.611-7.554-10.94-8.1 14.222 34.372 15.315-9.523zm-10.611 130.593l-1.422-6.02s-.11 0-.11-.11l-15.425-23.863-6.345 30.431 13.128 6.897 3.063-5.255.109-.109 7.002-1.971zm-3.392 31.198l-5.688-13.354v-.11l2.735-4.488-3.611-5.145-12.471 20.47c.984.11 4.923.657 19.035 2.627zm-4.813-114.83l2.953-36.671-49.558 30.65c2.188.329 11.159 1.423 46.605 6.021zm2.625-37.328l-20.02-21.675-17.613 23.207c28.772-1.204 35.883-1.532 37.633-1.532zm-.218-1.095l-13.894-33.497-5.798 12.37 19.692 21.127zm-49.23 31.964l49.12-30.322c-31.507 1.314-36.758 1.642-37.633 1.642l-11.487 28.68zm17.394 38.642l29.101-31.745c-1.86-.219-9.956-1.314-46.605-6.021l17.504 37.766zm14.988 79.363l12.253-20.032-12.8-6.787.547 26.819zm-13.128-20.689l18.379-37.656-33.914-10.509c2.079 7.444 6.127 21.127 6.564 21.784.547.876 7.768 22.769 8.971 26.381zm12.034-6.787l6.017-29.118-17.395 35.686 11.378-6.568zm-27.241-41.816l32.93 10.18-19.802-19.375-13.128 9.195zm25.272-102.132l5.798-12.479-19.254-5.802 13.456 18.281zm2.516 171.534l-.547-27.038-11.706 6.896 12.253 20.142zm-2.954-171.206l-13.565-18.609-26.366 29.227 39.931-10.618zm-17.723 23.754l17.504-23.097-39.821 10.509 22.317 12.588zm-7.658 77.831l13.238-9.305-22.318-10.399 9.08 19.704zm13.238-9.852l-17.176-37.218-5.142 26.819 22.318 10.399zm-50.762-124.901l48.683 13.683-9.189-8.867-21.005-3.941-18.489-.875zm22.099 43.896l26.475-29.228-66.078 21.346c2.516.548 10.831 2.19 39.603 7.882zm25.709-29.885l-49.23-13.902-19.364 18.172c50.543-3.175 64.656-4.051 68.594-4.27zm-66.187 21.784l65.749-21.236-68.703 4.378h-.109s-.11 0-.11-.109l-1.531-.219-.328 2.299 5.032 14.887zm51.856 50.246l11.487-28.681-22.318-12.588 10.831 41.269zm-5.58 28.351l5.251-26.928-24.068 18.062 18.817 8.866zm5.142-28.023l-11.049-41.707-16.082 9.195h-.219l-23.412-16.748 17.286 31.417 33.476 17.843zm-.328.328l-32.82-17.624 8.095 22.441c17.614-3.394 23.084-4.488 24.725-4.817zm-23.849 18.281l23.521-17.733c-19.583 3.722-23.521 4.597-24.397 4.707l.876 13.026zm-2.954-51.777l15.535-8.867c-1.97-.438-9.628-1.971-38.837-7.772l23.302 16.639zm2.407 51.887l-.766-13.136-34.024-22.222 15.316 16.858 19.474 18.5zm-.985-13.903l-8.096-22.331-25.927.11 34.023 22.221zm-8.424-22.878l-17.504-31.745-5.251 10.837-3.61 21.017 26.365-.109zm-19.801-50.464l18.488-17.515-13.784 5.692-4.704 11.823z"/><path fill="url(#paint12_linear)" d="M240.392 156.9v.11l-3.939 7.991c0 .109-.109.109-.219.109-.109 0-.218-.109-.218-.219l-1.204-5.035c-.547-.11-2.735-.329-10.612-1.423l-13.346-1.533a.235.235 0 0 1-.219-.219c0-.109 0-.219.109-.219 4.048-4.269 8.205-8.757 8.424-9.085.328-.548 1.86-2.518 8.971-11.166.109-.109.219-.109.328-.109.109 0 .219.218.109.328l-1.641 7.115 1.97 3.941 6.454-.328s.11 0 .11.109l4.923 9.633zm-.438.11l-4.376-8.758-.328 11.494v.219l1.094 4.598 3.61-7.553zm-5.251 2.189l.328-11.603-6.345.328c-.11 0-.11 0-.11-.11l-1.969-3.94-6.783 3.722 14.879 11.603zm-10.503-1.095l10.065 1.423-14.988-11.603c-1.094 1.204-6.564 7.006-8.095 8.757l13.018 1.423zm2.298-14.668l1.422-6.349c-2.844 3.503-6.783 8.21-8.096 9.961l6.674-3.612z"/><path fill="url(#paint13_linear)" d="M201.007 168.285l7.986-4.926c.109-.109.219 0 .328 0 .11.11.11.219.11.328l-4.595 10.728s0 .11-.11.11l-19.692 11.056h-.109c-.109 0-.109 0-.219-.11-.109-.109-.109-.219 0-.328l9.08-10.728c-.437-.109-1.422-.328-3.5-.766l-15.426 8.538-7.767 11.713-1.204 6.021-13.346 7.006-2.954 8.1-4.486 5.145-.984 19.266v.11l-19.036 19.594 6.892 20.58v.11l-3.938 11.931c0 .11-.109.219-.219.219-.109 0-.219-.109-.219-.109l-9.736-21.565h-11.378c-10.502 1.861-13.675 2.518-14.769 2.627l3.939 3.722c.109.11.109.219.109.328 0 .11-.11.11-.219.11l-16.3-.11-11.16 8.758-2.078 9.852 3.282 5.035v.11l-3.938 11.932 7.548 13.026 9.956 5.583 8.095-2.627 4.595-14.012.11-.109 7.658-3.941h.328l4.266 3.941c.11.109.11.218.11.328l-4.267 10.29 1.532 5.692v.11l-1.86 6.349 17.723-.876h.109s0 .109.11.109l-.657 22.551 7.002-.876h.109l13.785 10.399c.109.11.109.219.109.329 0 .109-.109.109-.219.109h-.109l-21.005-9.414-16.41-12.479c-.438-.11-2.297-.438-11.815-2.08l-11.815-6.349c-.438 0-2.735-.219-17.614-1.204h-.11l-15.534-8.867-.11-.11-6.673-12.151-10.612-12.15-12.471-22.879 4.376 16.639 8.205 17.624c0 .11 0 .219-.11.329h-.109c-.11 0-.11 0-.219-.11l-14.331-15.873-12.581-30.541-2.079-41.378 7.877-33.497 3.938-26.491 9.409-25.615 21.88-32.293 30.741-28.899h.11l7.22.438c.11 0 .11.11.219.11v.218l-2.954 4.16c8.533-1.751 10.393-2.19 10.83-2.299l7.877-7.225h.11l7.986 1.752 9.627-5.364h.219c.109 0 .109.11.109.219l1.094 5.035 10.503-12.15-2.407-2.737v-.11-.328l14.769-11.603 14.331-10.947c.11-.11.219-.11.329 0l1.969 2.518 4.048-3.175h.109c8.643-1.642 8.643-1.642 8.752-1.642.109 0 .109 0 .109.11l1.204 5.035 12.581-3.612h.109c.11 0 .219.11.219.11l1.86 3.283c.328.11 1.203.328 3.938.985l5.689 2.409 5.47 5.692c0 .11.109.11.109.219 0 .11-.109.11-.109.219l-7.549 4.597 17.395 3.941c.109 0 .109.11.219.11v.219l-2.298 7.005v.11l-5.032 4.05s-.109.11-.219.11c-.109 0-.109 0-.219-.11l-7.876-7.444-4.486 3.394 1.532 4.16 7.33 3.94.109.11.219 5.364v.11l-2.735 2.517h-.11l-9.189-2.299 6.236 5.145a.34.34 0 0 1 .109.219c0 .11-.109.219-.219.219l-7.22.657h-.11l-10.94-2.518c-.109 0-.218-.11-.218-.219 0-.11 0-.219.109-.219l3.063-2.408-8.424-3.065-9.08 3.174h-.109l-2.735-2.189c-.11-.11-.11-.11-.11-.219 0-.11 0-.11.11-.219l4.157-2.19 14.988-5.8 4.048-8.649-6.127-5.692-5.36-6.459-.219 1.752c0 .11-.11.219-.219.219-7.549.547-8.752.657-8.971.657a165.97 165.97 0 0 1-6.564 1.423l.328 1.204 5.142 2.518c.11 0 .11.109.11.218 0 .11 0 .22-.11.22l-4.485 4.597-3.063 7.882s0 .11-.11.11l-12.581 3.502-3.61 5.583s0 .11-.109.11c-4.814.437-7.33.547-8.752.766l6.017 1.313c.109 0 .218.11.218.22 0 .109 0 .218-.109.218l-15.754 9.414-8.205 9.086-10.72 13.464L102 120.01v.11l2.297 7.334 7.33-1.642h.109l9.518 6.677 9.19-2.408h.219c.109.11.109.11.109.219v14.121l7.439 3.722 4.157-18.5v-.109l8.534-7.882-.985-13.355v-.109l3.938-5.036-.328-10.07c0-.11.11-.22.219-.22 11.268-2.517 12.909-2.955 13.237-3.065h.11l13.237 4.38c.11 0 .219.218.11.327l-2.407 8.867 9.846 2.846 8.533-12.26c0-.11.109-.11.219-.11.109 0 .219.11.219.11l9.189 15.873 1.532 6.021 13.675 4.597c.109 0 .109.11.219.219 0 .109 0 .219-.11.219l-7.33 5.911 15.098-.547h.109l.109.109v.11l-2.406 8.867s0 .109-.11.109l-16.191 9.195h-.109l-9.737 1.204-16.957 4.817-14.441 16.967 22.318-14.011c.109-.11.219 0 .328 0 .109.109.109.218 0 .328l-5.032 7.444 5.251 6.13c.328 0 1.969 0 8.314.219.11 0 .219.109.219.219.219.109.219.219.219.328zm25.599-33.059l2.188-8.1-16.957 16.42 14.769-8.32zm-15.644 8.539l17.614-17.077-14.988.547-2.626 16.53zm2.407-16.968l7.549-6.13-13.238-4.707-22.755 33.278 28.116-22.331.109-.11c.219.11.219 0 .219 0zm-3.063 17.515l2.625-16.639-28.225 22.441 16.082-4.598 9.518-1.204zm-2.407-76.08l2.297-6.896-17.613-4.05-10.502 6.677 8.314 4.16 4.595-3.503h.219l7.986 7.553 4.704-3.94zm-3.501 105.855l4.376-10.071-9.08 5.583h-.219v-.219l.985-1.095-7.877-.219 1.75 6.021h10.065zm2.845-58.674l-1.423-5.583-8.97-15.654-8.315 11.932 18.708 9.305zm-23.303 34.482l23.193-33.935-19.035-9.414c-.11 0-.11-.11-.11-.11l-9.736-2.736 5.688 46.195zm1.423 35.029l18.379-10.29h-9.627l-8.752 10.29zm14.878-132.783l-5.361-5.583-5.688-2.299-3.611-.875 6.893 13.464 7.767-4.707zm-.875 29.884l-.219-5.145-7.33-4.05v-.11l-1.531-3.94-11.159 14.45-.11.109-3.063 2.408 10.612 2.518 6.892-.657-6.892-5.692s-.109-.11 0-.22c0-.109.109-.109.109-.109l10.175 2.628 2.516-2.19zm-5.58 92.062l-1.641-5.692-15.534 12.26 13.456-7.444h.109l3.61.876zm-1.75-6.24l-5.142-5.911-11.377 19.047 16.519-13.136zm-.109-111.218l-6.783-13.245-14.988 7.772c1.532.438 6.455 1.642 21.771 5.473zm-10.503 7.115l10.284-6.568c-1.422-.328-6.127-1.532-21.771-5.473l5.361 6.459 6.126 5.582zm5.361 97.535l4.704-6.896-21.333 13.464 16.629-6.568zm-9.08-88.777l11.924-4.27-8.095-4.05-3.829 8.32zm1.422 9.961L189.52 68.89l-11.925 4.16 1.532 9.414zm-4.486 98.958l11.597-19.376-17.614 6.897 6.017 12.479zm10.393-138.585l-1.641-2.955-11.268 3.174c9.409-.219 12.144-.219 12.909-.219zm-15.206 7.991l14.441-7.443c-10.175.218-12.8.218-13.457.218l-.984 7.225zm13.675 99.615l-5.689-46.086-19.254 46.086h24.943zm-15.097 17.953l14.878-17.406-27.678 13.574 12.581 3.941.219-.109zm-13.457-3.941l27.679-13.684h-24.397c-.218 0-1.969-.219-19.582-2.079l-.547 24.082 16.847-8.319zm22.974-61.521l2.298-8.647-12.472-4.05 10.174 12.697zm.657-20.032l-1.532-9.742-14.878 5.692-3.939 2.08 2.407 2.08 9.19-3.175 8.752 3.065zm-.985 20.361l-10.393-12.917-15.316 30.541 25.709-17.624zm-19.254 46.523l19.035-45.647-25.927 17.624 6.892 28.023zm16.082 32.293l-6.017-12.26-2.298 26.491.547-2.518 7.768-11.713zm-4.158-138.913l-1.094-4.598-7.876 14.012 8.97-9.414zm-.984 7.881l.875-7.115-9.08 9.633 8.205-2.518zm-.219 2.409l.219-1.861-7.549 2.408 7.33-.547zm-8.971.437l8.752-15.653-8.095 1.532-4.158 3.175c0 .11 0 .11-.109.219l-5.142 3.94 8.752 6.787zm5.251 144.606l2.626-29.447-12.472-3.94 9.846 33.387zm-10.94-95.893l12.144-12.37-12.472 2.846.328 9.524zm-3.063 18.281l14.879-29.665-11.706 12.041s-.11.109-.219.109l-3.829 4.817.875 12.698zm13.675 78.159l-10.065-34.044-16.738 8.21 26.803 25.834zm-12.909 7.772l12.909-6.787L89.2 177.699l55.356 42.364 4.376-4.926 3.173-8.32c-.109 0-.109 0 0 0zm-62.796-29.665l75.268 22.112-26.803-25.834c-34.68 2.737-45.183 3.503-48.465 3.722zm64.109-121.618l6.236-1.423-8.643-6.677-6.892 7.663 2.844 1.642 6.236-1.424c.109.22.219.22.219.22zm.875 8.977l4.376-4.488-4.923-2.409-5.032 5.036-11.816 10.18-19.363 5.692 7.329 3.613.329.11 9.846-.767 3.61-5.583.109-.11 12.472-3.393 3.063-7.881c-.109.11 0 .11 0 0zm3.72 85.931l-6.893-28.023-12.362 25.943 19.255 2.08zm-1.97-107.496l-1.859-2.409-14.113 10.728v.11l-5.361 12.04 5.689-1.094c.11 0 .11 0 .219.11s.109.219 0 .219l-3.391 8.976 11.049-9.524 5.142-5.035-.219-1.095-6.236 1.423h-.109l-3.173-1.86c-.109 0-.109-.11-.109-.22 0-.109 0-.109.109-.218l7.221-8.101 5.141-4.05zM138.977 146.72l11.596-24.301-7.767 7.224-3.829 17.077zm4.376 92.828l.985-18.391-19.036 37 18.051-18.609zM91.06 272.497l52.84-51.996c-2.188-.219-13.128-1.204-66.625-6.021l13.785 58.017zm52.621-52.544L88.106 177.48l-10.721 36.453c1.531.219 10.94 1.094 66.296 6.02zm-19.473 39.189l19.364-37.547-51.965 51.121 14.55-2.627h11.378l6.673-10.947zm-3.501 100.71l19.473 8.757-12.69-9.633-6.783.876zm16.082-288.117l3.282-8.757c-3.61.657-4.923.876-5.47.985l2.188 7.772zm-2.626-8.21l5.142-11.603-13.675 10.837c.875 0 2.954.22 8.533.766zm3.501 109.467l.547-24.083-49.23 27.914 48.683-3.831zm-49.34 3.503l49.668-28.133-7.329-3.722h-.11c-.109 0-.109 0-.219-.109l-9.299-11.823-16.738-4.926-15.972 48.713zm48.027-104.103l-2.297-8.429c-.438-.11-2.297-.219-8.424-.766l2.188 2.518v.219l-10.502 12.26 19.035-5.802zM116.659 93.41l15.316-9.195-6.892-1.533h-.328c-23.083.985-30.741 1.314-33.367 1.423l25.271 9.305zm14.66 186.531l-6.783-20.251-6.454 10.618 4.157 9.195 5.36 11.823 3.72-11.385zm-.985-136.067V130.3l-8.861 2.299 8.861 11.275zM90.513 83.558l33.148-1.314-7.002-3.503s-.109 0-.109-.11v-.109-.11-.109l-1.094-5.144-9.627 5.363h-.11l-7.876-1.86-7.33 6.896zm29.538 275.965l.547-22.221-16.52 10.071 15.973 12.15zm-15.207-231.96l15.316 4.489-8.533-6.021-6.783 1.532zm-.875 219.262l16.082-9.742-17.067.766.985 8.976zm4.267-244.11l7.986-8.867-25.819-9.524 7.111 31.745 10.722-13.354zm-5.142 222.217l4.048-9.852-4.158-3.831-7.33 3.831 7.44 9.852zm1.422 6.24l-1.422-5.474-10.721 6.24-11.925 6.896 11.487 6.24 11.487 2.08-.985-9.305c0-.109 0-.109.11-.219h.109l1.86-6.458zm-.656-203.718l-2.188-7.225-4.158-3.393-18.05 29.446 24.396-18.828zm-15.973 48.713l15.644-47.947-24.833 19.047 9.19 28.9zm14.879 149.093l-7.22-9.852-4.486 13.574 1.313 2.299 10.393-6.021zM78.698 146.282l18.27-29.775-18.49-14.559.22 44.334zm18.27-30.431l-7.112-31.308-11.268 16.858 18.38 14.45zM79.025 276.767l15.753.218-3.829-3.721c-4.485 1.094-8.533 1.97-12.143 2.846l.219.657zm12.909 54.842l-1.313-2.189-8.095 2.518h-.11l-9.408-5.255 7.11 11.823 11.816-6.897zm-1.313-59.002l-13.784-57.799-30.085 40.284-.11.657 43.98 16.858zm-12.143 2.955l11.596-2.736-43.432-16.639-2.844 27.257c30.632-6.896 34.242-7.772 34.68-7.882zm.11-174.927l11.049-16.42-10.831 2.298-.219 14.122zm8.97 76.298l-9.19-29.118-49.667 65.461 58.857-36.343zm-10.83 37l10.72-36.343-58.966 36.343h48.245zm1.86-127.967l2.953-4.27-6.564-.437 3.61 4.707zm.984 252.649l-7.33-12.151c-18.051 1.861-23.302 2.299-24.834 2.518l14.988 8.539 17.176 1.094zm-1.094-61.63l-.219-.766c-28.225 6.568-33.586 7.772-34.57 7.991l-3.282 31.746 24.724-20.361h.11l2.078-9.852v-.11l11.159-8.648zM78.26 86.404l-3.282-4.27 3.173 16.64.109-12.37zm0 60.535l-.219-44.553L49.597 148.8c22.865-1.423 27.678-1.751 28.663-1.861zm-.219-45.648l-3.72-19.813-29.866 28.133c26.913-6.678 32.383-8.101 33.586-8.32zM28.374 212.838l49.558-65.352c-23.412 1.423-27.788 1.752-28.663 1.752l-20.895 63.6zm20.895-64.585l28.444-46.414c-27.131 6.787-32.601 8.1-33.695 8.429l2.297 16.639 2.954 21.346zm-2.735 106.292L76.4 214.48H28.045l18.489 40.065zm25.6 71.372L64.694 313v-.109l3.939-11.823-3.063-4.816-18.27 32.183c19.473-1.971 23.849-2.408 24.834-2.518zm-25.381 2.408l17.723-31.526-24.178 19.813 6.455 11.713zm2.078-179.416l-2.953-21.346-32.492 39.627 35.445-18.281zm-21.333 64.805l20.896-63.6L8.79 194.338l18.707 19.376zM8.682 193.791l39.274-43.896-35.445 18.281-3.83 25.615zm37.524 62.177l.11-.547c-15.207 2.736-18.927 3.393-19.912 3.502L40.08 315.08l3.173-31.089 2.954-28.023zm-.11-1.095l-18.27-39.517-1.531 43.02c14.878-2.627 18.817-3.393 19.801-3.503zm-.328-128.076l-2.188-16.201-21.114 31.089 23.302-14.888zm-32.82 40.065l31.836-38.861-22.865 14.559h-.11l-8.86 24.302zm26.694 148.984l-13.675-56.375-9.627 20.361.109.219 13.128 24.301 10.065 11.494zm-11.05-.766l-7.767-16.749-4.704-18.062-.219-.328-12.8-9.852 12.144 29.775 13.346 15.216zm-2.844-57.142l1.532-43.349L.914 227.944l24.834 29.994zm1.422-43.786L8.463 194.885.695 227.507l26.475-13.355zm-1.531 44.443L.805 228.492l2.078 40.502 22.756-10.399zm-9.628 20.689l9.409-20.142-22.318 10.181 12.91 9.961z"/><path fill="url(#paint14_linear)" d="M226.826 4.413c0 .11 0 .22-.109.329L215.23 9.668l-6.236 2.627-4.157.985-5.47 3.612-7.549 4.27-1.75 3.393c-.109.11-.109.11-.219.11l-6.673.109-8.533.438a.235.235 0 0 1-.219-.22c0-.108 0-.218.109-.328l3.501-1.532 1.532-1.533h.109l3.391.11 2.626-1.095-3.501-.219c-.109 0-.219-.11-.219-.219 0-.11 0-.219.219-.328l8.862-3.175 2.078-3.174s0-.11.11-.11l5.032-1.313-2.188-.548c-.109 0-.219-.109-.219-.218 0-.11.11-.22.219-.22l8.643-2.189c4.594-1.094 7.329-1.86 8.97-2.189 1.641-.438 2.188-.547 2.298-.547h.109c10.503-1.861 10.612-1.861 10.612-1.861s.109 0 .109.11zM215.121 9.34l10.393-4.488-9.19 1.642-.109.11-10.065 5.91 2.844-.656 6.127-2.518zm-10.393 3.503l9.955-5.911-9.955 2.518-8.205 2.08 2.406.656h.329c.109 0 .109 0 .218.11l5.252.547zm-5.47 3.722l5.032-3.393c-.656-.11-1.969-.22-5.032-.657l-6.674 7.772 6.674-3.722zm-7.658 4.16l7.001-8.1-5.251 1.313-2.188 3.174h-.109l-8.205 2.956 3.61.219.219-.11h.109l4.814.548zm-1.86 3.612l1.641-3.065c-.438 0-1.641-.11-4.704-.438h-.219l-3.392 1.533h-.109l-3.282-.11-1.532 1.533-2.844 1.204 7.767-.438 6.674-.219z"/><path fill="url(#paint15_linear)" d="M205.274 150.113c0 .11 0 .219-.11.329l-3.391 2.736-.11.11h-.109l-5.251-1.861a.235.235 0 0 1-.219-.219c0-.109.109-.219.219-.219l8.642-.876c.11-.218.219-.109.329 0zm-3.72 2.628l2.954-2.409-7.549.767 4.595 1.642z"/><path fill="url(#paint16_linear)" d="M192.035 12.623c.11.11.11.22 0 .329l-2.078 3.065-.11.11-10.283 3.283H174.312c-.109 0-.218-.11-.218-.219 0-.11 0-.219.218-.328l10.284-3.831 7.221-2.409c0-.11.218-.11.218 0zm-2.406 3.175l1.859-2.737-6.892 2.299-9.627 3.612h4.376l10.284-3.174z"/><path fill="url(#paint17_linear)" d="M189.192 334.127c0 .109 0 .219-.11.328l-6.892 3.832h-.109c-.11 0-.219 0-.219-.11l-2.188-3.831v-.219c0-.109.109-.109.219-.109h9.08c.109-.11.219 0 .219.109zm-7.111 3.722l6.345-3.503h-8.315l1.97 3.503z"/><path fill="url(#paint18_linear)" d="M183.721 29.043c0 .11 0 .22-.109.22l-8.424 4.378c-18.161 3.065-18.161 3.065-18.27 3.065-.109 0-.109 0-.219-.11v-.219l4.376-4.925-2.407-1.205c-.109-.109-.109-.109-.109-.218 0-.11.109-.22.219-.22l5.032-1.532 4.595.219c.109 0 .219.11.219.11v.218l-1.751 2.08 11.378-3.503h.109c.219.11 1.094.22 5.361 1.314-.109.11 0 .219 0 .328zm-8.205 3.941l7.549-3.94-4.705-1.205-2.844 5.145zm-.656.22l2.844-5.146-11.049 3.394 8.205 1.751zm-16.848 2.955l15.972-2.627c-1.094-.22-3.391-.767-8.095-1.752l-7.877 4.379zm7.986-4.926l1.969-2.409-4.266-.219-4.704 1.424 2.406 1.204.11.11v.109l-3.829 4.269 8.095-4.488h.219z"/><path fill="url(#paint19_linear)" d="M174.97 332.704v.219s-.11.109-.219.109l-14.55-1.86-3.939 3.94c0 .11-.109.11-.218.11-.11 0-.11 0-.219-.11l-2.407-2.408-7.111-3.065c-.109 0-.219-.219-.109-.328 0-.11.109-.219.218-.219l8.205.438-1.531-6.35c0-.109 0-.218.109-.328.11 0 .219 0 .328.11l6.564 7.553 13.019-3.065h.109c.11 0 .219.109.219.219l1.532 5.035zm-.438-.109l-1.422-4.598-12.253 2.956 13.675 1.642zm-14.659-1.752l-6.236-7.115 1.422 6.239v.11h-.109l-7.768-.438 6.455 2.846 2.297 2.408 3.829-3.831c.11-.109.11-.109.11-.219 0 .11 0 .11 0 0z"/><path fill="url(#paint20_linear)" d="M173.546 62.212c.11.11.219.328-2.078 7.334 0 .11-.11.11-.219.11-.11 0-.11 0-.219-.11l-2.079-2.08v-.11l-.984-3.283c0-.11 0-.22.109-.329 1.094-.438 4.814-1.751 5.142-1.751.109.11.328.219.328.219zm-2.407 7.115c.766-2.408 1.97-5.911 2.079-6.677-.656.218-3.063 1.094-4.814 1.642l.876 3.065 1.859 1.97z"/><path fill="url(#paint21_linear)" d="M167.203 21.49c.109.11.109.219 0 .329l-1.313 3.393c0 .11-.109.11-.219.11l-6.345.875c-.109 0-.219-.11-.219-.219 0-.11 0-.219.11-.328l2.407-1.095h-1.204c-.109 0-.219-.11-.219-.219 0-.11 0-.219.11-.328l6.673-2.627s.11 0 .219.11zm-1.75 3.503l1.203-3.065-5.689 2.299h1.751s.109 0 .109.11c0 .109 0 .109-.109.109l-2.735 1.204 5.47-.657z"/><path fill="url(#paint22_linear)" d="M156.153 31.014c.11.109 0 .219-.109.328l-5.032 4.27-3.064 2.298-5.251 1.97h-.109c-.11 0-.219-.11-.219-.11 0-.109 0-.218.11-.328l3.61-2.736-2.735.11a.235.235 0 0 1-.219-.22c0-.11 0-.219.109-.328l4.923-2.737h.219c.11 0 .109.11.109.22l.11.875 2.188-2.299h.109l5.033-1.423c.109 0 .218 0 .218.11zm-5.36 4.269l4.595-3.832-4.267 1.205-2.516 2.627s-.11.11-.11 0l-.109-.11-.219-1.204-4.266 2.299 3.063-.11c.109 0 .109 0 .109.11v.11l-3.5 2.627 4.266-1.642 2.954-2.08z"/><path fill="url(#paint23_linear)" d="M152.214 92.862c.109.11.109.22 0 .329l-3.391 3.721c-.11.11-.11.11-.219.11-.11 0-.11 0-.219-.11l-1.203-1.423c-.11-.109-.11-.109-.11-.219 0-.109.11-.109.11-.218l4.594-2.409c.219.11.329.22.438.22zm-3.61 3.722l2.735-3.065-3.829 1.97 1.094 1.095z"/><path fill="url(#paint24_linear)" d="M149.369 321.1c0 .11.11.219 0 .329 0 .109-.109.109-.219.109l-11.158-1.314c-.11 0-.219-.109-.219-.218l-1.86-10.181-9.299-4.16-11.378 2.409c-.109 0-.218-.11-.218-.11 0-.109 0-.219.109-.328l8.971-5.255h.109l13.128 2.409s.11 0 .11.109l11.924 16.201zm-.547-.109l-11.377-15.545-.985 4.27s0 .109-.109.109l1.859 9.962 10.612 1.204zm-12.8-11.604l.985-4.378-12.69-2.409-8.205 4.817 10.721-2.19 9.189 4.16z"/><path fill="url(#paint25_linear)" d="M148.604 87.827v.219c0 .11-.11.11-.219.11l-7.877.656-7.22 4.817h-.219c-.11 0-.11-.11-.11-.22l.219-1.75-1.969-.877c-.109 0-.109-.109-.109-.218v-.22l8.861-10.18c.109-.11.219-.11.328-.11l5.58 2.737.109.11 2.626 4.926zm-.438 0l-2.516-4.598-5.47-2.627-8.643 9.962 1.86.875.109.11-.218 1.751 7.111-4.707h.109l7.658-.766z"/><path fill="url(#paint26_linear)" d="M144.666 91.549c.109.11 0 .219 0 .328l-3.72 4.598c0 .11-.109.11-.219.11l-3.719-.22c-.11 0-.219-.11-.219-.11v-.218l2.844-3.613h.11l4.704-.766c.109-.219.109-.219.219-.11zm-4.048 4.597l3.391-4.269-4.157.657-2.625 3.393 3.391.22z"/><path fill="url(#paint27_linear)" d="M141.166 44.04c.109.11 0 .22 0 .329l-5.908 5.254-.875.876-4.595 4.816h-.109l-4.048.329h-.11l-.109-.11v-.11l.438-3.94c0-.11.109-.219.218-.219l5.142-2.08.328-2.408c0-.11.11-.11.11-.11l9.299-2.627h.109c0-.11.11-.11.11 0zm-6.236 5.255l5.47-4.817-8.424 2.408 2.297 3.175.657-.766zm-1.204.985l-2.078-2.956-.328 2.08c0 .11 0 .11-.11.11l-5.142 2.08-.437 3.393 8.095-4.707zm-4.266 4.707l3.61-3.722-6.564 3.941 2.954-.219z"/><path fill="url(#paint28_linear)" d="M140.51 35.502c.109.11 0 .219 0 .328l-5.908 5.583-7.439 3.065h-.11l-1.203.547-8.205 3.941h-.109c-.11 0-.219 0-.219-.11-.11-.109 0-.218.109-.328l5.142-3.612-4.595 1.204h-.109a.235.235 0 0 1-.219-.219c0-.11 0-.219.109-.328l11.05-6.897h.109l8.424-4.05c.109 0 .219 0 .328.11.11.109 0 .218-.109.328l-4.814 3.612 7.439-3.174c.11-.11.219-.11.329 0zm-6.236 5.582l5.36-5.035-8.642 3.722c-.11 0-.11 0-.219-.11v-.218l5.47-4.16-7.22 3.393v.11l-1.751 4.926 7.002-2.628zm-7.658 3.175l1.75-4.816-9.736 6.13 5.141-1.314s.11 0 .11.11v.218l-4.923 3.394 6.673-3.175.985-.547z"/><path fill="url(#paint29_linear)" d="M137.445 329.857c.109 0 .109.11.109.219 0 .11-.109.219-.109.219l-5.033 2.08h-.219c-.109 0-.109-.109-.109-.219v-5.911c0-.109 0-.219.109-.219h.219l5.033 3.831zm-5.033 2.08l4.595-1.97-4.595-3.503v5.473z"/><path fill="url(#paint30_linear)" d="M122.568 65.058c.109.11.109.11.109.219l-1.641 6.349c0 .11-.109.219-.219.219-.109 0-.109 0-.219-.11l-3.282-3.612c0-.11-.109-.11-.109-.219 0-.11.109-.11.109-.219l4.923-2.737c.11.11.219.11.329.11zm-1.97 6.349l1.532-5.802-4.485 2.518 2.953 3.284z"/><path fill="url(#paint31_linear)" d="M120.378 52.36c.109.109.109.218 0 .328l-7.33 9.523 2.079 4.27c0 .11 0 .219-.11.328l-4.813 3.612-7.33 3.722h-.11c-.109 0-.109 0-.218-.11l-1.423-1.75-6.126 4.488-10.065 4.488h-.11c-.109 0-.109 0-.218-.11-.11-.11-.11-.219-.11-.328l.985-2.299-2.735-.985c-.11 0-.11-.11-.11-.22 0-.109.11-.218.11-.218l12.034-5.911-5.689.657c-.109 0-.218-.11-.218-.11v-.328l3.391-3.832-8.205 6.021h-.11s-.109 0-.109-.11c-.11-.109-.11-.218-.11-.328l2.189-4.269 10.065-7.772 8.97-6.897 5.361-1.751c.109 0 .219 0 .328.11.11.109.11.218 0 .328l-4.704 5.473 6.236-1.86h.109c.11 0 .11 0 .219.109.11.11.11.219.11.219l-.766 2.189 8.095-7.115c.219.328.329.328.438.438zm-7.439 9.523l6.454-8.429-7.876 6.787h-.11s-.109-.11 0-.11l.985-2.846-6.236 1.861 6.783 2.737zm1.86 4.707l-1.97-4.16-6.892-2.736 4.485 10.29 4.377-3.394zm-9.19-7.881l4.595-5.364-4.705 1.532.11 3.832zm-2.735 15.106l6.892-3.503-12.91-7.882 4.596 9.634v.109l1.422 1.642zm6.783-4.27l-4.376-10.07-8.315 2.19 12.691 7.88zm-4.595-10.508l-.11-3.94-7.876 6.02 7.986-2.08zm-4.267 12.698l-4.266-8.867.109 7.991 4.157.876zm-6.017 4.817l5.908-4.379c-.547-.11-1.75-.438-4.376-.985h-.328l-12.8 6.24 2.625.985.11.109v.11l-.875 2.189 9.736-4.27zm1.313-5.693l-.11-8.866-9.736 7.443-1.97 3.722 9.519-7.006h.218v.22l-4.594 5.363 6.454-.766.219-.11z"/><defs><linearGradient id="paint0_linear" x1="396.273" x2="571.785" y1="285.171" y2="285.171" gradientUnits="userSpaceOnUse"><stop stop-color="#35FFFE"/><stop offset="1" stop-color="#257AB4"/></linearGradient><linearGradient id="paint1_linear" x1="549.416" x2="553.978" y1="252.769" y2="252.769" gradientUnits="userSpaceOnUse"><stop stop-color="#35FFFE"/><stop offset="1" stop-color="#257AB4"/></linearGradient><linearGradient id="paint2_linear" x1="533.734" x2="540.995" y1="243.389" y2="243.389" gradientUnits="userSpaceOnUse"><stop stop-color="#35FFFE"/><stop offset="1" stop-color="#257AB4"/></linearGradient><linearGradient id="paint3_linear" x1="472.034" x2="513.845" y1="484.877" y2="484.877" gradientUnits="userSpaceOnUse"><stop stop-color="#35FFFE"/><stop offset="1" stop-color="#257AB4"/></linearGradient><linearGradient id="paint4_linear" x1="487.46" x2="494.933" y1="204.77" y2="204.77" gradientUnits="userSpaceOnUse"><stop stop-color="#35FFFE"/><stop offset="1" stop-color="#257AB4"/></linearGradient><linearGradient id="paint5_linear" x1="486.561" x2="490.171" y1="192.289" y2="192.289" gradientUnits="userSpaceOnUse"><stop stop-color="#35FFFE"/><stop offset="1" stop-color="#257AB4"/></linearGradient><linearGradient id="paint6_linear" x1="467.38" x2="475.001" y1="205.223" y2="205.223" gradientUnits="userSpaceOnUse"><stop stop-color="#35FFFE"/><stop offset="1" stop-color="#257AB4"/></linearGradient><linearGradient id="paint7_linear" x1="404.374" x2="450.649" y1="116.963" y2="116.963" gradientUnits="userSpaceOnUse"><stop stop-color="#35FFFE"/><stop offset="1" stop-color="#257AB4"/></linearGradient><linearGradient id="paint8_linear" x1="396.26" x2="414.128" y1="120.487" y2="120.487" gradientUnits="userSpaceOnUse"><stop stop-color="#35FFFE"/><stop offset="1" stop-color="#257AB4"/></linearGradient><linearGradient id="paint9_linear" x1="325.64" x2="367.263" y1="63.031" y2="63.031" gradientUnits="userSpaceOnUse"><stop stop-color="#35FFFE"/><stop offset="1" stop-color="#257AB4"/></linearGradient><linearGradient id="paint10_linear" x1="204.189" x2="327.785" y1="45.204" y2="45.204" gradientUnits="userSpaceOnUse"><stop stop-color="#35FFFE"/><stop offset="1" stop-color="#257AB4"/></linearGradient><linearGradient id="paint11_linear" x1="148.516" x2="324.65" y1="458.545" y2="458.545" gradientUnits="userSpaceOnUse"><stop stop-color="#35FFFE"/><stop offset="1" stop-color="#257AB4"/></linearGradient><linearGradient id="paint12_linear" x1="210.609" x2="240.364" y1="150.726" y2="150.726" gradientUnits="userSpaceOnUse"><stop stop-color="#35FFFE"/><stop offset="1" stop-color="#257AB4"/></linearGradient><linearGradient id="paint13_linear" x1=".302" x2="229.379" y1="203.614" y2="203.614" gradientUnits="userSpaceOnUse"><stop stop-color="#35FFFE"/><stop offset="1" stop-color="#257AB4"/></linearGradient><linearGradient id="paint14_linear" x1="174.393" x2="226.879" y1="14.811" y2="14.811" gradientUnits="userSpaceOnUse"><stop stop-color="#35FFFE"/><stop offset="1" stop-color="#257AB4"/></linearGradient><linearGradient id="paint15_linear" x1="196.094" x2="205.249" y1="151.529" y2="151.529" gradientUnits="userSpaceOnUse"><stop stop-color="#35FFFE"/><stop offset="1" stop-color="#257AB4"/></linearGradient><linearGradient id="paint16_linear" x1="174.082" x2="192.108" y1="15.921" y2="15.921" gradientUnits="userSpaceOnUse"><stop stop-color="#35FFFE"/><stop offset="1" stop-color="#257AB4"/></linearGradient><linearGradient id="paint17_linear" x1="179.586" x2="189.212" y1="336.134" y2="336.134" gradientUnits="userSpaceOnUse"><stop stop-color="#35FFFE"/><stop offset="1" stop-color="#257AB4"/></linearGradient><linearGradient id="paint18_linear" x1="156.59" x2="183.733" y1="32.112" y2="32.112" gradientUnits="userSpaceOnUse"><stop stop-color="#35FFFE"/><stop offset="1" stop-color="#257AB4"/></linearGradient><linearGradient id="paint19_linear" x1="146.215" x2="175.007" y1="329.134" y2="329.134" gradientUnits="userSpaceOnUse"><stop stop-color="#35FFFE"/><stop offset="1" stop-color="#257AB4"/></linearGradient><linearGradient id="paint20_linear" x1="167.998" x2="173.599" y1="65.981" y2="65.981" gradientUnits="userSpaceOnUse"><stop stop-color="#35FFFE"/><stop offset="1" stop-color="#257AB4"/></linearGradient><linearGradient id="paint21_linear" x1="158.967" x2="167.226" y1="23.794" y2="23.794" gradientUnits="userSpaceOnUse"><stop stop-color="#35FFFE"/><stop offset="1" stop-color="#257AB4"/></linearGradient><linearGradient id="paint22_linear" x1="142.387" x2="156.21" y1="35.38" y2="35.38" gradientUnits="userSpaceOnUse"><stop stop-color="#35FFFE"/><stop offset="1" stop-color="#257AB4"/></linearGradient><linearGradient id="paint23_linear" x1="147.091" x2="152.226" y1="94.948" y2="94.948" gradientUnits="userSpaceOnUse"><stop stop-color="#35FFFE"/><stop offset="1" stop-color="#257AB4"/></linearGradient><linearGradient id="paint24_linear" x1="115.038" x2="149.438" y1="311.868" y2="311.868" gradientUnits="userSpaceOnUse"><stop stop-color="#35FFFE"/><stop offset="1" stop-color="#257AB4"/></linearGradient><linearGradient id="paint25_linear" x1="131.015" x2="148.669" y1="86.967" y2="86.967" gradientUnits="userSpaceOnUse"><stop stop-color="#35FFFE"/><stop offset="1" stop-color="#257AB4"/></linearGradient><linearGradient id="paint26_linear" x1="136.749" x2="144.679" y1="93.972" y2="93.972" gradientUnits="userSpaceOnUse"><stop stop-color="#35FFFE"/><stop offset="1" stop-color="#257AB4"/></linearGradient><linearGradient id="paint27_linear" x1="125.292" x2="141.225" y1="49.813" y2="49.813" gradientUnits="userSpaceOnUse"><stop stop-color="#35FFFE"/><stop offset="1" stop-color="#257AB4"/></linearGradient><linearGradient id="paint28_linear" x1="117.035" x2="140.518" y1="41.799" y2="41.799" gradientUnits="userSpaceOnUse"><stop stop-color="#35FFFE"/><stop offset="1" stop-color="#257AB4"/></linearGradient><linearGradient id="paint29_linear" x1="132.007" x2="137.523" y1="329.18" y2="329.18" gradientUnits="userSpaceOnUse"><stop stop-color="#35FFFE"/><stop offset="1" stop-color="#257AB4"/></linearGradient><linearGradient id="paint30_linear" x1="117.171" x2="122.607" y1="68.487" y2="68.487" gradientUnits="userSpaceOnUse"><stop stop-color="#35FFFE"/><stop offset="1" stop-color="#257AB4"/></linearGradient><linearGradient id="paint31_linear" x1="82.678" x2="120.487" y1="66.85" y2="66.85" gradientUnits="userSpaceOnUse"><stop stop-color="#35FFFE"/><stop offset="1" stop-color="#257AB4"/></linearGradient></defs></svg>