<svg width="572" height="572" viewBox="0 0 572 572" fill="none" xmlns="http://www.w3.org/2000/svg">
<path d="M571.325 299.535L571.763 307.745L569.575 340.366L561.698 362.041C561.698 362.041 561.698 362.15 561.589 362.15L555.243 365.215L554.368 375.067L559.291 375.505C559.401 375.505 559.401 375.505 559.51 375.615C559.51 375.724 559.51 375.724 559.51 375.833L547.914 399.259L536.755 413.818L521.548 434.07L510.718 455.306L499.887 469.975L483.915 481.688L472.975 493.948L452.407 511.463L432.606 523.395H432.497H422.76C422.651 523.395 422.651 523.395 422.541 523.285C422.541 523.285 422.541 523.285 422.541 523.176C422.541 523.176 422.541 523.176 422.541 523.066C422.541 523.066 422.541 523.066 422.541 522.957V522.847L426.698 515.951L437.42 501.83L446.5 485.41L451.642 466.253L462.035 451.037L471.115 435.602L476.257 417.321L475.053 399.697L478.663 389.407L480.633 376.49L472.975 374.739C472.865 374.739 472.756 374.629 472.756 374.52L473.193 366.967L452.517 367.295C433.044 372.221 433.044 372.221 433.044 372.221C433.044 372.221 433.044 372.221 432.934 372.221L421.994 367.623L407.991 350.547L396.285 322.414V322.304L402.959 311.577L398.364 294.609V294.5L405.365 283.115L416.305 264.287L428.668 255.53V240.752V240.642L438.076 233.855L440.483 225.426C440.483 225.317 440.592 225.207 440.702 225.207C440.702 225.207 440.702 225.207 455.58 228.491L482.602 222.69H499.668C499.668 222.69 499.668 222.69 499.778 222.69C499.778 222.69 499.778 222.69 499.887 222.799C499.887 222.799 499.887 222.799 499.887 222.909L498.684 239.547L527.346 265.929L527.456 255.092C527.456 254.982 527.456 254.873 527.565 254.873C527.675 254.873 527.784 254.873 527.784 254.873L553.602 272.606L555.9 243.817C555.134 243.707 552.508 243.16 542.662 241.08L536.317 218.53C536.317 218.42 536.317 218.311 536.427 218.201L546.71 211.196C546.71 211.196 546.71 211.196 546.82 211.196L554.915 218.53L549.226 202.11L548.679 200.687L544.085 185.909L540.474 195.542C540.474 195.651 540.365 195.651 540.256 195.761C540.146 195.761 540.037 195.761 540.037 195.651L533.254 184.157L535.333 212.071V212.181C535.333 212.181 535.223 212.181 535.223 212.29C535.223 212.29 535.223 212.29 535.114 212.29C535.114 212.29 535.114 212.29 535.004 212.29L526.909 209.882L529.863 234.184C529.863 234.293 529.753 234.403 529.644 234.512C529.644 234.512 529.644 234.512 529.534 234.512C529.425 234.512 529.316 234.403 529.316 234.403L517.719 203.861L506.56 188.317L505.576 186.894L495.183 176.057L499.34 187.003L516.078 209.006V209.116L513.562 220.61L512.03 229.477C512.03 229.586 511.921 229.695 511.812 229.695C511.812 229.695 511.812 229.695 511.702 229.695C511.593 229.695 511.593 229.695 511.483 229.586L504.701 221.923C504.591 221.814 504.591 221.704 504.701 221.595L511.265 215.027L496.824 192.367L483.368 179.779L479.32 184.157C479.32 184.157 479.21 184.267 479.101 184.267C479.101 184.267 479.101 184.267 470.568 183.719L469.802 192.696C469.802 192.696 469.802 192.696 469.802 192.805L460.831 204.956L459.956 214.261C459.956 214.261 459.956 214.261 459.847 214.261L441.03 222.142H440.92H440.811L440.702 222.033L438.623 216.669H428.339C428.23 216.669 428.121 216.559 428.121 216.45L427.245 200.906L423.635 177.48C423.635 177.48 423.635 177.48 423.635 177.37C423.635 177.37 423.635 177.37 423.745 177.37C423.745 177.37 423.745 177.37 451.423 182.515L445.187 160.403L432.168 149.566C432.059 149.456 432.059 149.347 432.059 149.347C432.059 149.237 432.168 149.128 432.278 149.128L446.719 148.252L449.672 141.246C449.672 141.246 449.672 141.246 449.672 141.137L457.112 136.43L454.486 129.315C454.486 129.205 454.486 129.205 454.486 129.096C454.486 128.986 454.595 128.986 454.595 128.986L464.66 125.374L457.877 106.108C457.877 105.998 457.877 105.889 457.987 105.779H458.096C458.206 105.779 458.315 105.889 458.315 105.889L467.395 123.513L479.101 127.344C488.838 126.249 491.901 125.921 492.776 125.812L484.571 114.646C484.571 114.537 484.462 114.427 484.571 114.318C484.571 114.208 484.68 114.208 484.79 114.208C484.79 114.208 484.79 114.208 491.135 114.755L480.633 104.028C480.523 103.918 480.523 103.809 480.633 103.699C480.633 103.59 480.742 103.59 480.851 103.59C480.851 103.59 480.851 103.59 492.338 105.232L485.665 101.948L470.13 91.5485C470.13 91.5485 470.13 91.5485 470.13 91.4391L464.66 78.4125L455.142 71.5161L462.035 80.8208L463.457 89.9066L473.85 98.0071C473.85 98.0071 473.85 98.0071 473.85 98.1166L473.193 104.466L475.053 120.448C475.053 120.557 475.053 120.667 474.834 120.667H474.725C474.616 120.667 474.506 120.667 474.506 120.557L464.988 106.874L464.77 106.545L453.83 95.2704L451.204 103.699C451.204 103.809 451.095 103.809 451.095 103.918H450.985H450.876L440.483 97.2408L432.278 83.7764C432.278 83.7764 432.278 83.7764 432.278 83.6669C432.278 83.5575 432.278 83.5575 432.278 83.448L438.295 76.88L434.466 64.1819L427.683 47.2146C427.683 47.2146 427.683 47.2145 427.683 47.1051V46.9956C427.683 46.9956 427.683 46.9956 427.792 46.9956H427.902L450.438 58.5991L472.646 75.6759L500.981 104.356L524.064 135.226L526.252 138.181L546.382 174.415L549.336 182.296L560.057 210.867L562.683 224.879L568.7 256.734L568.809 258.376L571.325 299.535C571.325 299.426 571.325 299.426 571.325 299.535C571.325 299.426 571.325 299.426 571.325 299.535ZM571.435 307.745L570.997 300.192L559.729 319.239L569.356 339.491L571.435 307.745ZM570.888 298.988L568.59 258.923L554.587 273.373L556.884 286.29L570.888 298.988ZM559.619 318.473L570.669 299.535L556.994 286.837L559.619 318.473ZM569.137 340.257L559.619 320.115L555.572 358.538L569.137 340.257ZM561.37 361.822L568.809 341.57L555.462 359.523L555.353 364.777L561.37 361.822ZM568.59 257.719L568.481 256.734L562.573 225.645L556.994 243.598L568.59 257.719ZM568.371 258.376L556.884 244.255L554.587 272.716L568.371 258.376ZM562.245 223.675L559.838 210.867L549.555 183.501L550.32 201.891L562.245 223.675ZM543.538 240.423L562.136 224.879L555.79 219.625L555.681 219.406L547.367 211.962L543.538 240.423ZM556.556 243.598L562.136 225.645L543.647 240.971L556.556 243.598ZM561.698 223.784L550.867 204.08L556.009 218.968L556.119 219.077L561.698 223.784ZM559.182 319.13L556.447 286.399L551.961 283.115L552.618 295.157V295.266L554.259 325.15L555.025 346.059L555.353 355.582L559.182 319.13ZM547.695 398.931L559.182 375.724L554.368 375.286C554.368 375.286 554.368 375.286 554.368 375.396H554.259C554.259 375.396 554.259 375.396 520.673 372.221L521.658 433.303L536.536 413.49L547.695 398.931ZM556.337 285.742L554.149 273.592L536.098 282.349H551.633H551.743L556.337 285.742ZM554.915 359.413L554.478 346.387L531.722 335.769L554.806 364.23L554.915 359.413ZM554.04 374.848L554.915 365.215C533.145 369.594 525.049 371.236 522.095 371.783C525.049 372.112 532.926 372.878 554.04 374.848ZM554.587 364.777L530.957 335.55L520.673 371.564C546.929 366.31 553.165 365.106 554.587 364.777ZM554.478 345.073L553.712 325.369L552.18 297.127L544.96 325.369L554.478 345.073ZM554.149 345.621L544.522 325.369L535.114 284.429L531.066 334.893L554.149 345.621ZM535.114 282.239L553.931 273.044L528.222 255.42L528.112 266.367C528.112 266.367 528.112 266.367 528.112 266.476L535.114 282.239ZM544.741 324.275L552.071 295.485L535.442 283.334L544.741 324.275ZM552.071 294.828L551.414 282.896H535.77L552.071 294.828ZM549.773 200.687L549.008 182.734L544.85 185.252L549.773 200.687ZM548.898 181.64L546.163 174.415L526.034 138.181L524.064 135.445L511.593 152.303L532.707 168.832L548.898 181.64ZM544.632 184.814L548.789 182.296L532.816 169.708L533.692 182.625C534.348 182.734 536.536 183.172 544.632 184.814ZM543.1 240.095L546.929 211.852L537.083 218.53L543.1 240.095ZM540.803 194.995L544.522 185.252C543.975 185.143 541.787 184.705 533.91 183.172L540.803 194.995ZM535.442 210.977L533.363 183.172L533.254 182.953C533.254 182.953 533.254 182.953 533.254 182.844L532.488 171.021L527.128 197.074L535.442 210.977ZM535.114 211.524L527.018 198.06L527.237 209.225L535.114 211.524ZM530.628 334.236L534.676 283.006C510.827 288.37 505.357 289.683 504.044 289.902L530.628 334.236ZM534.567 282.13L528.003 267.133L521.439 277.204L534.567 282.13ZM534.129 282.568L521.001 277.532L504.81 289.245C525.705 284.429 532.16 283.006 534.129 282.568ZM526.581 196.746L532.16 169.708L507.326 187.989L526.581 196.746ZM531.941 168.941L511.374 152.74L495.073 174.524C522.97 170.365 530.081 169.27 531.941 168.941ZM506.779 187.879L531.613 169.598C502.622 173.977 496.277 174.962 494.964 175.181L506.013 186.675L506.779 187.879ZM520.345 370.907L530.519 335.221L511.812 328.872L520.345 370.907ZM530.3 334.565L504.263 291.216L511.702 328.325L530.3 334.565ZM529.863 232.979L527.018 209.554C526.909 209.554 526.909 209.444 526.909 209.335L526.581 197.293L507.436 188.645L518.157 203.642L529.863 232.979ZM521.001 276.766L527.675 266.476L499.668 240.861L521.001 276.766ZM511.265 151.974L523.517 135.335L494.089 126.687L511.265 151.974ZM522.314 133.146L500.981 104.575C497.152 105.451 495.511 105.779 494.745 105.998L522.314 133.146ZM493.651 125.921L522.205 134.35L491.901 115.412L491.791 115.303L485.337 114.755L493.651 125.921C493.542 125.921 493.542 125.921 493.651 125.921ZM492.338 115.084L522.095 133.693L494.308 106.327L492.338 115.084ZM510.389 455.197L521.111 434.07L475.928 400.573L499.887 469.427L510.389 455.197ZM521.001 433.413L520.017 372.44L475.819 399.916L521.001 433.413ZM520.673 277.204L499.121 240.971L503.825 289.355L520.673 277.204ZM519.907 371.345L511.265 328.872L490.807 349.452L519.907 371.345ZM475.71 399.369L519.47 372.112C517.172 371.893 508.42 370.907 473.631 367.076L473.193 374.52L480.961 376.271C481.07 376.271 481.07 376.381 481.07 376.381L479.101 389.517L475.71 399.369ZM519.36 371.564L490.369 349.671C476.038 350.547 472.537 350.766 471.662 350.766L473.74 366.419C474.834 366.638 481.289 367.405 519.36 371.564ZM515.641 209.006L500.106 188.536L511.921 214.48L515.641 209.006ZM513.234 220.61L515.531 210.21L512.14 215.355C512.14 215.355 512.14 215.355 512.03 215.465C511.921 215.465 511.921 215.465 511.921 215.465L505.466 221.923L511.921 229.258L513.234 220.61ZM511.265 328.325L503.497 290.34L469.583 333.36L490.588 349.233L511.265 328.325ZM510.936 152.412L493.87 127.016L494.745 174.196L510.936 152.412ZM510.499 212.728L498.902 187.222C498.902 187.113 498.902 187.003 498.902 187.003L494.526 175.291L494.417 175.181L483.696 179.012L483.805 179.341V179.45L497.371 192.039L510.499 212.728ZM503.388 289.245L498.574 240.204L480.742 248.086L482.492 275.234V275.343L482.383 275.562L503.388 289.245ZM469.364 332.704L503.06 290.012C501.528 289.902 495.073 289.683 469.146 288.589L468.817 288.917L469.364 332.704ZM469.693 288.151L502.731 289.464L481.945 275.89L469.693 288.151ZM500.106 103.699L472.865 76.0043L470.787 91.2201L500.106 103.699ZM500.106 104.247L472.318 92.5337L486.103 101.729L493.87 105.451C493.979 105.451 494.089 105.451 494.198 105.451C497.59 104.794 499.231 104.356 500.106 104.247ZM498.684 239.547L499.887 223.565L480.086 239.657L498.684 239.547ZM479.32 239.547L499.449 223.237H482.93L456.455 228.82L479.32 239.547ZM499.34 469.975L471.881 437.025L483.805 481.359L499.34 469.975ZM499.012 468.661L475.71 401.449L476.804 417.54C476.913 417.65 476.913 417.65 476.913 417.759L471.771 435.931L499.012 468.661ZM480.414 247.648L497.59 239.985H479.539L457.987 257.5L480.414 247.648ZM494.198 174.743L493.323 127.454L484.133 150.442L471.005 183.063L483.368 178.684L494.198 174.743ZM491.901 114.865L493.87 105.998L493.761 105.889L481.508 104.137L491.901 114.865ZM483.805 149.785L493.214 126.359L479.32 127.891L467.395 123.951C467.395 123.951 467.286 123.951 467.286 123.841L459.081 107.969L465.207 125.374C465.317 125.374 465.317 125.374 465.317 125.483L483.805 149.785ZM471.662 350.328L489.822 349.233L469.583 333.908L471.662 350.328ZM470.458 182.953L483.477 150.551C482.164 150.442 475.928 150.113 447.484 148.69L470.458 182.953ZM483.368 481.25L471.443 437.025L462.253 475.448L483.368 481.25ZM483.368 179.56L483.258 179.231L471.552 183.391L479.32 183.938L483.368 179.56ZM483.258 150.004L464.988 125.812L455.033 129.315L457.659 136.43C457.659 136.539 457.659 136.539 457.659 136.649L450.219 141.356L447.266 148.143C448.36 148.252 453.939 148.471 483.258 150.004ZM423.307 522.628L482.711 482.016C449.235 485.847 446.937 486.176 446.719 486.176L437.748 502.377L427.027 516.498L423.307 522.628ZM472.646 493.839L482.492 482.782L423.307 523.285H432.387L452.079 511.463L472.646 493.839ZM482.383 481.469L461.925 475.776L447.594 485.519C471.771 482.782 479.757 481.797 482.383 481.469ZM481.945 275.124L480.195 248.305L456.674 258.704L481.945 275.124ZM469.036 288.041L481.508 275.562L456.346 259.033L449.235 287.275L469.036 288.041ZM456.455 258.157L478.882 239.985L456.127 229.367L456.455 258.157ZM474.506 120.01L473.084 104.903L473.631 99.1017L465.535 106.983L474.506 120.01ZM465.207 106.436L473.303 98.6639C472.099 98.445 467.942 97.6787 454.267 95.1609L465.098 106.327L465.207 106.436ZM473.193 366.638L471.115 351.094L434.356 371.455L452.407 366.967L473.193 366.638ZM473.084 98.1166L463.238 90.4539V90.3444L461.925 81.806L454.158 94.7231C455.252 94.8325 459.081 95.4893 473.084 98.1166ZM470.349 90.7823L472.318 76.1137L465.207 78.6315L470.349 90.7823ZM465.098 78.0841L472.209 75.5664L451.423 59.5843L465.098 78.0841ZM471.115 350.547L468.927 333.579L403.724 312.124L433.153 371.674L471.115 350.547ZM461.706 475.339L470.787 437.135L462.363 451.475L451.97 466.691L446.937 485.3L461.706 475.339ZM469.583 192.696L470.349 183.829C469.802 183.829 466.739 183.719 452.298 183.172L460.941 204.409L469.583 192.696ZM470.021 183.172L446.828 148.471L432.825 149.347L445.625 160.075C445.625 160.075 445.625 160.075 445.625 160.184L451.97 182.515C452.298 182.625 454.705 182.734 470.021 183.172ZM468.927 332.813L468.38 288.807V288.698L468.489 288.589C467.176 288.479 462.91 288.37 448.797 287.822L429.215 298.222L468.927 332.813ZM403.834 311.577L467.942 332.704L428.777 298.331L403.834 311.577ZM464.004 77.5368L450.11 58.7086V58.5991L429.105 47.8713L454.158 70.312L454.377 70.6404L464.004 77.5368ZM453.72 94.3947L461.597 81.2587C460.394 81.0397 456.018 80.2735 439.279 77.2084L453.72 94.3947ZM461.488 80.8208L454.158 70.9688L453.939 70.8593L439.389 76.7705C441.139 77.0989 446.39 77.9747 461.488 80.8208ZM459.737 213.713L460.612 204.956L426.37 179.779L459.737 213.713ZM460.175 203.971L451.642 182.844L424.729 177.808L460.175 203.971ZM459.3 214.042L424.62 178.793L439.061 216.45C453.611 214.699 457.987 214.151 459.3 214.042ZM441.03 221.923L458.424 214.589C443.218 216.341 439.826 216.778 439.061 216.888L441.03 221.923ZM455.908 257.828L455.58 229.148L438.951 234.074L455.908 257.828ZM448.688 287.056L455.799 258.923C426.698 263.192 419.15 264.287 417.29 264.506L448.688 287.056ZM455.58 258.376L438.514 234.512L429.433 255.42L455.58 258.376ZM438.732 233.636L455.033 228.71L441.03 225.536L438.732 233.636ZM438.623 76.5516L453.611 70.4215L428.339 47.7619L434.794 63.9629L438.623 76.5516ZM450.876 103.48L453.501 95.0515L432.934 84.2143L440.702 96.9124L450.876 103.48ZM452.626 93.9568L438.404 77.0989L432.715 83.3386L452.626 93.9568ZM428.996 297.674L448.36 287.384L417.071 265.053L428.996 297.674ZM454.158 258.704C452.736 258.595 450.438 258.266 446.5 257.828C442.561 257.391 436.982 256.734 429.105 255.858L417.509 264.068C441.686 260.565 450.766 259.251 454.158 258.704ZM438.514 216.559L424.401 179.56L427.683 201.125L428.558 216.559H438.514ZM429.215 254.654L437.967 234.512L429.215 240.752V254.654ZM432.606 371.674L403.724 313.109L408.319 350.328V350.437L422.213 367.295L432.606 371.674ZM428.558 298.003L416.634 265.382L403.615 311.248L428.558 298.003ZM403.177 310.92L415.977 265.929L405.803 283.444L398.801 294.609L403.177 310.92ZM407.663 349.014L403.068 312.233L396.723 322.304L407.663 349.014Z" fill="url(#paint0_linear)"/>
<path d="M553.821 250.385C553.931 250.385 554.04 250.494 554.04 250.713L553.056 256.077C553.056 256.186 552.946 256.296 552.837 256.296C552.727 256.296 552.618 256.296 552.618 256.186L549.555 249.837C549.555 249.728 549.555 249.619 549.555 249.619C549.555 249.509 549.664 249.509 549.774 249.509C549.664 249.4 549.664 249.4 553.821 250.385ZM552.618 255.53L553.493 250.713L549.883 249.837L552.618 255.53Z" fill="url(#paint1_linear)"/>
<path d="M541.021 246.006C541.021 246.116 541.021 246.225 540.912 246.225C540.912 246.225 540.802 246.225 540.693 246.225H540.584L534.02 243.708C533.91 243.708 533.91 243.598 533.91 243.489L533.691 240.752C533.691 240.642 533.691 240.533 533.801 240.533C533.91 240.424 533.91 240.424 534.02 240.533L540.037 242.394C540.146 242.394 540.146 242.503 540.255 242.613L541.021 246.006ZM540.584 245.787L539.927 242.722L534.129 240.971L534.348 243.379L540.584 245.787Z" fill="url(#paint2_linear)"/>
<path d="M513.781 462.641C513.89 462.75 513.89 462.86 513.781 462.969L504.591 477.2L484.462 498.655L472.428 507.084H472.318C472.209 507.084 472.209 507.084 472.1 506.975C471.99 506.865 471.99 506.756 472.1 506.646L488.51 488.037L495.074 480.265L501.309 474.354L504.701 472.931L513.343 462.641C513.453 462.641 513.672 462.531 513.781 462.641ZM504.263 476.981L512.249 464.721L504.92 473.368L501.638 474.682V474.792L486.322 496.137L504.263 476.981ZM484.134 498.327L500.106 476.215L495.402 480.593L488.838 488.365L473.194 506.099L484.134 498.436C484.024 498.436 484.024 498.436 484.134 498.327Z" fill="url(#paint3_linear)"/>
<path d="M494.964 209.006C494.964 209.116 494.964 209.225 494.855 209.225L489.823 211.524H489.713C489.604 211.524 489.604 211.524 489.604 211.415C489.495 211.305 489.495 211.196 489.495 211.196L490.151 208.24L487.744 207.036C487.635 207.036 487.635 206.927 487.635 206.817L487.525 201.672C487.525 201.672 487.525 201.563 487.635 201.563L493.323 197.95C493.433 197.95 493.542 197.95 493.542 197.95C493.652 197.95 493.652 198.06 493.652 198.169L494.964 209.006ZM494.527 208.897L493.214 198.388L487.854 201.672L487.963 206.598L490.479 207.802L490.589 207.912L489.932 210.867L494.527 208.897Z" fill="url(#paint4_linear)"/>
<path d="M490.151 196.418C490.151 196.527 490.151 196.637 490.042 196.746H489.932C489.823 196.746 489.823 196.746 489.714 196.637C489.057 195.98 486.65 194.119 486.65 194.119C486.541 194.119 486.541 194.009 486.541 193.9C486.541 193.79 486.541 193.79 486.65 193.681L488.182 192.258L488.401 187.989C488.401 187.879 488.51 187.77 488.62 187.77C488.729 187.77 488.838 187.879 488.838 187.879L489.932 190.944C489.932 190.944 489.932 191.054 489.932 191.273C490.042 192.477 489.932 195.432 490.151 196.418ZM489.604 191.163L488.729 188.755L488.51 192.477V192.586L487.088 193.9C487.526 194.228 489.057 195.323 489.823 196.089C489.604 194.666 489.604 191.492 489.604 191.163Z" fill="url(#paint5_linear)"/>
<path d="M474.944 203.752C474.944 203.862 474.944 203.971 474.944 204.081L472.974 206.817C472.974 206.927 472.865 206.927 472.756 206.927H472.646L467.504 204.737C467.395 204.737 467.286 204.519 467.395 204.409C467.395 204.3 467.504 204.19 467.614 204.19C474.725 203.643 474.725 203.643 474.725 203.643C474.834 203.643 474.944 203.643 474.944 203.752ZM472.756 206.379L474.506 203.971L468.27 204.409L472.756 206.379Z" fill="url(#paint6_linear)"/>
<path d="M450.659 136.758C450.659 136.868 450.55 136.977 450.44 136.977L444.861 138.838L436.765 140.152C421.559 141.465 421.559 141.465 421.559 141.465C421.449 141.465 421.34 141.356 421.34 141.246C421.34 141.137 421.34 141.028 421.449 140.918L424.075 138.619L427.576 134.569L430.858 131.942C430.311 131.832 429.435 131.613 427.794 131.285C426.153 130.957 423.747 130.409 420.246 129.752C420.136 129.752 420.136 129.643 420.027 129.534C420.027 129.424 420.027 129.315 420.136 129.315L423.747 126.25L420.465 119.791C420.465 119.682 420.465 119.572 420.465 119.463C420.574 119.353 420.683 119.353 420.683 119.353L425.825 120.995L423.747 117.492L422.871 114.646L414.995 112.128C414.995 112.128 414.995 112.128 414.885 112.019L412.26 107.75C412.26 107.75 412.26 107.75 412.26 107.64L412.478 103.918L411.275 103.371L406.571 105.67H406.461H406.352C406.243 105.67 406.243 105.56 406.243 105.451L405.914 99.6491L404.602 94.7231C404.602 94.6137 404.602 94.5042 404.82 94.3947L412.369 92.0959C412.369 92.0959 412.588 92.0959 412.588 92.2054C412.697 92.3149 412.697 92.3149 412.697 92.4243L411.713 96.9125C412.26 96.9125 414.01 97.0219 419.152 97.4598C419.261 97.4598 419.371 97.5693 419.371 97.6787L420.683 101.62C420.683 101.729 420.683 101.729 420.683 101.838L418.167 107.093C418.714 107.093 419.808 107.202 422.434 107.421H422.543L429.654 112.785L435.015 117.054L435.89 117.711L442.235 122.856C442.345 122.966 442.345 123.075 442.345 123.184C442.345 123.294 442.235 123.294 442.126 123.294C442.126 123.294 442.126 123.294 442.016 123.294L437.75 121.871V122.966L443.11 125.483L446.174 128.439V128.548L445.955 134.788L450.768 136.102C450.55 136.539 450.659 136.649 450.659 136.758ZM444.751 138.51L449.893 136.758L445.517 135.554L445.408 135.664L431.295 132.27L427.794 135.007L424.294 139.057L421.996 141.028L436.765 139.714L444.751 138.51ZM445.189 135.007L445.517 128.986L442.563 126.14L437.093 123.622L436.984 123.513L436.875 121.871V121.761H436.984L440.922 123.075L434.577 118.04L431.405 132.051L445.189 135.007ZM430.967 131.832L434.14 118.04L426.482 121.871H426.372C426.263 121.871 426.153 121.871 426.153 121.761V121.652L420.902 120.01L424.075 126.359C424.075 126.468 424.075 126.468 424.075 126.578L420.465 129.643L430.967 131.832ZM426.372 121.324L433.811 117.602C432.717 117.383 429.982 116.616 423.2 114.974L423.965 117.492L426.372 121.324ZM433.702 117.054L429.107 113.332L422.106 108.078L417.948 107.859L423.09 114.427C423.637 114.537 425.606 114.974 433.702 117.054ZM422.434 114.318L417.292 107.75C417.183 107.64 417.183 107.531 417.292 107.531C417.292 107.421 417.401 107.421 417.511 107.421L419.918 102.386C414.885 103.152 412.697 103.371 411.713 103.48L412.588 103.918L412.697 104.028L412.478 107.75L414.995 111.909L422.434 114.318ZM420.027 101.729L418.824 98.1166L411.384 97.5693V102.933C417.73 102.057 419.48 101.838 420.027 101.729ZM411.056 97.2409L412.041 92.8622L404.82 95.0515L406.133 99.8681L406.461 105.451L410.947 103.262V97.4598C410.837 97.3503 410.947 97.3503 411.056 97.2409C410.947 97.2409 411.056 97.2409 411.056 97.2409Z" fill="url(#paint7_linear)"/>
<path d="M414.117 126.031C414.117 126.14 414.117 126.14 414.117 126.14C414.117 126.14 414.117 126.14 414.117 126.25L409.851 128.22L401.536 132.161H401.427C401.317 132.161 401.317 132.161 401.317 132.051L398.145 129.643C398.035 129.534 398.035 129.424 398.035 129.315L400.77 121.324L396.613 119.244C396.504 119.244 396.504 119.134 396.504 119.025C396.504 118.915 396.504 118.806 396.613 118.806L401.536 113.661L399.567 110.924C399.567 110.815 399.567 110.815 399.567 110.705C399.567 110.596 399.676 110.596 399.676 110.596L403.834 108.625H403.943L411.163 112.019C411.273 112.019 411.273 112.128 411.273 112.238L411.601 115.412L411.054 118.149L414.117 126.031C414.117 125.921 414.117 125.921 414.117 126.031ZM413.57 125.702L410.398 118.368V118.259L410.945 115.522L410.726 112.785L401.317 121.214L413.57 125.702ZM409.522 127.892L413.351 126.14L400.88 121.652L398.254 129.534L401.208 131.832L409.522 127.892ZM400.77 121.105L410.507 112.347L403.724 109.173L399.786 111.034L401.755 113.88C401.755 113.989 401.755 113.989 401.755 114.099L396.832 119.244L400.77 121.105Z" fill="url(#paint8_linear)"/>
<path d="M367.295 64.5106C367.295 64.6201 367.295 64.7296 367.185 64.7296L354.604 70.7502H354.495C354.495 70.7502 354.057 70.7502 343.993 70.0934H338.96C338.96 70.0934 338.96 70.0934 338.851 70.0934L337.866 67.5757C334.037 67.7946 334.037 67.7946 334.037 67.7946C333.928 67.7946 333.928 67.7946 333.818 67.6852C333.818 67.6852 333.709 67.5757 333.709 67.4662L333.49 63.7444L326.051 62.6497C325.941 62.6497 325.832 62.5402 325.832 62.4308C325.832 62.3213 325.832 62.2118 325.941 62.2118L329.005 60.2414L327.692 56.629C327.692 56.5196 327.692 56.4101 327.692 56.4101C327.692 56.3006 327.801 56.3006 327.911 56.3006C327.911 56.3006 327.911 56.3006 334.256 57.6142C334.256 57.6142 334.256 57.6142 334.365 57.6142L340.273 64.6201L341.695 60.6793C341.695 60.6793 341.695 60.5698 341.805 60.5698L345.415 59.5846L345.962 57.1764C345.962 57.0669 346.071 56.9574 346.181 56.9574L353.948 55.3154C353.948 55.3154 353.948 55.3154 354.057 55.3154L360.074 57.1764L366.529 57.7237C366.529 57.7237 366.529 57.7237 366.529 57.8332L367.295 64.5106ZM366.857 64.4012L365.982 58.3805L355.261 69.8745L366.857 64.4012ZM354.386 70.0934L365.654 58.0521L359.527 57.6142L353.62 55.7533L345.962 57.3953L345.415 59.6941L354.386 70.0934ZM353.839 70.3124L345.196 60.2414L339.179 69.6556H343.883L353.839 70.3124ZM338.851 69.4366L344.758 60.132L341.695 61.0077L340.163 65.2769C340.163 65.3864 340.163 65.3864 340.054 65.3864C339.945 65.3864 339.945 65.3864 339.945 65.2769L333.928 58.0521L328.02 56.7385L329.333 60.3509C329.333 60.4604 329.333 60.4604 329.333 60.4604L326.379 62.3213L333.709 63.416C333.818 63.416 333.818 63.5254 333.818 63.5254L334.037 67.3568L337.866 67.1378C337.866 67.1378 337.975 67.1378 337.975 67.2473L338.851 69.4366Z" fill="url(#paint9_linear)"/>
<path d="M327.802 39.6615C327.802 39.771 327.802 39.771 327.802 39.6615C327.692 39.771 327.692 39.771 327.802 39.6615C327.692 39.771 327.692 39.771 327.802 39.6615C327.692 39.771 327.692 39.771 327.692 39.771L317.737 46.0106L301.108 51.9218L298.701 58.4898L281.525 64.5105L279.775 74.9098L275.29 89.2499C275.29 89.3594 275.18 89.4689 275.071 89.4689C275.071 89.4689 275.071 89.4689 272.883 89.2499C270.695 89.031 266.428 88.5931 257.786 87.6079L244.658 73.1583L236.562 60.1318C236.562 60.0223 236.562 60.0223 236.562 59.9129L239.188 51.1555C239.188 51.1555 239.188 51.0461 239.297 51.0461L243.126 48.6378L245.752 46.9958L244.329 42.7266L240.938 43.1645C236.453 43.7118 236.453 43.7118 236.453 43.7118C236.343 43.7118 236.234 43.6023 236.234 43.4929L234.921 39.3331V39.2237L233.389 37.5817V37.4722L234.702 32.6557L230.764 23.4605L226.06 20.067C208.337 21.1617 208.337 21.1617 208.337 21.1617C208.227 21.1617 208.227 21.1617 208.227 21.0522L204.727 18.0966C204.617 17.9871 204.617 17.8777 204.617 17.7682L205.274 15.6883C205.274 15.6883 205.274 15.6883 205.274 15.5789C205.274 15.5789 205.274 15.5789 205.383 15.5789L217.745 11.7475L222.559 9.5582L221.246 8.79194C221.137 8.68248 221.137 8.68248 221.137 8.57301C221.137 8.46354 221.246 8.35407 221.355 8.35407L234.812 4.19434L247.283 2.33341C258.333 0.691406 258.333 0.691406 258.333 0.691406H277.04L280.65 1.67661L292.684 1.56714C292.684 1.56714 292.794 1.56714 292.794 1.67661L295.638 6.2742L304.39 8.68248C304.39 8.68248 304.39 8.68248 304.499 8.68248L307.672 13.1706L319.378 20.5049C319.487 20.6143 319.487 20.7238 319.487 20.8333L317.846 24.4457L319.925 31.8894L327.692 39.3331C327.692 39.3331 327.692 39.3331 327.692 39.4426C327.802 39.6615 327.802 39.6615 327.802 39.6615ZM317.518 45.6822L326.817 39.8805H287.652L298.373 57.9425L300.67 51.7029C300.67 51.7029 300.67 51.5934 300.78 51.5934L317.518 45.6822ZM288.199 39.3331H326.598L308 27.5107L288.199 39.3331ZM308.219 27.0729L325.942 38.3479L319.597 32.3273C319.597 32.3273 319.597 32.3273 319.597 32.2178L317.627 24.6646V24.5551L319.268 21.0522L307.563 13.7179L304.828 9.99607L308.219 27.0729ZM307.672 26.7445L304.062 9.44874L289.73 15.3599L307.672 26.7445ZM287.542 39.1142L307.453 27.2918L289.402 15.7978L287.542 39.1142ZM289.293 15.0315L303.624 9.12035L295.419 6.71207C295.419 6.71207 295.31 6.71207 295.31 6.60261L292.575 2.00501L280.978 2.11448L289.293 15.0315ZM297.935 58.1614L287.105 39.9899L260.849 54.6585C263.037 54.7679 270.695 55.5342 297.935 58.1614ZM281.197 64.2915L297.498 58.5993C295.31 58.3803 287.652 57.6141 261.505 55.2058L281.197 64.2915ZM287.105 38.8953L288.965 15.6883L273.649 21.2711L287.105 38.8953ZM288.855 15.2505L280.76 2.66181L273.758 20.8333L288.855 15.2505ZM286.558 39.4426L258.88 17.0019L244.658 42.3982C276.602 40.0994 284.589 39.5521 286.558 39.4426ZM260.083 54.4395L286.12 39.8805C254.941 42.0698 246.955 42.7266 244.876 42.8361L260.083 54.4395ZM285.792 38.0195L273.102 21.2711L258.333 1.78607L259.208 16.4546L285.792 38.0195ZM279.228 75.0193L280.869 65.0578L258.114 87.389L274.743 89.2499L279.228 75.0193ZM258.004 86.8417L280.65 64.6199L260.302 55.2058L258.004 86.8417ZM273.211 20.6143L280.431 2.11448L277.149 1.12927H258.551L273.211 20.6143ZM257.457 87.0606L259.755 55.0963C241.813 59.1466 237.765 60.1318 236.781 60.3507L244.658 73.0489L257.457 87.0606ZM259.427 54.6585L244.548 43.2739L245.861 47.3242C245.861 47.4337 245.861 47.4337 245.861 47.5431L239.297 51.5934L236.781 59.9129C253.191 56.0815 258.004 54.9869 259.427 54.6585ZM258.661 16.2357L257.786 1.12927L246.955 2.77127L234.593 4.6322L221.465 8.68248L222.778 9.44874C223.325 9.55821 226.935 10.215 258.661 16.2357ZM244.001 42.5077L258.114 17.3303L234.702 32.8746C234.702 32.8746 234.702 32.8746 234.593 32.8746L233.389 37.4722L234.921 39.2237V39.3331V39.4426L236.124 43.3834L244.001 42.5077C244.001 42.6171 244.001 42.5077 244.001 42.5077ZM234.921 32.2178L257.895 16.8925C241.266 17.3303 237.547 17.4398 236.781 17.4398L234.921 32.2178ZM236.671 16.8925C248.268 16.5641 253.847 16.4546 256.473 16.3451C253.081 15.6883 244.658 14.0463 224.419 10.215L236.671 16.8925ZM234.483 31.9989L236.343 17.5493C229.451 19.3007 227.044 19.8481 226.278 20.067L230.764 23.2415C230.764 23.2415 230.764 23.2415 230.764 23.351L234.483 31.9989ZM235.906 17.1114L223.215 10.215L225.95 19.6291C232.295 17.9871 234.921 17.3303 235.906 17.1114ZM225.403 19.6291L222.559 9.99607L217.526 12.2949L205.93 15.9073C207.462 16.1262 212.056 17.0019 225.403 19.6291ZM208.009 20.9427L224.2 19.8481C222.121 19.4102 217.089 18.5345 205.164 16.2357L204.617 17.9871L208.009 20.9427Z" fill="url(#paint10_linear)"/>
<path d="M323.206 406.922L324.628 414.913L324.3 419.839C324.3 419.839 324.3 419.839 324.3 419.949L311.5 434.617L307.562 444.579L308.218 460.342C308.218 460.451 308.109 460.561 307.999 460.561L300.779 463.516L295.637 472.821L285.025 479.827L279.227 497.67L271.35 514.418C271.35 514.418 271.35 514.528 271.241 514.528C266.537 515.403 265.005 515.732 264.458 515.841L265.99 521.862C265.99 521.972 265.99 522.081 265.771 522.19L258.769 524.27L255.816 529.525L259.645 534.889C259.645 534.998 259.754 535.108 259.645 535.217L256.91 539.705L262.708 553.279C262.708 553.279 262.708 553.279 262.708 553.388L263.036 562.036L281.087 571.341C281.196 571.341 281.306 571.56 281.196 571.669C281.196 571.779 281.087 571.888 280.977 571.888C280.977 571.888 280.978 571.888 266.318 569.918C266.318 569.918 266.318 569.918 266.209 569.918L242.469 550.98L229.56 529.853C226.606 520.877 220.917 503.8 220.479 503.143C219.823 502.158 214.025 481.907 213.806 480.812L204.398 460.561L185.034 451.475L165.014 432.428L148.604 414.475V414.366C148.604 414.366 148.604 414.366 148.604 414.256L152.214 392.91L157.684 381.745L152.542 366.638C152.542 366.638 152.542 366.638 152.542 366.529L152.87 364.011C152.87 363.902 152.98 363.792 153.089 363.792C153.089 363.792 153.089 363.792 154.839 364.011L159.872 351.422C159.872 351.422 159.872 351.313 159.981 351.313L174.86 345.183C174.86 345.183 174.86 345.183 194.989 346.059L215.994 349.999C215.994 349.999 215.994 349.999 216.103 349.999L225.84 359.414L245.86 365.434L257.457 373.973L268.068 381.635L276.273 391.049L297.169 396.851L308.765 403.529C309.203 403.638 311.391 404.076 322.878 406.484C323.097 406.703 323.206 406.813 323.206 406.922C323.206 406.813 323.206 406.813 323.206 406.922C323.206 406.813 323.206 406.813 323.206 406.922ZM324.3 414.913L322.987 407.688L312.047 433.413L323.972 419.73L324.3 414.913ZM311.5 433.304L322.659 407.032L309.093 404.185L311.5 433.304ZM310.953 433.632L308.546 403.966L297.169 397.398L276.82 391.816L310.953 433.632ZM307.233 444.36L310.953 434.946L280.868 454.759L300.779 463.078L307.781 460.232L307.233 444.36C307.233 444.469 307.233 444.36 307.233 444.36ZM310.516 434.179L260.739 401.668L257.785 438.448C298.263 435.164 308.109 434.398 310.516 434.179ZM280.321 454.431L310.406 434.727C270.147 437.901 260.52 438.667 258.222 438.886L280.321 454.431ZM310.078 433.304L276.273 391.816L260.957 401.23L310.078 433.304ZM284.697 478.951L300.232 463.407L280.649 455.197L284.697 478.951ZM295.418 472.711L299.904 464.501L284.916 479.498H285.025L295.418 472.711ZM278.899 497.67L284.588 479.936L264.568 515.622L271.022 514.418L278.899 497.67ZM284.259 479.279L280.102 455.416L249.252 490.883L284.259 479.279ZM264.13 515.294L284.041 479.936L248.923 491.54L264.13 515.294ZM266.318 569.48L279.993 571.341L262.489 562.365L262.38 562.255L262.051 553.717C261.504 553.607 258.66 553.279 243.016 551.09L266.318 569.48ZM228.575 470.522L279.665 454.759L257.457 438.996L228.575 470.522ZM248.376 490.992L279.446 455.306L228.137 471.179L248.376 490.992ZM276.054 391.378L268.068 382.183L257.457 374.629L246.517 366.529L260.739 400.901L276.054 391.378ZM265.443 521.971L264.021 515.951C264.021 515.951 263.911 515.951 263.911 515.841L248.486 491.978L242.141 522.409L255.269 529.306L258.332 524.051C258.332 524.051 258.332 524.051 258.441 523.942L265.443 521.971ZM262.051 553.169L256.363 539.815V539.705L259.098 535.217L255.487 530.072L243.016 550.542C244 550.652 247.939 551.199 262.051 553.169ZM257.238 438.339L260.191 401.668L210.633 432.318C212.821 432.647 221.792 433.741 257.238 438.339ZM259.863 401.011L239.843 379.336L222.23 402.543C251.002 401.339 258.113 401.011 259.863 401.011ZM259.645 399.916L245.751 366.419L239.953 378.789L259.645 399.916ZM210.415 431.88L259.535 401.558C228.028 402.872 222.777 403.2 221.902 403.2L210.415 431.88ZM227.809 470.522L256.91 438.777C255.05 438.558 246.954 437.463 210.305 432.756L227.809 470.522ZM242.797 549.885L255.05 529.853L242.25 523.066L242.797 549.885ZM229.669 529.196L248.048 491.54L214.134 481.031C216.213 488.475 220.261 502.158 220.698 502.815C221.245 503.691 228.466 525.584 229.669 529.196ZM241.703 522.409L247.72 493.291L230.325 528.977L241.703 522.409ZM214.462 480.593L247.392 490.773L227.59 471.398L214.462 480.593ZM239.734 378.461L245.532 365.982L226.278 360.18L239.734 378.461ZM242.25 549.995L241.703 522.957L229.997 529.853L242.25 549.995ZM239.296 378.789L225.731 360.18L199.365 389.407L239.296 378.789ZM221.573 402.543L239.077 379.446L199.256 389.955L221.573 402.543ZM213.915 480.374L227.153 471.069L204.835 460.67L213.915 480.374ZM227.153 470.522L209.977 433.304L204.835 460.123L227.153 470.522ZM176.391 345.621L225.074 359.304L215.885 350.437L194.88 346.496L176.391 345.621ZM198.49 389.517L224.965 360.289L158.887 381.635C161.403 382.183 169.718 383.825 198.49 389.517ZM224.199 359.632L174.969 345.73L155.605 363.902C206.148 360.727 220.261 359.851 224.199 359.632ZM158.012 381.416L223.761 360.18C155.058 364.558 155.058 364.558 155.058 364.558C154.949 364.558 154.949 364.558 154.949 364.558C154.949 364.558 154.839 364.558 154.839 364.449L153.308 364.23L152.98 366.529L158.012 381.416ZM209.868 431.662L221.355 402.981L199.037 390.393L209.868 431.662ZM204.288 460.013L209.539 433.085L185.471 451.147L204.288 460.013ZM209.43 431.99L198.381 390.283L182.299 399.478H182.189H182.08L158.668 382.73L175.954 414.147L209.43 431.99ZM209.102 432.318L176.282 414.694L184.377 437.135C201.991 433.741 207.461 432.647 209.102 432.318ZM185.253 450.599L208.774 432.866C189.191 436.588 185.253 437.463 184.377 437.573L185.253 450.599ZM182.299 398.822L197.834 389.955C195.864 389.517 188.206 387.984 158.997 382.183L182.299 398.822ZM184.706 450.709L183.94 437.573L149.916 415.351L165.232 432.209L184.706 450.709ZM183.721 436.806L175.625 414.475L149.698 414.585L183.721 436.806ZM175.297 413.928L157.793 382.183L152.542 393.02L148.932 414.037L175.297 413.928ZM155.496 363.464L173.984 345.949L160.2 351.641L155.496 363.464Z" fill="url(#paint11_linear)"/>
<path d="M240.392 156.9V157.01L236.453 165.001C236.453 165.11 236.344 165.11 236.234 165.11C236.125 165.11 236.016 165.001 236.016 164.891L234.812 159.856C234.265 159.746 232.077 159.527 224.2 158.433L210.854 156.9C210.744 156.9 210.635 156.791 210.635 156.681C210.635 156.572 210.635 156.462 210.744 156.462C214.792 152.193 218.949 147.705 219.168 147.377C219.496 146.829 221.028 144.859 228.139 136.211C228.248 136.102 228.358 136.102 228.467 136.102C228.576 136.102 228.686 136.32 228.576 136.43L226.935 143.545L228.905 147.486C235.359 147.158 235.359 147.158 235.359 147.158C235.359 147.158 235.469 147.158 235.469 147.267L240.392 156.9ZM239.954 157.01L235.578 148.252L235.25 159.746C235.25 159.746 235.25 159.746 235.25 159.856C235.25 159.856 235.25 159.856 235.25 159.965L236.344 164.563L239.954 157.01ZM234.703 159.199L235.031 147.596L228.686 147.924C228.576 147.924 228.576 147.924 228.576 147.814L226.607 143.874L219.824 147.596L234.703 159.199ZM224.2 158.104L234.265 159.527L219.277 147.924C218.183 149.128 212.713 154.93 211.182 156.681L224.2 158.104ZM226.498 143.436L227.92 137.087C225.076 140.59 221.137 145.297 219.824 147.048L226.498 143.436Z" fill="url(#paint12_linear)"/>
<path d="M201.007 168.285L208.993 163.359C209.102 163.25 209.212 163.359 209.321 163.359C209.431 163.469 209.431 163.578 209.431 163.687L204.836 174.415C204.836 174.415 204.836 174.525 204.726 174.525L185.034 185.581H184.925C184.816 185.581 184.816 185.581 184.706 185.471C184.597 185.362 184.597 185.252 184.706 185.143L193.786 174.415C193.349 174.306 192.364 174.087 190.286 173.649L174.86 182.187L167.093 193.9L165.889 199.921L152.543 206.927L149.589 215.027L145.103 220.172L144.119 239.438V239.548L125.083 259.142L131.975 279.722V279.832L128.037 291.763C128.037 291.873 127.928 291.982 127.818 291.982C127.709 291.982 127.599 291.873 127.599 291.873L117.863 270.308H106.485C95.9828 272.169 92.8102 272.826 91.7162 272.935L95.6546 276.657C95.764 276.767 95.764 276.876 95.764 276.985C95.764 277.095 95.6546 277.095 95.5452 277.095L79.2446 276.985L68.0858 285.743L66.0072 295.595L69.2892 300.63V300.74L65.3508 312.672L72.8994 325.698L82.8548 331.281L90.9504 328.654L95.5452 314.642L95.6546 314.533L103.313 310.592C103.422 310.592 103.531 310.592 103.641 310.592L107.907 314.533C108.017 314.642 108.017 314.751 108.017 314.861L103.75 325.151L105.282 330.843C105.282 330.843 105.282 330.843 105.282 330.953L103.422 337.302C121.145 336.426 121.145 336.426 121.145 336.426H121.254C121.254 336.426 121.254 336.535 121.364 336.535L120.707 359.086L127.709 358.21H127.818L141.603 368.609C141.712 368.719 141.712 368.828 141.712 368.938C141.712 369.047 141.603 369.047 141.493 369.047H141.384L120.379 359.633L103.969 347.154C103.531 347.044 101.672 346.716 92.1538 345.074L80.3386 338.725C79.901 338.725 77.6036 338.506 62.7252 337.521C62.7252 337.521 62.7252 337.521 62.6158 337.521L47.081 328.654C47.081 328.654 47.081 328.654 46.9716 328.544L40.2982 316.393L29.6864 304.243L17.2148 281.364L21.5908 298.003L29.7958 315.627C29.7958 315.737 29.7958 315.846 29.6864 315.956H29.577C29.4676 315.956 29.4676 315.956 29.3582 315.846L15.0268 299.973L2.44578 269.432L0.367188 228.054L8.24397 194.557L12.1824 168.066L21.5908 142.451L43.4708 110.158L74.2122 81.259C74.2122 81.259 74.2122 81.259 74.3216 81.259C74.3216 81.259 74.3216 81.259 81.542 81.6969C81.6514 81.6969 81.6514 81.8064 81.7608 81.8064C81.7608 81.9158 81.7608 82.0253 81.7608 82.0253L78.807 86.185C87.3402 84.4336 89.2 83.9957 89.6376 83.8862L97.5144 76.6614H97.6238L105.61 78.4129L115.237 73.049C115.347 73.049 115.347 73.049 115.456 73.049C115.565 73.049 115.565 73.1585 115.565 73.2679L116.659 78.3034L127.162 66.1526L124.755 63.4159C124.755 63.4159 124.755 63.416 124.755 63.3065C124.755 63.3065 124.755 63.3065 124.755 63.197V63.0876V62.9781L139.524 51.3746L153.855 40.4279C153.965 40.3185 154.074 40.3185 154.184 40.4279L156.153 42.9457L160.201 39.7712C160.201 39.7712 160.201 39.7712 160.31 39.7712C168.953 38.1292 168.953 38.1292 169.062 38.1292C169.171 38.1292 169.171 38.1291 169.171 38.2386L170.375 43.2741L182.956 39.6617C182.956 39.6617 182.956 39.6617 183.065 39.6617C183.175 39.6617 183.284 39.7712 183.284 39.7712L185.144 43.0552C185.472 43.1646 186.347 43.3835 189.082 44.0403L194.771 46.4486L200.241 52.1409C200.241 52.2504 200.35 52.2504 200.35 52.3598C200.35 52.4693 200.241 52.4693 200.241 52.5788L192.692 57.1763L210.087 61.1172C210.196 61.1172 210.196 61.2266 210.306 61.2266C210.306 61.3361 210.306 61.3361 210.306 61.4456L208.008 68.4514C208.008 68.4514 208.008 68.4514 208.008 68.5609L202.976 72.6112C202.976 72.6112 202.867 72.7206 202.757 72.7206C202.648 72.7206 202.648 72.7206 202.538 72.6112L194.662 65.1674L190.176 68.5609L191.708 72.7206L199.038 76.6614L199.147 76.7709L199.366 82.1348V82.2442L196.631 84.762H196.521L187.332 82.4632L193.568 87.6081C193.677 87.7176 193.677 87.827 193.677 87.827C193.677 87.9365 193.568 88.046 193.458 88.046C186.238 88.7028 186.238 88.7028 186.238 88.7028C186.238 88.7028 186.238 88.7028 186.128 88.7028L175.188 86.185C175.079 86.185 174.97 86.0756 174.97 85.9661C174.97 85.8566 174.97 85.7472 175.079 85.7472L178.142 83.3389L169.718 80.2738L160.638 83.4484C160.529 83.4484 160.529 83.4484 160.529 83.4484L157.794 81.259C157.684 81.1496 157.684 81.1496 157.684 81.0401C157.684 80.9306 157.684 80.9306 157.794 80.8212L161.951 78.6318L176.939 72.8301L180.987 64.1822L174.86 58.4899L169.5 52.0314L169.281 53.7829C169.281 53.8924 169.171 54.0018 169.062 54.0018C161.513 54.5492 160.31 54.6586 160.091 54.6586C157.356 55.3154 155.168 55.7533 153.527 56.0817L153.855 57.2858L158.997 59.8036C159.107 59.8036 159.107 59.913 159.107 60.0225C159.107 60.132 159.107 60.2414 158.997 60.2414L154.512 64.839L151.449 72.7206C151.449 72.7206 151.449 72.8301 151.339 72.8301L138.758 76.333L135.148 81.9158C135.148 81.9158 135.148 82.0253 135.039 82.0253C130.225 82.4632 127.709 82.5726 126.287 82.7916L132.304 84.1052C132.413 84.1052 132.522 84.2146 132.522 84.3241C132.522 84.4336 132.522 84.543 132.413 84.543L116.659 93.9572L108.454 103.043L97.7332 116.507L102 120.01C102 120.01 102 120.01 102 120.12L104.297 127.454L111.627 125.812H111.736L121.254 132.489L130.444 130.081C130.444 130.081 130.444 130.081 130.553 130.081H130.663C130.772 130.191 130.772 130.191 130.772 130.3V144.421L138.211 148.143L142.368 129.643V129.534L150.902 121.652L149.917 108.297V108.188L153.855 103.152L153.527 93.0814C153.527 92.972 153.637 92.8625 153.746 92.8625C165.014 90.3448 166.655 89.9069 166.983 89.7974C166.983 89.7974 166.983 89.7974 167.093 89.7974L180.33 94.1761C180.44 94.1761 180.549 94.395 180.44 94.5045L178.033 103.371L187.879 106.217L196.412 93.9572C196.412 93.8477 196.521 93.8477 196.631 93.8477C196.74 93.8477 196.85 93.9572 196.85 93.9572L206.039 109.83L207.571 115.851L221.246 120.448C221.355 120.448 221.355 120.558 221.465 120.667C221.465 120.776 221.465 120.886 221.355 120.886L214.025 126.797C229.123 126.25 229.123 126.25 229.123 126.25H229.232L229.341 126.359V126.469L226.935 135.336C226.935 135.336 226.935 135.445 226.825 135.445L210.634 144.64C210.634 144.64 210.634 144.64 210.525 144.64L200.788 145.844L183.831 150.661L169.39 167.628L191.708 153.617C191.817 153.507 191.927 153.617 192.036 153.617C192.145 153.726 192.145 153.835 192.036 153.945L187.004 161.389L192.255 167.519C192.583 167.519 194.224 167.519 200.569 167.738C200.679 167.738 200.788 167.847 200.788 167.957C201.007 168.066 201.007 168.176 201.007 168.285ZM226.606 135.226L228.794 127.126L211.837 143.546L226.606 135.226ZM210.962 143.765L228.576 126.688L213.588 127.235L210.962 143.765ZM213.369 126.797L220.918 120.667L207.68 115.96L184.925 149.238L213.041 126.907L213.15 126.797C213.369 126.907 213.369 126.797 213.369 126.797ZM210.306 144.312L212.931 127.673L184.706 150.114L200.788 145.516L210.306 144.312ZM207.899 68.2325L210.196 61.3361L192.583 57.2858L182.081 63.9633L190.395 68.123L194.99 64.6201H195.099H195.209L203.195 72.1733L207.899 68.2325ZM204.398 174.087L208.774 164.016L199.694 169.599C199.585 169.599 199.585 169.599 199.475 169.599C199.475 169.599 199.475 169.489 199.475 169.38L200.46 168.285L192.583 168.066L194.333 174.087H204.398ZM207.243 115.413L205.82 109.83L196.85 94.1761L188.535 106.108L207.243 115.413ZM183.94 149.895L207.133 115.96L188.098 106.546C187.988 106.546 187.988 106.436 187.988 106.436L178.252 103.7L183.94 149.895ZM185.363 184.924L203.742 174.634H194.115L185.363 184.924ZM200.241 52.1409L194.88 46.5581L189.192 44.2593L185.581 43.3836L192.474 56.8479L200.241 52.1409ZM199.366 82.0253L199.147 76.8804L191.817 72.8301C191.817 72.8301 191.817 72.8301 191.817 72.7206L190.286 68.7798L179.127 83.2294L179.017 83.3389L175.954 85.7472L186.566 88.2649L193.458 87.6081L186.566 81.9158C186.566 81.9158 186.457 81.8064 186.566 81.6969C186.566 81.5874 186.675 81.5874 186.675 81.5874L196.85 84.2146L199.366 82.0253ZM193.786 174.087L192.145 168.395L176.611 180.655L190.067 173.211H190.176L193.786 174.087ZM192.036 167.847L186.894 161.936L175.517 180.983L192.036 167.847ZM191.927 56.629L185.144 43.3836L170.156 51.1557C171.688 51.5935 176.611 52.7977 191.927 56.629ZM181.424 63.7444L191.708 57.1763C190.286 56.8479 185.581 55.6438 169.937 51.703L175.298 58.1616L181.424 63.7444ZM186.785 161.279L191.489 154.383L170.156 167.847L186.785 161.279ZM177.705 72.5017L189.629 68.2325L181.534 64.1822L177.705 72.5017ZM179.127 82.4632L189.52 68.8893L177.595 73.049L179.127 82.4632ZM174.641 181.421L186.238 162.045L168.624 168.942L174.641 181.421ZM185.034 42.8362L183.393 39.8806L172.125 43.0552C181.534 42.8362 184.269 42.8362 185.034 42.8362ZM169.828 50.8273L184.269 43.3836C174.094 43.6025 171.469 43.6025 170.812 43.6025L169.828 50.8273ZM183.503 150.442L177.814 104.356L158.56 150.442H183.503ZM168.406 168.395L183.284 150.989L155.606 164.563L168.187 168.504L168.406 168.395ZM154.949 164.454L182.628 150.77H158.231C158.013 150.77 156.262 150.551 138.649 148.691L138.102 172.773L154.949 164.454ZM177.923 102.933L180.221 94.2856L167.749 90.2353L177.923 102.933ZM178.58 82.901L177.048 73.1585L162.17 78.8508L158.231 80.9306L160.638 83.0105L169.828 79.836L178.58 82.901ZM177.595 103.262L167.202 90.3448L151.886 120.886L177.595 103.262ZM158.341 149.785L177.376 104.138L151.449 121.762L158.341 149.785ZM174.423 182.078L168.406 169.818L166.108 196.309L166.655 193.791L174.423 182.078ZM170.265 43.1646L169.171 38.567L161.295 52.5788L170.265 43.1646ZM169.281 51.0462L170.156 43.9309L161.076 53.5639L169.281 51.0462ZM169.062 53.4545L169.281 51.5936L161.732 54.0018L169.062 53.4545ZM160.091 53.8923L168.843 38.2386L160.748 39.7712L156.59 42.9457C156.59 43.0551 156.59 43.0551 156.481 43.1646L151.339 47.1054L160.091 53.8923ZM165.342 198.498L167.968 169.051L155.496 165.111L165.342 198.498ZM154.402 102.605L166.546 90.2353L154.074 93.0814L154.402 102.605ZM151.339 120.886L166.218 91.2205L154.512 103.262C154.512 103.262 154.402 103.371 154.293 103.371L150.464 108.188L151.339 120.886ZM165.014 199.045L154.949 165.001L138.211 173.211L165.014 199.045ZM152.105 206.817L165.014 200.03L89.2 177.699L144.556 220.063L148.932 215.137L152.105 206.817C151.996 206.817 151.996 206.817 152.105 206.817ZM89.3094 177.152L164.577 199.264L137.774 173.43C103.094 176.167 92.5914 176.933 89.3094 177.152ZM153.418 55.5343L159.654 54.1113L151.011 47.4338L144.119 55.0965L146.963 56.7385C153.199 55.3154 153.199 55.3154 153.199 55.3154C153.308 55.5344 153.418 55.5343 153.418 55.5343ZM154.293 64.5106L158.669 60.0225L153.746 57.6142L148.714 62.6497L136.898 72.8301L117.535 78.5224L124.864 82.1348L125.193 82.2442L135.039 81.478L138.649 75.8952C138.649 75.8952 138.649 75.8952 138.758 75.7857L151.23 72.3922L154.293 64.5106C154.184 64.6201 154.293 64.6201 154.293 64.5106ZM158.013 150.442L151.12 122.419L138.758 148.362L158.013 150.442ZM156.043 42.9457L154.184 40.5374L140.071 51.2652V51.3746L134.71 63.4159C140.399 62.3213 140.399 62.3213 140.399 62.3213C140.509 62.3213 140.509 62.3213 140.618 62.4308C140.727 62.5402 140.727 62.6497 140.618 62.6497L137.227 71.6259L148.276 62.1024L153.418 57.0669L153.199 55.9722C146.963 57.3953 146.963 57.3953 146.963 57.3953H146.854L143.681 55.5343C143.572 55.5343 143.572 55.4249 143.572 55.3154C143.572 55.206 143.572 55.206 143.681 55.0965L150.902 46.9959L156.043 42.9457ZM138.977 146.72L150.573 122.419L142.806 129.643L138.977 146.72ZM143.353 239.548L144.338 221.157L125.302 258.157L143.353 239.548ZM91.0598 272.497L143.9 220.501C141.712 220.282 130.772 219.297 77.2754 214.48L91.0598 272.497ZM143.681 219.953L88.106 177.48L77.3848 213.933C78.9164 214.152 88.3248 215.027 143.681 219.953ZM124.208 259.142L143.572 221.595L91.6068 272.716L106.157 270.089H117.535L124.208 259.142ZM120.707 359.852L140.18 368.609L127.49 358.976L120.707 359.852ZM136.789 71.7354L140.071 62.9781C136.461 63.6349 135.148 63.8538 134.601 63.9633L136.789 71.7354ZM134.163 63.5254L139.305 51.9219L125.63 62.7592C126.505 62.7592 128.584 62.9781 134.163 63.5254ZM137.664 172.992L138.211 148.909L88.9812 176.823L137.664 172.992ZM88.3248 176.495L137.992 148.362L130.663 144.64H130.553C130.444 144.64 130.444 144.64 130.334 144.531L121.035 132.708L104.297 127.782L88.3248 176.495ZM136.351 72.3922L134.054 63.9633C133.616 63.8538 131.757 63.7444 125.63 63.197L127.818 65.7148C127.818 65.7148 127.818 65.8242 127.818 65.9337L117.316 78.194L136.351 72.3922ZM116.659 93.4098L131.975 84.2146L125.083 82.6821C124.864 82.6821 124.755 82.6821 124.755 82.6821C101.672 83.6673 94.0136 83.9957 91.388 84.1052L116.659 93.4098ZM131.319 279.941L124.536 259.69L118.082 270.308L122.239 279.503L127.599 291.326L131.319 279.941ZM130.334 143.874V130.3L121.473 132.599L130.334 143.874ZM90.5128 83.5578L123.661 82.2442L116.659 78.7413C116.659 78.7413 116.55 78.7413 116.55 78.6318V78.5224C116.55 78.5224 116.55 78.5224 116.55 78.4129C116.55 78.3034 116.55 78.3034 116.55 78.3034L115.456 73.1585L105.829 78.5224H105.719L97.8426 76.6614L90.5128 83.5578ZM120.051 359.523L120.598 337.302L104.078 347.373L120.051 359.523ZM104.844 127.563L120.16 132.052L111.627 126.031L104.844 127.563ZM103.969 346.825L120.051 337.083L102.984 337.849L103.969 346.825ZM108.236 102.715L116.222 93.8477L90.4034 84.3241L97.5144 116.069L108.236 102.715ZM103.094 324.932L107.142 315.08L102.984 311.249L95.6546 315.08L103.094 324.932ZM104.516 331.172L103.094 325.698L92.3726 331.938L80.448 338.834L91.935 345.074L103.422 347.154L102.437 337.849C102.437 337.74 102.437 337.74 102.547 337.63H102.656L104.516 331.172ZM103.86 127.454L101.672 120.229L97.5144 116.836L79.4634 146.282L103.86 127.454ZM87.8872 176.167L103.531 128.22L78.6976 147.267L87.8872 176.167ZM102.766 325.26L95.5452 315.408L91.0598 328.982L92.3726 331.281L102.766 325.26ZM78.6976 146.282L96.9674 116.507L78.4788 101.948L78.6976 146.282ZM96.9674 115.851L89.8564 84.543L78.5882 101.401L96.9674 115.851ZM79.0258 276.767L94.7794 276.985L90.9504 273.264C86.465 274.358 82.4172 275.234 78.807 276.11L79.0258 276.767ZM91.935 331.609L90.6222 329.42L82.5266 331.938H82.4172L73.0088 326.683L80.1198 338.506L91.935 331.609ZM90.6222 272.607L76.8378 214.808L46.7528 255.092L46.6434 255.749L90.6222 272.607ZM78.4788 275.562L90.0752 272.826L46.6434 256.187L43.799 283.444C74.431 276.548 78.0412 275.672 78.4788 275.562ZM78.5882 100.635L89.6376 84.2146L78.807 86.5134L78.5882 100.635ZM87.559 176.933L78.3694 147.815L28.7018 213.276L87.559 176.933ZM76.7284 213.933L87.4496 177.59L28.483 213.933H76.7284ZM78.5882 85.9661L81.542 81.6969L74.978 81.259L78.5882 85.9661ZM79.5728 338.615L72.243 326.464C54.192 328.325 48.9408 328.763 47.4092 328.982L62.397 337.521L79.5728 338.615ZM78.4788 276.985L78.26 276.219C50.0348 282.787 44.6742 283.991 43.6896 284.21L40.4076 315.956L65.132 295.595C65.132 295.595 65.132 295.595 65.2414 295.595L67.32 285.743C67.32 285.743 67.32 285.743 67.32 285.633L78.4788 276.985ZM78.26 86.404L74.978 82.1348L78.1506 98.7737L78.26 86.404ZM78.26 146.939L78.0412 102.386L49.5972 148.8C72.4618 147.377 77.2754 147.049 78.26 146.939ZM78.0412 101.291L74.3216 81.478L44.4554 109.611C71.3678 102.933 76.8378 101.51 78.0412 101.291ZM28.3736 212.838L77.9318 147.486C54.5202 148.909 50.1442 149.238 49.269 149.238L28.3736 212.838ZM49.269 148.253L77.713 101.839C50.5818 108.626 45.1118 109.939 44.0178 110.268L46.3152 126.907L49.269 148.253ZM46.534 254.545L76.4002 214.48H28.0454L46.534 254.545ZM72.1336 325.917L64.6944 313V312.891L68.6328 301.068L65.5696 296.252L47.2998 328.435C66.773 326.464 71.149 326.027 72.1336 325.917ZM46.7528 328.325L64.4756 296.799L40.2982 316.612L46.7528 328.325ZM48.8314 148.909L45.8776 127.563L13.3858 167.19L48.8314 148.909ZM27.4984 213.714L48.3938 150.114L8.79097 194.338L27.4984 213.714ZM8.68159 193.791L47.9562 149.895L12.5106 168.176L8.68159 193.791ZM46.2058 255.968L46.3152 255.421C31.1086 258.157 27.389 258.814 26.4044 258.923L40.0794 315.08L43.252 283.991L46.2058 255.968ZM46.0964 254.873L27.8266 215.356L26.295 258.376C41.1734 255.749 45.1118 254.983 46.0964 254.873ZM45.7682 126.797L43.5802 110.596L22.466 141.685L45.7682 126.797ZM12.9482 166.862L44.7836 128.001L21.919 142.56H21.8096L12.9482 166.862ZM39.6418 315.846L25.9668 259.471L16.3396 279.832L16.449 280.051L29.577 304.352L39.6418 315.846ZM28.5924 315.08L20.825 298.331L16.1208 280.269L15.902 279.941L3.10219 270.089L15.2456 299.864L28.5924 315.08ZM25.748 257.938L27.2796 214.589L0.914187 227.944L25.748 257.938ZM27.1702 214.152L8.46278 194.885L0.695374 227.507L27.1702 214.152ZM25.6386 258.595L0.804781 228.492L2.88337 268.994L25.6386 258.595ZM16.0114 279.284L25.4198 259.142L3.10219 269.323L16.0114 279.284Z" fill="url(#paint13_linear)"/>
<path d="M226.826 4.41318C226.826 4.52264 226.826 4.63211 226.717 4.74158L215.23 9.66758L208.994 12.2948L204.837 13.28L199.367 16.8924L191.818 21.1616L190.068 24.555C189.959 24.6645 189.959 24.6645 189.849 24.6645L183.176 24.774C174.643 25.2119 174.643 25.2119 174.643 25.2119C174.533 25.2119 174.424 25.1024 174.424 24.9929C174.424 24.8835 174.424 24.774 174.533 24.6645L178.034 23.132L179.566 21.5994H179.675L183.066 21.7089L185.692 20.6143L182.191 20.3953C182.082 20.3953 181.972 20.2859 181.972 20.1764C181.972 20.0669 181.972 19.9574 182.191 19.848L191.053 16.6734L193.131 13.4989C193.131 13.4989 193.131 13.3894 193.241 13.3894L198.273 12.0758L196.085 11.5285C195.976 11.5285 195.866 11.419 195.866 11.3096C195.866 11.2001 195.976 11.0906 196.085 11.0906L204.728 8.90131C209.322 7.80664 212.057 7.04038 213.698 6.71198C215.339 6.27411 215.886 6.16464 215.996 6.16464C216.105 6.16464 216.105 6.16464 216.105 6.16464C226.608 4.30371 226.717 4.30371 226.717 4.30371C226.717 4.30371 226.826 4.30371 226.826 4.41318ZM215.121 9.33918L225.514 4.85104L216.324 6.49305L216.215 6.60251L206.15 12.5137L208.994 11.8569L215.121 9.33918ZM204.728 12.8421L214.683 6.93091L204.728 9.44864L196.523 11.5285L198.929 12.1853H199.148C199.148 12.1853 199.148 12.1853 199.258 12.1853C199.367 12.1853 199.367 12.1853 199.476 12.2948L204.728 12.8421ZM199.258 16.564L204.29 13.1705C203.634 13.061 202.321 12.9516 199.258 12.5137L192.584 20.2859L199.258 16.564ZM191.6 20.7237L198.601 12.6232L193.35 13.9368L191.162 17.1113C191.162 17.1113 191.162 17.1113 191.053 17.1113L182.848 20.0669L186.458 20.2859L186.677 20.1764C186.677 20.1764 186.677 20.1764 186.786 20.1764L191.6 20.7237ZM189.74 24.3361L191.381 21.2711C190.943 21.2711 189.74 21.1616 186.677 20.8332H186.458L183.066 22.3657C183.066 22.3657 183.066 22.3657 182.957 22.3657L179.675 22.2563L178.143 23.7888L175.299 24.9929L183.066 24.555L189.74 24.3361Z" fill="url(#paint14_linear)"/>
<path d="M205.274 150.113C205.274 150.223 205.274 150.332 205.164 150.442L201.773 153.178L201.663 153.288C201.663 153.288 201.663 153.288 201.554 153.288L196.303 151.427C196.193 151.427 196.084 151.318 196.084 151.208C196.084 151.099 196.193 150.989 196.303 150.989C204.945 150.113 204.945 150.113 204.945 150.113C205.055 149.895 205.164 150.004 205.274 150.113ZM201.554 152.741L204.508 150.332L196.959 151.099L201.554 152.741Z" fill="url(#paint15_linear)"/>
<path d="M192.035 12.6234C192.145 12.7328 192.145 12.8423 192.035 12.9518L189.957 16.0168C189.957 16.0168 189.957 16.0168 189.847 16.1263L179.564 19.4103C179.564 19.4103 179.564 19.4103 179.454 19.4103H174.312C174.203 19.4103 174.094 19.3008 174.094 19.1913C174.094 19.0819 174.094 18.9724 174.312 18.8629L184.596 15.0316L191.817 12.6234C191.817 12.5139 192.035 12.5139 192.035 12.6234ZM189.629 15.7979L191.488 13.0612L184.596 15.36L174.969 18.9724H179.345L189.629 15.7979Z" fill="url(#paint16_linear)"/>
<path d="M189.192 334.127C189.192 334.236 189.192 334.346 189.082 334.455L182.19 338.287H182.081C181.971 338.287 181.862 338.287 181.862 338.177L179.674 334.346C179.674 334.236 179.674 334.127 179.674 334.127C179.674 334.018 179.783 334.018 179.893 334.018H188.973C189.082 333.908 189.192 334.018 189.192 334.127ZM182.081 337.849L188.426 334.346H180.111L182.081 337.849Z" fill="url(#paint17_linear)"/>
<path d="M183.721 29.0434C183.721 29.1528 183.721 29.2623 183.612 29.2623L175.188 33.641C157.027 36.706 157.027 36.706 156.918 36.706C156.809 36.706 156.809 36.706 156.699 36.5966C156.699 36.5966 156.699 36.5966 156.699 36.4871V36.3776L161.075 31.4516L158.668 30.2475C158.559 30.138 158.559 30.138 158.559 30.0286C158.559 29.9191 158.668 29.8096 158.778 29.8096L163.81 28.2771L168.405 28.496C168.514 28.496 168.624 28.6055 168.624 28.6055C168.624 28.715 168.624 28.8244 168.624 28.8244L166.873 30.9043L178.251 27.4014C178.251 27.4014 178.251 27.4014 178.36 27.4014C178.579 27.5108 179.454 27.6203 183.721 28.715C183.612 28.8244 183.721 28.9339 183.721 29.0434ZM175.516 32.9842L183.065 29.0434L178.36 27.8392L175.516 32.9842ZM174.86 33.2031L177.704 28.0582L166.655 31.4516L174.86 33.2031ZM158.012 36.1587L173.984 33.5315C172.89 33.3126 170.593 32.7652 165.889 31.78L158.012 36.1587ZM165.998 31.2327L167.967 28.8244L163.701 28.6055L158.997 30.0286L161.403 31.2327L161.513 31.3422V31.4516L157.684 35.7208L165.779 31.2327H165.998Z" fill="url(#paint18_linear)"/>
<path d="M174.97 332.704C174.97 332.814 174.97 332.923 174.97 332.923C174.97 332.923 174.86 333.032 174.751 333.032C174.751 333.032 174.751 333.032 160.201 331.172L156.262 335.112C156.262 335.222 156.153 335.222 156.044 335.222C155.934 335.222 155.934 335.222 155.825 335.112L153.418 332.704L146.307 329.639C146.198 329.639 146.088 329.42 146.198 329.311C146.198 329.201 146.307 329.092 146.416 329.092C146.416 329.092 146.416 329.092 154.621 329.53L153.09 323.18C153.09 323.071 153.09 322.962 153.199 322.852C153.309 322.852 153.418 322.852 153.527 322.962L160.091 330.515L173.11 327.45C173.11 327.45 173.11 327.45 173.219 327.45C173.329 327.45 173.438 327.559 173.438 327.669L174.97 332.704ZM174.532 332.595L173.11 327.997L160.857 330.953L174.532 332.595ZM159.873 330.843L153.637 323.728L155.059 329.967V330.077H154.95L147.182 329.639L153.637 332.485L155.934 334.893L159.763 331.062C159.873 330.953 159.873 330.953 159.873 330.843C159.873 330.953 159.873 330.953 159.873 330.843Z" fill="url(#paint19_linear)"/>
<path d="M173.546 62.2116C173.656 62.3211 173.765 62.54 171.468 69.5459C171.468 69.6554 171.358 69.6554 171.249 69.6554C171.139 69.6554 171.139 69.6554 171.03 69.5459L168.951 67.466C168.951 67.466 168.951 67.466 168.951 67.3566L167.967 64.0725C167.967 63.9631 167.967 63.8536 168.076 63.7441C169.17 63.3063 172.89 61.9927 173.218 61.9927C173.327 62.1021 173.546 62.2116 173.546 62.2116ZM171.139 69.327C171.905 66.9187 173.109 63.4157 173.218 62.6495C172.562 62.8684 170.155 63.7441 168.404 64.2915L169.28 67.3566L171.139 69.327Z" fill="url(#paint20_linear)"/>
<path d="M167.203 21.4901C167.312 21.5995 167.312 21.709 167.203 21.8185L165.89 25.212C165.89 25.3214 165.781 25.3214 165.671 25.3214C159.326 26.1972 159.326 26.1972 159.326 26.1972C159.217 26.1972 159.107 26.0877 159.107 25.9782C159.107 25.8688 159.107 25.7593 159.217 25.6498L161.624 24.5552H160.42C160.311 24.5552 160.201 24.4457 160.201 24.3362C160.201 24.2268 160.201 24.1173 160.311 24.0078L166.984 21.3806C166.984 21.3806 167.094 21.3806 167.203 21.4901ZM165.453 24.993L166.656 21.928L160.967 24.2268H162.718C162.718 24.2268 162.827 24.2268 162.827 24.3362C162.827 24.4457 162.827 24.4457 162.718 24.4457L159.983 25.6498L165.453 24.993Z" fill="url(#paint21_linear)"/>
<path d="M156.153 31.0135C156.263 31.123 156.153 31.2325 156.044 31.3419L151.012 35.6111L147.948 37.9099L142.697 39.8803C142.697 39.8803 142.697 39.8803 142.588 39.8803C142.478 39.8803 142.369 39.7709 142.369 39.7709C142.369 39.6614 142.369 39.5519 142.479 39.4425L146.089 36.7058C143.354 36.8153 143.354 36.8153 143.354 36.8153C143.244 36.8153 143.135 36.7058 143.135 36.5963C143.135 36.4869 143.135 36.3774 143.244 36.2679L148.167 33.5313C148.277 33.5313 148.386 33.5313 148.386 33.5313C148.496 33.5313 148.495 33.6407 148.495 33.7502L148.605 34.6259L150.793 32.3271C150.793 32.3271 150.793 32.3271 150.902 32.3271L155.935 30.9041C156.044 30.9041 156.153 30.9041 156.153 31.0135ZM150.793 35.2827L155.388 31.4514L151.121 32.6555L148.605 35.2827C148.605 35.2827 148.495 35.3922 148.495 35.2827L148.386 35.1733L148.167 33.9691L143.901 36.2679L146.964 36.1585C147.073 36.1585 147.073 36.1585 147.073 36.2679V36.3774L143.573 39.0046L147.839 37.3626L150.793 35.2827Z" fill="url(#paint22_linear)"/>
<path d="M152.214 92.8622C152.323 92.9717 152.323 93.0812 152.214 93.1906L148.823 96.9125C148.713 97.022 148.713 97.022 148.604 97.022C148.494 97.022 148.494 97.022 148.385 96.9125L147.182 95.4894C147.072 95.38 147.072 95.38 147.072 95.2705C147.072 95.161 147.182 95.161 147.182 95.0516L151.776 92.6433C151.995 92.7528 152.105 92.8622 152.214 92.8622ZM148.604 96.5841L151.339 93.519L147.51 95.4894L148.604 96.5841Z" fill="url(#paint23_linear)"/>
<path d="M149.369 321.1C149.369 321.21 149.479 321.319 149.369 321.429C149.369 321.538 149.26 321.538 149.15 321.538C149.15 321.538 149.15 321.538 137.992 320.224C137.882 320.224 137.773 320.115 137.773 320.006L135.913 309.825L126.614 305.665C115.236 308.074 115.236 308.074 115.236 308.074C115.127 308.074 115.018 307.964 115.018 307.964C115.018 307.855 115.018 307.745 115.127 307.636L124.098 302.381H124.207L137.335 304.79C137.335 304.79 137.445 304.79 137.445 304.899L149.369 321.1ZM148.822 320.991L137.445 305.446L136.46 309.716C136.46 309.716 136.46 309.825 136.351 309.825L138.21 319.787L148.822 320.991ZM136.022 309.387L137.007 305.009L124.317 302.6L116.112 307.417L126.833 305.227L136.022 309.387Z" fill="url(#paint24_linear)"/>
<path d="M148.604 87.8268C148.604 87.9363 148.604 88.0458 148.604 88.0458C148.604 88.1552 148.494 88.1552 148.385 88.1552L140.508 88.812L133.288 93.6286H133.178H133.069C132.959 93.6286 132.959 93.5191 132.959 93.4096L133.178 91.6582L131.209 90.7824C131.1 90.7824 131.1 90.673 131.1 90.5635C131.1 90.454 131.1 90.3446 131.1 90.3446L139.961 80.1641C140.07 80.0547 140.18 80.0547 140.289 80.0547L145.869 82.7914C145.869 82.7914 145.869 82.7913 145.978 82.9008L148.604 87.8268ZM148.166 87.8268L145.65 83.2292L140.18 80.602L131.537 90.5635L133.397 91.4392L133.506 91.5487L133.288 93.3002L140.399 88.5931C140.399 88.5931 140.399 88.5931 140.508 88.5931L148.166 87.8268Z" fill="url(#paint25_linear)"/>
<path d="M144.666 91.5487C144.775 91.6582 144.666 91.7676 144.666 91.8771L140.946 96.4747C140.946 96.5842 140.837 96.5842 140.727 96.5842C140.727 96.5842 140.727 96.5842 137.008 96.3653C136.898 96.3653 136.789 96.2558 136.789 96.2558C136.789 96.1463 136.789 96.0369 136.789 96.0369L139.633 92.4244C139.633 92.4244 139.633 92.4244 139.743 92.4244C144.447 91.6582 144.447 91.6582 144.447 91.6582C144.556 91.4392 144.556 91.4392 144.666 91.5487ZM140.618 96.1463L144.009 91.8771L139.852 92.5339L137.227 95.9274L140.618 96.1463Z" fill="url(#paint26_linear)"/>
<path d="M141.166 44.0404C141.275 44.1498 141.166 44.2593 141.166 44.3688L135.258 49.6232L134.383 50.4989L129.788 55.3154C129.788 55.3154 129.788 55.3154 129.679 55.3154C125.631 55.6438 125.631 55.6438 125.631 55.6438H125.521L125.412 55.5344V55.4249L125.85 51.4841C125.85 51.3746 125.959 51.2652 126.068 51.2652L131.21 49.1853L131.538 46.777C131.538 46.6676 131.648 46.6676 131.648 46.6676L140.947 44.0404C140.947 44.0404 140.947 44.0404 141.056 44.0404C141.056 43.9309 141.166 43.9309 141.166 44.0404ZM134.93 49.2948L140.4 44.4782L131.976 46.8865L134.273 50.061L134.93 49.2948ZM133.726 50.28L131.648 47.3244L131.32 49.4042C131.32 49.5137 131.32 49.5137 131.21 49.5137L126.068 51.5936L125.631 54.987L133.726 50.28ZM129.46 54.987L133.07 51.2652L126.506 55.206L129.46 54.987Z" fill="url(#paint27_linear)"/>
<path d="M140.51 35.5017C140.619 35.6112 140.51 35.7206 140.51 35.8301L134.602 41.4129L127.163 44.478H127.053L125.85 45.0253L117.645 48.9661H117.536C117.426 48.9661 117.317 48.9661 117.317 48.8567C117.207 48.7472 117.317 48.6377 117.426 48.5282L122.568 44.9158L117.973 46.12C117.973 46.12 117.973 46.12 117.864 46.12C117.754 46.12 117.645 46.0105 117.645 45.901C117.645 45.7916 117.645 45.6821 117.754 45.5727L128.804 38.6762H128.913L137.337 34.626C137.446 34.626 137.556 34.626 137.665 34.7354C137.775 34.8449 137.665 34.9544 137.556 35.0638L132.742 38.6762L140.181 35.5017C140.291 35.3922 140.4 35.3922 140.51 35.5017ZM134.274 41.0845L139.634 36.049L130.992 39.7709C130.882 39.7709 130.882 39.7709 130.773 39.6614C130.773 39.552 130.773 39.552 130.773 39.4425L136.243 35.2828L129.023 38.6762C129.023 38.6762 129.023 38.6762 129.023 38.7857L127.272 43.7117L134.274 41.0845ZM126.616 44.259L128.366 39.4425L118.63 45.5727L123.771 44.259C123.771 44.259 123.881 44.259 123.881 44.3685C123.881 44.478 123.881 44.478 123.881 44.5874L118.958 47.9809L125.631 44.8064L126.616 44.259Z" fill="url(#paint28_linear)"/>
<path d="M137.445 329.857C137.554 329.857 137.554 329.967 137.554 330.076C137.554 330.186 137.445 330.295 137.445 330.295L132.412 332.375C132.412 332.375 132.412 332.375 132.303 332.375H132.193C132.084 332.375 132.084 332.266 132.084 332.156V326.245C132.084 326.136 132.084 326.026 132.193 326.026C132.303 326.026 132.412 326.026 132.412 326.026L137.445 329.857ZM132.412 331.937L137.007 329.967L132.412 326.464V331.937Z" fill="url(#paint29_linear)"/>
<path d="M122.568 65.0579C122.677 65.1674 122.677 65.1674 122.677 65.2769L121.036 71.6259C121.036 71.7354 120.927 71.8449 120.817 71.8449C120.708 71.8449 120.708 71.8449 120.598 71.7354L117.316 68.123C117.316 68.0135 117.207 68.0135 117.207 67.9041C117.207 67.7946 117.316 67.7946 117.316 67.6851L122.239 64.9485C122.349 65.058 122.458 65.0579 122.568 65.0579ZM120.598 71.407L122.13 65.6053L117.645 68.123L120.598 71.407Z" fill="url(#paint30_linear)"/>
<path d="M120.378 52.3595C120.487 52.469 120.487 52.5784 120.378 52.6879L113.048 62.2115L115.127 66.4807C115.127 66.5902 115.127 66.6996 115.017 66.8091L110.204 70.4215L102.874 74.1434H102.764C102.655 74.1434 102.655 74.1434 102.546 74.0339L101.123 72.2824L94.997 76.7706L84.9322 81.2587H84.8228C84.7134 81.2587 84.7134 81.2587 84.604 81.1492C84.4946 81.0398 84.4946 80.9303 84.4946 80.8208L85.4792 78.522L82.7442 77.5368C82.6348 77.5368 82.6348 77.4274 82.6348 77.3179C82.6348 77.2084 82.7442 77.099 82.7442 77.099L94.7782 71.1878C89.0894 71.8446 89.0894 71.8446 89.0894 71.8446C88.98 71.8446 88.8706 71.7351 88.8706 71.7351C88.8706 71.6256 88.8706 71.5162 88.8706 71.4067L92.262 67.5754L84.057 73.596H83.9476C83.9476 73.596 83.8382 73.596 83.8382 73.4866C83.7288 73.3771 83.7288 73.2676 83.7288 73.1582L85.9168 68.889L95.9816 61.1168L104.952 54.2204L110.313 52.469C110.422 52.469 110.532 52.469 110.641 52.5784C110.751 52.6879 110.751 52.7974 110.641 52.9068L105.937 58.3802L112.173 56.5192C112.173 56.5192 112.173 56.5192 112.282 56.5192C112.392 56.5192 112.392 56.5192 112.501 56.6287C112.611 56.7382 112.611 56.8476 112.611 56.8476L111.845 59.037L119.94 51.9216C120.159 52.25 120.269 52.25 120.378 52.3595ZM112.939 61.8831L119.393 53.4542L111.517 60.2411H111.407C111.407 60.2411 111.298 60.1316 111.407 60.1316L112.392 57.2855L106.156 59.1464L112.939 61.8831ZM114.799 66.5902L112.829 62.4304L105.937 59.6938L110.422 69.9836L114.799 66.5902ZM105.609 58.7086L110.204 53.3447L105.499 54.8772L105.609 58.7086ZM102.874 73.815L109.766 70.312L96.8568 62.4304L101.452 72.0635C101.452 72.0635 101.452 72.0635 101.452 72.173L102.874 73.815ZM109.657 69.5458L105.281 59.4748L96.9662 61.6642L109.657 69.5458ZM105.062 59.037L104.952 55.0962L97.0756 61.1168L105.062 59.037ZM100.795 71.7351L96.5286 62.8683L96.638 70.8594L100.795 71.7351ZM94.7782 76.5516L100.686 72.173C100.139 72.0635 98.9354 71.7351 96.3098 71.1878C96.2004 71.1878 96.091 71.1878 95.9816 71.1878L83.1818 77.4274L85.8074 78.4126C85.8074 78.4126 85.8074 78.4126 85.9168 78.522V78.6315L85.0416 80.8208L94.7782 76.5516ZM96.091 70.8594L95.9816 61.9926L86.245 69.4363L84.2758 73.1582L93.7936 66.1523C93.903 66.1523 93.903 66.1523 94.0124 66.1523C94.0124 66.2618 94.0124 66.2618 94.0124 66.3712L89.4176 71.7351L95.8722 70.9688L96.091 70.8594Z" fill="url(#paint31_linear)"/>
<defs>
<linearGradient id="paint0_linear" x1="396.273" y1="285.171" x2="571.785" y2="285.171" gradientUnits="userSpaceOnUse">
<stop stop-color="#35FFFE"/>
<stop offset="1" stop-color="#257AB4"/>
</linearGradient>
<linearGradient id="paint1_linear" x1="549.416" y1="252.769" x2="553.978" y2="252.769" gradientUnits="userSpaceOnUse">
<stop stop-color="#35FFFE"/>
<stop offset="1" stop-color="#257AB4"/>
</linearGradient>
<linearGradient id="paint2_linear" x1="533.734" y1="243.389" x2="540.995" y2="243.389" gradientUnits="userSpaceOnUse">
<stop stop-color="#35FFFE"/>
<stop offset="1" stop-color="#257AB4"/>
</linearGradient>
<linearGradient id="paint3_linear" x1="472.034" y1="484.877" x2="513.845" y2="484.877" gradientUnits="userSpaceOnUse">
<stop stop-color="#35FFFE"/>
<stop offset="1" stop-color="#257AB4"/>
</linearGradient>
<linearGradient id="paint4_linear" x1="487.46" y1="204.77" x2="494.933" y2="204.77" gradientUnits="userSpaceOnUse">
<stop stop-color="#35FFFE"/>
<stop offset="1" stop-color="#257AB4"/>
</linearGradient>
<linearGradient id="paint5_linear" x1="486.561" y1="192.289" x2="490.171" y2="192.289" gradientUnits="userSpaceOnUse">
<stop stop-color="#35FFFE"/>
<stop offset="1" stop-color="#257AB4"/>
</linearGradient>
<linearGradient id="paint6_linear" x1="467.38" y1="205.223" x2="475.001" y2="205.223" gradientUnits="userSpaceOnUse">
<stop stop-color="#35FFFE"/>
<stop offset="1" stop-color="#257AB4"/>
</linearGradient>
<linearGradient id="paint7_linear" x1="404.374" y1="116.963" x2="450.649" y2="116.963" gradientUnits="userSpaceOnUse">
<stop stop-color="#35FFFE"/>
<stop offset="1" stop-color="#257AB4"/>
</linearGradient>
<linearGradient id="paint8_linear" x1="396.26" y1="120.487" x2="414.128" y2="120.487" gradientUnits="userSpaceOnUse">
<stop stop-color="#35FFFE"/>
<stop offset="1" stop-color="#257AB4"/>
</linearGradient>
<linearGradient id="paint9_linear" x1="325.64" y1="63.0311" x2="367.263" y2="63.0311" gradientUnits="userSpaceOnUse">
<stop stop-color="#35FFFE"/>
<stop offset="1" stop-color="#257AB4"/>
</linearGradient>
<linearGradient id="paint10_linear" x1="204.189" y1="45.2043" x2="327.785" y2="45.2043" gradientUnits="userSpaceOnUse">
<stop stop-color="#35FFFE"/>
<stop offset="1" stop-color="#257AB4"/>
</linearGradient>
<linearGradient id="paint11_linear" x1="148.516" y1="458.545" x2="324.65" y2="458.545" gradientUnits="userSpaceOnUse">
<stop stop-color="#35FFFE"/>
<stop offset="1" stop-color="#257AB4"/>
</linearGradient>
<linearGradient id="paint12_linear" x1="210.609" y1="150.726" x2="240.364" y2="150.726" gradientUnits="userSpaceOnUse">
<stop stop-color="#35FFFE"/>
<stop offset="1" stop-color="#257AB4"/>
</linearGradient>
<linearGradient id="paint13_linear" x1="0.301547" y1="203.614" x2="229.379" y2="203.614" gradientUnits="userSpaceOnUse">
<stop stop-color="#35FFFE"/>
<stop offset="1" stop-color="#257AB4"/>
</linearGradient>
<linearGradient id="paint14_linear" x1="174.393" y1="14.8108" x2="226.879" y2="14.8108" gradientUnits="userSpaceOnUse">
<stop stop-color="#35FFFE"/>
<stop offset="1" stop-color="#257AB4"/>
</linearGradient>
<linearGradient id="paint15_linear" x1="196.094" y1="151.529" x2="205.249" y2="151.529" gradientUnits="userSpaceOnUse">
<stop stop-color="#35FFFE"/>
<stop offset="1" stop-color="#257AB4"/>
</linearGradient>
<linearGradient id="paint16_linear" x1="174.082" y1="15.9213" x2="192.108" y2="15.9213" gradientUnits="userSpaceOnUse">
<stop stop-color="#35FFFE"/>
<stop offset="1" stop-color="#257AB4"/>
</linearGradient>
<linearGradient id="paint17_linear" x1="179.586" y1="336.134" x2="189.212" y2="336.134" gradientUnits="userSpaceOnUse">
<stop stop-color="#35FFFE"/>
<stop offset="1" stop-color="#257AB4"/>
</linearGradient>
<linearGradient id="paint18_linear" x1="156.59" y1="32.1122" x2="183.733" y2="32.1122" gradientUnits="userSpaceOnUse">
<stop stop-color="#35FFFE"/>
<stop offset="1" stop-color="#257AB4"/>
</linearGradient>
<linearGradient id="paint19_linear" x1="146.215" y1="329.134" x2="175.007" y2="329.134" gradientUnits="userSpaceOnUse">
<stop stop-color="#35FFFE"/>
<stop offset="1" stop-color="#257AB4"/>
</linearGradient>
<linearGradient id="paint20_linear" x1="167.998" y1="65.981" x2="173.599" y2="65.981" gradientUnits="userSpaceOnUse">
<stop stop-color="#35FFFE"/>
<stop offset="1" stop-color="#257AB4"/>
</linearGradient>
<linearGradient id="paint21_linear" x1="158.967" y1="23.7936" x2="167.226" y2="23.7936" gradientUnits="userSpaceOnUse">
<stop stop-color="#35FFFE"/>
<stop offset="1" stop-color="#257AB4"/>
</linearGradient>
<linearGradient id="paint22_linear" x1="142.387" y1="35.3801" x2="156.21" y2="35.3801" gradientUnits="userSpaceOnUse">
<stop stop-color="#35FFFE"/>
<stop offset="1" stop-color="#257AB4"/>
</linearGradient>
<linearGradient id="paint23_linear" x1="147.091" y1="94.9476" x2="152.226" y2="94.9476" gradientUnits="userSpaceOnUse">
<stop stop-color="#35FFFE"/>
<stop offset="1" stop-color="#257AB4"/>
</linearGradient>
<linearGradient id="paint24_linear" x1="115.038" y1="311.868" x2="149.438" y2="311.868" gradientUnits="userSpaceOnUse">
<stop stop-color="#35FFFE"/>
<stop offset="1" stop-color="#257AB4"/>
</linearGradient>
<linearGradient id="paint25_linear" x1="131.015" y1="86.9673" x2="148.669" y2="86.9673" gradientUnits="userSpaceOnUse">
<stop stop-color="#35FFFE"/>
<stop offset="1" stop-color="#257AB4"/>
</linearGradient>
<linearGradient id="paint26_linear" x1="136.749" y1="93.9717" x2="144.679" y2="93.9717" gradientUnits="userSpaceOnUse">
<stop stop-color="#35FFFE"/>
<stop offset="1" stop-color="#257AB4"/>
</linearGradient>
<linearGradient id="paint27_linear" x1="125.292" y1="49.813" x2="141.225" y2="49.813" gradientUnits="userSpaceOnUse">
<stop stop-color="#35FFFE"/>
<stop offset="1" stop-color="#257AB4"/>
</linearGradient>
<linearGradient id="paint28_linear" x1="117.035" y1="41.7991" x2="140.518" y2="41.7991" gradientUnits="userSpaceOnUse">
<stop stop-color="#35FFFE"/>
<stop offset="1" stop-color="#257AB4"/>
</linearGradient>
<linearGradient id="paint29_linear" x1="132.007" y1="329.18" x2="137.523" y2="329.18" gradientUnits="userSpaceOnUse">
<stop stop-color="#35FFFE"/>
<stop offset="1" stop-color="#257AB4"/>
</linearGradient>
<linearGradient id="paint30_linear" x1="117.171" y1="68.4869" x2="122.607" y2="68.4869" gradientUnits="userSpaceOnUse">
<stop stop-color="#35FFFE"/>
<stop offset="1" stop-color="#257AB4"/>
</linearGradient>
<linearGradient id="paint31_linear" x1="82.6785" y1="66.8505" x2="120.487" y2="66.8505" gradientUnits="userSpaceOnUse">
<stop stop-color="#35FFFE"/>
<stop offset="1" stop-color="#257AB4"/>
</linearGradient>
</defs>
</svg>
