<svg xmlns="http://www.w3.org/2000/svg" fill="none" viewBox="0 0 30 30"><path fill="#5FBE3F" d="M15 6.449a5.576 5.576 0 0 0-5.57 5.57A5.576 5.576 0 0 0 15 17.587a5.576 5.576 0 0 0 5.569-5.57 5.576 5.576 0 0 0-5.57-5.569zm0 8.794a3.228 3.228 0 0 1-3.225-3.225 3.228 3.228 0 0 1 3.224-3.224 3.228 3.228 0 0 1 3.225 3.224 3.228 3.228 0 0 1-3.225 3.225z"/><path fill="#5FBE3F" d="M14.999 0C8.372 0 2.98 5.391 2.98 12.018v.333c0 3.351 1.922 7.257 5.712 11.608 2.747 3.154 5.456 5.354 5.57 5.446l.737.595.737-.595c.114-.093 2.823-2.292 5.57-5.446 3.79-4.351 5.711-8.257 5.711-11.608v-.333C27.017 5.391 21.626 0 15 0zm9.673 12.35c0 5.665-7.298 12.521-9.673 14.602-2.376-2.082-9.673-8.938-9.673-14.601v-.333c0-5.333 4.339-9.673 9.673-9.673s9.673 4.34 9.673 9.673v.333z"/></svg>