<svg xmlns="http://www.w3.org/2000/svg" fill="none" viewBox="0 0 501 368"><path fill="#EBEBEB" d="M500.926 328.066H0v.251h500.926v-.251zM85.738 337.604H52.557v.25h33.181v-.25zM180.163 334.889h-43.581v.25h43.581v-.25zM120.552 342.783H81.73v.251h38.822v-.251zM450.733 345.228h-43.27v.25h43.27v-.25zM398.536 345.228h-18.835v.25h18.835v-.25zM275.509 341h-36.628v.251h36.628V341zM237.439 283.384H43.992a5.724 5.724 0 0 1-5.71-5.721V5.721A5.73 5.73 0 0 1 43.991 0h193.447a5.733 5.733 0 0 1 5.731 5.72v271.943a5.735 5.735 0 0 1-1.679 4.049 5.725 5.725 0 0 1-4.052 1.672zM43.992.26a5.47 5.47 0 0 0-5.46 5.46v271.943a5.472 5.472 0 0 0 5.46 5.47h193.447a5.478 5.478 0 0 0 5.47-5.47V5.721a5.478 5.478 0 0 0-5.47-5.46H43.992zM454.149 283.384H260.691a5.734 5.734 0 0 1-5.72-5.721V5.721A5.738 5.738 0 0 1 260.691 0h193.458a5.73 5.73 0 0 1 5.7 5.72v271.943a5.721 5.721 0 0 1-5.7 5.721zM260.691.26a5.48 5.48 0 0 0-5.47 5.46v271.943a5.482 5.482 0 0 0 5.47 5.47h193.458a5.478 5.478 0 0 0 5.47-5.47V5.721a5.483 5.483 0 0 0-5.47-5.47L260.691.26z"/><path fill="#EBEBEB" d="M429.715 250.172l.841 1.713a.72.72 0 0 0 .521.381l1.894.271a.699.699 0 0 1 .55.469.693.693 0 0 1-.169.703l-1.373 1.332a.68.68 0 0 0-.2.601l.32 1.894a.681.681 0 0 1-1.002.721l-1.693-.891a.634.634 0 0 0-.631 0l-1.693.891a.685.685 0 0 1-.723-.052.69.69 0 0 1-.279-.669l.331-1.894a.69.69 0 0 0-.201-.601l-1.372-1.332a.688.688 0 0 1-.169-.703.689.689 0 0 1 .549-.469l1.894-.271a.732.732 0 0 0 .521-.381l.842-1.713a.694.694 0 0 1 .621-.388.698.698 0 0 1 .621.388zM60.822 256.955l.852 1.723a.68.68 0 0 0 .51.371l1.894.27a.691.691 0 0 1 .38 1.172l-1.342 1.333a.695.695 0 0 0-.19.611l.32 1.883a.684.684 0 0 1-.27.68.678.678 0 0 1-.73.042l-1.715-.842a.727.727 0 0 0-.64 0l-1.694.892a.678.678 0 0 1-.73-.042.684.684 0 0 1-.272-.679l.32-1.884a.692.692 0 0 0-.19-.611l-1.372-1.333a.69.69 0 0 1 .38-1.172l1.894-.27a.677.677 0 0 0 .511-.371l.852-1.723a.684.684 0 0 1 1.232-.05z"/><path fill="#F5F5F5" d="M64.049 109.542l.851 1.714a.689.689 0 0 0 .511.37l1.894.281a.68.68 0 0 1 .38 1.162l-1.372 1.332a.733.733 0 0 0-.2.612l.33 1.883a.68.68 0 0 1-1.002.721l-1.693-.891a.713.713 0 0 0-.641 0l-1.693.891a.679.679 0 0 1-.965-.342.68.68 0 0 1-.037-.379l.32-1.883a.7.7 0 0 0-.2-.612l-1.362-1.332a.679.679 0 0 1 .031-1.007.68.68 0 0 1 .34-.155l1.903-.281a.687.687 0 0 0 .51-.37l.842-1.714a.693.693 0 0 1 1.253 0zM172.069 42.268l.841 1.723a.693.693 0 0 0 .521.371l1.894.28a.682.682 0 0 1 .38 1.163l-1.382 1.332a.701.701 0 0 0-.201.611l.331 1.884a.688.688 0 0 1-1.002.721l-1.693-.892a.702.702 0 0 0-.631 0l-1.693.892a.682.682 0 0 1-1.002-.721l.32-1.884a.697.697 0 0 0-.2-.61l-1.352-1.343a.672.672 0 0 1-.186-.326.682.682 0 0 1 .566-.837l1.894-.28a.667.667 0 0 0 .521-.37l.841-1.724a.695.695 0 0 1 .98-.268.695.695 0 0 1 .253.278z"/><path fill="#EBEBEB" d="M92.36 25.166l.502 1.002a.42.42 0 0 0 .31.22l1.132.171a.41.41 0 0 1 .23.691l-.82.802a.4.4 0 0 0-.121.36l.19 1.133a.411.411 0 0 1-.59.43l-1.003-.53a.37.37 0 0 0-.38 0l-1.002.53a.41.41 0 0 1-.641-.41l.19-1.132a.4.4 0 0 0-.12-.361l-.812-.802a.4.4 0 0 1 .22-.69l1.133-.171a.402.402 0 0 0 .31-.22l.501-1.002a.411.411 0 0 1 .772-.02zM118.219 166.718l.511 1.002a.401.401 0 0 0 .31.23l1.132.161a.408.408 0 0 1 .334.507.411.411 0 0 1-.113.194l-.812.791a.418.418 0 0 0-.12.361l.19 1.132a.407.407 0 0 1-.164.396.405.405 0 0 1-.427.035l-1.002-.531a.42.42 0 0 0-.38 0l-1.002.531a.415.415 0 0 1-.428-.035.407.407 0 0 1-.163-.396l.19-1.132a.418.418 0 0 0-.12-.361l-.822-.791a.412.412 0 0 1 .231-.701l1.132-.161a.422.422 0 0 0 .31-.23l.501-1.002a.41.41 0 0 1 .561-.15.41.41 0 0 1 .151.15z"/><path fill="#F5F5F5" d="M278.715 58.558l.501 1.002a.423.423 0 0 0 .31.22l1.133.16a.407.407 0 0 1 .327.283.408.408 0 0 1-.107.42l-.812.8a.404.404 0 0 0-.12.361l.191 1.122a.407.407 0 0 1-.156.407.403.403 0 0 1-.436.024l-1.001-.53a.424.424 0 0 0-.381 0l-1.002.53a.401.401 0 0 1-.591-.43l.19-1.123a.393.393 0 0 0-.12-.36l-.821-.802a.41.41 0 0 1 .23-.701l1.132-.16a.42.42 0 0 0 .311-.22l.501-1.003a.419.419 0 0 1 .721 0z"/><path fill="#EBEBEB" d="M440.533 42.709l.501 1.002a.423.423 0 0 0 .311.22l1.132.17a.41.41 0 0 1 .23.692l-.821.801a.408.408 0 0 0-.121.36l.191 1.133a.408.408 0 0 1-.373.474.41.41 0 0 1-.218-.043l-1.002-.531a.371.371 0 0 0-.381 0l-1.002.53a.41.41 0 0 1-.565-.209.408.408 0 0 1-.026-.221l.191-1.132a.417.417 0 0 0-.121-.36l-.811-.802a.396.396 0 0 1-.115-.192.396.396 0 0 1 .13-.41.405.405 0 0 1 .205-.09l1.132-.17a.407.407 0 0 0 .311-.22l.501-1.002a.405.405 0 0 1 .361-.214.409.409 0 0 1 .36.214zM412.472 158.643l.501 1.002a.415.415 0 0 0 .31.22l1.132.161a.412.412 0 0 1 .335.278.408.408 0 0 1-.104.423l-.822.801a.41.41 0 0 0-.12.361l.201 1.122a.415.415 0 0 1-.166.404.414.414 0 0 1-.436.027l-1.001-.531a.423.423 0 0 0-.381 0l-1.002.531a.397.397 0 0 1-.435-.024.4.4 0 0 1-.156-.407l.19-1.122a.392.392 0 0 0-.12-.361l-.811-.801a.411.411 0 0 1 .22-.701l1.132-.161a.401.401 0 0 0 .311-.22l.511-1.002a.407.407 0 0 1 .355-.205.415.415 0 0 1 .356.205zM292.321 30.146a1.332 1.332 0 1 0 0-2.664 1.332 1.332 0 0 0 0 2.664zM115.223 75.99a1.333 1.333 0 1 0 0-2.665 1.333 1.333 0 0 0 0 2.665zM370.565 307.007a1.332 1.332 0 1 0 0-2.663 1.332 1.332 0 0 0 0 2.663z"/><path fill="#F5F5F5" d="M392.725 102.299a1.332 1.332 0 1 0 0-2.664 1.332 1.332 0 0 0 0 2.664zM125.813 211.351a1.335 1.335 0 0 1-.822 1.231 1.336 1.336 0 0 1-1.817-.972 1.332 1.332 0 0 1 1.307-1.592 1.317 1.317 0 0 1 .945.387 1.318 1.318 0 0 1 .387.946z"/><path fill="#F0F0F0" d="M355.344 67.2c15.582-2.529 26.163-17.21 23.634-32.793-2.53-15.581-17.212-26.163-32.794-23.633-15.582 2.529-26.163 17.211-23.634 32.793 2.53 15.582 17.212 26.163 32.794 23.634z"/><path fill="#FAFAFA" d="M351.168 59.55a6.481 6.481 0 0 0 4.528-3.186 16.317 16.317 0 0 1-4.799 1.613 16.677 16.677 0 0 1-5.069.12 6.472 6.472 0 0 0 5.34 1.453zM335.261 48.54a6.482 6.482 0 0 0 4.548 3.145 17.091 17.091 0 0 1-5.009-8.656 6.509 6.509 0 0 0 .461 5.51zM334.088 28.593a6.428 6.428 0 0 0-1.563 5.3 16.54 16.54 0 0 1 2.755-4.248 16.705 16.705 0 0 1 3.887-3.246 6.472 6.472 0 0 0-5.079 2.194zM353.203 17.011a6.462 6.462 0 0 0-5.4 1.183 16.561 16.561 0 0 1 5.009.37c1.658.375 3.249 1 4.719 1.854a6.45 6.45 0 0 0-4.328-3.407zM362.16 50.032a6.443 6.443 0 0 0 2.474-4.95 16.236 16.236 0 0 1-3.466 3.718 16.57 16.57 0 0 1-4.408 2.505 6.449 6.449 0 0 0 5.4-1.273zM356.708 39.513a6.45 6.45 0 0 0 2.475-4.95 16.238 16.238 0 0 1-3.467 3.698 16.669 16.669 0 0 1-4.398 2.504 6.446 6.446 0 0 0 5.39-1.252zM375.084 34.554a6.5 6.5 0 0 0-3.396-4.388 17.035 17.035 0 0 1 2.133 9.788 6.503 6.503 0 0 0 1.263-5.4z"/><path fill="#F5F5F5" d="M250.464 368c57.062 0 103.32-2.7 103.32-6.031 0-3.331-46.258-6.031-103.32-6.031-57.063 0-103.321 2.7-103.321 6.031 0 3.331 46.258 6.031 103.321 6.031z"/><path fill="#5FBE3F" d="M170.314 108.33a5.002 5.002 0 0 0-3.51-2.114 5.014 5.014 0 0 0-3.914 1.212 6.016 6.016 0 0 0-1.353 1.674 6.008 6.008 0 0 0-6.772.821 7.395 7.395 0 0 0-1.914 8.496 6.371 6.371 0 0 0-.761 8.165l.26.33a3.005 3.005 0 0 0-.48 3.908 2.419 2.419 0 0 0 2.709.945c.327-.1.63-.269.887-.494l18.364-15.579a4.526 4.526 0 0 0 .732-6.011 3.71 3.71 0 0 0-4.248-1.353z"/><path fill="#fff" d="M170.314 108.33a5.002 5.002 0 0 0-3.51-2.114 5.014 5.014 0 0 0-3.914 1.212 6.016 6.016 0 0 0-1.353 1.674 6.008 6.008 0 0 0-6.772.821 7.395 7.395 0 0 0-1.914 8.496 6.371 6.371 0 0 0-.761 8.165l.26.33a3.005 3.005 0 0 0-.48 3.908 2.419 2.419 0 0 0 2.709.945c.327-.1.63-.269.887-.494l18.364-15.579a4.526 4.526 0 0 0 .732-6.011 3.71 3.71 0 0 0-4.248-1.353z" opacity=".8"/><path fill="#5FBE3F" d="M117.556 268.206a6.559 6.559 0 0 0-3.724 3.864 6.568 6.568 0 0 0 .398 5.353 7.533 7.533 0 0 0 1.743 2.204 7.903 7.903 0 0 0-.941 8.886 9.716 9.716 0 0 0 10.279 4.939 8.344 8.344 0 0 0 10.188 3.346l.491-.23a3.87 3.87 0 0 0 4.839 1.753 3.178 3.178 0 0 0 1.812-1.865 3.173 3.173 0 0 0-.189-2.593l-14.477-27.982a5.91 5.91 0 0 0-7.403-2.675 4.842 4.842 0 0 0-3.016 5z"/><path fill="#fff" d="M117.556 268.206a6.559 6.559 0 0 0-3.724 3.864 6.568 6.568 0 0 0 .398 5.353 7.533 7.533 0 0 0 1.743 2.204 7.903 7.903 0 0 0-.941 8.886 9.716 9.716 0 0 0 10.279 4.939 8.344 8.344 0 0 0 10.188 3.346l.491-.23a3.87 3.87 0 0 0 4.839 1.753 3.178 3.178 0 0 0 1.812-1.865 3.173 3.173 0 0 0-.189-2.593l-14.477-27.982a5.91 5.91 0 0 0-7.403-2.675 4.842 4.842 0 0 0-3.016 5z" opacity=".8"/><path fill="#5FBE3F" d="M386.965 172.489c.089-.024.176-.054.26-.09a4.464 4.464 0 0 0 2.689-4.551 4.44 4.44 0 0 0-.575-1.781 6.085 6.085 0 0 0-.541-.792 10.691 10.691 0 0 0 1.934-13.124 12.63 12.63 0 0 0-5.11-5.009 11.173 11.173 0 0 0-.24-10.68 13.387 13.387 0 0 0-3.729-4.192 13.399 13.399 0 0 0-5.117-2.3 4.533 4.533 0 0 0-.471-3.156 5.442 5.442 0 0 0-6.883-2.274 4.576 4.576 0 0 0-2.094 1.854 11.723 11.723 0 0 0-10.83-.772 9.625 9.625 0 0 0-5.794 9.814 9.62 9.62 0 0 0 1.236 3.841l20.808 37.53a8.306 8.306 0 0 0 10.509 3.466 6.8 6.8 0 0 0 3.948-7.784z"/><path fill="#fff" d="M386.965 172.489c.089-.024.176-.054.26-.09a4.464 4.464 0 0 0 2.689-4.551 4.44 4.44 0 0 0-.575-1.781 6.085 6.085 0 0 0-.541-.792 10.691 10.691 0 0 0 1.934-13.124 12.63 12.63 0 0 0-5.11-5.009 11.173 11.173 0 0 0-.24-10.68 13.387 13.387 0 0 0-3.729-4.192 13.399 13.399 0 0 0-5.117-2.3 4.533 4.533 0 0 0-.471-3.156 5.442 5.442 0 0 0-6.883-2.274 4.576 4.576 0 0 0-2.094 1.854 11.723 11.723 0 0 0-10.83-.772 9.625 9.625 0 0 0-5.794 9.814 9.62 9.62 0 0 0 1.236 3.841l20.808 37.53a8.306 8.306 0 0 0 10.509 3.466 6.8 6.8 0 0 0 3.948-7.784z" opacity=".8"/><path fill="#5FBE3F" d="M139.768 242.288a113.192 113.192 0 0 1-2.164-22.041h.941c-.001 7.356.72 14.695 2.154 21.91l-.931.131zM355.736 184.681a111.098 111.098 0 0 0-4.798-11.902l.861-.411a113.019 113.019 0 0 1 4.839 12.023l-.902.29zM348.925 168.742a111.783 111.783 0 0 0-11.251-17.382l.741-.581a112.43 112.43 0 0 1 11.351 17.522l-.841.441zM138.715 214.106l-1.002-.061c.15-2.584.381-5.179.691-7.724l.942.12c-.261 2.545-.491 5.13-.631 7.665z"/><path fill="#5FBE3F" d="M250.052 329.379c60.271 0 109.131-48.86 109.131-109.132 0-60.272-48.86-109.132-109.131-109.132-60.272 0-109.132 48.86-109.132 109.132 0 60.272 48.86 109.132 109.132 109.132z"/><g fill="#fff" opacity=".3"><path d="M162.41 169.443a459.24 459.24 0 0 1-2.004-11.491 108.844 108.844 0 0 0-11.511 21.169c6.732-3.306 13.504-9.698 13.515-9.678zM182.727 293.693c2.574-3.507 4.408-6.883 3.266-10.389-1.143-3.507-14.317-7.374-14.247-7.384a487.454 487.454 0 0 1-9.117-5.851 10.426 10.426 0 0 0-3.005-7.243 9.602 9.602 0 0 0-7.434-2.385 374.992 374.992 0 0 1-6.913-9.628 109.146 109.146 0 0 0 36.818 54.812c.541-1.353 2.665-7.103.632-11.932zM178.839 142.694l3.777 1.813c2.545-4.538 5.13-8.816 7.745-12.764a396.828 396.828 0 0 1 22.902-9.567c.942-2.004 1.893-3.928 2.835-5.661a108.823 108.823 0 0 0-37.389 21.159c.03 1.633.06 3.296.13 5.02zM215.256 137.274c4.128.37 6.943-5.14 6.933-5.08a564.33 564.33 0 0 0-1.773-3.516 647.76 647.76 0 0 0-11.582 3.556c-.02-.05 2.284 4.579 6.422 5.04zM239.282 164.013a2105.47 2105.47 0 0 0-5.29-10.139 796.8 796.8 0 0 0-2.244-5.83c-1.002 1.572-2.104 3.175-3.156 4.798l3.697 5.571c-.748 3.299-1.503 6.682-2.265 10.148 3.1-1.569 6.185-3.085 9.258-4.548z" opacity=".3"/><path d="M223.501 159.224c-.401 2.294-.811 4.639-1.202 7.013l5.219-2.444c.802-1.623 1.593-3.236 2.395-4.819l-3.056-2.094-3.356 2.344z" opacity=".3"/><g opacity=".3"><mask id="a"><path d="M300.744 123.588l-4.208.561a431.222 431.222 0 0 0-9.768 6.793 398.948 398.948 0 0 1-.541 4.148l-3.616.22a268.16 268.16 0 0 0-7.194-7.424l5.941.852 3.106.11c.15-.851.301-1.683.451-2.505a377.05 377.05 0 0 0-18.564-7.664 337.04 337.04 0 0 0-9.528 4.438c-2.234 4.008-4.639 8.586-7.143 13.606a682.207 682.207 0 0 0-5.32 3.155c0 2.816.08 5.761.13 8.807 3.821 1.823 7.681 3.7 11.582 5.63a631.575 631.575 0 0 1 4.227-4.248c-.28-3.446-.561-6.749-.841-9.908a789.481 789.481 0 0 1 4.528-9.457l4.478-.071a497.313 497.313 0 0 0-3.907 6.723l1.002 6.933 3.136 1.783c0 .491-.07 1.002-.11 1.493l-1.463 1.943 1.753 3.006c-.26.701-.531 1.402-.791 2.114.12 1.092.24 2.194.37 3.306l-11.371 1.002a726.191 726.191 0 0 0-6.341-6.222l-2.084.461c.16 2.318.33 4.682.511 7.093l-5.581 2.294a971.961 971.961 0 0 0-5.8 5.831 642.201 642.201 0 0 0-6.883 3.837l4.528 5.41c-.08 2.004-.153 4.044-.22 6.122-3.617.17-7.223.36-10.81.551-.381 3.059-.751 6.144-1.112 9.257.291 2.194.581 4.408.872 6.622l5.7 2.424 7.684-5.88c1.623-3.901 3.24-7.761 4.849-11.582l3.136-1.593 5.44.471c3.046 2.531 6.101 5.093 9.167 7.684.231 1.503.471 3.006.711 4.529l1.904-.642c.31-1.673.621-3.336.922-5.009a5442.827 5442.827 0 0 0-6.863-7.824l2.004-.702c2.404 1.663 4.829 3.337 7.243 5.01.942 3.339 1.884 6.722 2.825 10.148 1.423 1.513 2.835 3.006 4.258 4.559l2.815-3.717a605.033 605.033 0 0 0-3.857-5.009l4.569-2.535c.347 2.131.681 4.278 1.001 6.442 2.004 2.384 4.008 4.772 6.012 7.163l8.074 3.006v3.907l-4.007 1.132h-7.694l-9.267-3.286-2.465.811v3.777a4027.366 4027.366 0 0 0-15.679-13.605 4717.723 4717.723 0 0 0-21.96 4.759l-3.266 1.463a1163.702 1163.702 0 0 0-5.2 5.24 722.765 722.765 0 0 0-.822 4.588c-3.9 5.083-7.73 10.122-11.491 15.118.09 6.011.231 12.022.421 17.853a888.537 888.537 0 0 0 14.577 16.29c5.777-.962 11.611-1.964 17.502-3.006 3.774 1.684 7.521 3.337 11.241 4.96a954.732 954.732 0 0 1-1.623 7.413 810.656 810.656 0 0 0 5.17 7.093 2134.87 2134.87 0 0 0 2.815 11.522 283.81 283.81 0 0 1-4.529 6.772 482.817 482.817 0 0 0 3.297 7.634c1.663 5.01 3.165 9.247 4.458 12.503 3.339-.267 6.679-.561 10.018-.881 3.006-2.004 6.011-4.248 9.147-6.793.852-.901 1.713-1.833 2.575-2.795l2.605-.481c0-1.753.05-3.606 0-5.56a296.882 296.882 0 0 0 9.077-6.011c.34-5.39.541-11.351.621-17.753 5.009-4.829 10.018-9.878 15.027-15.028a461.883 461.883 0 0 0 5.541-12.843c-3.513.821-7.077 1.639-10.69 2.454-5.4-10.59-11.381-21.84-17.623-33.261l2.946-2.124 2.535-.331a1147.798 1147.798 0 0 1 11.411 21.75c.38 2.886.734 5.741 1.062 8.566 4.675-2.324 9.313-4.662 13.915-7.013a784.282 784.282 0 0 0 9.017-11.271 613.966 613.966 0 0 0-5.23-6.712h-5.47a1194.132 1194.132 0 0 0-9.487-8.776l4.728-2.244c3.086 2.765 6.155 5.483 9.207 8.155l16.882 2.234a501.555 501.555 0 0 1 5.47 8.546l2.815-.832c.474 3.039.912 6.044 1.312 9.017a389.517 389.517 0 0 1 3.216 13.885 109.198 109.198 0 0 0-53.098-130.391l-.02.01z"/></mask><path stroke="#fff" stroke-width="200" d="M300.744 123.588l-4.208.561a431.222 431.222 0 0 0-9.768 6.793 398.948 398.948 0 0 1-.541 4.148l-3.616.22a268.16 268.16 0 0 0-7.194-7.424l5.941.852 3.106.11c.15-.851.301-1.683.451-2.505a377.05 377.05 0 0 0-18.564-7.664 337.04 337.04 0 0 0-9.528 4.438c-2.234 4.008-4.639 8.586-7.143 13.606a682.207 682.207 0 0 0-5.32 3.155c0 2.816.08 5.761.13 8.807 3.821 1.823 7.681 3.7 11.582 5.63a631.575 631.575 0 0 1 4.227-4.248c-.28-3.446-.561-6.749-.841-9.908a789.481 789.481 0 0 1 4.528-9.457l4.478-.071a497.313 497.313 0 0 0-3.907 6.723l1.002 6.933 3.136 1.783c0 .491-.07 1.002-.11 1.493l-1.463 1.943 1.753 3.006c-.26.701-.531 1.402-.791 2.114.12 1.092.24 2.194.37 3.306l-11.371 1.002a726.191 726.191 0 0 0-6.341-6.222l-2.084.461c.16 2.318.33 4.682.511 7.093l-5.581 2.294a971.961 971.961 0 0 0-5.8 5.831 642.201 642.201 0 0 0-6.883 3.837l4.528 5.41c-.08 2.004-.153 4.044-.22 6.122-3.617.17-7.223.36-10.81.551-.381 3.059-.751 6.144-1.112 9.257.291 2.194.581 4.408.872 6.622l5.7 2.424 7.684-5.88c1.623-3.901 3.24-7.761 4.849-11.582l3.136-1.593 5.44.471c3.046 2.531 6.101 5.093 9.167 7.684.231 1.503.471 3.006.711 4.529l1.904-.642c.31-1.673.621-3.336.922-5.009a5442.827 5442.827 0 0 0-6.863-7.824l2.004-.702c2.404 1.663 4.829 3.337 7.243 5.01.942 3.339 1.884 6.722 2.825 10.148 1.423 1.513 2.835 3.006 4.258 4.559l2.815-3.717a605.033 605.033 0 0 0-3.857-5.009l4.569-2.535c.347 2.131.681 4.278 1.001 6.442 2.004 2.384 4.008 4.772 6.012 7.163l8.074 3.006v3.907l-4.007 1.132h-7.694l-9.267-3.286-2.465.811v3.777a4027.366 4027.366 0 0 0-15.679-13.605 4717.723 4717.723 0 0 0-21.96 4.759l-3.266 1.463a1163.702 1163.702 0 0 0-5.2 5.24 722.765 722.765 0 0 0-.822 4.588c-3.9 5.083-7.73 10.122-11.491 15.118.09 6.011.231 12.022.421 17.853a888.537 888.537 0 0 0 14.577 16.29c5.777-.962 11.611-1.964 17.502-3.006 3.774 1.684 7.521 3.337 11.241 4.96a954.732 954.732 0 0 1-1.623 7.413 810.656 810.656 0 0 0 5.17 7.093 2134.87 2134.87 0 0 0 2.815 11.522 283.81 283.81 0 0 1-4.529 6.772 482.817 482.817 0 0 0 3.297 7.634c1.663 5.01 3.165 9.247 4.458 12.503 3.339-.267 6.679-.561 10.018-.881 3.006-2.004 6.011-4.248 9.147-6.793.852-.901 1.713-1.833 2.575-2.795l2.605-.481c0-1.753.05-3.606 0-5.56a296.882 296.882 0 0 0 9.077-6.011c.34-5.39.541-11.351.621-17.753 5.009-4.829 10.018-9.878 15.027-15.028a461.883 461.883 0 0 0 5.541-12.843c-3.513.821-7.077 1.639-10.69 2.454-5.4-10.59-11.381-21.84-17.623-33.261l2.946-2.124 2.535-.331a1147.798 1147.798 0 0 1 11.411 21.75c.38 2.886.734 5.741 1.062 8.566 4.675-2.324 9.313-4.662 13.915-7.013a784.282 784.282 0 0 0 9.017-11.271 613.966 613.966 0 0 0-5.23-6.712h-5.47a1194.132 1194.132 0 0 0-9.487-8.776l4.728-2.244c3.086 2.765 6.155 5.483 9.207 8.155l16.882 2.234a501.555 501.555 0 0 1 5.47 8.546l2.815-.832c.474 3.039.912 6.044 1.312 9.017a389.517 389.517 0 0 1 3.216 13.885 109.198 109.198 0 0 0-53.098-130.391l-.02.01z" mask="url(#a)"/></g><path d="M310.031 297.339c.331-1.613.651-3.286 1.002-5.009a310.54 310.54 0 0 1-8.626 6.703c-1.072 3.005-2.174 5.89-3.286 8.515l.651 1.824 3.186-.201c2.345-3.536 4.729-7.514 7.073-11.832z" opacity=".3"/></g><path fill="#fff" d="M147.602 180.043a.235.235 0 0 1-.211-.131.239.239 0 0 1 .101-.32 63.1 63.1 0 0 0 13.194-9.448l.12-.11a365.13 365.13 0 0 1-1.933-11.361.235.235 0 0 1 .052-.163.242.242 0 0 1 .418.083 341.05 341.05 0 0 0 1.954 11.491.246.246 0 0 1-.011.129.24.24 0 0 1-.079.102l-.211.19a63.608 63.608 0 0 1-13.294 9.518.184.184 0 0 1-.1.02zM180.734 306.536a.11.11 0 0 1-.08 0 .22.22 0 0 1-.134-.12.235.235 0 0 1-.007-.18c.822-2.054 2.535-7.304.651-11.762a.242.242 0 0 1 0-.23c2.355-3.206 4.379-6.653 3.236-10.169-.661-1.944-5.69-4.548-13.795-7.133a2.741 2.741 0 0 1-.351-.131 420.166 420.166 0 0 1-9.117-5.86.281.281 0 0 1-.11-.221 10.12 10.12 0 0 0-2.945-7.013 9.333 9.333 0 0 0-7.224-2.324.239.239 0 0 1-.23-.09 356.514 356.514 0 0 1-6.923-9.638.243.243 0 0 1 .06-.331.255.255 0 0 1 .177-.033.248.248 0 0 1 .154.094 345.446 345.446 0 0 0 6.833 9.517 9.774 9.774 0 0 1 7.483 2.465 10.607 10.607 0 0 1 3.086 7.283 578.551 578.551 0 0 0 9.017 5.771l.26.09c4.849 1.543 13.135 4.568 14.106 7.434 1.203 3.676-.821 7.213-3.226 10.489 1.874 4.589.151 9.908-.691 12.022a.236.236 0 0 1-.105.068.23.23 0 0 1-.125.002zM181.265 145.419a.189.189 0 0 1-.1 0l-3.767-1.804a.25.25 0 0 1-.095-.082.268.268 0 0 1-.046-.118c-.06-1.513-.1-3.116-.13-5.009a.228.228 0 0 1 .231-.241.23.23 0 0 1 .23.231c0 1.863.07 3.416.13 4.879l3.447 1.653c2.544-4.529 5.119-8.766 7.644-12.583a.22.22 0 0 1 .1-.091 403.329 403.329 0 0 1 22.832-9.537 91.142 91.142 0 0 1 2.795-5.581.235.235 0 0 1 .054-.091.25.25 0 0 1 .192-.076.243.243 0 0 1 .215.305.24.24 0 0 1-.05.093 95.593 95.593 0 0 0-2.815 5.64.304.304 0 0 1-.13.121 403.356 403.356 0 0 0-22.833 9.537c-2.544 3.847-5.139 8.115-7.704 12.694a.253.253 0 0 1-.093.053.258.258 0 0 1-.107.007zM228.681 169.423a.198.198 0 0 1-.08-.01.188.188 0 0 1-.07-.04.22.22 0 0 1-.08-.23 646.455 646.455 0 0 1 2.244-10.019c-1.242-1.853-2.455-3.687-3.647-5.48a.232.232 0 0 1 0-.261 966.548 966.548 0 0 1 3.166-4.798.217.217 0 0 1 .23-.101.244.244 0 0 1 .191.151l2.244 5.83c1.713 3.246 3.476 6.633 5.28 10.109a.233.233 0 0 1 0 .18.283.283 0 0 1-.121.141 967.925 967.925 0 0 0-9.267 4.548.188.188 0 0 1-.09-.02zm-1.152-15.949l3.617 5.44c.02.058.02.121 0 .18a864.964 864.964 0 0 0-2.164 9.668 1316.94 1316.94 0 0 1 8.606-4.228 2581.66 2581.66 0 0 0-5.18-9.918 886.184 886.184 0 0 0-2.094-5.42 1184.15 1184.15 0 0 1-2.785 4.278z"/><path fill="#fff" d="M220.948 167.149a.242.242 0 0 1-.141 0 .232.232 0 0 1-.09-.231c.401-2.374.802-4.718 1.212-7.013a.245.245 0 0 1 .091-.16l3.356-2.334a.257.257 0 0 1 .27 0l3.006 2.004.09.06a.225.225 0 0 1 .098.134.228.228 0 0 1-.018.166c-.801 1.583-1.593 3.196-2.394 4.819a.251.251 0 0 1-.12.11l-5.22 2.445h-.14zm1.462-7.143c-.38 2.124-.751 4.288-1.122 6.472l4.739-2.204c.761-1.543 1.516-3.066 2.264-4.569l-2.745-1.883-3.136 2.184zM261.883 320.953a.259.259 0 0 1-.132-.043.255.255 0 0 1-.088-.107c-1.263-3.186-2.765-7.394-4.458-12.513a399.052 399.052 0 0 1-3.287-7.624.251.251 0 0 1 0-.221c1.473-2.154 3.006-4.398 4.479-6.682-.892-3.587-1.824-7.394-2.785-11.371a802.072 802.072 0 0 1-5.14-7.063.211.211 0 0 1 0-.191c.521-2.354 1.002-4.768 1.583-7.223a1736.478 1736.478 0 0 1-11.02-4.849 2192.185 2192.185 0 0 0-17.433 3.006.21.21 0 0 1-.21-.071 924.233 924.233 0 0 1-14.587-16.29.477.477 0 0 1-.06-.15c-.19-5.801-.331-11.812-.421-17.863a.243.243 0 0 1 .05-.14c3.747-5.009 7.604-10.019 11.451-15.078l.812-4.528a.284.284 0 0 1 .07-.121c1.723-1.753 3.456-3.496 5.2-5.249a.165.165 0 0 1 .07 0l3.426-1.483a4062.683 4062.683 0 0 1 22.041-4.769.232.232 0 0 1 .21.05 7376.38 7376.38 0 0 1 15.279 13.265v-3.246a.235.235 0 0 1 .043-.141.233.233 0 0 1 .117-.09l2.464-.811a.198.198 0 0 1 .151 0l9.237 3.276h7.584l3.807-1.072v-3.557l-7.925-2.905-.1-.07-6.011-7.173a.237.237 0 0 1-.06-.111c-.321-2.003-.651-4.087-1.002-6.111l-4.008 2.234 3.687 4.819c.03.041.045.09.045.14 0 .051-.015.1-.045.141l-2.815 3.727a.236.236 0 0 1-.08.064.232.232 0 0 1-.1.026.22.22 0 0 1-.099-.013.233.233 0 0 1-.082-.057 706.927 706.927 0 0 0-4.267-4.569.316.316 0 0 1-.051-.1c-.931-3.376-1.873-6.743-2.805-10.019a1003.303 1003.303 0 0 0-7.073-4.909l-1.583.551c2.204 2.498 4.415 5.02 6.632 7.564a.246.246 0 0 1 .051.191c-.301 1.663-.612 3.326-.922 5.009a.23.23 0 0 1-.15.18l-1.914.651a.231.231 0 0 1-.1.022.199.199 0 0 1-.175-.088.225.225 0 0 1-.036-.094l-.691-4.438a4894.294 4894.294 0 0 0-9.016-7.584l-5.29-.461-3.006 1.523c-1.593 3.797-3.206 7.634-4.809 11.501a.347.347 0 0 1-.07.1 6557.934 6557.934 0 0 0-7.694 5.881.251.251 0 0 1-.24 0l-5.781-2.544a.239.239 0 0 1-.14-.181c-.291-2.224-.581-4.428-.862-6.632.361-3.166.731-6.262 1.102-9.317a.23.23 0 0 1 .22-.201l10.6-.551c.07-1.943.13-3.887.21-5.8l-4.538-5.28a.253.253 0 0 1-.06-.2.219.219 0 0 1 .12-.161c2.298-1.289 4.582-2.565 6.853-3.827a1177.85 1177.85 0 0 1 5.781-5.801.141.141 0 0 1 .08-.05c1.813-.751 3.616-1.502 5.42-2.234-.171-2.354-.341-4.668-.501-6.923a.226.226 0 0 1 .042-.159.225.225 0 0 1 .138-.091l2.094-.461a.225.225 0 0 1 .118.001c.039.01.074.031.102.059a715.134 715.134 0 0 1 6.262 6.152c3.677-.351 7.384-.692 11.02-1.002-.11-1.002-.23-2.004-.34-3.066a.405.405 0 0 1 0-.11l.751-2.004c-.561-1.002-1.122-1.953-1.693-2.925a.254.254 0 0 1-.037-.131c0-.045.013-.09.037-.13l1.423-1.883.09-1.283-3.006-1.703a.256.256 0 0 1-.12-.18 350.81 350.81 0 0 0-1.002-6.933.379.379 0 0 1 0-.15c1.262-2.194 2.505-4.338 3.687-6.362l-3.897.07c-1.393 2.855-2.886 6.011-4.438 9.257.28 3.176.561 6.492.831 9.849a.228.228 0 0 1-.07.19l-4.228 4.248a.232.232 0 0 1-.27 0 946.897 946.897 0 0 0-11.582-5.621.225.225 0 0 1-.13-.21c-.053-3.052-.097-5.988-.13-8.806a.238.238 0 0 1 .11-.211c1.777-1.062 3.53-2.1 5.26-3.115 2.544-5.08 4.939-9.638 7.123-13.566a.224.224 0 0 1 .1-.09c3.226-1.563 6.432-3.005 9.538-4.438a.23.23 0 0 1 .18 0 368.443 368.443 0 0 1 18.574 7.674c.049.022.09.059.115.106.026.048.035.102.026.155l-.451 2.494a.27.27 0 0 1-.091.144.265.265 0 0 1-.16.057l-3.096-.11-5.259-.762a258.934 258.934 0 0 1 6.612 6.853l3.316-.201c.18-1.352.351-2.675.511-3.947a.274.274 0 0 1 .1-.17 411.985 411.985 0 0 1 9.778-6.793.192.192 0 0 1 .101 0l4.197-.561a.253.253 0 0 1 .095.006.253.253 0 0 1 .085.043.223.223 0 0 1 .061.072.234.234 0 0 1 .024.18.224.224 0 0 1-.04.082.245.245 0 0 1-.068.06.24.24 0 0 1-.087.028l-4.147.551c-3.006 2.004-6.262 4.288-9.638 6.702-.17 1.303-.341 2.655-.531 4.008a.236.236 0 0 1-.073.144.234.234 0 0 1-.147.066l-3.617.221a.342.342 0 0 1-.19-.07 246.272 246.272 0 0 0-7.184-7.424.234.234 0 0 1-.044-.135c0-.049.016-.096.044-.136a.2.2 0 0 1 .241-.13c2.003.271 4.007.561 5.941.852l2.875.1c.13-.721.26-1.423.381-2.114a355.254 355.254 0 0 0-18.284-7.554c-3.006 1.363-6.212 2.825-9.367 4.358-2.184 3.917-4.569 8.466-7.104 13.535a.299.299 0 0 1-.1.1 551.391 551.391 0 0 0-5.199 3.086c0 2.725.08 5.57.13 8.516a888.253 888.253 0 0 1 11.301 5.49 229.446 229.446 0 0 1 4.007-4.008c-.27-3.346-.551-6.642-.831-9.798a.222.222 0 0 1 0-.12 573.8 573.8 0 0 1 4.528-9.457.228.228 0 0 1 .21-.131l4.469-.08c.079.02.152.062.21.12a.252.252 0 0 1 0 .241 743.825 743.825 0 0 0-3.867 6.642c.31 2.174.631 4.428.942 6.743l3.005 1.733c.04.02.073.052.095.091.021.04.03.085.025.129l-.1 1.493a.288.288 0 0 1-.05.13l-1.372 1.814c.561.951 1.112 1.913 1.673 2.895a.276.276 0 0 1 0 .2l-.772 2.064c.12 1.072.241 2.144.361 3.236a.233.233 0 0 1-.121.238.214.214 0 0 1-.089.023c-3.747.33-7.564.691-11.371 1.052a.245.245 0 0 1-.104-.013.233.233 0 0 1-.087-.058 742.087 742.087 0 0 0-6.241-6.131l-1.764.391c.161 2.244.321 4.548.491 6.893a.22.22 0 0 1-.15.23l-5.53 2.284a1052.1 1052.1 0 0 0-5.761 5.781h-.06l-6.632 3.707 4.418 5.129a.31.31 0 0 1 0 .16c-.07 2.004-.15 4.068-.21 6.122a.242.242 0 0 1-.231.22l-10.609.551c-.371 3.006-.732 6.011-1.082 9.017.27 2.094.561 4.258.841 6.432l5.45 2.314 7.534-5.761a1392.63 1392.63 0 0 1 4.819-11.521.251.251 0 0 1 .11-.12l3.136-1.593a.147.147 0 0 1 .13 0l5.44.471a.211.211 0 0 1 .131.05 1439.29 1439.29 0 0 1 9.166 7.684c.042.041.07.093.081.15l.661 4.248 1.513-.511c.3-1.589.591-3.172.871-4.748a1188.598 1188.598 0 0 0-6.782-7.735.247.247 0 0 1 0-.22.22.22 0 0 1 .15-.16l2.004-.712a.27.27 0 0 1 .105-.022.27.27 0 0 1 .105.022c2.418 1.663 4.832 3.333 7.243 5.009a.201.201 0 0 1 .061.055.209.209 0 0 1 .03.076c.941 3.339 1.88 6.702 2.815 10.088l4.007 4.318 2.535-3.356c-1.242-1.633-2.495-3.256-3.747-4.889a.208.208 0 0 1 0-.19.274.274 0 0 1 .12-.161l4.559-2.534a.235.235 0 0 1 .22 0 .222.222 0 0 1 .086.069.219.219 0 0 1 .044.101 319.03 319.03 0 0 1 1.002 6.382 533.065 533.065 0 0 1 5.941 7.073c2.672.975 5.343 1.954 8.015 2.935a.247.247 0 0 1 .16.221v3.907a.209.209 0 0 1-.17.22l-4.007 1.142h-7.835l-9.197-3.266-2.214.742v3.667a.233.233 0 0 1-.133.224.228.228 0 0 1-.258-.044 4543.563 4543.563 0 0 0-15.589-13.535 8410.796 8410.796 0 0 0-21.84 4.739l-3.336 1.452c-1.71 1.717-3.413 3.437-5.11 5.16l-.811 4.508a.227.227 0 0 1 0 .11 3629.796 3629.796 0 0 0-11.441 15.028c.09 6.011.23 11.942.421 17.683a908.163 908.163 0 0 0 14.436 16.12c5.621-.932 11.471-1.924 17.372-3.006a.227.227 0 0 1 .141 0c3.767 1.673 7.544 3.346 11.23 4.949a.245.245 0 0 1 .119.11c.025.05.033.106.022.161-.541 2.484-1.072 4.929-1.603 7.313 1.713 2.365 3.426 4.729 5.109 7.013a.339.339 0 0 1 0 .09c1.002 4.008 1.924 7.885 2.825 11.522a.26.26 0 0 1 0 .19 536.932 536.932 0 0 1-4.458 6.662 369.915 369.915 0 0 0 3.236 7.504c1.673 5.009 3.146 9.197 4.398 12.363 3.256-.27 6.532-.561 9.738-.872a111.62 111.62 0 0 0 9.087-6.742c.842-.882 1.703-1.823 2.555-2.765a.213.213 0 0 1 .13-.08l.371-.07 2.003-.381v-5.36a.231.231 0 0 1 .111-.2 239.894 239.894 0 0 0 8.966-5.911c.331-5.24.541-11.161.621-17.623a.287.287 0 0 1 .07-.17c5.01-4.769 10.019-9.828 15.028-15.028a520.162 520.162 0 0 0 5.34-12.373c-3.326.772-6.762 1.563-10.239 2.345a.248.248 0 0 1-.149-.02.237.237 0 0 1-.111-.101 1327.424 1327.424 0 0 0-17.663-33.241.222.222 0 0 1 .07-.301l2.946-2.124a.15.15 0 0 1 .11 0l2.524-.33a.211.211 0 0 1 .241.12 1113.972 1113.972 0 0 1 11.421 21.75v.08c.361 2.836.701 5.611 1.002 8.236a1074.52 1074.52 0 0 0 13.565-6.833c3.005-3.677 6.011-7.404 8.846-11.081-1.643-2.133-3.336-4.307-5.009-6.471h-5.36a.247.247 0 0 1-.16-.061 962.96 962.96 0 0 0-9.488-8.776.26.26 0 0 1-.08-.21.245.245 0 0 1 .14-.181l4.729-2.244a.253.253 0 0 1 .261 0c3.135 2.725 6.241 5.45 9.217 8.085l16.811 2.224a.213.213 0 0 1 .16.111 534.869 534.869 0 0 1 5.38 8.395l2.645-.781a.207.207 0 0 1 .095-.022.21.21 0 0 1 .095.022.207.207 0 0 1 .11.16 410.29 410.29 0 0 1 1.313 9.017 365.952 365.952 0 0 1 3.216 13.865.24.24 0 0 1-.359.251.23.23 0 0 1-.102-.151 375.652 375.652 0 0 0-3.226-13.875 369.1 369.1 0 0 0-1.272-8.776l-2.555.751a.24.24 0 0 1-.271-.1 532.93 532.93 0 0 0-5.4-8.446l-16.771-2.224a.21.21 0 0 1-.13-.05c-2.955-2.625-6.011-5.33-9.157-8.015l-4.268 2.004a1303.13 1303.13 0 0 1 9.157 8.486h5.38a.218.218 0 0 1 .191.09 653.969 653.969 0 0 1 5.219 6.712.229.229 0 0 1 0 .291 514.58 514.58 0 0 1-9.016 11.27l-.081.061a1204.402 1204.402 0 0 1-13.915 7.013.248.248 0 0 1-.221 0 .246.246 0 0 1-.12-.181 786.6 786.6 0 0 0-1.052-8.526 1182.82 1182.82 0 0 0-11.321-21.559l-2.304.3-2.735 2.004a1284.276 1284.276 0 0 1 17.492 32.901c3.557-.802 7.093-1.613 10.5-2.415a.22.22 0 0 1 .23.08.211.211 0 0 1 0 .241 477 477 0 0 1-5.53 12.854l-.05.06c-5.01 5.199-10.019 10.249-14.968 15.027-.08 6.472-.29 12.413-.621 17.653a.237.237 0 0 1-.03.101.222.222 0 0 1-.07.079c-3.006 2.004-6.011 4.008-8.967 5.921v5.43a.232.232 0 0 1-.19.231l-2.244.421-.291.05c-.831.931-1.673 1.853-2.525 2.745-3.175 2.584-6.261 4.869-9.187 6.822h-.11c-3.286.311-6.642.611-10.018.882l.24.06zM298.381 310.283a.25.25 0 0 1-.14-.044.251.251 0 0 1-.09-.116l-.131-.371-.47-1.472a.24.24 0 0 1-.019-.091c0-.031.007-.061.019-.09 1.092-2.564 2.194-5.43 3.276-8.495a.36.36 0 0 1 .08-.121 297.156 297.156 0 0 0 8.626-6.692.242.242 0 0 1 .135-.042c.048 0 .095.015.135.042a.218.218 0 0 1 .11.24c-.29 1.633-.611 3.327-.951 5.01v.07c-2.385 4.388-4.779 8.375-7.133 11.842a.221.221 0 0 1-.181.11l-3.186.2-.08.02zm-.401-2.053c.171.46.331.921.491 1.362l.07.21 2.896-.19c2.314-3.426 4.668-7.353 7.013-11.681.3-1.463.581-2.926.841-4.349a310.862 310.862 0 0 1-8.095 6.272 149.083 149.083 0 0 1-3.216 8.426v-.05z"/><path fill="#263238" d="M214.617 26.61c-.891-10.67 16.501-5.681 21.039 1.001s-3.957 20.418 9.908 24.946c13.866 4.529 4.068 13.165 11.422 27.1 10.82 20.508-54.792 46.516-45.555 5.12 8.616-38.602-17.622-40.896 3.186-58.168z"/><path fill="#263238" d="M248.769 52.808a6.298 6.298 0 0 1-1.533-.19c-9.086-2.275-9.798-8.466-10.479-14.458-.441-3.907-.852-7.583-3.476-10.329a.931.931 0 0 1 .03-1.322.934.934 0 0 1 1.322.03c3.056 3.196 3.527 7.374 4.007 11.411.662 5.85 1.233 10.9 9.017 12.854 1.343.33 2.685 0 3.116-.701.431-.702 0-1.663-1.062-2.776a.936.936 0 0 1 1.352-1.292c2.365 2.505 1.714 4.328 1.323 5.01a4.098 4.098 0 0 1-3.617 1.763z"/><path fill="#FFB573" d="M211.591 66.974c.13 2.394.12 4.668.11 7.013-.01 2.344-.12 4.628-.24 6.943a124.71 124.71 0 0 1-.531 6.942 229.515 229.515 0 0 1-.862 6.923l-.05.37-.08.201a24.175 24.175 0 0 1-2.915 5.39 74.667 74.667 0 0 1-3.346 4.529c-1.163 1.442-2.385 2.825-3.617 4.187a96.112 96.112 0 0 1-3.847 4.008l-2.625-2.224 3.005-4.469a117.806 117.806 0 0 0 2.876-4.498 85.008 85.008 0 0 0 2.655-4.488 24.944 24.944 0 0 0 1.913-4.308l-.13.58c.431-4.437.601-8.906.751-13.384.07-2.234.091-4.478.101-6.712.01-2.234 0-4.509-.061-6.663l6.893-.34z"/><path fill="#FFB573" d="M195.23 109.643l-4.218 3.165 3.636 3.126a5.161 5.161 0 0 0 2.826-3.917l-2.244-2.374z"/><path fill="#fff" d="M204.909 60.191c-2.003 2.214-2.284 10.019-2.284 10.019l12.553 3.927s1.333-12.233-1.573-14.607a6.012 6.012 0 0 0-8.696.661z"/><path fill="#FFB573" d="M189.309 116.175l1.572 3.757 3.767-3.998-3.636-3.126-1.703 3.367z"/><path fill="#010304" d="M205.57 61.484c-.301 4.207-1.262 14.516 3.917 37.96l27.501-1.553c-1.052-10.76-.401-16.09 4.428-37.159a2.415 2.415 0 0 0-1.923-2.915 79.196 79.196 0 0 0-9.207-1.082 88.466 88.466 0 0 0-12.514 0c-3.256.29-6.782.861-9.016 1.272a3.826 3.826 0 0 0-3.186 3.477z"/><path fill="#fff" d="M219.545 63.738a6.362 6.362 0 0 1 3.536 4.308c3.176-.651 9.588-5.911 8.506-11.632a11.02 11.02 0 0 0-3.166-.48l-8.876 7.804zM218.213 63.477a5.307 5.307 0 0 0-3.597 3.086 10.792 10.792 0 0 1 1.683-9.888 23.12 23.12 0 0 1 4.759-.742l-2.845 7.544z"/><path fill="#FFB573" d="M186.395 199.298l-6.763-.581-.831-15.839 6.762.581.832 15.839z"/><path fill="#263238" d="M179.331 197.655l6.953-3.126a.542.542 0 0 1 .681.201l3.256 5.149a1.098 1.098 0 0 1 .097.881 1.092 1.092 0 0 1-.588.662c-2.444 1.052-3.677 1.433-6.732 2.805-1.884.842-5.4 3.176-8.015 4.338-2.615 1.163-3.887-1.342-2.915-2.053a17.513 17.513 0 0 0 6.371-8.015c.188-.378.504-.676.892-.842z"/><path fill="#000" d="M185.563 183.459l-6.762-.581.471 8.826 6.752.371-.461-8.616z" opacity=".2"/><path fill="#263238" d="M209.386 99.163s-25.046 23.163-29.534 34.063c-5.661 13.846-2.124 56.104-2.124 56.104l9.217.791s.641-29.765 4.869-48.279c8.906-11.792 43.16-27.29 38.942-43.61l-21.37.931z"/><path fill="#000" d="M219.114 111.686c-12.102 2.665-19.205 16.331-21.71 24.596 8.225-6.873 21.039-14.467 28.222-22.772-1.442-.772-3.927-2.385-6.512-1.824z" opacity=".2"/><path fill="#fff" d="M187.657 190.682l-10.85-.931-.411-5.481 11.251-.791.01 7.203zM176.406 199.909h-.081a.902.902 0 0 1-.591-.671.563.563 0 0 1 .111-.541c.571-.641 3.005-.28 3.276-.23.031.005.06.019.083.04a.167.167 0 0 1 .047.08c.005.03.002.06-.009.088a.167.167 0 0 1-.051.072c-.692.511-1.964 1.333-2.785 1.162zm2.274-1.202c-1.002-.12-2.294-.16-2.595.191 0 0-.08.1 0 .24a.61.61 0 0 0 .381.451c.41.15 1.232-.181 2.214-.882z"/><path fill="#fff" d="M178.83 198.717c-.822-.19-2.234-.931-2.395-1.613a.557.557 0 0 1 .045-.37.557.557 0 0 1 .266-.261.832.832 0 0 1 .711-.08c.942.29 1.744 2.064 1.784 2.144a.184.184 0 0 1 0 .16.147.147 0 0 1-.062.049.143.143 0 0 1-.079.011 1.175 1.175 0 0 1-.27-.04zm-1.523-2.003a.53.53 0 0 0-.391.06c-.18.11-.18.21-.17.29.11.461 1.262 1.152 2.064 1.353-.301-.581-.892-1.513-1.453-1.693l-.05-.01z"/><path fill="#000" d="M241.165 61.824a10.017 10.017 0 0 0-5.961 7.805c-.481 3.286 2.074 6.722 2.826 8.145.661-4.278 1.663-9.408 3.135-15.95z" opacity=".2"/><path fill="#FFB573" d="M229.062 44.162c-.791 4.007-1.583 9.888 1.223 12.573 0 0-.161 4.097-11.532 8.506-4.087-5.881-1.002-8.526-1.002-8.526 4.499-1.062 4.378-2.886 3.607-6.011l7.704-6.542z"/><path fill="#000" d="M225.937 46.797l-4.529 3.907c.193.725.321 1.466.381 2.214 1.723-.24 4.418-1.693 4.789-3.557a5.399 5.399 0 0 0-.641-2.564z" opacity=".2"/><path fill="#FFB573" d="M234.322 37.279c-1.813 6.582-2.445 9.397-6.532 12.102-6.152 4.078-13.836.401-14.026-6.582-.16-6.291 2.845-16.03 9.928-17.262a9.308 9.308 0 0 1 10.63 11.742z"/><path fill="#263238" d="M219.134 25.267c-2.875 2.675 8.085 8.015 11.421 7.914-4.478 3.457-.511 10.15 3.006 8.496 3.516-1.653 3.326-10.199 1.512-13.224-1.813-3.026-11.351-7.424-15.939-3.186z"/><path fill="#263238" d="M223.532 26.429c2.114 2.474-9.617 5.79-8.295 1.913 1.753-5.15 6.192-4.388 8.295-1.913zM223.332 36.778c-.12.541-.5.922-.851.852-.351-.07-.551-.582-.441-1.123.11-.54.501-.921.852-.851.35.07.521.601.44 1.122zM217.202 35.496c-.121.55-.501.921-.852.851-.351-.07-.551-.58-.441-1.122.11-.54.501-.922.852-.842.35.08.551.572.441 1.113z"/><path fill="#263238" d="M216.91 34.444l-1.222-.652s.45 1.163 1.222.652z"/><path fill="#ED893E" d="M218.884 36.878a14.902 14.902 0 0 1-2.675 3.056 2.434 2.434 0 0 0 1.863.771l.812-3.827z"/><path fill="#263238" d="M220.578 43.45a4.783 4.783 0 0 1-.812-.11.158.158 0 0 1-.105-.067.16.16 0 0 1-.025-.123.172.172 0 0 1 .076-.1.171.171 0 0 1 .124-.02 4.409 4.409 0 0 0 3.858-.942.165.165 0 0 1 .052-.035.165.165 0 0 1 .178.035.161.161 0 0 1 .035.053.15.15 0 0 1 .013.062.15.15 0 0 1-.013.062.16.16 0 0 1-.035.053 4.547 4.547 0 0 1-3.346 1.132zM226.058 36.067a.32.32 0 0 1-.301-.24 3.843 3.843 0 0 0-2.214-2.145.333.333 0 0 1-.2-.42.316.316 0 0 1 .17-.185.32.32 0 0 1 .251-.006 4.43 4.43 0 0 1 2.625 2.595.313.313 0 0 1-.035.243.321.321 0 0 1-.196.148.179.179 0 0 1-.1.01zM215.958 32.28a.338.338 0 0 1-.28-.18.331.331 0 0 1 .14-.442 3.197 3.197 0 0 1 3.006-.07.324.324 0 0 1 .157.194.32.32 0 0 1-.037.247.325.325 0 0 1-.441.12 2.605 2.605 0 0 0-2.354.09.322.322 0 0 1-.191.04zM223.043 35.776l-1.223-.651s.451 1.122 1.223.651z"/><path fill="#FFB573" d="M213.524 213.775l-6.773-.321-1.442-15.789 6.772.321 1.443 15.789z"/><path fill="#263238" d="M206.382 212.413l6.822-3.387a.524.524 0 0 1 .692.171l3.466 5.009a1.098 1.098 0 0 1-.083 1.289c-.098.118-.22.215-.358.284-2.404 1.132-3.617 1.563-6.622 3.055-1.843.922-5.26 3.387-7.815 4.649-2.554 1.262-3.937-1.192-3.005-1.944a17.545 17.545 0 0 0 6.011-8.255 1.8 1.8 0 0 1 .892-.871z"/><path fill="#000" d="M212.081 197.986l-6.772-.321.801 8.807 6.763.1-.792-8.586z" opacity=".2"/><path fill="#263238" d="M218.103 98.953s-17.583 33.872-18.394 46.937c-.842 13.404 4.779 58.277 4.779 58.277l9.237.431s1.222-39.583.671-58.618c5.711-13.635 30.697-33.332 22.552-48.09l-18.845 1.063z"/><path fill="#fff" d="M214.335 205.109l-10.66-.501-.681-5.891 11.531-1.563-.19 7.955zM203.575 214.787h-.08a.92.92 0 0 1-.621-.651.536.536 0 0 1 .09-.541c.541-.672 3.006-.401 3.256-.371a.171.171 0 0 1 .088.039c.025.022.043.05.052.081a.173.173 0 0 1-.007.093.19.19 0 0 1-.053.078c-.671.531-1.923 1.432-2.725 1.272zm2.224-1.303c-1.002-.08-2.304-.06-2.595.291a.23.23 0 0 0 0 .24.623.623 0 0 0 .401.441c.421.131 1.232-.23 2.194-.972z"/><path fill="#fff" d="M205.94 213.495c-.822-.161-2.264-.842-2.445-1.523a.557.557 0 0 1 .281-.641.828.828 0 0 1 .701-.111c1.002.261 1.834 2.004 1.874 2.074a.184.184 0 0 1 0 .16.156.156 0 0 1-.066.056.156.156 0 0 1-.085.015l-.26-.03zm-1.593-2.004a.498.498 0 0 0-.391.08c-.18.11-.17.21-.15.291.12.45 1.302 1.102 2.104 1.272-.321-.571-.942-1.483-1.513-1.633l-.05-.01zM237.309 96.258l.841 2.424c.111.18-.1.391-.42.411l-28.343 1.593c-.25 0-.461-.1-.481-.25l-.39-2.455c0-.17.18-.32.45-.34l27.862-1.564a.48.48 0 0 1 .481.18z"/><path fill="#263238" d="M233.652 99.584h.751c.151 0 .251-.09.241-.18l-.531-3.186c0-.09-.15-.16-.301-.15h-.741c-.15 0-.261.09-.241.19l.531 3.176c.01.09.141.16.291.15zM211.531 100.836l.742-.05c.15 0 .26-.09.25-.18l-.531-3.176c0-.1-.15-.17-.3-.16h-.752c-.14 0-.25.1-.24.19l.531 3.176c.02.13.16.2.3.2zM222.551 100.215h.741c.15 0 .261-.1.241-.19l-.531-3.176c0-.09-.151-.16-.301-.16l-.741.05c-.151 0-.261.09-.241.18l.531 3.176c.01.06.16.13.301.12z"/><path fill="#FFB573" d="M247.718 108.28l-4.308 5.46 6.873-.591s1.553-2.765.21-5.24l-2.775.371z"/><path fill="#FFB573" d="M245.523 64.379a141.353 141.353 0 0 1 3.727 11.1 110.565 110.565 0 0 1 2.785 11.392c.191 1.001.351 2.003.501 3.005l.181 1.593.08 1.563a50.647 50.647 0 0 1-.241 6.071 68.874 68.874 0 0 1-2.234 11.612l-3.386-.622c.19-3.726.351-7.523.23-11.21-.05-1.834-.15-3.657-.36-5.41l-.181-1.293-.23-1.252c-.19-.872-.381-1.783-.601-2.675-.892-3.587-2.004-7.173-3.126-10.76-1.122-3.586-2.394-7.173-3.637-10.66l6.492-2.454z"/><path fill="#fff" d="M239.341 57.817c5.59.32 9.017 10.89 9.017 10.89l-11.452 4.689s-2.364-5.28-2.093-9.017c.27-3.737 1.442-6.763 4.528-6.562z"/><path fill="#FFB573" d="M243.691 119.431l5.73-.802.862-5.48-6.873.591.281 5.691zM235.055 42.79a4.908 4.908 0 0 1-3.006 2.213c-1.673.39-2.444-1.122-1.923-2.675.481-1.392 1.923-3.276 3.576-3.005a2.201 2.201 0 0 1 1.761 2.45 2.207 2.207 0 0 1-.408 1.016z"/><path fill="#5FBE3F" d="M334.718 88.433l-10.019-10.018a.708.708 0 0 0-1.002 1.002l4.529 4.518-9.538 9.538a.712.712 0 0 0-.154.772.713.713 0 0 0 .655.437.708.708 0 0 0 .501-.207l9.537-9.538 4.529 4.528a.71.71 0 0 0 1.002 0 .71.71 0 0 0 0-1.002l-.04-.03z"/><path fill="#000" d="M334.718 88.433l-10.019-10.018a.708.708 0 0 0-1.002 1.002l4.529 4.518-9.538 9.538a.712.712 0 0 0-.154.772.713.713 0 0 0 .655.437.708.708 0 0 0 .501-.207l9.537-9.538 4.529 4.528a.71.71 0 0 0 1.002 0 .71.71 0 0 0 0-1.002l-.04-.03z" opacity=".3"/><path fill="#5FBE3F" d="M323.738 89.405a3.133 3.133 0 0 1 0-4.428l6.562-6.562a3.134 3.134 0 0 1 4.418 0 3.136 3.136 0 0 1 0 4.428l-6.562 6.562a3.137 3.137 0 0 1-4.418 0zM323.208 89.936a5.499 5.499 0 0 0-7.774 0l7.774 7.764a5.51 5.51 0 0 0 0-7.764zM328.379 75.09l-8.926-8.925a1.933 1.933 0 0 0-2.734 0l-5.243 5.242a1.934 1.934 0 0 0 0 2.734l8.926 8.926c.756.756 1.98.756 2.735 0l5.242-5.242a1.934 1.934 0 0 0 0-2.734z"/><path fill="#fff" d="M322.732 82.598l5.179-5.178a1.353 1.353 0 0 0 0-1.913l-8.862-8.862a1.353 1.353 0 0 0-1.913 0l-5.179 5.178a1.353 1.353 0 0 0 0 1.913l8.863 8.862a1.352 1.352 0 0 0 1.912 0z" opacity=".3"/><path fill="#5FBE3F" d="M346.981 93.676l-8.926-8.926a1.934 1.934 0 0 0-2.735 0l-5.242 5.242a1.934 1.934 0 0 0 0 2.734l8.926 8.927a1.933 1.933 0 0 0 2.734 0l5.243-5.243a1.934 1.934 0 0 0 0-2.734z"/><path fill="#fff" d="M341.318 101.183l5.179-5.179a1.353 1.353 0 0 0 0-1.913l-8.863-8.862a1.352 1.352 0 0 0-1.912 0l-5.179 5.179a1.353 1.353 0 0 0 0 1.912l8.863 8.863a1.352 1.352 0 0 0 1.912 0z" opacity=".3"/><path fill="#fff" d="M332.951 82.543l-2.344-2.345a.36.36 0 0 0-.51 0l-3.422 3.422a.36.36 0 0 0 0 .51l2.345 2.344a.36.36 0 0 0 .51 0l3.421-3.421a.36.36 0 0 0 0-.51z" opacity=".7"/></svg>