<svg width="501" height="368" viewBox="0 0 501 368" fill="none" xmlns="http://www.w3.org/2000/svg">
<path d="M500.926 328.066H0V328.317H500.926V328.066Z" fill="#EBEBEB"/>
<path d="M85.738 337.604H52.5566V337.854H85.738V337.604Z" fill="#EBEBEB"/>
<path d="M180.163 334.889H136.582V335.139H180.163V334.889Z" fill="#EBEBEB"/>
<path d="M120.552 342.783H81.7305V343.034H120.552V342.783Z" fill="#EBEBEB"/>
<path d="M450.733 345.228H407.463V345.478H450.733V345.228Z" fill="#EBEBEB"/>
<path d="M398.536 345.228H379.701V345.478H398.536V345.228Z" fill="#EBEBEB"/>
<path d="M275.509 341H238.881V341.251H275.509V341Z" fill="#EBEBEB"/>
<path d="M237.439 283.384H43.9918C42.4763 283.381 41.0239 282.777 39.9532 281.705C38.8826 280.632 38.2812 279.179 38.2813 277.663V5.72057C38.2839 4.20593 38.8861 2.75393 39.9561 1.68197C41.0262 0.610016 42.4772 0.00529367 43.9918 0H237.439C238.957 -2.31996e-06 240.413 0.602381 241.488 1.67491C242.562 2.74744 243.167 4.20246 243.17 5.72057V277.663C243.17 278.415 243.022 279.16 242.733 279.855C242.445 280.549 242.023 281.18 241.491 281.712C240.959 282.243 240.327 282.664 239.632 282.951C238.936 283.238 238.191 283.385 237.439 283.384ZM43.9918 0.260484C42.5445 0.263132 41.1573 0.839234 40.1339 1.86263C39.1105 2.88602 38.5344 4.27328 38.5317 5.72057V277.663C38.5317 279.112 39.1066 280.502 40.1303 281.528C41.154 282.553 42.5428 283.131 43.9918 283.133H237.439C238.889 283.131 240.279 282.553 241.304 281.528C242.33 280.503 242.907 279.113 242.909 277.663V5.72057C242.904 4.27236 242.326 2.88512 241.301 1.86202C240.276 0.838907 238.887 0.263121 237.439 0.260484H43.9918Z" fill="#EBEBEB"/>
<path d="M454.149 283.384H260.691C259.175 283.381 257.721 282.777 256.649 281.705C255.577 280.633 254.973 279.18 254.971 277.663V5.72057C254.976 4.20501 255.58 2.75303 256.652 1.68135C257.724 0.60968 259.176 0.00528076 260.691 0H454.149C455.662 0.00793262 457.11 0.613817 458.178 1.68549C459.246 2.75716 459.847 4.20765 459.849 5.72057V277.663C459.849 279.177 459.249 280.629 458.181 281.701C457.112 282.773 455.662 283.378 454.149 283.384ZM260.691 0.260484C259.243 0.263121 257.855 0.838907 256.83 1.86202C255.805 2.88512 255.226 4.27236 255.221 5.72057V277.663C255.224 279.113 255.801 280.503 256.826 281.528C257.852 282.553 259.241 283.131 260.691 283.133H454.149C455.599 283.131 456.989 282.553 458.014 281.528C459.039 280.503 459.616 279.113 459.619 277.663V5.72057C459.616 4.27062 459.039 2.88082 458.014 1.85555C456.989 0.830278 455.599 0.253111 454.149 0.250463L260.691 0.260484Z" fill="#EBEBEB"/>
<path d="M429.715 250.172L430.556 251.885C430.607 251.985 430.681 252.072 430.771 252.138C430.862 252.204 430.967 252.248 431.077 252.266L432.971 252.537C433.097 252.556 433.215 252.611 433.312 252.694C433.409 252.777 433.481 252.885 433.521 253.006C433.56 253.127 433.565 253.257 433.535 253.381C433.505 253.505 433.442 253.619 433.352 253.709L431.979 255.041C431.899 255.118 431.84 255.212 431.805 255.317C431.77 255.422 431.761 255.533 431.779 255.642L432.099 257.536C432.123 257.663 432.111 257.795 432.063 257.915C432.014 258.036 431.933 258.14 431.828 258.215C431.723 258.291 431.598 258.335 431.469 258.343C431.339 258.35 431.21 258.32 431.097 258.257L429.404 257.366C429.308 257.311 429.199 257.283 429.089 257.283C428.978 257.283 428.869 257.311 428.773 257.366L427.08 258.257C426.966 258.316 426.839 258.343 426.711 258.333C426.583 258.324 426.461 258.28 426.357 258.205C426.253 258.13 426.172 258.028 426.123 257.91C426.074 257.792 426.058 257.662 426.078 257.536L426.409 255.642C426.426 255.533 426.418 255.422 426.383 255.317C426.348 255.212 426.288 255.118 426.208 255.041L424.836 253.709C424.745 253.619 424.682 253.505 424.652 253.381C424.622 253.257 424.627 253.127 424.667 253.006C424.706 252.885 424.778 252.777 424.875 252.694C424.972 252.611 425.09 252.556 425.216 252.537L427.11 252.266C427.22 252.247 427.324 252.202 427.415 252.136C427.505 252.07 427.579 251.984 427.631 251.885L428.473 250.172C428.529 250.056 428.618 249.958 428.727 249.889C428.837 249.821 428.964 249.784 429.094 249.784C429.223 249.784 429.35 249.821 429.46 249.889C429.57 249.958 429.658 250.056 429.715 250.172Z" fill="#EBEBEB"/>
<path d="M60.822 256.955L61.6736 258.678C61.7225 258.776 61.7945 258.862 61.8835 258.926C61.9725 258.991 62.0757 259.033 62.1845 259.049L64.078 259.319C64.204 259.339 64.3221 259.393 64.4192 259.476C64.5162 259.559 64.5885 259.667 64.6279 259.789C64.6673 259.91 64.6723 260.04 64.6425 260.164C64.6126 260.288 64.549 260.401 64.4587 260.491L63.1162 261.824C63.0376 261.903 62.9792 262 62.946 262.106C62.9129 262.212 62.906 262.325 62.9259 262.435L63.2465 264.318C63.2706 264.446 63.2578 264.577 63.2098 264.698C63.1617 264.818 63.0803 264.922 62.9751 264.998C62.87 265.074 62.7454 265.118 62.616 265.125C62.4866 265.133 62.3577 265.103 62.2446 265.04L60.5314 264.198C60.4318 264.149 60.3221 264.123 60.2108 264.123C60.0996 264.123 59.9899 264.149 59.8903 264.198L58.1971 265.09C58.084 265.153 57.9552 265.183 57.8258 265.175C57.6964 265.168 57.5718 265.124 57.4666 265.048C57.3614 264.972 57.28 264.868 57.2319 264.748C57.1839 264.627 57.1712 264.496 57.1953 264.369L57.5159 262.485C57.5358 262.375 57.5288 262.263 57.4957 262.156C57.4625 262.05 57.4042 261.953 57.3255 261.874L55.953 260.541C55.8627 260.451 55.7991 260.338 55.7692 260.214C55.7393 260.09 55.7444 259.96 55.7838 259.839C55.8232 259.717 55.8955 259.609 55.9925 259.526C56.0896 259.444 56.2076 259.389 56.3337 259.369L58.2272 259.099C58.3359 259.083 58.4392 259.041 58.5282 258.976C58.6171 258.912 58.6892 258.827 58.7381 258.728L59.5897 257.005C59.6399 256.886 59.723 256.783 59.8293 256.709C59.9356 256.636 60.0607 256.594 60.1899 256.589C60.3192 256.583 60.4473 256.615 60.5592 256.68C60.6711 256.745 60.7623 256.84 60.822 256.955Z" fill="#EBEBEB"/>
<path d="M64.0487 109.542L64.9002 111.256C64.9492 111.354 65.0212 111.439 65.1102 111.504C65.1992 111.568 65.3024 111.61 65.4112 111.626L67.3047 111.907C67.4308 111.925 67.5493 111.977 67.647 112.059C67.7446 112.141 67.8173 112.248 67.857 112.369C67.8966 112.49 67.9016 112.62 67.8712 112.744C67.8409 112.867 67.7765 112.98 67.6854 113.069L66.3129 114.401C66.2351 114.481 66.1766 114.578 66.1419 114.684C66.1072 114.79 66.0971 114.902 66.1125 115.013L66.4431 116.896C66.4672 117.023 66.4545 117.155 66.4064 117.275C66.3584 117.396 66.277 117.5 66.1718 117.576C66.0666 117.651 65.942 117.695 65.8126 117.703C65.6832 117.71 65.5544 117.681 65.4412 117.617L63.7481 116.726C63.6485 116.676 63.5388 116.651 63.4275 116.651C63.3163 116.651 63.2066 116.676 63.1069 116.726L61.4138 117.617C61.3007 117.681 61.1718 117.71 61.0424 117.703C60.913 117.695 60.7884 117.651 60.6833 117.576C60.5781 117.5 60.4967 117.396 60.4486 117.275C60.4006 117.155 60.3878 117.023 60.4119 116.896L60.7325 115.013C60.7503 114.902 60.7414 114.789 60.7065 114.683C60.6717 114.576 60.6119 114.48 60.5322 114.401L59.1697 113.069C59.0787 112.981 59.0142 112.869 58.9834 112.746C58.9525 112.623 58.9566 112.494 58.9951 112.373C59.0336 112.252 59.1051 112.145 59.2014 112.062C59.2977 111.98 59.4151 111.926 59.5403 111.907L61.4439 111.626C61.5526 111.61 61.6559 111.568 61.7449 111.504C61.8338 111.439 61.9059 111.354 61.9548 111.256L62.7964 109.542C62.8521 109.423 62.9405 109.323 63.0514 109.252C63.1623 109.182 63.2911 109.144 63.4225 109.144C63.554 109.144 63.6827 109.182 63.7936 109.252C63.9045 109.323 63.993 109.423 64.0487 109.542Z" fill="#F5F5F5"/>
<path d="M172.069 42.2681L172.91 43.9913C172.961 44.0904 173.034 44.1759 173.125 44.2405C173.216 44.305 173.321 44.3467 173.431 44.362L175.325 44.6425C175.451 44.6603 175.569 44.713 175.667 44.7948C175.764 44.8765 175.837 44.984 175.877 45.105C175.917 45.226 175.921 45.3557 175.891 45.4794C175.861 45.603 175.796 45.7157 175.705 45.8046L174.323 47.1371C174.243 47.2156 174.183 47.312 174.148 47.4183C174.114 47.5247 174.105 47.6378 174.122 47.7482L174.453 49.6317C174.473 49.7581 174.458 49.8876 174.408 50.0057C174.359 50.1239 174.278 50.226 174.174 50.3008C174.07 50.3756 173.948 50.4201 173.82 50.4293C173.692 50.4385 173.565 50.4121 173.451 50.353L171.758 49.4614C171.66 49.4121 171.552 49.3864 171.442 49.3864C171.333 49.3864 171.225 49.4121 171.127 49.4614L169.434 50.353C169.321 50.4163 169.192 50.446 169.062 50.4386C168.933 50.4312 168.808 50.387 168.703 50.3113C168.598 50.2356 168.517 50.1314 168.469 50.011C168.42 49.8906 168.408 49.7591 168.432 49.6317L168.752 47.7482C168.77 47.6378 168.761 47.5247 168.726 47.4183C168.692 47.312 168.632 47.2156 168.552 47.1371L167.2 45.7946C167.108 45.7057 167.044 45.593 167.014 45.4693C166.983 45.3457 166.988 45.216 167.028 45.095C167.068 44.974 167.14 44.8665 167.238 44.7847C167.336 44.703 167.454 44.6502 167.58 44.6325L169.474 44.3519C169.585 44.3384 169.69 44.2974 169.781 44.2326C169.872 44.1679 169.946 44.0815 169.995 43.9813L170.836 42.2581C170.895 42.1448 170.984 42.0501 171.093 41.9843C171.203 41.9185 171.328 41.8842 171.456 41.8852C171.583 41.8863 171.708 41.9226 171.816 41.9901C171.924 42.0577 172.012 42.1539 172.069 42.2681Z" fill="#F5F5F5"/>
<path d="M92.3606 25.1665L92.8616 26.1684C92.8924 26.2269 92.9365 26.2774 92.9905 26.3157C93.0445 26.354 93.1067 26.379 93.1721 26.3888L94.3042 26.5591C94.3784 26.5709 94.448 26.6029 94.5053 26.6515C94.5625 26.7001 94.6054 26.7635 94.6292 26.8348C94.6529 26.9061 94.6567 26.9825 94.64 27.0558C94.6234 27.1291 94.5869 27.1964 94.5347 27.2504L93.7131 28.0519C93.6648 28.0973 93.6285 28.1541 93.6075 28.217C93.5866 28.28 93.5815 28.3472 93.5929 28.4125L93.7833 29.5446C93.7951 29.6193 93.7861 29.6959 93.7572 29.7658C93.7283 29.8357 93.6806 29.8963 93.6195 29.9408C93.5584 29.9854 93.4861 30.0122 93.4107 30.0183C93.3353 30.0244 93.2597 30.0096 93.1922 29.9754L92.1903 29.4444C92.1328 29.41 92.067 29.3918 92 29.3918C91.9329 29.3918 91.8671 29.41 91.8096 29.4444L90.8078 29.9754C90.741 30.0227 90.6617 30.049 90.5799 30.0509C90.4981 30.0528 90.4176 30.0302 90.3488 29.9861C90.2799 29.942 90.2257 29.8783 90.1933 29.8032C90.1608 29.7281 90.1515 29.6451 90.1666 29.5647L90.3569 28.4326C90.3683 28.3672 90.3633 28.3 90.3423 28.2371C90.3213 28.1741 90.285 28.1174 90.2367 28.0719L89.4252 27.2704C89.3694 27.2187 89.3295 27.1521 89.3101 27.0785C89.2907 27.0049 89.2927 26.9273 89.3158 26.8548C89.3389 26.7822 89.3822 26.7178 89.4406 26.669C89.4991 26.6202 89.5702 26.589 89.6456 26.5791L90.7777 26.4088C90.8437 26.4007 90.9066 26.3763 90.9609 26.3379C91.0151 26.2994 91.0589 26.248 91.0883 26.1884L91.5892 25.1866C91.616 25.1067 91.6668 25.0371 91.7345 24.987C91.8022 24.937 91.8837 24.9089 91.9679 24.9068C92.0521 24.9046 92.1349 24.9283 92.2052 24.9748C92.2754 25.0212 92.3297 25.0882 92.3606 25.1665Z" fill="#EBEBEB"/>
<path d="M118.219 166.718L118.73 167.72C118.758 167.781 118.802 167.834 118.856 167.874C118.91 167.914 118.973 167.94 119.04 167.95L120.172 168.111C120.248 168.123 120.318 168.155 120.376 168.205C120.434 168.255 120.476 168.32 120.499 168.393C120.522 168.466 120.524 168.544 120.506 168.618C120.487 168.692 120.448 168.759 120.393 168.812L119.581 169.603C119.534 169.649 119.498 169.706 119.477 169.769C119.456 169.832 119.45 169.899 119.461 169.964L119.651 171.096C119.663 171.171 119.654 171.247 119.625 171.317C119.596 171.387 119.549 171.448 119.487 171.492C119.426 171.537 119.354 171.564 119.279 171.57C119.203 171.576 119.128 171.561 119.06 171.527L118.058 170.996C117.999 170.966 117.934 170.95 117.868 170.95C117.802 170.95 117.737 170.966 117.678 170.996L116.676 171.527C116.608 171.561 116.533 171.576 116.457 171.57C116.382 171.564 116.31 171.537 116.248 171.492C116.187 171.448 116.14 171.387 116.111 171.317C116.082 171.247 116.073 171.171 116.085 171.096L116.275 169.964C116.286 169.899 116.28 169.832 116.259 169.769C116.238 169.706 116.202 169.649 116.155 169.603L115.333 168.812C115.278 168.758 115.239 168.69 115.221 168.616C115.202 168.541 115.205 168.462 115.23 168.389C115.254 168.316 115.298 168.251 115.357 168.202C115.416 168.153 115.487 168.121 115.564 168.111L116.696 167.95C116.762 167.939 116.824 167.912 116.878 167.872C116.932 167.832 116.976 167.78 117.006 167.72L117.507 166.718C117.543 166.656 117.595 166.604 117.658 166.568C117.72 166.532 117.791 166.513 117.863 166.513C117.935 166.513 118.006 166.532 118.068 166.568C118.131 166.604 118.183 166.656 118.219 166.718Z" fill="#EBEBEB"/>
<path d="M278.715 58.5582L279.216 59.5601C279.247 59.6186 279.291 59.6691 279.345 59.7074C279.399 59.7457 279.461 59.7707 279.526 59.7805L280.659 59.9408C280.734 59.9528 280.805 59.9856 280.862 60.0355C280.92 60.0854 280.963 60.1504 280.986 60.2232C281.009 60.2961 281.011 60.3738 280.992 60.4478C280.973 60.5218 280.934 60.5891 280.879 60.6421L280.067 61.4435C280.019 61.489 279.983 61.5458 279.962 61.6087C279.941 61.6717 279.936 61.7388 279.947 61.8042L280.138 62.9263C280.154 63.0019 280.147 63.0806 280.12 63.1527C280.092 63.2249 280.044 63.2876 279.982 63.3331C279.919 63.3787 279.845 63.4051 279.768 63.4094C279.69 63.4136 279.614 63.3955 279.546 63.3571L278.545 62.8261C278.486 62.7962 278.42 62.7806 278.354 62.7806C278.288 62.7806 278.223 62.7962 278.164 62.8261L277.162 63.3571C277.095 63.3955 277.018 63.4136 276.941 63.4094C276.864 63.4051 276.789 63.3787 276.727 63.3331C276.665 63.2876 276.617 63.2249 276.589 63.1527C276.561 63.0806 276.555 63.0019 276.571 62.9263L276.761 61.8042C276.773 61.7388 276.768 61.6717 276.747 61.6087C276.726 61.5458 276.689 61.489 276.641 61.4435L275.82 60.6421C275.764 60.5884 275.726 60.5203 275.707 60.4456C275.689 60.3709 275.692 60.2925 275.716 60.2195C275.74 60.1464 275.784 60.0815 275.843 60.0322C275.902 59.9829 275.974 59.9512 276.05 59.9408L277.182 59.7805C277.248 59.7707 277.31 59.7457 277.364 59.7074C277.418 59.6691 277.462 59.6186 277.493 59.5601L277.994 58.5582C278.031 58.496 278.084 58.4445 278.147 58.4087C278.21 58.373 278.282 58.3542 278.354 58.3542C278.427 58.3542 278.498 58.373 278.561 58.4087C278.625 58.4445 278.678 58.496 278.715 58.5582Z" fill="#F5F5F5"/>
<path d="M440.533 42.7089L441.034 43.7108C441.065 43.7693 441.109 43.8198 441.163 43.8581C441.217 43.8964 441.279 43.9214 441.345 43.9312L442.477 44.1015C442.551 44.1133 442.621 44.1453 442.678 44.1939C442.735 44.2425 442.778 44.3059 442.802 44.3772C442.826 44.4485 442.829 44.5249 442.813 44.5982C442.796 44.6715 442.759 44.7388 442.707 44.7928L441.886 45.5943C441.838 45.6402 441.802 45.697 441.781 45.7598C441.76 45.8226 441.755 45.8896 441.765 45.9549L441.956 47.087C441.968 47.1617 441.959 47.2383 441.93 47.3082C441.901 47.3781 441.853 47.4387 441.792 47.4832C441.731 47.5278 441.659 47.5546 441.583 47.5607C441.508 47.5668 441.432 47.5519 441.365 47.5178L440.363 46.9868C440.305 46.9524 440.24 46.9342 440.173 46.9342C440.105 46.9342 440.04 46.9524 439.982 46.9868L438.98 47.5178C438.913 47.5519 438.837 47.5668 438.762 47.5607C438.686 47.5546 438.614 47.5278 438.553 47.4832C438.492 47.4387 438.444 47.3781 438.415 47.3082C438.386 47.2383 438.377 47.1617 438.389 47.087L438.58 45.9549C438.59 45.8896 438.585 45.8226 438.564 45.7598C438.543 45.697 438.507 45.6402 438.459 45.5943L437.648 44.7928C437.592 44.741 437.552 44.6745 437.533 44.6008C437.513 44.5272 437.515 44.4496 437.538 44.3771C437.562 44.3046 437.605 44.2402 437.663 44.1913C437.722 44.1425 437.793 44.1114 437.868 44.1015L439 43.9312C439.066 43.9231 439.129 43.8987 439.184 43.8602C439.238 43.8217 439.282 43.7704 439.311 43.7108L439.812 42.7089C439.847 42.6441 439.899 42.59 439.963 42.5523C440.026 42.5146 440.099 42.4947 440.173 42.4947C440.246 42.4947 440.319 42.5146 440.382 42.5523C440.446 42.59 440.498 42.6441 440.533 42.7089Z" fill="#EBEBEB"/>
<path d="M412.472 158.643L412.973 159.645C413.004 159.704 413.048 159.754 413.102 159.792C413.156 159.831 413.218 159.856 413.283 159.865L414.415 160.026C414.492 160.036 414.563 160.068 414.623 160.117C414.682 160.166 414.726 160.231 414.75 160.304C414.774 160.377 414.777 160.456 414.758 160.531C414.74 160.605 414.701 160.673 414.646 160.727L413.824 161.528C413.776 161.574 413.74 161.631 413.719 161.694C413.698 161.757 413.693 161.824 413.704 161.889L413.905 163.011C413.918 163.087 413.909 163.166 413.88 163.237C413.851 163.308 413.802 163.37 413.739 163.415C413.676 163.46 413.602 163.486 413.525 163.491C413.448 163.496 413.371 163.479 413.303 163.442L412.302 162.911C412.243 162.881 412.177 162.865 412.111 162.865C412.045 162.865 411.98 162.881 411.921 162.911L410.919 163.442C410.852 163.48 410.775 163.499 410.698 163.494C410.621 163.49 410.546 163.464 410.484 163.418C410.421 163.372 410.373 163.31 410.346 163.238C410.318 163.165 410.312 163.087 410.328 163.011L410.518 161.889C410.53 161.824 410.525 161.757 410.504 161.694C410.483 161.631 410.446 161.574 410.398 161.528L409.587 160.727C409.532 160.674 409.493 160.607 409.474 160.533C409.455 160.459 409.457 160.381 409.48 160.308C409.503 160.235 409.545 160.17 409.603 160.12C409.661 160.071 409.732 160.038 409.807 160.026L410.939 159.865C411.005 159.857 411.068 159.833 411.122 159.794C411.176 159.756 411.22 159.705 411.25 159.645L411.761 158.643C411.797 158.581 411.848 158.529 411.911 158.493C411.973 158.457 412.044 158.438 412.116 158.438C412.188 158.438 412.259 158.457 412.322 158.493C412.384 158.529 412.436 158.581 412.472 158.643Z" fill="#EBEBEB"/>
<path d="M292.321 30.1457C293.057 30.1457 293.653 29.5491 293.653 28.8132C293.653 28.0773 293.057 27.4808 292.321 27.4808C291.585 27.4808 290.988 28.0773 290.988 28.8132C290.988 29.5491 291.585 30.1457 292.321 30.1457Z" fill="#EBEBEB"/>
<path d="M115.223 75.9904C115.959 75.9904 116.556 75.3939 116.556 74.658C116.556 73.9221 115.959 73.3255 115.223 73.3255C114.487 73.3255 113.891 73.9221 113.891 74.658C113.891 75.3939 114.487 75.9904 115.223 75.9904Z" fill="#EBEBEB"/>
<path d="M370.565 307.007C371.301 307.007 371.897 306.411 371.897 305.675C371.897 304.939 371.301 304.342 370.565 304.342C369.829 304.342 369.232 304.939 369.232 305.675C369.232 306.411 369.829 307.007 370.565 307.007Z" fill="#EBEBEB"/>
<path d="M392.725 102.299C393.461 102.299 394.057 101.702 394.057 100.967C394.057 100.231 393.461 99.6341 392.725 99.6341C391.989 99.6341 391.393 100.231 391.393 100.967C391.393 101.702 391.989 102.299 392.725 102.299Z" fill="#F5F5F5"/>
<path d="M125.813 211.351C125.813 211.614 125.735 211.872 125.589 212.091C125.442 212.31 125.234 212.481 124.991 212.582C124.747 212.682 124.479 212.709 124.221 212.657C123.962 212.606 123.725 212.479 123.539 212.293C123.352 212.106 123.225 211.869 123.174 211.61C123.123 211.352 123.149 211.084 123.25 210.841C123.351 210.597 123.522 210.389 123.741 210.243C123.96 210.096 124.217 210.018 124.481 210.018C124.656 210.017 124.83 210.05 124.992 210.117C125.155 210.183 125.302 210.281 125.426 210.405C125.55 210.529 125.648 210.677 125.715 210.839C125.781 211.001 125.815 211.175 125.813 211.351Z" fill="#F5F5F5"/>
<path d="M355.344 67.2008C370.926 64.6715 381.507 49.9894 378.978 34.4075C376.448 18.8256 361.766 8.24441 346.184 10.7737C330.602 13.303 320.021 27.985 322.55 43.5669C325.08 59.1489 339.762 69.7301 355.344 67.2008Z" fill="#F0F0F0"/>
<path d="M351.168 59.55C352.111 59.3863 353.006 59.0158 353.789 58.4649C354.572 57.9141 355.224 57.1966 355.696 56.3641C354.19 57.1481 352.571 57.6924 350.897 57.9771C349.224 58.2753 347.514 58.3158 345.828 58.0973C346.555 58.7192 347.412 59.172 348.335 59.4232C349.258 59.6744 350.226 59.7177 351.168 59.55Z" fill="#FAFAFA"/>
<path d="M335.261 48.5397C335.74 49.367 336.396 50.0781 337.182 50.622C337.969 51.1659 338.866 51.5291 339.809 51.6855C337.314 49.3642 335.569 46.3498 334.8 43.0295C334.467 43.9254 334.336 44.8836 334.415 45.836C334.495 46.7884 334.784 47.7116 335.261 48.5397Z" fill="#FAFAFA"/>
<path d="M334.088 28.5928C333.45 29.3046 332.978 30.1496 332.708 31.0664C332.438 31.9831 332.375 32.9486 332.525 33.8926C333.22 32.3437 334.149 30.9109 335.28 29.6448C336.403 28.3716 337.714 27.277 339.167 26.3988C338.211 26.3663 337.259 26.5463 336.381 26.9256C335.503 27.305 334.719 27.8744 334.088 28.5928Z" fill="#FAFAFA"/>
<path d="M353.203 17.0114C352.271 16.7968 351.304 16.7915 350.37 16.996C349.436 17.2004 348.559 17.6094 347.803 18.1936C349.482 18.0618 351.171 18.1868 352.812 18.5643C354.47 18.939 356.061 19.564 357.531 20.4177C357.106 19.5653 356.497 18.8177 355.749 18.2287C355.001 17.6397 354.131 17.224 353.203 17.0114Z" fill="#FAFAFA"/>
<path d="M362.16 50.0325C362.913 49.4427 363.527 48.6926 363.955 47.8366C364.383 46.9806 364.615 46.0401 364.634 45.0833C363.681 46.4966 362.511 47.751 361.168 48.8002C359.836 49.8562 358.349 50.701 356.76 51.3048C357.698 51.5077 358.669 51.4988 359.603 51.2787C360.538 51.0586 361.411 50.6328 362.16 50.0325Z" fill="#FAFAFA"/>
<path d="M356.708 39.513C357.462 38.9232 358.075 38.1732 358.503 37.3172C358.931 36.4612 359.163 35.5207 359.183 34.5639C358.228 35.97 357.058 37.2175 355.716 38.2607C354.386 39.3145 352.903 40.1592 351.318 40.7653C352.253 40.9701 353.222 40.964 354.155 40.7474C355.087 40.5308 355.959 40.1091 356.708 39.513Z" fill="#FAFAFA"/>
<path d="M375.084 34.5538C374.877 33.6169 374.465 32.7374 373.878 31.9787C373.291 31.2199 372.543 30.6007 371.688 30.1657C373.364 33.1407 374.107 36.551 373.821 39.9538C374.418 39.2028 374.84 38.3291 375.058 37.3954C375.276 36.4617 375.285 35.4913 375.084 34.5538Z" fill="#FAFAFA"/>
<path d="M250.464 368C307.526 368 353.784 365.3 353.784 361.969C353.784 358.638 307.526 355.938 250.464 355.938C193.401 355.938 147.143 358.638 147.143 361.969C147.143 365.3 193.401 368 250.464 368Z" fill="#F5F5F5"/>
<path d="M170.314 108.33C169.911 107.75 169.39 107.262 168.785 106.898C168.18 106.533 167.505 106.301 166.804 106.216C166.103 106.131 165.392 106.195 164.717 106.404C164.043 106.613 163.42 106.962 162.89 107.428C162.342 107.9 161.884 108.467 161.537 109.102C160.458 108.536 159.233 108.312 158.023 108.459C156.814 108.605 155.678 109.116 154.765 109.923C153.588 110.954 152.769 112.333 152.425 113.859C152.081 115.386 152.23 116.982 152.851 118.419C151.784 119.472 151.122 120.869 150.983 122.363C150.843 123.856 151.235 125.351 152.09 126.584L152.35 126.914C151.814 127.399 151.47 128.061 151.381 128.778C151.293 129.496 151.466 130.222 151.87 130.822C152.063 131.104 152.315 131.342 152.607 131.52C152.9 131.698 153.227 131.812 153.567 131.855C153.906 131.898 154.251 131.868 154.579 131.767C154.906 131.667 155.209 131.498 155.466 131.273L173.83 115.694C174.673 114.959 175.213 113.938 175.348 112.828C175.483 111.719 175.203 110.598 174.562 109.683C174.096 109.027 173.43 108.54 172.664 108.296C171.897 108.053 171.073 108.064 170.314 108.33Z" fill="#5FBE3F"/>
<path opacity="0.8" d="M170.314 108.33C169.911 107.75 169.39 107.262 168.785 106.898C168.18 106.533 167.505 106.301 166.804 106.216C166.103 106.131 165.392 106.195 164.717 106.404C164.043 106.613 163.42 106.962 162.89 107.428C162.342 107.9 161.884 108.467 161.537 109.102C160.458 108.536 159.233 108.312 158.023 108.459C156.814 108.605 155.678 109.116 154.765 109.923C153.588 110.954 152.769 112.333 152.425 113.859C152.081 115.386 152.23 116.982 152.851 118.419C151.784 119.472 151.122 120.869 150.983 122.363C150.843 123.856 151.235 125.351 152.09 126.584L152.35 126.914C151.814 127.399 151.47 128.061 151.381 128.778C151.293 129.496 151.466 130.222 151.87 130.822C152.063 131.104 152.315 131.342 152.607 131.52C152.9 131.698 153.227 131.812 153.567 131.855C153.906 131.898 154.251 131.868 154.579 131.767C154.906 131.667 155.209 131.498 155.466 131.273L173.83 115.694C174.673 114.959 175.213 113.938 175.348 112.828C175.483 111.719 175.203 110.598 174.562 109.683C174.096 109.027 173.43 108.54 172.664 108.296C171.897 108.053 171.073 108.064 170.314 108.33Z" fill="white"/>
<path d="M117.556 268.206C116.698 268.551 115.923 269.074 115.281 269.74C114.64 270.406 114.146 271.2 113.832 272.07C113.518 272.94 113.391 273.867 113.46 274.789C113.528 275.711 113.791 276.609 114.23 277.423C114.667 278.26 115.259 279.008 115.973 279.627C114.938 280.84 114.294 282.338 114.126 283.924C113.958 285.51 114.274 287.11 115.032 288.513C116.006 290.314 117.524 291.762 119.37 292.649C121.216 293.536 123.295 293.817 125.311 293.452C126.345 295.118 127.933 296.367 129.796 296.979C131.659 297.59 133.679 297.527 135.499 296.798L135.99 296.568C136.441 297.403 137.183 298.043 138.076 298.367C138.968 298.69 139.948 298.674 140.829 298.321C141.246 298.156 141.622 297.904 141.935 297.583C142.247 297.261 142.488 296.877 142.641 296.456C142.794 296.035 142.857 295.586 142.824 295.139C142.792 294.692 142.665 294.257 142.452 293.863L127.975 265.881C127.285 264.604 126.149 263.625 124.784 263.132C123.418 262.639 121.919 262.665 120.572 263.206C119.593 263.598 118.769 264.298 118.225 265.2C117.681 266.102 117.446 267.158 117.556 268.206Z" fill="#5FBE3F"/>
<path opacity="0.8" d="M117.556 268.206C116.698 268.551 115.923 269.074 115.281 269.74C114.64 270.406 114.146 271.2 113.832 272.07C113.518 272.94 113.391 273.867 113.46 274.789C113.528 275.711 113.791 276.609 114.23 277.423C114.667 278.26 115.259 279.008 115.973 279.627C114.938 280.84 114.294 282.338 114.126 283.924C113.958 285.51 114.274 287.11 115.032 288.513C116.006 290.314 117.524 291.762 119.37 292.649C121.216 293.536 123.295 293.817 125.311 293.452C126.345 295.118 127.933 296.367 129.796 296.979C131.659 297.59 133.679 297.527 135.499 296.798L135.99 296.568C136.441 297.403 137.183 298.043 138.076 298.367C138.968 298.69 139.948 298.674 140.829 298.321C141.246 298.156 141.622 297.904 141.935 297.583C142.247 297.261 142.488 296.877 142.641 296.456C142.794 296.035 142.857 295.586 142.824 295.139C142.792 294.692 142.665 294.257 142.452 293.863L127.975 265.881C127.285 264.604 126.149 263.625 124.784 263.132C123.418 262.639 121.919 262.665 120.572 263.206C119.593 263.598 118.769 264.298 118.225 265.2C117.681 266.102 117.446 267.158 117.556 268.206Z" fill="white"/>
<path d="M386.965 172.489C387.054 172.465 387.141 172.435 387.225 172.399C387.806 172.151 388.327 171.784 388.755 171.32C389.183 170.856 389.508 170.307 389.707 169.709C389.907 169.11 389.978 168.476 389.914 167.848C389.851 167.22 389.655 166.613 389.339 166.067C389.18 165.789 388.999 165.525 388.798 165.275C390.551 163.625 391.696 161.431 392.047 159.049C392.398 156.668 391.935 154.237 390.732 152.151C389.547 150.024 387.773 148.284 385.622 147.142C386.477 145.483 386.902 143.637 386.86 141.771C386.818 139.906 386.31 138.081 385.382 136.462C384.449 134.817 383.178 133.388 381.653 132.27C380.129 131.151 378.385 130.367 376.536 129.97C376.767 128.896 376.599 127.774 376.065 126.814C375.397 125.656 374.327 124.783 373.057 124.364C371.788 123.944 370.408 124.007 369.182 124.54C368.308 124.924 367.576 125.572 367.088 126.394C365.479 125.402 363.653 124.814 361.768 124.68C359.882 124.545 357.992 124.869 356.258 125.622C355.007 126.157 353.884 126.951 352.963 127.951C352.041 128.951 351.342 130.136 350.911 131.426C350.481 132.716 350.328 134.083 350.464 135.436C350.6 136.789 351.021 138.099 351.7 139.277L372.508 176.807C373.528 178.575 375.163 179.906 377.101 180.545C379.04 181.185 381.146 181.088 383.017 180.273C384.484 179.644 385.683 178.52 386.404 177.097C387.126 175.674 387.324 174.043 386.965 172.489Z" fill="#5FBE3F"/>
<path opacity="0.8" d="M386.965 172.489C387.054 172.465 387.141 172.435 387.225 172.399C387.806 172.151 388.327 171.784 388.755 171.32C389.183 170.856 389.508 170.307 389.707 169.709C389.907 169.11 389.978 168.476 389.914 167.848C389.851 167.22 389.655 166.613 389.339 166.067C389.18 165.789 388.999 165.525 388.798 165.275C390.551 163.625 391.696 161.431 392.047 159.049C392.398 156.668 391.935 154.237 390.732 152.151C389.547 150.024 387.773 148.284 385.622 147.142C386.477 145.483 386.902 143.637 386.86 141.771C386.818 139.906 386.31 138.081 385.382 136.462C384.449 134.817 383.178 133.388 381.653 132.27C380.129 131.151 378.385 130.367 376.536 129.97C376.767 128.896 376.599 127.774 376.065 126.814C375.397 125.656 374.327 124.783 373.057 124.364C371.788 123.944 370.408 124.007 369.182 124.54C368.308 124.924 367.576 125.572 367.088 126.394C365.479 125.402 363.653 124.814 361.768 124.68C359.882 124.545 357.992 124.869 356.258 125.622C355.007 126.157 353.884 126.951 352.963 127.951C352.041 128.951 351.342 130.136 350.911 131.426C350.481 132.716 350.328 134.083 350.464 135.436C350.6 136.789 351.021 138.099 351.7 139.277L372.508 176.807C373.528 178.575 375.163 179.906 377.101 180.545C379.04 181.185 381.146 181.088 383.017 180.273C384.484 179.644 385.683 178.52 386.404 177.097C387.126 175.674 387.324 174.043 386.965 172.489Z" fill="white"/>
<path d="M139.768 242.288C138.328 235.029 137.603 227.647 137.604 220.247H138.545C138.544 227.603 139.265 234.942 140.699 242.157L139.768 242.288Z" fill="#5FBE3F"/>
<path d="M355.736 184.681C354.368 180.625 352.765 176.651 350.938 172.779L351.799 172.368C353.641 176.28 355.256 180.294 356.638 184.391L355.736 184.681Z" fill="#5FBE3F"/>
<path d="M348.925 168.742C345.72 162.612 341.954 156.793 337.674 151.36L338.415 150.779C342.734 156.255 346.534 162.121 349.766 168.301L348.925 168.742Z" fill="#5FBE3F"/>
<path d="M138.715 214.106L137.713 214.045C137.863 211.461 138.094 208.866 138.404 206.321L139.346 206.441C139.085 208.986 138.855 211.571 138.715 214.106Z" fill="#5FBE3F"/>
<path d="M250.052 329.379C310.323 329.379 359.183 280.519 359.183 220.247C359.183 159.975 310.323 111.115 250.052 111.115C189.78 111.115 140.92 159.975 140.92 220.247C140.92 280.519 189.78 329.379 250.052 329.379Z" fill="#5FBE3F"/>
<g opacity="0.3">
<path opacity="0.3" d="M162.41 169.443C161.668 165.476 161 161.645 160.406 157.952C155.797 164.561 151.937 171.66 148.895 179.121C155.627 175.815 162.399 169.423 162.41 169.443Z" fill="white"/>
<path opacity="0.3" d="M182.727 293.693C185.301 290.186 187.135 286.81 185.993 283.304C184.85 279.797 171.676 275.93 171.746 275.92C168.674 273.996 165.635 272.046 162.629 270.069C162.608 267.356 161.53 264.757 159.624 262.826C158.621 261.93 157.441 261.255 156.16 260.844C154.88 260.434 153.527 260.296 152.19 260.441C149.826 257.255 147.521 254.046 145.277 250.813C151.596 272.447 164.458 291.594 182.095 305.625C182.636 304.272 184.76 298.522 182.727 293.693Z" fill="white"/>
<path opacity="0.3" d="M178.839 142.694L182.616 144.507C185.161 139.969 187.746 135.691 190.361 131.743C198.025 128.257 205.719 125.051 213.263 122.176C214.205 120.172 215.156 118.248 216.098 116.515C202.353 121.013 189.642 128.207 178.709 137.674C178.739 139.307 178.769 140.97 178.839 142.694Z" fill="white"/>
<path opacity="0.3" d="M215.256 137.274C219.384 137.644 222.199 132.134 222.189 132.194C221.588 130.992 220.997 129.82 220.416 128.678C216.568 129.82 212.708 131.005 208.834 132.234C208.814 132.184 211.118 136.813 215.256 137.274Z" fill="white"/>
<path opacity="0.3" d="M239.282 164.013C237.478 160.533 235.715 157.154 233.992 153.874C233.23 151.871 232.489 149.947 231.748 148.044C230.746 149.616 229.644 151.219 228.592 152.842L232.289 158.413C231.541 161.712 230.786 165.095 230.024 168.561C233.124 166.992 236.209 165.476 239.282 164.013Z" fill="white"/>
<path opacity="0.3" d="M223.501 159.224C223.1 161.518 222.69 163.863 222.299 166.237L227.518 163.793C228.32 162.17 229.111 160.557 229.913 158.974L226.857 156.88L223.501 159.224Z" fill="white"/>
<g opacity="0.3">
<mask id="path-50-inside-1" fill="white">
<path d="M300.744 123.588L296.536 124.149C293.451 126.223 290.195 128.497 286.768 130.942C286.601 132.278 286.421 133.66 286.227 135.09L282.611 135.31C280.179 132.705 277.782 130.231 275.417 127.886L281.358 128.738L284.464 128.848C284.614 127.997 284.765 127.165 284.915 126.343C278.593 123.538 272.372 120.974 266.351 118.679C263.275 120.052 260.089 121.535 256.823 123.117C254.589 127.125 252.184 131.703 249.68 136.723C247.916 137.758 246.143 138.81 244.36 139.878C244.36 142.694 244.44 145.639 244.49 148.685C248.311 150.508 252.171 152.385 256.072 154.315C257.494 152.872 258.903 151.457 260.299 150.067C260.019 146.621 259.738 143.318 259.458 140.159C261.031 136.823 262.544 133.657 263.986 130.702L268.464 130.631C267.202 132.762 265.9 135.003 264.557 137.354C264.878 139.578 265.212 141.889 265.559 144.287L268.695 146.07C268.695 146.561 268.625 147.072 268.585 147.563L267.122 149.506L268.875 152.512C268.615 153.213 268.344 153.914 268.084 154.626C268.204 155.718 268.324 156.82 268.454 157.932C264.674 158.266 260.884 158.6 257.083 158.934C254.949 156.82 252.836 154.736 250.742 152.712L248.658 153.173C248.818 155.491 248.988 157.855 249.169 160.266L243.588 162.56C241.665 164.477 239.731 166.421 237.788 168.391C235.49 169.653 233.196 170.933 230.905 172.228L235.433 177.638C235.353 179.642 235.28 181.682 235.213 183.76C231.596 183.93 227.99 184.12 224.403 184.311C224.022 187.37 223.652 190.455 223.291 193.568C223.582 195.762 223.872 197.976 224.163 200.19L229.863 202.614L237.547 196.734C239.17 192.833 240.787 188.973 242.396 185.152L245.532 183.559L250.972 184.03C254.018 186.561 257.073 189.123 260.139 191.714C260.37 193.217 260.61 194.72 260.85 196.243L262.754 195.601C263.064 193.928 263.375 192.265 263.676 190.592C261.378 187.967 259.09 185.359 256.813 182.768L258.817 182.066C261.221 183.729 263.646 185.403 266.06 187.076C267.002 190.415 267.944 193.798 268.885 197.224C270.308 198.737 271.72 200.23 273.143 201.783L275.958 198.066C274.676 196.383 273.39 194.713 272.101 193.057L276.67 190.522C277.017 192.653 277.351 194.8 277.671 196.964C279.675 199.348 281.679 201.736 283.683 204.127L291.757 207.133V211.04L287.75 212.172H280.056L270.789 208.886L268.324 209.697C268.324 210.96 268.324 212.222 268.324 213.474C263.115 208.936 257.875 204.378 252.645 199.869C245.322 201.442 237.978 203.025 230.685 204.628L227.419 206.091C225.675 207.834 223.942 209.587 222.219 211.331C221.938 212.863 221.668 214.386 221.397 215.919C217.497 221.002 213.667 226.041 209.906 231.037C209.996 237.048 210.137 243.059 210.327 248.89C215.176 254.44 220.065 259.91 224.904 265.18C230.681 264.218 236.515 263.216 242.406 262.174C246.18 263.858 249.927 265.511 253.647 267.134C253.106 269.652 252.565 272.123 252.024 274.547C253.777 276.972 255.49 279.336 257.194 281.64C258.162 285.648 259.1 289.488 260.009 293.162C258.479 295.519 256.97 297.777 255.48 299.934C256.623 302.639 257.725 305.194 258.777 307.568C260.44 312.578 261.942 316.815 263.235 320.071C266.574 319.804 269.914 319.51 273.253 319.19C276.259 317.186 279.264 314.942 282.4 312.397C283.252 311.496 284.113 310.564 284.975 309.602L287.58 309.121C287.58 307.368 287.63 305.515 287.58 303.561C290.585 301.657 293.591 299.654 296.657 297.55C296.997 292.16 297.198 286.199 297.278 279.797C302.287 274.968 307.296 269.919 312.305 264.769C314.189 260.582 316.042 256.284 317.846 251.926C314.333 252.747 310.769 253.565 307.156 254.38C301.756 243.79 295.775 232.54 289.533 221.119L292.479 218.995L295.014 218.664C298.971 226.028 302.808 233.321 306.425 240.414C306.805 243.3 307.159 246.155 307.487 248.98C312.162 246.656 316.8 244.318 321.402 241.967C324.461 238.214 327.467 234.457 330.419 230.696C328.716 228.482 326.973 226.238 325.189 223.984H319.719C316.627 221.092 313.464 218.166 310.232 215.208L314.96 212.964C318.046 215.729 321.115 218.447 324.167 221.119L341.049 223.353C342.932 226.231 344.755 229.08 346.519 231.899L349.334 231.067C349.808 234.106 350.246 237.111 350.646 240.084C351.835 244.832 352.907 249.461 353.862 253.969C361.815 229.464 360.848 202.936 351.131 179.075C341.414 155.214 323.574 135.556 300.764 123.578L300.744 123.588Z"/>
</mask>
<path d="M300.744 123.588L296.536 124.149C293.451 126.223 290.195 128.497 286.768 130.942C286.601 132.278 286.421 133.66 286.227 135.09L282.611 135.31C280.179 132.705 277.782 130.231 275.417 127.886L281.358 128.738L284.464 128.848C284.614 127.997 284.765 127.165 284.915 126.343C278.593 123.538 272.372 120.974 266.351 118.679C263.275 120.052 260.089 121.535 256.823 123.117C254.589 127.125 252.184 131.703 249.68 136.723C247.916 137.758 246.143 138.81 244.36 139.878C244.36 142.694 244.44 145.639 244.49 148.685C248.311 150.508 252.171 152.385 256.072 154.315C257.494 152.872 258.903 151.457 260.299 150.067C260.019 146.621 259.738 143.318 259.458 140.159C261.031 136.823 262.544 133.657 263.986 130.702L268.464 130.631C267.202 132.762 265.9 135.003 264.557 137.354C264.878 139.578 265.212 141.889 265.559 144.287L268.695 146.07C268.695 146.561 268.625 147.072 268.585 147.563L267.122 149.506L268.875 152.512C268.615 153.213 268.344 153.914 268.084 154.626C268.204 155.718 268.324 156.82 268.454 157.932C264.674 158.266 260.884 158.6 257.083 158.934C254.949 156.82 252.836 154.736 250.742 152.712L248.658 153.173C248.818 155.491 248.988 157.855 249.169 160.266L243.588 162.56C241.665 164.477 239.731 166.421 237.788 168.391C235.49 169.653 233.196 170.933 230.905 172.228L235.433 177.638C235.353 179.642 235.28 181.682 235.213 183.76C231.596 183.93 227.99 184.12 224.403 184.311C224.022 187.37 223.652 190.455 223.291 193.568C223.582 195.762 223.872 197.976 224.163 200.19L229.863 202.614L237.547 196.734C239.17 192.833 240.787 188.973 242.396 185.152L245.532 183.559L250.972 184.03C254.018 186.561 257.073 189.123 260.139 191.714C260.37 193.217 260.61 194.72 260.85 196.243L262.754 195.601C263.064 193.928 263.375 192.265 263.676 190.592C261.378 187.967 259.09 185.359 256.813 182.768L258.817 182.066C261.221 183.729 263.646 185.403 266.06 187.076C267.002 190.415 267.944 193.798 268.885 197.224C270.308 198.737 271.72 200.23 273.143 201.783L275.958 198.066C274.676 196.383 273.39 194.713 272.101 193.057L276.67 190.522C277.017 192.653 277.351 194.8 277.671 196.964C279.675 199.348 281.679 201.736 283.683 204.127L291.757 207.133V211.04L287.75 212.172H280.056L270.789 208.886L268.324 209.697C268.324 210.96 268.324 212.222 268.324 213.474C263.115 208.936 257.875 204.378 252.645 199.869C245.322 201.442 237.978 203.025 230.685 204.628L227.419 206.091C225.675 207.834 223.942 209.587 222.219 211.331C221.938 212.863 221.668 214.386 221.397 215.919C217.497 221.002 213.667 226.041 209.906 231.037C209.996 237.048 210.137 243.059 210.327 248.89C215.176 254.44 220.065 259.91 224.904 265.18C230.681 264.218 236.515 263.216 242.406 262.174C246.18 263.858 249.927 265.511 253.647 267.134C253.106 269.652 252.565 272.123 252.024 274.547C253.777 276.972 255.49 279.336 257.194 281.64C258.162 285.648 259.1 289.488 260.009 293.162C258.479 295.519 256.97 297.777 255.48 299.934C256.623 302.639 257.725 305.194 258.777 307.568C260.44 312.578 261.942 316.815 263.235 320.071C266.574 319.804 269.914 319.51 273.253 319.19C276.259 317.186 279.264 314.942 282.4 312.397C283.252 311.496 284.113 310.564 284.975 309.602L287.58 309.121C287.58 307.368 287.63 305.515 287.58 303.561C290.585 301.657 293.591 299.654 296.657 297.55C296.997 292.16 297.198 286.199 297.278 279.797C302.287 274.968 307.296 269.919 312.305 264.769C314.189 260.582 316.042 256.284 317.846 251.926C314.333 252.747 310.769 253.565 307.156 254.38C301.756 243.79 295.775 232.54 289.533 221.119L292.479 218.995L295.014 218.664C298.971 226.028 302.808 233.321 306.425 240.414C306.805 243.3 307.159 246.155 307.487 248.98C312.162 246.656 316.8 244.318 321.402 241.967C324.461 238.214 327.467 234.457 330.419 230.696C328.716 228.482 326.973 226.238 325.189 223.984H319.719C316.627 221.092 313.464 218.166 310.232 215.208L314.96 212.964C318.046 215.729 321.115 218.447 324.167 221.119L341.049 223.353C342.932 226.231 344.755 229.08 346.519 231.899L349.334 231.067C349.808 234.106 350.246 237.111 350.646 240.084C351.835 244.832 352.907 249.461 353.862 253.969C361.815 229.464 360.848 202.936 351.131 179.075C341.414 155.214 323.574 135.556 300.764 123.578L300.744 123.588Z" fill="white" stroke="white" stroke-width="200" mask="url(#path-50-inside-1)"/>
</g>
<path opacity="0.3" d="M310.031 297.339C310.362 295.726 310.682 294.053 311.033 292.33C308.158 294.644 305.272 296.889 302.407 299.033C301.335 302.038 300.233 304.923 299.121 307.548L299.772 309.372L302.958 309.171C305.303 305.635 307.687 301.657 310.031 297.339Z" fill="white"/>
</g>
<path d="M147.602 180.043C147.558 180.043 147.515 180.031 147.478 180.008C147.44 179.985 147.41 179.952 147.391 179.912C147.363 179.857 147.357 179.792 147.376 179.732C147.395 179.672 147.436 179.622 147.492 179.592C152.278 177.024 156.713 173.848 160.686 170.144L160.806 170.034C160.095 166.217 159.444 162.39 158.873 158.673C158.869 158.614 158.888 158.556 158.925 158.51C158.962 158.464 159.014 158.433 159.072 158.424C159.13 158.414 159.19 158.426 159.24 158.457C159.29 158.488 159.327 158.536 159.343 158.593C159.914 162.36 160.576 166.227 161.297 170.084C161.305 170.127 161.301 170.172 161.286 170.213C161.27 170.253 161.242 170.289 161.207 170.315L160.996 170.505C156.993 174.236 152.525 177.435 147.702 180.023C147.671 180.039 147.636 180.046 147.602 180.043Z" fill="white"/>
<path d="M180.734 306.536C180.708 306.546 180.679 306.546 180.654 306.536C180.624 306.526 180.597 306.511 180.574 306.49C180.551 306.469 180.533 306.444 180.52 306.416C180.506 306.388 180.499 306.357 180.498 306.327C180.497 306.296 180.502 306.265 180.513 306.236C181.335 304.182 183.048 298.932 181.164 294.474C181.145 294.439 181.135 294.399 181.135 294.359C181.135 294.319 181.145 294.279 181.164 294.244C183.519 291.038 185.543 287.591 184.4 284.075C183.739 282.131 178.71 279.527 170.605 276.942C170.485 276.906 170.368 276.863 170.254 276.811C167.189 274.898 164.123 272.924 161.137 270.951C161.103 270.925 161.076 270.891 161.057 270.853C161.038 270.815 161.028 270.773 161.027 270.73C160.995 268.098 159.938 265.583 158.082 263.717C157.108 262.845 155.962 262.188 154.717 261.787C153.473 261.387 152.158 261.253 150.858 261.393C150.815 261.4 150.771 261.396 150.731 261.38C150.69 261.364 150.655 261.337 150.628 261.303C148.314 258.187 145.979 254.951 143.705 251.665C143.67 251.613 143.657 251.549 143.668 251.487C143.679 251.426 143.714 251.371 143.765 251.334C143.818 251.302 143.881 251.29 143.942 251.301C144.003 251.312 144.058 251.345 144.096 251.395C146.34 254.641 148.644 257.836 150.929 260.912C152.279 260.781 153.642 260.932 154.93 261.356C156.219 261.781 157.404 262.469 158.412 263.377C160.341 265.316 161.447 267.925 161.498 270.66C164.444 272.594 167.509 274.537 170.515 276.431L170.775 276.521C175.624 278.064 183.91 281.089 184.881 283.955C186.084 287.631 184.06 291.168 181.655 294.444C183.529 299.033 181.806 304.352 180.964 306.466C180.936 306.498 180.899 306.521 180.859 306.534C180.818 306.546 180.775 306.547 180.734 306.536Z" fill="white"/>
<path d="M181.265 145.419C181.232 145.428 181.197 145.428 181.165 145.419L177.398 143.615C177.36 143.596 177.327 143.568 177.303 143.533C177.278 143.498 177.263 143.457 177.257 143.415C177.197 141.902 177.157 140.299 177.127 138.406C177.126 138.375 177.131 138.344 177.142 138.314C177.153 138.285 177.169 138.259 177.191 138.236C177.213 138.214 177.238 138.196 177.267 138.184C177.296 138.172 177.326 138.165 177.358 138.165C177.419 138.165 177.477 138.19 177.521 138.233C177.564 138.276 177.588 138.335 177.588 138.396C177.588 140.259 177.658 141.812 177.718 143.275L181.165 144.928C183.709 140.399 186.284 136.162 188.809 132.345C188.832 132.305 188.867 132.273 188.909 132.254C196.503 128.808 204.177 125.602 211.741 122.717C212.663 120.713 213.605 118.84 214.536 117.136C214.547 117.102 214.565 117.071 214.59 117.045C214.614 117.019 214.644 116.999 214.677 116.986C214.71 116.973 214.746 116.967 214.782 116.969C214.817 116.972 214.852 116.982 214.883 117C214.914 117.017 214.941 117.041 214.962 117.07C214.982 117.099 214.996 117.133 215.002 117.168C215.008 117.203 215.007 117.239 214.997 117.274C214.988 117.308 214.97 117.34 214.947 117.367C214.015 119.08 213.064 120.984 212.132 123.007C212.102 123.06 212.056 123.101 212.002 123.128C204.438 126.013 196.763 129.219 189.169 132.665C186.625 136.512 184.03 140.78 181.465 145.359C181.438 145.383 181.407 145.401 181.372 145.412C181.337 145.422 181.301 145.424 181.265 145.419Z" fill="white"/>
<path d="M228.681 169.423C228.654 169.425 228.627 169.422 228.601 169.413C228.575 169.405 228.551 169.391 228.531 169.373C228.496 169.347 228.47 169.311 228.456 169.27C228.442 169.229 228.44 169.185 228.451 169.143C229.172 165.816 229.923 162.43 230.695 159.124C229.453 157.271 228.24 155.437 227.048 153.644C227.022 153.606 227.008 153.56 227.008 153.514C227.008 153.467 227.022 153.422 227.048 153.383C228.11 151.76 229.172 150.157 230.214 148.585C230.238 148.546 230.272 148.516 230.314 148.498C230.355 148.481 230.4 148.476 230.444 148.484C230.487 148.49 230.526 148.507 230.56 148.534C230.593 148.56 230.619 148.595 230.635 148.635L232.879 154.465C234.592 157.711 236.355 161.098 238.159 164.574C238.171 164.603 238.177 164.633 238.177 164.664C238.177 164.695 238.171 164.726 238.159 164.754C238.136 164.813 238.093 164.863 238.038 164.895C234.983 166.377 231.867 167.9 228.771 169.443C228.74 169.444 228.709 169.437 228.681 169.423ZM227.529 153.474L231.146 158.914C231.166 158.972 231.166 159.035 231.146 159.094C230.404 162.31 229.683 165.556 228.982 168.762C231.867 167.329 234.752 165.917 237.588 164.534C235.824 161.138 234.091 157.822 232.408 154.616C231.7 152.766 231.002 150.959 230.314 149.196C229.406 150.598 228.477 152.024 227.529 153.474Z" fill="white"/>
<path d="M220.948 167.149C220.902 167.163 220.853 167.163 220.807 167.149C220.772 167.123 220.745 167.088 220.729 167.047C220.713 167.006 220.709 166.961 220.717 166.918C221.118 164.544 221.519 162.2 221.929 159.905C221.937 159.842 221.97 159.785 222.02 159.745L225.376 157.411C225.417 157.386 225.463 157.373 225.511 157.373C225.559 157.373 225.606 157.386 225.646 157.411L228.652 159.415L228.742 159.475C228.791 159.506 228.826 159.554 228.84 159.609C228.855 159.665 228.849 159.724 228.822 159.775C228.021 161.358 227.229 162.971 226.428 164.594C226.401 164.643 226.359 164.682 226.308 164.704L221.088 167.149H220.948ZM222.41 160.006C222.03 162.13 221.659 164.294 221.288 166.478L226.027 164.274C226.788 162.731 227.543 161.208 228.291 159.705L225.546 157.822L222.41 160.006Z" fill="white"/>
<path d="M261.883 320.953C261.836 320.951 261.79 320.936 261.751 320.91C261.712 320.883 261.682 320.846 261.663 320.803C260.4 317.617 258.898 313.409 257.205 308.29C256.153 305.915 255.041 303.351 253.918 300.666C253.901 300.631 253.892 300.594 253.892 300.555C253.892 300.517 253.901 300.479 253.918 300.445C255.391 298.291 256.924 296.047 258.397 293.763C257.505 290.176 256.573 286.369 255.612 282.392C253.918 280.088 252.185 277.713 250.472 275.329C250.457 275.299 250.449 275.267 250.449 275.234C250.449 275.201 250.457 275.168 250.472 275.138C250.993 272.784 251.474 270.37 252.055 267.915C248.438 266.342 244.742 264.709 241.035 263.066C235.114 264.068 229.243 265.07 223.602 266.072C223.564 266.081 223.524 266.079 223.487 266.067C223.45 266.054 223.417 266.032 223.392 266.001C218.563 260.742 213.664 255.262 208.805 249.711C208.777 249.665 208.756 249.614 208.745 249.561C208.555 243.76 208.414 237.749 208.324 231.698C208.326 231.647 208.343 231.598 208.374 231.558C212.121 226.549 215.978 221.539 219.825 216.48L220.637 211.952C220.65 211.906 220.674 211.865 220.707 211.831C222.43 210.078 224.163 208.335 225.907 206.582C225.93 206.577 225.954 206.577 225.977 206.582L229.403 205.099C236.767 203.486 244.16 201.883 251.444 200.33C251.48 200.321 251.519 200.32 251.555 200.329C251.592 200.338 251.626 200.355 251.654 200.38C256.664 204.718 261.813 209.187 266.933 213.645C266.933 212.563 266.933 211.481 266.933 210.399C266.932 210.348 266.947 210.299 266.976 210.258C267.004 210.216 267.045 210.185 267.093 210.168L269.557 209.357C269.606 209.337 269.659 209.337 269.708 209.357L278.945 212.633H286.529L290.336 211.561C290.336 210.369 290.336 209.187 290.336 208.004L282.411 205.099L282.311 205.029C280.307 202.638 278.304 200.247 276.3 197.856C276.27 197.825 276.25 197.787 276.24 197.745C275.919 195.742 275.589 193.658 275.238 191.634L271.23 193.868L274.917 198.687C274.947 198.728 274.962 198.777 274.962 198.827C274.962 198.878 274.947 198.927 274.917 198.968L272.102 202.695C272.08 202.722 272.053 202.744 272.022 202.759C271.991 202.775 271.957 202.784 271.922 202.785C271.888 202.788 271.854 202.784 271.823 202.772C271.792 202.759 271.764 202.74 271.741 202.715C270.319 201.178 268.896 199.656 267.474 198.146C267.451 198.116 267.434 198.082 267.423 198.046C266.492 194.67 265.55 191.303 264.618 188.027C262.254 186.371 259.896 184.735 257.545 183.118L255.962 183.669C258.166 186.167 260.377 188.689 262.594 191.233C262.615 191.26 262.63 191.291 262.639 191.323C262.648 191.356 262.65 191.39 262.645 191.424C262.344 193.087 262.033 194.75 261.723 196.433C261.716 196.474 261.699 196.512 261.672 196.544C261.646 196.575 261.612 196.599 261.573 196.613L259.659 197.264C259.628 197.279 259.593 197.286 259.559 197.286C259.524 197.286 259.49 197.279 259.459 197.264C259.429 197.249 259.403 197.226 259.384 197.198C259.365 197.17 259.353 197.138 259.348 197.104L258.657 192.666C255.632 190.115 252.626 187.587 249.641 185.082L244.351 184.621L241.345 186.144C239.752 189.941 238.139 193.778 236.536 197.645C236.519 197.682 236.495 197.716 236.466 197.745C233.901 199.702 231.337 201.663 228.772 203.626C228.735 203.646 228.694 203.656 228.652 203.656C228.61 203.656 228.569 203.646 228.532 203.626L222.751 201.082C222.714 201.065 222.682 201.041 222.658 201.009C222.633 200.978 222.617 200.941 222.611 200.901C222.32 198.677 222.03 196.473 221.749 194.269C222.11 191.103 222.48 188.007 222.851 184.952C222.858 184.898 222.884 184.848 222.925 184.811C222.965 184.774 223.017 184.753 223.071 184.751L233.671 184.2C233.741 182.257 233.801 180.313 233.881 178.4L229.343 173.12C229.319 173.093 229.301 173.061 229.291 173.026C229.281 172.992 229.278 172.955 229.283 172.92C229.289 172.885 229.303 172.853 229.324 172.825C229.345 172.797 229.372 172.775 229.403 172.759C231.701 171.47 233.985 170.194 236.256 168.932C238.199 166.969 240.126 165.035 242.037 163.131C242.057 163.106 242.085 163.088 242.117 163.081C243.93 162.33 245.733 161.579 247.537 160.847C247.366 158.493 247.196 156.179 247.036 153.924C247.03 153.868 247.044 153.811 247.078 153.765C247.111 153.718 247.16 153.686 247.216 153.674L249.31 153.213C249.349 153.203 249.389 153.203 249.428 153.214C249.467 153.224 249.502 153.245 249.53 153.273C251.594 155.277 253.708 157.351 255.792 159.425C259.469 159.074 263.176 158.733 266.812 158.423C266.702 157.421 266.582 156.419 266.472 155.357C266.467 155.32 266.467 155.283 266.472 155.247L267.223 153.243C266.662 152.241 266.101 151.29 265.53 150.318C265.506 150.278 265.493 150.233 265.493 150.187C265.493 150.142 265.506 150.097 265.53 150.057L266.953 148.174L267.043 146.891L264.037 145.188C264.005 145.169 263.978 145.142 263.957 145.111C263.937 145.08 263.923 145.045 263.917 145.008C263.596 142.624 263.262 140.313 262.915 138.075C262.905 138.026 262.905 137.974 262.915 137.925C264.177 135.731 265.42 133.587 266.602 131.563L262.705 131.633C261.312 134.488 259.819 137.644 258.267 140.89C258.547 144.066 258.828 147.382 259.098 150.739C259.102 150.773 259.097 150.809 259.085 150.842C259.073 150.875 259.053 150.905 259.028 150.929C257.639 152.325 256.229 153.741 254.8 155.177C254.761 155.205 254.713 155.221 254.665 155.221C254.616 155.221 254.569 155.205 254.53 155.177C250.693 153.283 246.795 151.39 242.948 149.556C242.909 149.537 242.876 149.507 242.852 149.47C242.829 149.433 242.817 149.39 242.818 149.346C242.765 146.294 242.721 143.358 242.688 140.54C242.686 140.498 242.696 140.457 242.715 140.42C242.734 140.383 242.763 140.352 242.798 140.329C244.575 139.267 246.328 138.229 248.058 137.214C250.602 132.134 252.997 127.576 255.181 123.648C255.204 123.609 255.239 123.577 255.281 123.558C258.507 121.995 261.713 120.553 264.819 119.12C264.847 119.108 264.878 119.102 264.909 119.102C264.94 119.102 264.97 119.108 264.999 119.12C271.01 121.414 277.282 123.989 283.573 126.794C283.622 126.816 283.663 126.853 283.688 126.9C283.714 126.948 283.723 127.002 283.714 127.055C283.567 127.87 283.416 128.701 283.263 129.549C283.249 129.606 283.217 129.656 283.172 129.693C283.127 129.729 283.07 129.749 283.012 129.75L279.916 129.64L274.657 128.878C276.811 131.032 279.035 133.326 281.269 135.731L284.585 135.53C284.765 134.178 284.936 132.855 285.096 131.583C285.107 131.516 285.143 131.455 285.196 131.413C288.623 128.968 291.909 126.674 294.974 124.62C295.007 124.611 295.042 124.611 295.075 124.62L299.272 124.059C299.304 124.055 299.336 124.057 299.367 124.065C299.398 124.074 299.426 124.088 299.452 124.108C299.477 124.127 299.498 124.152 299.513 124.18C299.529 124.207 299.539 124.238 299.543 124.27C299.547 124.3 299.545 124.331 299.537 124.36C299.529 124.39 299.516 124.418 299.497 124.442C299.479 124.466 299.455 124.486 299.429 124.502C299.402 124.517 299.373 124.526 299.342 124.53L295.195 125.081C292.189 127.085 288.933 129.369 285.557 131.783C285.387 133.086 285.216 134.438 285.026 135.791C285.019 135.846 284.994 135.897 284.953 135.935C284.913 135.974 284.861 135.997 284.806 136.001L281.189 136.222C281.12 136.218 281.053 136.194 280.999 136.152C278.564 133.537 276.15 131.032 273.815 128.728C273.787 128.689 273.771 128.641 273.771 128.593C273.771 128.544 273.787 128.497 273.815 128.457C273.831 128.409 273.865 128.369 273.91 128.345C273.954 128.321 274.007 128.314 274.056 128.327C276.059 128.598 278.063 128.888 279.997 129.179L282.872 129.279C283.002 128.558 283.132 127.856 283.253 127.165C277.061 124.41 270.91 121.865 264.969 119.611C261.963 120.974 258.757 122.436 255.602 123.969C253.418 127.886 251.033 132.435 248.498 137.504C248.473 137.545 248.439 137.579 248.398 137.604C246.688 138.606 244.955 139.635 243.199 140.69C243.199 143.415 243.279 146.26 243.329 149.206C247.086 150.999 250.883 152.842 254.63 154.696C255.966 153.327 257.301 151.991 258.637 150.688C258.367 147.342 258.086 144.046 257.806 140.89C257.795 140.851 257.795 140.81 257.806 140.77C259.379 137.404 260.911 134.218 262.334 131.313C262.353 131.273 262.383 131.24 262.42 131.217C262.458 131.194 262.501 131.182 262.544 131.182L267.013 131.102C267.092 131.122 267.165 131.164 267.223 131.222C267.243 131.259 267.254 131.301 267.254 131.343C267.254 131.385 267.243 131.426 267.223 131.463C265.981 133.567 264.678 135.811 263.356 138.105C263.666 140.279 263.987 142.533 264.298 144.848L267.303 146.581C267.343 146.601 267.376 146.633 267.398 146.672C267.419 146.712 267.428 146.757 267.423 146.801L267.323 148.294C267.317 148.341 267.3 148.386 267.273 148.424L265.901 150.238C266.462 151.189 267.013 152.151 267.574 153.133C267.599 153.197 267.599 153.269 267.574 153.333L266.802 155.397C266.922 156.469 267.043 157.541 267.163 158.633C267.168 158.665 267.166 158.698 267.157 158.729C267.148 158.76 267.133 158.789 267.113 158.813C267.094 158.838 267.069 158.858 267.042 158.871C267.014 158.885 266.984 158.893 266.953 158.894C263.206 159.224 259.389 159.585 255.582 159.946C255.547 159.949 255.511 159.945 255.478 159.933C255.445 159.92 255.415 159.901 255.391 159.875C253.317 157.812 251.213 155.748 249.15 153.744L247.386 154.135C247.547 156.379 247.707 158.683 247.877 161.028C247.882 161.077 247.87 161.127 247.843 161.169C247.815 161.211 247.774 161.242 247.727 161.258L242.197 163.542C240.293 165.436 238.37 167.369 236.436 169.323H236.376L229.744 173.03L234.162 178.159C234.176 178.212 234.176 178.267 234.162 178.319C234.092 180.323 234.012 182.387 233.952 184.441C233.947 184.499 233.921 184.554 233.878 184.595C233.836 184.635 233.78 184.659 233.721 184.661L223.112 185.212C222.741 188.218 222.38 191.223 222.03 194.229C222.3 196.323 222.591 198.487 222.871 200.661L228.321 202.975L235.855 197.214C237.458 193.334 239.064 189.493 240.674 185.693C240.696 185.642 240.735 185.6 240.784 185.573L243.92 183.98C243.94 183.97 243.963 183.965 243.985 183.965C244.008 183.965 244.03 183.97 244.05 183.98L249.49 184.451C249.538 184.452 249.584 184.47 249.621 184.501C252.666 187.032 255.722 189.594 258.787 192.185C258.829 192.226 258.857 192.278 258.868 192.335L259.529 196.583L261.042 196.072C261.342 194.483 261.633 192.9 261.913 191.324C259.649 188.719 257.388 186.141 255.131 183.589C255.114 183.555 255.105 183.517 255.105 183.479C255.105 183.441 255.114 183.403 255.131 183.369C255.14 183.331 255.158 183.297 255.184 183.269C255.211 183.24 255.244 183.22 255.281 183.209L257.285 182.497C257.318 182.483 257.354 182.475 257.39 182.475C257.426 182.475 257.462 182.483 257.495 182.497C259.913 184.16 262.327 185.83 264.738 187.506C264.762 187.52 264.783 187.539 264.799 187.561C264.814 187.584 264.824 187.61 264.829 187.637C265.77 190.976 266.709 194.339 267.644 197.725L271.651 202.043L274.186 198.687C272.944 197.054 271.691 195.431 270.439 193.798C270.424 193.769 270.416 193.736 270.416 193.703C270.416 193.67 270.424 193.637 270.439 193.608C270.457 193.541 270.5 193.484 270.559 193.447L275.118 190.913C275.152 190.895 275.189 190.886 275.228 190.886C275.266 190.886 275.304 190.895 275.338 190.913C275.372 190.928 275.401 190.952 275.424 190.982C275.447 191.011 275.462 191.046 275.468 191.083C275.819 193.197 276.16 195.331 276.47 197.465C278.474 199.809 280.454 202.167 282.411 204.538C285.083 205.513 287.754 206.492 290.426 207.473C290.471 207.491 290.51 207.521 290.539 207.56C290.567 207.599 290.584 207.645 290.586 207.694C290.586 208.996 290.586 210.299 290.586 211.601C290.59 211.652 290.574 211.703 290.543 211.743C290.511 211.784 290.466 211.812 290.416 211.821L286.409 212.963H278.574L269.377 209.697L267.163 210.439V214.106C267.166 214.152 267.155 214.198 267.131 214.239C267.107 214.279 267.072 214.311 267.03 214.33C266.987 214.35 266.94 214.356 266.894 214.348C266.848 214.34 266.806 214.318 266.772 214.286C261.563 209.738 256.313 205.189 251.183 200.751C243.98 202.304 236.637 203.897 229.343 205.49L226.007 206.942C224.297 208.659 222.594 210.379 220.897 212.102L220.086 216.61C220.095 216.646 220.095 216.684 220.086 216.72C216.249 221.73 212.402 226.789 208.645 231.748C208.735 237.759 208.875 243.69 209.066 249.431C213.874 254.921 218.723 260.351 223.502 265.551C229.123 264.619 234.973 263.627 240.874 262.545C240.92 262.53 240.969 262.53 241.015 262.545C244.782 264.218 248.559 265.891 252.245 267.494C252.296 267.516 252.338 267.555 252.364 267.604C252.389 267.654 252.397 267.71 252.386 267.765C251.845 270.249 251.314 272.694 250.783 275.078C252.496 277.443 254.209 279.807 255.892 282.091C255.896 282.121 255.896 282.152 255.892 282.181C256.894 286.189 257.816 290.066 258.717 293.703C258.741 293.764 258.741 293.832 258.717 293.893C257.225 296.167 255.712 298.411 254.259 300.555C255.361 303.19 256.453 305.715 257.495 308.059C259.168 313.068 260.641 317.256 261.893 320.422C265.149 320.152 268.425 319.861 271.631 319.55C274.537 317.617 277.642 315.343 280.718 312.808C281.56 311.926 282.421 310.985 283.273 310.043C283.305 310.001 283.351 309.973 283.403 309.963L283.774 309.893L285.777 309.512C285.777 307.829 285.777 306.025 285.777 304.152C285.777 304.112 285.786 304.072 285.806 304.037C285.825 304.002 285.853 303.973 285.888 303.952C288.893 302.068 291.899 300.084 294.854 298.041C295.185 292.801 295.395 286.88 295.475 280.418C295.479 280.355 295.504 280.295 295.545 280.248C300.555 275.479 305.564 270.42 310.573 265.22C312.366 261.213 314.16 257.055 315.913 252.847C312.587 253.619 309.151 254.41 305.674 255.192C305.624 255.201 305.572 255.194 305.525 255.172C305.478 255.151 305.439 255.116 305.414 255.071C299.994 244.492 294.053 233.311 287.751 221.83C287.721 221.781 287.712 221.721 287.725 221.665C287.738 221.609 287.772 221.56 287.821 221.529L290.767 219.405C290.802 219.391 290.841 219.391 290.877 219.405L293.401 219.075C293.449 219.064 293.499 219.07 293.543 219.092C293.587 219.113 293.622 219.15 293.642 219.195C297.589 226.519 301.436 233.842 305.063 240.945V241.025C305.424 243.861 305.764 246.636 306.065 249.261C310.713 246.956 315.282 244.662 319.63 242.428C322.635 238.751 325.641 235.024 328.476 231.347C326.833 229.214 325.14 227.04 323.467 224.876H318.107C318.048 224.875 317.991 224.854 317.947 224.815C314.941 221.99 311.735 219.035 308.459 216.039C308.431 216.012 308.409 215.979 308.395 215.943C308.381 215.907 308.376 215.868 308.379 215.829C308.386 215.789 308.402 215.752 308.426 215.721C308.451 215.689 308.483 215.665 308.519 215.648L313.248 213.404C313.287 213.38 313.332 213.368 313.378 213.368C313.424 213.368 313.469 213.38 313.509 213.404C316.644 216.129 319.75 218.854 322.726 221.489L339.537 223.713C339.57 223.717 339.602 223.73 339.63 223.749C339.658 223.768 339.681 223.794 339.697 223.824C341.52 226.619 343.334 229.434 345.077 232.219L347.722 231.438C347.751 231.423 347.784 231.416 347.817 231.416C347.85 231.416 347.882 231.423 347.912 231.438C347.942 231.454 347.968 231.476 347.987 231.504C348.006 231.532 348.018 231.564 348.022 231.598C348.503 234.664 348.944 237.699 349.335 240.615C350.477 245.123 351.559 249.802 352.551 254.48C352.563 254.541 352.551 254.605 352.517 254.657C352.483 254.709 352.431 254.746 352.37 254.761C352.34 254.768 352.309 254.769 352.278 254.764C352.247 254.759 352.218 254.747 352.192 254.731C352.165 254.714 352.143 254.692 352.125 254.666C352.108 254.64 352.096 254.611 352.09 254.58C351.088 249.902 350.016 245.233 348.864 240.705C348.483 237.849 348.062 234.904 347.592 231.929L345.037 232.68C344.987 232.695 344.934 232.693 344.885 232.675C344.836 232.657 344.795 232.623 344.766 232.58C343.013 229.785 341.2 226.939 339.366 224.134L322.595 221.91C322.548 221.909 322.502 221.891 322.465 221.86C319.51 219.235 316.454 216.53 313.308 213.845L309.04 215.849C312.196 218.754 315.282 221.599 318.197 224.335H323.577C323.614 224.332 323.651 224.34 323.684 224.355C323.717 224.371 323.746 224.395 323.768 224.425C325.531 226.669 327.294 228.923 328.987 231.137C329.021 231.178 329.039 231.229 329.039 231.282C329.039 231.335 329.021 231.387 328.987 231.428C326.082 235.165 323.056 238.952 319.971 242.698L319.89 242.759C315.432 245.043 310.743 247.407 305.975 249.772C305.941 249.789 305.903 249.798 305.864 249.798C305.826 249.798 305.788 249.789 305.754 249.772C305.721 249.753 305.694 249.727 305.673 249.696C305.652 249.664 305.639 249.629 305.634 249.591C305.313 246.876 304.963 244.011 304.582 241.065C300.985 234.052 297.178 226.769 293.261 219.506L290.957 219.806L288.222 221.81C294.463 233.161 300.344 244.231 305.714 254.711C309.271 253.909 312.807 253.098 316.214 252.296C316.256 252.285 316.3 252.287 316.341 252.301C316.382 252.316 316.418 252.342 316.444 252.376C316.469 252.412 316.482 252.454 316.482 252.497C316.482 252.54 316.469 252.581 316.444 252.617C314.631 256.995 312.777 261.323 310.914 265.471L310.864 265.531C305.854 270.73 300.845 275.78 295.896 280.558C295.816 287.03 295.606 292.971 295.275 298.211C295.273 298.247 295.262 298.281 295.245 298.312C295.228 298.344 295.204 298.371 295.175 298.391C292.169 300.395 289.164 302.399 286.208 304.312C286.208 306.216 286.208 308.039 286.208 309.742C286.209 309.797 286.19 309.85 286.155 309.893C286.12 309.935 286.072 309.963 286.018 309.973L283.774 310.394L283.483 310.444C282.652 311.375 281.81 312.297 280.958 313.189C277.783 315.773 274.697 318.058 271.771 320.011H271.661C268.375 320.322 265.019 320.622 261.643 320.893L261.883 320.953Z" fill="white"/>
<path d="M298.381 310.283C298.331 310.283 298.282 310.267 298.241 310.239C298.2 310.21 298.169 310.17 298.151 310.123L298.02 309.752L297.55 308.28C297.538 308.251 297.531 308.22 297.531 308.189C297.531 308.158 297.538 308.128 297.55 308.099C298.642 305.535 299.744 302.669 300.826 299.604C300.844 299.559 300.871 299.518 300.906 299.483C303.771 297.349 306.666 295.095 309.532 292.791C309.572 292.764 309.619 292.749 309.667 292.749C309.715 292.749 309.762 292.764 309.802 292.791C309.844 292.814 309.878 292.85 309.897 292.893C309.917 292.936 309.923 292.985 309.912 293.031C309.622 294.664 309.301 296.358 308.961 298.041V298.111C306.576 302.499 304.182 306.486 301.828 309.953C301.809 309.985 301.783 310.012 301.751 310.031C301.72 310.05 301.684 310.061 301.647 310.063L298.461 310.263L298.381 310.283ZM297.98 308.23C298.151 308.69 298.311 309.151 298.471 309.592L298.541 309.802L301.437 309.612C303.751 306.186 306.105 302.259 308.45 297.931C308.75 296.468 309.031 295.005 309.291 293.582C306.596 295.736 303.881 297.85 301.196 299.854C300.144 302.87 299.062 305.695 297.98 308.28V308.23Z" fill="white"/>
<path d="M214.617 26.6092C213.726 15.9395 231.118 20.9287 235.656 27.611C240.194 34.2934 231.699 48.0288 245.564 52.5571C259.43 57.0855 249.632 65.7215 256.986 79.6572C267.806 100.165 202.194 126.173 211.431 84.7767C220.047 46.1753 193.809 43.8811 214.617 26.6092Z" fill="#263238"/>
<path d="M248.769 52.8076C248.252 52.8073 247.738 52.7434 247.236 52.6172C238.15 50.343 237.438 44.1516 236.757 38.1605C236.316 34.2533 235.905 30.5765 233.281 27.8314C233.109 27.6521 233.016 27.412 233.022 27.164C233.027 26.916 233.131 26.6804 233.311 26.509C233.49 26.3376 233.73 26.2445 233.978 26.2501C234.226 26.2558 234.462 26.3597 234.633 26.539C237.689 29.7349 238.16 33.9127 238.64 37.9501C239.302 43.8009 239.873 48.8503 247.657 50.8039C249 51.1345 250.342 50.8039 250.773 50.1026C251.204 49.4013 250.773 48.4395 249.711 47.3275C249.54 47.1481 249.446 46.908 249.452 46.66C249.458 46.412 249.562 46.1764 249.741 46.005C249.92 45.8336 250.16 45.7405 250.408 45.7462C250.656 45.7518 250.892 45.8557 251.063 46.0351C253.428 48.5397 252.777 50.3631 252.386 51.0443C251.986 51.6245 251.442 52.0916 250.809 52.4004C250.175 52.7093 249.473 52.8496 248.769 52.8076Z" fill="#263238"/>
<path d="M211.591 66.9737C211.721 69.3682 211.711 71.6424 211.701 73.9867C211.691 76.331 211.581 78.6153 211.461 80.9295C211.341 83.2438 211.18 85.5581 210.93 87.8724C210.679 90.1866 210.389 92.4909 210.068 94.7952L210.018 95.1658L209.938 95.3662C209.199 97.2793 208.219 99.0906 207.023 100.756C205.941 102.329 204.839 103.842 203.677 105.285C202.514 106.727 201.292 108.11 200.06 109.472C198.828 110.835 197.555 112.157 196.213 113.48L193.588 111.256L196.593 106.787C197.589 105.305 198.547 103.805 199.469 102.289C200.411 100.796 201.312 99.2834 202.124 97.8007C202.896 96.4283 203.537 94.9858 204.037 93.4927L203.907 94.0738C204.338 89.6356 204.508 85.1674 204.658 80.6891C204.728 78.455 204.749 76.2108 204.759 73.9767C204.769 71.7426 204.759 69.4683 204.698 67.3144L211.591 66.9737Z" fill="#FFB573"/>
<path d="M195.23 109.643L191.012 112.808L194.648 115.934C195.403 115.561 196.054 115.009 196.547 114.326C197.039 113.643 197.357 112.851 197.474 112.017L195.23 109.643Z" fill="#FFB573"/>
<path d="M204.909 60.1912C202.906 62.4053 202.625 70.2097 202.625 70.2097L215.178 74.137C215.178 74.137 216.511 61.9044 213.605 59.53C213 58.9824 212.29 58.5636 211.518 58.2993C210.746 58.0349 209.929 57.9305 209.115 57.9924C208.302 58.0542 207.509 58.2811 206.786 58.6591C206.063 59.0372 205.424 59.5584 204.909 60.1912Z" fill="white"/>
<path d="M189.309 116.175L190.881 119.932L194.648 115.934L191.012 112.808L189.309 116.175Z" fill="#FFB573"/>
<path d="M205.57 61.4836C205.269 65.6914 204.308 76.0004 209.487 99.4438L236.988 97.8909C235.936 87.131 236.587 81.8012 241.416 60.7322C241.489 60.414 241.497 60.0843 241.439 59.763C241.381 59.4417 241.258 59.1355 241.078 58.863C240.898 58.5905 240.665 58.3573 240.393 58.1775C240.12 57.9976 239.814 57.875 239.493 57.8168C236.447 57.2766 233.373 56.9153 230.286 56.7348C226.12 56.4394 221.938 56.4394 217.772 56.7348C214.516 57.0254 210.99 57.5964 208.756 58.0072C207.913 58.1478 207.141 58.5664 206.564 59.1964C205.986 59.8265 205.637 60.6316 205.57 61.4836Z" fill="#010304"/>
<path d="M219.545 63.7378C220.423 64.1404 221.197 64.7375 221.81 65.4839C222.423 66.2303 222.858 67.1064 223.081 68.0458C226.257 67.3946 232.669 62.1348 231.587 56.4143C230.561 56.1007 229.494 55.9387 228.421 55.9334L219.545 63.7378Z" fill="white"/>
<path d="M218.213 63.4773C217.415 63.678 216.675 64.0612 216.051 64.5967C215.427 65.1322 214.936 65.8053 214.616 66.563C214.075 64.9017 213.946 63.1338 214.239 61.4114C214.532 59.689 215.239 58.0635 216.299 56.6747C217.855 56.2626 219.45 56.0142 221.058 55.9334L218.213 63.4773Z" fill="white"/>
<path d="M186.395 199.298L179.632 198.717L178.801 182.878L185.563 183.459L186.395 199.298Z" fill="#FFB573"/>
<path d="M179.331 197.655L186.284 194.529C186.403 194.475 186.537 194.465 186.662 194.502C186.787 194.539 186.895 194.62 186.965 194.73L190.221 199.879C190.298 200.011 190.346 200.158 190.363 200.309C190.379 200.461 190.364 200.614 190.318 200.76C190.272 200.905 190.195 201.039 190.094 201.153C189.993 201.267 189.869 201.359 189.73 201.422C187.286 202.474 186.053 202.855 182.998 204.227C181.114 205.069 177.598 207.403 174.983 208.565C172.368 209.728 171.096 207.223 172.068 206.512C174.943 204.534 177.161 201.744 178.439 198.497C178.627 198.119 178.943 197.821 179.331 197.655Z" fill="#263238"/>
<g opacity="0.2">
<path opacity="0.2" d="M185.563 183.459L178.801 182.878L179.272 191.704L186.024 192.075L185.563 183.459Z" fill="black"/>
</g>
<path d="M209.386 99.1633C209.386 99.1633 184.34 122.326 179.852 133.226C174.191 147.072 177.728 189.33 177.728 189.33L186.945 190.121C186.945 190.121 187.586 160.356 191.814 141.842C200.72 130.05 234.974 114.552 230.756 98.2315L209.386 99.1633Z" fill="#263238"/>
<path opacity="0.2" d="M219.114 111.686C207.012 114.351 199.909 128.017 197.404 136.282C205.629 129.409 218.443 121.815 225.626 113.51C224.184 112.738 221.699 111.125 219.114 111.686Z" fill="black"/>
<path d="M187.657 190.682L176.807 189.751L176.396 184.27L187.647 183.479L187.657 190.682Z" fill="white"/>
<path d="M176.406 199.909H176.325C176.177 199.859 176.044 199.77 175.941 199.652C175.837 199.534 175.766 199.392 175.734 199.238C175.705 199.146 175.699 199.048 175.718 198.953C175.738 198.858 175.781 198.77 175.845 198.697C176.416 198.056 178.85 198.417 179.121 198.467C179.152 198.472 179.181 198.486 179.204 198.507C179.227 198.529 179.243 198.556 179.251 198.587C179.256 198.617 179.253 198.647 179.242 198.675C179.232 198.703 179.214 198.728 179.191 198.747C178.499 199.258 177.227 200.08 176.406 199.909ZM178.68 198.707C177.678 198.587 176.386 198.547 176.085 198.898C176.085 198.898 176.005 198.998 176.085 199.138C176.105 199.239 176.151 199.334 176.217 199.412C176.284 199.491 176.369 199.552 176.466 199.589C176.876 199.739 177.698 199.408 178.68 198.707Z" fill="white"/>
<path d="M178.83 198.717C178.008 198.527 176.596 197.786 176.435 197.104C176.407 196.979 176.423 196.849 176.48 196.734C176.536 196.619 176.63 196.527 176.746 196.473C176.851 196.408 176.97 196.367 177.093 196.354C177.216 196.34 177.34 196.353 177.457 196.393C178.399 196.683 179.201 198.457 179.241 198.537C179.253 198.562 179.259 198.589 179.259 198.617C179.259 198.645 179.253 198.672 179.241 198.697C179.225 198.719 179.203 198.736 179.179 198.746C179.154 198.757 179.127 198.761 179.1 198.757C179.009 198.754 178.918 198.741 178.83 198.717ZM177.307 196.714C177.174 196.683 177.034 196.704 176.916 196.774C176.736 196.884 176.736 196.984 176.746 197.064C176.856 197.525 178.008 198.216 178.81 198.417C178.509 197.836 177.918 196.904 177.357 196.724L177.307 196.714Z" fill="white"/>
<path opacity="0.2" d="M241.165 61.8242C239.585 62.504 238.207 63.5791 237.163 64.946C236.119 66.3129 235.444 67.9255 235.204 69.6287C234.723 72.9147 237.278 76.3511 238.03 77.7737C238.691 73.4958 239.693 68.3663 241.165 61.8242Z" fill="black"/>
<path d="M229.062 44.1616C228.271 48.169 227.479 54.0499 230.285 56.7348C230.285 56.7348 230.124 60.8324 218.753 65.2406C214.666 59.3597 217.751 56.7148 217.751 56.7148C222.25 55.6528 222.129 53.8295 221.358 50.7037L229.062 44.1616Z" fill="#FFB573"/>
<path opacity="0.2" d="M225.937 46.7965L221.408 50.7037C221.601 51.4288 221.729 52.1698 221.789 52.9178C223.512 52.6773 226.207 51.2246 226.578 49.3612C226.58 48.4663 226.36 47.5849 225.937 46.7965Z" fill="black"/>
<path d="M234.322 37.2789C232.509 43.861 231.877 46.6762 227.79 49.3812C221.638 53.4588 213.954 49.782 213.764 42.7991C213.604 36.5075 216.609 26.7695 223.692 25.5372C225.253 25.249 226.862 25.3648 228.365 25.8734C229.868 26.3821 231.217 27.2668 232.282 28.4434C233.347 29.62 234.094 31.0494 234.451 32.5959C234.808 34.1423 234.763 35.7544 234.322 37.2789Z" fill="#FFB573"/>
<path d="M219.134 25.2667C216.259 27.9416 227.219 33.2815 230.555 33.1813C226.077 36.6377 230.044 43.3301 233.561 41.677C237.077 40.024 236.887 31.4782 235.073 28.4526C233.26 25.427 223.722 21.0289 219.134 25.2667Z" fill="#263238"/>
<path d="M223.532 26.4288C225.646 28.9034 213.915 32.2195 215.237 28.3424C216.99 23.1929 221.429 23.9543 223.532 26.4288Z" fill="#263238"/>
<path d="M223.332 36.778C223.212 37.319 222.832 37.6997 222.481 37.6295C222.13 37.5594 221.93 37.0485 222.04 36.5075C222.15 35.9665 222.541 35.5858 222.892 35.6559C223.242 35.726 223.413 36.257 223.332 36.778Z" fill="#263238"/>
<path d="M217.202 35.4956C217.081 36.0466 216.701 36.4173 216.35 36.3472C215.999 36.277 215.799 35.7661 215.909 35.2251C216.019 34.6841 216.41 34.3034 216.761 34.3835C217.111 34.4637 217.312 34.9546 217.202 35.4956Z" fill="#263238"/>
<path d="M216.91 34.4436L215.688 33.7924C215.688 33.7924 216.138 34.9546 216.91 34.4436Z" fill="#263238"/>
<path d="M218.884 36.8781C218.136 38.0139 217.236 39.042 216.209 39.9338C216.446 40.188 216.736 40.3885 217.057 40.5215C217.379 40.6546 217.725 40.7172 218.072 40.7052L218.884 36.8781Z" fill="#ED893E"/>
<path d="M220.578 43.4503C220.305 43.4369 220.033 43.4 219.766 43.3401C219.745 43.3365 219.725 43.3287 219.707 43.3171C219.689 43.3055 219.673 43.2903 219.661 43.2726C219.649 43.2548 219.64 43.2348 219.636 43.2137C219.632 43.1926 219.632 43.1708 219.636 43.1497C219.648 43.1079 219.675 43.0722 219.712 43.0498C219.75 43.0275 219.794 43.0202 219.836 43.0295C220.508 43.1852 221.207 43.1811 221.877 43.0175C222.547 42.8539 223.169 42.5355 223.694 42.0878C223.709 42.0727 223.727 42.0606 223.746 42.0525C223.766 42.0443 223.787 42.0401 223.809 42.0401C223.83 42.0401 223.851 42.0443 223.871 42.0525C223.891 42.0606 223.909 42.0727 223.924 42.0878C223.939 42.1029 223.951 42.1209 223.959 42.1406C223.968 42.1604 223.972 42.1816 223.972 42.203C223.972 42.2244 223.968 42.2456 223.959 42.2653C223.951 42.2851 223.939 42.3031 223.924 42.3182C223.47 42.721 222.94 43.0287 222.366 43.2232C221.791 43.4176 221.183 43.4949 220.578 43.4503Z" fill="#263238"/>
<path d="M226.058 36.0666C225.989 36.0645 225.922 36.0399 225.868 35.9965C225.813 35.9532 225.775 35.8934 225.757 35.8262C225.556 35.3355 225.255 34.8918 224.874 34.5228C224.493 34.1539 224.04 33.8677 223.543 33.6822C223.461 33.6528 223.394 33.592 223.356 33.5132C223.319 33.4343 223.314 33.3438 223.343 33.2615C223.357 33.2208 223.38 33.1835 223.409 33.1518C223.438 33.1201 223.474 33.0946 223.513 33.0768C223.552 33.059 223.595 33.0494 223.638 33.0484C223.681 33.0474 223.724 33.0551 223.764 33.0711C224.362 33.2894 224.906 33.6342 225.359 34.082C225.812 34.5298 226.163 35.0701 226.389 35.6659C226.399 35.7067 226.401 35.7491 226.396 35.7909C226.39 35.8326 226.376 35.8727 226.354 35.909C226.333 35.9453 226.305 35.977 226.271 36.0023C226.237 36.0277 226.199 36.0461 226.158 36.0566C226.126 36.0694 226.092 36.0729 226.058 36.0666Z" fill="#263238"/>
<path d="M215.958 32.2796C215.9 32.2762 215.844 32.2577 215.795 32.2262C215.746 32.1946 215.705 32.1509 215.678 32.0993C215.639 32.0221 215.632 31.9327 215.658 31.8503C215.684 31.7679 215.742 31.699 215.818 31.6585C216.275 31.4012 216.788 31.2602 217.312 31.248C217.836 31.2357 218.355 31.3526 218.824 31.5884C218.862 31.6081 218.895 31.6356 218.922 31.669C218.949 31.7024 218.969 31.741 218.981 31.7824C218.992 31.8238 218.994 31.8672 218.988 31.9096C218.982 31.9521 218.967 31.9928 218.944 32.0292C218.923 32.0663 218.895 32.0988 218.862 32.125C218.828 32.1512 218.79 32.1704 218.749 32.1816C218.708 32.1928 218.665 32.1957 218.623 32.1902C218.581 32.1846 218.54 32.1708 218.503 32.1494C218.131 31.9784 217.724 31.8974 217.315 31.9131C216.906 31.9288 216.507 32.0406 216.149 32.2396C216.091 32.2723 216.025 32.2863 215.958 32.2796Z" fill="#263238"/>
<path d="M223.043 35.7761L221.82 35.1249C221.82 35.1249 222.271 36.247 223.043 35.7761Z" fill="#263238"/>
<path d="M213.524 213.775L206.751 213.454L205.309 197.665L212.081 197.986L213.524 213.775Z" fill="#FFB573"/>
<path d="M206.382 212.413L213.204 209.026C213.32 208.962 213.455 208.943 213.584 208.975C213.712 209.007 213.823 209.086 213.896 209.197L217.362 214.206C217.444 214.336 217.498 214.482 217.52 214.634C217.542 214.787 217.532 214.942 217.49 215.09C217.449 215.238 217.377 215.376 217.279 215.495C217.181 215.613 217.059 215.71 216.921 215.779C214.517 216.911 213.304 217.342 210.299 218.834C208.456 219.756 205.039 222.221 202.484 223.483C199.93 224.745 198.547 222.291 199.479 221.539C202.257 219.444 204.349 216.571 205.49 213.284C205.674 212.897 205.99 212.588 206.382 212.413Z" fill="#263238"/>
<g opacity="0.2">
<path opacity="0.2" d="M212.081 197.986L205.309 197.665L206.11 206.472L212.873 206.572L212.081 197.986Z" fill="black"/>
</g>
<path d="M218.103 98.9529C218.103 98.9529 200.52 132.825 199.709 145.89C198.867 159.294 204.488 204.167 204.488 204.167L213.725 204.598C213.725 204.598 214.947 165.015 214.396 145.98C220.107 132.345 245.093 112.648 236.948 97.8909L218.103 98.9529Z" fill="#263238"/>
<path d="M214.335 205.109L203.675 204.608L202.994 198.717L214.525 197.154L214.335 205.109Z" fill="white"/>
<path d="M203.575 214.787H203.495C203.344 214.74 203.208 214.656 203.1 214.542C202.991 214.428 202.913 214.288 202.874 214.136C202.839 214.046 202.829 213.948 202.845 213.853C202.861 213.758 202.902 213.669 202.964 213.595C203.505 212.923 205.97 213.194 206.22 213.224C206.252 213.228 206.283 213.242 206.308 213.263C206.333 213.285 206.351 213.313 206.36 213.344C206.366 213.375 206.364 213.408 206.353 213.437C206.342 213.467 206.324 213.494 206.3 213.515C205.629 214.046 204.377 214.947 203.575 214.787ZM205.799 213.484C204.797 213.404 203.495 213.424 203.204 213.775C203.182 213.811 203.171 213.853 203.171 213.895C203.171 213.938 203.182 213.979 203.204 214.015C203.229 214.117 203.278 214.21 203.348 214.287C203.419 214.364 203.507 214.422 203.605 214.456C204.026 214.587 204.837 214.226 205.799 213.484Z" fill="white"/>
<path d="M205.94 213.495C205.118 213.334 203.676 212.653 203.495 211.972C203.461 211.849 203.47 211.718 203.521 211.601C203.572 211.484 203.662 211.388 203.776 211.331C203.877 211.262 203.993 211.216 204.114 211.197C204.235 211.178 204.359 211.186 204.477 211.22C205.479 211.481 206.311 213.224 206.351 213.294C206.363 213.319 206.369 213.346 206.369 213.374C206.369 213.402 206.363 213.43 206.351 213.454C206.334 213.479 206.312 213.498 206.285 213.51C206.259 213.523 206.229 213.528 206.2 213.525L205.94 213.495ZM204.347 211.491C204.28 211.476 204.21 211.476 204.143 211.489C204.076 211.503 204.012 211.531 203.956 211.571C203.776 211.681 203.786 211.781 203.806 211.862C203.926 212.312 205.108 212.964 205.91 213.134C205.589 212.563 204.968 211.651 204.397 211.501L204.347 211.491Z" fill="white"/>
<path d="M237.309 96.2579L238.15 98.6823C238.261 98.8627 238.05 99.0731 237.73 99.0931L209.387 100.686C209.137 100.686 208.926 100.586 208.906 100.436L208.516 97.981C208.516 97.8107 208.696 97.6605 208.966 97.6404L236.828 96.0775C236.917 96.0591 237.009 96.0662 237.094 96.0981C237.18 96.13 237.254 96.1854 237.309 96.2579Z" fill="white"/>
<path d="M233.652 99.5841H234.403C234.554 99.5841 234.654 99.4939 234.644 99.4037L234.113 96.2178C234.113 96.1277 233.963 96.0575 233.812 96.0675H233.071C232.921 96.0675 232.81 96.1577 232.83 96.2579L233.361 99.4338C233.371 99.5239 233.502 99.5941 233.652 99.5841Z" fill="#263238"/>
<path d="M211.531 100.836L212.273 100.786C212.423 100.786 212.533 100.696 212.523 100.606L211.992 97.43C211.992 97.3299 211.842 97.2597 211.692 97.2698H210.94C210.8 97.2698 210.69 97.3699 210.7 97.4601L211.231 100.636C211.251 100.766 211.391 100.836 211.531 100.836Z" fill="#263238"/>
<path d="M222.551 100.215H223.292C223.442 100.215 223.553 100.115 223.533 100.025L223.002 96.849C223.002 96.7588 222.851 96.6887 222.701 96.6887L221.96 96.7388C221.809 96.7388 221.699 96.8289 221.719 96.9191L222.25 100.095C222.26 100.155 222.41 100.225 222.551 100.215Z" fill="#263238"/>
<path d="M247.718 108.28L243.41 113.74L250.283 113.149C250.283 113.149 251.836 110.384 250.493 107.909L247.718 108.28Z" fill="#FFB573"/>
<path d="M245.523 64.379C246.936 68.0758 248.158 71.7225 249.25 75.4795C250.379 79.2246 251.309 83.0269 252.035 86.8705C252.226 87.8724 252.386 88.8742 252.536 89.8761L252.717 91.469L252.797 93.0319C252.838 95.0586 252.758 97.086 252.556 99.1031C252.146 103.03 251.398 106.915 250.322 110.715L246.936 110.093C247.126 106.367 247.287 102.57 247.166 98.8827C247.116 97.0493 247.016 95.2259 246.806 93.4727L246.625 92.1803L246.395 90.928C246.205 90.0564 246.014 89.1447 245.794 88.2531C244.902 84.6664 243.79 81.0798 242.668 77.4932C241.546 73.9066 240.274 70.3199 239.031 66.8335L245.523 64.379Z" fill="#FFB573"/>
<path d="M239.341 57.8168C244.931 58.1374 248.358 68.707 248.358 68.707L236.906 73.3956C236.906 73.3956 234.542 68.1159 234.813 64.379C235.083 60.6421 236.255 57.6165 239.341 57.8168Z" fill="white"/>
<path d="M243.691 119.431L249.421 118.629L250.283 113.149L243.41 113.74L243.691 119.431Z" fill="#FFB573"/>
<path d="M235.055 42.7891C234.384 43.8941 233.304 44.6897 232.049 45.0032C230.376 45.3939 229.605 43.8811 230.126 42.3282C230.607 40.9356 232.049 39.0522 233.702 39.3227C234.066 39.3942 234.407 39.5565 234.691 39.7945C234.976 40.0325 235.196 40.3386 235.331 40.6843C235.466 41.03 235.511 41.4042 235.463 41.7721C235.415 42.14 235.274 42.4898 235.055 42.7891Z" fill="#FFB573"/>
<path d="M334.718 88.4334L324.699 78.4149C324.566 78.282 324.386 78.2074 324.198 78.2074C324.01 78.2074 323.83 78.282 323.697 78.4149C323.564 78.5478 323.49 78.7279 323.49 78.9158C323.49 79.1037 323.564 79.2839 323.697 79.4168L328.226 83.9351L318.688 93.4727C318.622 93.5385 318.57 93.6166 318.534 93.7026C318.499 93.7885 318.48 93.8806 318.48 93.9737C318.48 94.0667 318.499 94.1588 318.534 94.2448C318.57 94.3307 318.622 94.4088 318.688 94.4746C318.754 94.5404 318.832 94.5926 318.918 94.6282C319.004 94.6638 319.096 94.6821 319.189 94.6821C319.282 94.6821 319.374 94.6638 319.46 94.6282C319.546 94.5926 319.624 94.5404 319.69 94.4746L329.227 84.937L333.756 89.4653C333.822 89.5311 333.9 89.5833 333.986 89.6189C334.072 89.6545 334.164 89.6728 334.257 89.6728C334.35 89.6728 334.442 89.6545 334.528 89.6189C334.614 89.5833 334.692 89.5311 334.758 89.4653C334.823 89.3995 334.876 89.3214 334.911 89.2355C334.947 89.1495 334.965 89.0574 334.965 88.9644C334.965 88.8714 334.947 88.7792 334.911 88.6933C334.876 88.6073 334.823 88.5293 334.758 88.4635L334.718 88.4334Z" fill="#5FBE3F"/>
<path opacity="0.3" d="M334.718 88.4334L324.699 78.4149C324.566 78.282 324.386 78.2074 324.198 78.2074C324.01 78.2074 323.83 78.282 323.697 78.4149C323.564 78.5478 323.49 78.7279 323.49 78.9158C323.49 79.1037 323.564 79.2839 323.697 79.4168L328.226 83.9351L318.688 93.4727C318.622 93.5385 318.57 93.6166 318.534 93.7026C318.499 93.7885 318.48 93.8806 318.48 93.9737C318.48 94.0667 318.499 94.1588 318.534 94.2448C318.57 94.3307 318.622 94.4088 318.688 94.4746C318.754 94.5404 318.832 94.5926 318.918 94.6282C319.004 94.6638 319.096 94.6821 319.189 94.6821C319.282 94.6821 319.374 94.6638 319.46 94.6282C319.546 94.5926 319.624 94.5404 319.69 94.4746L329.227 84.937L333.756 89.4653C333.822 89.5311 333.9 89.5833 333.986 89.6189C334.072 89.6545 334.164 89.6728 334.257 89.6728C334.35 89.6728 334.442 89.6545 334.528 89.6189C334.614 89.5833 334.692 89.5311 334.758 89.4653C334.823 89.3995 334.876 89.3214 334.911 89.2355C334.947 89.1495 334.965 89.0574 334.965 88.9644C334.965 88.8714 334.947 88.7792 334.911 88.6933C334.876 88.6073 334.823 88.5293 334.758 88.4635L334.718 88.4334Z" fill="black"/>
<path d="M323.738 89.4052C323.151 88.8174 322.822 88.0212 322.822 87.1911C322.822 86.3611 323.151 85.5648 323.738 84.977L330.3 78.4149C330.887 77.8319 331.681 77.5047 332.509 77.5047C333.336 77.5047 334.13 77.8319 334.718 78.4149C335.304 79.0027 335.633 79.7989 335.633 80.629C335.633 81.4591 335.304 82.2553 334.718 82.8431L328.156 89.4052C327.568 89.9883 326.774 90.3154 325.947 90.3154C325.119 90.3154 324.325 89.9883 323.738 89.4052Z" fill="#5FBE3F"/>
<path d="M323.208 89.9362C322.177 88.9059 320.779 88.3272 319.321 88.3272C317.863 88.3272 316.465 88.9059 315.434 89.9362L323.208 97.7005C324.233 96.6683 324.808 95.2728 324.808 93.8183C324.808 92.3639 324.233 90.9684 323.208 89.9362Z" fill="#5FBE3F"/>
<path d="M328.379 75.0907L319.453 66.1647C318.698 65.4096 317.474 65.4096 316.719 66.1647L311.476 71.407C310.721 72.1621 310.721 73.3863 311.476 74.1415L320.402 83.0675C321.158 83.8226 322.382 83.8226 323.137 83.0675L328.379 77.8252C329.134 77.0701 329.134 75.8458 328.379 75.0907Z" fill="#5FBE3F"/>
<path opacity="0.3" d="M322.732 82.5984L327.911 77.4199C328.439 76.8917 328.439 76.0354 327.911 75.5072L319.049 66.6449C318.52 66.1167 317.664 66.1167 317.136 66.6449L311.957 71.8234C311.429 72.3516 311.429 73.208 311.957 73.7362L320.82 82.5984C321.348 83.1266 322.204 83.1266 322.732 82.5984Z" fill="white"/>
<path d="M346.981 93.6758L338.055 84.7498C337.3 83.9947 336.075 83.9947 335.32 84.7498L330.078 89.9921C329.323 90.7472 329.323 91.9714 330.078 92.7265L339.004 101.653C339.759 102.408 340.983 102.408 341.738 101.653L346.981 96.4103C347.736 95.6552 347.736 94.4309 346.981 93.6758Z" fill="#5FBE3F"/>
<path opacity="0.3" d="M341.318 101.183L346.497 96.0043C347.025 95.4761 347.025 94.6197 346.497 94.0915L337.634 85.2293C337.106 84.7011 336.25 84.7011 335.722 85.2293L330.543 90.4078C330.015 90.936 330.015 91.7923 330.543 92.3205L339.406 101.183C339.934 101.711 340.79 101.711 341.318 101.183Z" fill="white"/>
<path opacity="0.7" d="M332.951 82.5427L330.607 80.1978C330.466 80.057 330.237 80.057 330.097 80.1978L326.675 83.6195C326.534 83.7603 326.534 83.9887 326.675 84.1295L329.02 86.4744C329.161 86.6152 329.389 86.6152 329.53 86.4744L332.951 83.0527C333.092 82.9119 333.092 82.6835 332.951 82.5427Z" fill="white"/>
</svg>
