<svg width="482" height="405" viewBox="0 0 482 405" fill="none" xmlns="http://www.w3.org/2000/svg">
<path d="M419.303 373.125C422.957 371.411 427.063 370.91 431.022 371.695C433.151 372.055 435.374 372.724 436.824 374.288C438.275 375.852 438.543 378.702 436.876 380.07C435.804 380.797 434.512 381.124 433.223 380.996C430.137 380.996 426.69 380.42 424.21 382.282C422.801 383.311 421.854 385.112 420.167 385.637C419.322 385.834 418.435 385.75 417.642 385.397C416.849 385.044 416.193 384.442 415.774 383.682C414.969 382.127 414.792 380.322 415.28 378.64C415.478 377.472 415.945 376.366 416.643 375.409C417.341 374.453 418.251 373.671 419.303 373.125Z" fill="#EBEBEB"/>
<path d="M411.124 357.352C413.305 360.439 417.544 359.41 419.509 357.527C421.475 355.644 422.308 352.877 423.069 350.243C424.798 344.244 426.537 337.896 425.25 331.826C424.942 329.97 424.126 328.236 422.894 326.815C422.273 326.114 421.478 325.59 420.589 325.294C419.701 324.997 418.75 324.94 417.832 325.127C415.692 325.693 414.365 327.792 413.408 329.778C410.579 335.661 409.096 342.1 409.066 348.627C409.066 351.662 409.416 354.801 411.124 357.352Z" fill="#EBEBEB"/>
<path d="M405.136 361.818C406.258 360.355 407.006 358.639 407.315 356.821C407.623 355.003 407.483 353.137 406.905 351.385C405.708 347.889 403.572 344.788 400.732 342.423C397.507 339.547 393.749 337.331 389.672 335.9C388.092 335.262 386.394 334.971 384.692 335.046C383.843 335.098 383.019 335.355 382.291 335.796C381.563 336.237 380.954 336.848 380.515 337.577C379.352 339.8 380.515 342.495 381.677 344.687C383.812 348.56 386.244 352.261 388.951 355.758C391.133 358.567 393.623 361.334 396.946 362.6C400.269 363.865 403.716 363.721 405.475 361.417" fill="#EBEBEB"/>
<path d="M410.98 404.342C411.092 403.88 411.158 403.407 411.176 402.932C411.278 401.903 411.402 400.607 411.556 399.064C411.744 397.16 412.032 395.268 412.42 393.394C412.929 391.114 413.617 388.878 414.478 386.707C415.324 384.538 416.474 382.501 417.894 380.657C419.05 379.154 420.526 377.927 422.215 377.066C423.36 376.503 424.585 376.121 425.847 375.934C426.323 375.917 426.796 375.848 427.257 375.729C426.781 375.68 426.302 375.68 425.827 375.729C424.51 375.844 423.225 376.192 422.03 376.757C420.256 377.6 418.7 378.839 417.482 380.379C415.999 382.247 414.806 384.329 413.943 386.552C413.059 388.755 412.37 391.03 411.885 393.353C411.516 395.246 411.265 397.16 411.134 399.084C411.011 400.73 410.959 402.058 410.939 402.973C410.904 403.43 410.918 403.888 410.98 404.342Z" fill="#E0E0E0"/>
<path d="M411.247 401.358C411.274 401.139 411.274 400.918 411.247 400.7V398.827C411.247 397.191 411.247 394.835 411.33 391.923C411.474 386.1 411.978 379.824 412.945 370.985C413.861 362.672 415.095 353.001 416.392 346.714C416.669 345.284 416.957 343.998 417.215 342.866C417.472 341.734 417.688 340.808 417.894 339.975C418.099 339.141 418.213 338.627 418.336 338.143C418.399 337.936 418.437 337.722 418.449 337.505C418.345 337.696 418.269 337.9 418.223 338.113C418.079 338.586 417.894 339.141 417.678 339.913C417.462 340.685 417.184 341.662 416.896 342.794C416.608 343.926 416.299 345.202 415.99 346.621C414.381 354.062 413.172 361.584 412.369 369.154C411.34 378.013 410.959 386.079 410.918 391.913C410.918 394.835 410.918 397.201 411.021 398.827C411.021 399.599 411.103 400.216 411.134 400.71C411.142 400.93 411.18 401.148 411.247 401.358Z" fill="#E0E0E0"/>
<path d="M411.289 385.811C411.34 385.161 411.34 384.507 411.289 383.856C411.217 382.591 411.042 380.77 410.692 378.537C410.26 375.925 409.683 373.338 408.963 370.79C408.118 367.656 407.034 364.591 405.723 361.622C403.456 356.151 400.214 351.138 396.154 346.827C395.452 346.093 394.703 345.406 393.911 344.769C393.572 344.471 393.263 344.183 392.954 343.956L392.09 343.36C391.565 342.974 391.011 342.63 390.434 342.331C392.338 343.826 394.146 345.441 395.845 347.166C399.75 351.521 402.882 356.511 405.105 361.921C406.39 364.87 407.476 367.902 408.356 370.995C409.102 373.52 409.717 376.082 410.198 378.671C410.61 380.883 410.836 382.684 410.98 383.929C411.036 384.563 411.139 385.192 411.289 385.811Z" fill="#E0E0E0"/>
<path d="M438.944 80.2021L383.097 97.0038C381.794 97.3914 380.391 97.2475 379.194 96.6036C377.996 95.9597 377.103 94.8681 376.708 93.5673L354.073 18.3146C353.685 17.0117 353.829 15.6083 354.473 14.411C355.117 13.2138 356.209 12.3201 357.509 11.9252L396.606 0.185669L424.663 14.7855L442.422 73.8127C442.807 75.1211 442.658 76.5293 442.006 77.7275C441.354 78.9257 440.252 79.8158 438.944 80.2021Z" fill="#E0E0E0"/>
<path d="M396.504 0L401.01 14.96C401.274 15.8391 401.709 16.6576 402.289 17.3687C402.869 18.0798 403.584 18.6696 404.392 19.1043C405.201 19.5391 406.087 19.8103 407 19.9025C407.913 19.9946 408.836 19.9059 409.715 19.6414L424.623 14.7954L396.504 0Z" fill="#EBEBEB"/>
<path d="M426.093 67.8654C426.076 67.8025 426.055 67.7406 426.031 67.6802L425.856 67.176C425.712 66.7028 425.506 66.0443 425.239 65.2006C424.704 63.4515 423.922 60.941 422.934 57.7515C420.979 51.3415 418.191 42.2153 414.847 31.2782L415.136 31.4326L377.068 42.9252C377.068 42.9972 377.407 42.2976 377.253 42.596V42.6577V42.74L377.304 42.8944L377.397 43.203L377.582 43.8306L377.963 45.0756L378.703 47.5655L380.175 52.4527L383.014 61.9184C384.856 68.0917 386.595 73.8947 388.159 79.2449L387.871 79.0905L415.434 70.9212L423.233 68.6371L425.29 68.0403L425.825 67.8963C425.89 67.887 425.956 67.887 426.021 67.8963L425.867 67.958L425.352 68.1226L423.346 68.7502L415.701 71.0858L388.056 79.5227L387.829 79.5947L387.757 79.3683C386.142 74.0181 384.393 68.2152 382.531 62.0625C381.605 58.9895 380.651 55.8343 379.671 52.5967L378.199 47.7095L377.458 45.2196L377.078 43.9747L376.893 43.3471L376.8 43.0384L376.749 42.8841V42.8018V42.74C376.584 43.0384 376.965 42.3285 376.923 42.4005L414.991 30.9799L415.218 30.9078L415.28 31.1342C418.551 42.1638 421.268 51.3518 423.181 57.8132C424.117 60.9924 424.848 63.5029 425.362 65.252L425.918 67.1966L426.052 67.6905C426.093 67.8139 426.103 67.8654 426.093 67.8654Z" fill="white"/>
<path d="M406.812 74.1717C406.668 74.1717 404.086 66.0436 401.051 55.9296C398.016 45.8157 395.649 37.564 395.793 37.5229C395.937 37.4817 398.51 45.6511 401.555 55.7753C404.6 65.8995 406.957 74.0894 406.812 74.1717Z" fill="white"/>
<path d="M423.253 58.9238C423.253 59.0576 414.765 61.7533 404.209 64.9325C393.653 68.1118 385.041 70.5708 385 70.4268C384.959 70.2827 393.488 67.5973 404.055 64.4181C414.621 61.2388 423.202 58.7386 423.253 58.9238Z" fill="white"/>
<path d="M420.847 49.479C420.847 49.6231 412.359 52.3084 401.803 55.4877C391.247 58.667 382.645 61.126 382.594 60.982C382.543 60.8379 391.082 58.1525 401.649 54.9733C412.215 51.794 420.847 49.3041 420.847 49.479Z" fill="white"/>
<path d="M417.76 40.2187C417.76 40.3627 409.344 43.0275 398.859 46.1862C388.375 49.3449 379.846 51.7833 379.805 51.6393C379.764 51.4953 388.221 48.8202 398.705 45.6718C409.189 42.5234 417.76 40.0438 417.76 40.2187Z" fill="white"/>
<path d="M30.9066 157.625L2.0984 152.48C1.43105 152.355 0.840211 151.971 0.454737 151.412C0.0692621 150.853 -0.079579 150.165 0.0406734 149.497L6.98551 110.738C7.04619 110.407 7.17151 110.091 7.35433 109.809C7.53714 109.526 7.77386 109.282 8.05096 109.091C8.32805 108.9 8.64009 108.765 8.96923 108.695C9.29838 108.625 9.63818 108.62 9.96922 108.681L30.1041 112.241L39.3639 125.133L33.9109 155.536C33.8526 155.871 33.7284 156.192 33.5455 156.479C33.3625 156.766 33.1244 157.014 32.8449 157.208C32.5655 157.402 32.2503 157.539 31.9176 157.611C31.5848 157.682 31.2412 157.687 30.9066 157.625Z" fill="#E0E0E0"/>
<path d="M30.1153 112.158L28.7366 119.865C28.6476 120.321 28.6504 120.791 28.745 121.246C28.8396 121.701 29.024 122.133 29.2874 122.516C29.5508 122.9 29.8881 123.226 30.2793 123.478C30.6705 123.729 31.108 123.9 31.566 123.98L39.3339 125.194L30.1153 112.158Z" fill="#EBEBEB"/>
<path d="M27.954 149.189C27.944 149.065 27.944 148.942 27.954 148.818L28.1083 147.789C28.2626 146.843 28.4787 145.546 28.7462 143.921C29.3121 140.577 30.1146 135.895 31.0714 130.288L31.2566 130.556L11.667 127.057L11.9757 126.852V126.913V126.996V127.16L11.914 127.479L11.8008 128.117C11.7185 128.549 11.6465 128.971 11.5744 129.393C11.4201 130.247 11.2658 131.091 11.1115 131.914C10.8131 133.58 10.525 135.206 10.2369 136.791C9.66076 139.96 9.11546 142.964 8.61132 145.701L8.42612 145.433L22.5524 148.088L26.5547 148.87L27.5836 149.086L27.9643 149.178H27.6247L26.5959 149.024L22.6245 148.366L8.27179 145.907H8.03516V145.67C8.52901 142.912 9.06402 139.918 9.60932 136.749C9.8974 135.165 10.1855 133.539 10.4839 131.873C10.6279 131.039 10.7822 130.206 10.9263 129.352C11.0086 128.93 11.0806 128.508 11.1629 128.076L11.2761 127.438L11.3275 127.109V126.954V126.872V126.81L11.6362 126.594L31.2566 130.154H31.483V130.381C30.4541 136.029 29.5281 140.752 28.9005 144.116C28.5919 145.711 28.3347 146.987 28.1597 147.913C28.0774 148.314 28.0054 148.633 27.954 148.942C27.9618 149.024 27.9618 149.107 27.954 149.189Z" fill="white"/>
<path d="M17.9121 147.624C18.2124 144.438 18.6899 141.271 19.3422 138.138C19.8215 134.973 20.4741 131.837 21.2971 128.744C20.9968 131.931 20.5193 135.098 19.867 138.231C19.3938 141.396 18.7411 144.533 17.9121 147.624Z" fill="white"/>
<path d="M28.7042 144.547C25.3798 144.229 22.0756 143.728 18.8065 143.045C15.5066 142.538 12.2368 141.851 9.01172 140.988C12.3353 141.312 15.6393 141.813 18.9094 142.49C22.2082 143.003 25.4777 143.69 28.7042 144.547Z" fill="white"/>
<path d="M29.7965 139.784C26.4736 139.454 23.1699 138.953 19.8988 138.282C16.5962 137.771 13.3232 137.084 10.0938 136.224C13.4176 136.547 16.7216 137.048 19.9914 137.726C23.2952 138.231 26.5685 138.918 29.7965 139.784Z" fill="white"/>
<path d="M30.5055 134.938C27.2093 134.622 23.9327 134.127 20.6901 133.456C17.4124 132.939 14.1637 132.252 10.957 131.399C14.2574 131.708 17.5378 132.203 20.7827 132.88C24.0582 133.391 27.3038 134.078 30.5055 134.938Z" fill="white"/>
<path d="M464.707 404.208C464.707 404.352 363.528 404.476 238.747 404.476C113.967 404.476 12.7676 404.352 12.7676 404.208C12.7676 404.064 113.926 403.941 238.747 403.941C363.569 403.941 464.707 404.064 464.707 404.208Z" fill="#263238"/>
<path d="M135.636 63.5442L95.7263 77.3313C94.7958 77.6528 93.7757 77.5918 92.8902 77.1615C92.0047 76.7313 91.3262 75.9671 91.0038 75.0369L72.4843 21.2673C72.1639 20.3434 72.2208 19.3304 72.6427 18.4482C73.0645 17.566 73.8172 16.8857 74.7375 16.555L102.64 6.92468L123.372 16.6579L137.941 58.8422C138.258 59.7714 138.194 60.7886 137.762 61.6703C137.329 62.552 136.565 63.226 135.636 63.5442Z" fill="#5FBE3F"/>
<path d="M102.6 6.77966L106.293 17.4595C106.73 18.728 107.653 19.771 108.859 20.3594C110.065 20.9478 111.455 21.0335 112.724 20.5976L123.372 16.6467L102.6 6.77966Z" fill="#5FBE3F"/>
<g opacity="0.2">
<path opacity="0.2" d="M102.6 6.77966L106.293 17.4595C106.73 18.728 107.653 19.771 108.859 20.3594C110.065 20.9478 111.455 21.0335 112.724 20.5976L123.372 16.6467L102.6 6.77966Z" fill="black"/>
</g>
<path d="M125.985 54.9937C125.906 54.8337 125.837 54.6687 125.779 54.4998C125.656 54.15 125.481 53.6767 125.265 53.0903L123.372 47.7709C121.746 43.1718 119.462 36.6796 116.715 28.8806L117.013 29.0246L89.8103 38.4595C89.8103 38.5418 90.1189 37.8216 89.9749 38.1303V38.2435L90.0469 38.4698L90.2012 38.9122L90.5099 39.8074L91.1272 41.577C91.5285 42.7603 91.9297 43.9229 92.331 45.0753C93.1232 47.38 93.9051 49.6435 94.6562 51.8453C96.1686 56.2387 97.5988 60.3954 98.9054 64.1919L98.6173 64.0479L118.361 57.5042L123.958 55.6522L125.45 55.1583L125.985 55.004C125.833 55.0822 125.675 55.1475 125.512 55.1995L124.082 55.7139L118.598 57.71L98.8128 64.6138L98.5968 64.6961L98.5247 64.4697C97.1975 60.6526 95.7468 56.5062 94.2241 52.1231L91.8989 45.3633C91.4976 44.211 91.0963 43.0381 90.6951 41.8651L90.0778 40.0954L89.7691 39.2003L89.6148 38.7579L89.5428 38.5315V38.4184C89.3987 38.7167 89.7485 37.9965 89.7177 38.0685L116.941 28.7057L117.168 28.6337L117.24 28.8497C119.905 36.731 122.137 43.2541 123.711 47.9458L125.481 53.2549C125.666 53.8414 125.821 54.2838 125.934 54.6439C126.047 55.004 125.995 55.004 125.985 54.9937Z" fill="white"/>
<path d="M112.188 60.097C112.054 60.1484 109.914 54.3249 107.414 47.0919C104.914 39.8588 103 33.9633 103.144 33.9118C103.288 33.8604 105.418 39.6839 107.918 46.9169C110.418 54.15 112.363 60.0455 112.188 60.097Z" fill="white"/>
<path d="M123.659 48.6151C123.659 48.7488 117.63 50.9815 110.088 53.5846C102.547 56.1877 96.3838 58.194 96.3324 58.05C96.2809 57.9059 102.362 55.6835 109.913 53.0804C117.465 50.4774 123.618 48.4505 123.659 48.6151Z" fill="white"/>
<path d="M121.663 41.8344C121.663 41.9682 115.634 44.2009 108.092 46.804C100.551 49.407 94.3877 51.4134 94.3363 51.2693C94.2848 51.1253 100.365 48.9029 107.917 46.2998C115.469 43.6967 121.622 41.6904 121.663 41.8344Z" fill="white"/>
<path d="M119.152 35.2295C119.152 35.3632 113.164 37.5753 105.685 40.1579C98.2048 42.7404 92.083 44.7364 92.0316 44.5923C91.9801 44.4483 98.0196 42.2465 105.51 39.6537C113 37.0609 119.101 35.0752 119.152 35.2295Z" fill="white"/>
<path d="M418.717 303.778L397.801 314.797C397.559 314.927 397.295 315.008 397.022 315.034C396.749 315.06 396.474 315.032 396.212 314.951C395.951 314.869 395.708 314.736 395.498 314.56C395.289 314.383 395.116 314.167 394.992 313.923L380.145 285.741C380.015 285.501 379.934 285.237 379.907 284.964C379.88 284.692 379.907 284.417 379.987 284.155C380.068 283.894 380.2 283.651 380.375 283.441C380.551 283.231 380.766 283.058 381.009 282.933L395.64 275.226L407.986 278.858L419.633 300.969C419.762 301.213 419.84 301.48 419.863 301.754C419.887 302.029 419.855 302.305 419.77 302.567C419.684 302.829 419.547 303.071 419.366 303.279C419.186 303.487 418.965 303.657 418.717 303.778Z" fill="#455A64"/>
<path d="M395.609 275.155L398.562 280.752C398.735 281.082 398.971 281.375 399.256 281.614C399.542 281.853 399.872 282.033 400.228 282.144C400.584 282.254 400.958 282.294 401.329 282.26C401.7 282.226 402.06 282.119 402.39 281.945L407.945 278.859L395.609 275.155Z" fill="#E0E0E0"/>
<path d="M412.616 299.858C412.399 299.527 412.204 299.183 412.029 298.829L410.496 296.051L405.177 286.204L405.496 286.307L391.236 293.859L391.349 293.499V293.561L391.411 293.674L391.534 293.911L391.781 294.374L392.265 295.31L393.232 297.141L395.094 300.691L398.489 307.183L398.17 307.091L408.459 301.782L411.422 300.3C412.112 299.95 412.451 299.775 412.513 299.775C412.208 299.987 411.888 300.176 411.556 300.341L408.706 301.915L398.345 307.502L398.15 307.616L398.037 307.41C397.008 305.403 395.814 303.232 394.6 300.928C393.983 299.775 393.366 298.592 392.717 297.388L391.75 295.557L391.267 294.631L391.02 294.158L390.896 293.931L390.835 293.808V293.746C390.732 294.065 390.968 293.304 390.948 293.386L405.239 285.896L405.445 285.793L405.547 285.999C407.667 290.114 409.437 293.582 410.692 296.071C411.268 297.234 411.721 298.129 412.091 298.86C412.288 299.18 412.463 299.514 412.616 299.858Z" fill="white"/>
<path d="M405.465 303.85C404.021 301.698 402.731 299.446 401.607 297.111C400.32 294.864 399.192 292.53 398.232 290.125C399.664 292.283 400.949 294.534 402.08 296.864C403.359 299.117 404.49 301.45 405.465 303.85Z" fill="white"/>
<path d="M410.816 296.524C408.562 298.017 406.211 299.358 403.779 300.537C401.428 301.87 398.995 303.052 396.494 304.076C398.747 302.582 401.098 301.241 403.532 300.064C405.879 298.725 408.313 297.543 410.816 296.524Z" fill="white"/>
<path d="M409.138 292.944C406.881 294.428 404.53 295.765 402.101 296.946C399.754 298.299 397.321 299.495 394.816 300.527C399.416 297.695 404.201 295.176 409.138 292.985V292.944Z" fill="white"/>
<path d="M407.184 289.497C402.618 292.312 397.868 294.814 392.965 296.988C397.533 294.179 402.283 291.677 407.184 289.497Z" fill="white"/>
<path d="M456.198 71.4045H57.9141V287.367H456.198V71.4045Z" fill="#F5F5F5"/>
<path d="M456.198 71.4045H57.9141V89.5952H456.198V71.4045Z" fill="#263238"/>
<path d="M67.3392 83.0005C68.5836 83.0005 69.5924 81.9917 69.5924 80.7473C69.5924 79.5028 68.5836 78.494 67.3392 78.494C66.0947 78.494 65.0859 79.5028 65.0859 80.7473C65.0859 81.9917 66.0947 83.0005 67.3392 83.0005Z" fill="#FAFAFA"/>
<path d="M75.5384 83.0005C76.7828 83.0005 77.7916 81.9917 77.7916 80.7473C77.7916 79.5028 76.7828 78.494 75.5384 78.494C74.2939 78.494 73.2852 79.5028 73.2852 80.7473C73.2852 81.9917 74.2939 83.0005 75.5384 83.0005Z" fill="#FAFAFA"/>
<path d="M83.7376 83.0005C84.982 83.0005 85.9908 81.9917 85.9908 80.7473C85.9908 79.5028 84.982 78.494 83.7376 78.494C82.4932 78.494 81.4844 79.5028 81.4844 80.7473C81.4844 81.9917 82.4932 83.0005 83.7376 83.0005Z" fill="#FAFAFA"/>
<path d="M71.8028 120.853H57.3164V287.357H71.8028V120.853Z" fill="#455A64"/>
<path d="M57.3164 114.442V128.929L456.022 128.929V114.442L57.3164 114.442Z" fill="#455A64"/>
<path d="M71.8046 278.087C71.6606 278.087 71.5371 241.458 71.5371 196.27C71.5371 151.081 71.6606 114.442 71.8046 114.442C71.9487 114.442 72.0721 151.071 72.0721 196.27C72.0721 241.469 71.9589 278.087 71.8046 278.087Z" fill="#E0E0E0"/>
<path d="M128.762 287.358C128.618 287.358 128.494 248.651 128.494 200.931C128.494 153.212 128.618 114.505 128.762 114.505C128.906 114.505 129.029 153.212 129.029 200.931C129.029 248.651 128.906 287.358 128.762 287.358Z" fill="#E0E0E0"/>
<path d="M189.178 287.357C189.034 287.357 188.91 248.774 188.91 201.188C188.91 153.602 189.034 115.019 189.178 115.019C189.322 115.019 189.445 153.592 189.445 201.188C189.445 248.785 189.353 287.357 189.178 287.357Z" fill="#E0E0E0"/>
<path d="M248.172 287.357C248.017 287.357 247.904 248.774 247.904 201.188C247.904 153.602 248.017 115.019 248.172 115.019C248.326 115.019 248.439 153.592 248.439 201.188C248.439 248.785 248.316 287.357 248.172 287.357Z" fill="#E0E0E0"/>
<path d="M308.545 287.358C308.401 287.358 308.277 248.651 308.277 200.931C308.277 153.212 308.401 114.505 308.545 114.505C308.689 114.505 308.812 153.212 308.812 200.931C308.812 248.651 308.699 287.358 308.545 287.358Z" fill="#E0E0E0"/>
<path d="M368.93 287.358C368.775 287.358 368.662 248.651 368.662 200.931C368.662 153.212 368.775 114.505 368.93 114.505C369.084 114.505 369.197 153.212 369.197 200.931C369.197 248.651 369.074 287.358 368.93 287.358Z" fill="#E0E0E0"/>
<path d="M429.303 287.357C429.159 287.357 429.035 248.774 429.035 201.188C429.035 153.602 429.159 115.019 429.303 115.019C429.447 115.019 429.57 153.592 429.57 201.188C429.57 248.785 429.457 287.357 429.303 287.357Z" fill="#E0E0E0"/>
<path d="M453.822 142.151C453.822 142.295 365.062 142.418 255.59 142.418C146.119 142.418 57.3281 142.295 57.3281 142.151C57.3281 142.007 146.078 141.873 255.59 141.873C365.103 141.873 453.822 141.997 453.822 142.151Z" fill="#E0E0E0"/>
<path d="M453.822 128.929C453.822 129.084 365.062 129.197 255.59 129.197C146.119 129.197 57.3281 129.084 57.3281 128.929C57.3281 128.775 146.078 128.662 255.59 128.662C365.103 128.662 453.822 128.785 453.822 128.929Z" fill="#E0E0E0"/>
<path d="M453.822 156.061C453.822 156.216 365.062 156.329 255.59 156.329C146.119 156.329 57.3281 156.216 57.3281 156.061C57.3281 155.907 146.078 155.794 255.59 155.794C365.103 155.794 453.822 155.917 453.822 156.061Z" fill="#E0E0E0"/>
<path d="M453.822 169.982C453.822 170.126 365.062 170.25 255.59 170.25C146.119 170.25 57.3281 170.126 57.3281 169.982C57.3281 169.838 146.078 169.715 255.59 169.715C365.103 169.715 453.822 169.859 453.822 169.982Z" fill="#E0E0E0"/>
<path d="M453.822 183.903C453.822 184.047 365.062 184.17 255.59 184.17C146.119 184.17 57.3281 184.047 57.3281 183.903C57.3281 183.759 146.078 183.635 255.59 183.635C365.103 183.635 453.822 183.749 453.822 183.903Z" fill="#E0E0E0"/>
<path d="M453.822 197.814C453.822 197.968 365.062 198.081 255.59 198.081C146.119 198.081 57.3281 197.968 57.3281 197.814C57.3281 197.659 146.078 197.546 255.59 197.546C365.103 197.546 453.822 197.639 453.822 197.814Z" fill="#E0E0E0"/>
<path d="M453.822 211.735C453.822 211.879 365.062 212.002 255.59 212.002C146.119 212.002 57.3281 211.879 57.3281 211.735C57.3281 211.591 146.078 211.467 255.59 211.467C365.103 211.467 453.822 211.591 453.822 211.735Z" fill="#E0E0E0"/>
<path d="M453.822 225.655C453.822 225.799 365.062 225.923 255.59 225.923C146.119 225.923 57.3281 225.799 57.3281 225.655C57.3281 225.511 146.078 225.388 255.59 225.388C365.103 225.388 453.822 225.501 453.822 225.655Z" fill="#E0E0E0"/>
<path d="M453.822 239.565C453.822 239.719 365.062 239.843 255.59 239.843C146.119 239.843 57.3281 239.719 57.3281 239.565C57.3281 239.411 146.078 239.298 255.59 239.298C365.103 239.298 453.822 239.421 453.822 239.565Z" fill="#E0E0E0"/>
<path d="M453.822 253.486C453.822 253.64 365.062 253.753 255.59 253.753C146.119 253.753 57.3281 253.64 57.3281 253.486C57.3281 253.332 146.078 253.218 255.59 253.218C365.103 253.218 453.822 253.342 453.822 253.486Z" fill="#E0E0E0"/>
<path d="M453.822 267.407C453.822 267.551 365.062 267.674 255.59 267.674C146.119 267.674 57.3281 267.551 57.3281 267.407C57.3281 267.263 146.078 267.139 255.59 267.139C365.103 267.139 453.822 267.263 453.822 267.407Z" fill="#E0E0E0"/>
<path d="M453.822 281.327C453.822 281.472 365.062 281.595 255.59 281.595C146.119 281.595 57.3281 281.472 57.3281 281.327C57.3281 281.183 146.078 281.06 255.59 281.06C365.103 281.06 453.822 281.173 453.822 281.327Z" fill="#E0E0E0"/>
<path d="M456.014 128.929H71.8047V156.061H456.014V128.929Z" fill="#5FBE3F"/>
<path d="M374.28 140.607C374.28 140.751 329.071 140.874 273.307 140.874C217.542 140.874 172.334 140.751 172.334 140.607C172.334 140.463 217.532 140.339 273.307 140.339C329.082 140.339 374.28 140.453 374.28 140.607Z" fill="#FAFAFA"/>
<path d="M393.406 148.334C393.406 148.478 336.87 148.601 267.144 148.601C197.418 148.601 140.861 148.478 140.861 148.334C140.861 148.19 197.387 148.066 267.144 148.066C336.901 148.066 393.406 148.179 393.406 148.334Z" fill="#FAFAFA"/>
<path d="M248.172 169.982H128.762V183.902H248.172V169.982Z" fill="#5FBE3F"/>
<path d="M248.172 182.359H128.762V241.098H248.172V182.359Z" fill="#EBEBEB"/>
<path d="M179.28 190.241C179.28 190.395 169.424 190.508 157.273 190.508C145.122 190.508 135.266 190.395 135.266 190.241C135.266 190.087 145.122 189.973 157.273 189.973C169.424 189.973 179.28 190.097 179.28 190.241Z" fill="#263238"/>
<path d="M161.707 205.52C161.707 205.674 155.781 205.787 148.487 205.787C141.192 205.787 135.266 205.674 135.266 205.52C135.266 205.365 141.182 205.252 148.487 205.252C155.791 205.252 161.707 205.376 161.707 205.52Z" fill="#263238"/>
<path d="M183.53 216.652C183.53 216.796 172.727 216.92 159.403 216.92C146.079 216.92 135.266 216.796 135.266 216.652C135.266 216.508 146.069 216.385 159.403 216.385C172.737 216.385 183.53 216.498 183.53 216.652Z" fill="#263238"/>
<path d="M161.707 194.397C161.707 194.541 155.781 194.665 148.487 194.665C141.192 194.665 135.266 194.541 135.266 194.397C135.266 194.253 141.182 194.13 148.487 194.13C155.791 194.13 161.707 194.243 161.707 194.397Z" fill="#263238"/>
<path d="M243.737 190.241C241.408 190.512 239.062 190.601 236.72 190.509C234.378 190.601 232.032 190.512 229.703 190.241C232.032 189.976 234.378 189.887 236.72 189.974C239.062 189.887 241.408 189.976 243.737 190.241Z" fill="#263238"/>
<path d="M243.737 202.783C241.408 203.048 239.062 203.137 236.72 203.051C234.378 203.137 232.032 203.048 229.703 202.783C232.032 202.512 234.378 202.423 236.72 202.516C239.062 202.423 241.408 202.512 243.737 202.783Z" fill="#263238"/>
<path d="M243.737 216.652C241.408 216.917 239.062 217.007 236.72 216.92C234.378 217.007 232.032 216.917 229.703 216.652C232.032 216.381 234.378 216.292 236.72 216.385C239.062 216.292 241.408 216.381 243.737 216.652Z" fill="#263238"/>
<path d="M242.966 233.649C242.966 233.793 237.997 233.917 231.865 233.917C225.733 233.917 220.773 233.793 220.773 233.649C220.773 233.505 225.733 233.381 231.865 233.381C237.997 233.381 242.966 233.505 242.966 233.649Z" fill="#263238"/>
<path d="M189.178 240.08C189.034 240.08 188.91 227.383 188.91 211.734C188.91 196.085 189.034 183.388 189.178 183.388C189.322 183.388 189.445 196.074 189.445 211.734C189.445 227.394 189.353 240.08 189.178 240.08Z" fill="#E0E0E0"/>
<path d="M247.175 224.39C247.175 224.534 233.975 224.657 217.688 224.657C201.401 224.657 188.211 224.534 188.211 224.39C188.211 224.246 201.401 224.122 217.688 224.122C233.975 224.122 247.175 224.266 247.175 224.39Z" fill="#E0E0E0"/>
<path d="M248.172 266.893H128.762V281.328H248.172V266.893Z" fill="#F5F5F5"/>
<path d="M248.172 253.486H128.566V267.407H248.172V253.486Z" fill="#5FBE3F"/>
<path d="M184.536 274.805C184.536 274.959 173.27 275.072 159.38 275.072C145.491 275.072 134.225 274.959 134.225 274.805C134.225 274.651 145.48 274.537 159.38 274.537C173.28 274.537 184.536 274.671 184.536 274.805Z" fill="#263238"/>
<path d="M242.966 274.105C242.966 274.249 237.997 274.373 231.865 274.373C225.733 274.373 220.773 274.249 220.773 274.105C220.773 273.961 225.733 273.838 231.865 273.838C237.997 273.838 242.966 273.961 242.966 274.105Z" fill="#263238"/>
<path d="M321.787 218.195H311.457V253.239H321.787V218.195Z" fill="#5FBE3F"/>
<path d="M384.549 224.554H374.219V253.239H384.549V224.554Z" fill="#5FBE3F"/>
<path d="M426.392 232.568H416.062V253.239H426.392V232.568Z" fill="#263238"/>
<path d="M342.715 196.703H332.385V253.24H342.715V196.703Z" fill="#455A64"/>
<path d="M363.631 196.703H353.301V253.24H363.631V196.703Z" fill="#263238"/>
<path d="M405.466 183.645H395.137V253.239H405.466V183.645Z" fill="#455A64"/>
<path d="M77.802 95.9535H68.6348V105.121H77.802V95.9535Z" fill="#5FBE3F"/>
<path d="M83.1311 109.155H72.9453V98.9583H83.1311V109.155ZM73.9742 108.126H82.1022V99.9871H73.9742V108.126Z" fill="#5FBE3F"/>
<path d="M105.119 98.3815H96.5586V106.942H105.119V98.3815Z" fill="#E0E0E0"/>
<path d="M119.029 98.3815H110.469V106.942H119.029V98.3815Z" fill="#E0E0E0"/>
<path d="M132.939 98.3815H124.379V106.942H132.939V98.3815Z" fill="#E0E0E0"/>
<path d="M146.859 98.3815H138.299V106.942H146.859V98.3815Z" fill="#E0E0E0"/>
<path d="M160.771 98.3815H152.211V106.942H160.771V98.3815Z" fill="#E0E0E0"/>
<path d="M263.986 98.2991H173.508V107.034H263.986V98.2991Z" fill="#E0E0E0"/>
<path d="M366.883 98.2991H276.404V107.034H366.883V98.2991Z" fill="#E0E0E0"/>
<path d="M456.022 98.2991H378.014V107.034H456.022V98.2991Z" fill="#E0E0E0"/>
<path d="M456.197 287.357C456.197 285.731 456.115 204.243 455.991 71.404L456.197 71.5995L57.9443 71.6715L58.2118 71.404C58.2118 147.706 58.2118 220.757 58.2118 287.357L57.9649 287.11L456.249 287.357L57.9649 287.614H57.6562V287.357C57.6562 220.757 57.6562 147.706 57.6562 71.404V71.1365H57.9546L456.208 71.1982H456.413V71.404C456.269 204.243 456.197 285.741 456.197 287.357Z" fill="#263238"/>
<path d="M429.663 53.955H31.3789V269.918H429.663V53.955Z" fill="#F5F5F5"/>
<path d="M429.663 53.955H31.3789V72.1456H429.663V53.955Z" fill="#263238"/>
<path d="M40.8157 65.5499C42.0601 65.5499 43.0689 64.541 43.0689 63.2966C43.0689 62.0522 42.0601 61.0433 40.8157 61.0433C39.5713 61.0433 38.5625 62.0522 38.5625 63.2966C38.5625 64.541 39.5713 65.5499 40.8157 65.5499Z" fill="#FAFAFA"/>
<path d="M49.0149 65.5499C50.2593 65.5499 51.2681 64.541 51.2681 63.2966C51.2681 62.0522 50.2593 61.0433 49.0149 61.0433C47.7705 61.0433 46.7617 62.0522 46.7617 63.2966C46.7617 64.541 47.7705 65.5499 49.0149 65.5499Z" fill="#FAFAFA"/>
<path d="M57.2142 65.5499C58.4586 65.5499 59.4674 64.541 59.4674 63.2966C59.4674 62.0522 58.4586 61.0433 57.2142 61.0433C55.9697 61.0433 54.9609 62.0522 54.9609 63.2966C54.9609 64.541 55.9697 65.5499 57.2142 65.5499Z" fill="#FAFAFA"/>
<path d="M45.2794 103.403H30.793V269.908H45.2794V103.403Z" fill="#455A64"/>
<path d="M30.7832 96.9927V111.479L429.489 111.479V96.9927L30.7832 96.9927Z" fill="#455A64"/>
<path d="M45.3105 260.637C45.1664 260.637 45.043 223.998 45.043 178.82C45.043 133.642 45.1664 96.9928 45.3105 96.9928C45.4545 96.9928 45.578 133.621 45.578 178.82C45.578 224.019 45.4236 260.637 45.3105 260.637Z" fill="#E0E0E0"/>
<path d="M102.238 269.907C102.094 269.907 101.971 231.2 101.971 183.481C101.971 135.761 102.094 97.0543 102.238 97.0543C102.382 97.0543 102.506 135.761 102.506 183.481C102.506 231.2 102.382 269.907 102.238 269.907Z" fill="#E0E0E0"/>
<path d="M162.652 269.907C162.508 269.907 162.385 231.324 162.385 183.738C162.385 136.152 162.508 97.5685 162.652 97.5685C162.796 97.5685 162.92 136.141 162.92 183.738C162.92 231.334 162.807 269.907 162.652 269.907Z" fill="#E0E0E0"/>
<path d="M221.648 269.907C221.494 269.907 221.381 231.324 221.381 183.738C221.381 136.152 221.494 97.5685 221.648 97.5685C221.803 97.5685 221.916 136.141 221.916 183.738C221.916 231.334 221.792 269.907 221.648 269.907Z" fill="#E0E0E0"/>
<path d="M282.021 269.907C281.877 269.907 281.754 231.2 281.754 183.481C281.754 135.761 281.877 97.0543 282.021 97.0543C282.165 97.0543 282.289 135.761 282.289 183.481C282.289 231.2 282.165 269.907 282.021 269.907Z" fill="#E0E0E0"/>
<path d="M342.407 269.907C342.252 269.907 342.129 231.2 342.129 183.481C342.129 135.761 342.252 97.0543 342.407 97.0543C342.561 97.0543 342.674 135.761 342.674 183.481C342.674 231.2 342.551 269.907 342.407 269.907Z" fill="#E0E0E0"/>
<path d="M402.779 269.907C402.635 269.907 402.512 231.324 402.512 183.738C402.512 136.152 402.635 97.5685 402.779 97.5685C402.923 97.5685 403.047 136.141 403.047 183.738C403.047 231.334 402.923 269.907 402.779 269.907Z" fill="#E0E0E0"/>
<path d="M427.298 124.691C427.298 124.845 338.538 124.969 229.067 124.969C119.596 124.969 30.8047 124.845 30.8047 124.691C30.8047 124.537 119.555 124.423 229.067 124.423C338.579 124.423 427.298 124.588 427.298 124.691Z" fill="#E0E0E0"/>
<path d="M427.298 111.48C427.298 111.634 338.538 111.747 229.067 111.747C119.596 111.747 30.8047 111.634 30.8047 111.48C30.8047 111.326 119.555 111.212 229.067 111.212C338.579 111.212 427.298 111.336 427.298 111.48Z" fill="#E0E0E0"/>
<path d="M427.298 138.612C427.298 138.766 338.538 138.879 229.067 138.879C119.596 138.879 30.8047 138.766 30.8047 138.612C30.8047 138.457 119.555 138.344 229.067 138.344C338.579 138.344 427.298 138.468 427.298 138.612Z" fill="#E0E0E0"/>
<path d="M427.298 152.533C427.298 152.677 338.538 152.8 229.067 152.8C119.596 152.8 30.8047 152.677 30.8047 152.533C30.8047 152.388 119.555 152.265 229.067 152.265C338.579 152.265 427.298 152.368 427.298 152.533Z" fill="#E0E0E0"/>
<path d="M427.298 166.453C427.298 166.597 338.538 166.721 229.067 166.721C119.596 166.721 30.8047 166.597 30.8047 166.453C30.8047 166.309 119.555 166.186 229.067 166.186C338.579 166.186 427.298 166.299 427.298 166.453Z" fill="#E0E0E0"/>
<path d="M427.298 180.363C427.298 180.517 338.538 180.631 229.067 180.631C119.596 180.631 30.8047 180.517 30.8047 180.363C30.8047 180.209 119.555 180.096 229.067 180.096C338.579 180.096 427.298 180.219 427.298 180.363Z" fill="#E0E0E0"/>
<path d="M427.298 194.284C427.298 194.428 338.538 194.551 229.067 194.551C119.596 194.551 30.8047 194.428 30.8047 194.284C30.8047 194.14 119.555 194.016 229.067 194.016C338.579 194.016 427.298 194.14 427.298 194.284Z" fill="#E0E0E0"/>
<path d="M427.298 208.205C427.298 208.349 338.538 208.472 229.067 208.472C119.596 208.472 30.8047 208.349 30.8047 208.205C30.8047 208.061 119.555 207.937 229.067 207.937C338.579 207.937 427.298 208.05 427.298 208.205Z" fill="#E0E0E0"/>
<path d="M427.298 222.116C427.298 222.27 338.538 222.393 229.067 222.393C119.596 222.393 30.8047 222.27 30.8047 222.116C30.8047 221.961 119.555 221.848 229.067 221.848C338.579 221.848 427.298 221.971 427.298 222.116Z" fill="#E0E0E0"/>
<path d="M427.298 236.036C427.298 236.191 338.538 236.304 229.067 236.304C119.596 236.304 30.8047 236.191 30.8047 236.036C30.8047 235.882 119.555 235.769 229.067 235.769C338.579 235.769 427.298 235.892 427.298 236.036Z" fill="#E0E0E0"/>
<path d="M427.298 249.957C427.298 250.101 338.538 250.225 229.067 250.225C119.596 250.225 30.8047 250.111 30.8047 249.957C30.8047 249.803 119.555 249.69 229.067 249.69C338.579 249.69 427.298 249.813 427.298 249.957Z" fill="#E0E0E0"/>
<path d="M427.298 263.878C427.298 264.022 338.538 264.145 229.067 264.145C119.596 264.145 30.8047 264.022 30.8047 263.878C30.8047 263.734 119.555 263.61 229.067 263.61C338.579 263.61 427.298 263.724 427.298 263.878Z" fill="#E0E0E0"/>
<path d="M429.49 111.479H45.2812V138.611H429.49V111.479Z" fill="#5FBE3F"/>
<path d="M347.797 123.158C347.797 123.302 302.578 123.425 246.824 123.425C191.07 123.425 145.852 123.302 145.852 123.158C145.852 123.014 191.05 122.88 246.824 122.88C302.599 122.88 347.797 123.003 347.797 123.158Z" fill="#FAFAFA"/>
<path d="M366.883 130.884C366.883 131.028 310.347 131.151 240.61 131.151C170.874 131.151 114.338 131.028 114.338 130.884C114.338 130.74 170.864 130.616 240.61 130.616C310.357 130.616 366.883 130.76 366.883 130.884Z" fill="#FAFAFA"/>
<path d="M221.648 152.532H102.238V166.453H221.648V152.532Z" fill="#5FBE3F"/>
<path d="M221.648 164.909H102.238V223.648H221.648V164.909Z" fill="#EBEBEB"/>
<path d="M152.755 172.79C152.755 172.945 142.899 173.058 130.748 173.058C118.597 173.058 108.74 172.945 108.74 172.79C108.74 172.636 118.597 172.523 130.748 172.523C142.899 172.523 152.755 172.646 152.755 172.79Z" fill="#263238"/>
<path d="M135.172 188.07C135.172 188.214 129.256 188.338 121.961 188.338C114.666 188.338 108.74 188.214 108.74 188.07C108.74 187.926 114.656 187.802 121.961 187.802C129.266 187.802 135.172 187.926 135.172 188.07Z" fill="#263238"/>
<path d="M157.004 199.202C157.004 199.347 146.201 199.47 132.877 199.47C119.554 199.47 108.74 199.347 108.74 199.202C108.74 199.058 119.543 198.935 132.877 198.935C146.211 198.935 157.004 199.048 157.004 199.202Z" fill="#263238"/>
<path d="M135.172 176.948C135.172 177.092 129.256 177.215 121.961 177.215C114.666 177.215 108.74 177.092 108.74 176.948C108.74 176.804 114.656 176.67 121.961 176.67C129.266 176.67 135.172 176.794 135.172 176.948Z" fill="#263238"/>
<path d="M217.214 172.79C214.885 173.061 212.539 173.15 210.197 173.058C207.851 173.15 205.502 173.061 203.17 172.79C205.502 172.526 207.851 172.436 210.197 172.523C212.539 172.436 214.885 172.526 217.214 172.79Z" fill="#263238"/>
<path d="M217.214 185.292C214.885 185.556 212.539 185.646 210.197 185.559C207.851 185.646 205.502 185.556 203.17 185.292C205.502 185.021 207.851 184.932 210.197 185.024C212.539 184.932 214.885 185.021 217.214 185.292Z" fill="#263238"/>
<path d="M217.214 199.202C214.885 199.466 212.539 199.555 210.197 199.469C207.851 199.556 205.502 199.466 203.17 199.202C205.502 198.931 207.851 198.841 210.197 198.934C212.539 198.841 214.885 198.931 217.214 199.202Z" fill="#263238"/>
<path d="M216.441 216.209C216.441 216.353 211.472 216.477 205.34 216.477C199.208 216.477 194.238 216.353 194.238 216.209C194.238 216.065 199.208 215.942 205.34 215.942C211.472 215.942 216.441 216.055 216.441 216.209Z" fill="#263238"/>
<path d="M162.652 222.63C162.508 222.63 162.385 209.934 162.385 194.284C162.385 178.635 162.508 165.939 162.652 165.939C162.796 165.939 162.92 178.625 162.92 194.284C162.92 209.944 162.807 222.63 162.652 222.63Z" fill="#E0E0E0"/>
<path d="M220.65 206.971C220.65 207.115 207.44 207.238 191.163 207.238C174.886 207.238 161.676 207.115 161.676 206.971C161.676 206.827 174.876 206.703 191.163 206.703C207.45 206.703 220.65 206.817 220.65 206.971Z" fill="#E0E0E0"/>
<path d="M221.648 249.442H102.238V263.878H221.648V249.442Z" fill="#F5F5F5"/>
<path d="M221.648 236.037H102.043V249.958H221.648V236.037Z" fill="#5FBE3F"/>
<path d="M158.013 257.365C158.013 257.519 146.747 257.633 132.857 257.633C118.968 257.633 107.691 257.519 107.691 257.365C107.691 257.211 119.009 257.098 132.857 257.098C146.706 257.098 158.013 257.221 158.013 257.365Z" fill="#263238"/>
<path d="M216.441 256.655C216.441 256.799 211.472 256.923 205.34 256.923C199.208 256.923 194.238 256.799 194.238 256.655C194.238 256.511 199.208 256.388 205.34 256.388C211.472 256.388 216.441 256.511 216.441 256.655Z" fill="#263238"/>
<path d="M295.263 200.745H284.934V235.789H295.263V200.745Z" fill="#5FBE3F"/>
<path d="M358.023 207.104H347.693V235.79H358.023V207.104Z" fill="#5FBE3F"/>
<path d="M399.857 215.119H389.527V235.789H399.857V215.119Z" fill="#263238"/>
<path d="M316.181 179.252H305.852V235.789H316.181V179.252Z" fill="#455A64"/>
<path d="M337.107 179.252H326.777V235.789H337.107V179.252Z" fill="#263238"/>
<path d="M378.941 166.196H368.611V235.789H378.941V166.196Z" fill="#455A64"/>
<path d="M51.2687 78.5039H42.1016V87.6713H51.2687V78.5039Z" fill="#5FBE3F"/>
<path d="M56.6272 91.6628H46.4414V81.4768H56.6272V91.6628ZM47.4703 90.6339H55.5983V82.5057H47.4703V90.6339Z" fill="#5FBE3F"/>
<path d="M78.5836 80.9319H70.0234V89.4922H78.5836V80.9319Z" fill="#E0E0E0"/>
<path d="M92.5055 80.9319H83.9453V89.4922H92.5055V80.9319Z" fill="#E0E0E0"/>
<path d="M106.416 80.9319H97.8555V89.4922H106.416V80.9319Z" fill="#E0E0E0"/>
<path d="M120.336 80.9319H111.775V89.4922H120.336V80.9319Z" fill="#E0E0E0"/>
<path d="M134.246 80.9319H125.686V89.4922H134.246V80.9319Z" fill="#E0E0E0"/>
<path d="M237.461 80.8495H146.982V89.5847H237.461V80.8495Z" fill="#E0E0E0"/>
<path d="M340.359 80.8495H249.881V89.5847H340.359V80.8495Z" fill="#E0E0E0"/>
<path d="M429.489 80.8495H351.48V89.5847H429.489V80.8495Z" fill="#E0E0E0"/>
<path d="M429.674 269.907C429.674 268.282 429.591 186.794 429.468 53.9548L429.674 54.1503L31.4105 54.2223L31.678 53.9548C31.678 130.257 31.678 203.308 31.678 269.907L31.4208 269.661L429.715 269.907L31.4208 270.165H31.1738V269.907C31.1738 203.308 31.1738 130.257 31.1738 53.9548V53.677H31.4722L429.735 53.749H429.931V53.9548C429.746 186.794 429.674 268.282 429.674 269.907Z" fill="#263238"/>
<path d="M240.877 292.913L268.656 322.555L310.202 310.209L317.517 326.403C317.517 326.403 269.305 344.368 265.086 342.711C260.868 341.055 235.496 319.551 235.496 319.551L240.877 292.913Z" fill="#5FBE3F"/>
<path d="M257.668 311.845C257.071 312.606 256.414 313.318 255.703 313.975C254.468 315.261 252.791 317.061 251.032 319.119C248.151 322.514 246.001 325.601 245.26 326.537L244.838 327.072L245.126 326.465C245.26 326.177 245.342 326.043 245.363 326.054C245.383 326.064 245.363 326.218 245.27 326.517L245.136 326.445C246.733 323.729 248.568 321.16 250.62 318.769C252.129 316.983 253.737 315.283 255.435 313.676C256.113 312.988 256.861 312.375 257.668 311.845Z" fill="#FAFAFA"/>
<path d="M255.436 308.368C254.733 309.152 253.98 309.891 253.183 310.58C251.783 311.917 249.9 313.821 247.966 316.074C246.032 318.327 244.437 320.467 243.326 322.062C242.772 322.954 242.157 323.807 241.484 324.614C241.889 323.638 242.4 322.71 243.007 321.846C244.381 319.685 245.904 317.622 247.565 315.673C249.224 313.737 251.019 311.922 252.936 310.24C253.7 309.528 254.538 308.9 255.436 308.368Z" fill="#FAFAFA"/>
<path d="M314.493 397.654L313.803 394.433L295.85 397.983L297.043 405L298.175 404.887C303.196 404.372 323.66 401.924 326.829 400.391C330.358 398.672 314.493 397.654 314.493 397.654Z" fill="#5FBE3F"/>
<g opacity="0.5">
<path opacity="0.5" d="M303.555 403.816C303.094 402.308 302.094 401.023 300.746 400.205C300.066 399.777 299.298 399.509 298.5 399.42C297.702 399.331 296.894 399.423 296.137 399.69L297.022 404.732L303.555 403.816Z" fill="white"/>
</g>
<g opacity="0.5">
<path opacity="0.5" d="M322.281 398.426C322.281 398.426 327.899 399.115 327.374 400.113C326.849 401.111 306.251 404.352 297.043 405V404.589L321.046 400.998C321.046 400.998 321.242 398.632 322.281 398.426Z" fill="white"/>
</g>
<path d="M296.725 404.619H297.044L297.939 404.527L301.241 404.156C304.019 403.817 307.867 403.292 312.086 402.634C316.304 401.975 320.131 401.286 322.889 400.751L326.14 400.092L327.025 399.897C327.131 399.884 327.235 399.856 327.333 399.814H327.014L326.13 399.969L322.858 400.555C320.1 401.049 316.283 401.708 312.055 402.376C307.826 403.045 303.999 403.58 301.221 403.961L297.928 404.403L297.033 404.527L296.725 404.619Z" fill="#263238"/>
<path d="M321.097 401.275C321.16 400.712 321.28 400.157 321.457 399.619C321.706 399.106 322.017 398.626 322.383 398.188C321.883 398.514 321.493 398.982 321.263 399.533C321.034 400.084 320.976 400.691 321.097 401.275Z" fill="#263238"/>
<path d="M315.348 399.423C315.409 399.423 315.615 399.094 315.811 398.641C315.961 398.373 316.049 398.074 316.068 397.767C316.006 397.767 315.8 398.096 315.605 398.549C315.455 398.817 315.367 399.116 315.348 399.423Z" fill="#263238"/>
<path d="M313.762 398.878C313.813 398.878 314.071 398.682 314.338 398.353C314.606 398.024 314.78 397.726 314.729 397.684C314.678 397.643 314.431 397.88 314.163 398.209C313.896 398.538 313.721 398.837 313.762 398.878Z" fill="#263238"/>
<path d="M312.578 397.325C313.219 397.377 313.863 397.282 314.461 397.047C313.82 396.994 313.176 397.089 312.578 397.325Z" fill="#263238"/>
<path d="M312.064 396.213C312.409 396.369 312.793 396.415 313.165 396.347C313.531 396.349 313.889 396.241 314.194 396.038C313.474 396.104 312.754 396.162 312.033 396.213H312.064Z" fill="#263238"/>
<path d="M315.717 397.747C316.109 397.756 316.5 397.694 316.869 397.562C317.28 397.439 317.68 397.281 318.063 397.088C318.3 396.985 318.521 396.85 318.721 396.687C318.784 396.639 318.837 396.578 318.875 396.51C318.914 396.441 318.939 396.364 318.948 396.286C318.953 396.197 318.933 396.109 318.889 396.033C318.845 395.956 318.78 395.894 318.701 395.854C318.225 395.705 317.712 395.727 317.251 395.914C316.789 396.102 316.407 396.444 316.17 396.882C316.031 397.141 315.943 397.424 315.912 397.716C315.891 397.821 315.891 397.93 315.912 398.035C315.98 397.674 316.105 397.327 316.283 397.006C316.499 396.659 316.809 396.38 317.178 396.203C317.39 396.092 317.622 396.024 317.86 396.003C318.098 395.981 318.339 396.008 318.567 396.08C318.773 396.193 318.742 396.419 318.567 396.574C318.377 396.72 318.174 396.847 317.96 396.955C317.589 397.148 317.203 397.313 316.808 397.448C316.149 397.644 315.707 397.716 315.717 397.747Z" fill="#263238"/>
<path d="M316.027 397.757C316.12 397.49 316.12 397.2 316.027 396.934C315.949 396.634 315.793 396.361 315.574 396.141C315.455 395.985 315.298 395.863 315.118 395.785C314.938 395.708 314.741 395.678 314.546 395.699C314.432 395.741 314.339 395.826 314.287 395.935C314.235 396.045 314.228 396.171 314.268 396.285C314.324 396.468 314.419 396.636 314.546 396.779C314.738 397.009 314.96 397.213 315.204 397.386C315.419 397.566 315.672 397.692 315.945 397.757C315.945 397.757 315.677 397.582 315.307 397.263C315.083 397.083 314.883 396.875 314.71 396.645C314.504 396.429 314.33 396.008 314.618 395.905C314.906 395.802 315.245 396.08 315.451 396.275C315.652 396.476 315.806 396.718 315.904 396.985C315.968 397.238 316.009 397.496 316.027 397.757Z" fill="#263238"/>
<path d="M296.355 399.629C296.355 399.629 296.86 399.495 297.693 399.464C298.771 399.421 299.839 399.677 300.78 400.205C301.716 400.748 302.485 401.538 303.002 402.489C303.403 403.209 303.506 403.734 303.547 403.714C303.548 403.591 303.527 403.469 303.485 403.354C303.402 403.027 303.285 402.709 303.136 402.407C302.646 401.399 301.861 400.564 300.885 400.013C299.909 399.461 298.789 399.22 297.672 399.32C297.324 399.346 296.979 399.408 296.644 399.506C296.541 399.529 296.443 399.571 296.355 399.629Z" fill="#263238"/>
<path d="M305.551 401.697C306.445 401.768 307.345 401.716 308.226 401.542C309.117 401.447 309.992 401.236 310.829 400.915C310.829 400.853 309.646 401.11 308.195 401.326C306.744 401.542 305.551 401.635 305.551 401.697Z" fill="#263238"/>
<path d="M302.012 402.253C302.012 402.304 302.145 402.489 302.31 402.736C302.475 402.983 302.578 403.22 302.639 403.21C302.701 403.199 302.691 402.901 302.495 402.613C302.3 402.325 302.043 402.201 302.012 402.253Z" fill="#263238"/>
<path d="M300.469 400.802C300.469 400.853 300.582 401.028 300.798 401.183C301.014 401.337 301.22 401.43 301.251 401.388C301.282 401.347 301.148 401.162 300.932 401.008C300.716 400.853 300.469 400.761 300.469 400.802Z" fill="#263238"/>
<path d="M298.412 400.329C298.412 400.39 298.68 400.329 298.957 400.401C299.235 400.473 299.451 400.565 299.492 400.514C299.534 400.462 299.338 400.236 298.999 400.185C298.659 400.133 298.412 400.329 298.412 400.329Z" fill="#263238"/>
<path d="M296.98 400.205C296.98 400.267 297.083 400.339 297.248 400.38C297.413 400.421 297.546 400.38 297.557 400.329C297.567 400.277 297.454 400.195 297.289 400.164C297.125 400.133 296.991 400.144 296.98 400.205Z" fill="#263238"/>
<path d="M209.066 376.13L270.798 317.905C272.694 315.978 274.956 314.449 277.45 313.409C279.945 312.368 282.623 311.836 285.326 311.845H286.55C291.363 312.159 295.926 314.099 299.493 317.346C303.059 320.593 305.417 324.954 306.181 329.717L318.99 393.847L293.269 401.049L284.009 349.132L253.524 376.685L209.066 376.13Z" fill="#263238"/>
<path d="M189.547 382.221C189.279 382.961 187.571 404.321 214.24 404.321H285.581C294.604 404.321 301.93 397.448 301.93 388.97C301.93 380.482 294.604 373.609 285.581 373.609H219.188C216.82 373.605 214.476 374.092 212.305 375.039L189.547 382.221Z" fill="#263238"/>
<path d="M291.92 373.578C291.92 373.733 277.186 373.866 258.996 373.866C240.806 373.866 226.072 373.733 226.072 373.578C226.072 373.424 240.806 373.29 258.996 373.29C277.186 373.29 291.92 373.455 291.92 373.578Z" fill="#455A64"/>
<path d="M282.126 335.561C282.29 335.561 282.301 338.648 282.856 342.393C283.412 346.138 284.286 349.091 284.122 349.153C282.37 344.849 281.685 340.186 282.126 335.561Z" fill="#455A64"/>
<path d="M285.151 335.118C285.527 339.8 285.142 344.512 284.009 349.07C283.844 349.07 284.276 345.983 284.606 342.094C284.935 338.205 285.038 335.118 285.151 335.118Z" fill="#455A64"/>
<path d="M290.242 403.714C292.125 402.958 293.881 401.917 295.448 400.628C297.109 399.202 298.461 397.451 299.419 395.483C300.563 393.069 301.063 390.4 300.87 387.735C300.677 385.07 299.798 382.501 298.318 380.276C297.086 378.473 295.496 376.943 293.647 375.78C291.912 374.744 290.028 373.981 288.061 373.517C288.2 373.496 288.343 373.496 288.482 373.517C288.888 373.559 289.291 373.632 289.686 373.733C291.135 374.09 292.522 374.662 293.802 375.43C295.736 376.576 297.402 378.123 298.689 379.968C300.243 382.253 301.166 384.909 301.364 387.666C301.563 390.423 301.031 393.183 299.82 395.668C298.817 397.677 297.396 399.448 295.654 400.864C294.48 401.813 293.173 402.583 291.775 403.148C291.398 403.298 291.014 403.425 290.622 403.529C290.503 403.605 290.375 403.667 290.242 403.714Z" fill="#455A64"/>
<path d="M231.074 237.868L230.497 240.955L221.536 287.203C220.507 292.574 224.283 297.749 230.045 298.819C235.858 299.848 241.486 296.391 242.628 290.979C243.832 285.31 245.19 279.353 245.19 279.353C245.19 279.353 252.762 279.662 256.26 270.432C257.999 265.844 259.347 258.004 260.293 251.563C260.496 250.182 260.416 248.774 260.058 247.425C259.7 246.076 259.071 244.814 258.209 243.716C257.348 242.618 256.272 241.706 255.047 241.037C253.823 240.368 252.475 239.955 251.085 239.823L231.074 237.868Z" fill="#FFBE9D"/>
<path d="M257.812 256.934C257.785 257.095 257.728 257.25 257.642 257.389C257.555 257.528 257.443 257.649 257.31 257.744C257.177 257.84 257.027 257.908 256.867 257.946C256.708 257.983 256.543 257.989 256.382 257.962C256.224 257.941 256.072 257.888 255.934 257.808C255.797 257.727 255.677 257.62 255.581 257.493C255.486 257.366 255.416 257.221 255.377 257.066C255.338 256.912 255.329 256.752 255.353 256.594C255.408 256.267 255.591 255.975 255.861 255.782C256.131 255.59 256.466 255.511 256.793 255.565C256.951 255.586 257.102 255.639 257.239 255.72C257.376 255.8 257.495 255.908 257.59 256.035C257.685 256.163 257.753 256.308 257.792 256.462C257.83 256.616 257.836 256.777 257.812 256.934Z" fill="#263238"/>
<path d="M257.761 255.256C257.576 255.389 256.794 254.505 255.477 254.227C254.16 253.949 253.059 254.422 252.946 254.227C252.833 254.031 253.1 253.887 253.594 253.661C254.244 253.39 254.962 253.322 255.652 253.465C256.34 253.609 256.964 253.97 257.432 254.494C257.771 254.896 257.853 255.256 257.761 255.256Z" fill="#263238"/>
<path d="M244.653 253.939C244.598 254.266 244.415 254.558 244.146 254.751C243.876 254.944 243.54 255.022 243.213 254.968C243.055 254.949 242.903 254.899 242.765 254.82C242.627 254.741 242.506 254.634 242.41 254.508C242.314 254.381 242.244 254.236 242.206 254.082C242.167 253.928 242.16 253.767 242.184 253.61C242.21 253.448 242.268 253.294 242.354 253.155C242.44 253.015 242.553 252.895 242.686 252.799C242.819 252.703 242.969 252.635 243.128 252.598C243.288 252.56 243.453 252.555 243.614 252.581C243.932 252.625 244.219 252.792 244.414 253.046C244.608 253.301 244.694 253.622 244.653 253.939Z" fill="#263238"/>
<path d="M244.767 252.828C244.582 252.952 243.738 252.077 242.473 251.799C241.207 251.522 240.055 251.985 239.952 251.799C239.849 251.614 240.106 251.45 240.59 251.234C241.24 250.96 241.958 250.892 242.648 251.038C243.336 251.181 243.96 251.542 244.428 252.067C244.778 252.458 244.85 252.777 244.767 252.828Z" fill="#263238"/>
<path d="M247.514 263.59C248.254 263.518 249.001 263.538 249.736 263.652C250.076 263.652 250.415 263.652 250.518 263.467C250.617 263.131 250.617 262.774 250.518 262.438C250.374 261.563 250.22 260.637 250.055 259.67C249.581 257.296 249.299 254.887 249.211 252.468C249.874 254.785 250.349 257.153 250.631 259.547C250.775 260.514 250.919 261.44 251.053 262.325C251.174 262.776 251.138 263.255 250.95 263.683C250.875 263.79 250.777 263.879 250.663 263.943C250.549 264.007 250.422 264.045 250.292 264.053C250.097 264.081 249.9 264.081 249.705 264.053C248.959 263.988 248.223 263.833 247.514 263.59Z" fill="#263238"/>
<path d="M245.188 279.363C240.679 278.499 236.498 276.401 233.109 273.302C233.109 273.302 234.858 280.505 244.592 281.595L245.188 279.363Z" fill="#EB996E"/>
<path d="M243.45 263.693C243.666 263.693 243.378 265.154 244.387 266.429C245.395 267.705 246.959 267.849 246.928 268.055C246.897 268.261 246.527 268.261 245.899 268.148C245.062 267.985 244.308 267.533 243.769 266.872C243.252 266.232 243.001 265.418 243.07 264.598C243.121 263.991 243.358 263.662 243.45 263.693Z" fill="#263238"/>
<path d="M246.177 247.734C245.971 248.064 244.696 247.621 243.091 247.488C241.485 247.354 240.169 247.488 240.004 247.148C239.952 246.983 240.241 246.685 240.817 246.448C241.571 246.15 242.387 246.04 243.193 246.129C244.005 246.195 244.789 246.457 245.477 246.891C246.043 247.241 246.27 247.58 246.177 247.734Z" fill="#263238"/>
<path d="M258.07 251.357C257.771 251.614 256.938 251.11 255.847 250.873C254.757 250.636 253.79 250.647 253.645 250.297C253.584 250.122 253.79 249.854 254.252 249.659C254.862 249.419 255.532 249.379 256.166 249.546C256.807 249.684 257.387 250.023 257.823 250.513C258.142 250.904 258.203 251.233 258.07 251.357Z" fill="#263238"/>
<path d="M270.365 240.646C270.528 239.866 270.434 239.054 270.098 238.331C269.967 237.689 269.6 237.12 269.069 236.736C268.393 236.515 267.659 236.556 267.011 236.85C264.676 237.529 261.867 237.416 260.21 235.594C258.945 234.175 258.698 231.993 257.227 230.79C255.755 229.586 253.235 229.822 251.249 230.46C249.263 231.098 247.134 231.952 245.148 231.355C243.768 230.759 242.491 229.95 241.362 228.958C239.093 227.363 236.285 226.734 233.553 227.209C232.206 227.469 230.941 228.05 229.867 228.902C228.792 229.755 227.939 230.854 227.379 232.106C226.854 233.376 226.703 234.769 226.943 236.122C227.184 237.475 227.807 238.73 228.738 239.741C228.83 239.864 228.923 239.977 229.026 240.091C228.079 245.05 226.968 252.952 229.19 253.548C232.472 254.433 233.645 246.017 233.645 246.017C238.08 245.472 239.078 241.13 240.323 240.461C241.567 239.792 246.341 241.706 250.23 244.577C255.056 248.137 263.451 248.692 266.384 248.764C266.64 248.79 266.899 248.79 267.155 248.764H267.433C267.627 248.725 267.817 248.666 267.999 248.589C268.913 248.023 269.581 247.135 269.872 246.099C270.288 245.235 270.476 244.279 270.417 243.321C270.37 242.972 270.245 242.638 270.051 242.344C269.856 242.05 269.598 241.804 269.295 241.624C269.542 241.565 269.77 241.445 269.957 241.274C270.144 241.103 270.285 240.887 270.365 240.646Z" fill="#263238"/>
<path d="M264.644 242.611C264.726 242.439 264.854 242.293 265.014 242.19C265.239 242.024 265.499 241.913 265.775 241.867C266.05 241.82 266.332 241.839 266.599 241.922C267.027 242.079 267.381 242.392 267.589 242.798C267.797 243.204 267.844 243.674 267.72 244.114C267.637 244.39 267.488 244.643 267.285 244.849C267.083 245.055 266.833 245.209 266.558 245.297C265.957 245.502 265.306 245.502 264.706 245.297C263.389 244.865 262.648 243.486 262.092 242.21C261.84 241.502 261.534 240.814 261.177 240.152C260.828 239.481 260.301 238.918 259.654 238.527C259.306 238.355 258.929 238.254 258.542 238.229C258.155 238.204 257.767 238.257 257.401 238.383C256.609 238.599 255.816 238.99 254.942 239.257C254.037 239.546 253.074 239.599 252.143 239.412C251.201 239.209 250.302 238.84 249.489 238.321C247.942 237.288 246.538 236.056 245.312 234.658C244.189 233.405 242.877 232.335 241.422 231.489C240.086 230.788 238.546 230.577 237.07 230.892C235.476 231.215 234.064 232.13 233.119 233.454C232.173 234.777 231.765 236.41 231.977 238.023C232.077 238.724 232.246 239.413 232.482 240.08C232.368 239.929 232.274 239.763 232.204 239.587C231.992 239.094 231.846 238.575 231.772 238.043C231.62 237.055 231.689 236.045 231.974 235.086C232.258 234.127 232.751 233.243 233.418 232.498C234.446 231.394 235.806 230.656 237.292 230.396C238.777 230.136 240.307 230.368 241.649 231.057C243.166 231.908 244.535 232.999 245.703 234.288C246.915 235.653 248.298 236.856 249.818 237.868C250.578 238.353 251.418 238.701 252.298 238.897C253.142 239.066 254.016 239.02 254.839 238.763C255.672 238.517 256.464 238.126 257.318 237.899C257.748 237.758 258.2 237.704 258.651 237.739C259.101 237.775 259.54 237.899 259.942 238.105C261.506 239.031 262 240.718 262.555 242.015C263.111 243.311 263.769 244.577 264.891 244.957C265.405 245.151 265.968 245.173 266.496 245.019C266.732 244.959 266.95 244.841 267.13 244.676C267.31 244.511 267.445 244.303 267.525 244.072C267.636 243.698 267.606 243.295 267.439 242.942C267.271 242.589 266.98 242.31 266.619 242.159C266.379 242.077 266.124 242.048 265.872 242.075C265.62 242.102 265.376 242.183 265.158 242.313C264.767 242.457 264.664 242.632 264.644 242.611Z" fill="#455A64"/>
<path d="M268.421 244.463C268.4 244.6 268.354 244.733 268.287 244.854C268.117 245.218 267.884 245.549 267.598 245.832C267.139 246.288 266.568 246.615 265.941 246.778C265.1 246.995 264.21 246.915 263.421 246.552C262.517 246.049 261.761 245.318 261.229 244.432C260.931 243.997 260.562 243.615 260.138 243.3C259.92 243.151 259.672 243.049 259.412 242.999C259.152 242.95 258.884 242.954 258.626 243.012C258.038 243.153 257.464 243.342 256.908 243.578C256.274 243.806 255.606 243.92 254.932 243.918C253.529 243.897 252.151 243.544 250.91 242.889C248.368 241.562 246.475 239.627 244.438 238.413C242.72 237.194 240.595 236.689 238.512 237.004C237.829 237.162 237.188 237.467 236.634 237.897C236.08 238.327 235.625 238.871 235.302 239.494C235.104 239.974 234.972 240.48 234.911 240.996C234.887 240.856 234.887 240.713 234.911 240.574C234.92 240.171 235.003 239.773 235.158 239.401C235.464 238.722 235.92 238.12 236.492 237.643C237.064 237.165 237.737 236.824 238.46 236.644C239.544 236.443 240.656 236.458 241.733 236.69C242.81 236.921 243.831 237.364 244.736 237.991C246.856 239.236 248.759 241.15 251.187 242.405C252.351 243.033 253.642 243.385 254.963 243.434C255.583 243.441 256.199 243.34 256.784 243.136C257.369 242.898 257.971 242.705 258.585 242.56C258.904 242.498 259.232 242.5 259.551 242.567C259.869 242.634 260.17 242.765 260.437 242.951C260.901 243.3 261.305 243.724 261.63 244.206C262.102 245.056 262.791 245.766 263.626 246.264C264.332 246.619 265.139 246.721 265.91 246.552C266.498 246.418 267.043 246.138 267.495 245.739C267.858 245.356 268.169 244.927 268.421 244.463Z" fill="#455A64"/>
<path d="M230.033 250.164C229.91 250.071 224.889 247.128 223.685 252.684C222.482 258.24 228.305 258.312 228.346 258.158C228.387 258.004 230.033 250.164 230.033 250.164Z" fill="#FFBE9D"/>
<path d="M227.112 255.678C227.112 255.678 226.998 255.678 226.824 255.77C226.571 255.815 226.31 255.764 226.093 255.626C225.785 255.321 225.563 254.939 225.451 254.519C225.339 254.1 225.34 253.658 225.455 253.239C225.543 252.758 225.74 252.304 226.031 251.912C226.12 251.75 226.247 251.612 226.401 251.51C226.556 251.408 226.732 251.344 226.916 251.325C227.034 251.32 227.15 251.356 227.244 251.428C227.338 251.499 227.404 251.601 227.431 251.716C227.431 251.891 227.431 251.994 227.431 252.005C227.431 252.015 227.564 251.943 227.575 251.696C227.575 251.553 227.524 251.414 227.431 251.305C227.302 251.157 227.122 251.064 226.926 251.048C226.69 251.043 226.456 251.1 226.247 251.211C226.038 251.323 225.861 251.486 225.733 251.686C225.391 252.114 225.159 252.619 225.054 253.157C224.919 253.647 224.931 254.165 225.088 254.648C225.246 255.131 225.541 255.557 225.939 255.873C226.084 255.941 226.242 255.976 226.402 255.976C226.562 255.976 226.72 255.941 226.865 255.873C227.07 255.811 227.132 255.698 227.112 255.678Z" fill="#EB996E"/>
<path d="M320.902 310.455C322.496 310.682 332.713 312.225 333.68 312.986C334.647 313.748 334.627 314.818 333.474 315.044C332.322 315.27 325.871 314.838 325.871 314.838C325.871 314.838 334.195 315.034 334.452 315.867C334.853 317.184 331.89 317.925 326.324 317.04C326.324 317.04 334.812 316.135 334.719 318.223C334.719 319.252 327.085 319.345 327.085 319.345C326.91 319.931 334.73 318.316 334.956 319.571C335.059 320.168 333.989 320.775 330.017 321.331C327.62 321.67 323.659 322.164 319.729 322.689V322.74L315.428 323.347L310.387 311.978C310.778 311.597 313.154 310.105 314.77 308.984C315.775 308.285 317 307.975 318.216 308.109C318.838 308.179 319.425 308.432 319.902 308.837C320.378 309.242 320.723 309.781 320.891 310.383L320.902 310.455Z" fill="#FFBE9D"/>
<path d="M332.96 315.312C330.304 315.147 327.655 314.886 325.018 314.53C326.343 314.266 327.706 314.242 329.04 314.458C330.388 314.501 331.717 314.791 332.96 315.312Z" fill="#EB996E"/>
<path d="M333.26 317.164C332.084 317.293 330.897 317.293 329.721 317.164C328.536 317.212 327.35 317.132 326.182 316.927C327.338 316.601 328.547 316.499 329.742 316.629C330.938 316.578 332.133 316.76 333.26 317.164Z" fill="#EB996E"/>
<path d="M333.557 319.047C332.398 319.304 331.215 319.438 330.028 319.448C328.858 319.64 327.672 319.706 326.488 319.643C327.595 319.172 328.784 318.924 329.986 318.913C331.174 318.728 332.386 318.773 333.557 319.047Z" fill="#EB996E"/>
<path d="M349.958 341.188L320.666 336.62C320.328 336.568 320.003 336.451 319.711 336.273C319.418 336.095 319.163 335.862 318.962 335.585C318.76 335.309 318.615 334.995 318.535 334.662C318.455 334.33 318.441 333.984 318.496 333.646L324.669 294.178C324.721 293.839 324.84 293.514 325.019 293.221C325.197 292.927 325.432 292.672 325.709 292.47C325.986 292.267 326.3 292.121 326.634 292.04C326.967 291.959 327.313 291.944 327.652 291.997L348.137 295.187L357.788 308.048L352.942 339.007C352.889 339.346 352.77 339.671 352.592 339.965C352.413 340.258 352.179 340.513 351.902 340.715C351.625 340.918 351.311 341.064 350.977 341.145C350.644 341.226 350.297 341.241 349.958 341.188Z" fill="#5FBE3F"/>
<path d="M348.117 295.094L346.892 302.944C346.75 303.874 346.982 304.823 347.538 305.583C348.093 306.342 348.926 306.851 349.856 306.998L357.757 308.027L348.117 295.094Z" fill="#5FBE3F"/>
<g opacity="0.2">
<path opacity="0.2" d="M348.117 295.094L346.892 302.944C346.75 303.874 346.982 304.823 347.538 305.583C348.093 306.342 348.926 306.851 349.856 306.998L357.757 308.027L348.117 295.094Z" fill="black"/>
</g>
<path d="M346.768 332.7C346.754 332.573 346.754 332.446 346.768 332.319C346.768 332.041 346.85 331.691 346.912 331.29C347.046 330.323 347.231 329.006 347.457 327.35C347.962 323.944 348.661 319.18 349.515 313.46L349.711 313.727L329.72 310.64L330.018 310.424V310.568V310.733V311.062L329.915 311.721C329.843 312.153 329.771 312.585 329.71 313.017L329.308 315.589C329.041 317.277 328.784 318.933 328.526 320.549C328.012 323.769 327.497 326.814 327.086 329.623L326.89 329.356L341.295 331.722L345.41 332.422L346.501 332.617C346.633 332.633 346.764 332.661 346.892 332.7H346.542L345.513 332.556L341.469 331.99L326.89 329.839H326.664V329.603C327.096 326.794 327.559 323.748 328.053 320.518C328.31 318.902 328.567 317.246 328.825 315.558L329.226 312.986C329.288 312.554 329.36 312.122 329.421 311.69L329.524 311.031L329.576 310.702V310.538V310.393L329.884 310.167L349.855 313.254H350.091V313.48C349.145 319.242 348.363 324.047 347.797 327.483C347.519 329.109 347.293 330.405 347.128 331.342C347.056 331.753 346.994 332.082 346.953 332.37C346.908 332.488 346.845 332.599 346.768 332.7Z" fill="white"/>
<path d="M336.562 331.394C336.795 328.157 337.207 324.935 337.797 321.743C338.208 318.524 338.795 315.329 339.556 312.174C339.324 315.412 338.912 318.634 338.322 321.825C337.913 325.045 337.325 328.239 336.562 331.394Z" fill="white"/>
<path d="M347.436 327.978C344.058 327.722 340.696 327.29 337.363 326.681C334.004 326.245 330.67 325.638 327.373 324.86C330.752 325.108 334.114 325.541 337.446 326.157C340.806 326.585 344.141 327.193 347.436 327.978Z" fill="white"/>
<path d="M348.424 323.162C345.048 322.913 341.689 322.481 338.361 321.866C335.002 321.433 331.667 320.825 328.371 320.045C331.75 320.294 335.112 320.727 338.444 321.341C341.8 321.775 345.131 322.383 348.424 323.162Z" fill="white"/>
<path d="M349.041 318.193C345.688 317.938 342.35 317.509 339.041 316.907C335.707 316.483 332.399 315.875 329.133 315.086C332.483 315.34 335.818 315.769 339.123 316.372C342.46 316.795 345.772 317.403 349.041 318.193Z" fill="white"/>
<path d="M237.738 373.135V369.472L289.891 370.542L319.924 322.555L322.681 324.551L291.918 373.609L237.738 373.135Z" fill="#455A64"/>
<path d="M273.822 357.116L276.445 361.016V369.02C276.087 369.111 275.709 369.084 275.367 368.946C275.025 368.807 274.736 368.563 274.542 368.249C274 366.685 273.577 365.082 273.276 363.454L272.011 366.736C271.759 367.379 271.282 367.909 270.669 368.227C270.056 368.545 269.348 368.63 268.677 368.465L259.006 366.037L262.957 354.719L273.822 357.116Z" fill="#FFBE9D"/>
<path d="M318.609 308.151L327.498 310.981C327.511 311.19 327.478 311.4 327.402 311.596C327.327 311.791 327.21 311.968 327.059 312.115C326.909 312.261 326.729 312.374 326.531 312.444C326.333 312.515 326.123 312.542 325.914 312.524C324.278 312.462 319.915 312.051 319.915 312.051C319.915 312.051 319.915 315.137 317.343 315.785C317.343 315.785 314.113 310.188 314.257 310.034C314.401 309.88 318.609 308.151 318.609 308.151Z" fill="#FFBE9D"/>
<path d="M319.267 319.901C319.267 319.901 319.133 319.572 318.845 319.067C318.463 318.371 317.868 317.816 317.148 317.483L316.664 317.257L317.168 317.051C318.173 316.643 319 315.892 319.504 314.931C319.945 314.113 320.131 313.181 320.039 312.256V311.958H320.337C321.65 311.999 322.955 312.164 324.237 312.452C322.926 312.576 321.607 312.576 320.296 312.452L320.553 312.174C320.698 313.2 320.511 314.246 320.018 315.158C319.459 316.241 318.516 317.077 317.374 317.504V317.071C318.158 317.474 318.774 318.141 319.113 318.954C319.329 319.53 319.308 319.891 319.267 319.901Z" fill="#EB996E"/>
<path d="M220.413 279.744C220.413 279.744 208.756 286.411 204.435 292.914C200.114 299.416 192.439 307.122 187.078 328.029C182.438 346.282 180.71 371.037 185.73 377.869C187.414 380.329 189.449 382.53 191.77 384.402L200.783 380.708C211.514 376.871 221.278 374.391 229.694 366.715L246.783 351.118L237.709 343.977C237.709 343.977 244.592 306.793 242.76 293.809C241.196 282.45 220.413 279.744 220.413 279.744Z" fill="#5FBE3F"/>
<path d="M215.948 297.719L206.4 342.321C205.594 346.089 206.178 350.022 208.045 353.394C209.911 356.765 212.934 359.348 216.555 360.666L258.028 368.619L263.173 353.186L229.539 342.712L239.416 299.622L215.948 297.719Z" fill="#5FBE3F"/>
<path d="M206.051 350.798L206.113 351.065C206.154 351.251 206.205 351.508 206.267 351.837L206.38 352.403L206.627 353.072L206.905 353.843C207.049 354.101 207.203 354.378 207.358 354.677C208.198 356.092 209.344 357.302 210.712 358.216C212.568 359.456 214.631 360.355 216.803 360.871L257.824 368.382L257.546 368.536C259.264 363.638 261.065 358.463 262.947 353.103L263.122 353.442L229.478 342.937L229.221 342.855L229.293 342.587C229.869 340.293 230.497 337.834 231.135 335.385C233.09 327.576 234.921 319.952 236.516 312.513C237.298 308.799 238.039 305.146 238.574 301.535C238.718 300.64 238.718 299.745 238.8 298.86C238.794 297.984 238.694 297.111 238.502 296.257C238.11 294.571 237.323 293.001 236.207 291.678C235.125 290.411 233.773 289.401 232.252 288.721C230.73 288.041 229.076 287.709 227.41 287.748C225.841 287.839 224.307 288.251 222.904 288.959C221.5 289.667 220.257 290.655 219.251 291.863C217.326 294.13 215.893 296.772 215.043 299.621C214.245 302.255 213.61 304.935 213.14 307.647C211.082 317.987 209.446 326.362 208.294 332.175L206.957 338.832C206.802 339.583 206.679 340.159 206.586 340.571C206.494 340.982 206.452 341.157 206.452 341.157C206.468 340.957 206.496 340.758 206.535 340.561C206.607 340.139 206.71 339.532 206.843 338.811C207.131 337.268 207.543 335.015 208.078 332.134C209.179 326.31 210.774 317.925 212.739 307.574C213.198 304.842 213.827 302.142 214.622 299.487C215.481 296.576 216.935 293.875 218.891 291.555C219.937 290.289 221.232 289.253 222.696 288.509C224.16 287.766 225.761 287.331 227.4 287.233C229.145 287.191 230.877 287.538 232.47 288.25C234.063 288.962 235.477 290.021 236.608 291.349C237.783 292.733 238.612 294.376 239.026 296.144C239.232 297.038 239.336 297.953 239.335 298.87C239.263 299.786 239.263 300.722 239.109 301.628C238.604 305.259 237.864 308.922 237.051 312.637C235.456 320.075 233.594 327.679 231.67 335.509C231.032 337.988 230.404 340.447 229.818 342.711L229.633 342.371L263.277 352.887L263.534 352.969L263.451 353.226L258.019 368.659L257.947 368.855H257.741C240.765 365.676 226.628 363.083 216.731 361.138C214.525 360.6 212.434 359.669 210.558 358.391C209.177 357.444 208.029 356.195 207.203 354.739C207.039 354.44 206.895 354.152 206.751 353.885L206.483 353.092L206.257 352.424C206.257 352.211 206.226 352.015 206.164 351.837L206.041 351.055C206.034 350.969 206.037 350.883 206.051 350.798Z" fill="#263238"/>
<path d="M223.757 348.504C223.696 348.504 223.634 347.979 223.85 347.177C224.143 346.119 224.719 345.162 225.517 344.409C226.302 343.643 227.28 343.103 228.346 342.845C229.169 342.67 229.684 342.753 229.684 342.845C229.684 342.938 229.19 343.01 228.459 343.267C227.509 343.61 226.641 344.149 225.913 344.849C225.184 345.549 224.611 346.395 224.231 347.331C223.932 348.021 223.85 348.514 223.757 348.504Z" fill="#263238"/>
<g opacity="0.2">
<path opacity="0.2" d="M214.971 297.121C210.143 312.648 206.798 328.599 204.981 344.758C204.364 348.463 204.292 352.237 204.765 355.963C205.403 359.667 207.224 363.309 210.372 365.346C213.43 367.134 217.054 367.689 220.506 366.9C223.953 366.241 229.519 365.48 232.678 363.988L214.158 360.161C214.158 360.161 202.193 359.42 207.337 336.496C212.481 313.573 214.971 297.121 214.971 297.121Z" fill="black"/>
</g>
<path d="M237.709 343.977C237.722 343.382 237.787 342.79 237.904 342.207C238.079 340.983 238.306 339.357 238.584 337.392C239.18 333.276 239.993 327.669 240.878 321.506C241.763 315.343 242.524 309.684 243.038 305.61L243.646 300.784C243.682 300.191 243.771 299.602 243.913 299.025C243.934 299.619 243.913 300.214 243.851 300.805C243.769 301.957 243.625 303.614 243.409 305.651C242.987 309.766 242.287 315.374 241.403 321.588C240.518 327.803 239.654 333.4 238.964 337.443C238.614 339.501 238.326 341.106 238.11 342.238C238.025 342.828 237.891 343.409 237.709 343.977Z" fill="#263238"/>
<path d="M237.123 311.526C237.123 311.608 235.796 311.104 233.676 310.445C228.143 308.706 222.367 307.862 216.566 307.945C214.344 307.945 212.965 308.089 212.955 307.997C213.264 307.893 213.586 307.831 213.912 307.811C214.529 307.719 215.435 307.626 216.556 307.565C222.414 307.265 228.273 308.121 233.8 310.085C234.829 310.466 235.693 310.806 236.259 311.114C236.564 311.213 236.854 311.352 237.123 311.526Z" fill="#FAFAFA"/>
<path d="M236.011 316.115C236.011 316.197 234.673 315.683 232.512 315.086C226.878 313.415 220.987 312.777 215.125 313.203C212.882 313.368 211.493 313.584 211.482 313.491C211.789 313.364 212.11 313.278 212.439 313.234C213.057 313.1 213.962 312.956 215.094 312.833C218.041 312.51 221.015 312.51 223.963 312.833C226.909 313.156 229.813 313.79 232.626 314.726C233.706 315.096 234.56 315.436 235.136 315.693C235.712 315.95 236.031 316.074 236.011 316.115Z" fill="#FAFAFA"/>
<path d="M250.703 283.252C250.706 282.599 250.511 281.96 250.144 281.42C249.776 280.88 249.254 280.464 248.645 280.227C247.518 279.969 246.347 279.969 245.219 280.227C241.123 280.636 237.01 279.642 233.552 277.408C230.465 275.35 227.945 272.397 224.519 270.998C223.643 270.606 222.688 270.426 221.73 270.473C221.25 270.5 220.783 270.636 220.364 270.872C219.945 271.107 219.585 271.435 219.313 271.831C218.479 273.138 219.035 274.918 219.992 276.142C218.15 277.078 217.203 279.496 218.387 281.194C226.812 282.361 234.44 286.796 239.622 293.541C240.405 294.809 241.459 295.888 242.709 296.699C245.147 297.955 248.378 296.463 249.541 293.983C250.04 292.705 250.208 291.322 250.028 289.961C249.848 288.601 249.327 287.309 248.512 286.205C249.134 285.994 249.677 285.598 250.069 285.07C250.46 284.543 250.682 283.908 250.703 283.252Z" fill="#455A64"/>
<path d="M248.243 285.958C247.935 286.197 247.586 286.378 247.214 286.493C246.262 286.885 245.262 287.148 244.241 287.275C242.714 287.469 241.166 287.378 239.672 287.008C237.855 286.513 236.148 285.678 234.641 284.549C233.026 283.386 231.627 282.131 230.32 281.061C229.178 280.093 227.96 279.219 226.678 278.447C225.471 277.78 224.195 277.249 222.871 276.863C223.25 276.851 223.629 276.899 223.993 277.007C224.995 277.246 225.961 277.62 226.863 278.118C228.192 278.854 229.452 279.708 230.629 280.67C231.966 281.699 233.366 282.974 234.95 284.106C236.403 285.202 238.046 286.022 239.796 286.524C241.23 286.909 242.721 287.034 244.199 286.894C245.578 286.732 246.933 286.418 248.243 285.958Z" fill="#263238"/>
<path d="M244.395 297.265C244.642 297.19 244.883 297.098 245.115 296.987C245.741 296.654 246.255 296.147 246.597 295.526C247.102 294.606 247.32 293.557 247.225 292.512C247.135 291.231 246.89 289.967 246.494 288.746C246.383 288.394 246.179 288.078 245.904 287.832C245.629 287.586 245.292 287.418 244.93 287.347H244.745L244.91 287.151C245.542 286.363 245.902 285.393 245.939 284.384C245.961 283.585 245.776 282.795 245.404 282.089C245.058 281.454 244.593 280.892 244.035 280.433C244.205 280.528 244.364 280.642 244.508 280.772C244.92 281.129 245.268 281.554 245.537 282.027C245.944 282.746 246.153 283.558 246.144 284.384C246.122 285.436 245.761 286.454 245.115 287.285L244.91 287.151C245.313 287.222 245.688 287.403 245.995 287.673C246.302 287.944 246.528 288.293 246.648 288.684C247.062 289.929 247.311 291.223 247.389 292.532C247.47 293.608 247.226 294.683 246.69 295.619C246.321 296.249 245.773 296.754 245.115 297.07C244.889 297.177 244.645 297.243 244.395 297.265Z" fill="#FAFAFA"/>
<path d="M238.191 279.548C238.691 280.029 239.087 280.607 239.354 281.246C240.054 282.794 240.156 284.545 239.642 286.164L239.477 286.606V286.514C239.856 287.211 240.083 287.979 240.145 288.77C240.207 289.56 240.102 290.355 239.838 291.103C239.642 291.719 239.307 292.282 238.86 292.749C239.199 292.219 239.479 291.653 239.694 291.061C239.93 290.334 240.016 289.565 239.947 288.803C239.878 288.041 239.656 287.301 239.292 286.627V286.576V286.524L239.447 286.102C239.942 284.529 239.866 282.83 239.231 281.308C238.948 280.686 238.6 280.096 238.191 279.548Z" fill="#FAFAFA"/>
<path d="M233.87 277.387C233.952 277.482 234.018 277.59 234.066 277.706C234.216 278.018 234.33 278.346 234.405 278.684C234.647 279.813 234.502 280.991 233.994 282.027C233.818 282.396 233.597 282.742 233.335 283.056V282.995C233.295 283.435 233.166 283.863 232.956 284.252C232.745 284.641 232.458 284.984 232.111 285.258C231.913 285.421 231.691 285.553 231.453 285.649C231.374 285.694 231.286 285.722 231.195 285.731C231.484 285.56 231.763 285.371 232.029 285.166C232.658 284.603 233.051 283.824 233.13 282.984C233.372 282.688 233.582 282.367 233.757 282.027C234.243 281.028 234.401 279.901 234.21 278.807C234.128 278.327 234.014 277.853 233.87 277.387Z" fill="#FAFAFA"/>
<path d="M228.284 273.375C227.881 273.712 227.518 274.096 227.204 274.517C226.847 275.034 226.601 275.618 226.48 276.234C226.36 276.85 226.368 277.485 226.504 278.098V278.303V278.406H226.402C225.817 278.548 225.285 278.853 224.867 279.284C224.448 279.716 224.16 280.257 224.035 280.845C223.954 281.339 223.954 281.843 224.035 282.337C223.971 282.215 223.929 282.082 223.912 281.946C223.842 281.572 223.842 281.188 223.912 280.814C224.022 280.186 224.314 279.604 224.751 279.14C225.188 278.676 225.751 278.349 226.371 278.2L226.299 278.334L226.237 278.118C226.095 277.477 226.093 276.813 226.229 276.17C226.366 275.528 226.639 274.922 227.029 274.394C227.266 274.078 227.547 273.797 227.863 273.56C227.992 273.476 228.135 273.414 228.284 273.375Z" fill="#FAFAFA"/>
<path d="M219.652 281.348C219.514 281.246 219.398 281.116 219.312 280.967C219.059 280.577 218.887 280.14 218.808 279.681C218.692 278.979 218.804 278.258 219.127 277.624C219.532 276.849 220.216 276.257 221.041 275.967L220.99 276.132L220.825 275.895C220.335 275.125 220.155 274.199 220.321 273.302C220.456 272.585 220.816 271.929 221.35 271.43C221.707 271.091 222.136 270.838 222.605 270.689C222.773 270.625 222.95 270.587 223.13 270.576C222.506 270.764 221.932 271.091 221.453 271.533C220.959 272.026 220.626 272.657 220.496 273.343C220.352 274.186 220.528 275.052 220.99 275.772C221.035 275.851 221.087 275.927 221.144 275.998L221.226 276.121H221.092C220.317 276.39 219.67 276.941 219.282 277.665C218.963 278.252 218.844 278.928 218.942 279.589C219.027 280.226 219.271 280.831 219.652 281.348Z" fill="#FAFAFA"/>
<path d="M92.4222 358.536C94.4378 353.277 97.0694 348.276 100.262 343.638C101.224 341.987 102.657 340.661 104.378 339.831C107.33 338.709 110.551 340.52 113.164 342.259L119.276 346.282C119.467 346.375 119.638 346.506 119.778 346.667C119.918 346.827 120.023 347.015 120.088 347.218C120.191 347.979 119.255 348.412 118.494 348.504C115.885 348.804 113.255 348.154 111.086 346.673C109.44 345.541 107.835 343.864 105.849 344.07C103.39 344.327 102.289 347.156 101.332 349.482C99.2457 354.448 95.5688 358.581 90.8789 361.232" fill="#5FBE3F"/>
<path d="M92.4112 359.544C92.8845 347.31 93.3681 334.984 96.2901 323.111C99.212 311.238 104.809 299.683 114.007 291.617C112.793 301.906 109.048 311.731 105.344 321.454C100.344 334.487 95.3469 347.519 90.3535 360.552" fill="#5FBE3F"/>
<path d="M90.2817 363.988C88.5495 352.853 85.439 341.977 81.0219 331.609C80.52 330.024 79.5342 328.635 78.2028 327.638C76.1451 326.383 73.4289 327.206 71.1962 328.204C65.888 330.58 60.9748 333.755 56.6275 337.618C56.2504 337.887 55.9749 338.274 55.8456 338.719C55.8284 339.061 55.934 339.399 56.1433 339.67C56.3527 339.942 56.652 340.13 56.9876 340.201C57.6729 340.335 58.381 340.292 59.0453 340.077L71.2682 337.248C72.4782 336.839 73.7828 336.803 75.0133 337.145C76.4434 337.711 77.2459 339.203 77.9353 340.592L89.9421 364.791" fill="#5FBE3F"/>
<g opacity="0.4">
<path opacity="0.4" d="M92.4222 358.536C94.4378 353.277 97.0694 348.276 100.262 343.638C101.224 341.987 102.657 340.661 104.378 339.831C107.33 338.709 110.551 340.52 113.164 342.259L119.276 346.282C119.467 346.375 119.638 346.506 119.778 346.667C119.918 346.827 120.023 347.015 120.088 347.218C120.191 347.979 119.255 348.412 118.494 348.504C115.885 348.804 113.255 348.154 111.086 346.673C109.44 345.541 107.835 343.864 105.849 344.07C103.39 344.327 102.289 347.156 101.332 349.482C99.2457 354.448 95.5688 358.581 90.8789 361.232" fill="black"/>
</g>
<g opacity="0.4">
<path opacity="0.4" d="M92.4112 359.544C92.8845 347.31 93.3681 334.984 96.2901 323.111C99.212 311.238 104.809 299.683 114.007 291.617C112.793 301.906 109.048 311.731 105.344 321.454C100.344 334.487 95.3469 347.519 90.3535 360.552" fill="black"/>
</g>
<g opacity="0.3">
<path opacity="0.3" d="M90.2817 363.988C88.5495 352.853 85.439 341.977 81.0219 331.609C80.52 330.024 79.5342 328.635 78.2028 327.638C76.1451 326.383 73.4289 327.206 71.1962 328.204C65.888 330.58 60.9748 333.755 56.6275 337.618C56.2504 337.887 55.9749 338.274 55.8456 338.719C55.8284 339.061 55.934 339.399 56.1433 339.67C56.3527 339.942 56.652 340.13 56.9876 340.201C57.6729 340.335 58.381 340.292 59.0453 340.077L71.2682 337.248C72.4782 336.839 73.7828 336.803 75.0133 337.145C76.4434 337.711 77.2459 339.203 77.9353 340.592L89.9421 364.791" fill="black"/>
</g>
<path d="M108.852 271.801C98.6432 283.919 92.6651 299.036 91.824 314.86C90.6717 340.89 89.1387 359.647 89.1387 359.647H92.0092C92.0092 359.647 97.7503 307.174 101.578 298.017C105.405 288.86 111.342 275.834 108.852 271.801Z" fill="#5FBE3F"/>
<path d="M108.852 271.801C108.761 272.09 108.64 272.369 108.492 272.634L107.391 274.98C106.445 277.038 105.128 280.001 103.667 283.746C102.206 287.491 100.58 291.977 99.078 297.122C97.39 302.625 96.0533 308.23 95.0758 313.903C94.5613 316.917 94.3247 319.901 94.1086 322.792C93.8926 325.683 93.7177 328.472 93.5633 331.126C93.2547 336.446 92.9254 341.24 92.483 345.242C92.0406 349.245 91.5262 352.445 91.0735 354.688C90.8677 355.799 90.6516 356.643 90.5179 357.229C90.4685 357.524 90.3892 357.814 90.2812 358.093C90.3025 357.792 90.3473 357.493 90.415 357.198C90.5179 356.622 90.6928 355.768 90.878 354.647C91.2587 352.434 91.7319 349.214 92.1126 345.201C92.4933 341.189 92.7814 336.415 93.0695 331.095C93.2135 328.441 93.3678 325.642 93.5839 322.751C93.7567 319.756 94.0795 316.772 94.551 313.81C95.5255 308.105 96.8797 302.471 98.6048 296.947C100.158 291.802 101.805 287.327 103.317 283.571C104.829 279.816 106.198 276.863 107.206 274.846C107.7 273.817 108.122 273.066 108.4 272.541C108.536 272.286 108.687 272.039 108.852 271.801Z" fill="#263238"/>
<path d="M119.522 296.175C119.522 296.175 100.138 314.695 97.9157 332.186C95.6933 349.677 94.6953 358.947 94.6953 358.947H96.609C96.609 358.947 101.157 334.069 107.042 326.249C112.927 318.43 120.87 298.274 119.522 296.175Z" fill="#5FBE3F"/>
<path d="M119.295 297.379C119.218 297.583 119.121 297.779 119.007 297.966L118.102 299.601L114.727 305.579C111.888 310.621 107.957 317.617 104.439 325.694C101.345 332.575 99.019 339.776 97.504 347.167C96.9485 350.006 96.6295 352.311 96.4752 353.937C96.3723 354.739 96.3311 355.367 96.2694 355.789C96.2574 356.007 96.2264 356.224 96.1768 356.437C96.152 356.218 96.152 355.997 96.1768 355.779C96.1768 355.357 96.1768 354.75 96.2694 353.916C96.4432 351.628 96.7386 349.351 97.1542 347.095C98.5669 339.65 100.853 332.397 103.965 325.488C107.08 318.597 110.584 311.888 114.46 305.394C115.921 302.894 117.135 300.888 117.989 299.509L119.018 297.924C119.09 297.733 119.183 297.55 119.295 297.379Z" fill="#263238"/>
<path d="M82.0607 299.426C82.0607 299.426 79.1902 335.982 85.8881 357.794H88.1824C88.1824 357.794 89.7154 310.527 82.0607 299.426Z" fill="#5FBE3F"/>
<path d="M83.6464 306.341C83.7043 306.506 83.7355 306.68 83.739 306.855L83.8933 308.337C84.0167 309.705 84.1814 311.547 84.3769 313.79C84.7472 318.399 85.2411 324.768 85.7452 331.795C86.2494 338.823 86.6712 345.171 86.949 349.821C87.0828 352.075 87.1856 353.937 87.2577 355.295C87.2577 355.881 87.2577 356.324 87.2577 356.777C87.2822 356.951 87.2822 357.127 87.2577 357.301C87.2014 357.135 87.1702 356.962 87.1651 356.787L87.0107 355.305C86.8873 353.937 86.733 352.095 86.5375 349.852C86.1568 345.243 85.6732 338.874 85.1691 331.836C84.6649 324.799 84.2328 318.461 83.955 313.81C83.8316 311.567 83.7287 309.695 83.6464 308.347C83.6464 307.75 83.6464 307.256 83.6464 306.855C83.6283 306.684 83.6283 306.512 83.6464 306.341Z" fill="#263238"/>
<path d="M77.5037 355.676C77.5037 355.676 84.5308 360.728 84.1707 363.073C83.8106 365.419 66.9167 378.033 67.9455 387.983C68.9744 397.932 77.1436 404.754 91.023 404.208C104.902 403.663 114.286 395.01 113.02 386.182C111.755 377.354 97.9781 363.29 97.7826 362.6C97.3299 360.656 103.956 355.676 103.956 355.676H77.5037Z" fill="#263238"/>
<path d="M102.772 368.495C102.772 368.639 97.6272 368.763 91.3408 368.763C85.0545 368.763 79.9102 368.639 79.9102 368.495C79.9102 368.351 85.0545 368.228 91.3408 368.228C97.6272 368.228 102.772 368.341 102.772 368.495Z" fill="#FAFAFA"/>
<path d="M104.387 370.892C104.387 371.036 98.3582 371.16 90.9195 371.16C83.4808 371.16 77.4414 371.036 77.4414 370.892C77.4414 370.748 83.4808 370.625 90.9195 370.625C98.3582 370.625 104.387 370.748 104.387 370.892Z" fill="#FAFAFA"/>
<path d="M106.816 373.577C106.816 373.722 99.6958 373.845 90.899 373.845C82.1022 373.845 74.9824 373.722 74.9824 373.577C74.9824 373.433 82.1125 373.31 90.899 373.31C99.6855 373.31 106.816 373.403 106.816 373.577Z" fill="#FAFAFA"/>
<path d="M108.965 377.086C108.965 377.231 100.734 377.354 90.6206 377.354C80.5068 377.354 72.2656 377.231 72.2656 377.086C72.2656 376.942 80.4965 376.819 90.6206 376.819C100.745 376.819 108.965 376.932 108.965 377.086Z" fill="#FAFAFA"/>
</svg>
